G04*
G04 #@! TF.GenerationSoftware,Altium Limited,Altium Designer,26.1.1 (7)*
G04*
G04 Layer_Color=8388736*
%FSLAX24Y24*%
%MOIN*%
G70*
G04*
G04 #@! TF.SameCoordinates,1ACFDDC1-7C31-4566-9FA3-ECA239237230*
G04*
G04*
G04 #@! TF.FilePolarity,Negative*
G04*
G01*
G75*
%ADD32C,0.0295*%
G04:AMPARAMS|DCode=33|XSize=47.4mil|YSize=43.4mil|CornerRadius=9.3mil|HoleSize=0mil|Usage=FLASHONLY|Rotation=0.000|XOffset=0mil|YOffset=0mil|HoleType=Round|Shape=RoundedRectangle|*
%AMROUNDEDRECTD33*
21,1,0.0474,0.0248,0,0,0.0*
21,1,0.0287,0.0434,0,0,0.0*
1,1,0.0186,0.0144,-0.0124*
1,1,0.0186,-0.0144,-0.0124*
1,1,0.0186,-0.0144,0.0124*
1,1,0.0186,0.0144,0.0124*
%
%ADD33ROUNDEDRECTD33*%
G04:AMPARAMS|DCode=34|XSize=47.4mil|YSize=43.4mil|CornerRadius=9.3mil|HoleSize=0mil|Usage=FLASHONLY|Rotation=270.000|XOffset=0mil|YOffset=0mil|HoleType=Round|Shape=RoundedRectangle|*
%AMROUNDEDRECTD34*
21,1,0.0474,0.0248,0,0,270.0*
21,1,0.0287,0.0434,0,0,270.0*
1,1,0.0186,-0.0124,-0.0144*
1,1,0.0186,-0.0124,0.0144*
1,1,0.0186,0.0124,0.0144*
1,1,0.0186,0.0124,-0.0144*
%
%ADD34ROUNDEDRECTD34*%
G04:AMPARAMS|DCode=35|XSize=67.1mil|YSize=51.3mil|CornerRadius=10.5mil|HoleSize=0mil|Usage=FLASHONLY|Rotation=0.000|XOffset=0mil|YOffset=0mil|HoleType=Round|Shape=RoundedRectangle|*
%AMROUNDEDRECTD35*
21,1,0.0671,0.0303,0,0,0.0*
21,1,0.0461,0.0513,0,0,0.0*
1,1,0.0210,0.0230,-0.0152*
1,1,0.0210,-0.0230,-0.0152*
1,1,0.0210,-0.0230,0.0152*
1,1,0.0210,0.0230,0.0152*
%
%ADD35ROUNDEDRECTD35*%
%ADD36O,0.0907X0.0631*%
G04:AMPARAMS|DCode=37|XSize=74.9mil|YSize=98.6mil|CornerRadius=14mil|HoleSize=0mil|Usage=FLASHONLY|Rotation=180.000|XOffset=0mil|YOffset=0mil|HoleType=Round|Shape=RoundedRectangle|*
%AMROUNDEDRECTD37*
21,1,0.0749,0.0705,0,0,180.0*
21,1,0.0469,0.0986,0,0,180.0*
1,1,0.0281,-0.0234,0.0352*
1,1,0.0281,0.0234,0.0352*
1,1,0.0281,0.0234,-0.0352*
1,1,0.0281,-0.0234,-0.0352*
%
%ADD37ROUNDEDRECTD37*%
G04:AMPARAMS|DCode=38|XSize=74.9mil|YSize=106.4mil|CornerRadius=14mil|HoleSize=0mil|Usage=FLASHONLY|Rotation=270.000|XOffset=0mil|YOffset=0mil|HoleType=Round|Shape=RoundedRectangle|*
%AMROUNDEDRECTD38*
21,1,0.0749,0.0783,0,0,270.0*
21,1,0.0469,0.1064,0,0,270.0*
1,1,0.0281,-0.0392,-0.0234*
1,1,0.0281,-0.0392,0.0234*
1,1,0.0281,0.0392,0.0234*
1,1,0.0281,0.0392,-0.0234*
%
%ADD38ROUNDEDRECTD38*%
G04:AMPARAMS|DCode=39|XSize=65.1mil|YSize=147.8mil|CornerRadius=18.3mil|HoleSize=0mil|Usage=FLASHONLY|Rotation=270.000|XOffset=0mil|YOffset=0mil|HoleType=Round|Shape=RoundedRectangle|*
%AMROUNDEDRECTD39*
21,1,0.0651,0.1112,0,0,270.0*
21,1,0.0285,0.1478,0,0,270.0*
1,1,0.0365,-0.0556,-0.0143*
1,1,0.0365,-0.0556,0.0143*
1,1,0.0365,0.0556,0.0143*
1,1,0.0365,0.0556,-0.0143*
%
%ADD39ROUNDEDRECTD39*%
G04:AMPARAMS|DCode=40|XSize=31.6mil|YSize=43.4mil|CornerRadius=9.9mil|HoleSize=0mil|Usage=FLASHONLY|Rotation=90.000|XOffset=0mil|YOffset=0mil|HoleType=Round|Shape=RoundedRectangle|*
%AMROUNDEDRECTD40*
21,1,0.0316,0.0236,0,0,90.0*
21,1,0.0118,0.0434,0,0,90.0*
1,1,0.0198,0.0118,0.0059*
1,1,0.0198,0.0118,-0.0059*
1,1,0.0198,-0.0118,-0.0059*
1,1,0.0198,-0.0118,0.0059*
%
%ADD40ROUNDEDRECTD40*%
G04:AMPARAMS|DCode=41|XSize=78.9mil|YSize=63.1mil|CornerRadius=12.3mil|HoleSize=0mil|Usage=FLASHONLY|Rotation=0.000|XOffset=0mil|YOffset=0mil|HoleType=Round|Shape=RoundedRectangle|*
%AMROUNDEDRECTD41*
21,1,0.0789,0.0386,0,0,0.0*
21,1,0.0543,0.0631,0,0,0.0*
1,1,0.0245,0.0272,-0.0193*
1,1,0.0245,-0.0272,-0.0193*
1,1,0.0245,-0.0272,0.0193*
1,1,0.0245,0.0272,0.0193*
%
%ADD41ROUNDEDRECTD41*%
%ADD42O,0.0730X0.0336*%
G04:AMPARAMS|DCode=43|XSize=106mil|YSize=126mil|CornerRadius=28.5mil|HoleSize=0mil|Usage=FLASHONLY|Rotation=0.000|XOffset=0mil|YOffset=0mil|HoleType=Round|Shape=RoundedRectangle|*
%AMROUNDEDRECTD43*
21,1,0.1060,0.0690,0,0,0.0*
21,1,0.0490,0.1260,0,0,0.0*
1,1,0.0570,0.0245,-0.0345*
1,1,0.0570,-0.0245,-0.0345*
1,1,0.0570,-0.0245,0.0345*
1,1,0.0570,0.0245,0.0345*
%
%ADD43ROUNDEDRECTD43*%
G04:AMPARAMS|DCode=44|XSize=204.9mil|YSize=124.1mil|CornerRadius=33mil|HoleSize=0mil|Usage=FLASHONLY|Rotation=270.000|XOffset=0mil|YOffset=0mil|HoleType=Round|Shape=RoundedRectangle|*
%AMROUNDEDRECTD44*
21,1,0.2049,0.0581,0,0,270.0*
21,1,0.1388,0.1241,0,0,270.0*
1,1,0.0661,-0.0290,-0.0694*
1,1,0.0661,-0.0290,0.0694*
1,1,0.0661,0.0290,0.0694*
1,1,0.0661,0.0290,-0.0694*
%
%ADD44ROUNDEDRECTD44*%
G04:AMPARAMS|DCode=45|XSize=67.1mil|YSize=51.3mil|CornerRadius=10.5mil|HoleSize=0mil|Usage=FLASHONLY|Rotation=90.000|XOffset=0mil|YOffset=0mil|HoleType=Round|Shape=RoundedRectangle|*
%AMROUNDEDRECTD45*
21,1,0.0671,0.0303,0,0,90.0*
21,1,0.0461,0.0513,0,0,90.0*
1,1,0.0210,0.0152,0.0230*
1,1,0.0210,0.0152,-0.0230*
1,1,0.0210,-0.0152,-0.0230*
1,1,0.0210,-0.0152,0.0230*
%
%ADD45ROUNDEDRECTD45*%
%ADD46C,0.0680*%
%ADD47O,0.1580X0.1330*%
%ADD48R,0.0658X0.0658*%
%ADD49C,0.0658*%
%ADD50C,0.1241*%
%ADD51O,0.1064X0.0671*%
%ADD52R,0.0671X0.0671*%
%ADD53C,0.0395*%
%ADD54C,0.0671*%
%ADD55R,0.0700X0.0700*%
%ADD56C,0.0700*%
%ADD57C,0.0946*%
%ADD58C,0.0080*%
G36*
X23342Y13829D02*
X23383Y13827D01*
X23424Y13824D01*
X23464Y13819D01*
X23504Y13813D01*
X23544Y13805D01*
X23584Y13797D01*
X23624Y13787D01*
X23663Y13775D01*
X23701Y13762D01*
X23739Y13748D01*
X23777Y13733D01*
X23814Y13716D01*
X23851Y13698D01*
X23887Y13679D01*
X23922Y13659D01*
X23957Y13637D01*
X23990Y13614D01*
X24023Y13590D01*
X24056Y13566D01*
X24087Y13540D01*
X24117Y13513D01*
X24147Y13485D01*
X24176Y13456D01*
X24203Y13426D01*
X24230Y13395D01*
X24255Y13363D01*
X24280Y13331D01*
X24303Y13297D01*
X24325Y13263D01*
Y11956D01*
X24303Y11922D01*
X24280Y11889D01*
X24255Y11857D01*
X24230Y11825D01*
X24203Y11794D01*
X24176Y11764D01*
X24147Y11735D01*
X24117Y11707D01*
X24087Y11680D01*
X24056Y11654D01*
X24023Y11629D01*
X23990Y11605D01*
X23957Y11583D01*
X23922Y11561D01*
X23887Y11540D01*
X23851Y11522D01*
X23814Y11503D01*
X23777Y11487D01*
X23739Y11472D01*
X23701Y11457D01*
X23663Y11444D01*
X23624Y11433D01*
X23584Y11423D01*
X23544Y11414D01*
X23504Y11407D01*
X23464Y11400D01*
X23424Y11396D01*
X23383Y11392D01*
X23342Y11390D01*
X23301Y11389D01*
X21726D01*
X21663Y11391D01*
X21599Y11396D01*
X21535Y11404D01*
X21472Y11416D01*
X21411Y11431D01*
X21349Y11449D01*
X21289Y11470D01*
X21230Y11495D01*
X21172Y11522D01*
X21116Y11553D01*
X21062Y11586D01*
X21009Y11622D01*
X20958Y11661D01*
X20910Y11703D01*
X20863Y11747D01*
X20819Y11793D01*
X20778Y11842D01*
X20739Y11892D01*
X20703Y11945D01*
X20669Y12000D01*
X20639Y12056D01*
X20611Y12113D01*
X20587Y12172D01*
X20566Y12233D01*
X20548Y12294D01*
X20533Y12356D01*
X20521Y12419D01*
X20513Y12482D01*
X20507Y12546D01*
X20506Y12610D01*
X20507Y12674D01*
X20513Y12737D01*
X20521Y12801D01*
X20533Y12864D01*
X20548Y12925D01*
X20566Y12987D01*
X20587Y13047D01*
X20611Y13106D01*
X20639Y13164D01*
X20669Y13220D01*
X20703Y13274D01*
X20739Y13327D01*
X20778Y13378D01*
X20819Y13426D01*
X20863Y13473D01*
X20910Y13517D01*
X20958Y13558D01*
X21009Y13597D01*
X21062Y13633D01*
X21116Y13667D01*
X21172Y13697D01*
X21230Y13725D01*
X21289Y13749D01*
X21349Y13770D01*
X21411Y13788D01*
X21472Y13803D01*
X21535Y13815D01*
X21599Y13824D01*
X21663Y13829D01*
X21726Y13830D01*
X23301D01*
X23342Y13829D01*
D02*
G37*
G36*
X27302Y13829D02*
X27366Y13824D01*
X27429Y13815D01*
X27492Y13803D01*
X27554Y13788D01*
X27615Y13770D01*
X27676Y13749D01*
X27735Y13725D01*
X27792Y13697D01*
X27848Y13667D01*
X27903Y13633D01*
X27956Y13597D01*
X28006Y13558D01*
X28055Y13517D01*
X28101Y13473D01*
X28145Y13426D01*
X28187Y13378D01*
X28226Y13327D01*
X28262Y13274D01*
X28295Y13220D01*
X28326Y13164D01*
X28353Y13106D01*
X28378Y13047D01*
X28399Y12987D01*
X28417Y12925D01*
X28432Y12864D01*
X28444Y12801D01*
X28452Y12737D01*
X28457Y12674D01*
X28459Y12610D01*
X28457Y12546D01*
X28452Y12482D01*
X28444Y12419D01*
X28432Y12356D01*
X28417Y12294D01*
X28399Y12233D01*
X28378Y12172D01*
X28353Y12113D01*
X28326Y12056D01*
X28295Y12000D01*
X28262Y11945D01*
X28226Y11892D01*
X28187Y11842D01*
X28145Y11793D01*
X28101Y11747D01*
X28055Y11703D01*
X28006Y11661D01*
X27956Y11622D01*
X27903Y11586D01*
X27848Y11553D01*
X27792Y11522D01*
X27735Y11495D01*
X27676Y11470D01*
X27615Y11449D01*
X27554Y11431D01*
X27492Y11416D01*
X27429Y11404D01*
X27366Y11396D01*
X27302Y11391D01*
X27238Y11389D01*
X25663D01*
X25622Y11390D01*
X25582Y11392D01*
X25541Y11396D01*
X25500Y11400D01*
X25460Y11407D01*
X25420Y11414D01*
X25381Y11423D01*
X25341Y11433D01*
X25302Y11444D01*
X25263Y11457D01*
X25225Y11472D01*
X25187Y11487D01*
X25150Y11503D01*
X25114Y11522D01*
X25078Y11540D01*
X25043Y11561D01*
X25008Y11583D01*
X24974Y11605D01*
X24941Y11629D01*
X24909Y11654D01*
X24878Y11680D01*
X24847Y11707D01*
X24818Y11735D01*
X24789Y11764D01*
X24761Y11794D01*
X24735Y11825D01*
X24709Y11857D01*
X24685Y11889D01*
X24662Y11922D01*
X24640Y11956D01*
Y13263D01*
X24662Y13297D01*
X24685Y13331D01*
X24709Y13363D01*
X24735Y13395D01*
X24761Y13426D01*
X24789Y13456D01*
X24818Y13485D01*
X24847Y13513D01*
X24878Y13540D01*
X24909Y13566D01*
X24941Y13590D01*
X24974Y13614D01*
X25008Y13637D01*
X25043Y13659D01*
X25078Y13679D01*
X25114Y13698D01*
X25150Y13716D01*
X25187Y13733D01*
X25225Y13748D01*
X25263Y13762D01*
X25302Y13775D01*
X25341Y13787D01*
X25381Y13797D01*
X25420Y13805D01*
X25460Y13813D01*
X25500Y13819D01*
X25541Y13824D01*
X25582Y13827D01*
X25622Y13829D01*
X25663Y13830D01*
X27238D01*
X27302Y13829D01*
D02*
G37*
G36*
X22653Y28875D02*
X22694Y28873D01*
X22735Y28869D01*
X22775Y28865D01*
X22815Y28858D01*
X22855Y28851D01*
X22895Y28842D01*
X22935Y28832D01*
X22974Y28821D01*
X23012Y28808D01*
X23050Y28793D01*
X23088Y28778D01*
X23125Y28762D01*
X23162Y28743D01*
X23198Y28725D01*
X23233Y28704D01*
X23268Y28682D01*
X23301Y28660D01*
X23334Y28636D01*
X23367Y28611D01*
X23398Y28585D01*
X23428Y28558D01*
X23458Y28530D01*
X23487Y28501D01*
X23514Y28471D01*
X23541Y28440D01*
X23566Y28408D01*
X23591Y28376D01*
X23614Y28343D01*
X23636Y28309D01*
Y27002D01*
X23614Y26968D01*
X23591Y26934D01*
X23566Y26902D01*
X23541Y26870D01*
X23514Y26839D01*
X23487Y26809D01*
X23458Y26780D01*
X23428Y26752D01*
X23398Y26725D01*
X23367Y26699D01*
X23334Y26675D01*
X23301Y26651D01*
X23268Y26628D01*
X23233Y26606D01*
X23198Y26586D01*
X23162Y26567D01*
X23125Y26549D01*
X23088Y26532D01*
X23050Y26517D01*
X23012Y26503D01*
X22974Y26490D01*
X22935Y26478D01*
X22895Y26468D01*
X22855Y26460D01*
X22815Y26452D01*
X22775Y26446D01*
X22735Y26441D01*
X22694Y26438D01*
X22653Y26436D01*
X22612Y26435D01*
X21037D01*
X20974Y26436D01*
X20910Y26441D01*
X20846Y26450D01*
X20783Y26462D01*
X20722Y26477D01*
X20660Y26495D01*
X20600Y26516D01*
X20541Y26540D01*
X20483Y26568D01*
X20427Y26598D01*
X20373Y26632D01*
X20320Y26668D01*
X20269Y26707D01*
X20221Y26748D01*
X20174Y26792D01*
X20130Y26839D01*
X20089Y26887D01*
X20050Y26938D01*
X20014Y26991D01*
X19980Y27045D01*
X19950Y27101D01*
X19922Y27159D01*
X19898Y27218D01*
X19877Y27278D01*
X19859Y27339D01*
X19844Y27401D01*
X19832Y27464D01*
X19824Y27528D01*
X19819Y27591D01*
X19817Y27655D01*
X19819Y27719D01*
X19824Y27783D01*
X19832Y27846D01*
X19844Y27909D01*
X19859Y27971D01*
X19877Y28032D01*
X19898Y28093D01*
X19922Y28152D01*
X19950Y28209D01*
X19980Y28265D01*
X20014Y28320D01*
X20050Y28373D01*
X20089Y28423D01*
X20130Y28472D01*
X20174Y28518D01*
X20221Y28562D01*
X20269Y28604D01*
X20320Y28643D01*
X20373Y28679D01*
X20427Y28712D01*
X20483Y28743D01*
X20541Y28770D01*
X20600Y28795D01*
X20660Y28816D01*
X20722Y28834D01*
X20783Y28849D01*
X20846Y28861D01*
X20910Y28869D01*
X20974Y28874D01*
X21037Y28876D01*
X22612D01*
X22653Y28875D01*
D02*
G37*
G36*
X26613Y28874D02*
X26677Y28869D01*
X26740Y28861D01*
X26803Y28849D01*
X26865Y28834D01*
X26926Y28816D01*
X26987Y28795D01*
X27046Y28770D01*
X27103Y28743D01*
X27159Y28712D01*
X27214Y28679D01*
X27267Y28643D01*
X27317Y28604D01*
X27366Y28562D01*
X27412Y28518D01*
X27456Y28472D01*
X27498Y28423D01*
X27537Y28373D01*
X27573Y28320D01*
X27606Y28265D01*
X27637Y28209D01*
X27664Y28152D01*
X27689Y28093D01*
X27710Y28032D01*
X27728Y27971D01*
X27743Y27909D01*
X27755Y27846D01*
X27763Y27783D01*
X27768Y27719D01*
X27770Y27655D01*
X27768Y27591D01*
X27763Y27528D01*
X27755Y27464D01*
X27743Y27401D01*
X27728Y27339D01*
X27710Y27278D01*
X27689Y27218D01*
X27664Y27159D01*
X27637Y27101D01*
X27606Y27045D01*
X27573Y26991D01*
X27537Y26938D01*
X27498Y26887D01*
X27456Y26839D01*
X27412Y26792D01*
X27366Y26748D01*
X27317Y26707D01*
X27267Y26668D01*
X27214Y26632D01*
X27159Y26598D01*
X27103Y26568D01*
X27046Y26540D01*
X26987Y26516D01*
X26926Y26495D01*
X26865Y26477D01*
X26803Y26462D01*
X26740Y26450D01*
X26677Y26441D01*
X26613Y26436D01*
X26549Y26435D01*
X24974D01*
X24933Y26436D01*
X24893Y26438D01*
X24852Y26441D01*
X24811Y26446D01*
X24771Y26452D01*
X24732Y26460D01*
X24692Y26468D01*
X24652Y26478D01*
X24613Y26490D01*
X24574Y26503D01*
X24536Y26517D01*
X24498Y26532D01*
X24461Y26549D01*
X24425Y26567D01*
X24389Y26586D01*
X24354Y26606D01*
X24319Y26628D01*
X24285Y26651D01*
X24252Y26675D01*
X24220Y26699D01*
X24189Y26725D01*
X24158Y26752D01*
X24129Y26780D01*
X24100Y26809D01*
X24072Y26839D01*
X24046Y26870D01*
X24020Y26902D01*
X23996Y26934D01*
X23973Y26968D01*
X23951Y27002D01*
Y28309D01*
X23973Y28343D01*
X23996Y28376D01*
X24020Y28408D01*
X24046Y28440D01*
X24072Y28471D01*
X24100Y28501D01*
X24129Y28530D01*
X24158Y28558D01*
X24189Y28585D01*
X24220Y28611D01*
X24252Y28636D01*
X24285Y28660D01*
X24319Y28682D01*
X24354Y28704D01*
X24389Y28725D01*
X24425Y28743D01*
X24461Y28762D01*
X24498Y28778D01*
X24536Y28793D01*
X24574Y28808D01*
X24613Y28821D01*
X24652Y28832D01*
X24692Y28842D01*
X24732Y28851D01*
X24771Y28858D01*
X24811Y28865D01*
X24852Y28869D01*
X24893Y28873D01*
X24933Y28875D01*
X24974Y28876D01*
X26549D01*
X26613Y28874D01*
D02*
G37*
D32*
X32214Y31804D02*
X32215Y31611D01*
X31576Y31040D02*
X31577Y30847D01*
X32214Y20781D02*
X32215Y20588D01*
X31576Y20016D02*
X31577Y19823D01*
X32214Y23537D02*
X32215Y23344D01*
X31576Y22772D02*
X31577Y22579D01*
X31576Y725D02*
X31577Y532D01*
X32214Y1489D02*
X32215Y1296D01*
X31679Y11770D02*
X31680Y11577D01*
X32316Y12534D02*
X32317Y12341D01*
X31576Y17260D02*
X31577Y17067D01*
X32214Y18025D02*
X32215Y17832D01*
X32214Y29048D02*
X32215Y28856D01*
X31576Y28284D02*
X31577Y28091D01*
X32214Y26293D02*
X32215Y26100D01*
X31576Y25528D02*
X31577Y25335D01*
X31679Y14525D02*
X31680Y14333D01*
X32316Y15290D02*
X32317Y15097D01*
X31576Y3481D02*
X31577Y3288D01*
X32214Y4245D02*
X32215Y4052D01*
X31679Y9014D02*
X31680Y8821D01*
X32316Y9778D02*
X32317Y9585D01*
X31679Y6258D02*
X31680Y6065D01*
X32316Y7022D02*
X32317Y6830D01*
D33*
X7306Y19956D02*
D03*
Y20546D02*
D03*
X10506Y1575D02*
D03*
Y984D02*
D03*
X9915Y19354D02*
D03*
Y19944D02*
D03*
X10355Y31006D02*
D03*
Y30415D02*
D03*
X10630Y21457D02*
D03*
Y22047D02*
D03*
X22719Y4721D02*
D03*
Y4130D02*
D03*
X16142Y9915D02*
D03*
Y10506D02*
D03*
X25239Y1575D02*
D03*
Y2165D02*
D03*
X10506Y9506D02*
D03*
Y8915D02*
D03*
X16565Y17781D02*
D03*
Y18371D02*
D03*
X24550Y18372D02*
D03*
Y17782D02*
D03*
X24559Y16580D02*
D03*
Y17170D02*
D03*
X21390Y19767D02*
D03*
Y19176D02*
D03*
X22006Y19767D02*
D03*
Y19176D02*
D03*
X5906Y22343D02*
D03*
Y21752D02*
D03*
X10756Y19354D02*
D03*
Y19944D02*
D03*
X9060Y19956D02*
D03*
Y19365D02*
D03*
X22103Y4130D02*
D03*
Y4721D02*
D03*
X16142Y7715D02*
D03*
Y8306D02*
D03*
X25237Y3425D02*
D03*
Y2834D02*
D03*
X11250Y12805D02*
D03*
Y13395D02*
D03*
X10506Y7306D02*
D03*
Y6715D02*
D03*
X11900Y12195D02*
D03*
Y11605D02*
D03*
X11250Y11614D02*
D03*
Y12205D02*
D03*
D34*
X10350Y31610D02*
D03*
X10940D02*
D03*
X10837Y23964D02*
D03*
X10246D02*
D03*
X16091Y2006D02*
D03*
X15500D02*
D03*
X16100Y3306D02*
D03*
X16691D02*
D03*
X9200Y1669D02*
D03*
X9791D02*
D03*
X10309Y3051D02*
D03*
X10900D02*
D03*
X7455Y829D02*
D03*
X8045D02*
D03*
X1601Y30516D02*
D03*
X1010D02*
D03*
X1601Y29766D02*
D03*
X1010D02*
D03*
X11609Y30106D02*
D03*
X12200D02*
D03*
X20713Y10010D02*
D03*
X20122D02*
D03*
X19191Y9411D02*
D03*
X19782D02*
D03*
X24325Y3411D02*
D03*
X23735D02*
D03*
X13441Y14456D02*
D03*
X12850D02*
D03*
X10059Y12205D02*
D03*
X10650D02*
D03*
X10506Y10506D02*
D03*
X9915D02*
D03*
X15900Y18371D02*
D03*
X15309D02*
D03*
X20591Y24456D02*
D03*
X20000D02*
D03*
X19230Y23894D02*
D03*
X18639D02*
D03*
X20813Y7524D02*
D03*
X21404D02*
D03*
Y6924D02*
D03*
X20813D02*
D03*
X19744Y18406D02*
D03*
X19154D02*
D03*
X14909Y3306D02*
D03*
X14319D02*
D03*
X16109Y2656D02*
D03*
X16700D02*
D03*
X14909D02*
D03*
X15500D02*
D03*
X5315Y21063D02*
D03*
X5906D02*
D03*
X21303Y9410D02*
D03*
X20713D02*
D03*
X12850Y15206D02*
D03*
X13441D02*
D03*
X10840Y24600D02*
D03*
X10250D02*
D03*
X17516Y10630D02*
D03*
X18107D02*
D03*
X9915Y8306D02*
D03*
X10506D02*
D03*
X13189Y12202D02*
D03*
X12598D02*
D03*
X20000Y25056D02*
D03*
X19409D02*
D03*
X20691Y22570D02*
D03*
X20100D02*
D03*
X20691Y21970D02*
D03*
X20100D02*
D03*
X23037Y18372D02*
D03*
X23627D02*
D03*
D35*
X5872Y4025D02*
D03*
Y3356D02*
D03*
X17350Y18406D02*
D03*
Y17737D02*
D03*
D36*
X14991Y9506D02*
D03*
Y10506D02*
D03*
X11409Y9506D02*
D03*
Y10506D02*
D03*
X14991Y7306D02*
D03*
Y8306D02*
D03*
X11409Y7306D02*
D03*
Y8306D02*
D03*
D37*
X11650Y5804D02*
D03*
Y4308D02*
D03*
D38*
X6457Y1772D02*
D03*
X8031D02*
D03*
D39*
X7343Y22047D02*
D03*
X9193D02*
D03*
X19825Y2106D02*
D03*
X17975D02*
D03*
X19311Y7795D02*
D03*
X17461D02*
D03*
X19375Y5006D02*
D03*
X17525D02*
D03*
D40*
X20715Y4948D02*
D03*
Y4200D02*
D03*
X21502Y4574D02*
D03*
X12195Y14455D02*
D03*
Y15203D02*
D03*
X11408Y14829D02*
D03*
X20715Y6315D02*
D03*
Y5567D02*
D03*
X21502Y5941D02*
D03*
X20715Y8848D02*
D03*
Y8100D02*
D03*
X21502Y8474D02*
D03*
X20789Y20987D02*
D03*
X20002Y20613D02*
D03*
Y21361D02*
D03*
Y23894D02*
D03*
Y23146D02*
D03*
X20789Y23520D02*
D03*
X20002Y19994D02*
D03*
Y19246D02*
D03*
X20789Y19620D02*
D03*
D41*
X16200Y5368D02*
D03*
Y4344D02*
D03*
D42*
X11726Y2656D02*
D03*
Y2156D02*
D03*
Y1656D02*
D03*
Y1156D02*
D03*
X13950Y2656D02*
D03*
X13950Y2156D02*
D03*
X13950Y1656D02*
D03*
Y1156D02*
D03*
D43*
X12838Y1906D02*
D03*
D44*
X14900Y4956D02*
D03*
X13000D02*
D03*
D45*
X9950Y14256D02*
D03*
X10619D02*
D03*
X9950Y15406D02*
D03*
X10619D02*
D03*
D46*
X18350Y18406D02*
D03*
Y17406D02*
D03*
X1050Y31610D02*
D03*
X2050D02*
D03*
X3050D02*
D03*
X4050D02*
D03*
X5050D02*
D03*
X6050D02*
D03*
X8050D02*
D03*
X7050D02*
D03*
X9050D02*
D03*
X8060Y24140D02*
D03*
X1060D02*
D03*
X2060D02*
D03*
X3060D02*
D03*
X4060D02*
D03*
X5060D02*
D03*
X6060D02*
D03*
X7060D02*
D03*
X9060D02*
D03*
X8900Y25360D02*
D03*
Y27360D02*
D03*
Y28360D02*
D03*
Y29360D02*
D03*
Y30360D02*
D03*
Y26360D02*
D03*
X16200Y31006D02*
D03*
X17200D02*
D03*
X18200D02*
D03*
X15200D02*
D03*
X14200D02*
D03*
X13200D02*
D03*
X12200D02*
D03*
X14900Y19606D02*
D03*
X15900D02*
D03*
D47*
X32900Y31332D02*
D03*
X30900D02*
D03*
X32900Y20308D02*
D03*
X30900D02*
D03*
X32900Y23064D02*
D03*
X30900D02*
D03*
X30900Y1017D02*
D03*
X32900D02*
D03*
X31002Y12062D02*
D03*
X33002D02*
D03*
X30900Y17552D02*
D03*
X32900D02*
D03*
Y28576D02*
D03*
X30900D02*
D03*
X32900Y25820D02*
D03*
X30900D02*
D03*
X31002Y14818D02*
D03*
X33002D02*
D03*
X30900Y3773D02*
D03*
X32900D02*
D03*
X31002Y9306D02*
D03*
X33002D02*
D03*
X31002Y6550D02*
D03*
X33002D02*
D03*
D48*
X3504Y1663D02*
D03*
D49*
Y2844D02*
D03*
X3504Y4025D02*
D03*
X3504Y5206D02*
D03*
Y6387D02*
D03*
Y7568D02*
D03*
Y8749D02*
D03*
Y9930D02*
D03*
X4686Y1663D02*
D03*
X4686Y2844D02*
D03*
Y4025D02*
D03*
X4686Y5206D02*
D03*
Y7568D02*
D03*
Y8749D02*
D03*
Y9930D02*
D03*
Y6387D02*
D03*
D50*
X1804Y2509D02*
D03*
Y9084D02*
D03*
D51*
X27849Y23670D02*
D03*
Y24670D02*
D03*
Y22670D02*
D03*
X27950Y3506D02*
D03*
Y4506D02*
D03*
Y2506D02*
D03*
Y9006D02*
D03*
Y10006D02*
D03*
Y8006D02*
D03*
X27849Y18170D02*
D03*
Y19170D02*
D03*
Y17170D02*
D03*
D52*
X23041Y19230D02*
D03*
X23730Y4185D02*
D03*
D53*
X27024Y27002D02*
D03*
X27317Y27406D02*
D03*
Y27905D02*
D03*
X27024Y28308D02*
D03*
X26545Y28462D02*
D03*
X26022D02*
D03*
X25498D02*
D03*
X24974D02*
D03*
X24500Y28308D02*
D03*
X24207Y27406D02*
D03*
X24207Y27905D02*
D03*
X24500Y27002D02*
D03*
X26545Y26848D02*
D03*
X26022Y26848D02*
D03*
X25498Y26848D02*
D03*
X24974Y26848D02*
D03*
X23087Y27002D02*
D03*
X23380Y27406D02*
D03*
X23380Y27905D02*
D03*
X23087Y28308D02*
D03*
X22608Y28462D02*
D03*
X22085D02*
D03*
X21561D02*
D03*
X21037D02*
D03*
X20563Y28308D02*
D03*
X20270Y27406D02*
D03*
Y27905D02*
D03*
X20563Y27002D02*
D03*
X22608Y26848D02*
D03*
X22085Y26848D02*
D03*
X21561D02*
D03*
X21037D02*
D03*
X27713Y11957D02*
D03*
X28006Y12360D02*
D03*
Y12859D02*
D03*
X27713Y13263D02*
D03*
X27234Y13417D02*
D03*
X26711D02*
D03*
X26187D02*
D03*
X25663D02*
D03*
X25189Y13263D02*
D03*
X24896Y12360D02*
D03*
X24896Y12859D02*
D03*
X25189Y11957D02*
D03*
X27234Y11803D02*
D03*
X26711Y11803D02*
D03*
X26187Y11803D02*
D03*
X25663Y11803D02*
D03*
X23776Y11957D02*
D03*
X24069Y12360D02*
D03*
X24069Y12859D02*
D03*
X23776Y13263D02*
D03*
X23297Y13417D02*
D03*
X22774D02*
D03*
X22250D02*
D03*
X21726D02*
D03*
X21252Y13263D02*
D03*
X20959Y12360D02*
D03*
Y12859D02*
D03*
X21252Y11957D02*
D03*
X23297Y11803D02*
D03*
X22774Y11803D02*
D03*
X22250D02*
D03*
X21726D02*
D03*
D54*
X24545Y19230D02*
D03*
X23793Y19230D02*
D03*
X25234Y4185D02*
D03*
X24482Y4185D02*
D03*
D55*
X8100Y19956D02*
D03*
D56*
Y18956D02*
D03*
Y17956D02*
D03*
Y16956D02*
D03*
Y15956D02*
D03*
Y14956D02*
D03*
D57*
X9200Y3051D02*
D03*
X7232D02*
D03*
D58*
X6850Y12806D02*
D03*
X16535Y14173D02*
D03*
X2894Y12889D02*
D03*
Y22023D02*
D03*
M02*
