G04*
G04 #@! TF.GenerationSoftware,Altium Limited,Altium Designer,26.1.1 (7)*
G04*
G04 Layer_Color=128*
%FSLAX24Y24*%
%MOIN*%
G70*
G04*
G04 #@! TF.SameCoordinates,1ACFDDC1-7C31-4566-9FA3-ECA239237230*
G04*
G04*
G04 #@! TF.FilePolarity,Positive*
G04*
G01*
G75*
%ADD85C,0.0020*%
D85*
X18190Y18406D02*
X18510D01*
X18350Y18246D02*
Y18566D01*
X18190Y17406D02*
X18510D01*
X18350Y17246D02*
Y17566D01*
X32700Y31332D02*
X33100D01*
X32900Y31132D02*
Y31532D01*
X30700Y31332D02*
X31100D01*
X30900Y31132D02*
Y31532D01*
X32700Y20308D02*
X33100D01*
X32900Y20108D02*
Y20508D01*
X30700Y20308D02*
X31100D01*
X30900Y20108D02*
Y20508D01*
X32700Y23064D02*
X33100D01*
X32900Y22864D02*
Y23264D01*
X30700Y23064D02*
X31100D01*
X30900Y22864D02*
Y23264D01*
X3304Y1663D02*
X3705D01*
X3504Y1462D02*
Y1863D01*
X3304Y2844D02*
X3705D01*
X3504Y2643D02*
Y3044D01*
X1213Y2509D02*
X2394D01*
X1804Y1919D02*
Y3100D01*
X3304Y4025D02*
X3705D01*
X3504Y3824D02*
Y4226D01*
X3304Y5206D02*
X3705D01*
X3504Y5005D02*
Y5407D01*
X3304Y6387D02*
X3705D01*
X3504Y6186D02*
Y6588D01*
X3304Y7568D02*
X3705D01*
X3504Y7367D02*
Y7769D01*
X3304Y8749D02*
X3705D01*
X3504Y8548D02*
Y8950D01*
X3304Y9930D02*
X3705D01*
X3504Y9730D02*
Y10131D01*
X4485Y1663D02*
X4886D01*
X4686Y1462D02*
Y1863D01*
X4485Y2844D02*
X4886D01*
X4686Y2643D02*
Y3044D01*
X4485Y4025D02*
X4886D01*
X4686Y3824D02*
Y4226D01*
X4485Y5206D02*
X4886D01*
X4686Y5005D02*
Y5407D01*
X4485Y7568D02*
X4886D01*
X4686Y7367D02*
Y7769D01*
X4485Y8749D02*
X4886D01*
X4686Y8548D02*
Y8950D01*
X4485Y9930D02*
X4886D01*
X4686Y9730D02*
Y10131D01*
X4485Y6387D02*
X4886D01*
X4686Y6186D02*
Y6588D01*
X1213Y9084D02*
X2394D01*
X1804Y8493D02*
Y9674D01*
X30700Y1017D02*
X31100D01*
X30900Y817D02*
Y1217D01*
X32700Y1017D02*
X33100D01*
X32900Y817D02*
Y1217D01*
X30802Y12062D02*
X31202D01*
X31002Y11862D02*
Y12262D01*
X32802Y12062D02*
X33202D01*
X33002Y11862D02*
Y12262D01*
X30700Y17552D02*
X31100D01*
X30900Y17352D02*
Y17752D01*
X32700Y17552D02*
X33100D01*
X32900Y17352D02*
Y17752D01*
X32700Y28576D02*
X33100D01*
X32900Y28376D02*
Y28776D01*
X30700Y28576D02*
X31100D01*
X30900Y28376D02*
Y28776D01*
X32700Y25820D02*
X33100D01*
X32900Y25620D02*
Y26020D01*
X30700Y25820D02*
X31100D01*
X30900Y25620D02*
Y26020D01*
X30802Y14818D02*
X31202D01*
X31002Y14618D02*
Y15018D01*
X32802Y14818D02*
X33202D01*
X33002Y14618D02*
Y15018D01*
X30700Y3773D02*
X31100D01*
X30900Y3573D02*
Y3973D01*
X32700Y3773D02*
X33100D01*
X32900Y3573D02*
Y3973D01*
X30802Y9306D02*
X31202D01*
X31002Y9106D02*
Y9506D01*
X32802Y9306D02*
X33202D01*
X33002Y9106D02*
Y9506D01*
X30802Y6550D02*
X31202D01*
X31002Y6350D02*
Y6750D01*
X32802Y6550D02*
X33202D01*
X33002Y6350D02*
Y6750D01*
X850Y31610D02*
X1250D01*
X1050Y31410D02*
Y31810D01*
X1850Y31610D02*
X2250D01*
X2050Y31410D02*
Y31810D01*
X2850Y31610D02*
X3250D01*
X3050Y31410D02*
Y31810D01*
X3850Y31610D02*
X4250D01*
X4050Y31410D02*
Y31810D01*
X4850Y31610D02*
X5250D01*
X5050Y31410D02*
Y31810D01*
X5850Y31610D02*
X6250D01*
X6050Y31410D02*
Y31810D01*
X7850Y31610D02*
X8250D01*
X8050Y31410D02*
Y31810D01*
X6850Y31610D02*
X7250D01*
X7050Y31410D02*
Y31810D01*
X8850Y31610D02*
X9250D01*
X9050Y31410D02*
Y31810D01*
X27652Y23670D02*
X28046D01*
X27849Y23473D02*
Y23867D01*
X27652Y24670D02*
X28046D01*
X27849Y24473D02*
Y24867D01*
X27652Y22670D02*
X28046D01*
X27849Y22473D02*
Y22867D01*
X27753Y3506D02*
X28147D01*
X27950Y3309D02*
Y3703D01*
X27753Y4506D02*
X28147D01*
X27950Y4309D02*
Y4703D01*
X27753Y2506D02*
X28147D01*
X27950Y2309D02*
Y2703D01*
X22884Y19230D02*
X23199D01*
X23041Y19073D02*
Y19388D01*
X26925Y27002D02*
X27122D01*
X27024Y26904D02*
Y27101D01*
X27218Y27406D02*
X27415D01*
X27317Y27307D02*
Y27504D01*
X27218Y27905D02*
X27415D01*
X27317Y27806D02*
Y28003D01*
X26925Y28308D02*
X27122D01*
X27024Y28210D02*
Y28407D01*
X26447Y28462D02*
X26644D01*
X26545Y28364D02*
Y28561D01*
X25923Y28462D02*
X26120D01*
X26022Y28364D02*
Y28561D01*
X25400Y28462D02*
X25596D01*
X25498Y28364D02*
Y28561D01*
X24876Y28462D02*
X25073D01*
X24974Y28364D02*
Y28561D01*
X24402Y28308D02*
X24598D01*
X24500Y28210D02*
Y28407D01*
X24108Y27406D02*
X24305D01*
X24207Y27307D02*
Y27504D01*
X24108Y27905D02*
X24305D01*
X24207Y27806D02*
Y28003D01*
X24402Y27002D02*
X24598D01*
X24500Y26904D02*
Y27101D01*
X26447Y26848D02*
X26644D01*
X26545Y26750D02*
Y26947D01*
X25923Y26848D02*
X26120D01*
X26022Y26750D02*
Y26947D01*
X25400Y26848D02*
X25596D01*
X25498Y26750D02*
Y26947D01*
X24876Y26848D02*
X25073D01*
X24974Y26750D02*
Y26947D01*
X25368Y27655D02*
X26156D01*
X25762Y27262D02*
Y28049D01*
X22988Y27002D02*
X23185D01*
X23087Y26904D02*
Y27101D01*
X23281Y27406D02*
X23478D01*
X23380Y27307D02*
Y27504D01*
X23281Y27905D02*
X23478D01*
X23380Y27806D02*
Y28003D01*
X22988Y28308D02*
X23185D01*
X23087Y28210D02*
Y28407D01*
X22510Y28462D02*
X22707D01*
X22608Y28364D02*
Y28561D01*
X21986Y28462D02*
X22183D01*
X22085Y28364D02*
Y28561D01*
X21463Y28462D02*
X21659D01*
X21561Y28364D02*
Y28561D01*
X20939Y28462D02*
X21136D01*
X21037Y28364D02*
Y28561D01*
X20465Y28308D02*
X20661D01*
X20563Y28210D02*
Y28407D01*
X20171Y27406D02*
X20368D01*
X20270Y27307D02*
Y27504D01*
X20171Y27905D02*
X20368D01*
X20270Y27806D02*
Y28003D01*
X20465Y27002D02*
X20661D01*
X20563Y26904D02*
Y27101D01*
X22510Y26848D02*
X22707D01*
X22608Y26750D02*
Y26947D01*
X21986Y26848D02*
X22183D01*
X22085Y26750D02*
Y26947D01*
X21463Y26848D02*
X21659D01*
X21561Y26750D02*
Y26947D01*
X20939Y26848D02*
X21136D01*
X21037Y26750D02*
Y26947D01*
X21431Y27655D02*
X22219D01*
X21825Y27262D02*
Y28049D01*
X24388Y19230D02*
X24703D01*
X24545Y19073D02*
Y19388D01*
X23636Y19230D02*
X23951D01*
X23793Y19073D02*
Y19388D01*
X27753Y9006D02*
X28147D01*
X27950Y8809D02*
Y9203D01*
X27753Y10006D02*
X28147D01*
X27950Y9809D02*
Y10203D01*
X27753Y8006D02*
X28147D01*
X27950Y7809D02*
Y8203D01*
X23573Y4185D02*
X23888D01*
X23730Y4027D02*
Y4342D01*
X27614Y11957D02*
X27811D01*
X27713Y11858D02*
Y12055D01*
X27907Y12360D02*
X28104D01*
X28006Y12262D02*
Y12459D01*
X27907Y12859D02*
X28104D01*
X28006Y12761D02*
Y12958D01*
X27614Y13263D02*
X27811D01*
X27713Y13164D02*
Y13361D01*
X27136Y13417D02*
X27333D01*
X27234Y13318D02*
Y13515D01*
X26612Y13417D02*
X26809D01*
X26711Y13318D02*
Y13515D01*
X26089Y13417D02*
X26285D01*
X26187Y13318D02*
Y13515D01*
X25565Y13417D02*
X25762D01*
X25663Y13318D02*
Y13515D01*
X25091Y13263D02*
X25287D01*
X25189Y13164D02*
Y13361D01*
X24797Y12360D02*
X24994D01*
X24896Y12262D02*
Y12459D01*
X24797Y12859D02*
X24994D01*
X24896Y12761D02*
Y12958D01*
X25091Y11957D02*
X25287D01*
X25189Y11858D02*
Y12055D01*
X27136Y11803D02*
X27333D01*
X27234Y11704D02*
Y11901D01*
X26612Y11803D02*
X26809D01*
X26711Y11704D02*
Y11901D01*
X26089Y11803D02*
X26285D01*
X26187Y11704D02*
Y11901D01*
X25565Y11803D02*
X25762D01*
X25663Y11704D02*
Y11901D01*
X26057Y12610D02*
X26844D01*
X26451Y12216D02*
Y13003D01*
X23677Y11957D02*
X23874D01*
X23776Y11858D02*
Y12055D01*
X23970Y12360D02*
X24167D01*
X24069Y12262D02*
Y12459D01*
X23970Y12859D02*
X24167D01*
X24069Y12761D02*
Y12958D01*
X23677Y13263D02*
X23874D01*
X23776Y13164D02*
Y13361D01*
X23199Y13417D02*
X23396D01*
X23297Y13318D02*
Y13515D01*
X22675Y13417D02*
X22872D01*
X22774Y13318D02*
Y13515D01*
X22152Y13417D02*
X22348D01*
X22250Y13318D02*
Y13515D01*
X21628Y13417D02*
X21825D01*
X21726Y13318D02*
Y13515D01*
X21154Y13263D02*
X21350D01*
X21252Y13164D02*
Y13361D01*
X20860Y12360D02*
X21057D01*
X20959Y12262D02*
Y12459D01*
X20860Y12859D02*
X21057D01*
X20959Y12761D02*
Y12958D01*
X21154Y11957D02*
X21350D01*
X21252Y11858D02*
Y12055D01*
X23199Y11803D02*
X23396D01*
X23297Y11704D02*
Y11901D01*
X22675Y11803D02*
X22872D01*
X22774Y11704D02*
Y11901D01*
X22152Y11803D02*
X22348D01*
X22250Y11704D02*
Y11901D01*
X21628Y11803D02*
X21825D01*
X21726Y11704D02*
Y11901D01*
X22120Y12610D02*
X22907D01*
X22514Y12216D02*
Y13003D01*
X25077Y4185D02*
X25392D01*
X25234Y4027D02*
Y4342D01*
X24325Y4185D02*
X24640D01*
X24482Y4027D02*
Y4342D01*
X27652Y18170D02*
X28046D01*
X27849Y17973D02*
Y18367D01*
X27652Y19170D02*
X28046D01*
X27849Y18973D02*
Y19367D01*
X27652Y17170D02*
X28046D01*
X27849Y16973D02*
Y17367D01*
X7894Y19956D02*
X8307D01*
X8100Y19749D02*
Y20163D01*
X7894Y18956D02*
X8307D01*
X8100Y18749D02*
Y19163D01*
X7894Y17956D02*
X8307D01*
X8100Y17749D02*
Y18163D01*
X7894Y16956D02*
X8307D01*
X8100Y16749D02*
Y17163D01*
X7894Y15956D02*
X8307D01*
X8100Y15749D02*
Y16163D01*
X7894Y14956D02*
X8307D01*
X8100Y14749D02*
Y15163D01*
X7860Y24140D02*
X8260D01*
X8060Y23940D02*
Y24340D01*
X860Y24140D02*
X1260D01*
X1060Y23940D02*
Y24340D01*
X1860Y24140D02*
X2260D01*
X2060Y23940D02*
Y24340D01*
X2860Y24140D02*
X3260D01*
X3060Y23940D02*
Y24340D01*
X3860Y24140D02*
X4260D01*
X4060Y23940D02*
Y24340D01*
X4860Y24140D02*
X5260D01*
X5060Y23940D02*
Y24340D01*
X5860Y24140D02*
X6260D01*
X6060Y23940D02*
Y24340D01*
X6860Y24140D02*
X7260D01*
X7060Y23940D02*
Y24340D01*
X8860Y24140D02*
X9260D01*
X9060Y23940D02*
Y24340D01*
X8700Y25360D02*
X9100D01*
X8900Y25160D02*
Y25560D01*
X8700Y27360D02*
X9100D01*
X8900Y27160D02*
Y27560D01*
X8700Y28360D02*
X9100D01*
X8900Y28160D02*
Y28560D01*
X8700Y29360D02*
X9100D01*
X8900Y29160D02*
Y29560D01*
X8700Y30360D02*
X9100D01*
X8900Y30160D02*
Y30560D01*
X8700Y26360D02*
X9100D01*
X8900Y26160D02*
Y26560D01*
X16000Y31006D02*
X16400D01*
X16200Y30806D02*
Y31206D01*
X17000Y31006D02*
X17400D01*
X17200Y30806D02*
Y31206D01*
X18000Y31006D02*
X18400D01*
X18200Y30806D02*
Y31206D01*
X15000Y31006D02*
X15400D01*
X15200Y30806D02*
Y31206D01*
X14000Y31006D02*
X14400D01*
X14200Y30806D02*
Y31206D01*
X13000Y31006D02*
X13400D01*
X13200Y30806D02*
Y31206D01*
X12000Y31006D02*
X12400D01*
X12200Y30806D02*
Y31206D01*
X14700Y19606D02*
X15100D01*
X14900Y19406D02*
Y19806D01*
X15700Y19606D02*
X16100D01*
X15900Y19406D02*
Y19806D01*
X9003Y3051D02*
X9397D01*
X9200Y2854D02*
Y3248D01*
X7035Y3051D02*
X7428D01*
X7232Y2854D02*
Y3248D01*
X6063Y12806D02*
X7637D01*
X6850Y12019D02*
Y13593D01*
X15748Y14173D02*
X17323D01*
X16535Y13386D02*
Y14961D01*
X2106Y12889D02*
X3681D01*
X2894Y12102D02*
Y13676D01*
X2106Y22023D02*
X3681D01*
X2894Y21235D02*
Y22810D01*
X12104Y24436D02*
X12264D01*
X12184Y24356D02*
Y24516D01*
X12758Y24207D02*
X12918D01*
X12838Y24127D02*
Y24287D01*
X8074Y31020D02*
X8234D01*
X8154Y30940D02*
Y31100D01*
X10305Y29753D02*
X10465D01*
X10385Y29673D02*
Y29833D01*
X16120Y30075D02*
X16280D01*
X16200Y29995D02*
Y30155D01*
X18120Y26185D02*
X18280D01*
X18200Y26105D02*
Y26265D01*
X15120Y26860D02*
X15280D01*
X15200Y26780D02*
Y26940D01*
X17120Y29034D02*
X17280D01*
X17200Y28954D02*
Y29114D01*
X11644Y13278D02*
X11804D01*
X11724Y13198D02*
Y13358D01*
X11722Y12639D02*
X11882D01*
X11802Y12559D02*
Y12719D01*
X33656Y13286D02*
X33816D01*
X33736Y13206D02*
Y13366D01*
X33262Y10924D02*
X33422D01*
X33342Y10844D02*
Y11004D01*
X32475Y14073D02*
X32635D01*
X32555Y13993D02*
Y14153D01*
X32868Y13286D02*
X33028D01*
X32948Y13206D02*
Y13366D01*
X32475Y10924D02*
X32635D01*
X32555Y10844D02*
Y11004D01*
X31687Y14073D02*
X31847D01*
X31767Y13993D02*
Y14153D01*
X32081Y13286D02*
X32241D01*
X32161Y13206D02*
Y13366D01*
X31687Y10924D02*
X31847D01*
X31767Y10844D02*
Y11004D01*
X31294Y13286D02*
X31454D01*
X31374Y13206D02*
Y13366D01*
X30900Y10924D02*
X31060D01*
X30980Y10844D02*
Y11004D01*
X30113Y14073D02*
X30273D01*
X30193Y13993D02*
Y14153D01*
X30506Y13286D02*
X30666D01*
X30586Y13206D02*
Y13366D01*
X30113Y12498D02*
X30273D01*
X30193Y12418D02*
Y12578D01*
X30113Y10924D02*
X30273D01*
X30193Y10844D02*
Y11004D01*
X29719Y14861D02*
X29879D01*
X29799Y14781D02*
Y14941D01*
X29325Y14073D02*
X29485D01*
X29405Y13993D02*
Y14153D01*
X28931Y14861D02*
X29091D01*
X29011Y14781D02*
Y14941D01*
X28144Y14861D02*
X28304D01*
X28224Y14781D02*
Y14941D01*
X27357Y14861D02*
X27517D01*
X27437Y14781D02*
Y14941D01*
X26569Y14861D02*
X26729D01*
X26649Y14781D02*
Y14941D01*
X25782Y14861D02*
X25942D01*
X25862Y14781D02*
Y14941D01*
X24994Y14861D02*
X25154D01*
X25074Y14781D02*
Y14941D01*
X24207Y14861D02*
X24367D01*
X24287Y14781D02*
Y14941D01*
X23813Y14073D02*
X23973D01*
X23893Y13993D02*
Y14153D01*
X23420Y14861D02*
X23580D01*
X23500Y14781D02*
Y14941D01*
X23026Y14073D02*
X23186D01*
X23106Y13993D02*
Y14153D01*
X22632Y14861D02*
X22792D01*
X22712Y14781D02*
Y14941D01*
X22239Y14073D02*
X22399D01*
X22319Y13993D02*
Y14153D01*
X21845Y14861D02*
X22005D01*
X21925Y14781D02*
Y14941D01*
X21451Y14073D02*
X21611D01*
X21531Y13993D02*
Y14153D01*
X20664Y14073D02*
X20824D01*
X20744Y13993D02*
Y14153D01*
X33656Y7774D02*
X33816D01*
X33736Y7694D02*
Y7854D01*
X32475Y8561D02*
X32635D01*
X32555Y8481D02*
Y8641D01*
X32868Y7774D02*
X33028D01*
X32948Y7694D02*
Y7854D01*
X31687Y8561D02*
X31847D01*
X31767Y8481D02*
Y8641D01*
X32081Y7774D02*
X32241D01*
X32161Y7694D02*
Y7854D01*
X31294Y7774D02*
X31454D01*
X31374Y7694D02*
Y7854D01*
X30113Y8561D02*
X30273D01*
X30193Y8481D02*
Y8641D01*
X30506Y7774D02*
X30666D01*
X30586Y7694D02*
Y7854D01*
X30113Y6987D02*
X30273D01*
X30193Y6907D02*
Y7067D01*
X29719Y9349D02*
X29879D01*
X29799Y9269D02*
Y9429D01*
X29325Y8561D02*
X29485D01*
X29405Y8481D02*
Y8641D01*
X29719Y7774D02*
X29879D01*
X29799Y7694D02*
Y7854D01*
X29325Y6987D02*
X29485D01*
X29405Y6907D02*
Y7067D01*
X29719Y6199D02*
X29879D01*
X29799Y6119D02*
Y6279D01*
X29325Y5412D02*
X29485D01*
X29405Y5332D02*
Y5492D01*
X28931Y7774D02*
X29091D01*
X29011Y7694D02*
Y7854D01*
X28538Y6987D02*
X28698D01*
X28618Y6907D02*
Y7067D01*
X28931Y6199D02*
X29091D01*
X29011Y6119D02*
Y6279D01*
X28538Y5412D02*
X28698D01*
X28618Y5332D02*
Y5492D01*
X27750Y6987D02*
X27910D01*
X27830Y6907D02*
Y7067D01*
X28144Y6199D02*
X28304D01*
X28224Y6119D02*
Y6279D01*
X27750Y5412D02*
X27910D01*
X27830Y5332D02*
Y5492D01*
X28144Y1475D02*
X28304D01*
X28224Y1395D02*
Y1555D01*
X27750Y687D02*
X27910D01*
X27830Y607D02*
Y767D01*
X26963Y6987D02*
X27123D01*
X27043Y6907D02*
Y7067D01*
X27357Y6199D02*
X27517D01*
X27437Y6119D02*
Y6279D01*
X26963Y5412D02*
X27123D01*
X27043Y5332D02*
Y5492D01*
X26963Y2262D02*
X27123D01*
X27043Y2182D02*
Y2342D01*
X27357Y1475D02*
X27517D01*
X27437Y1395D02*
Y1555D01*
X26963Y687D02*
X27123D01*
X27043Y607D02*
Y767D01*
X13684Y14833D02*
X13844D01*
X13764Y14753D02*
Y14913D01*
X10988Y15088D02*
X11148D01*
X11068Y15008D02*
Y15168D01*
X8980Y18916D02*
X9140D01*
X9060Y18836D02*
Y18996D01*
X17913Y1380D02*
X18073D01*
X17993Y1300D02*
Y1460D01*
X5792Y2656D02*
X5952D01*
X5872Y2576D02*
Y2736D01*
X10736Y6044D02*
X10896D01*
X10816Y5964D02*
Y6124D01*
X10125Y18374D02*
X10285D01*
X10205Y18294D02*
Y18454D01*
X9311Y14769D02*
X9471D01*
X9391Y14689D02*
Y14849D01*
X10975Y14573D02*
X11135D01*
X11055Y14493D02*
Y14653D01*
X19111Y12120D02*
X19271D01*
X19191Y12040D02*
Y12200D01*
X21881Y10348D02*
X22041D01*
X21960Y10268D02*
Y10428D01*
X19394Y9885D02*
X19554D01*
X19474Y9805D02*
Y9965D01*
X18289Y8948D02*
X18449D01*
X18369Y8868D02*
Y9028D01*
X19198Y8892D02*
X19358D01*
X19278Y8812D02*
Y8972D01*
X20168Y8965D02*
X20328D01*
X20248Y8885D02*
Y9045D01*
X19313Y7396D02*
X19473D01*
X19393Y7316D02*
Y7476D01*
X19746Y7396D02*
X19906D01*
X19826Y7316D02*
Y7476D01*
X19313Y4396D02*
X19473D01*
X19393Y4316D02*
Y4476D01*
X19746Y4396D02*
X19906D01*
X19826Y4316D02*
Y4476D01*
X19313Y5616D02*
X19473D01*
X19393Y5536D02*
Y5696D01*
X19746Y5616D02*
X19906D01*
X19826Y5536D02*
Y5696D01*
X19763Y2716D02*
X19923D01*
X19843Y2636D02*
Y2796D01*
X20196Y2716D02*
X20356D01*
X20276Y2636D02*
Y2796D01*
X19329Y2716D02*
X19489D01*
X19409Y2636D02*
Y2796D01*
X18896Y1496D02*
X19056D01*
X18976Y1416D02*
Y1576D01*
X19329Y1496D02*
X19489D01*
X19409Y1416D02*
Y1576D01*
X20196Y1496D02*
X20356D01*
X20276Y1416D02*
Y1576D01*
X19763Y1496D02*
X19923D01*
X19843Y1416D02*
Y1576D01*
X6760Y829D02*
X6920D01*
X6840Y749D02*
Y909D01*
X8796Y2263D02*
X8956D01*
X8876Y2183D02*
Y2343D01*
X10529Y2141D02*
X10689D01*
X10609Y2061D02*
Y2221D01*
X9992Y432D02*
X10152D01*
X10072Y352D02*
Y512D01*
X14876Y2124D02*
X15036D01*
X14956Y2044D02*
Y2204D01*
X8020Y10150D02*
X8180D01*
X8100Y10070D02*
Y10230D01*
X7657Y9084D02*
X7817D01*
X7737Y9004D02*
Y9164D01*
X8640Y7978D02*
X8800D01*
X8720Y7898D02*
Y8058D01*
X8640Y6930D02*
X8800D01*
X8720Y6850D02*
Y7010D01*
X9631Y6822D02*
X9791D01*
X9711Y6742D02*
Y6902D01*
X16362Y6594D02*
X16522D01*
X16442Y6514D02*
Y6674D01*
X15423Y7806D02*
X15583D01*
X15503Y7726D02*
Y7886D01*
X16319Y9408D02*
X16479D01*
X16399Y9328D02*
Y9488D01*
X16774Y10924D02*
X16934D01*
X16854Y10844D02*
Y11004D01*
X15552Y10021D02*
X15712D01*
X15632Y9941D02*
Y10101D01*
X10426Y11612D02*
X10586D01*
X10506Y11532D02*
Y11692D01*
X12787Y11337D02*
X12947D01*
X12867Y11257D02*
Y11417D01*
X14019Y11655D02*
X14179D01*
X14099Y11575D02*
Y11735D01*
X14823Y16272D02*
X14983D01*
X14903Y16192D02*
Y16352D01*
X14809Y17822D02*
X14969D01*
X14889Y17742D02*
Y17902D01*
X13577Y17603D02*
X13737D01*
X13657Y17523D02*
Y17683D01*
X18743Y25644D02*
X18903D01*
X18823Y25564D02*
Y25724D01*
X17514Y24460D02*
X17674D01*
X17594Y24380D02*
Y24540D01*
X15720Y24456D02*
X15880D01*
X15800Y24376D02*
Y24536D01*
X15666Y25905D02*
X15826D01*
X15746Y25825D02*
Y25985D01*
X15666Y27363D02*
X15826D01*
X15746Y27283D02*
Y27443D01*
X14405Y27349D02*
X14565D01*
X14485Y27269D02*
Y27429D01*
X14405Y25891D02*
X14565D01*
X14485Y25811D02*
Y25971D01*
X14405Y24451D02*
X14565D01*
X14485Y24371D02*
Y24531D01*
X12747Y23520D02*
X12907D01*
X12827Y23440D02*
Y23600D01*
X11703Y13681D02*
X11863D01*
X11783Y13601D02*
Y13761D01*
X13982Y14104D02*
X14142D01*
X14062Y14024D02*
Y14184D01*
X13258Y13114D02*
X13418D01*
X13338Y13034D02*
Y13194D01*
X12770Y13689D02*
X12930D01*
X12850Y13609D02*
Y13769D01*
X10004Y12806D02*
X10164D01*
X10084Y12726D02*
Y12886D01*
X9563Y13495D02*
X9723D01*
X9643Y13415D02*
Y13575D01*
X12313Y22053D02*
X12473D01*
X12393Y21973D02*
Y22133D01*
X19467Y3099D02*
X19627D01*
X19547Y3019D02*
Y3179D01*
X11479Y22669D02*
X11639D01*
X11559Y22589D02*
Y22749D01*
X11942Y23391D02*
X12102D01*
X12022Y23311D02*
Y23471D01*
X18027Y9443D02*
X18187D01*
X18107Y9363D02*
Y9523D01*
X23813Y23522D02*
X23973D01*
X23893Y23442D02*
Y23602D01*
X24601Y21947D02*
X24761D01*
X24681Y21867D02*
Y22027D01*
X23813Y20372D02*
X23973D01*
X23893Y20292D02*
Y20452D01*
X23813Y17223D02*
X23973D01*
X23893Y17143D02*
Y17303D01*
X24601Y9349D02*
X24761D01*
X24681Y9269D02*
Y9429D01*
X24601Y6199D02*
X24761D01*
X24681Y6119D02*
Y6279D01*
X24601Y3050D02*
X24761D01*
X24681Y2970D02*
Y3130D01*
X23813Y1475D02*
X23973D01*
X23893Y1395D02*
Y1555D01*
X23026Y25097D02*
X23186D01*
X23106Y25017D02*
Y25177D01*
X22239Y23522D02*
X22399D01*
X22318Y23442D02*
Y23602D01*
X23026Y21947D02*
X23186D01*
X23106Y21867D02*
Y22027D01*
X22239Y20372D02*
X22399D01*
X22318Y20292D02*
Y20452D01*
X22239Y17223D02*
X22399D01*
X22318Y17143D02*
Y17303D01*
X23026Y9349D02*
X23186D01*
X23106Y9269D02*
Y9429D01*
X22239Y7774D02*
X22399D01*
X22318Y7694D02*
Y7854D01*
X23026Y6199D02*
X23186D01*
X23106Y6119D02*
Y6279D01*
X23026Y3050D02*
X23186D01*
X23106Y2970D02*
Y3130D01*
X22239Y1475D02*
X22399D01*
X22318Y1395D02*
Y1555D01*
X21451Y25097D02*
X21611D01*
X21531Y25017D02*
Y25177D01*
X21451Y21947D02*
X21611D01*
X21531Y21867D02*
Y22027D01*
X19089Y20372D02*
X19249D01*
X19169Y20292D02*
Y20452D01*
X19876Y15648D02*
X20036D01*
X19956Y15568D02*
Y15728D01*
X19089Y14073D02*
X19249D01*
X19169Y13993D02*
Y14153D01*
X19089Y10924D02*
X19249D01*
X19169Y10844D02*
Y11004D01*
X19876Y6199D02*
X20036D01*
X19956Y6119D02*
Y6279D01*
X17514Y26672D02*
X17674D01*
X17594Y26592D02*
Y26752D01*
X17514Y23522D02*
X17674D01*
X17594Y23442D02*
Y23602D01*
X18302Y21947D02*
X18462D01*
X18382Y21867D02*
Y22027D01*
X17514Y20372D02*
X17674D01*
X17594Y20292D02*
Y20452D01*
X18302Y15648D02*
X18462D01*
X18382Y15568D02*
Y15728D01*
X18302Y12498D02*
X18462D01*
X18382Y12418D02*
Y12578D01*
X16727Y28246D02*
X16887D01*
X16807Y28166D02*
Y28326D01*
X15939Y23522D02*
X16099D01*
X16019Y23442D02*
Y23602D01*
X16727Y21947D02*
X16887D01*
X16807Y21867D02*
Y22027D01*
X15939Y20372D02*
X16099D01*
X16019Y20292D02*
Y20452D01*
X16727Y18798D02*
X16887D01*
X16807Y18718D02*
Y18878D01*
X15939Y1475D02*
X16099D01*
X16019Y1395D02*
Y1555D01*
X14364Y23522D02*
X14524D01*
X14444Y23442D02*
Y23602D01*
X15152Y21947D02*
X15312D01*
X15232Y21867D02*
Y22027D01*
X14364Y20372D02*
X14524D01*
X14444Y20292D02*
Y20452D01*
X15152Y18798D02*
X15312D01*
X15232Y18718D02*
Y18878D01*
X15152Y6199D02*
X15312D01*
X15232Y6119D02*
Y6279D01*
X13577Y15648D02*
X13737D01*
X13657Y15568D02*
Y15728D01*
X13577Y6199D02*
X13737D01*
X13657Y6119D02*
Y6279D01*
X11215Y20372D02*
X11375D01*
X11295Y20292D02*
Y20452D01*
X11215Y17223D02*
X11375D01*
X11295Y17143D02*
Y17303D01*
X9640Y17223D02*
X9800D01*
X9720Y17143D02*
Y17303D01*
X9640Y10924D02*
X9800D01*
X9720Y10844D02*
Y11004D01*
X9640Y4624D02*
X9800D01*
X9720Y4544D02*
Y4704D01*
X8853Y15648D02*
X9013D01*
X8933Y15568D02*
Y15728D01*
X8065Y14073D02*
X8225D01*
X8145Y13993D02*
Y14153D01*
X8065Y4624D02*
X8225D01*
X8145Y4544D02*
Y4704D01*
X6490Y29821D02*
X6650D01*
X6570Y29741D02*
Y29901D01*
X7278Y28246D02*
X7438D01*
X7358Y28166D02*
Y28326D01*
X6490Y20372D02*
X6650D01*
X6570Y20292D02*
Y20452D01*
X7278Y18798D02*
X7438D01*
X7358Y18718D02*
Y18878D01*
X6490Y17223D02*
X6650D01*
X6570Y17143D02*
Y17303D01*
X7278Y15648D02*
X7438D01*
X7358Y15568D02*
Y15728D01*
X6490Y14073D02*
X6650D01*
X6570Y13993D02*
Y14153D01*
X6490Y7774D02*
X6650D01*
X6570Y7694D02*
Y7854D01*
X7278Y6199D02*
X7438D01*
X7358Y6119D02*
Y6279D01*
X6490Y4624D02*
X6650D01*
X6570Y4544D02*
Y4704D01*
X4916Y26672D02*
X5076D01*
X4996Y26592D02*
Y26752D01*
X4916Y23522D02*
X5076D01*
X4996Y23442D02*
Y23602D01*
X4916Y20372D02*
X5076D01*
X4996Y20292D02*
Y20452D01*
X5703Y18798D02*
X5863D01*
X5783Y18718D02*
Y18878D01*
X4916Y17223D02*
X5076D01*
X4996Y17143D02*
Y17303D01*
X4916Y14073D02*
X5076D01*
X4996Y13993D02*
Y14153D01*
X5703Y12498D02*
X5863D01*
X5783Y12418D02*
Y12578D01*
X4916Y4624D02*
X5076D01*
X4996Y4544D02*
Y4704D01*
X3341Y20372D02*
X3501D01*
X3421Y20292D02*
Y20452D01*
X4128Y18798D02*
X4288D01*
X4208Y18718D02*
Y18878D01*
X3341Y17223D02*
X3501D01*
X3421Y17143D02*
Y17303D01*
X4128Y15648D02*
X4288D01*
X4208Y15568D02*
Y15728D01*
X3341Y14073D02*
X3501D01*
X3421Y13993D02*
Y14153D01*
X4128Y12498D02*
X4288D01*
X4208Y12418D02*
Y12578D01*
X3341Y10924D02*
X3501D01*
X3421Y10844D02*
Y11004D01*
X4128Y9349D02*
X4288D01*
X4208Y9269D02*
Y9429D01*
X3341Y4624D02*
X3501D01*
X3421Y4544D02*
Y4704D01*
X2553Y28246D02*
X2713D01*
X2633Y28166D02*
Y28326D01*
X1766Y17223D02*
X1926D01*
X1846Y17143D02*
Y17303D01*
X2553Y15648D02*
X2713D01*
X2633Y15568D02*
Y15728D01*
X1766Y14073D02*
X1926D01*
X1846Y13993D02*
Y14153D01*
X1766Y10924D02*
X1926D01*
X1846Y10844D02*
Y11004D01*
X2553Y9349D02*
X2713D01*
X2633Y9269D02*
Y9429D01*
X1766Y7774D02*
X1926D01*
X1846Y7694D02*
Y7854D01*
X2553Y6199D02*
X2713D01*
X2633Y6119D02*
Y6279D01*
X1766Y4624D02*
X1926D01*
X1846Y4544D02*
Y4704D01*
X2553Y3050D02*
X2713D01*
X2633Y2970D02*
Y3130D01*
X1766Y1475D02*
X1926D01*
X1846Y1395D02*
Y1555D01*
X3831Y22854D02*
X3991D01*
X3911Y22774D02*
Y22934D01*
X18417Y11382D02*
X18577D01*
X18497Y11302D02*
Y11462D01*
X7150Y29930D02*
X7310D01*
X7230Y29850D02*
Y30010D01*
X13530Y25860D02*
X13690D01*
X13610Y25780D02*
Y25940D01*
X4770Y25860D02*
X4930D01*
X4850Y25780D02*
Y25940D01*
X13170Y26831D02*
X13330D01*
X13250Y26751D02*
Y26911D01*
X5280Y26870D02*
X5440D01*
X5360Y26790D02*
Y26950D01*
X13840Y27852D02*
X14000D01*
X13920Y27772D02*
Y27932D01*
X14820Y16956D02*
X14980D01*
X14900Y16876D02*
Y17036D01*
X6250Y27870D02*
X6410D01*
X6330Y27790D02*
Y27950D01*
X1980Y28810D02*
X2140D01*
X2060Y28730D02*
Y28890D01*
X12809Y22816D02*
X12969D01*
X12889Y22736D02*
Y22896D01*
X8980Y21457D02*
X9140D01*
X9060Y21377D02*
Y21537D01*
X20506Y23896D02*
X20666D01*
X20586Y23816D02*
Y23976D01*
X16120Y5906D02*
X16280D01*
X16200Y5826D02*
Y5986D01*
X11021Y2155D02*
X11181D01*
X11101Y2075D02*
Y2235D01*
X16120Y3839D02*
X16280D01*
X16200Y3759D02*
Y3919D01*
X11640Y3051D02*
X11800D01*
X11720Y2971D02*
Y3131D01*
X13673Y12202D02*
X13833D01*
X13753Y12122D02*
Y12282D01*
X19664Y17949D02*
X19824D01*
X19744Y17869D02*
Y18029D01*
X21422Y6396D02*
X21582D01*
X21502Y6316D02*
Y6476D01*
X20268Y812D02*
X20428D01*
X20348Y732D02*
Y892D01*
X20709Y21442D02*
X20869D01*
X20789Y21362D02*
Y21522D01*
X9120Y8306D02*
X9280D01*
X9200Y8226D02*
Y8386D01*
X9137Y10503D02*
X9297D01*
X9217Y10423D02*
Y10583D01*
X14820Y18374D02*
X14980D01*
X14900Y18294D02*
Y18454D01*
X10550Y13386D02*
X10710D01*
X10630Y13306D02*
Y13466D01*
X16062Y11006D02*
X16222D01*
X16142Y10926D02*
Y11086D01*
X16062Y8820D02*
X16222D01*
X16142Y8740D02*
Y8900D01*
X10229Y3543D02*
X10389D01*
X10309Y3463D02*
Y3623D01*
X22883Y7339D02*
X23043D01*
X22963Y7259D02*
Y7419D01*
X22170Y22384D02*
X22330D01*
X22250Y22304D02*
Y22464D01*
X33656Y29821D02*
X33816D01*
X33736Y29741D02*
Y29901D01*
X33262Y27459D02*
X33422D01*
X33342Y27379D02*
Y27539D01*
X32868Y29821D02*
X33028D01*
X32948Y29741D02*
Y29901D01*
X32475Y27459D02*
X32635D01*
X32555Y27379D02*
Y27539D01*
X31687Y30609D02*
X31847D01*
X31767Y30529D02*
Y30689D01*
X32081Y29821D02*
X32241D01*
X32161Y29741D02*
Y29901D01*
X31687Y29034D02*
X31847D01*
X31767Y28954D02*
Y29114D01*
X31687Y27459D02*
X31847D01*
X31767Y27379D02*
Y27539D01*
X31294Y29821D02*
X31454D01*
X31374Y29741D02*
Y29901D01*
X30900Y27459D02*
X31060D01*
X30980Y27379D02*
Y27539D01*
X30113Y30609D02*
X30273D01*
X30193Y30529D02*
Y30689D01*
X30506Y29821D02*
X30666D01*
X30586Y29741D02*
Y29901D01*
X30113Y27459D02*
X30273D01*
X30193Y27379D02*
Y27539D01*
X29719Y31396D02*
X29879D01*
X29799Y31316D02*
Y31476D01*
X29325Y30609D02*
X29485D01*
X29405Y30529D02*
Y30689D01*
X29719Y29821D02*
X29879D01*
X29799Y29741D02*
Y29901D01*
X29325Y29034D02*
X29485D01*
X29405Y28954D02*
Y29114D01*
X29719Y28247D02*
X29879D01*
X29799Y28166D02*
Y28326D01*
X29325Y27459D02*
X29485D01*
X29405Y27379D02*
Y27539D01*
X28931Y31396D02*
X29091D01*
X29011Y31316D02*
Y31476D01*
X28538Y30609D02*
X28698D01*
X28618Y30529D02*
Y30689D01*
X28931Y29821D02*
X29091D01*
X29011Y29741D02*
Y29901D01*
X28144Y31396D02*
X28304D01*
X28224Y31316D02*
Y31476D01*
X27750Y30609D02*
X27910D01*
X27830Y30529D02*
Y30689D01*
X28144Y29821D02*
X28304D01*
X28224Y29741D02*
Y29901D01*
X27357Y31396D02*
X27517D01*
X27437Y31316D02*
Y31476D01*
X26963Y30609D02*
X27123D01*
X27043Y30529D02*
Y30689D01*
X27357Y29821D02*
X27517D01*
X27437Y29741D02*
Y29901D01*
X26569Y31396D02*
X26729D01*
X26649Y31316D02*
Y31476D01*
X26176Y30609D02*
X26336D01*
X26256Y30529D02*
Y30689D01*
X26569Y29821D02*
X26729D01*
X26649Y29741D02*
Y29901D01*
X25782Y31396D02*
X25942D01*
X25862Y31316D02*
Y31476D01*
X25388Y30609D02*
X25548D01*
X25468Y30529D02*
Y30689D01*
X25782Y29821D02*
X25942D01*
X25862Y29741D02*
Y29901D01*
X24994Y31396D02*
X25154D01*
X25074Y31316D02*
Y31476D01*
X24601Y30609D02*
X24761D01*
X24681Y30529D02*
Y30689D01*
X24994Y29821D02*
X25154D01*
X25074Y29741D02*
Y29901D01*
X24207Y31396D02*
X24367D01*
X24287Y31316D02*
Y31476D01*
X23813Y30609D02*
X23973D01*
X23893Y30529D02*
Y30689D01*
X24207Y29821D02*
X24367D01*
X24287Y29741D02*
Y29901D01*
X23813Y29034D02*
X23973D01*
X23893Y28954D02*
Y29114D01*
X23420Y31396D02*
X23580D01*
X23500Y31316D02*
Y31476D01*
X23026Y30609D02*
X23186D01*
X23106Y30529D02*
Y30689D01*
X23420Y29821D02*
X23580D01*
X23500Y29741D02*
Y29901D01*
X23026Y29034D02*
X23186D01*
X23106Y28954D02*
Y29114D01*
X22632Y31396D02*
X22792D01*
X22712Y31316D02*
Y31476D01*
X22239Y30609D02*
X22399D01*
X22319Y30529D02*
Y30689D01*
X22632Y29821D02*
X22792D01*
X22712Y29741D02*
Y29901D01*
X22239Y29034D02*
X22399D01*
X22319Y28954D02*
Y29114D01*
X21845Y31396D02*
X22005D01*
X21925Y31316D02*
Y31476D01*
X21451Y30609D02*
X21611D01*
X21531Y30529D02*
Y30689D01*
X21845Y29821D02*
X22005D01*
X21925Y29741D02*
Y29901D01*
X21451Y29034D02*
X21611D01*
X21531Y28954D02*
Y29114D01*
X21057Y31396D02*
X21217D01*
X21137Y31316D02*
Y31476D01*
X20664Y30609D02*
X20824D01*
X20744Y30529D02*
Y30689D01*
X21057Y29821D02*
X21217D01*
X21137Y29741D02*
Y29901D01*
X20664Y29034D02*
X20824D01*
X20744Y28954D02*
Y29114D01*
X33656Y24309D02*
X33816D01*
X33736Y24229D02*
Y24389D01*
X33262Y21947D02*
X33422D01*
X33342Y21867D02*
Y22027D01*
X32868Y24309D02*
X33028D01*
X32948Y24229D02*
Y24389D01*
X32475Y21947D02*
X32635D01*
X32555Y21867D02*
Y22027D01*
X31687Y25097D02*
X31847D01*
X31767Y25017D02*
Y25177D01*
X32081Y24309D02*
X32241D01*
X32161Y24229D02*
Y24389D01*
X31687Y23522D02*
X31847D01*
X31767Y23442D02*
Y23602D01*
X31687Y21947D02*
X31847D01*
X31767Y21867D02*
Y22027D01*
X31294Y24309D02*
X31454D01*
X31374Y24229D02*
Y24389D01*
X30900Y21947D02*
X31060D01*
X30980Y21867D02*
Y22027D01*
X30113Y25097D02*
X30273D01*
X30193Y25017D02*
Y25177D01*
X30506Y24309D02*
X30666D01*
X30586Y24229D02*
Y24389D01*
X30113Y21947D02*
X30273D01*
X30193Y21867D02*
Y22027D01*
X29719Y25884D02*
X29879D01*
X29799Y25804D02*
Y25964D01*
X29325Y25097D02*
X29485D01*
X29405Y25017D02*
Y25177D01*
X29719Y24309D02*
X29879D01*
X29799Y24229D02*
Y24389D01*
X29325Y23522D02*
X29485D01*
X29405Y23442D02*
Y23602D01*
X29719Y22735D02*
X29879D01*
X29799Y22655D02*
Y22815D01*
X29325Y21947D02*
X29485D01*
X29405Y21867D02*
Y22027D01*
X28931Y24309D02*
X29091D01*
X29011Y24229D02*
Y24389D01*
X28538Y23522D02*
X28698D01*
X28618Y23442D02*
Y23602D01*
X28931Y22735D02*
X29091D01*
X29011Y22655D02*
Y22815D01*
X28538Y21947D02*
X28698D01*
X28618Y21867D02*
Y22027D01*
X28931Y21160D02*
X29091D01*
X29011Y21080D02*
Y21240D01*
X28538Y20372D02*
X28698D01*
X28618Y20292D02*
Y20452D01*
X28931Y19585D02*
X29091D01*
X29011Y19505D02*
Y19665D01*
X28144Y21160D02*
X28304D01*
X28224Y21080D02*
Y21240D01*
X27750Y20372D02*
X27910D01*
X27830Y20292D02*
Y20452D01*
X26963Y21947D02*
X27123D01*
X27043Y21867D02*
Y22027D01*
X27357Y21160D02*
X27517D01*
X27437Y21080D02*
Y21240D01*
X26963Y20372D02*
X27123D01*
X27043Y20292D02*
Y20452D01*
X26963Y18798D02*
X27123D01*
X27043Y18718D02*
Y18878D01*
X26963Y17223D02*
X27123D01*
X27043Y17143D02*
Y17303D01*
X26176Y21947D02*
X26336D01*
X26256Y21867D02*
Y22027D01*
X26569Y21160D02*
X26729D01*
X26649Y21080D02*
Y21240D01*
X26176Y20372D02*
X26336D01*
X26256Y20292D02*
Y20452D01*
X26569Y19585D02*
X26729D01*
X26649Y19505D02*
Y19665D01*
X26176Y18798D02*
X26336D01*
X26256Y18718D02*
Y18878D01*
X26569Y18010D02*
X26729D01*
X26649Y17930D02*
Y18090D01*
X26176Y17223D02*
X26336D01*
X26256Y17143D02*
Y17303D01*
X33656Y4624D02*
X33816D01*
X33736Y4544D02*
Y4704D01*
X33656Y3050D02*
X33816D01*
X33736Y2970D02*
Y3130D01*
X33262Y2262D02*
X33422D01*
X33342Y2182D02*
Y2342D01*
X33656Y1475D02*
X33816D01*
X33736Y1395D02*
Y1555D01*
X32868Y4624D02*
X33028D01*
X32948Y4544D02*
Y4704D01*
X32475Y2262D02*
X32635D01*
X32555Y2182D02*
Y2342D01*
X32081Y4624D02*
X32241D01*
X32161Y4544D02*
Y4704D01*
X32081Y3050D02*
X32241D01*
X32161Y2970D02*
Y3130D01*
X31687Y2262D02*
X31847D01*
X31767Y2182D02*
Y2342D01*
X31687Y687D02*
X31847D01*
X31767Y607D02*
Y767D01*
X31294Y4624D02*
X31454D01*
X31374Y4544D02*
Y4704D01*
X31294Y3050D02*
X31454D01*
X31374Y2970D02*
Y3130D01*
X30900Y2262D02*
X31060D01*
X30980Y2182D02*
Y2342D01*
X30506Y4624D02*
X30666D01*
X30586Y4544D02*
Y4704D01*
X30113Y2262D02*
X30273D01*
X30193Y2182D02*
Y2342D01*
X29719Y4624D02*
X29879D01*
X29799Y4544D02*
Y4704D01*
X29325Y3837D02*
X29485D01*
X29405Y3757D02*
Y3917D01*
X29719Y3050D02*
X29879D01*
X29799Y2970D02*
Y3130D01*
X29325Y2262D02*
X29485D01*
X29405Y2182D02*
Y2342D01*
X29719Y1475D02*
X29879D01*
X29799Y1395D02*
Y1555D01*
X29325Y687D02*
X29485D01*
X29405Y607D02*
Y767D01*
X28931Y3050D02*
X29091D01*
X29011Y2970D02*
Y3130D01*
X28931Y1475D02*
X29091D01*
X29011Y1395D02*
Y1555D01*
X33656Y19585D02*
X33816D01*
X33736Y19505D02*
Y19665D01*
X33262Y18798D02*
X33422D01*
X33342Y18718D02*
Y18878D01*
X33656Y18010D02*
X33816D01*
X33736Y17930D02*
Y18090D01*
X32475Y18798D02*
X32635D01*
X32555Y18718D02*
Y18878D01*
X32081Y19585D02*
X32241D01*
X32161Y19505D02*
Y19665D01*
X31687Y18798D02*
X31847D01*
X31767Y18718D02*
Y18878D01*
X31687Y17223D02*
X31847D01*
X31767Y17143D02*
Y17303D01*
X31294Y19585D02*
X31454D01*
X31374Y19505D02*
Y19665D01*
X30900Y18798D02*
X31060D01*
X30980Y18718D02*
Y18878D01*
X30113Y18798D02*
X30273D01*
X30193Y18718D02*
Y18878D01*
X29719Y19585D02*
X29879D01*
X29799Y19505D02*
Y19665D01*
X29719Y18010D02*
X29879D01*
X29799Y17930D02*
Y18090D01*
X29325Y17223D02*
X29485D01*
X29405Y17143D02*
Y17303D01*
X28931Y18010D02*
X29091D01*
X29011Y17930D02*
Y18090D01*
X28538Y13286D02*
X28698D01*
X28618Y13206D02*
Y13366D01*
X28931Y12498D02*
X29091D01*
X29011Y12418D02*
Y12578D01*
X28538Y11711D02*
X28698D01*
X28618Y11631D02*
Y11791D01*
X28931Y10924D02*
X29091D01*
X29011Y10844D02*
Y11004D01*
X28538Y10136D02*
X28698D01*
X28618Y10056D02*
Y10216D01*
X28144Y10924D02*
X28304D01*
X28224Y10844D02*
Y11004D01*
X27357Y10924D02*
X27517D01*
X27437Y10844D02*
Y11004D01*
X26963Y10136D02*
X27123D01*
X27043Y10056D02*
Y10216D01*
X26569Y10924D02*
X26729D01*
X26649Y10844D02*
Y11004D01*
X26176Y10136D02*
X26336D01*
X26256Y10056D02*
Y10216D01*
X25782Y10924D02*
X25942D01*
X25862Y10844D02*
Y11004D01*
X27750Y26672D02*
X27910D01*
X27830Y26592D02*
Y26752D01*
X28144Y25884D02*
X28304D01*
X28224Y25804D02*
Y25964D01*
X27357Y25884D02*
X27517D01*
X27437Y25804D02*
Y25964D01*
X26963Y25097D02*
X27123D01*
X27043Y25017D02*
Y25177D01*
X26569Y25884D02*
X26729D01*
X26649Y25804D02*
Y25964D01*
X26176Y25097D02*
X26336D01*
X26256Y25017D02*
Y25177D01*
X25782Y25884D02*
X25942D01*
X25862Y25804D02*
Y25964D01*
X25388Y25097D02*
X25548D01*
X25468Y25017D02*
Y25177D01*
X24994Y25884D02*
X25154D01*
X25074Y25804D02*
Y25964D01*
M02*
