M48
;Layer_Color=0
;FILE_FORMAT=2:4
INCH,LZ
;TYPE=PLATED
T01F00S00C0.0160
T02F00S00C0.0197
T03F00S00C0.0315
T04F00S00C0.0320
T05F00S00C0.0394
T06F00S00C0.0400
T08F00S00C0.0402
T09F00S00C0.0413
%
T01
X033736Y001475
X033342Y002262
X033736Y00305
Y004624
X032948
Y007774
X033736
X033342Y010924
X033736Y013286
X032948
X032161
X031374
X030586
X030193Y014073
X029405
X029799Y014861
X029011
X028224
X027437
X026649
X025862
X025074
X024287
X0235
X022712
X021925
X022319Y014073
X023106
X023893
X021531
X020744
X019169Y014073
X019191Y01212
X018382Y012498
X018497Y011382
X019169Y010924
X019474Y009885
X019278Y008892
X018369Y008948
X018107Y009443
X020248Y008965
X019826Y007396
X019393
X019956Y006199
X019826Y005616
X019393
Y004396
X019826
X019547Y003099
X019409Y002716
X019843
X020276
Y001496
X019843
X019409
X018976
X017993Y00138
X020348Y000812
X022318Y001475
X023893
X024681Y00305
X023106
Y006199
X022963Y007339
X022318Y007774
X021502Y006396
X024681Y006199
X027437Y006199
X028224
X029011
X029799
X030193Y006987
X029405
X028618
X02783
X027043
Y005412
X02783
X028618
X029405
X029799Y004624
X030586
X031374
X032161
Y00305
X031374
X031767Y002262
X032555
X03098
X030193
X029405
X029799Y00305
X029011
X029405Y003837
X029799Y001475
X029011
X028224
X027437
X02783Y000687
X027043
Y002262
X029405Y000687
X031767
X032161Y007774
X031374
X030586
X029799
X029011
X029405Y008561
X030193
X029799Y009349
X030193Y010924
X03098
X031767
X032555
Y008561
X031767
X028618Y010136
X029011Y010924
X028224
X027437
X026649
X025862
X026256Y010136
X027043
X028618Y011711
X029011Y012498
X030193
X028618Y013286
X031767Y014073
X032555
X024681Y009349
X023106
X02196Y010348
X016854Y010924
X016142Y011006
X015632Y010021
X016399Y009408
X016142Y00882
X015503Y007806
X015232Y006199
X0162Y005906
X016442Y006594
X0162Y003839
X016019Y001475
X014956Y002124
X011101Y002155
X010609Y002141
X010309Y003543
X00972Y004624
X008145
X00657
X004996
X003421
X001846
X002633Y006199
X001846Y007774
X002633Y009349
X004208
X003421Y010924
X001846
Y014073
X003421
X004996
X00657
X008145
X009391Y014769
X009643Y013495
X01063Y013386
X010084Y012806
X010506Y011612
X00972Y010924
X009217Y010503
X0081Y01015
X007737Y009084
X00872Y007978
X0092Y008306
X00872Y00693
X009711Y006822
X010816Y006044
X013657Y006199
X01172Y003051
X008876Y002263
X010072Y000432
X00684Y000829
X005872Y002656
X002633Y00305
X001846Y001475
X007358Y006199
X00657Y007774
X005783Y012498
X004208
X011802Y012639
X011724Y013278
X011783Y013681
X01285Y013689
X013338Y013114
X013753Y012202
X014099Y011655
X012867Y011337
X014062Y014104
X013764Y014833
X011068Y015088
X011055Y014573
X011295Y017223
X00972
X010205Y018374
X00906Y018916
X007358Y018798
X005783
X004208
X003421Y020372
X004996
X00657
Y017223
X004996
X003421
X001846
X002633Y015648
X004208
X007358
X008933
X013657
X014903Y016272
X0149Y016956
X014889Y017822
X0149Y018374
X015232Y018798
X016807
X016019Y020372
X014444
X015232Y021947
X016807
X016019Y023522
X0158Y024456
X014485Y024451
X014444Y023522
X012827Y02352
X012838Y024207
X012184Y024436
X012022Y023391
X011559Y022669
X012393Y022053
X012889Y022816
X01361Y02586
X014485Y025891
X015746Y025905
Y027363
X0152Y02686
X014485Y027349
X01392Y027852
X01325Y026831
X016807Y028246
X0162Y030075
X010385Y029753
X00723Y02993
X00657Y029821
X00633Y02787
X007358Y028246
X00536Y02687
X004996Y026672
X00485Y02586
X004996Y023522
X003911Y022854
X00906Y021457
X011295Y020372
X013657Y017603
X002633Y028246
X00206Y02881
X0172Y029034
X017594Y026672
X0182Y026185
X018823Y025644
X017594Y02446
Y023522
X018382Y021947
X017594Y020372
X019169
X020789Y021442
X021531Y021947
X02225Y022384
X022318Y023522
X023893
X024681Y021947
X023106
X022318Y020372
X023893
X026256Y020372
X027043
X02783
X028618
X029011Y02116
X028224
X027437
X026649
X027043Y021947
X026256
X028618
X029405
X030193
X03098
X031767
X032555
X031767Y023522
X032161Y024309
X031374
X030586
X029799
X029011
X029405Y025097
X030193
X029799Y025884
X028224
X027437
X026649
X025862
X025074
X025468Y025097
X026256
X027043
X02783Y026672
X029405Y027459
X030193
X03098
X031767
X032555
X031767Y029034
X032161Y029821
X031374
X030586
X029799
X029011
X028224
X027437
X026649
X025862
X025074
X024287
X0235
X022712
X021925
X021137
X021531Y030609
X022319
X023106
X023893
X024681
X025468
X026256
X027043
X02783
X028618
X029405
X030193
X031767
X029405Y029034
X029799Y028247
X031767Y025097
X029405Y023522
X028618
X029011Y022735
X029799
Y019585
X029011
Y01801
X029799
X030193Y018798
X03098
X031767
X032555
X032161Y019585
X031374
X031767Y017223
X029405
X027043
X026256
X026649Y01801
X027043Y018798
X026256
X026649Y019585
X023893Y017223
X022318
X019744Y017949
X019956Y015648
X018382
X020586Y023896
X021531Y025097
X023106
X023106Y029034
X023893
X022319
X021531
X020744
Y030609
X032948Y029821
X033736
X033342Y027459
X033736Y024309
X032948
X033342Y021947
X033736Y019585
X033342Y018798
X033736Y01801
X029799Y031396
X029011
X028224
X027437
X026649
X025862
X025074
X024287
X0235
X022712
X021925
X021137
X008154Y03102
T02
X021252Y011957
X021726Y011803
X02225
X022774
X023297Y011803
X023776Y011957
X024069Y01236
X024069Y012859
X023776Y013263
X023297Y013417
X022774
X02225
X021726
X021252Y013263
X020959Y012859
Y01236
X024896
X024896Y012859
X025189Y013263
X025663Y013417
X026187
X026711
X027234
X027713Y013263
X028006Y012859
Y01236
X027713Y011957
X027234Y011803
X026711Y011803
X026187Y011803
X025663Y011803
X025189Y011957
X024974Y026848
X025498Y026848
X026022Y026848
X026545Y026848
X027024Y027002
X027317Y027406
Y027905
X027024Y028308
X026545Y028462
X026022
X025498
X024974
X0245Y028308
X024207Y027905
X024207Y027406
X0245Y027002
X023087
X022608Y026848
X022085Y026848
X021561
X021037
X020563Y027002
X02027Y027406
Y027905
X020563Y028308
X021037Y028462
X021561
X022085
X022608
X023087Y028308
X02338Y027905
X02338Y027406
T03
X02373Y004185
X024482Y004185
X025234Y004185
X024545Y01923
X023793Y01923
X023041Y01923
T04
X01835Y017406
Y018406
T05
X02795Y002506
Y003506
Y004506
Y008006
Y009006
Y010006
X0092Y003051
X007232
X027849Y01717
Y01817
Y01917
Y02267
Y02367
Y02467
T06
X00106Y02414
X00206
X00306
X00406
X00506
X00606
X00706
X00806
X00906
X0089Y02536
Y02636
Y02736
Y02836
Y02936
Y03036
X0149Y019606
X0159
X0172Y031006
X0182
X0162
X0152
X0142
X0132
X0122
X00905Y03161
X00805
X00705
X00605
X00505
X00405
X00305
X00205
X00105
T08
X003504Y001663
Y002844
X004686
X004686Y001663
X004686Y004025
X003504
X003504Y005206
Y006387
X004686Y006387
Y005206
Y007568
X003504
Y008749
Y00993
X004686Y00993
Y008749
T09
X0081Y014956
Y015956
Y016956
Y017956
Y018956
Y019956
M30
