M48
;Layer_Color=0
;FILE_FORMAT=2:4
INCH,LZ
;TYPE=PLATED
T07F00S00C0.0400
T10F00S00C0.0787
%
G90
G05
T07
X0331Y001017G85X0327
X0331Y003773G85X0327
X033202Y00655G85X032802
X033202Y009306G85X032802
X033202Y012062G85X032802
X033202Y014818G85X032802
X031202Y014818G85X030802
X031202Y012062G85X030802
X031202Y009306G85X030802
X031202Y00655G85X030802
X0311Y003773G85X0307
X0311Y001017G85X0307
X0311Y017552G85X0307
X0311Y020308G85X0307
X0311Y023064G85X0307
X0311Y02582G85X0307
X0311Y028576G85X0307
X0331Y028576G85X0327
X0331Y02582G85X0327
X0331Y023064G85X0327
X0331Y020308G85X0327
X0331Y017552G85X0327
X0331Y031332G85X0327
X0311Y031332G85X0307
T10
X021726Y01261G85X023301
X025663Y01261G85X027238
X024974Y027655G85X026549
X021037Y027655G85X022612
M30
