G04*
G04 #@! TF.GenerationSoftware,Altium Limited,Altium Designer,26.1.1 (7)*
G04*
G04 Layer_Color=16711935*
%FSLAX24Y24*%
%MOIN*%
G70*
G04*
G04 #@! TF.SameCoordinates,1ACFDDC1-7C31-4566-9FA3-ECA239237230*
G04*
G04*
G04 #@! TF.FilePolarity,Negative*
G04*
G01*
G75*
%ADD47O,0.1580X0.1330*%
%ADD48R,0.0658X0.0658*%
%ADD49C,0.0658*%
%ADD50C,0.1241*%
%ADD51O,0.1064X0.0671*%
%ADD52R,0.0671X0.0671*%
%ADD53C,0.0395*%
%ADD54C,0.0671*%
%ADD55R,0.0700X0.0700*%
%ADD56C,0.0700*%
%ADD57C,0.0946*%
%ADD58C,0.0080*%
%ADD80C,0.0394*%
%ADD81C,0.0580*%
%ADD82O,0.0680X0.0830*%
%ADD83O,0.0830X0.0680*%
G36*
X23342Y13829D02*
X23383Y13827D01*
X23424Y13824D01*
X23464Y13819D01*
X23504Y13813D01*
X23544Y13805D01*
X23584Y13797D01*
X23624Y13787D01*
X23663Y13775D01*
X23701Y13762D01*
X23739Y13748D01*
X23777Y13733D01*
X23814Y13716D01*
X23851Y13698D01*
X23887Y13679D01*
X23922Y13659D01*
X23957Y13637D01*
X23990Y13614D01*
X24023Y13590D01*
X24056Y13566D01*
X24087Y13540D01*
X24117Y13513D01*
X24147Y13485D01*
X24176Y13456D01*
X24203Y13426D01*
X24230Y13395D01*
X24255Y13363D01*
X24280Y13331D01*
X24303Y13297D01*
X24325Y13263D01*
Y11956D01*
X24303Y11922D01*
X24280Y11889D01*
X24255Y11857D01*
X24230Y11825D01*
X24203Y11794D01*
X24176Y11764D01*
X24147Y11735D01*
X24117Y11707D01*
X24087Y11680D01*
X24056Y11654D01*
X24023Y11629D01*
X23990Y11605D01*
X23957Y11583D01*
X23922Y11561D01*
X23887Y11540D01*
X23851Y11522D01*
X23814Y11503D01*
X23777Y11487D01*
X23739Y11472D01*
X23701Y11457D01*
X23663Y11444D01*
X23624Y11433D01*
X23584Y11423D01*
X23544Y11414D01*
X23504Y11407D01*
X23464Y11400D01*
X23424Y11396D01*
X23383Y11392D01*
X23342Y11390D01*
X23301Y11389D01*
X21726D01*
X21663Y11391D01*
X21599Y11396D01*
X21535Y11404D01*
X21472Y11416D01*
X21411Y11431D01*
X21349Y11449D01*
X21289Y11470D01*
X21230Y11495D01*
X21172Y11522D01*
X21116Y11553D01*
X21062Y11586D01*
X21009Y11622D01*
X20958Y11661D01*
X20910Y11703D01*
X20863Y11747D01*
X20819Y11793D01*
X20778Y11842D01*
X20739Y11892D01*
X20703Y11945D01*
X20669Y12000D01*
X20639Y12056D01*
X20611Y12113D01*
X20587Y12172D01*
X20566Y12233D01*
X20548Y12294D01*
X20533Y12356D01*
X20521Y12419D01*
X20513Y12482D01*
X20507Y12546D01*
X20506Y12610D01*
X20507Y12674D01*
X20513Y12737D01*
X20521Y12801D01*
X20533Y12864D01*
X20548Y12925D01*
X20566Y12987D01*
X20587Y13047D01*
X20611Y13106D01*
X20639Y13164D01*
X20669Y13220D01*
X20703Y13274D01*
X20739Y13327D01*
X20778Y13378D01*
X20819Y13426D01*
X20863Y13473D01*
X20910Y13517D01*
X20958Y13558D01*
X21009Y13597D01*
X21062Y13633D01*
X21116Y13667D01*
X21172Y13697D01*
X21230Y13725D01*
X21289Y13749D01*
X21349Y13770D01*
X21411Y13788D01*
X21472Y13803D01*
X21535Y13815D01*
X21599Y13824D01*
X21663Y13829D01*
X21726Y13830D01*
X23301D01*
X23342Y13829D01*
D02*
G37*
G36*
X27302Y13829D02*
X27366Y13824D01*
X27429Y13815D01*
X27492Y13803D01*
X27554Y13788D01*
X27615Y13770D01*
X27676Y13749D01*
X27735Y13725D01*
X27792Y13697D01*
X27848Y13667D01*
X27903Y13633D01*
X27956Y13597D01*
X28006Y13558D01*
X28055Y13517D01*
X28101Y13473D01*
X28145Y13426D01*
X28187Y13378D01*
X28226Y13327D01*
X28262Y13274D01*
X28295Y13220D01*
X28326Y13164D01*
X28353Y13106D01*
X28378Y13047D01*
X28399Y12987D01*
X28417Y12925D01*
X28432Y12864D01*
X28444Y12801D01*
X28452Y12737D01*
X28457Y12674D01*
X28459Y12610D01*
X28457Y12546D01*
X28452Y12482D01*
X28444Y12419D01*
X28432Y12356D01*
X28417Y12294D01*
X28399Y12233D01*
X28378Y12172D01*
X28353Y12113D01*
X28326Y12056D01*
X28295Y12000D01*
X28262Y11945D01*
X28226Y11892D01*
X28187Y11842D01*
X28145Y11793D01*
X28101Y11747D01*
X28055Y11703D01*
X28006Y11661D01*
X27956Y11622D01*
X27903Y11586D01*
X27848Y11553D01*
X27792Y11522D01*
X27735Y11495D01*
X27676Y11470D01*
X27615Y11449D01*
X27554Y11431D01*
X27492Y11416D01*
X27429Y11404D01*
X27366Y11396D01*
X27302Y11391D01*
X27238Y11389D01*
X25663D01*
X25622Y11390D01*
X25582Y11392D01*
X25541Y11396D01*
X25500Y11400D01*
X25460Y11407D01*
X25420Y11414D01*
X25381Y11423D01*
X25341Y11433D01*
X25302Y11444D01*
X25263Y11457D01*
X25225Y11472D01*
X25187Y11487D01*
X25150Y11503D01*
X25114Y11522D01*
X25078Y11540D01*
X25043Y11561D01*
X25008Y11583D01*
X24974Y11605D01*
X24941Y11629D01*
X24909Y11654D01*
X24878Y11680D01*
X24847Y11707D01*
X24818Y11735D01*
X24789Y11764D01*
X24761Y11794D01*
X24735Y11825D01*
X24709Y11857D01*
X24685Y11889D01*
X24662Y11922D01*
X24640Y11956D01*
Y13263D01*
X24662Y13297D01*
X24685Y13331D01*
X24709Y13363D01*
X24735Y13395D01*
X24761Y13426D01*
X24789Y13456D01*
X24818Y13485D01*
X24847Y13513D01*
X24878Y13540D01*
X24909Y13566D01*
X24941Y13590D01*
X24974Y13614D01*
X25008Y13637D01*
X25043Y13659D01*
X25078Y13679D01*
X25114Y13698D01*
X25150Y13716D01*
X25187Y13733D01*
X25225Y13748D01*
X25263Y13762D01*
X25302Y13775D01*
X25341Y13787D01*
X25381Y13797D01*
X25420Y13805D01*
X25460Y13813D01*
X25500Y13819D01*
X25541Y13824D01*
X25582Y13827D01*
X25622Y13829D01*
X25663Y13830D01*
X27238D01*
X27302Y13829D01*
D02*
G37*
G36*
X22653Y28875D02*
X22694Y28873D01*
X22735Y28869D01*
X22775Y28865D01*
X22815Y28858D01*
X22855Y28851D01*
X22895Y28842D01*
X22935Y28832D01*
X22974Y28821D01*
X23012Y28808D01*
X23050Y28793D01*
X23088Y28778D01*
X23125Y28762D01*
X23162Y28743D01*
X23198Y28725D01*
X23233Y28704D01*
X23268Y28682D01*
X23301Y28660D01*
X23334Y28636D01*
X23367Y28611D01*
X23398Y28585D01*
X23428Y28558D01*
X23458Y28530D01*
X23487Y28501D01*
X23514Y28471D01*
X23541Y28440D01*
X23566Y28408D01*
X23591Y28376D01*
X23614Y28343D01*
X23636Y28309D01*
Y27002D01*
X23614Y26968D01*
X23591Y26934D01*
X23566Y26902D01*
X23541Y26870D01*
X23514Y26839D01*
X23487Y26809D01*
X23458Y26780D01*
X23428Y26752D01*
X23398Y26725D01*
X23367Y26699D01*
X23334Y26675D01*
X23301Y26651D01*
X23268Y26628D01*
X23233Y26606D01*
X23198Y26586D01*
X23162Y26567D01*
X23125Y26549D01*
X23088Y26532D01*
X23050Y26517D01*
X23012Y26503D01*
X22974Y26490D01*
X22935Y26478D01*
X22895Y26468D01*
X22855Y26460D01*
X22815Y26452D01*
X22775Y26446D01*
X22735Y26441D01*
X22694Y26438D01*
X22653Y26436D01*
X22612Y26435D01*
X21037D01*
X20974Y26436D01*
X20910Y26441D01*
X20846Y26450D01*
X20783Y26462D01*
X20722Y26477D01*
X20660Y26495D01*
X20600Y26516D01*
X20541Y26540D01*
X20483Y26568D01*
X20427Y26598D01*
X20373Y26632D01*
X20320Y26668D01*
X20269Y26707D01*
X20221Y26748D01*
X20174Y26792D01*
X20130Y26839D01*
X20089Y26887D01*
X20050Y26938D01*
X20014Y26991D01*
X19980Y27045D01*
X19950Y27101D01*
X19922Y27159D01*
X19898Y27218D01*
X19877Y27278D01*
X19859Y27339D01*
X19844Y27401D01*
X19832Y27464D01*
X19824Y27528D01*
X19819Y27591D01*
X19817Y27655D01*
X19819Y27719D01*
X19824Y27783D01*
X19832Y27846D01*
X19844Y27909D01*
X19859Y27971D01*
X19877Y28032D01*
X19898Y28093D01*
X19922Y28152D01*
X19950Y28209D01*
X19980Y28265D01*
X20014Y28320D01*
X20050Y28373D01*
X20089Y28423D01*
X20130Y28472D01*
X20174Y28518D01*
X20221Y28562D01*
X20269Y28604D01*
X20320Y28643D01*
X20373Y28679D01*
X20427Y28712D01*
X20483Y28743D01*
X20541Y28770D01*
X20600Y28795D01*
X20660Y28816D01*
X20722Y28834D01*
X20783Y28849D01*
X20846Y28861D01*
X20910Y28869D01*
X20974Y28874D01*
X21037Y28876D01*
X22612D01*
X22653Y28875D01*
D02*
G37*
G36*
X26613Y28874D02*
X26677Y28869D01*
X26740Y28861D01*
X26803Y28849D01*
X26865Y28834D01*
X26926Y28816D01*
X26987Y28795D01*
X27046Y28770D01*
X27103Y28743D01*
X27159Y28712D01*
X27214Y28679D01*
X27267Y28643D01*
X27317Y28604D01*
X27366Y28562D01*
X27412Y28518D01*
X27456Y28472D01*
X27498Y28423D01*
X27537Y28373D01*
X27573Y28320D01*
X27606Y28265D01*
X27637Y28209D01*
X27664Y28152D01*
X27689Y28093D01*
X27710Y28032D01*
X27728Y27971D01*
X27743Y27909D01*
X27755Y27846D01*
X27763Y27783D01*
X27768Y27719D01*
X27770Y27655D01*
X27768Y27591D01*
X27763Y27528D01*
X27755Y27464D01*
X27743Y27401D01*
X27728Y27339D01*
X27710Y27278D01*
X27689Y27218D01*
X27664Y27159D01*
X27637Y27101D01*
X27606Y27045D01*
X27573Y26991D01*
X27537Y26938D01*
X27498Y26887D01*
X27456Y26839D01*
X27412Y26792D01*
X27366Y26748D01*
X27317Y26707D01*
X27267Y26668D01*
X27214Y26632D01*
X27159Y26598D01*
X27103Y26568D01*
X27046Y26540D01*
X26987Y26516D01*
X26926Y26495D01*
X26865Y26477D01*
X26803Y26462D01*
X26740Y26450D01*
X26677Y26441D01*
X26613Y26436D01*
X26549Y26435D01*
X24974D01*
X24933Y26436D01*
X24893Y26438D01*
X24852Y26441D01*
X24811Y26446D01*
X24771Y26452D01*
X24732Y26460D01*
X24692Y26468D01*
X24652Y26478D01*
X24613Y26490D01*
X24574Y26503D01*
X24536Y26517D01*
X24498Y26532D01*
X24461Y26549D01*
X24425Y26567D01*
X24389Y26586D01*
X24354Y26606D01*
X24319Y26628D01*
X24285Y26651D01*
X24252Y26675D01*
X24220Y26699D01*
X24189Y26725D01*
X24158Y26752D01*
X24129Y26780D01*
X24100Y26809D01*
X24072Y26839D01*
X24046Y26870D01*
X24020Y26902D01*
X23996Y26934D01*
X23973Y26968D01*
X23951Y27002D01*
Y28309D01*
X23973Y28343D01*
X23996Y28376D01*
X24020Y28408D01*
X24046Y28440D01*
X24072Y28471D01*
X24100Y28501D01*
X24129Y28530D01*
X24158Y28558D01*
X24189Y28585D01*
X24220Y28611D01*
X24252Y28636D01*
X24285Y28660D01*
X24319Y28682D01*
X24354Y28704D01*
X24389Y28725D01*
X24425Y28743D01*
X24461Y28762D01*
X24498Y28778D01*
X24536Y28793D01*
X24574Y28808D01*
X24613Y28821D01*
X24652Y28832D01*
X24692Y28842D01*
X24732Y28851D01*
X24771Y28858D01*
X24811Y28865D01*
X24852Y28869D01*
X24893Y28873D01*
X24933Y28875D01*
X24974Y28876D01*
X26549D01*
X26613Y28874D01*
D02*
G37*
D47*
X32900Y31332D02*
D03*
X30900D02*
D03*
X32900Y20308D02*
D03*
X30900D02*
D03*
X32900Y23064D02*
D03*
X30900D02*
D03*
X30900Y1017D02*
D03*
X32900D02*
D03*
X31002Y12062D02*
D03*
X33002D02*
D03*
X30900Y17552D02*
D03*
X32900D02*
D03*
Y28576D02*
D03*
X30900D02*
D03*
X32900Y25820D02*
D03*
X30900D02*
D03*
X31002Y14818D02*
D03*
X33002D02*
D03*
X30900Y3773D02*
D03*
X32900D02*
D03*
X31002Y9306D02*
D03*
X33002D02*
D03*
X31002Y6550D02*
D03*
X33002D02*
D03*
D48*
X3504Y1663D02*
D03*
D49*
Y2844D02*
D03*
X3504Y4025D02*
D03*
X3504Y5206D02*
D03*
Y6387D02*
D03*
Y7568D02*
D03*
Y8749D02*
D03*
Y9930D02*
D03*
X4686Y1663D02*
D03*
X4686Y2844D02*
D03*
Y4025D02*
D03*
X4686Y5206D02*
D03*
Y7568D02*
D03*
Y8749D02*
D03*
Y9930D02*
D03*
Y6387D02*
D03*
D50*
X1804Y2509D02*
D03*
Y9084D02*
D03*
D51*
X27849Y23670D02*
D03*
Y24670D02*
D03*
Y22670D02*
D03*
X27950Y3506D02*
D03*
Y4506D02*
D03*
Y2506D02*
D03*
Y9006D02*
D03*
Y10006D02*
D03*
Y8006D02*
D03*
X27849Y18170D02*
D03*
Y19170D02*
D03*
Y17170D02*
D03*
D52*
X23041Y19230D02*
D03*
X23730Y4185D02*
D03*
D53*
X27024Y27002D02*
D03*
X27317Y27406D02*
D03*
Y27905D02*
D03*
X27024Y28308D02*
D03*
X26545Y28462D02*
D03*
X26022D02*
D03*
X25498D02*
D03*
X24974D02*
D03*
X24500Y28308D02*
D03*
X24207Y27406D02*
D03*
X24207Y27905D02*
D03*
X24500Y27002D02*
D03*
X26545Y26848D02*
D03*
X26022Y26848D02*
D03*
X25498Y26848D02*
D03*
X24974Y26848D02*
D03*
X23087Y27002D02*
D03*
X23380Y27406D02*
D03*
X23380Y27905D02*
D03*
X23087Y28308D02*
D03*
X22608Y28462D02*
D03*
X22085D02*
D03*
X21561D02*
D03*
X21037D02*
D03*
X20563Y28308D02*
D03*
X20270Y27406D02*
D03*
Y27905D02*
D03*
X20563Y27002D02*
D03*
X22608Y26848D02*
D03*
X22085Y26848D02*
D03*
X21561D02*
D03*
X21037D02*
D03*
X27713Y11957D02*
D03*
X28006Y12360D02*
D03*
Y12859D02*
D03*
X27713Y13263D02*
D03*
X27234Y13417D02*
D03*
X26711D02*
D03*
X26187D02*
D03*
X25663D02*
D03*
X25189Y13263D02*
D03*
X24896Y12360D02*
D03*
X24896Y12859D02*
D03*
X25189Y11957D02*
D03*
X27234Y11803D02*
D03*
X26711Y11803D02*
D03*
X26187Y11803D02*
D03*
X25663Y11803D02*
D03*
X23776Y11957D02*
D03*
X24069Y12360D02*
D03*
X24069Y12859D02*
D03*
X23776Y13263D02*
D03*
X23297Y13417D02*
D03*
X22774D02*
D03*
X22250D02*
D03*
X21726D02*
D03*
X21252Y13263D02*
D03*
X20959Y12360D02*
D03*
Y12859D02*
D03*
X21252Y11957D02*
D03*
X23297Y11803D02*
D03*
X22774Y11803D02*
D03*
X22250D02*
D03*
X21726D02*
D03*
D54*
X24545Y19230D02*
D03*
X23793Y19230D02*
D03*
X25234Y4185D02*
D03*
X24482Y4185D02*
D03*
D55*
X8100Y19956D02*
D03*
D56*
Y18956D02*
D03*
Y17956D02*
D03*
Y16956D02*
D03*
Y15956D02*
D03*
Y14956D02*
D03*
D57*
X9200Y3051D02*
D03*
X7232D02*
D03*
D58*
X6850Y12806D02*
D03*
X16535Y14173D02*
D03*
X2894Y12889D02*
D03*
Y22023D02*
D03*
D80*
X29574Y3773D02*
X32899D01*
X29307Y3506D02*
X29574Y3773D01*
X27950Y3506D02*
X29307D01*
X27950Y4506D02*
Y5283D01*
X29217Y6550D01*
X33002D01*
X29756Y9306D02*
X33002D01*
X29456Y9006D02*
X29756Y9306D01*
X27876Y9006D02*
X29456D01*
X22998Y14818D02*
X33002D01*
X22514Y14333D02*
X22998Y14818D01*
X22514Y12610D02*
Y14333D01*
X26451Y12610D02*
X27950Y10006D01*
X30900Y19505D02*
Y20308D01*
X29565Y18170D02*
X30900Y19505D01*
X27849Y18170D02*
X29565D01*
X27849Y20013D02*
X30900Y23064D01*
X27849Y19170D02*
Y20013D01*
X30900Y24758D02*
Y25820D01*
X29812Y23670D02*
X30900Y24758D01*
X27770Y23670D02*
X29812D01*
X23250Y31332D02*
X32900D01*
X21825Y29907D02*
X23250Y31332D01*
X21825Y27655D02*
Y29907D01*
X25762Y27655D02*
X27849Y24670D01*
D81*
X18350Y18406D02*
D03*
Y17406D02*
D03*
D82*
X1050Y31610D02*
D03*
X2050D02*
D03*
X3050D02*
D03*
X4050D02*
D03*
X5050D02*
D03*
X6050D02*
D03*
X8050D02*
D03*
X7050D02*
D03*
X9050D02*
D03*
X8060Y24140D02*
D03*
X1060D02*
D03*
X2060D02*
D03*
X3060D02*
D03*
X4060D02*
D03*
X5060D02*
D03*
X6060D02*
D03*
X7060D02*
D03*
X9060D02*
D03*
X16200Y31006D02*
D03*
X17200D02*
D03*
X18200D02*
D03*
X15200D02*
D03*
X14200D02*
D03*
X13200D02*
D03*
X12200D02*
D03*
X14900Y19606D02*
D03*
X15900D02*
D03*
D83*
X8900Y25360D02*
D03*
Y27360D02*
D03*
Y28360D02*
D03*
Y29360D02*
D03*
Y30360D02*
D03*
Y26360D02*
D03*
M02*
