G04*
G04 #@! TF.GenerationSoftware,Altium Limited,Altium Designer,26.1.1 (7)*
G04*
G04 Layer_Color=32896*
%FSLAX24Y24*%
%MOIN*%
G70*
G04*
G04 #@! TF.SameCoordinates,1ACFDDC1-7C31-4566-9FA3-ECA239237230*
G04*
G04*
G04 #@! TF.FilePolarity,Positive*
G04*
G01*
G75*
%ADD15C,0.0100*%
%ADD18C,0.0200*%
D15*
X18684Y17697D02*
G03*
X18684Y18115I-334J209D01*
G01*
X18016D02*
G03*
X18011Y17706I334J-209D01*
G01*
X18845Y19051D02*
Y19651D01*
X18445Y19051D01*
Y19651D01*
X18245D02*
X17845D01*
X18045D01*
Y19051D01*
X17245Y19551D02*
X17345Y19651D01*
X17545D01*
X17645Y19551D01*
Y19151D01*
X17545Y19051D01*
X17345D01*
X17245Y19151D01*
X17046Y19051D02*
X16846D01*
X16946D01*
Y19651D01*
X17046Y19551D01*
D18*
X33575Y2625D02*
Y2225D01*
X33375Y2025D01*
X33175Y2225D01*
Y2625D01*
X32576Y2525D02*
X32676Y2625D01*
X32876D01*
X32976Y2525D01*
Y2125D01*
X32876Y2025D01*
X32676D01*
X32576Y2125D01*
X31976Y2525D02*
X32076Y2625D01*
X32276D01*
X32376Y2525D01*
Y2125D01*
X32276Y2025D01*
X32076D01*
X31976Y2125D01*
X33354Y8171D02*
X33554D01*
X33654Y8071D01*
Y7671D01*
X33554Y7571D01*
X33354D01*
X33255Y7671D01*
Y8071D01*
X33354Y8171D01*
X33055D02*
Y7671D01*
X32955Y7571D01*
X32755D01*
X32655Y7671D01*
Y8171D01*
X32455D02*
X32055D01*
X32255D01*
Y7571D01*
X31455D02*
X31855D01*
X31455Y7971D01*
Y8071D01*
X31555Y8171D01*
X31755D01*
X31855Y8071D01*
X33299Y13595D02*
X33399Y13695D01*
X33599D01*
X33699Y13595D01*
Y13195D01*
X33599Y13095D01*
X33399D01*
X33299Y13195D01*
Y13395D01*
X33499D01*
X33099Y13095D02*
Y13695D01*
X32699Y13095D01*
Y13695D01*
X32499D02*
Y13095D01*
X32199D01*
X32099Y13195D01*
Y13595D01*
X32199Y13695D01*
X32499D01*
X32955Y30220D02*
X33055Y30320D01*
X33255D01*
X33354Y30220D01*
Y29820D01*
X33255Y29720D01*
X33055D01*
X32955Y29820D01*
Y30020D01*
X33155D01*
X32755Y29720D02*
Y30320D01*
X32355Y29720D01*
Y30320D01*
X32155D02*
Y29720D01*
X31855D01*
X31755Y29820D01*
Y30220D01*
X31855Y30320D01*
X32155D01*
X33377Y24705D02*
X33577D01*
X33677Y24605D01*
Y24205D01*
X33577Y24105D01*
X33377D01*
X33277Y24205D01*
Y24605D01*
X33377Y24705D01*
X33077D02*
Y24205D01*
X32977Y24105D01*
X32777D01*
X32677Y24205D01*
Y24705D01*
X32477D02*
X32077D01*
X32277D01*
Y24105D01*
X31877D02*
X31677D01*
X31777D01*
Y24705D01*
X31877Y24605D01*
X33802Y19214D02*
Y18814D01*
X33602Y18614D01*
X33402Y18814D01*
Y19214D01*
X32802Y19114D02*
X32902Y19214D01*
X33102D01*
X33202Y19114D01*
Y18714D01*
X33102Y18614D01*
X32902D01*
X32802Y18714D01*
X32203Y19114D02*
X32302Y19214D01*
X32502D01*
X32602Y19114D01*
Y18714D01*
X32502Y18614D01*
X32302D01*
X32203Y18714D01*
M02*
