G04*
G04 #@! TF.GenerationSoftware,Altium Limited,Altium Designer,25.8.1 (18)*
G04*
G04 Layer_Color=2752767*
%FSLAX24Y24*%
%MOIN*%
G70*
G04*
G04 #@! TF.SameCoordinates,CAC9E776-8FA5-4F56-8978-DDDC26C1521C*
G04*
G04*
G04 #@! TF.FilePolarity,Positive*
G04*
G01*
G75*
%ADD114C,0.0027*%
%ADD115C,0.0013*%
%ADD116C,0.0020*%
D114*
X65450Y67520D02*
G03*
X65450Y67520I-80J0D01*
G01*
X63450D02*
G03*
X63450Y67520I-80J0D01*
G01*
X65450Y48228D02*
G03*
X65450Y48228I-80J0D01*
G01*
X63450D02*
G03*
X63450Y48228I-80J0D01*
G01*
X65450Y73031D02*
G03*
X65450Y73031I-80J0D01*
G01*
X63450D02*
G03*
X63450Y73031I-80J0D01*
G01*
X65552Y53761D02*
G03*
X65552Y53761I-80J0D01*
G01*
X63552D02*
G03*
X63552Y53761I-80J0D01*
G01*
X65552Y62029D02*
G03*
X65552Y62029I-80J0D01*
G01*
X63552D02*
G03*
X63552Y62029I-80J0D01*
G01*
X65450Y78543D02*
G03*
X65450Y78543I-80J0D01*
G01*
X63450D02*
G03*
X63450Y78543I-80J0D01*
G01*
X65552Y59273D02*
G03*
X65552Y59273I-80J0D01*
G01*
X63552D02*
G03*
X63552Y59273I-80J0D01*
G01*
X65450Y64764D02*
G03*
X65450Y64764I-80J0D01*
G01*
X63450D02*
G03*
X63450Y64764I-80J0D01*
G01*
X65450Y70276D02*
G03*
X65450Y70276I-80J0D01*
G01*
X63450D02*
G03*
X63450Y70276I-80J0D01*
G01*
X65450Y50984D02*
G03*
X65450Y50984I-80J0D01*
G01*
X63450D02*
G03*
X63450Y50984I-80J0D01*
G01*
X65552Y56517D02*
G03*
X65552Y56517I-80J0D01*
G01*
X63552D02*
G03*
X63552Y56517I-80J0D01*
G01*
X65450Y75787D02*
G03*
X65450Y75787I-80J0D01*
G01*
X63450D02*
G03*
X63450Y75787I-80J0D01*
G01*
X38513Y78329D02*
G03*
X38513Y78329I-80J0D01*
G01*
X29669Y78287D02*
G03*
X29669Y78287I-80J0D01*
G01*
X28671Y70866D02*
G03*
X28671Y70866I-80J0D01*
G01*
X39163Y66929D02*
G03*
X39163Y66929I-80J0D01*
G01*
X38163Y66929D02*
G03*
X38163Y66929I-80J0D01*
G01*
X29671Y70866D02*
G03*
X29671Y70866I-80J0D01*
G01*
X27671D02*
G03*
X27671Y70866I-80J0D01*
G01*
X26671D02*
G03*
X26671Y70866I-80J0D01*
G01*
X25671D02*
G03*
X25671Y70866I-80J0D01*
G01*
X24671D02*
G03*
X24671Y70866I-80J0D01*
G01*
X23671D02*
G03*
X23671Y70866I-80J0D01*
G01*
X22671D02*
G03*
X22671Y70866I-80J0D01*
G01*
X21671D02*
G03*
X21671Y70866I-80J0D01*
G01*
X29564Y73087D02*
G03*
X29564Y73087I-80J0D01*
G01*
Y77087D02*
G03*
X29564Y77087I-80J0D01*
G01*
Y76087D02*
G03*
X29564Y76087I-80J0D01*
G01*
Y75087D02*
G03*
X29564Y75087I-80J0D01*
G01*
Y74087D02*
G03*
X29564Y74087I-80J0D01*
G01*
Y72087D02*
G03*
X29564Y72087I-80J0D01*
G01*
X41513Y78329D02*
G03*
X41513Y78329I-80J0D01*
G01*
X40513D02*
G03*
X40513Y78329I-80J0D01*
G01*
X39513D02*
G03*
X39513Y78329I-80J0D01*
G01*
X37513D02*
G03*
X37513Y78329I-80J0D01*
G01*
X36513D02*
G03*
X36513Y78329I-80J0D01*
G01*
X35513D02*
G03*
X35513Y78329I-80J0D01*
G01*
X21669Y78287D02*
G03*
X21669Y78287I-80J0D01*
G01*
X22669D02*
G03*
X22669Y78287I-80J0D01*
G01*
X23669D02*
G03*
X23669Y78287I-80J0D01*
G01*
X24669D02*
G03*
X24669Y78287I-80J0D01*
G01*
X25669D02*
G03*
X25669Y78287I-80J0D01*
G01*
X26669D02*
G03*
X26669Y78287I-80J0D01*
G01*
X28669D02*
G03*
X28669Y78287I-80J0D01*
G01*
X27669D02*
G03*
X27669Y78287I-80J0D01*
G01*
D115*
X65410Y67520D02*
G03*
X65410Y67520I-40J0D01*
G01*
X63410D02*
G03*
X63410Y67520I-40J0D01*
G01*
X65410Y48228D02*
G03*
X65410Y48228I-40J0D01*
G01*
X63410D02*
G03*
X63410Y48228I-40J0D01*
G01*
X65410Y73031D02*
G03*
X65410Y73031I-40J0D01*
G01*
X63410D02*
G03*
X63410Y73031I-40J0D01*
G01*
X65512Y53761D02*
G03*
X65512Y53761I-40J0D01*
G01*
X63512D02*
G03*
X63512Y53761I-40J0D01*
G01*
X65512Y62029D02*
G03*
X65512Y62029I-40J0D01*
G01*
X63512D02*
G03*
X63512Y62029I-40J0D01*
G01*
X65410Y78543D02*
G03*
X65410Y78543I-40J0D01*
G01*
X63410D02*
G03*
X63410Y78543I-40J0D01*
G01*
X65512Y59273D02*
G03*
X65512Y59273I-40J0D01*
G01*
X63512D02*
G03*
X63512Y59273I-40J0D01*
G01*
X65410Y64764D02*
G03*
X65410Y64764I-40J0D01*
G01*
X63410D02*
G03*
X63410Y64764I-40J0D01*
G01*
X65410Y70276D02*
G03*
X65410Y70276I-40J0D01*
G01*
X63410D02*
G03*
X63410Y70276I-40J0D01*
G01*
X65410Y50984D02*
G03*
X65410Y50984I-40J0D01*
G01*
X63410D02*
G03*
X63410Y50984I-40J0D01*
G01*
X65512Y56517D02*
G03*
X65512Y56517I-40J0D01*
G01*
X63512D02*
G03*
X63512Y56517I-40J0D01*
G01*
X65410Y75787D02*
G03*
X65410Y75787I-40J0D01*
G01*
X63410D02*
G03*
X63410Y75787I-40J0D01*
G01*
D116*
X57874Y65471D02*
X57794Y65631D01*
X57954D01*
X57874Y65471D01*
Y65511D02*
X57834Y65591D01*
X57914D01*
X57874Y65511D01*
Y60353D02*
X57794Y60513D01*
X57954D01*
X57874Y60353D01*
Y60393D02*
X57834Y60473D01*
X57914D01*
X57874Y60393D01*
X30324Y61928D02*
Y62088D01*
X30484D01*
Y61928D01*
X30324D01*
Y62928D02*
Y63088D01*
X30484D01*
Y62928D01*
X30324D01*
Y63928D02*
Y64088D01*
X30484D01*
Y63928D01*
X30324D01*
Y64928D02*
Y65088D01*
X30484D01*
Y64928D01*
X30324D01*
Y65928D02*
Y66088D01*
X30484D01*
Y65928D01*
X30324D01*
Y66928D02*
Y67088D01*
X30484D01*
Y66928D01*
X30324D01*
X25157Y59901D02*
Y59861D01*
X25237D01*
Y59901D01*
X25277D01*
Y59981D01*
X25237D01*
Y60021D01*
X25157D01*
Y59981D01*
X25117D01*
Y59901D01*
X25157D01*
Y69035D02*
Y68995D01*
X25237D01*
Y69035D01*
X25277D01*
Y69115D01*
X25237D01*
Y69155D01*
X25157D01*
Y69115D01*
X25117D01*
Y69035D01*
X25157D01*
X43759Y74688D02*
X43799Y74768D01*
X43759Y74848D01*
X43839Y74808D01*
X43919Y74848D01*
X43879Y74768D01*
X43919Y74688D01*
X43839Y74728D01*
X43759Y74688D01*
X43660Y54412D02*
X43700Y54492D01*
X43660Y54572D01*
X43740Y54532D01*
X43820Y54572D01*
X43780Y54492D01*
X43820Y54412D01*
X43740Y54452D01*
X43660Y54412D01*
X23121Y49142D02*
X23161D01*
X23201Y49182D01*
X23241Y49142D01*
X23281D01*
Y49182D01*
X23241Y49222D01*
X23281Y49262D01*
Y49302D01*
X23241D01*
X23201Y49262D01*
X23161Y49302D01*
X23121D01*
Y49262D01*
X23161Y49222D01*
X23121Y49182D01*
Y49142D01*
Y50324D02*
X23161D01*
X23201Y50364D01*
X23241Y50324D01*
X23281D01*
Y50364D01*
X23241Y50404D01*
X23281Y50444D01*
Y50484D01*
X23241D01*
X23201Y50444D01*
X23161Y50484D01*
X23121D01*
Y50444D01*
X23161Y50404D01*
X23121Y50364D01*
Y50324D01*
X21420Y50069D02*
X21500Y50149D01*
X21580Y50069D01*
X21500Y49989D01*
X21420Y50069D01*
X23121Y51505D02*
X23161D01*
X23201Y51545D01*
X23241Y51505D01*
X23281D01*
Y51545D01*
X23241Y51585D01*
X23281Y51625D01*
Y51665D01*
X23241D01*
X23201Y51625D01*
X23161Y51665D01*
X23121D01*
Y51625D01*
X23161Y51585D01*
X23121Y51545D01*
Y51505D01*
X23121Y52686D02*
X23161D01*
X23201Y52726D01*
X23241Y52686D01*
X23281D01*
Y52726D01*
X23241Y52766D01*
X23281Y52806D01*
Y52846D01*
X23241D01*
X23201Y52806D01*
X23161Y52846D01*
X23121D01*
Y52806D01*
X23161Y52766D01*
X23121Y52726D01*
Y52686D01*
Y53867D02*
X23161D01*
X23201Y53907D01*
X23241Y53867D01*
X23281D01*
Y53907D01*
X23241Y53947D01*
X23281Y53987D01*
Y54027D01*
X23241D01*
X23201Y53987D01*
X23161Y54027D01*
X23121D01*
Y53987D01*
X23161Y53947D01*
X23121Y53907D01*
Y53867D01*
Y55048D02*
X23161D01*
X23201Y55088D01*
X23241Y55048D01*
X23281D01*
Y55088D01*
X23241Y55128D01*
X23281Y55168D01*
Y55208D01*
X23241D01*
X23201Y55168D01*
X23161Y55208D01*
X23121D01*
Y55168D01*
X23161Y55128D01*
X23121Y55088D01*
Y55048D01*
Y56229D02*
X23161D01*
X23201Y56269D01*
X23241Y56229D01*
X23281D01*
Y56269D01*
X23241Y56309D01*
X23281Y56349D01*
Y56389D01*
X23241D01*
X23201Y56349D01*
X23161Y56389D01*
X23121D01*
Y56349D01*
X23161Y56309D01*
X23121Y56269D01*
Y56229D01*
Y57410D02*
X23161D01*
X23201Y57450D01*
X23241Y57410D01*
X23281D01*
Y57450D01*
X23241Y57490D01*
X23281Y57530D01*
Y57570D01*
X23241D01*
X23201Y57530D01*
X23161Y57570D01*
X23121D01*
Y57530D01*
X23161Y57490D01*
X23121Y57450D01*
Y57410D01*
X24302Y49142D02*
X24342D01*
X24382Y49182D01*
X24422Y49142D01*
X24462D01*
Y49182D01*
X24422Y49222D01*
X24462Y49262D01*
Y49302D01*
X24422D01*
X24382Y49262D01*
X24342Y49302D01*
X24302D01*
Y49262D01*
X24342Y49222D01*
X24302Y49182D01*
Y49142D01*
X24302Y50324D02*
X24342D01*
X24382Y50364D01*
X24422Y50324D01*
X24462D01*
Y50364D01*
X24422Y50404D01*
X24462Y50444D01*
Y50484D01*
X24422D01*
X24382Y50444D01*
X24342Y50484D01*
X24302D01*
Y50444D01*
X24342Y50404D01*
X24302Y50364D01*
Y50324D01*
Y51505D02*
X24342D01*
X24382Y51545D01*
X24422Y51505D01*
X24462D01*
Y51545D01*
X24422Y51585D01*
X24462Y51625D01*
Y51665D01*
X24422D01*
X24382Y51625D01*
X24342Y51665D01*
X24302D01*
Y51625D01*
X24342Y51585D01*
X24302Y51545D01*
Y51505D01*
X24302Y52686D02*
X24342D01*
X24382Y52726D01*
X24422Y52686D01*
X24462D01*
Y52726D01*
X24422Y52766D01*
X24462Y52806D01*
Y52846D01*
X24422D01*
X24382Y52806D01*
X24342Y52846D01*
X24302D01*
Y52806D01*
X24342Y52766D01*
X24302Y52726D01*
Y52686D01*
Y55048D02*
X24342D01*
X24382Y55088D01*
X24422Y55048D01*
X24462D01*
Y55088D01*
X24422Y55128D01*
X24462Y55168D01*
Y55208D01*
X24422D01*
X24382Y55168D01*
X24342Y55208D01*
X24302D01*
Y55168D01*
X24342Y55128D01*
X24302Y55088D01*
Y55048D01*
Y56229D02*
X24342D01*
X24382Y56269D01*
X24422Y56229D01*
X24462D01*
Y56269D01*
X24422Y56309D01*
X24462Y56349D01*
Y56389D01*
X24422D01*
X24382Y56349D01*
X24342Y56389D01*
X24302D01*
Y56349D01*
X24342Y56309D01*
X24302Y56269D01*
Y56229D01*
Y57410D02*
X24342D01*
X24382Y57450D01*
X24422Y57410D01*
X24462D01*
Y57450D01*
X24422Y57490D01*
X24462Y57530D01*
Y57570D01*
X24422D01*
X24382Y57530D01*
X24342Y57570D01*
X24302D01*
Y57530D01*
X24342Y57490D01*
X24302Y57450D01*
Y57410D01*
Y53867D02*
X24342D01*
X24382Y53907D01*
X24422Y53867D01*
X24462D01*
Y53907D01*
X24422Y53947D01*
X24462Y53987D01*
Y54027D01*
X24422D01*
X24382Y53987D01*
X24342Y54027D01*
X24302D01*
Y53987D01*
X24342Y53947D01*
X24302Y53907D01*
Y53867D01*
X21420Y56644D02*
X21500Y56724D01*
X21580Y56644D01*
X21500Y56564D01*
X21420Y56644D01*
X51512Y50430D02*
X51432Y50590D01*
X51592D01*
X51512Y50430D01*
X51916Y50137D02*
X51836Y50297D01*
X51996D01*
X51916Y50137D01*
X52415D02*
X52335Y50297D01*
X52495D01*
X52415Y50137D01*
X52818Y50430D02*
X52738Y50590D01*
X52898D01*
X52818Y50430D01*
X52972Y50908D02*
X52892Y51068D01*
X53052D01*
X52972Y50908D01*
Y51432D02*
X52892Y51592D01*
X53052D01*
X52972Y51432D01*
Y51955D02*
X52892Y52115D01*
X53052D01*
X52972Y51955D01*
Y52479D02*
X52892Y52639D01*
X53052D01*
X52972Y52479D01*
X52818Y52953D02*
X52738Y53113D01*
X52898D01*
X52818Y52953D01*
X51916Y53247D02*
X51836Y53407D01*
X51996D01*
X51916Y53247D01*
X52415Y53247D02*
X52335Y53407D01*
X52495D01*
X52415Y53247D01*
X51512Y52953D02*
X51432Y53113D01*
X51592D01*
X51512Y52953D01*
X51358Y50908D02*
X51278Y51068D01*
X51438D01*
X51358Y50908D01*
X51358Y51432D02*
X51278Y51592D01*
X51438D01*
X51358Y51432D01*
X51358Y51955D02*
X51278Y52115D01*
X51438D01*
X51358Y51955D01*
X51358Y52479D02*
X51278Y52639D01*
X51438D01*
X51358Y52479D01*
X52165Y51692D02*
X52205Y51732D01*
X52245D01*
X52205Y51772D01*
X52245Y51812D01*
X52205D01*
X52165Y51852D01*
X52125Y51812D01*
X52085D01*
X52125Y51772D01*
X52085Y51732D01*
X52125D01*
X52165Y51692D01*
X51512Y54367D02*
X51432Y54527D01*
X51592D01*
X51512Y54367D01*
X51916Y54074D02*
X51836Y54234D01*
X51996D01*
X51916Y54074D01*
X52415Y54074D02*
X52335Y54234D01*
X52495D01*
X52415Y54074D01*
X52818Y54367D02*
X52738Y54527D01*
X52898D01*
X52818Y54367D01*
X52972Y54845D02*
X52892Y55005D01*
X53052D01*
X52972Y54845D01*
Y55369D02*
X52892Y55529D01*
X53052D01*
X52972Y55369D01*
Y55892D02*
X52892Y56052D01*
X53052D01*
X52972Y55892D01*
Y56416D02*
X52892Y56576D01*
X53052D01*
X52972Y56416D01*
X52818Y56890D02*
X52738Y57050D01*
X52898D01*
X52818Y56890D01*
X51916Y57184D02*
X51836Y57344D01*
X51996D01*
X51916Y57184D01*
X52415D02*
X52335Y57344D01*
X52495D01*
X52415Y57184D01*
X51512Y56890D02*
X51432Y57050D01*
X51592D01*
X51512Y56890D01*
X51358Y54845D02*
X51278Y55005D01*
X51438D01*
X51358Y54845D01*
X51358Y55369D02*
X51278Y55529D01*
X51438D01*
X51358Y55369D01*
Y55892D02*
X51278Y56052D01*
X51438D01*
X51358Y55892D01*
Y56416D02*
X51278Y56576D01*
X51438D01*
X51358Y56416D01*
X52165Y55629D02*
X52205Y55669D01*
X52245D01*
X52205Y55709D01*
X52245Y55749D01*
X52205D01*
X52165Y55789D01*
X52125Y55749D01*
X52085D01*
X52125Y55709D01*
X52085Y55669D01*
X52125D01*
X52165Y55629D01*
X43660Y52908D02*
X43700Y52988D01*
X43660Y53068D01*
X43740Y53028D01*
X43820Y53068D01*
X43780Y52988D01*
X43820Y52908D01*
X43740Y52948D01*
X43660Y52908D01*
X43660Y53660D02*
X43700Y53740D01*
X43660Y53820D01*
X43740Y53780D01*
X43820Y53820D01*
X43780Y53740D01*
X43820Y53660D01*
X43740Y53700D01*
X43660Y53660D01*
X51611Y70705D02*
X51531Y70865D01*
X51691D01*
X51611Y70705D01*
X52014Y70412D02*
X51934Y70572D01*
X52094D01*
X52014Y70412D01*
X52513D02*
X52433Y70572D01*
X52593D01*
X52513Y70412D01*
X52917Y70705D02*
X52837Y70865D01*
X52997D01*
X52917Y70705D01*
X53071Y71184D02*
X52991Y71344D01*
X53151D01*
X53071Y71184D01*
Y71707D02*
X52991Y71867D01*
X53151D01*
X53071Y71707D01*
Y72231D02*
X52991Y72391D01*
X53151D01*
X53071Y72231D01*
Y72755D02*
X52991Y72915D01*
X53151D01*
X53071Y72755D01*
X52917Y73229D02*
X52837Y73389D01*
X52997D01*
X52917Y73229D01*
X52014Y73522D02*
X51934Y73682D01*
X52094D01*
X52014Y73522D01*
X52513Y73522D02*
X52433Y73682D01*
X52593D01*
X52513Y73522D01*
X51611Y73229D02*
X51531Y73389D01*
X51691D01*
X51611Y73229D01*
X51457Y71184D02*
X51377Y71344D01*
X51537D01*
X51457Y71184D01*
X51457Y71707D02*
X51377Y71867D01*
X51537D01*
X51457Y71707D01*
X51457Y72231D02*
X51377Y72391D01*
X51537D01*
X51457Y72231D01*
X51457Y72755D02*
X51377Y72915D01*
X51537D01*
X51457Y72755D01*
X52264Y71967D02*
X52304Y72007D01*
X52344D01*
X52304Y72047D01*
X52344Y72087D01*
X52304D01*
X52264Y72127D01*
X52224Y72087D01*
X52184D01*
X52224Y72047D01*
X52184Y72007D01*
X52224D01*
X52264Y71967D01*
X51611Y74642D02*
X51531Y74802D01*
X51691D01*
X51611Y74642D01*
X52014Y74349D02*
X51934Y74509D01*
X52094D01*
X52014Y74349D01*
X52513Y74349D02*
X52433Y74509D01*
X52593D01*
X52513Y74349D01*
X52917Y74642D02*
X52837Y74802D01*
X52997D01*
X52917Y74642D01*
X53071Y75121D02*
X52991Y75281D01*
X53151D01*
X53071Y75121D01*
Y75644D02*
X52991Y75804D01*
X53151D01*
X53071Y75644D01*
Y76168D02*
X52991Y76328D01*
X53151D01*
X53071Y76168D01*
Y76692D02*
X52991Y76852D01*
X53151D01*
X53071Y76692D01*
X52917Y77166D02*
X52837Y77326D01*
X52997D01*
X52917Y77166D01*
X52014Y77459D02*
X51934Y77619D01*
X52094D01*
X52014Y77459D01*
X52513D02*
X52433Y77619D01*
X52593D01*
X52513Y77459D01*
X51611Y77166D02*
X51531Y77326D01*
X51691D01*
X51611Y77166D01*
X51457Y75121D02*
X51377Y75281D01*
X51537D01*
X51457Y75121D01*
X51457Y75644D02*
X51377Y75804D01*
X51537D01*
X51457Y75644D01*
Y76168D02*
X51377Y76328D01*
X51537D01*
X51457Y76168D01*
Y76692D02*
X51377Y76852D01*
X51537D01*
X51457Y76692D01*
X52264Y75904D02*
X52304Y75944D01*
X52344D01*
X52304Y75984D01*
X52344Y76024D01*
X52304D01*
X52264Y76064D01*
X52224Y76024D01*
X52184D01*
X52224Y75984D01*
X52184Y75944D01*
X52224D01*
X52264Y75904D01*
X43759Y73184D02*
X43799Y73264D01*
X43759Y73344D01*
X43839Y73304D01*
X43919Y73344D01*
X43879Y73264D01*
X43919Y73184D01*
X43839Y73224D01*
X43759Y73184D01*
X43759Y73936D02*
X43799Y74016D01*
X43759Y74096D01*
X43839Y74056D01*
X43919Y74096D01*
X43879Y74016D01*
X43919Y73936D01*
X43839Y73976D01*
X43759Y73936D01*
X44614Y56545D02*
Y56705D01*
X44774D01*
Y56545D01*
X44614D01*
X44654Y56585D02*
Y56665D01*
X44734D01*
Y56585D01*
X44654D01*
X48630Y57258D02*
Y57418D01*
X48790D01*
Y57258D01*
X48630D01*
X48670Y57298D02*
Y57378D01*
X48750D01*
Y57298D01*
X48670D01*
X48101Y57203D02*
Y57363D01*
X48261D01*
Y57203D01*
X48101D01*
X48141Y57243D02*
Y57323D01*
X48221D01*
Y57243D01*
X48141D01*
X41337Y66849D02*
Y67009D01*
X41497D01*
Y66849D01*
X41337D01*
X41377Y66889D02*
Y66969D01*
X41457D01*
Y66889D01*
X41377D01*
X42674Y67991D02*
Y68151D01*
X42834D01*
Y67991D01*
X42674D01*
X42714Y68031D02*
Y68111D01*
X42794D01*
Y68031D01*
X42714D01*
X42909Y69201D02*
Y69361D01*
X43069D01*
Y69201D01*
X42909D01*
X42949Y69241D02*
Y69321D01*
X43029D01*
Y69241D01*
X42949D01*
X41300Y72121D02*
Y72281D01*
X41460D01*
Y72121D01*
X41300D01*
X41340Y72161D02*
Y72241D01*
X41420D01*
Y72161D01*
X41340D01*
X42058Y74294D02*
Y74454D01*
X42218D01*
Y74294D01*
X42058D01*
X42098Y74334D02*
Y74414D01*
X42178D01*
Y74334D01*
X42098D01*
X41822Y75311D02*
Y75471D01*
X41982D01*
Y75311D01*
X41822D01*
X41862Y75351D02*
Y75431D01*
X41942D01*
Y75351D01*
X41862D01*
X40830Y77319D02*
Y77479D01*
X40990D01*
Y77319D01*
X40830D01*
X40870Y77359D02*
Y77439D01*
X40950D01*
Y77359D01*
X40870D01*
X38877Y77659D02*
Y77819D01*
X39037D01*
Y77659D01*
X38877D01*
X38917Y77699D02*
Y77779D01*
X38997D01*
Y77699D01*
X38917D01*
X35355Y74688D02*
Y74848D01*
X35515D01*
Y74688D01*
X35355D01*
X35395Y74728D02*
Y74808D01*
X35475D01*
Y74728D01*
X35395D01*
X34231Y77827D02*
Y77987D01*
X34391D01*
Y77827D01*
X34231D01*
X34271Y77867D02*
Y77947D01*
X34351D01*
Y77867D01*
X34271D01*
X32007Y77827D02*
Y77987D01*
X32167D01*
Y77827D01*
X32007D01*
X32047Y77867D02*
Y77947D01*
X32127D01*
Y77867D01*
X32047D01*
X27298Y74989D02*
Y75149D01*
X27458D01*
Y74989D01*
X27298D01*
X27338Y75029D02*
Y75109D01*
X27418D01*
Y75029D01*
X27338D01*
X27298Y76955D02*
Y77115D01*
X27458D01*
Y76955D01*
X27298D01*
X27338Y76995D02*
Y77075D01*
X27418D01*
Y76995D01*
X27338D01*
X27298Y75978D02*
Y76138D01*
X27458D01*
Y75978D01*
X27298D01*
X27338Y76018D02*
Y76098D01*
X27418D01*
Y76018D01*
X27338D01*
X24509Y76161D02*
Y76321D01*
X24669D01*
Y76161D01*
X24509D01*
X24549Y76201D02*
Y76281D01*
X24629D01*
Y76201D01*
X24549D01*
X22561Y76167D02*
Y76327D01*
X22721D01*
Y76167D01*
X22561D01*
X22601Y76207D02*
Y76287D01*
X22681D01*
Y76207D01*
X22601D01*
X38826Y73007D02*
Y73167D01*
X38986D01*
Y73007D01*
X38826D01*
X38866Y73047D02*
Y73127D01*
X38946D01*
Y73047D01*
X38866D01*
X35413Y71954D02*
Y72114D01*
X35573D01*
Y71954D01*
X35413D01*
X35453Y71994D02*
Y72074D01*
X35533D01*
Y71994D01*
X35453D01*
X35540Y69802D02*
Y69962D01*
X35700D01*
Y69802D01*
X35540D01*
X35580Y69842D02*
Y69922D01*
X35660D01*
Y69842D01*
X35580D01*
X36935Y67019D02*
Y67179D01*
X37095D01*
Y67019D01*
X36935D01*
X36975Y67059D02*
Y67139D01*
X37055D01*
Y67059D01*
X36975D01*
X37871Y65928D02*
Y66088D01*
X38031D01*
Y65928D01*
X37871D01*
X37911Y65968D02*
Y66048D01*
X37991D01*
Y65968D01*
X37911D01*
X36325Y64239D02*
Y64399D01*
X36485D01*
Y64239D01*
X36325D01*
X36365Y64279D02*
Y64359D01*
X36445D01*
Y64279D01*
X36365D01*
X49349Y59718D02*
Y59878D01*
X49509D01*
Y59718D01*
X49349D01*
X49389Y59758D02*
Y59838D01*
X49469D01*
Y59758D01*
X49389D01*
X46679Y63456D02*
Y63616D01*
X46839D01*
Y63456D01*
X46679D01*
X46719Y63496D02*
Y63576D01*
X46799D01*
Y63496D01*
X46719D01*
X46648Y62095D02*
Y62255D01*
X46808D01*
Y62095D01*
X46648D01*
X46688Y62135D02*
Y62215D01*
X46768D01*
Y62135D01*
X46688D01*
X43691Y62107D02*
Y62267D01*
X43851D01*
Y62107D01*
X43691D01*
X43731Y62147D02*
Y62227D01*
X43811D01*
Y62147D01*
X43731D01*
X43660Y63466D02*
Y63626D01*
X43820D01*
Y63466D01*
X43660D01*
X43700Y63506D02*
Y63586D01*
X43780D01*
Y63506D01*
X43700D01*
X45486Y60677D02*
Y60837D01*
X45646D01*
Y60677D01*
X45486D01*
X45526Y60717D02*
Y60797D01*
X45606D01*
Y60717D01*
X45526D01*
X43741Y60261D02*
Y60421D01*
X43901D01*
Y60261D01*
X43741D01*
X43781Y60301D02*
Y60381D01*
X43861D01*
Y60301D01*
X43781D01*
X40280Y63423D02*
Y63583D01*
X40440D01*
Y63423D01*
X40280D01*
X40320Y63463D02*
Y63543D01*
X40400D01*
Y63463D01*
X40320D01*
X39376Y63415D02*
Y63575D01*
X39536D01*
Y63415D01*
X39376D01*
X39416Y63455D02*
Y63535D01*
X39496D01*
Y63455D01*
X39416D01*
X37620Y63423D02*
Y63583D01*
X37780D01*
Y63423D01*
X37620D01*
X37660Y63463D02*
Y63543D01*
X37740D01*
Y63463D01*
X37660D01*
X35356Y62107D02*
Y62267D01*
X35516D01*
Y62107D01*
X35356D01*
X35396Y62147D02*
Y62227D01*
X35476D01*
Y62147D01*
X35396D01*
X37712Y60709D02*
Y60869D01*
X37872D01*
Y60709D01*
X37712D01*
X37752Y60749D02*
Y60829D01*
X37832D01*
Y60749D01*
X37752D01*
X36650Y58060D02*
Y58220D01*
X36810D01*
Y58060D01*
X36650D01*
X36690Y58100D02*
Y58180D01*
X36770D01*
Y58100D01*
X36690D01*
X35940Y56849D02*
Y57009D01*
X36100D01*
Y56849D01*
X35940D01*
X35980Y56889D02*
Y56969D01*
X36060D01*
Y56889D01*
X35980D01*
X32238Y55826D02*
Y55986D01*
X32398D01*
Y55826D01*
X32238D01*
X32278Y55866D02*
Y55946D01*
X32358D01*
Y55866D01*
X32278D01*
X31473Y55826D02*
Y55986D01*
X31633D01*
Y55826D01*
X31473D01*
X31513Y55866D02*
Y55946D01*
X31593D01*
Y55866D01*
X31513D01*
X47234Y57258D02*
Y57418D01*
X47394D01*
Y57258D01*
X47234D01*
X47274Y57298D02*
Y57378D01*
X47354D01*
Y57298D01*
X47274D01*
X46337Y57272D02*
Y57432D01*
X46498D01*
Y57272D01*
X46337D01*
X46378Y57312D02*
Y57392D01*
X46458D01*
Y57312D01*
X46378D01*
X45426Y57206D02*
Y57366D01*
X45586D01*
Y57206D01*
X45426D01*
X45466Y57246D02*
Y57326D01*
X45546D01*
Y57246D01*
X45466D01*
X45033Y57206D02*
Y57366D01*
X45193D01*
Y57206D01*
X45033D01*
X45073Y57246D02*
Y57326D01*
X45153D01*
Y57246D01*
X45073D01*
X44161Y57962D02*
Y58122D01*
X44321D01*
Y57962D01*
X44161D01*
X44201Y58002D02*
Y58082D01*
X44281D01*
Y58002D01*
X44201D01*
X44174Y57251D02*
Y57411D01*
X44334D01*
Y57251D01*
X44174D01*
X44214Y57291D02*
Y57371D01*
X44294D01*
Y57291D01*
X44214D01*
X49007Y48542D02*
Y48702D01*
X49167D01*
Y48542D01*
X49007D01*
X49047Y48582D02*
Y48662D01*
X49127D01*
Y48582D01*
X49047D01*
X34743Y62770D02*
Y62930D01*
X34903D01*
Y62770D01*
X34743D01*
X34783Y62810D02*
Y62890D01*
X34863D01*
Y62810D01*
X34783D01*
X33365Y62770D02*
Y62930D01*
X33525D01*
Y62770D01*
X33365D01*
X33405Y62810D02*
Y62890D01*
X33485D01*
Y62810D01*
X33405D01*
X46534Y56317D02*
Y56477D01*
X46694D01*
Y56317D01*
X46534D01*
X46574Y56357D02*
Y56437D01*
X46654D01*
Y56357D01*
X46574D01*
X45287Y56317D02*
Y56477D01*
X45447D01*
Y56317D01*
X45287D01*
X45327Y56357D02*
Y56437D01*
X45407D01*
Y56357D01*
X45327D01*
X30125Y74047D02*
Y74207D01*
X30285D01*
Y74047D01*
X30125D01*
X30165Y74087D02*
Y74167D01*
X30245D01*
Y74087D01*
X30165D01*
X33994Y77120D02*
Y77280D01*
X34154D01*
Y77120D01*
X33994D01*
X34034Y77160D02*
Y77240D01*
X34114D01*
Y77160D01*
X34034D01*
X31075Y77382D02*
Y77542D01*
X31235D01*
Y77382D01*
X31075D01*
X31115Y77422D02*
Y77502D01*
X31195D01*
Y77422D01*
X31115D01*
X28509Y74007D02*
Y74167D01*
X28669D01*
Y74007D01*
X28509D01*
X28549Y74047D02*
Y74127D01*
X28629D01*
Y74047D01*
X28549D01*
X35919Y61265D02*
Y61425D01*
X36079D01*
Y61265D01*
X35919D01*
X35959Y61305D02*
Y61385D01*
X36039D01*
Y61305D01*
X35959D01*
X38570Y61246D02*
Y61406D01*
X38730D01*
Y61246D01*
X38570D01*
X38610Y61286D02*
Y61366D01*
X38690D01*
Y61286D01*
X38610D01*
X42735Y61833D02*
Y61993D01*
X42895D01*
Y61833D01*
X42735D01*
X42775Y61873D02*
Y61953D01*
X42855D01*
Y61873D01*
X42775D01*
X41259Y61833D02*
Y61993D01*
X41419D01*
Y61833D01*
X41259D01*
X41299Y61873D02*
Y61953D01*
X41379D01*
Y61873D01*
X41299D01*
X49218Y68827D02*
Y68987D01*
X49378D01*
Y68827D01*
X49218D01*
X49258Y68867D02*
Y68947D01*
X49338D01*
Y68867D01*
X49258D01*
X34619Y76819D02*
Y76979D01*
X34779D01*
Y76819D01*
X34619D01*
X34659Y76859D02*
Y76939D01*
X34739D01*
Y76859D01*
X34659D01*
X34204Y75988D02*
Y76148D01*
X34364D01*
Y75988D01*
X34204D01*
X34244Y76028D02*
Y76108D01*
X34324D01*
Y76028D01*
X34244D01*
X33894Y76409D02*
Y76569D01*
X34054D01*
Y76409D01*
X33894D01*
X33934Y76449D02*
Y76529D01*
X34014D01*
Y76449D01*
X33934D01*
X33590Y75528D02*
Y75688D01*
X33750D01*
Y75528D01*
X33590D01*
X33630Y75568D02*
Y75648D01*
X33710D01*
Y75568D01*
X33630D01*
X34232Y65702D02*
Y65862D01*
X34392D01*
Y65702D01*
X34232D01*
X34272Y65742D02*
Y65822D01*
X34352D01*
Y65742D01*
X34272D01*
X35594Y64994D02*
Y65154D01*
X35754D01*
Y64994D01*
X35594D01*
X35634Y65034D02*
Y65114D01*
X35714D01*
Y65034D01*
X35634D01*
X36255Y64676D02*
Y64836D01*
X36415D01*
Y64676D01*
X36255D01*
X36295Y64716D02*
Y64796D01*
X36375D01*
Y64716D01*
X36295D01*
X35067Y65455D02*
Y65615D01*
X35227D01*
Y65455D01*
X35067D01*
X35107Y65495D02*
Y65575D01*
X35187D01*
Y65495D01*
X35107D01*
X66162Y54938D02*
Y55098D01*
X66322D01*
Y54938D01*
X66162D01*
X66202Y54978D02*
Y55058D01*
X66282D01*
Y54978D01*
X66202D01*
X65374Y54938D02*
Y55098D01*
X65534D01*
Y54938D01*
X65374D01*
X65414Y54978D02*
Y55058D01*
X65494D01*
Y54978D01*
X65414D01*
X64587Y54938D02*
Y55098D01*
X64747D01*
Y54938D01*
X64587D01*
X64627Y54978D02*
Y55058D01*
X64707D01*
Y54978D01*
X64627D01*
X64193Y55726D02*
Y55886D01*
X64353D01*
Y55726D01*
X64193D01*
X64233Y55766D02*
Y55846D01*
X64313D01*
Y55766D01*
X64233D01*
X63800Y54938D02*
Y55098D01*
X63960D01*
Y54938D01*
X63800D01*
X63840Y54978D02*
Y55058D01*
X63920D01*
Y54978D01*
X63840D01*
X64193Y54151D02*
Y54311D01*
X64353D01*
Y54151D01*
X64193D01*
X64233Y54191D02*
Y54271D01*
X64313D01*
Y54191D01*
X64233D01*
X63012Y54938D02*
Y55098D01*
X63172D01*
Y54938D01*
X63012D01*
X63052Y54978D02*
Y55058D01*
X63132D01*
Y54978D01*
X63052D01*
X62225Y56513D02*
Y56673D01*
X62385D01*
Y56513D01*
X62225D01*
X62265Y56553D02*
Y56633D01*
X62345D01*
Y56553D01*
X62265D01*
X62618Y55726D02*
Y55886D01*
X62778D01*
Y55726D01*
X62618D01*
X62658Y55766D02*
Y55846D01*
X62738D01*
Y55766D01*
X62658D01*
X62225Y54938D02*
Y55098D01*
X62385D01*
Y54938D01*
X62225D01*
X62265Y54978D02*
Y55058D01*
X62345D01*
Y54978D01*
X62265D01*
X62618Y54151D02*
Y54311D01*
X62778D01*
Y54151D01*
X62618D01*
X62658Y54191D02*
Y54271D01*
X62738D01*
Y54191D01*
X62658D01*
X62225Y53363D02*
Y53523D01*
X62385D01*
Y53363D01*
X62225D01*
X62265Y53403D02*
Y53483D01*
X62345D01*
Y53403D01*
X62265D01*
X61831Y55726D02*
Y55886D01*
X61991D01*
Y55726D01*
X61831D01*
X61871Y55766D02*
Y55846D01*
X61951D01*
Y55766D01*
X61871D01*
X61437Y54938D02*
Y55098D01*
X61597D01*
Y54938D01*
X61437D01*
X61477Y54978D02*
Y55058D01*
X61557D01*
Y54978D01*
X61477D01*
X61831Y54151D02*
Y54311D01*
X61991D01*
Y54151D01*
X61831D01*
X61871Y54191D02*
Y54271D01*
X61951D01*
Y54191D01*
X61871D01*
X61437Y53363D02*
Y53523D01*
X61597D01*
Y53363D01*
X61437D01*
X61477Y53403D02*
Y53483D01*
X61557D01*
Y53403D01*
X61477D01*
X61831Y52576D02*
Y52736D01*
X61991D01*
Y52576D01*
X61831D01*
X61871Y52616D02*
Y52696D01*
X61951D01*
Y52616D01*
X61871D01*
X61437Y51789D02*
Y51949D01*
X61597D01*
Y51789D01*
X61437D01*
X61477Y51829D02*
Y51909D01*
X61557D01*
Y51829D01*
X61477D01*
X60650Y54938D02*
Y55098D01*
X60810D01*
Y54938D01*
X60650D01*
X60690Y54978D02*
Y55058D01*
X60770D01*
Y54978D01*
X60690D01*
X61044Y54151D02*
Y54311D01*
X61204D01*
Y54151D01*
X61044D01*
X61084Y54191D02*
Y54271D01*
X61164D01*
Y54191D01*
X61084D01*
X60650Y53363D02*
Y53523D01*
X60810D01*
Y53363D01*
X60650D01*
X60690Y53403D02*
Y53483D01*
X60770D01*
Y53403D01*
X60690D01*
X61044Y52576D02*
Y52736D01*
X61204D01*
Y52576D01*
X61044D01*
X61084Y52616D02*
Y52696D01*
X61164D01*
Y52616D01*
X61084D01*
X60650Y51789D02*
Y51949D01*
X60810D01*
Y51789D01*
X60650D01*
X60690Y51829D02*
Y51909D01*
X60770D01*
Y51829D01*
X60690D01*
X60256Y54151D02*
Y54311D01*
X60416D01*
Y54151D01*
X60256D01*
X60296Y54191D02*
Y54271D01*
X60376D01*
Y54191D01*
X60296D01*
X59863Y53363D02*
Y53523D01*
X60023D01*
Y53363D01*
X59863D01*
X59903Y53403D02*
Y53483D01*
X59983D01*
Y53403D01*
X59903D01*
X60256Y52576D02*
Y52736D01*
X60416D01*
Y52576D01*
X60256D01*
X60296Y52616D02*
Y52696D01*
X60376D01*
Y52616D01*
X60296D01*
X59863Y51789D02*
Y51949D01*
X60023D01*
Y51789D01*
X59863D01*
X59903Y51829D02*
Y51909D01*
X59983D01*
Y51829D01*
X59903D01*
X59863Y50214D02*
Y50374D01*
X60023D01*
Y50214D01*
X59863D01*
X59903Y50254D02*
Y50334D01*
X59983D01*
Y50254D01*
X59903D01*
X59075Y53363D02*
Y53523D01*
X59235D01*
Y53363D01*
X59075D01*
X59115Y53403D02*
Y53483D01*
X59195D01*
Y53403D01*
X59115D01*
X59469Y52576D02*
Y52736D01*
X59629D01*
Y52576D01*
X59469D01*
X59509Y52616D02*
Y52696D01*
X59589D01*
Y52616D01*
X59509D01*
X59469Y51001D02*
Y51161D01*
X59629D01*
Y51001D01*
X59469D01*
X59509Y51041D02*
Y51121D01*
X59589D01*
Y51041D01*
X59509D01*
X59075Y50214D02*
Y50374D01*
X59235D01*
Y50214D01*
X59075D01*
X59115Y50254D02*
Y50334D01*
X59195D01*
Y50254D01*
X59115D01*
X58288Y51789D02*
Y51949D01*
X58448D01*
Y51789D01*
X58288D01*
X58328Y51829D02*
Y51909D01*
X58408D01*
Y51829D01*
X58328D01*
X58288Y50214D02*
Y50374D01*
X58448D01*
Y50214D01*
X58288D01*
X58328Y50254D02*
Y50334D01*
X58408D01*
Y50254D01*
X58328D01*
X57894Y52576D02*
Y52736D01*
X58054D01*
Y52576D01*
X57894D01*
X57934Y52616D02*
Y52696D01*
X58014D01*
Y52616D01*
X57934D01*
X57500Y51789D02*
Y51949D01*
X57660D01*
Y51789D01*
X57500D01*
X57540Y51829D02*
Y51909D01*
X57620D01*
Y51829D01*
X57540D01*
X57894Y51001D02*
Y51161D01*
X58054D01*
Y51001D01*
X57894D01*
X57934Y51041D02*
Y51121D01*
X58014D01*
Y51041D01*
X57934D01*
X57500Y50214D02*
Y50374D01*
X57660D01*
Y50214D01*
X57500D01*
X57540Y50254D02*
Y50334D01*
X57620D01*
Y50254D01*
X57540D01*
X66162Y72261D02*
Y72421D01*
X66322D01*
Y72261D01*
X66162D01*
X66202Y72301D02*
Y72381D01*
X66282D01*
Y72301D01*
X66202D01*
X66162Y70686D02*
Y70846D01*
X66322D01*
Y70686D01*
X66162D01*
X66202Y70726D02*
Y70806D01*
X66282D01*
Y70726D01*
X66202D01*
X65768Y71474D02*
Y71634D01*
X65928D01*
Y71474D01*
X65768D01*
X65808Y71514D02*
Y71594D01*
X65888D01*
Y71514D01*
X65808D01*
X64587Y72261D02*
Y72421D01*
X64747D01*
Y72261D01*
X64587D01*
X64627Y72301D02*
Y72381D01*
X64707D01*
Y72301D01*
X64627D01*
X64981Y71474D02*
Y71634D01*
X65141D01*
Y71474D01*
X64981D01*
X65021Y71514D02*
Y71594D01*
X65101D01*
Y71514D01*
X65021D01*
X64193Y71474D02*
Y71634D01*
X64353D01*
Y71474D01*
X64193D01*
X64233Y71514D02*
Y71594D01*
X64313D01*
Y71514D01*
X64233D01*
X64193Y69899D02*
Y70059D01*
X64353D01*
Y69899D01*
X64193D01*
X64233Y69939D02*
Y70019D01*
X64313D01*
Y69939D01*
X64233D01*
X63406Y71474D02*
Y71634D01*
X63566D01*
Y71474D01*
X63406D01*
X63446Y71514D02*
Y71594D01*
X63526D01*
Y71514D01*
X63446D01*
X62225Y72261D02*
Y72421D01*
X62385D01*
Y72261D01*
X62225D01*
X62265Y72301D02*
Y72381D01*
X62345D01*
Y72301D01*
X62265D01*
X62618Y71474D02*
Y71634D01*
X62778D01*
Y71474D01*
X62618D01*
X62658Y71514D02*
Y71594D01*
X62738D01*
Y71514D01*
X62658D01*
X62225Y70686D02*
Y70846D01*
X62385D01*
Y70686D01*
X62225D01*
X62265Y70726D02*
Y70806D01*
X62345D01*
Y70726D01*
X62265D01*
X61831Y73048D02*
Y73208D01*
X61991D01*
Y73048D01*
X61831D01*
X61871Y73088D02*
Y73168D01*
X61951D01*
Y73088D01*
X61871D01*
X61437Y72261D02*
Y72421D01*
X61597D01*
Y72261D01*
X61437D01*
X61477Y72301D02*
Y72381D01*
X61557D01*
Y72301D01*
X61477D01*
X61831Y71474D02*
Y71634D01*
X61991D01*
Y71474D01*
X61831D01*
X61871Y71514D02*
Y71594D01*
X61951D01*
Y71514D01*
X61871D01*
X61831Y69899D02*
Y70059D01*
X61991D01*
Y69899D01*
X61831D01*
X61871Y69939D02*
Y70019D01*
X61951D01*
Y69939D01*
X61871D01*
X61044Y73048D02*
Y73208D01*
X61204D01*
Y73048D01*
X61044D01*
X61084Y73088D02*
Y73168D01*
X61164D01*
Y73088D01*
X61084D01*
X60650Y72261D02*
Y72421D01*
X60810D01*
Y72261D01*
X60650D01*
X60690Y72301D02*
Y72381D01*
X60770D01*
Y72301D01*
X60690D01*
X61044Y71474D02*
Y71634D01*
X61204D01*
Y71474D01*
X61044D01*
X61084Y71514D02*
Y71594D01*
X61164D01*
Y71514D01*
X61084D01*
X60256Y73048D02*
Y73208D01*
X60416D01*
Y73048D01*
X60256D01*
X60296Y73088D02*
Y73168D01*
X60376D01*
Y73088D01*
X60296D01*
X59863Y72261D02*
Y72421D01*
X60023D01*
Y72261D01*
X59863D01*
X59903Y72301D02*
Y72381D01*
X59983D01*
Y72301D01*
X59903D01*
X60256Y71474D02*
Y71634D01*
X60416D01*
Y71474D01*
X60256D01*
X60296Y71514D02*
Y71594D01*
X60376D01*
Y71514D01*
X60296D01*
X59469Y73048D02*
Y73208D01*
X59629D01*
Y73048D01*
X59469D01*
X59509Y73088D02*
Y73168D01*
X59589D01*
Y73088D01*
X59509D01*
X59469Y71474D02*
Y71634D01*
X59629D01*
Y71474D01*
X59469D01*
X59509Y71514D02*
Y71594D01*
X59589D01*
Y71514D01*
X59509D01*
X59075Y70686D02*
Y70846D01*
X59235D01*
Y70686D01*
X59075D01*
X59115Y70726D02*
Y70806D01*
X59195D01*
Y70726D01*
X59115D01*
X59469Y69899D02*
Y70059D01*
X59629D01*
Y69899D01*
X59469D01*
X59509Y69939D02*
Y70019D01*
X59589D01*
Y69939D01*
X59509D01*
X58681Y73048D02*
Y73208D01*
X58841D01*
Y73048D01*
X58681D01*
X58721Y73088D02*
Y73168D01*
X58801D01*
Y73088D01*
X58721D01*
X58288Y72261D02*
Y72421D01*
X58448D01*
Y72261D01*
X58288D01*
X58328Y72301D02*
Y72381D01*
X58408D01*
Y72301D01*
X58328D01*
X58288Y70686D02*
Y70846D01*
X58448D01*
Y70686D01*
X58288D01*
X58328Y70726D02*
Y70806D01*
X58408D01*
Y70726D01*
X58328D01*
X58681Y69899D02*
Y70059D01*
X58841D01*
Y69899D01*
X58681D01*
X58721Y69939D02*
Y70019D01*
X58801D01*
Y69939D01*
X58721D01*
X57894Y73048D02*
Y73208D01*
X58054D01*
Y73048D01*
X57894D01*
X57934Y73088D02*
Y73168D01*
X58014D01*
Y73088D01*
X57934D01*
X57500Y72261D02*
Y72421D01*
X57660D01*
Y72261D01*
X57500D01*
X57540Y72301D02*
Y72381D01*
X57620D01*
Y72301D01*
X57540D01*
X57894Y71474D02*
Y71634D01*
X58054D01*
Y71474D01*
X57894D01*
X57934Y71514D02*
Y71594D01*
X58014D01*
Y71514D01*
X57934D01*
X57500Y70686D02*
Y70846D01*
X57660D01*
Y70686D01*
X57500D01*
X57540Y70726D02*
Y70806D01*
X57620D01*
Y70726D01*
X57540D01*
X57894Y69899D02*
Y70059D01*
X58054D01*
Y69899D01*
X57894D01*
X57934Y69939D02*
Y70019D01*
X58014D01*
Y69939D01*
X57934D01*
X55532Y52576D02*
Y52736D01*
X55692D01*
Y52576D01*
X55532D01*
X55572Y52616D02*
Y52696D01*
X55652D01*
Y52616D01*
X55572D01*
X55138Y51789D02*
Y51949D01*
X55298D01*
Y51789D01*
X55138D01*
X55178Y51829D02*
Y51909D01*
X55258D01*
Y51829D01*
X55178D01*
X55532Y51001D02*
Y51161D01*
X55692D01*
Y51001D01*
X55532D01*
X55572Y51041D02*
Y51121D01*
X55652D01*
Y51041D01*
X55572D01*
X55138Y50214D02*
Y50374D01*
X55298D01*
Y50214D01*
X55138D01*
X55178Y50254D02*
Y50334D01*
X55258D01*
Y50254D01*
X55178D01*
X54744Y52576D02*
Y52736D01*
X54904D01*
Y52576D01*
X54744D01*
X54784Y52616D02*
Y52696D01*
X54864D01*
Y52616D01*
X54784D01*
X54351Y51789D02*
Y51949D01*
X54511D01*
Y51789D01*
X54351D01*
X54391Y51829D02*
Y51909D01*
X54471D01*
Y51829D01*
X54391D01*
X54744Y51001D02*
Y51161D01*
X54904D01*
Y51001D01*
X54744D01*
X54784Y51041D02*
Y51121D01*
X54864D01*
Y51041D01*
X54784D01*
X54351Y50214D02*
Y50374D01*
X54511D01*
Y50214D01*
X54351D01*
X54391Y50254D02*
Y50334D01*
X54471D01*
Y50254D01*
X54391D01*
X53957Y52576D02*
Y52736D01*
X54117D01*
Y52576D01*
X53957D01*
X53997Y52616D02*
Y52696D01*
X54077D01*
Y52616D01*
X53997D01*
X53563Y51789D02*
Y51949D01*
X53723D01*
Y51789D01*
X53563D01*
X53603Y51829D02*
Y51909D01*
X53683D01*
Y51829D01*
X53603D01*
X53957Y51001D02*
Y51161D01*
X54117D01*
Y51001D01*
X53957D01*
X53997Y51041D02*
Y51121D01*
X54077D01*
Y51041D01*
X53997D01*
X53563Y50214D02*
Y50374D01*
X53723D01*
Y50214D01*
X53563D01*
X53603Y50254D02*
Y50334D01*
X53683D01*
Y50254D01*
X53603D01*
X55926Y73048D02*
Y73208D01*
X56086D01*
Y73048D01*
X55926D01*
X55966Y73088D02*
Y73168D01*
X56046D01*
Y73088D01*
X55966D01*
X55138Y73048D02*
Y73208D01*
X55298D01*
Y73048D01*
X55138D01*
X55178Y73088D02*
Y73168D01*
X55258D01*
Y73088D01*
X55178D01*
X55532Y72261D02*
Y72421D01*
X55692D01*
Y72261D01*
X55532D01*
X55572Y72301D02*
Y72381D01*
X55652D01*
Y72301D01*
X55572D01*
X55138Y71474D02*
Y71634D01*
X55298D01*
Y71474D01*
X55138D01*
X55178Y71514D02*
Y71594D01*
X55258D01*
Y71514D01*
X55178D01*
X55532Y70686D02*
Y70846D01*
X55692D01*
Y70686D01*
X55532D01*
X55572Y70726D02*
Y70806D01*
X55652D01*
Y70726D01*
X55572D01*
X54351Y73048D02*
Y73208D01*
X54511D01*
Y73048D01*
X54351D01*
X54391Y73088D02*
Y73168D01*
X54471D01*
Y73088D01*
X54391D01*
X54744Y72261D02*
Y72421D01*
X54904D01*
Y72261D01*
X54744D01*
X54784Y72301D02*
Y72381D01*
X54864D01*
Y72301D01*
X54784D01*
X54351Y71474D02*
Y71634D01*
X54511D01*
Y71474D01*
X54351D01*
X54391Y71514D02*
Y71594D01*
X54471D01*
Y71514D01*
X54391D01*
X54744Y70686D02*
Y70846D01*
X54904D01*
Y70686D01*
X54744D01*
X54784Y70726D02*
Y70806D01*
X54864D01*
Y70726D01*
X54784D01*
X53563Y73048D02*
Y73208D01*
X53723D01*
Y73048D01*
X53563D01*
X53603Y73088D02*
Y73168D01*
X53683D01*
Y73088D01*
X53603D01*
X53957Y72261D02*
Y72421D01*
X54117D01*
Y72261D01*
X53957D01*
X53997Y72301D02*
Y72381D01*
X54077D01*
Y72301D01*
X53997D01*
X53563Y71474D02*
Y71634D01*
X53723D01*
Y71474D01*
X53563D01*
X53603Y71514D02*
Y71594D01*
X53683D01*
Y71514D01*
X53603D01*
X53957Y70686D02*
Y70846D01*
X54117D01*
Y70686D01*
X53957D01*
X53997Y70726D02*
Y70806D01*
X54077D01*
Y70726D01*
X53997D01*
X53170Y70686D02*
Y70846D01*
X53330D01*
Y70686D01*
X53170D01*
X53210Y70726D02*
Y70806D01*
X53290D01*
Y70726D01*
X53210D01*
X66555Y78560D02*
Y78720D01*
X66715D01*
Y78560D01*
X66555D01*
X66595Y78600D02*
Y78680D01*
X66675D01*
Y78600D01*
X66595D01*
X66162Y77773D02*
Y77933D01*
X66322D01*
Y77773D01*
X66162D01*
X66202Y77813D02*
Y77893D01*
X66282D01*
Y77813D01*
X66202D01*
X66555Y76985D02*
Y77145D01*
X66715D01*
Y76985D01*
X66555D01*
X66595Y77025D02*
Y77105D01*
X66675D01*
Y77025D01*
X66595D01*
X66162Y76198D02*
Y76358D01*
X66322D01*
Y76198D01*
X66162D01*
X66202Y76238D02*
Y76318D01*
X66282D01*
Y76238D01*
X66202D01*
X66555Y75411D02*
Y75571D01*
X66715D01*
Y75411D01*
X66555D01*
X66595Y75451D02*
Y75531D01*
X66675D01*
Y75451D01*
X66595D01*
X66162Y74623D02*
Y74783D01*
X66322D01*
Y74623D01*
X66162D01*
X66202Y74663D02*
Y74743D01*
X66282D01*
Y74663D01*
X66202D01*
X65768Y76985D02*
Y77145D01*
X65928D01*
Y76985D01*
X65768D01*
X65808Y77025D02*
Y77105D01*
X65888D01*
Y77025D01*
X65808D01*
X65374Y74623D02*
Y74783D01*
X65534D01*
Y74623D01*
X65374D01*
X65414Y74663D02*
Y74743D01*
X65494D01*
Y74663D01*
X65414D01*
X64587Y77773D02*
Y77933D01*
X64747D01*
Y77773D01*
X64587D01*
X64627Y77813D02*
Y77893D01*
X64707D01*
Y77813D01*
X64627D01*
X64981Y76985D02*
Y77145D01*
X65141D01*
Y76985D01*
X64981D01*
X65021Y77025D02*
Y77105D01*
X65101D01*
Y77025D01*
X65021D01*
X64587Y74623D02*
Y74783D01*
X64747D01*
Y74623D01*
X64587D01*
X64627Y74663D02*
Y74743D01*
X64707D01*
Y74663D01*
X64627D01*
X64193Y76985D02*
Y77145D01*
X64353D01*
Y76985D01*
X64193D01*
X64233Y77025D02*
Y77105D01*
X64313D01*
Y77025D01*
X64233D01*
X64193Y75411D02*
Y75571D01*
X64353D01*
Y75411D01*
X64193D01*
X64233Y75451D02*
Y75531D01*
X64313D01*
Y75451D01*
X64233D01*
X63800Y74623D02*
Y74783D01*
X63960D01*
Y74623D01*
X63800D01*
X63840Y74663D02*
Y74743D01*
X63920D01*
Y74663D01*
X63840D01*
X63406Y76985D02*
Y77145D01*
X63566D01*
Y76985D01*
X63406D01*
X63446Y77025D02*
Y77105D01*
X63526D01*
Y77025D01*
X63446D01*
X63012Y74623D02*
Y74783D01*
X63172D01*
Y74623D01*
X63012D01*
X63052Y74663D02*
Y74743D01*
X63132D01*
Y74663D01*
X63052D01*
X62225Y77773D02*
Y77933D01*
X62385D01*
Y77773D01*
X62225D01*
X62265Y77813D02*
Y77893D01*
X62345D01*
Y77813D01*
X62265D01*
X62618Y76985D02*
Y77145D01*
X62778D01*
Y76985D01*
X62618D01*
X62658Y77025D02*
Y77105D01*
X62738D01*
Y77025D01*
X62658D01*
X62225Y76198D02*
Y76358D01*
X62385D01*
Y76198D01*
X62225D01*
X62265Y76238D02*
Y76318D01*
X62345D01*
Y76238D01*
X62265D01*
X62225Y74623D02*
Y74783D01*
X62385D01*
Y74623D01*
X62225D01*
X62265Y74663D02*
Y74743D01*
X62345D01*
Y74663D01*
X62265D01*
X61831Y78560D02*
Y78720D01*
X61991D01*
Y78560D01*
X61831D01*
X61871Y78600D02*
Y78680D01*
X61951D01*
Y78600D01*
X61871D01*
X61437Y77773D02*
Y77933D01*
X61597D01*
Y77773D01*
X61437D01*
X61477Y77813D02*
Y77893D01*
X61557D01*
Y77813D01*
X61477D01*
X61831Y76985D02*
Y77145D01*
X61991D01*
Y76985D01*
X61831D01*
X61871Y77025D02*
Y77105D01*
X61951D01*
Y77025D01*
X61871D01*
X61437Y76198D02*
Y76358D01*
X61597D01*
Y76198D01*
X61437D01*
X61477Y76238D02*
Y76318D01*
X61557D01*
Y76238D01*
X61477D01*
X61831Y75411D02*
Y75571D01*
X61991D01*
Y75411D01*
X61831D01*
X61871Y75451D02*
Y75531D01*
X61951D01*
Y75451D01*
X61871D01*
X61437Y74623D02*
Y74783D01*
X61597D01*
Y74623D01*
X61437D01*
X61477Y74663D02*
Y74743D01*
X61557D01*
Y74663D01*
X61477D01*
X61044Y78560D02*
Y78720D01*
X61204D01*
Y78560D01*
X61044D01*
X61084Y78600D02*
Y78680D01*
X61164D01*
Y78600D01*
X61084D01*
X60650Y77773D02*
Y77933D01*
X60810D01*
Y77773D01*
X60650D01*
X60690Y77813D02*
Y77893D01*
X60770D01*
Y77813D01*
X60690D01*
X61044Y76985D02*
Y77145D01*
X61204D01*
Y76985D01*
X61044D01*
X61084Y77025D02*
Y77105D01*
X61164D01*
Y77025D01*
X61084D01*
X60650Y76198D02*
Y76358D01*
X60810D01*
Y76198D01*
X60650D01*
X60690Y76238D02*
Y76318D01*
X60770D01*
Y76238D01*
X60690D01*
X61044Y75411D02*
Y75571D01*
X61204D01*
Y75411D01*
X61044D01*
X61084Y75451D02*
Y75531D01*
X61164D01*
Y75451D01*
X61084D01*
X60650Y74623D02*
Y74783D01*
X60810D01*
Y74623D01*
X60650D01*
X60690Y74663D02*
Y74743D01*
X60770D01*
Y74663D01*
X60690D01*
X60256Y78560D02*
Y78720D01*
X60416D01*
Y78560D01*
X60256D01*
X60296Y78600D02*
Y78680D01*
X60376D01*
Y78600D01*
X60296D01*
X59863Y77773D02*
Y77933D01*
X60023D01*
Y77773D01*
X59863D01*
X59903Y77813D02*
Y77893D01*
X59983D01*
Y77813D01*
X59903D01*
X60256Y76985D02*
Y77145D01*
X60416D01*
Y76985D01*
X60256D01*
X60296Y77025D02*
Y77105D01*
X60376D01*
Y77025D01*
X60296D01*
X59863Y76198D02*
Y76358D01*
X60023D01*
Y76198D01*
X59863D01*
X59903Y76238D02*
Y76318D01*
X59983D01*
Y76238D01*
X59903D01*
X60256Y75411D02*
Y75571D01*
X60416D01*
Y75411D01*
X60256D01*
X60296Y75451D02*
Y75531D01*
X60376D01*
Y75451D01*
X60296D01*
X59863Y74623D02*
Y74783D01*
X60023D01*
Y74623D01*
X59863D01*
X59903Y74663D02*
Y74743D01*
X59983D01*
Y74663D01*
X59903D01*
X59469Y78560D02*
Y78720D01*
X59629D01*
Y78560D01*
X59469D01*
X59509Y78600D02*
Y78680D01*
X59589D01*
Y78600D01*
X59509D01*
X59075Y77773D02*
Y77933D01*
X59235D01*
Y77773D01*
X59075D01*
X59115Y77813D02*
Y77893D01*
X59195D01*
Y77813D01*
X59115D01*
X59469Y76985D02*
Y77145D01*
X59629D01*
Y76985D01*
X59469D01*
X59509Y77025D02*
Y77105D01*
X59589D01*
Y77025D01*
X59509D01*
X59075Y76198D02*
Y76358D01*
X59235D01*
Y76198D01*
X59075D01*
X59115Y76238D02*
Y76318D01*
X59195D01*
Y76238D01*
X59115D01*
X59469Y75411D02*
Y75571D01*
X59629D01*
Y75411D01*
X59469D01*
X59509Y75451D02*
Y75531D01*
X59589D01*
Y75451D01*
X59509D01*
X59075Y74623D02*
Y74783D01*
X59235D01*
Y74623D01*
X59075D01*
X59115Y74663D02*
Y74743D01*
X59195D01*
Y74663D01*
X59115D01*
X58681Y78560D02*
Y78720D01*
X58841D01*
Y78560D01*
X58681D01*
X58721Y78600D02*
Y78680D01*
X58801D01*
Y78600D01*
X58721D01*
X58288Y77773D02*
Y77933D01*
X58448D01*
Y77773D01*
X58288D01*
X58328Y77813D02*
Y77893D01*
X58408D01*
Y77813D01*
X58328D01*
X58681Y76985D02*
Y77145D01*
X58841D01*
Y76985D01*
X58681D01*
X58721Y77025D02*
Y77105D01*
X58801D01*
Y77025D01*
X58721D01*
X58288Y76198D02*
Y76358D01*
X58448D01*
Y76198D01*
X58288D01*
X58328Y76238D02*
Y76318D01*
X58408D01*
Y76238D01*
X58328D01*
X58681Y75411D02*
Y75571D01*
X58841D01*
Y75411D01*
X58681D01*
X58721Y75451D02*
Y75531D01*
X58801D01*
Y75451D01*
X58721D01*
X58288Y74623D02*
Y74783D01*
X58448D01*
Y74623D01*
X58288D01*
X58328Y74663D02*
Y74743D01*
X58408D01*
Y74663D01*
X58328D01*
X57894Y78560D02*
Y78720D01*
X58054D01*
Y78560D01*
X57894D01*
X57934Y78600D02*
Y78680D01*
X58014D01*
Y78600D01*
X57934D01*
X57500Y77773D02*
Y77933D01*
X57660D01*
Y77773D01*
X57500D01*
X57540Y77813D02*
Y77893D01*
X57620D01*
Y77813D01*
X57540D01*
X57894Y76985D02*
Y77145D01*
X58054D01*
Y76985D01*
X57894D01*
X57934Y77025D02*
Y77105D01*
X58014D01*
Y77025D01*
X57934D01*
X57500Y76198D02*
Y76358D01*
X57660D01*
Y76198D01*
X57500D01*
X57540Y76238D02*
Y76318D01*
X57620D01*
Y76238D01*
X57540D01*
X57894Y75411D02*
Y75571D01*
X58054D01*
Y75411D01*
X57894D01*
X57934Y75451D02*
Y75531D01*
X58014D01*
Y75451D01*
X57934D01*
X57500Y74623D02*
Y74783D01*
X57660D01*
Y74623D01*
X57500D01*
X57540Y74663D02*
Y74743D01*
X57620D01*
Y74663D01*
X57540D01*
X57107Y78560D02*
Y78720D01*
X57267D01*
Y78560D01*
X57107D01*
X57147Y78600D02*
Y78680D01*
X57227D01*
Y78600D01*
X57147D01*
X56713Y77773D02*
Y77933D01*
X56873D01*
Y77773D01*
X56713D01*
X56753Y77813D02*
Y77893D01*
X56833D01*
Y77813D01*
X56753D01*
X57107Y76985D02*
Y77145D01*
X57267D01*
Y76985D01*
X57107D01*
X57147Y77025D02*
Y77105D01*
X57227D01*
Y77025D01*
X57147D01*
X56713Y76198D02*
Y76358D01*
X56873D01*
Y76198D01*
X56713D01*
X56753Y76238D02*
Y76318D01*
X56833D01*
Y76238D01*
X56753D01*
X57107Y75411D02*
Y75571D01*
X57267D01*
Y75411D01*
X57107D01*
X57147Y75451D02*
Y75531D01*
X57227D01*
Y75451D01*
X57147D01*
X56713Y74623D02*
Y74783D01*
X56873D01*
Y74623D01*
X56713D01*
X56753Y74663D02*
Y74743D01*
X56833D01*
Y74663D01*
X56753D01*
X56319Y78560D02*
Y78720D01*
X56479D01*
Y78560D01*
X56319D01*
X56359Y78600D02*
Y78680D01*
X56439D01*
Y78600D01*
X56359D01*
X55926Y77773D02*
Y77933D01*
X56086D01*
Y77773D01*
X55926D01*
X55966Y77813D02*
Y77893D01*
X56046D01*
Y77813D01*
X55966D01*
X56319Y76985D02*
Y77145D01*
X56479D01*
Y76985D01*
X56319D01*
X56359Y77025D02*
Y77105D01*
X56439D01*
Y77025D01*
X56359D01*
X55926Y76198D02*
Y76358D01*
X56086D01*
Y76198D01*
X55926D01*
X55966Y76238D02*
Y76318D01*
X56046D01*
Y76238D01*
X55966D01*
X56319Y75411D02*
Y75571D01*
X56479D01*
Y75411D01*
X56319D01*
X56359Y75451D02*
Y75531D01*
X56439D01*
Y75451D01*
X56359D01*
X55926Y74623D02*
Y74783D01*
X56086D01*
Y74623D01*
X55926D01*
X55966Y74663D02*
Y74743D01*
X56046D01*
Y74663D01*
X55966D01*
X55532Y78560D02*
Y78720D01*
X55692D01*
Y78560D01*
X55532D01*
X55572Y78600D02*
Y78680D01*
X55652D01*
Y78600D01*
X55572D01*
X55138Y77773D02*
Y77933D01*
X55298D01*
Y77773D01*
X55138D01*
X55178Y77813D02*
Y77893D01*
X55258D01*
Y77813D01*
X55178D01*
X55532Y76985D02*
Y77145D01*
X55692D01*
Y76985D01*
X55532D01*
X55572Y77025D02*
Y77105D01*
X55652D01*
Y77025D01*
X55572D01*
X55138Y76198D02*
Y76358D01*
X55298D01*
Y76198D01*
X55138D01*
X55178Y76238D02*
Y76318D01*
X55258D01*
Y76238D01*
X55178D01*
X55532Y75411D02*
Y75571D01*
X55692D01*
Y75411D01*
X55532D01*
X55572Y75451D02*
Y75531D01*
X55652D01*
Y75451D01*
X55572D01*
X55138Y74623D02*
Y74783D01*
X55298D01*
Y74623D01*
X55138D01*
X55178Y74663D02*
Y74743D01*
X55258D01*
Y74663D01*
X55178D01*
X54744Y78560D02*
Y78720D01*
X54904D01*
Y78560D01*
X54744D01*
X54784Y78600D02*
Y78680D01*
X54864D01*
Y78600D01*
X54784D01*
X54351Y77773D02*
Y77933D01*
X54511D01*
Y77773D01*
X54351D01*
X54391Y77813D02*
Y77893D01*
X54471D01*
Y77813D01*
X54391D01*
X54744Y76985D02*
Y77145D01*
X54904D01*
Y76985D01*
X54744D01*
X54784Y77025D02*
Y77105D01*
X54864D01*
Y77025D01*
X54784D01*
X54351Y76198D02*
Y76358D01*
X54511D01*
Y76198D01*
X54351D01*
X54391Y76238D02*
Y76318D01*
X54471D01*
Y76238D01*
X54391D01*
X54744Y75411D02*
Y75571D01*
X54904D01*
Y75411D01*
X54744D01*
X54784Y75451D02*
Y75531D01*
X54864D01*
Y75451D01*
X54784D01*
X54351Y74623D02*
Y74783D01*
X54511D01*
Y74623D01*
X54351D01*
X54391Y74663D02*
Y74743D01*
X54471D01*
Y74663D01*
X54391D01*
X53957Y78560D02*
Y78720D01*
X54117D01*
Y78560D01*
X53957D01*
X53997Y78600D02*
Y78680D01*
X54077D01*
Y78600D01*
X53997D01*
X53563Y77773D02*
Y77933D01*
X53723D01*
Y77773D01*
X53563D01*
X53603Y77813D02*
Y77893D01*
X53683D01*
Y77813D01*
X53603D01*
X53957Y76985D02*
Y77145D01*
X54117D01*
Y76985D01*
X53957D01*
X53997Y77025D02*
Y77105D01*
X54077D01*
Y77025D01*
X53997D01*
X53563Y76198D02*
Y76358D01*
X53723D01*
Y76198D01*
X53563D01*
X53603Y76238D02*
Y76318D01*
X53683D01*
Y76238D01*
X53603D01*
X53957Y75411D02*
Y75571D01*
X54117D01*
Y75411D01*
X53957D01*
X53997Y75451D02*
Y75531D01*
X54077D01*
Y75451D01*
X53997D01*
X53563Y74623D02*
Y74783D01*
X53723D01*
Y74623D01*
X53563D01*
X53603Y74663D02*
Y74743D01*
X53683D01*
Y74663D01*
X53603D01*
X53170Y78560D02*
Y78720D01*
X53330D01*
Y78560D01*
X53170D01*
X53210Y78600D02*
Y78680D01*
X53290D01*
Y78600D01*
X53210D01*
X52776Y77773D02*
Y77933D01*
X52936D01*
Y77773D01*
X52776D01*
X52816Y77813D02*
Y77893D01*
X52896D01*
Y77813D01*
X52816D01*
X52382Y78560D02*
Y78720D01*
X52542D01*
Y78560D01*
X52382D01*
X52422Y78600D02*
Y78680D01*
X52502D01*
Y78600D01*
X52422D01*
X51595Y78560D02*
Y78720D01*
X51755D01*
Y78560D01*
X51595D01*
X51635Y78600D02*
Y78680D01*
X51715D01*
Y78600D01*
X51635D01*
X51201Y77773D02*
Y77933D01*
X51361D01*
Y77773D01*
X51201D01*
X51241Y77813D02*
Y77893D01*
X51321D01*
Y77813D01*
X51241D01*
X66162Y60450D02*
Y60610D01*
X66322D01*
Y60450D01*
X66162D01*
X66202Y60490D02*
Y60570D01*
X66282D01*
Y60490D01*
X66202D01*
X65374Y60450D02*
Y60610D01*
X65534D01*
Y60450D01*
X65374D01*
X65414Y60490D02*
Y60570D01*
X65494D01*
Y60490D01*
X65414D01*
X64587Y60450D02*
Y60610D01*
X64747D01*
Y60450D01*
X64587D01*
X64627Y60490D02*
Y60570D01*
X64707D01*
Y60490D01*
X64627D01*
X64193Y61237D02*
Y61397D01*
X64353D01*
Y61237D01*
X64193D01*
X64233Y61277D02*
Y61357D01*
X64313D01*
Y61277D01*
X64233D01*
X63800Y60450D02*
Y60610D01*
X63960D01*
Y60450D01*
X63800D01*
X63840Y60490D02*
Y60570D01*
X63920D01*
Y60490D01*
X63840D01*
X64193Y59663D02*
Y59823D01*
X64353D01*
Y59663D01*
X64193D01*
X64233Y59703D02*
Y59783D01*
X64313D01*
Y59703D01*
X64233D01*
X63012Y60450D02*
Y60610D01*
X63172D01*
Y60450D01*
X63012D01*
X63052Y60490D02*
Y60570D01*
X63132D01*
Y60490D01*
X63052D01*
X62225Y62025D02*
Y62185D01*
X62385D01*
Y62025D01*
X62225D01*
X62265Y62065D02*
Y62145D01*
X62345D01*
Y62065D01*
X62265D01*
X62618Y61237D02*
Y61397D01*
X62778D01*
Y61237D01*
X62618D01*
X62658Y61277D02*
Y61357D01*
X62738D01*
Y61277D01*
X62658D01*
X62225Y60450D02*
Y60610D01*
X62385D01*
Y60450D01*
X62225D01*
X62265Y60490D02*
Y60570D01*
X62345D01*
Y60490D01*
X62265D01*
X62618Y59663D02*
Y59823D01*
X62778D01*
Y59663D01*
X62618D01*
X62658Y59703D02*
Y59783D01*
X62738D01*
Y59703D01*
X62658D01*
X62225Y58875D02*
Y59035D01*
X62385D01*
Y58875D01*
X62225D01*
X62265Y58915D02*
Y58995D01*
X62345D01*
Y58915D01*
X62265D01*
X61437Y62025D02*
Y62185D01*
X61597D01*
Y62025D01*
X61437D01*
X61477Y62065D02*
Y62145D01*
X61557D01*
Y62065D01*
X61477D01*
X61831Y61237D02*
Y61397D01*
X61991D01*
Y61237D01*
X61831D01*
X61871Y61277D02*
Y61357D01*
X61951D01*
Y61277D01*
X61871D01*
X61437Y60450D02*
Y60610D01*
X61597D01*
Y60450D01*
X61437D01*
X61477Y60490D02*
Y60570D01*
X61557D01*
Y60490D01*
X61477D01*
X61831Y59663D02*
Y59823D01*
X61991D01*
Y59663D01*
X61831D01*
X61871Y59703D02*
Y59783D01*
X61951D01*
Y59703D01*
X61871D01*
X61437Y58875D02*
Y59035D01*
X61597D01*
Y58875D01*
X61437D01*
X61477Y58915D02*
Y58995D01*
X61557D01*
Y58915D01*
X61477D01*
X61831Y58088D02*
Y58248D01*
X61991D01*
Y58088D01*
X61831D01*
X61871Y58128D02*
Y58208D01*
X61951D01*
Y58128D01*
X61871D01*
X61044Y61237D02*
Y61397D01*
X61204D01*
Y61237D01*
X61044D01*
X61084Y61277D02*
Y61357D01*
X61164D01*
Y61277D01*
X61084D01*
X61044Y59663D02*
Y59823D01*
X61204D01*
Y59663D01*
X61044D01*
X61084Y59703D02*
Y59783D01*
X61164D01*
Y59703D01*
X61084D01*
X60650Y58875D02*
Y59035D01*
X60810D01*
Y58875D01*
X60650D01*
X60690Y58915D02*
Y58995D01*
X60770D01*
Y58915D01*
X60690D01*
X61044Y58088D02*
Y58248D01*
X61204D01*
Y58088D01*
X61044D01*
X61084Y58128D02*
Y58208D01*
X61164D01*
Y58128D01*
X61084D01*
X60650Y57300D02*
Y57460D01*
X60810D01*
Y57300D01*
X60650D01*
X60690Y57340D02*
Y57420D01*
X60770D01*
Y57340D01*
X60690D01*
X59863Y58875D02*
Y59035D01*
X60023D01*
Y58875D01*
X59863D01*
X59903Y58915D02*
Y58995D01*
X59983D01*
Y58915D01*
X59903D01*
X60256Y58088D02*
Y58248D01*
X60416D01*
Y58088D01*
X60256D01*
X60296Y58128D02*
Y58208D01*
X60376D01*
Y58128D01*
X60296D01*
X59863Y57300D02*
Y57460D01*
X60023D01*
Y57300D01*
X59863D01*
X59903Y57340D02*
Y57420D01*
X59983D01*
Y57340D01*
X59903D01*
X60256Y56513D02*
Y56673D01*
X60416D01*
Y56513D01*
X60256D01*
X60296Y56553D02*
Y56633D01*
X60376D01*
Y56553D01*
X60296D01*
X59469Y58088D02*
Y58248D01*
X59629D01*
Y58088D01*
X59469D01*
X59509Y58128D02*
Y58208D01*
X59589D01*
Y58128D01*
X59509D01*
X59075Y57300D02*
Y57460D01*
X59235D01*
Y57300D01*
X59075D01*
X59115Y57340D02*
Y57420D01*
X59195D01*
Y57340D01*
X59115D01*
X59469Y56513D02*
Y56673D01*
X59629D01*
Y56513D01*
X59469D01*
X59509Y56553D02*
Y56633D01*
X59589D01*
Y56553D01*
X59509D01*
X59075Y55726D02*
Y55886D01*
X59235D01*
Y55726D01*
X59075D01*
X59115Y55766D02*
Y55846D01*
X59195D01*
Y55766D01*
X59115D01*
X58288Y57300D02*
Y57460D01*
X58448D01*
Y57300D01*
X58288D01*
X58328Y57340D02*
Y57420D01*
X58408D01*
Y57340D01*
X58328D01*
X58681Y56513D02*
Y56673D01*
X58841D01*
Y56513D01*
X58681D01*
X58721Y56553D02*
Y56633D01*
X58801D01*
Y56553D01*
X58721D01*
X58288Y55726D02*
Y55886D01*
X58448D01*
Y55726D01*
X58288D01*
X58328Y55766D02*
Y55846D01*
X58408D01*
Y55766D01*
X58328D01*
X58681Y54938D02*
Y55098D01*
X58841D01*
Y54938D01*
X58681D01*
X58721Y54978D02*
Y55058D01*
X58801D01*
Y54978D01*
X58721D01*
X57500Y57300D02*
Y57460D01*
X57660D01*
Y57300D01*
X57500D01*
X57540Y57340D02*
Y57420D01*
X57620D01*
Y57340D01*
X57540D01*
X57894Y56513D02*
Y56673D01*
X58054D01*
Y56513D01*
X57894D01*
X57934Y56553D02*
Y56633D01*
X58014D01*
Y56553D01*
X57934D01*
X57500Y55726D02*
Y55886D01*
X57660D01*
Y55726D01*
X57500D01*
X57540Y55766D02*
Y55846D01*
X57620D01*
Y55766D01*
X57540D01*
X57894Y54938D02*
Y55098D01*
X58054D01*
Y54938D01*
X57894D01*
X57934Y54978D02*
Y55058D01*
X58014D01*
Y54978D01*
X57934D01*
X56713Y57300D02*
Y57460D01*
X56873D01*
Y57300D01*
X56713D01*
X56753Y57340D02*
Y57420D01*
X56833D01*
Y57340D01*
X56753D01*
X57107Y56513D02*
Y56673D01*
X57267D01*
Y56513D01*
X57107D01*
X57147Y56553D02*
Y56633D01*
X57227D01*
Y56553D01*
X57147D01*
X56713Y55726D02*
Y55886D01*
X56873D01*
Y55726D01*
X56713D01*
X56753Y55766D02*
Y55846D01*
X56833D01*
Y55766D01*
X56753D01*
X57107Y54938D02*
Y55098D01*
X57267D01*
Y54938D01*
X57107D01*
X57147Y54978D02*
Y55058D01*
X57227D01*
Y54978D01*
X57147D01*
X55926Y57300D02*
Y57460D01*
X56086D01*
Y57300D01*
X55926D01*
X55966Y57340D02*
Y57420D01*
X56046D01*
Y57340D01*
X55966D01*
X56319Y56513D02*
Y56673D01*
X56479D01*
Y56513D01*
X56319D01*
X56359Y56553D02*
Y56633D01*
X56439D01*
Y56553D01*
X56359D01*
X55926Y55726D02*
Y55886D01*
X56086D01*
Y55726D01*
X55926D01*
X55966Y55766D02*
Y55846D01*
X56046D01*
Y55766D01*
X55966D01*
X56319Y54938D02*
Y55098D01*
X56479D01*
Y54938D01*
X56319D01*
X56359Y54978D02*
Y55058D01*
X56439D01*
Y54978D01*
X56359D01*
X55138Y57300D02*
Y57460D01*
X55298D01*
Y57300D01*
X55138D01*
X55178Y57340D02*
Y57420D01*
X55258D01*
Y57340D01*
X55178D01*
X55532Y56513D02*
Y56673D01*
X55692D01*
Y56513D01*
X55532D01*
X55572Y56553D02*
Y56633D01*
X55652D01*
Y56553D01*
X55572D01*
X55138Y55726D02*
Y55886D01*
X55298D01*
Y55726D01*
X55138D01*
X55178Y55766D02*
Y55846D01*
X55258D01*
Y55766D01*
X55178D01*
X55532Y54938D02*
Y55098D01*
X55692D01*
Y54938D01*
X55532D01*
X55572Y54978D02*
Y55058D01*
X55652D01*
Y54978D01*
X55572D01*
X54351Y57300D02*
Y57460D01*
X54511D01*
Y57300D01*
X54351D01*
X54391Y57340D02*
Y57420D01*
X54471D01*
Y57340D01*
X54391D01*
X54744Y56513D02*
Y56673D01*
X54904D01*
Y56513D01*
X54744D01*
X54784Y56553D02*
Y56633D01*
X54864D01*
Y56553D01*
X54784D01*
X54351Y55726D02*
Y55886D01*
X54511D01*
Y55726D01*
X54351D01*
X54391Y55766D02*
Y55846D01*
X54471D01*
Y55766D01*
X54391D01*
X54744Y54938D02*
Y55098D01*
X54904D01*
Y54938D01*
X54744D01*
X54784Y54978D02*
Y55058D01*
X54864D01*
Y54978D01*
X54784D01*
X53563Y57300D02*
Y57460D01*
X53723D01*
Y57300D01*
X53563D01*
X53603Y57340D02*
Y57420D01*
X53683D01*
Y57340D01*
X53603D01*
X53957Y56513D02*
Y56673D01*
X54117D01*
Y56513D01*
X53957D01*
X53997Y56553D02*
Y56633D01*
X54077D01*
Y56553D01*
X53997D01*
X53563Y55726D02*
Y55886D01*
X53723D01*
Y55726D01*
X53563D01*
X53603Y55766D02*
Y55846D01*
X53683D01*
Y55766D01*
X53603D01*
X53957Y54938D02*
Y55098D01*
X54117D01*
Y54938D01*
X53957D01*
X53997Y54978D02*
Y55058D01*
X54077D01*
Y54978D01*
X53997D01*
X51201Y57300D02*
Y57460D01*
X51361D01*
Y57300D01*
X51201D01*
X51241Y57340D02*
Y57420D01*
X51321D01*
Y57340D01*
X51241D01*
X47269Y76593D02*
Y76753D01*
X47429D01*
Y76593D01*
X47269D01*
X47309Y76633D02*
Y76713D01*
X47389D01*
Y76633D01*
X47309D01*
X48254Y74625D02*
Y74785D01*
X48414D01*
Y74625D01*
X48254D01*
X48294Y74665D02*
Y74745D01*
X48374D01*
Y74665D01*
X48294D01*
X47269Y72656D02*
Y72816D01*
X47429D01*
Y72656D01*
X47269D01*
X47309Y72696D02*
Y72776D01*
X47389D01*
Y72696D01*
X47309D01*
X48254Y70688D02*
Y70848D01*
X48414D01*
Y70688D01*
X48254D01*
X48294Y70728D02*
Y70808D01*
X48374D01*
Y70728D01*
X48294D01*
X48254Y66751D02*
Y66911D01*
X48414D01*
Y66751D01*
X48254D01*
X48294Y66791D02*
Y66871D01*
X48374D01*
Y66791D01*
X48294D01*
X48254Y54940D02*
Y55100D01*
X48414D01*
Y54940D01*
X48254D01*
X48294Y54980D02*
Y55060D01*
X48374D01*
Y54980D01*
X48294D01*
X47269Y52971D02*
Y53131D01*
X47429D01*
Y52971D01*
X47269D01*
X47309Y53011D02*
Y53091D01*
X47389D01*
Y53011D01*
X47309D01*
X48254Y51003D02*
Y51163D01*
X48414D01*
Y51003D01*
X48254D01*
X48294Y51043D02*
Y51123D01*
X48374D01*
Y51043D01*
X48294D01*
X45301Y76593D02*
Y76753D01*
X45461D01*
Y76593D01*
X45301D01*
X45341Y76633D02*
Y76713D01*
X45421D01*
Y76633D01*
X45341D01*
X46285Y74625D02*
Y74785D01*
X46445D01*
Y74625D01*
X46285D01*
X46325Y74665D02*
Y74745D01*
X46405D01*
Y74665D01*
X46325D01*
X45301Y72656D02*
Y72816D01*
X45461D01*
Y72656D01*
X45301D01*
X45341Y72696D02*
Y72776D01*
X45421D01*
Y72696D01*
X45341D01*
X46285Y70688D02*
Y70848D01*
X46445D01*
Y70688D01*
X46285D01*
X46325Y70728D02*
Y70808D01*
X46405D01*
Y70728D01*
X46325D01*
X46285Y66751D02*
Y66911D01*
X46445D01*
Y66751D01*
X46285D01*
X46325Y66791D02*
Y66871D01*
X46405D01*
Y66791D01*
X46325D01*
X45301Y64782D02*
Y64942D01*
X45461D01*
Y64782D01*
X45301D01*
X45341Y64822D02*
Y64902D01*
X45421D01*
Y64822D01*
X45341D01*
X46285Y58877D02*
Y59037D01*
X46445D01*
Y58877D01*
X46285D01*
X46325Y58917D02*
Y58997D01*
X46405D01*
Y58917D01*
X46325D01*
X46285Y54940D02*
Y55100D01*
X46445D01*
Y54940D01*
X46285D01*
X46325Y54980D02*
Y55060D01*
X46405D01*
Y54980D01*
X46325D01*
X45301Y52971D02*
Y53131D01*
X45461D01*
Y52971D01*
X45301D01*
X45341Y53011D02*
Y53091D01*
X45421D01*
Y53011D01*
X45341D01*
X46285Y51003D02*
Y51163D01*
X46445D01*
Y51003D01*
X46285D01*
X46325Y51043D02*
Y51123D01*
X46405D01*
Y51043D01*
X46325D01*
X43332Y76593D02*
Y76753D01*
X43492D01*
Y76593D01*
X43332D01*
X43372Y76633D02*
Y76713D01*
X43452D01*
Y76633D01*
X43372D01*
X44317Y74625D02*
Y74785D01*
X44477D01*
Y74625D01*
X44317D01*
X44357Y74665D02*
Y74745D01*
X44437D01*
Y74665D01*
X44357D01*
X44317Y70688D02*
Y70848D01*
X44477D01*
Y70688D01*
X44317D01*
X44357Y70728D02*
Y70808D01*
X44437D01*
Y70728D01*
X44357D01*
X44317Y54940D02*
Y55100D01*
X44477D01*
Y54940D01*
X44317D01*
X44357Y54980D02*
Y55060D01*
X44437D01*
Y54980D01*
X44357D01*
X44317Y51003D02*
Y51163D01*
X44477D01*
Y51003D01*
X44317D01*
X44357Y51043D02*
Y51123D01*
X44437D01*
Y51043D01*
X44357D01*
X43332Y49034D02*
Y49194D01*
X43492D01*
Y49034D01*
X43332D01*
X43372Y49074D02*
Y49154D01*
X43452D01*
Y49074D01*
X43372D01*
X41364Y68719D02*
Y68879D01*
X41524D01*
Y68719D01*
X41364D01*
X41404Y68759D02*
Y68839D01*
X41484D01*
Y68759D01*
X41404D01*
X42348Y51003D02*
Y51163D01*
X42508D01*
Y51003D01*
X42348D01*
X42388Y51043D02*
Y51123D01*
X42468D01*
Y51043D01*
X42388D01*
X41364Y49034D02*
Y49194D01*
X41524D01*
Y49034D01*
X41364D01*
X41404Y49074D02*
Y49154D01*
X41484D01*
Y49074D01*
X41404D01*
X38411Y70688D02*
Y70848D01*
X38571D01*
Y70688D01*
X38411D01*
X38451Y70728D02*
Y70808D01*
X38531D01*
Y70728D01*
X38451D01*
X37427Y56908D02*
Y57068D01*
X37587D01*
Y56908D01*
X37427D01*
X37467Y56948D02*
Y57028D01*
X37547D01*
Y56948D01*
X37467D01*
X35458Y76593D02*
Y76753D01*
X35618D01*
Y76593D01*
X35458D01*
X35498Y76633D02*
Y76713D01*
X35578D01*
Y76633D01*
X35498D01*
X35458Y52971D02*
Y53131D01*
X35618D01*
Y52971D01*
X35458D01*
X35498Y53011D02*
Y53091D01*
X35578D01*
Y53011D01*
X35498D01*
X33490Y52971D02*
Y53131D01*
X33650D01*
Y52971D01*
X33490D01*
X33530Y53011D02*
Y53091D01*
X33610D01*
Y53011D01*
X33530D01*
X31521Y52971D02*
Y53131D01*
X31681D01*
Y52971D01*
X31521D01*
X31561Y53011D02*
Y53091D01*
X31641D01*
Y53011D01*
X31561D01*
X31521Y49034D02*
Y49194D01*
X31681D01*
Y49034D01*
X31521D01*
X31561Y49074D02*
Y49154D01*
X31641D01*
Y49074D01*
X31561D01*
X29553Y64782D02*
Y64942D01*
X29713D01*
Y64782D01*
X29553D01*
X29593Y64822D02*
Y64902D01*
X29673D01*
Y64822D01*
X29593D01*
X29553Y60845D02*
Y61005D01*
X29713D01*
Y60845D01*
X29553D01*
X29593Y60885D02*
Y60965D01*
X29673D01*
Y60885D01*
X29593D01*
X29553Y52971D02*
Y53131D01*
X29713D01*
Y52971D01*
X29553D01*
X29593Y53011D02*
Y53091D01*
X29673D01*
Y53011D01*
X29593D01*
X27584Y72656D02*
Y72816D01*
X27744D01*
Y72656D01*
X27584D01*
X27624Y72696D02*
Y72776D01*
X27704D01*
Y72696D01*
X27624D01*
X28569Y66751D02*
Y66911D01*
X28729D01*
Y66751D01*
X28569D01*
X28609Y66791D02*
Y66871D01*
X28689D01*
Y66791D01*
X28609D01*
X27584Y64782D02*
Y64942D01*
X27744D01*
Y64782D01*
X27584D01*
X27624Y64822D02*
Y64902D01*
X27704D01*
Y64822D01*
X27624D01*
X27584Y60845D02*
Y61005D01*
X27744D01*
Y60845D01*
X27584D01*
X27624Y60885D02*
Y60965D01*
X27704D01*
Y60885D01*
X27624D01*
X25616Y72656D02*
Y72816D01*
X25776D01*
Y72656D01*
X25616D01*
X25656Y72696D02*
Y72776D01*
X25736D01*
Y72696D01*
X25656D01*
X26600Y66751D02*
Y66911D01*
X26760D01*
Y66751D01*
X26600D01*
X26640Y66791D02*
Y66871D01*
X26720D01*
Y66791D01*
X26640D01*
X25616Y64782D02*
Y64942D01*
X25776D01*
Y64782D01*
X25616D01*
X25656Y64822D02*
Y64902D01*
X25736D01*
Y64822D01*
X25656D01*
X26600Y62814D02*
Y62974D01*
X26760D01*
Y62814D01*
X26600D01*
X26640Y62854D02*
Y62934D01*
X26720D01*
Y62854D01*
X26640D01*
X25616Y60845D02*
Y61005D01*
X25776D01*
Y60845D01*
X25616D01*
X25656Y60885D02*
Y60965D01*
X25736D01*
Y60885D01*
X25656D01*
X23647Y72656D02*
Y72816D01*
X23807D01*
Y72656D01*
X23647D01*
X23687Y72696D02*
Y72776D01*
X23767D01*
Y72696D01*
X23687D01*
X24632Y66751D02*
Y66911D01*
X24792D01*
Y66751D01*
X24632D01*
X24672Y66791D02*
Y66871D01*
X24752D01*
Y66791D01*
X24672D01*
X23647Y64782D02*
Y64942D01*
X23807D01*
Y64782D01*
X23647D01*
X23687Y64822D02*
Y64902D01*
X23767D01*
Y64822D01*
X23687D01*
X24632Y62814D02*
Y62974D01*
X24792D01*
Y62814D01*
X24632D01*
X24672Y62854D02*
Y62934D01*
X24752D01*
Y62854D01*
X24672D01*
X23647Y60845D02*
Y61005D01*
X23807D01*
Y60845D01*
X23647D01*
X23687Y60885D02*
Y60965D01*
X23767D01*
Y60885D01*
X23687D01*
X24632Y58877D02*
Y59037D01*
X24792D01*
Y58877D01*
X24632D01*
X24672Y58917D02*
Y58997D01*
X24752D01*
Y58917D01*
X24672D01*
X24632Y51003D02*
Y51163D01*
X24792D01*
Y51003D01*
X24632D01*
X24672Y51043D02*
Y51123D01*
X24752D01*
Y51043D01*
X24672D01*
X21679Y72656D02*
Y72816D01*
X21839D01*
Y72656D01*
X21679D01*
X21719Y72696D02*
Y72776D01*
X21799D01*
Y72696D01*
X21719D01*
X21679Y68719D02*
Y68879D01*
X21839D01*
Y68719D01*
X21679D01*
X21719Y68759D02*
Y68839D01*
X21799D01*
Y68759D01*
X21719D01*
X21679Y64782D02*
Y64942D01*
X21839D01*
Y64782D01*
X21679D01*
X21719Y64822D02*
Y64902D01*
X21799D01*
Y64822D01*
X21719D01*
X22663Y62814D02*
Y62974D01*
X22823D01*
Y62814D01*
X22663D01*
X22703Y62854D02*
Y62934D01*
X22783D01*
Y62854D01*
X22703D01*
X21679Y60845D02*
Y61005D01*
X21839D01*
Y60845D01*
X21679D01*
X21719Y60885D02*
Y60965D01*
X21799D01*
Y60885D01*
X21719D01*
X22663Y58877D02*
Y59037D01*
X22823D01*
Y58877D01*
X22663D01*
X22703Y58917D02*
Y58997D01*
X22783D01*
Y58917D01*
X22703D01*
X21679Y52971D02*
Y53131D01*
X21839D01*
Y52971D01*
X21679D01*
X21719Y53011D02*
Y53091D01*
X21799D01*
Y53011D01*
X21719D01*
X21679Y49034D02*
Y49194D01*
X21839D01*
Y49034D01*
X21679D01*
X21719Y49074D02*
Y49154D01*
X21799D01*
Y49074D01*
X21719D01*
X52692Y67542D02*
Y67702D01*
X52852D01*
Y67542D01*
X52692D01*
X52732Y67582D02*
Y67662D01*
X52812D01*
Y67582D01*
X52732D01*
X53169Y48525D02*
Y48685D01*
X53329D01*
Y48525D01*
X53169D01*
X53209Y48565D02*
Y48645D01*
X53289D01*
Y48565D01*
X53209D01*
X53166Y47840D02*
Y48000D01*
X53326D01*
Y47840D01*
X53166D01*
X53206Y47880D02*
Y47960D01*
X53286D01*
Y47880D01*
X53206D01*
X52102Y68827D02*
Y68987D01*
X52262D01*
Y68827D01*
X52102D01*
X52142Y68867D02*
Y68947D01*
X52222D01*
Y68867D01*
X52142D01*
X35452Y75753D02*
Y75913D01*
X35612D01*
Y75753D01*
X35452D01*
X35491Y75793D02*
Y75873D01*
X35571D01*
Y75793D01*
X35491D01*
X36042Y74816D02*
Y74976D01*
X36202D01*
Y74816D01*
X36042D01*
X36082Y74856D02*
Y74936D01*
X36162D01*
Y74856D01*
X36082D01*
X36324Y68282D02*
Y68442D01*
X36484D01*
Y68282D01*
X36324D01*
X36364Y68322D02*
Y68402D01*
X36444D01*
Y68322D01*
X36364D01*
X36042Y70786D02*
Y70946D01*
X36202D01*
Y70786D01*
X36042D01*
X36082Y70826D02*
Y70906D01*
X36162D01*
Y70826D01*
X36082D01*
X40350Y74310D02*
Y74470D01*
X40510D01*
Y74310D01*
X40350D01*
X40390Y74350D02*
Y74430D01*
X40470D01*
Y74350D01*
X40390D01*
X35413Y75116D02*
Y75276D01*
X35573D01*
Y75116D01*
X35413D01*
X35453Y75156D02*
Y75236D01*
X35533D01*
Y75156D01*
X35453D01*
X38341Y74816D02*
Y74976D01*
X38501D01*
Y74816D01*
X38341D01*
X38381Y74856D02*
Y74936D01*
X38461D01*
Y74856D01*
X38381D01*
X40516Y73446D02*
Y73606D01*
X40676D01*
Y73446D01*
X40516D01*
X40556Y73486D02*
Y73566D01*
X40636D01*
Y73486D01*
X40556D01*
X37973Y73424D02*
Y73584D01*
X38133D01*
Y73424D01*
X37973D01*
X38013Y73464D02*
Y73544D01*
X38093D01*
Y73464D01*
X38013D01*
X38000Y76879D02*
Y77039D01*
X38160D01*
Y76879D01*
X38000D01*
X38040Y76919D02*
Y76999D01*
X38120D01*
Y76919D01*
X38040D01*
X37938Y77507D02*
Y77667D01*
X38098D01*
Y77507D01*
X37938D01*
X37978Y77547D02*
Y77627D01*
X38058D01*
Y77547D01*
X37978D01*
X40351Y76519D02*
Y76679D01*
X40511D01*
Y76519D01*
X40351D01*
X40391Y76559D02*
Y76639D01*
X40471D01*
Y76559D01*
X40391D01*
X41353Y76819D02*
Y76979D01*
X41513D01*
Y76819D01*
X41353D01*
X41393Y76859D02*
Y76939D01*
X41473D01*
Y76859D01*
X41393D01*
X39334Y77184D02*
Y77344D01*
X39494D01*
Y77184D01*
X39334D01*
X39374Y77224D02*
Y77304D01*
X39454D01*
Y77224D01*
X39374D01*
X31613Y78257D02*
Y78417D01*
X31773D01*
Y78257D01*
X31613D01*
X31653Y78297D02*
Y78377D01*
X31733D01*
Y78297D01*
X31653D01*
X31013Y78207D02*
Y78367D01*
X31173D01*
Y78207D01*
X31013D01*
X31053Y78247D02*
Y78327D01*
X31133D01*
Y78247D01*
X31053D01*
X42794Y49461D02*
Y49621D01*
X42954D01*
Y49461D01*
X42794D01*
X42834Y49501D02*
Y49581D01*
X42914D01*
Y49501D01*
X42834D01*
X41849Y73444D02*
Y73604D01*
X42009D01*
Y73444D01*
X41849D01*
X41889Y73484D02*
Y73564D01*
X41969D01*
Y73484D01*
X41889D01*
X23499Y73542D02*
Y73702D01*
X23659D01*
Y73542D01*
X23499D01*
X23539Y73582D02*
Y73662D01*
X23619D01*
Y73582D01*
X23539D01*
X42548Y68640D02*
Y68800D01*
X42708D01*
Y68640D01*
X42548D01*
X42588Y68680D02*
Y68760D01*
X42668D01*
Y68680D01*
X42588D01*
X42243Y73756D02*
Y73916D01*
X42403D01*
Y73756D01*
X42243D01*
X42283Y73796D02*
Y73876D01*
X42363D01*
Y73796D01*
X42283D01*
X21506Y74507D02*
Y74667D01*
X21666D01*
Y74507D01*
X21506D01*
X21546Y74547D02*
Y74627D01*
X21626D01*
Y74547D01*
X21546D01*
X43118Y56914D02*
Y57074D01*
X43278D01*
Y56914D01*
X43118D01*
X43158Y56954D02*
Y57034D01*
X43238D01*
Y56954D01*
X43158D01*
X41633Y56916D02*
Y57076D01*
X41793D01*
Y56916D01*
X41633D01*
X41673Y56956D02*
Y57036D01*
X41753D01*
Y56956D01*
X41673D01*
X47678Y56416D02*
Y56576D01*
X47838D01*
Y56416D01*
X47678D01*
X47718Y56456D02*
Y56536D01*
X47798D01*
Y56456D01*
X47718D01*
X47678Y57229D02*
Y57389D01*
X47838D01*
Y57229D01*
X47678D01*
X47718Y57269D02*
Y57349D01*
X47798D01*
Y57269D01*
X47718D01*
X44627Y57229D02*
Y57389D01*
X44787D01*
Y57229D01*
X44627D01*
X44667Y57269D02*
Y57349D01*
X44747D01*
Y57269D01*
X44667D01*
X32991Y55842D02*
Y56002D01*
X33151D01*
Y55842D01*
X32991D01*
X33031Y55882D02*
Y55962D01*
X33111D01*
Y55882D01*
X33031D01*
X43109Y59467D02*
Y59627D01*
X43269D01*
Y59467D01*
X43109D01*
X43149Y59507D02*
Y59587D01*
X43229D01*
Y59507D01*
X43149D01*
X41633Y59467D02*
Y59627D01*
X41793D01*
Y59467D01*
X41633D01*
X41673Y59507D02*
Y59587D01*
X41753D01*
Y59507D01*
X41673D01*
X31876Y54784D02*
Y54944D01*
X32036D01*
Y54784D01*
X31876D01*
X31916Y54824D02*
Y54904D01*
X31996D01*
Y54824D01*
X31916D01*
X26511Y75511D02*
Y75671D01*
X26671D01*
Y75511D01*
X26511D01*
X26551Y75551D02*
Y75631D01*
X26631D01*
Y75551D01*
X26551D01*
X34664Y64837D02*
Y64997D01*
X34824D01*
Y64837D01*
X34664D01*
X34704Y64877D02*
Y64957D01*
X34784D01*
Y64877D01*
X34704D01*
X25511Y76692D02*
Y76852D01*
X25671D01*
Y76692D01*
X25511D01*
X25551Y76732D02*
Y76812D01*
X25631D01*
Y76732D01*
X25551D01*
X33286Y76495D02*
Y76655D01*
X33446D01*
Y76495D01*
X33286D01*
X33326Y76535D02*
Y76615D01*
X33406D01*
Y76535D01*
X33326D01*
X33286Y64837D02*
Y64997D01*
X33446D01*
Y64837D01*
X33286D01*
X33326Y64877D02*
Y64957D01*
X33406D01*
Y64877D01*
X33326D01*
X26511Y69295D02*
Y69455D01*
X26671D01*
Y69295D01*
X26511D01*
X26551Y69335D02*
Y69415D01*
X26631D01*
Y69335D01*
X26551D01*
X35845Y68589D02*
Y68749D01*
X36005D01*
Y68589D01*
X35845D01*
X35885Y68629D02*
Y68709D01*
X35965D01*
Y68629D01*
X35885D01*
X35452Y68589D02*
Y68749D01*
X35612D01*
Y68589D01*
X35452D01*
X35491Y68629D02*
Y68709D01*
X35571D01*
Y68629D01*
X35491D01*
X27511Y68589D02*
Y68749D01*
X27671D01*
Y68589D01*
X27511D01*
X27551Y68629D02*
Y68709D01*
X27631D01*
Y68629D01*
X27551D01*
X38601Y63446D02*
Y63606D01*
X38761D01*
Y63446D01*
X38601D01*
X38641Y63486D02*
Y63566D01*
X38721D01*
Y63486D01*
X38641D01*
X36738Y63466D02*
Y63626D01*
X36898D01*
Y63466D01*
X36738D01*
X36778Y63506D02*
Y63586D01*
X36858D01*
Y63506D01*
X36778D01*
X22514Y65668D02*
Y65828D01*
X22674D01*
Y65668D01*
X22514D01*
X22554Y65708D02*
Y65788D01*
X22634D01*
Y65708D01*
X22554D01*
X28549Y65518D02*
Y65678D01*
X28709D01*
Y65518D01*
X28549D01*
X28589Y65558D02*
Y65638D01*
X28669D01*
Y65558D01*
X28589D01*
X28896Y57852D02*
Y58012D01*
X29056D01*
Y57852D01*
X28896D01*
X28936Y57892D02*
Y57972D01*
X29016D01*
Y57892D01*
X28936D01*
X31971Y57747D02*
Y57907D01*
X32131D01*
Y57747D01*
X31971D01*
X32011Y57787D02*
Y57867D01*
X32091D01*
Y57787D01*
X32011D01*
X32597Y49428D02*
Y49588D01*
X32757D01*
Y49428D01*
X32597D01*
X32637Y49468D02*
Y49548D01*
X32717D01*
Y49468D01*
X32637D01*
X31884Y58954D02*
Y59114D01*
X32044D01*
Y58954D01*
X31884D01*
X31924Y58994D02*
Y59074D01*
X32004D01*
Y58994D01*
X31924D01*
X31568Y58152D02*
Y58312D01*
X31728D01*
Y58152D01*
X31568D01*
X31608Y58192D02*
Y58272D01*
X31688D01*
Y58192D01*
X31608D01*
X32429Y60655D02*
Y60815D01*
X32589D01*
Y60655D01*
X32429D01*
X32469Y60695D02*
Y60775D01*
X32549D01*
Y60695D01*
X32469D01*
X33807Y60652D02*
Y60812D01*
X33967D01*
Y60652D01*
X33807D01*
X33847Y60692D02*
Y60772D01*
X33927D01*
Y60692D01*
X33847D01*
X33688Y58283D02*
Y58443D01*
X33848D01*
Y58283D01*
X33688D01*
X33728Y58323D02*
Y58403D01*
X33808D01*
Y58323D01*
X33728D01*
X32207Y58291D02*
Y58451D01*
X32367D01*
Y58291D01*
X32207D01*
X32247Y58331D02*
Y58411D01*
X32327D01*
Y58331D01*
X32247D01*
X32991Y48148D02*
Y48308D01*
X33151D01*
Y48148D01*
X32991D01*
X33031Y48188D02*
Y48268D01*
X33111D01*
Y48188D01*
X33031D01*
X40570Y50904D02*
Y51064D01*
X40730D01*
Y50904D01*
X40570D01*
X40610Y50944D02*
Y51024D01*
X40690D01*
Y50944D01*
X40610D01*
X34999Y49148D02*
Y49308D01*
X35159D01*
Y49148D01*
X34999D01*
X35039Y49188D02*
Y49268D01*
X35119D01*
Y49188D01*
X35039D01*
X40570Y52002D02*
Y52162D01*
X40730D01*
Y52002D01*
X40570D01*
X40610Y52042D02*
Y52122D01*
X40690D01*
Y52042D01*
X40610D01*
X34999Y49648D02*
Y49808D01*
X35159D01*
Y49648D01*
X34999D01*
X35039Y49688D02*
Y49768D01*
X35119D01*
Y49688D01*
X35039D01*
X23610Y67538D02*
Y67698D01*
X23770D01*
Y67538D01*
X23610D01*
X23650Y67578D02*
Y67658D01*
X23730D01*
Y67578D01*
X23650D01*
X39881Y61239D02*
Y61399D01*
X40041D01*
Y61239D01*
X39881D01*
X39921Y61279D02*
Y61359D01*
X40001D01*
Y61279D01*
X39921D01*
X38227Y58608D02*
Y58768D01*
X38387D01*
Y58608D01*
X38227D01*
X38267Y58648D02*
Y58728D01*
X38347D01*
Y58648D01*
X38267D01*
X31416Y71711D02*
Y71871D01*
X31576D01*
Y71711D01*
X31416D01*
X31456Y71751D02*
Y71831D01*
X31536D01*
Y71751D01*
X31456D01*
X31416Y69802D02*
Y69962D01*
X31576D01*
Y69802D01*
X31416D01*
X31456Y69842D02*
Y69922D01*
X31536D01*
Y69842D01*
X31456D01*
X37223Y61239D02*
Y61399D01*
X37383D01*
Y61239D01*
X37223D01*
X37263Y61279D02*
Y61359D01*
X37343D01*
Y61279D01*
X37263D01*
X38227Y55071D02*
Y55231D01*
X38387D01*
Y55071D01*
X38227D01*
X38267Y55111D02*
Y55191D01*
X38347D01*
Y55111D01*
X38267D01*
X35594Y55071D02*
Y55231D01*
X35754D01*
Y55071D01*
X35594D01*
X35634Y55111D02*
Y55191D01*
X35714D01*
Y55111D01*
X35634D01*
X35594Y58588D02*
Y58748D01*
X35754D01*
Y58588D01*
X35594D01*
X35634Y58628D02*
Y58708D01*
X35714D01*
Y58628D01*
X35634D01*
X31219Y64385D02*
Y64545D01*
X31379D01*
Y64385D01*
X31219D01*
X31259Y64425D02*
Y64505D01*
X31339D01*
Y64425D01*
X31259D01*
X25506Y52597D02*
Y52757D01*
X25666D01*
Y52597D01*
X25506D01*
X25546Y52637D02*
Y52717D01*
X25626D01*
Y52637D01*
X25546D01*
X29054Y53593D02*
Y53753D01*
X29214D01*
Y53593D01*
X29054D01*
X29094Y53633D02*
Y53713D01*
X29174D01*
Y53633D01*
X29094D01*
X25117Y52624D02*
Y52784D01*
X25277D01*
Y52624D01*
X25117D01*
X25157Y52664D02*
Y52744D01*
X25237D01*
Y52664D01*
X25157D01*
X28663Y53653D02*
Y53813D01*
X28823D01*
Y53653D01*
X28663D01*
X28703Y53693D02*
Y53773D01*
X28783D01*
Y53693D01*
X28703D01*
X32149Y65780D02*
Y65940D01*
X32309D01*
Y65780D01*
X32149D01*
X32189Y65820D02*
Y65900D01*
X32269D01*
Y65820D01*
X32189D01*
X31810Y65865D02*
Y66025D01*
X31970D01*
Y65865D01*
X31810D01*
X31850Y65905D02*
Y65985D01*
X31930D01*
Y65905D01*
X31850D01*
M02*
