G04*
G04 #@! TF.GenerationSoftware,Altium Limited,Altium Designer,25.8.1 (18)*
G04*
G04 Layer_Physical_Order=2*
G04 Layer_Color=16711680*
%FSLAX24Y24*%
%MOIN*%
G70*
G04*
G04 #@! TF.SameCoordinates,CAC9E776-8FA5-4F56-8978-DDDC26C1521C*
G04*
G04*
G04 #@! TF.FilePolarity,Positive*
G04*
G01*
G75*
%ADD91C,0.0150*%
%ADD94C,0.0350*%
%ADD96O,0.1500X0.1250*%
%ADD97C,0.0620*%
%ADD98R,0.0620X0.0620*%
%ADD99R,0.0591X0.0591*%
%ADD101R,0.0598X0.0598*%
%ADD102C,0.0598*%
%ADD103C,0.1181*%
%ADD104C,0.0315*%
%ADD105O,0.1772X0.3543*%
%ADD106C,0.0591*%
%ADD107C,0.0250*%
%ADD108O,0.0600X0.0750*%
%ADD109O,0.0750X0.0600*%
G36*
X66769Y74213D02*
X51378D01*
X50984Y74606D01*
Y78543D01*
X51808Y79367D01*
X66769D01*
Y74213D01*
D02*
G37*
G36*
X52917Y73819D02*
X55906D01*
X56496Y73228D01*
Y70472D01*
X55906Y69882D01*
X51575D01*
X50984Y70472D01*
Y73425D01*
X51378Y73819D01*
X51610D01*
X51610Y73819D01*
X52917D01*
X52917Y73819D01*
D02*
G37*
G36*
X66769Y68898D02*
X57480D01*
X56890Y69488D01*
Y73425D01*
X57283Y73819D01*
X66769D01*
Y68898D01*
D02*
G37*
G36*
Y58071D02*
X62402D01*
X58268Y53937D01*
X51378D01*
X50984Y54331D01*
Y54886D01*
X50984Y54886D01*
X50984Y55709D01*
Y56496D01*
D01*
Y57283D01*
X51968Y58268D01*
X58661D01*
X60630Y60236D01*
Y62008D01*
X61417Y62795D01*
X66769D01*
Y58071D01*
D02*
G37*
G36*
Y52362D02*
X62402D01*
X62008Y51968D01*
Y50000D01*
X61614Y49606D01*
X57277D01*
X56890Y49994D01*
Y52953D01*
Y53150D01*
X57345Y53605D01*
X58527D01*
X62598Y57677D01*
X66769D01*
Y52362D01*
D02*
G37*
G36*
X52819Y53543D02*
X56102D01*
X56496Y53150D01*
Y50000D01*
X56102Y49606D01*
X51575D01*
X50984Y50197D01*
Y50984D01*
Y51772D01*
D01*
X50984Y52594D01*
X50984Y52594D01*
Y53150D01*
X51378Y53543D01*
X51512D01*
X51512Y53543D01*
X52819D01*
X52819Y53543D01*
D02*
G37*
G36*
X49695Y79025D02*
Y78682D01*
Y78209D01*
Y77740D01*
Y77288D01*
Y76791D01*
Y76293D01*
Y75801D01*
Y75368D01*
Y74885D01*
Y74437D01*
Y73964D01*
Y73499D01*
Y73021D01*
Y72697D01*
Y71982D01*
Y71683D01*
Y71143D01*
Y70641D01*
Y70073D01*
Y69726D01*
Y69247D01*
Y68809D01*
Y68317D01*
Y67829D01*
Y67618D01*
Y67122D01*
Y66652D01*
Y66170D01*
Y65703D01*
Y65214D01*
Y64801D01*
Y64336D01*
Y63954D01*
Y63756D01*
Y63418D01*
X49695Y62954D01*
Y62626D01*
Y62260D01*
Y61626D01*
Y61346D01*
Y60922D01*
Y60630D01*
Y60166D01*
Y59792D01*
Y59403D01*
Y58906D01*
Y58467D01*
Y58042D01*
Y57534D01*
Y57041D01*
Y56580D01*
Y56050D01*
Y55527D01*
Y55181D01*
Y54809D01*
Y54346D01*
Y54101D01*
Y53627D01*
Y53141D01*
Y52632D01*
Y52209D01*
Y51739D01*
Y51265D01*
Y50808D01*
Y50408D01*
Y49953D01*
Y49550D01*
Y49068D01*
Y48356D01*
Y48038D01*
Y47405D01*
X19846D01*
Y79367D01*
X49695D01*
Y79025D01*
D02*
G37*
%LPC*%
G36*
X29162Y79039D02*
X29093Y79025D01*
X29036Y78987D01*
X29036Y78987D01*
X28769Y78720D01*
X28693Y78752D01*
X28589Y78766D01*
X28484Y78752D01*
X28387Y78712D01*
X28303Y78648D01*
X28239Y78564D01*
X28199Y78467D01*
X28185Y78362D01*
Y78212D01*
X28199Y78108D01*
X28239Y78011D01*
X28303Y77927D01*
X28387Y77863D01*
X28484Y77823D01*
X28589Y77809D01*
X28693Y77823D01*
X28790Y77863D01*
X28874Y77927D01*
X28938Y78011D01*
X28978Y78108D01*
X28992Y78212D01*
Y78362D01*
X28983Y78430D01*
X29224Y78671D01*
X29259Y78667D01*
X29279Y78616D01*
X29239Y78564D01*
X29199Y78467D01*
X29185Y78362D01*
Y78212D01*
X29199Y78108D01*
X29239Y78011D01*
X29303Y77927D01*
X29387Y77863D01*
X29484Y77823D01*
X29589Y77809D01*
X29693Y77823D01*
X29790Y77863D01*
X29874Y77927D01*
X29938Y78011D01*
X29978Y78108D01*
X29992Y78212D01*
Y78362D01*
X29978Y78467D01*
X29938Y78564D01*
X29886Y78632D01*
X29907Y78682D01*
X31095D01*
X31468Y78309D01*
Y78292D01*
X31487Y78245D01*
X31445Y78217D01*
X31309Y78353D01*
X31283Y78415D01*
X31220Y78478D01*
X31137Y78512D01*
X31048D01*
X30965Y78478D01*
X30902Y78415D01*
X30868Y78332D01*
Y78243D01*
X30902Y78160D01*
X30965Y78097D01*
X31048Y78062D01*
X31095D01*
X31318Y77840D01*
Y77682D01*
X31268Y77659D01*
X31199Y77687D01*
X31110D01*
X31027Y77653D01*
X31015Y77640D01*
X29930D01*
X29882Y77688D01*
X29824Y77726D01*
X29756Y77740D01*
X28388D01*
X27983Y78145D01*
X27992Y78212D01*
Y78362D01*
X27978Y78467D01*
X27938Y78564D01*
X27874Y78648D01*
X27790Y78712D01*
X27693Y78752D01*
X27589Y78766D01*
X27484Y78752D01*
X27387Y78712D01*
X27303Y78648D01*
X27239Y78564D01*
X27199Y78467D01*
X27185Y78362D01*
Y78212D01*
X27199Y78108D01*
X27239Y78011D01*
X27303Y77927D01*
X27387Y77863D01*
X27484Y77823D01*
X27589Y77809D01*
X27693Y77823D01*
X27769Y77854D01*
X28188Y77435D01*
X28246Y77397D01*
X28314Y77383D01*
X28314Y77383D01*
X29070D01*
X29094Y77333D01*
X29060Y77288D01*
X29020Y77191D01*
X29006Y77087D01*
X29020Y76982D01*
X29060Y76885D01*
X29124Y76801D01*
X29208Y76737D01*
X29305Y76697D01*
X29409Y76683D01*
X29559D01*
X29664Y76697D01*
X29761Y76737D01*
X29845Y76801D01*
X29909Y76885D01*
X29949Y76982D01*
X29963Y77087D01*
X29949Y77191D01*
X29928Y77242D01*
X29956Y77283D01*
X31015D01*
X31027Y77271D01*
X31110Y77237D01*
X31199D01*
X31268Y77265D01*
X31318Y77241D01*
Y71931D01*
X31305Y71919D01*
X31271Y71836D01*
Y71747D01*
X31305Y71664D01*
X31369Y71601D01*
X31451Y71566D01*
X31541D01*
X31624Y71601D01*
X31687Y71664D01*
X31721Y71747D01*
Y71836D01*
X31687Y71919D01*
X31674Y71931D01*
Y77913D01*
X31661Y77982D01*
X31622Y78040D01*
X31622Y78040D01*
X31573Y78088D01*
X31602Y78131D01*
X31648Y78112D01*
X31738D01*
X31820Y78146D01*
X31884Y78209D01*
X31918Y78292D01*
Y78381D01*
X31884Y78464D01*
X31820Y78527D01*
X31738Y78562D01*
X31720D01*
X31295Y78987D01*
X31237Y79025D01*
X31169Y79039D01*
X29162D01*
X29162Y79039D01*
D02*
G37*
G36*
X37483Y78801D02*
Y78379D01*
X37836D01*
Y78404D01*
X37822Y78509D01*
X37782Y78606D01*
X37718Y78689D01*
X37634Y78753D01*
X37537Y78794D01*
X37483Y78801D01*
D02*
G37*
G36*
X37383Y78801D02*
X37328Y78794D01*
X37231Y78753D01*
X37147Y78689D01*
X37083Y78606D01*
X37043Y78509D01*
X37029Y78404D01*
Y78379D01*
X37383D01*
Y78801D01*
D02*
G37*
G36*
X37836Y78279D02*
X37483D01*
Y77857D01*
X37537Y77864D01*
X37634Y77905D01*
X37718Y77969D01*
X37782Y78052D01*
X37822Y78150D01*
X37836Y78254D01*
Y78279D01*
D02*
G37*
G36*
X37383D02*
X37029D01*
Y78254D01*
X37043Y78150D01*
X37083Y78052D01*
X37147Y77969D01*
X37231Y77905D01*
X37328Y77864D01*
X37383Y77857D01*
Y78279D01*
D02*
G37*
G36*
X36433Y78808D02*
X36328Y78794D01*
X36231Y78753D01*
X36147Y78689D01*
X36083Y78606D01*
X36043Y78509D01*
X36029Y78404D01*
Y78254D01*
X36043Y78150D01*
X36083Y78052D01*
X36147Y77969D01*
X36231Y77905D01*
X36328Y77864D01*
X36433Y77851D01*
X36537Y77864D01*
X36634Y77905D01*
X36718Y77969D01*
X36782Y78052D01*
X36822Y78150D01*
X36836Y78254D01*
Y78404D01*
X36822Y78509D01*
X36782Y78606D01*
X36718Y78689D01*
X36634Y78753D01*
X36537Y78794D01*
X36433Y78808D01*
D02*
G37*
G36*
X35433D02*
X35328Y78794D01*
X35231Y78753D01*
X35147Y78689D01*
X35083Y78606D01*
X35043Y78509D01*
X35029Y78404D01*
Y78254D01*
X35043Y78150D01*
X35058Y78114D01*
X35012Y78067D01*
X34973Y78010D01*
X34959Y77941D01*
Y76989D01*
X34909Y76979D01*
X34890Y77027D01*
X34826Y77090D01*
X34744Y77124D01*
X34654D01*
X34571Y77090D01*
X34508Y77027D01*
X34474Y76944D01*
Y76854D01*
X34508Y76772D01*
X34520Y76759D01*
Y76691D01*
X34474Y76672D01*
X34252Y76894D01*
Y77061D01*
X34264Y77073D01*
X34299Y77156D01*
Y77245D01*
X34264Y77328D01*
X34201Y77391D01*
X34118Y77425D01*
X34029D01*
X33946Y77391D01*
X33883Y77328D01*
X33849Y77245D01*
Y77156D01*
X33883Y77073D01*
X33895Y77061D01*
Y76820D01*
X33909Y76752D01*
X33886Y76696D01*
X33846Y76680D01*
X33783Y76617D01*
X33749Y76534D01*
Y76444D01*
X33783Y76362D01*
X33795Y76349D01*
Y75845D01*
X33754Y75817D01*
X33715Y75833D01*
X33625D01*
X33586Y75817D01*
X33545Y75845D01*
Y76435D01*
X33557Y76447D01*
X33591Y76530D01*
Y76620D01*
X33557Y76702D01*
X33494Y76766D01*
X33411Y76800D01*
X33321D01*
X33239Y76766D01*
X33175Y76702D01*
X33141Y76620D01*
Y76530D01*
X33175Y76447D01*
X33188Y76435D01*
Y65056D01*
X33175Y65044D01*
X33141Y64961D01*
Y64872D01*
X33175Y64789D01*
X33239Y64726D01*
X33321Y64692D01*
X33411D01*
X33494Y64726D01*
X33557Y64789D01*
X33591Y64872D01*
Y64961D01*
X33557Y65044D01*
X33545Y65056D01*
Y65798D01*
X33591Y65818D01*
X34519Y64889D01*
Y64872D01*
X34553Y64789D01*
X34617Y64726D01*
X34699Y64692D01*
X34789D01*
X34872Y64726D01*
X34935Y64789D01*
X34969Y64872D01*
Y64961D01*
X34935Y65044D01*
X34872Y65107D01*
X34789Y65142D01*
X34771D01*
X34395Y65518D01*
X34406Y65577D01*
X34439Y65591D01*
X34503Y65654D01*
X34537Y65737D01*
Y65827D01*
X34503Y65909D01*
X34439Y65973D01*
X34369Y66002D01*
X34152Y66219D01*
Y67048D01*
X34202Y67069D01*
X34969Y66302D01*
Y65675D01*
X34957Y65662D01*
X34922Y65580D01*
Y65490D01*
X34957Y65407D01*
X35020Y65344D01*
X35103Y65310D01*
X35192D01*
X35275Y65344D01*
X35338Y65407D01*
X35372Y65490D01*
Y65580D01*
X35338Y65662D01*
X35326Y65675D01*
Y66237D01*
X35372Y66257D01*
X35495Y66133D01*
Y65214D01*
X35483Y65201D01*
X35449Y65119D01*
Y65029D01*
X35483Y64947D01*
X35546Y64883D01*
X35629Y64849D01*
X35718D01*
X35801Y64883D01*
X35864Y64947D01*
X35899Y65029D01*
Y65119D01*
X35864Y65201D01*
X35852Y65214D01*
Y66065D01*
X35898Y66084D01*
X36157Y65825D01*
Y64896D01*
X36145Y64884D01*
X36110Y64801D01*
Y64711D01*
X36145Y64629D01*
X36208Y64565D01*
X36291Y64531D01*
X36380D01*
X36463Y64565D01*
X36526Y64629D01*
X36560Y64711D01*
Y64801D01*
X36526Y64884D01*
X36514Y64896D01*
Y65899D01*
X36514Y65899D01*
X36500Y65967D01*
X36462Y66025D01*
X36462Y66025D01*
X35021Y67466D01*
Y75350D01*
X35067Y75369D01*
X35268Y75169D01*
Y75151D01*
X35302Y75069D01*
X35365Y75005D01*
X35448Y74971D01*
X35537D01*
X35620Y75005D01*
X35683Y75069D01*
X35718Y75151D01*
Y75241D01*
X35683Y75324D01*
X35620Y75387D01*
X35537Y75421D01*
X35520D01*
X35328Y75613D01*
X35332Y75643D01*
X35385Y75661D01*
X35404Y75642D01*
X35487Y75608D01*
X35504D01*
X35944Y75168D01*
Y75035D01*
X35931Y75023D01*
X35897Y74940D01*
Y74851D01*
X35931Y74768D01*
X35944Y74756D01*
Y71006D01*
X35931Y70994D01*
X35897Y70911D01*
Y70821D01*
X35931Y70739D01*
X35995Y70675D01*
X36077Y70641D01*
X36095D01*
X36226Y70510D01*
Y68502D01*
X36214Y68489D01*
X36179Y68407D01*
Y68317D01*
X36214Y68235D01*
X36277Y68171D01*
X36360Y68137D01*
X36449D01*
X36532Y68171D01*
X36595Y68235D01*
X36629Y68317D01*
Y68407D01*
X36595Y68489D01*
X36583Y68502D01*
Y70584D01*
X36583Y70584D01*
X36569Y70652D01*
X36530Y70710D01*
X36530Y70710D01*
X36347Y70893D01*
Y70911D01*
X36313Y70994D01*
X36300Y71006D01*
Y74756D01*
X36313Y74768D01*
X36347Y74851D01*
Y74940D01*
X36313Y75023D01*
X36300Y75035D01*
Y75242D01*
X36287Y75310D01*
X36248Y75368D01*
X36248Y75368D01*
X35756Y75860D01*
Y75877D01*
X35722Y75960D01*
X35659Y76023D01*
X35576Y76058D01*
X35487D01*
X35404Y76023D01*
X35366Y75986D01*
X35316Y76006D01*
Y77818D01*
X35366Y77859D01*
X35433Y77851D01*
X35537Y77864D01*
X35634Y77905D01*
X35718Y77969D01*
X35782Y78052D01*
X35822Y78150D01*
X35836Y78254D01*
Y78404D01*
X35822Y78509D01*
X35782Y78606D01*
X35718Y78689D01*
X35634Y78753D01*
X35537Y78794D01*
X35433Y78808D01*
D02*
G37*
G36*
X24589Y78766D02*
X24484Y78752D01*
X24387Y78712D01*
X24303Y78648D01*
X24239Y78564D01*
X24199Y78467D01*
X24185Y78362D01*
Y78212D01*
X24199Y78108D01*
X24239Y78011D01*
X24303Y77927D01*
X24387Y77863D01*
X24484Y77823D01*
X24589Y77809D01*
X24693Y77823D01*
X24790Y77863D01*
X24874Y77927D01*
X24938Y78011D01*
X24978Y78108D01*
X24992Y78212D01*
Y78362D01*
X24978Y78467D01*
X24938Y78564D01*
X24874Y78648D01*
X24790Y78712D01*
X24693Y78752D01*
X24589Y78766D01*
D02*
G37*
G36*
X22589D02*
X22484Y78752D01*
X22387Y78712D01*
X22303Y78648D01*
X22239Y78564D01*
X22199Y78467D01*
X22185Y78362D01*
Y78212D01*
X22199Y78108D01*
X22239Y78011D01*
X22303Y77927D01*
X22387Y77863D01*
X22484Y77823D01*
X22589Y77809D01*
X22693Y77823D01*
X22790Y77863D01*
X22874Y77927D01*
X22938Y78011D01*
X22978Y78108D01*
X22992Y78212D01*
Y78362D01*
X22978Y78467D01*
X22938Y78564D01*
X22874Y78648D01*
X22790Y78712D01*
X22693Y78752D01*
X22589Y78766D01*
D02*
G37*
G36*
X38433Y78808D02*
X38328Y78794D01*
X38231Y78753D01*
X38147Y78689D01*
X38083Y78606D01*
X38043Y78509D01*
X38029Y78404D01*
Y78254D01*
X38043Y78150D01*
X38083Y78052D01*
X38147Y77969D01*
X38231Y77905D01*
X38254Y77895D01*
Y77734D01*
X38224Y77721D01*
X38204Y77718D01*
X38145Y77777D01*
X38062Y77812D01*
X37973D01*
X37890Y77777D01*
X37827Y77714D01*
X37793Y77631D01*
Y77542D01*
X37827Y77459D01*
X37839Y77447D01*
Y77048D01*
X37853Y76980D01*
X37855Y76976D01*
Y76914D01*
X37874Y76868D01*
Y73644D01*
X37862Y73631D01*
X37828Y73549D01*
Y73459D01*
X37862Y73376D01*
X37925Y73313D01*
X38008Y73279D01*
X38097D01*
X38180Y73313D01*
X38243Y73376D01*
X38278Y73459D01*
Y73549D01*
X38243Y73631D01*
X38231Y73644D01*
Y74702D01*
X38277Y74721D01*
X38293Y74705D01*
X38376Y74671D01*
X38465D01*
X38548Y74705D01*
X38611Y74769D01*
X38646Y74851D01*
Y74941D01*
X38611Y75024D01*
X38611Y75024D01*
Y77895D01*
X38634Y77905D01*
X38718Y77969D01*
X38782Y78052D01*
X38822Y78150D01*
X38836Y78254D01*
Y78404D01*
X38822Y78509D01*
X38782Y78606D01*
X38718Y78689D01*
X38634Y78753D01*
X38537Y78794D01*
X38433Y78808D01*
D02*
G37*
G36*
X39433D02*
X39328Y78794D01*
X39231Y78753D01*
X39147Y78689D01*
X39083Y78606D01*
X39043Y78509D01*
X39029Y78404D01*
Y78254D01*
X39043Y78150D01*
X39083Y78052D01*
X39147Y77969D01*
X39231Y77905D01*
X39254Y77895D01*
Y77422D01*
X39224Y77391D01*
X39189Y77309D01*
Y77219D01*
X39224Y77136D01*
X39287Y77073D01*
X39370Y77039D01*
X39459D01*
X39542Y77073D01*
X39605Y77136D01*
X39639Y77219D01*
Y77309D01*
X39611Y77377D01*
Y77895D01*
X39634Y77905D01*
X39718Y77969D01*
X39782Y78052D01*
X39822Y78150D01*
X39836Y78254D01*
Y78404D01*
X39822Y78509D01*
X39782Y78606D01*
X39718Y78689D01*
X39634Y78753D01*
X39537Y78794D01*
X39433Y78808D01*
D02*
G37*
G36*
X25589Y78766D02*
X25484Y78752D01*
X25387Y78712D01*
X25303Y78648D01*
X25239Y78564D01*
X25199Y78467D01*
X25185Y78362D01*
Y78212D01*
X25199Y78108D01*
X25239Y78011D01*
X25303Y77927D01*
X25387Y77863D01*
X25412Y77853D01*
Y76911D01*
X25400Y76899D01*
X25366Y76816D01*
Y76727D01*
X25400Y76644D01*
X25463Y76581D01*
X25546Y76547D01*
X25635D01*
X25718Y76581D01*
X25781Y76644D01*
X25816Y76727D01*
Y76816D01*
X25781Y76899D01*
X25769Y76911D01*
Y77854D01*
X25790Y77863D01*
X25874Y77927D01*
X25938Y78011D01*
X25978Y78108D01*
X25992Y78212D01*
Y78362D01*
X25978Y78467D01*
X25938Y78564D01*
X25874Y78648D01*
X25790Y78712D01*
X25693Y78752D01*
X25589Y78766D01*
D02*
G37*
G36*
X29559Y76490D02*
X29409D01*
X29305Y76476D01*
X29208Y76436D01*
X29124Y76372D01*
X29060Y76288D01*
X29020Y76191D01*
X29006Y76087D01*
X29020Y75982D01*
X29060Y75885D01*
X29124Y75801D01*
X29208Y75737D01*
X29305Y75697D01*
X29409Y75683D01*
X29559D01*
X29664Y75697D01*
X29761Y75737D01*
X29845Y75801D01*
X29909Y75885D01*
X29949Y75982D01*
X29963Y76087D01*
X29949Y76191D01*
X29909Y76288D01*
X29845Y76372D01*
X29761Y76436D01*
X29664Y76476D01*
X29559Y76490D01*
D02*
G37*
G36*
X26589Y78766D02*
X26484Y78752D01*
X26387Y78712D01*
X26303Y78648D01*
X26239Y78564D01*
X26199Y78467D01*
X26185Y78362D01*
Y78212D01*
X26199Y78108D01*
X26239Y78011D01*
X26303Y77927D01*
X26387Y77863D01*
X26412Y77853D01*
Y75730D01*
X26400Y75718D01*
X26366Y75635D01*
Y75546D01*
X26400Y75463D01*
X26463Y75400D01*
X26546Y75366D01*
X26635D01*
X26718Y75400D01*
X26781Y75463D01*
X26816Y75546D01*
Y75635D01*
X26781Y75718D01*
X26769Y75730D01*
Y77854D01*
X26790Y77863D01*
X26874Y77927D01*
X26938Y78011D01*
X26978Y78108D01*
X26992Y78212D01*
Y78362D01*
X26978Y78467D01*
X26938Y78564D01*
X26874Y78648D01*
X26790Y78712D01*
X26693Y78752D01*
X26589Y78766D01*
D02*
G37*
G36*
X29559Y75490D02*
X29409D01*
X29305Y75476D01*
X29208Y75436D01*
X29124Y75372D01*
X29060Y75288D01*
X29020Y75191D01*
X29006Y75087D01*
X29020Y74982D01*
X29060Y74885D01*
X29124Y74801D01*
X29208Y74737D01*
X29305Y74697D01*
X29409Y74683D01*
X29559D01*
X29664Y74697D01*
X29761Y74737D01*
X29845Y74801D01*
X29909Y74885D01*
X29949Y74982D01*
X29963Y75087D01*
X29949Y75191D01*
X29909Y75288D01*
X29845Y75372D01*
X29761Y75436D01*
X29664Y75476D01*
X29559Y75490D01*
D02*
G37*
G36*
X21589Y78766D02*
X21484Y78752D01*
X21387Y78712D01*
X21303Y78648D01*
X21239Y78564D01*
X21199Y78467D01*
X21185Y78362D01*
Y78212D01*
X21199Y78108D01*
X21239Y78011D01*
X21303Y77927D01*
X21387Y77863D01*
X21410Y77853D01*
Y74729D01*
X21395Y74714D01*
X21361Y74631D01*
Y74542D01*
X21395Y74459D01*
X21459Y74396D01*
X21541Y74362D01*
X21631D01*
X21714Y74396D01*
X21777Y74459D01*
X21811Y74542D01*
Y74631D01*
X21777Y74714D01*
X21767Y74724D01*
Y77853D01*
X21790Y77863D01*
X21874Y77927D01*
X21938Y78011D01*
X21978Y78108D01*
X21992Y78212D01*
Y78362D01*
X21978Y78467D01*
X21938Y78564D01*
X21874Y78648D01*
X21790Y78712D01*
X21693Y78752D01*
X21589Y78766D01*
D02*
G37*
G36*
X40433Y78808D02*
X40328Y78794D01*
X40231Y78753D01*
X40147Y78689D01*
X40083Y78606D01*
X40043Y78509D01*
X40029Y78404D01*
Y78254D01*
X40043Y78150D01*
X40083Y78052D01*
X40147Y77969D01*
X40231Y77905D01*
X40254Y77895D01*
Y76740D01*
X40241Y76727D01*
X40206Y76644D01*
Y76554D01*
X40241Y76472D01*
X40251Y76461D01*
Y74530D01*
X40239Y74517D01*
X40205Y74435D01*
Y74345D01*
X40239Y74262D01*
X40302Y74199D01*
X40385Y74165D01*
X40474D01*
X40557Y74199D01*
X40620Y74262D01*
X40655Y74345D01*
Y74435D01*
X40620Y74517D01*
X40608Y74530D01*
Y76458D01*
X40622Y76472D01*
X40656Y76554D01*
Y76644D01*
X40622Y76727D01*
X40611Y76738D01*
Y77895D01*
X40634Y77905D01*
X40718Y77969D01*
X40782Y78052D01*
X40822Y78150D01*
X40836Y78254D01*
Y78404D01*
X40822Y78509D01*
X40782Y78606D01*
X40718Y78689D01*
X40634Y78753D01*
X40537Y78794D01*
X40433Y78808D01*
D02*
G37*
G36*
X29559Y74490D02*
X29534D01*
Y74137D01*
X29956D01*
X29949Y74191D01*
X29909Y74288D01*
X29845Y74372D01*
X29761Y74436D01*
X29664Y74476D01*
X29559Y74490D01*
D02*
G37*
G36*
X29434D02*
X29409D01*
X29305Y74476D01*
X29208Y74436D01*
X29124Y74372D01*
X29060Y74288D01*
X29020Y74191D01*
X29012Y74137D01*
X29434D01*
Y74490D01*
D02*
G37*
G36*
X44234Y75163D02*
X43443D01*
Y74372D01*
X43573D01*
X43586Y74322D01*
X43522Y74258D01*
X43470Y74168D01*
X43443Y74068D01*
Y74066D01*
X43839D01*
X44234D01*
Y74068D01*
X44207Y74168D01*
X44155Y74258D01*
X44091Y74322D01*
X44104Y74372D01*
X44234D01*
Y75163D01*
D02*
G37*
G36*
X42368Y74061D02*
X42278D01*
X42195Y74027D01*
X42132Y73964D01*
X42098Y73881D01*
Y73791D01*
X42129Y73716D01*
X42128Y73714D01*
X42060Y73711D01*
X42057Y73714D01*
X41974Y73749D01*
X41884D01*
X41802Y73714D01*
X41738Y73651D01*
X41704Y73568D01*
Y73479D01*
X41738Y73396D01*
X41802Y73333D01*
X41884Y73299D01*
X41894D01*
Y60093D01*
X41908Y60024D01*
X41947Y59966D01*
X42711Y59202D01*
Y49696D01*
X42683Y49669D01*
X42649Y49586D01*
Y49497D01*
X42683Y49414D01*
X42747Y49351D01*
X42829Y49316D01*
X42919D01*
X43001Y49351D01*
X43065Y49414D01*
X43099Y49497D01*
Y49586D01*
X43067Y49662D01*
Y56750D01*
X43117Y56784D01*
X43153Y56769D01*
X43243D01*
X43325Y56803D01*
X43389Y56866D01*
X43423Y56949D01*
Y57039D01*
X43389Y57121D01*
X43387Y57123D01*
Y59438D01*
X43414Y59502D01*
Y59592D01*
X43380Y59675D01*
X43316Y59738D01*
X43234Y59772D01*
X43144D01*
X43062Y59738D01*
X42998Y59675D01*
X42964Y59592D01*
Y59524D01*
X42914Y59504D01*
X42251Y60166D01*
Y68780D01*
X42297Y68799D01*
X42403Y68693D01*
Y68676D01*
X42437Y68593D01*
X42501Y68530D01*
X42583Y68495D01*
X42673D01*
X42755Y68530D01*
X42819Y68593D01*
X42853Y68676D01*
Y68765D01*
X42819Y68848D01*
X42755Y68911D01*
X42673Y68945D01*
X42655D01*
X42501Y69099D01*
Y73696D01*
X42514Y73709D01*
X42548Y73791D01*
Y73881D01*
X42514Y73964D01*
X42450Y74027D01*
X42368Y74061D01*
D02*
G37*
G36*
X29956Y74037D02*
X29534D01*
Y73683D01*
X29559D01*
X29664Y73697D01*
X29761Y73737D01*
X29845Y73801D01*
X29909Y73885D01*
X29949Y73982D01*
X29956Y74037D01*
D02*
G37*
G36*
X29434D02*
X29012D01*
X29020Y73982D01*
X29060Y73885D01*
X29124Y73801D01*
X29208Y73737D01*
X29305Y73697D01*
X29409Y73683D01*
X29434D01*
Y74037D01*
D02*
G37*
G36*
X23589Y78766D02*
X23484Y78752D01*
X23387Y78712D01*
X23303Y78648D01*
X23239Y78564D01*
X23199Y78467D01*
X23185Y78362D01*
Y78212D01*
X23199Y78108D01*
X23239Y78011D01*
X23303Y77927D01*
X23387Y77863D01*
X23410Y77853D01*
Y73772D01*
X23388Y73749D01*
X23354Y73667D01*
Y73577D01*
X23388Y73495D01*
X23451Y73431D01*
X23534Y73397D01*
X23623D01*
X23706Y73431D01*
X23769Y73495D01*
X23804Y73577D01*
Y73667D01*
X23769Y73749D01*
X23767Y73752D01*
Y77853D01*
X23790Y77863D01*
X23874Y77927D01*
X23938Y78011D01*
X23978Y78108D01*
X23992Y78212D01*
Y78362D01*
X23978Y78467D01*
X23938Y78564D01*
X23874Y78648D01*
X23790Y78712D01*
X23693Y78752D01*
X23589Y78766D01*
D02*
G37*
G36*
X41433Y78808D02*
X41328Y78794D01*
X41231Y78753D01*
X41147Y78689D01*
X41083Y78606D01*
X41043Y78509D01*
X41029Y78404D01*
Y78254D01*
X41043Y78150D01*
X41083Y78052D01*
X41147Y77969D01*
X41231Y77905D01*
X41254Y77895D01*
Y77039D01*
X41242Y77027D01*
X41208Y76944D01*
Y76854D01*
X41242Y76772D01*
X41254Y76759D01*
Y74437D01*
X40569Y73751D01*
X40551D01*
X40469Y73717D01*
X40405Y73654D01*
X40371Y73571D01*
Y73481D01*
X40405Y73399D01*
X40469Y73335D01*
X40551Y73301D01*
X40641D01*
X40723Y73335D01*
X40787Y73399D01*
X40821Y73481D01*
Y73499D01*
X41559Y74237D01*
X41559Y74237D01*
X41598Y74294D01*
X41611Y74363D01*
X41611Y74363D01*
Y76759D01*
X41623Y76772D01*
X41658Y76854D01*
Y76944D01*
X41623Y77027D01*
X41611Y77039D01*
Y77895D01*
X41634Y77905D01*
X41718Y77969D01*
X41782Y78052D01*
X41822Y78150D01*
X41836Y78254D01*
Y78404D01*
X41822Y78509D01*
X41782Y78606D01*
X41718Y78689D01*
X41634Y78753D01*
X41537Y78794D01*
X41433Y78808D01*
D02*
G37*
G36*
X44234Y73966D02*
X43839D01*
X43443D01*
Y73964D01*
X43470Y73863D01*
X43522Y73773D01*
X43596Y73699D01*
X43649Y73669D01*
Y73611D01*
X43596Y73580D01*
X43522Y73506D01*
X43470Y73416D01*
X43443Y73316D01*
Y73212D01*
X43470Y73111D01*
X43522Y73021D01*
X43596Y72947D01*
X43686Y72895D01*
X43787Y72868D01*
X43891D01*
X43991Y72895D01*
X44081Y72947D01*
X44155Y73021D01*
X44207Y73111D01*
X44234Y73212D01*
Y73316D01*
X44207Y73416D01*
X44155Y73506D01*
X44081Y73580D01*
X44028Y73611D01*
Y73669D01*
X44081Y73699D01*
X44155Y73773D01*
X44207Y73863D01*
X44234Y73964D01*
Y73966D01*
D02*
G37*
G36*
X29559Y73490D02*
X29409D01*
X29305Y73476D01*
X29208Y73436D01*
X29124Y73372D01*
X29060Y73288D01*
X29020Y73191D01*
X29006Y73087D01*
X29020Y72982D01*
X29060Y72885D01*
X29124Y72801D01*
X29208Y72737D01*
X29305Y72697D01*
X29409Y72683D01*
X29559D01*
X29664Y72697D01*
X29761Y72737D01*
X29845Y72801D01*
X29909Y72885D01*
X29949Y72982D01*
X29963Y73087D01*
X29949Y73191D01*
X29909Y73288D01*
X29845Y73372D01*
X29761Y73436D01*
X29664Y73476D01*
X29559Y73490D01*
D02*
G37*
G36*
Y72490D02*
X29409D01*
X29305Y72476D01*
X29208Y72436D01*
X29124Y72372D01*
X29060Y72288D01*
X29020Y72191D01*
X29006Y72087D01*
X29020Y71982D01*
X29060Y71885D01*
X29124Y71801D01*
X29208Y71737D01*
X29305Y71697D01*
X29409Y71683D01*
X29559D01*
X29664Y71697D01*
X29761Y71737D01*
X29845Y71801D01*
X29909Y71885D01*
X29949Y71982D01*
X29963Y72087D01*
X29949Y72191D01*
X29909Y72288D01*
X29845Y72372D01*
X29761Y72436D01*
X29664Y72476D01*
X29559Y72490D01*
D02*
G37*
G36*
X29641Y71338D02*
Y70916D01*
X29994D01*
Y70941D01*
X29980Y71046D01*
X29940Y71143D01*
X29876Y71226D01*
X29792Y71291D01*
X29695Y71331D01*
X29641Y71338D01*
D02*
G37*
G36*
X29541Y71338D02*
X29486Y71331D01*
X29389Y71291D01*
X29305Y71226D01*
X29241Y71143D01*
X29201Y71046D01*
X29187Y70941D01*
Y70916D01*
X29541D01*
Y71338D01*
D02*
G37*
G36*
X29994Y70816D02*
X29641D01*
Y70394D01*
X29695Y70401D01*
X29792Y70442D01*
X29876Y70506D01*
X29940Y70589D01*
X29980Y70687D01*
X29994Y70791D01*
Y70816D01*
D02*
G37*
G36*
X29541D02*
X29187D01*
Y70791D01*
X29201Y70687D01*
X29241Y70589D01*
X29305Y70506D01*
X29389Y70442D01*
X29486Y70401D01*
X29541Y70394D01*
Y70816D01*
D02*
G37*
G36*
X28591Y71345D02*
X28486Y71331D01*
X28389Y71291D01*
X28305Y71226D01*
X28241Y71143D01*
X28201Y71046D01*
X28187Y70941D01*
Y70791D01*
X28201Y70687D01*
X28241Y70589D01*
X28305Y70506D01*
X28389Y70442D01*
X28486Y70401D01*
X28591Y70388D01*
X28695Y70401D01*
X28792Y70442D01*
X28876Y70506D01*
X28940Y70589D01*
X28980Y70687D01*
X28994Y70791D01*
Y70941D01*
X28980Y71046D01*
X28940Y71143D01*
X28876Y71226D01*
X28792Y71291D01*
X28695Y71331D01*
X28591Y71345D01*
D02*
G37*
G36*
X25591D02*
X25486Y71331D01*
X25389Y71291D01*
X25305Y71226D01*
X25241Y71143D01*
X25201Y71046D01*
X25187Y70941D01*
Y70791D01*
X25201Y70687D01*
X25241Y70589D01*
X25305Y70506D01*
X25389Y70442D01*
X25486Y70401D01*
X25591Y70388D01*
X25695Y70401D01*
X25792Y70442D01*
X25876Y70506D01*
X25940Y70589D01*
X25980Y70687D01*
X25994Y70791D01*
Y70941D01*
X25980Y71046D01*
X25940Y71143D01*
X25876Y71226D01*
X25792Y71291D01*
X25695Y71331D01*
X25591Y71345D01*
D02*
G37*
G36*
X24591D02*
X24486Y71331D01*
X24389Y71291D01*
X24305Y71226D01*
X24241Y71143D01*
X24201Y71046D01*
X24187Y70941D01*
Y70791D01*
X24201Y70687D01*
X24241Y70589D01*
X24305Y70506D01*
X24389Y70442D01*
X24486Y70401D01*
X24591Y70388D01*
X24695Y70401D01*
X24792Y70442D01*
X24876Y70506D01*
X24940Y70589D01*
X24980Y70687D01*
X24994Y70791D01*
Y70941D01*
X24980Y71046D01*
X24940Y71143D01*
X24876Y71226D01*
X24792Y71291D01*
X24695Y71331D01*
X24591Y71345D01*
D02*
G37*
G36*
X21591D02*
X21486Y71331D01*
X21389Y71291D01*
X21305Y71226D01*
X21241Y71143D01*
X21201Y71046D01*
X21187Y70941D01*
Y70791D01*
X21201Y70687D01*
X21241Y70589D01*
X21305Y70506D01*
X21389Y70442D01*
X21486Y70401D01*
X21591Y70388D01*
X21695Y70401D01*
X21792Y70442D01*
X21876Y70506D01*
X21940Y70589D01*
X21980Y70687D01*
X21994Y70791D01*
Y70941D01*
X21980Y71046D01*
X21940Y71143D01*
X21876Y71226D01*
X21792Y71291D01*
X21695Y71331D01*
X21591Y71345D01*
D02*
G37*
G36*
X26591D02*
X26486Y71331D01*
X26389Y71291D01*
X26305Y71226D01*
X26241Y71143D01*
X26201Y71046D01*
X26187Y70941D01*
Y70791D01*
X26201Y70687D01*
X26241Y70589D01*
X26305Y70506D01*
X26389Y70442D01*
X26412Y70432D01*
Y69514D01*
X26400Y69502D01*
X26366Y69419D01*
Y69330D01*
X26400Y69247D01*
X26463Y69184D01*
X26546Y69150D01*
X26635D01*
X26718Y69184D01*
X26781Y69247D01*
X26816Y69330D01*
Y69419D01*
X26781Y69502D01*
X26769Y69514D01*
Y70432D01*
X26792Y70442D01*
X26876Y70506D01*
X26940Y70589D01*
X26980Y70687D01*
X26994Y70791D01*
Y70941D01*
X26980Y71046D01*
X26940Y71143D01*
X26876Y71226D01*
X26792Y71291D01*
X26695Y71331D01*
X26591Y71345D01*
D02*
G37*
G36*
X35970Y68894D02*
X35880D01*
X35798Y68860D01*
X35761Y68823D01*
X35728Y68801D01*
X35696Y68823D01*
X35659Y68860D01*
X35576Y68894D01*
X35487D01*
X35404Y68860D01*
X35341Y68797D01*
X35306Y68714D01*
Y68625D01*
X35341Y68542D01*
X35353Y68530D01*
Y67448D01*
X35367Y67380D01*
X35405Y67322D01*
X36639Y66088D01*
Y63685D01*
X36627Y63673D01*
X36593Y63590D01*
Y63501D01*
X36627Y63418D01*
X36690Y63355D01*
X36773Y63321D01*
X36862D01*
X36945Y63355D01*
X37008Y63418D01*
X37043Y63501D01*
Y63590D01*
X37008Y63673D01*
X36996Y63685D01*
Y66033D01*
X37042Y66052D01*
X38503Y64591D01*
Y63666D01*
X38490Y63653D01*
X38456Y63571D01*
Y63481D01*
X38490Y63398D01*
X38554Y63335D01*
X38636Y63301D01*
X38726D01*
X38809Y63335D01*
X38872Y63398D01*
X38906Y63481D01*
Y63571D01*
X38872Y63653D01*
X38860Y63666D01*
Y64665D01*
X38846Y64734D01*
X38807Y64792D01*
X36104Y67495D01*
Y68530D01*
X36116Y68542D01*
X36150Y68625D01*
Y68714D01*
X36116Y68797D01*
X36053Y68860D01*
X35970Y68894D01*
D02*
G37*
G36*
X27591Y71345D02*
X27486Y71331D01*
X27389Y71291D01*
X27305Y71226D01*
X27241Y71143D01*
X27201Y71046D01*
X27187Y70941D01*
Y70791D01*
X27201Y70687D01*
X27241Y70589D01*
X27305Y70506D01*
X27389Y70442D01*
X27412Y70432D01*
Y68809D01*
X27400Y68797D01*
X27366Y68714D01*
Y68625D01*
X27400Y68542D01*
X27463Y68479D01*
X27546Y68444D01*
X27635D01*
X27718Y68479D01*
X27781Y68542D01*
X27816Y68625D01*
Y68714D01*
X27781Y68797D01*
X27769Y68809D01*
Y70432D01*
X27792Y70442D01*
X27876Y70506D01*
X27940Y70589D01*
X27980Y70687D01*
X27994Y70791D01*
Y70941D01*
X27980Y71046D01*
X27940Y71143D01*
X27876Y71226D01*
X27792Y71291D01*
X27695Y71331D01*
X27591Y71345D01*
D02*
G37*
G36*
X25284Y69962D02*
X25109D01*
X24938Y69928D01*
X24777Y69861D01*
X24631Y69764D01*
X24508Y69640D01*
X24410Y69495D01*
X24344Y69334D01*
X24309Y69162D01*
Y68987D01*
X24344Y68816D01*
X24410Y68654D01*
X24508Y68509D01*
X24631Y68386D01*
X24777Y68288D01*
X24938Y68222D01*
X25109Y68187D01*
X25284D01*
X25456Y68222D01*
X25617Y68288D01*
X25763Y68386D01*
X25886Y68509D01*
X25983Y68654D01*
X26050Y68816D01*
X26084Y68987D01*
Y69162D01*
X26050Y69334D01*
X25983Y69495D01*
X25886Y69640D01*
X25763Y69764D01*
X25617Y69861D01*
X25456Y69928D01*
X25284Y69962D01*
D02*
G37*
G36*
X23591Y71345D02*
X23486Y71331D01*
X23389Y71291D01*
X23305Y71226D01*
X23241Y71143D01*
X23201Y71046D01*
X23187Y70941D01*
Y70791D01*
X23201Y70687D01*
X23241Y70589D01*
X23305Y70506D01*
X23389Y70442D01*
X23412Y70432D01*
Y67744D01*
X23426Y67676D01*
X23464Y67618D01*
X23465Y67618D01*
Y67573D01*
X23499Y67491D01*
X23562Y67427D01*
X23645Y67393D01*
X23735D01*
X23817Y67427D01*
X23881Y67491D01*
X23915Y67573D01*
Y67663D01*
X23881Y67746D01*
X23817Y67809D01*
X23769Y67829D01*
Y70432D01*
X23792Y70442D01*
X23876Y70506D01*
X23940Y70589D01*
X23980Y70687D01*
X23994Y70791D01*
Y70941D01*
X23980Y71046D01*
X23940Y71143D01*
X23876Y71226D01*
X23792Y71291D01*
X23695Y71331D01*
X23591Y71345D01*
D02*
G37*
G36*
X30814Y67418D02*
X29994D01*
Y66598D01*
X30814D01*
Y67418D01*
D02*
G37*
G36*
X39083Y67408D02*
X38978Y67394D01*
X38881Y67354D01*
X38797Y67289D01*
X38733Y67206D01*
X38693Y67109D01*
X38679Y67004D01*
Y66854D01*
X38693Y66750D01*
X38733Y66652D01*
X38797Y66569D01*
X38881Y66505D01*
X38978Y66464D01*
X39083Y66451D01*
X39187Y66464D01*
X39284Y66505D01*
X39368Y66569D01*
X39432Y66652D01*
X39472Y66750D01*
X39486Y66854D01*
Y67004D01*
X39472Y67109D01*
X39432Y67206D01*
X39368Y67289D01*
X39284Y67354D01*
X39187Y67394D01*
X39083Y67408D01*
D02*
G37*
G36*
X38083Y67408D02*
X37978Y67394D01*
X37881Y67354D01*
X37797Y67289D01*
X37733Y67206D01*
X37693Y67109D01*
X37679Y67004D01*
Y66854D01*
X37693Y66750D01*
X37733Y66652D01*
X37797Y66569D01*
X37881Y66505D01*
X37978Y66464D01*
X38083Y66451D01*
X38187Y66464D01*
X38284Y66505D01*
X38368Y66569D01*
X38432Y66652D01*
X38472Y66750D01*
X38486Y66854D01*
Y67004D01*
X38472Y67109D01*
X38432Y67206D01*
X38368Y67289D01*
X38284Y67354D01*
X38187Y67394D01*
X38083Y67408D01*
D02*
G37*
G36*
X30458Y66418D02*
X30454D01*
Y66058D01*
X30814D01*
Y66062D01*
X30786Y66166D01*
X30732Y66260D01*
X30655Y66336D01*
X30562Y66390D01*
X30458Y66418D01*
D02*
G37*
G36*
X30354D02*
X30350D01*
X30245Y66390D01*
X30152Y66336D01*
X30075Y66260D01*
X30021Y66166D01*
X29994Y66062D01*
Y66058D01*
X30354D01*
Y66418D01*
D02*
G37*
G36*
X30814Y65958D02*
X30454D01*
Y65598D01*
X30458D01*
X30562Y65626D01*
X30655Y65680D01*
X30732Y65756D01*
X30786Y65850D01*
X30814Y65954D01*
Y65958D01*
D02*
G37*
G36*
X30354D02*
X29994D01*
Y65954D01*
X30021Y65850D01*
X30075Y65756D01*
X30152Y65680D01*
X30245Y65626D01*
X30350Y65598D01*
X30354D01*
Y65958D01*
D02*
G37*
G36*
X22591Y71345D02*
X22486Y71331D01*
X22389Y71291D01*
X22305Y71226D01*
X22241Y71143D01*
X22201Y71046D01*
X22187Y70941D01*
Y70791D01*
X22201Y70687D01*
X22241Y70589D01*
X22305Y70506D01*
X22389Y70442D01*
X22412Y70432D01*
Y65884D01*
X22404Y65875D01*
X22369Y65793D01*
Y65703D01*
X22404Y65621D01*
X22467Y65557D01*
X22550Y65523D01*
X22639D01*
X22722Y65557D01*
X22785Y65621D01*
X22819Y65703D01*
Y65793D01*
X22785Y65875D01*
X22769Y65892D01*
Y70432D01*
X22792Y70442D01*
X22876Y70506D01*
X22940Y70589D01*
X22980Y70687D01*
X22994Y70791D01*
Y70941D01*
X22980Y71046D01*
X22940Y71143D01*
X22876Y71226D01*
X22792Y71291D01*
X22695Y71331D01*
X22591Y71345D01*
D02*
G37*
G36*
X30458Y65418D02*
X30350D01*
X30245Y65390D01*
X30152Y65336D01*
X30075Y65260D01*
X30021Y65166D01*
X29994Y65062D01*
Y64954D01*
X30021Y64850D01*
X30075Y64756D01*
X30152Y64680D01*
X30245Y64626D01*
X30350Y64598D01*
X30458D01*
X30562Y64626D01*
X30655Y64680D01*
X30732Y64756D01*
X30786Y64850D01*
X30814Y64954D01*
Y65062D01*
X30786Y65166D01*
X30732Y65260D01*
X30655Y65336D01*
X30562Y65390D01*
X30458Y65418D01*
D02*
G37*
G36*
Y64418D02*
X30350D01*
X30245Y64390D01*
X30152Y64336D01*
X30075Y64260D01*
X30021Y64166D01*
X29994Y64062D01*
Y63954D01*
X30021Y63850D01*
X30075Y63756D01*
X30152Y63680D01*
X30245Y63626D01*
X30350Y63598D01*
X30458D01*
X30562Y63626D01*
X30655Y63680D01*
X30732Y63756D01*
X30786Y63850D01*
X30814Y63954D01*
Y64062D01*
X30786Y64166D01*
X30732Y64260D01*
X30655Y64336D01*
X30562Y64390D01*
X30458Y64418D01*
D02*
G37*
G36*
Y63418D02*
X30350D01*
X30245Y63390D01*
X30152Y63336D01*
X30075Y63260D01*
X30021Y63166D01*
X29994Y63062D01*
Y62954D01*
X30021Y62850D01*
X30075Y62756D01*
X30152Y62680D01*
X30245Y62626D01*
X30350Y62598D01*
X30458D01*
X30562Y62626D01*
X30655Y62680D01*
X30732Y62756D01*
X30786Y62850D01*
X30814Y62954D01*
Y63062D01*
X30786Y63166D01*
X30732Y63260D01*
X30655Y63336D01*
X30562Y63390D01*
X30458Y63418D01*
D02*
G37*
G36*
Y62418D02*
X30350D01*
X30245Y62390D01*
X30152Y62336D01*
X30075Y62260D01*
X30021Y62166D01*
X29994Y62062D01*
Y61954D01*
X30021Y61850D01*
X30075Y61756D01*
X30152Y61680D01*
X30245Y61626D01*
X30350Y61598D01*
X30458D01*
X30562Y61626D01*
X30655Y61680D01*
X30732Y61756D01*
X30786Y61850D01*
X30814Y61954D01*
Y62062D01*
X30786Y62166D01*
X30732Y62260D01*
X30655Y62336D01*
X30562Y62390D01*
X30458Y62418D01*
D02*
G37*
G36*
X25284Y60828D02*
X25109D01*
X24938Y60794D01*
X24777Y60727D01*
X24631Y60630D01*
X24508Y60507D01*
X24410Y60361D01*
X24344Y60200D01*
X24309Y60028D01*
Y59854D01*
X24344Y59682D01*
X24410Y59521D01*
X24508Y59375D01*
X24631Y59252D01*
X24777Y59155D01*
X24938Y59088D01*
X25109Y59054D01*
X25284D01*
X25456Y59088D01*
X25617Y59155D01*
X25763Y59252D01*
X25886Y59375D01*
X25983Y59521D01*
X26050Y59682D01*
X26084Y59854D01*
Y60028D01*
X26050Y60200D01*
X25983Y60361D01*
X25886Y60507D01*
X25763Y60630D01*
X25617Y60727D01*
X25456Y60794D01*
X25284Y60828D01*
D02*
G37*
G36*
X28674Y65823D02*
X28584D01*
X28502Y65789D01*
X28438Y65726D01*
X28404Y65643D01*
Y65554D01*
X28438Y65471D01*
X28451Y65459D01*
Y58280D01*
X28464Y58211D01*
X28503Y58153D01*
X28751Y57905D01*
Y57888D01*
X28786Y57805D01*
X28849Y57742D01*
X28932Y57707D01*
X29021D01*
X29104Y57742D01*
X29167Y57805D01*
X29201Y57888D01*
Y57977D01*
X29167Y58060D01*
X29104Y58123D01*
X29021Y58157D01*
X29004D01*
X28808Y58354D01*
Y65459D01*
X28820Y65471D01*
X28854Y65554D01*
Y65643D01*
X28820Y65726D01*
X28757Y65789D01*
X28674Y65823D01*
D02*
G37*
G36*
X24434Y57889D02*
X24329D01*
X24228Y57862D01*
X24137Y57810D01*
X24062Y57735D01*
X24010Y57644D01*
X23983Y57543D01*
Y57438D01*
X24010Y57336D01*
X24062Y57245D01*
X24137Y57171D01*
X24228Y57118D01*
X24329Y57091D01*
X24434D01*
X24536Y57118D01*
X24627Y57171D01*
X24701Y57245D01*
X24754Y57336D01*
X24781Y57438D01*
Y57543D01*
X24754Y57644D01*
X24701Y57735D01*
X24627Y57810D01*
X24536Y57862D01*
X24434Y57889D01*
D02*
G37*
G36*
X23253Y57889D02*
X23148D01*
X23047Y57862D01*
X22956Y57810D01*
X22881Y57735D01*
X22829Y57644D01*
X22802Y57543D01*
Y57438D01*
X22829Y57336D01*
X22881Y57245D01*
X22956Y57171D01*
X23047Y57118D01*
X23148Y57091D01*
X23253D01*
X23355Y57118D01*
X23446Y57171D01*
X23520Y57245D01*
X23573Y57336D01*
X23600Y57438D01*
Y57543D01*
X23573Y57644D01*
X23520Y57735D01*
X23446Y57810D01*
X23355Y57862D01*
X23253Y57889D01*
D02*
G37*
G36*
X41757Y59772D02*
X41668D01*
X41585Y59738D01*
X41522Y59675D01*
X41488Y59592D01*
Y59502D01*
X41522Y59420D01*
X41534Y59407D01*
Y57136D01*
X41522Y57124D01*
X41488Y57041D01*
Y56951D01*
X41522Y56869D01*
X41585Y56805D01*
X41668Y56771D01*
X41757D01*
X41840Y56805D01*
X41903Y56869D01*
X41938Y56951D01*
Y57041D01*
X41903Y57124D01*
X41891Y57136D01*
Y59407D01*
X41903Y59420D01*
X41938Y59502D01*
Y59592D01*
X41903Y59675D01*
X41840Y59738D01*
X41757Y59772D01*
D02*
G37*
G36*
X44751Y57534D02*
X44662D01*
X44579Y57499D01*
X44516Y57436D01*
X44482Y57353D01*
Y57264D01*
X44516Y57181D01*
X44528Y57169D01*
Y56778D01*
X44503Y56752D01*
X44469Y56670D01*
Y56580D01*
X44503Y56497D01*
X44566Y56434D01*
X44649Y56400D01*
X44738D01*
X44821Y56434D01*
X44884Y56497D01*
X44919Y56580D01*
Y56670D01*
X44885Y56750D01*
Y57169D01*
X44897Y57181D01*
X44932Y57264D01*
Y57353D01*
X44897Y57436D01*
X44834Y57499D01*
X44751Y57534D01*
D02*
G37*
G36*
X47803D02*
X47713D01*
X47630Y57499D01*
X47567Y57436D01*
X47533Y57353D01*
Y57264D01*
X47567Y57181D01*
X47579Y57169D01*
Y56636D01*
X47567Y56624D01*
X47533Y56541D01*
Y56451D01*
X47567Y56369D01*
X47630Y56305D01*
X47713Y56271D01*
X47803D01*
X47885Y56305D01*
X47949Y56369D01*
X47983Y56451D01*
Y56541D01*
X47949Y56624D01*
X47936Y56636D01*
Y57169D01*
X47949Y57181D01*
X47983Y57264D01*
Y57353D01*
X47949Y57436D01*
X47885Y57499D01*
X47803Y57534D01*
D02*
G37*
G36*
X21568Y57334D02*
X21432D01*
X21299Y57308D01*
X21173Y57256D01*
X21060Y57180D01*
X20964Y57084D01*
X20888Y56971D01*
X20836Y56845D01*
X20809Y56712D01*
Y56576D01*
X20836Y56442D01*
X20888Y56317D01*
X20964Y56203D01*
X21060Y56107D01*
X21173Y56032D01*
X21299Y55980D01*
X21432Y55953D01*
X21568D01*
X21701Y55980D01*
X21827Y56032D01*
X21940Y56107D01*
X22036Y56203D01*
X22112Y56317D01*
X22164Y56442D01*
X22191Y56576D01*
Y56712D01*
X22164Y56845D01*
X22112Y56971D01*
X22036Y57084D01*
X21940Y57180D01*
X21827Y57256D01*
X21701Y57308D01*
X21568Y57334D01*
D02*
G37*
G36*
X24434Y56708D02*
X24329D01*
X24228Y56681D01*
X24137Y56628D01*
X24062Y56554D01*
X24010Y56463D01*
X23983Y56362D01*
Y56256D01*
X24010Y56155D01*
X24062Y56064D01*
X24137Y55990D01*
X24228Y55937D01*
X24329Y55910D01*
X24434D01*
X24536Y55937D01*
X24627Y55990D01*
X24701Y56064D01*
X24754Y56155D01*
X24781Y56256D01*
Y56362D01*
X24754Y56463D01*
X24701Y56554D01*
X24627Y56628D01*
X24536Y56681D01*
X24434Y56708D01*
D02*
G37*
G36*
X23253D02*
X23148D01*
X23047Y56681D01*
X22956Y56628D01*
X22881Y56554D01*
X22829Y56463D01*
X22802Y56362D01*
Y56256D01*
X22829Y56155D01*
X22881Y56064D01*
X22956Y55990D01*
X23047Y55937D01*
X23148Y55910D01*
X23253D01*
X23355Y55937D01*
X23446Y55990D01*
X23520Y56064D01*
X23573Y56155D01*
X23600Y56256D01*
Y56362D01*
X23573Y56463D01*
X23520Y56554D01*
X23446Y56628D01*
X23355Y56681D01*
X23253Y56708D01*
D02*
G37*
G36*
X40005Y61544D02*
X39916D01*
X39833Y61510D01*
X39770Y61446D01*
X39736Y61364D01*
Y61346D01*
X38181Y59792D01*
X38142Y59734D01*
X38129Y59665D01*
Y58828D01*
X38116Y58815D01*
X38082Y58733D01*
Y58643D01*
X38116Y58560D01*
X38129Y58548D01*
Y55291D01*
X38116Y55278D01*
X38082Y55196D01*
Y55106D01*
X38116Y55023D01*
X38180Y54960D01*
X38262Y54926D01*
X38352D01*
X38435Y54960D01*
X38498Y55023D01*
X38532Y55106D01*
Y55196D01*
X38498Y55278D01*
X38486Y55291D01*
Y58548D01*
X38498Y58560D01*
X38532Y58643D01*
Y58733D01*
X38498Y58815D01*
X38486Y58828D01*
Y59591D01*
X39988Y61094D01*
X40005D01*
X40088Y61128D01*
X40151Y61191D01*
X40186Y61274D01*
Y61364D01*
X40151Y61446D01*
X40088Y61510D01*
X40005Y61544D01*
D02*
G37*
G36*
X37348D02*
X37258D01*
X37176Y61510D01*
X37112Y61446D01*
X37078Y61364D01*
Y61346D01*
X35547Y59816D01*
X35509Y59758D01*
X35495Y59689D01*
Y58808D01*
X35483Y58796D01*
X35449Y58713D01*
Y58623D01*
X35483Y58541D01*
X35495Y58528D01*
Y55291D01*
X35483Y55278D01*
X35449Y55196D01*
Y55106D01*
X35483Y55023D01*
X35546Y54960D01*
X35629Y54926D01*
X35718D01*
X35801Y54960D01*
X35864Y55023D01*
X35899Y55106D01*
Y55196D01*
X35864Y55278D01*
X35852Y55291D01*
Y58528D01*
X35864Y58541D01*
X35899Y58623D01*
Y58713D01*
X35864Y58796D01*
X35852Y58808D01*
Y59615D01*
X37330Y61094D01*
X37348D01*
X37431Y61128D01*
X37494Y61191D01*
X37528Y61274D01*
Y61364D01*
X37494Y61446D01*
X37431Y61510D01*
X37348Y61544D01*
D02*
G37*
G36*
X24434Y55527D02*
X24329D01*
X24228Y55500D01*
X24137Y55447D01*
X24062Y55373D01*
X24010Y55282D01*
X23983Y55181D01*
Y55075D01*
X24010Y54974D01*
X24062Y54883D01*
X24137Y54809D01*
X24228Y54756D01*
X24329Y54729D01*
X24434D01*
X24536Y54756D01*
X24627Y54809D01*
X24701Y54883D01*
X24754Y54974D01*
X24781Y55075D01*
Y55181D01*
X24754Y55282D01*
X24701Y55373D01*
X24627Y55447D01*
X24536Y55500D01*
X24434Y55527D01*
D02*
G37*
G36*
X23253D02*
X23148D01*
X23047Y55500D01*
X22956Y55447D01*
X22881Y55373D01*
X22829Y55282D01*
X22802Y55181D01*
Y55075D01*
X22829Y54974D01*
X22881Y54883D01*
X22956Y54809D01*
X23047Y54756D01*
X23148Y54729D01*
X23253D01*
X23355Y54756D01*
X23446Y54809D01*
X23520Y54883D01*
X23573Y54974D01*
X23600Y55075D01*
Y55181D01*
X23573Y55282D01*
X23520Y55373D01*
X23446Y55447D01*
X23355Y55500D01*
X23253Y55527D01*
D02*
G37*
G36*
X44135Y54887D02*
X43345D01*
Y54097D01*
X43474D01*
X43488Y54047D01*
X43424Y53983D01*
X43372Y53893D01*
X43345Y53792D01*
Y53790D01*
X43740D01*
X44135D01*
Y53792D01*
X44109Y53893D01*
X44056Y53983D01*
X43992Y54047D01*
X44006Y54097D01*
X44135D01*
Y54887D01*
D02*
G37*
G36*
X24434Y54346D02*
X24329D01*
X24228Y54319D01*
X24137Y54266D01*
X24062Y54192D01*
X24010Y54101D01*
X23983Y53999D01*
Y53894D01*
X24010Y53793D01*
X24062Y53702D01*
X24137Y53627D01*
X24228Y53575D01*
X24329Y53548D01*
X24434D01*
X24536Y53575D01*
X24627Y53627D01*
X24701Y53702D01*
X24754Y53793D01*
X24781Y53894D01*
Y53999D01*
X24754Y54101D01*
X24701Y54192D01*
X24627Y54266D01*
X24536Y54319D01*
X24434Y54346D01*
D02*
G37*
G36*
X28788Y53958D02*
X28699D01*
X28616Y53924D01*
X28604Y53911D01*
X26218D01*
X26150Y53898D01*
X26092Y53859D01*
X26092Y53859D01*
X25161Y52929D01*
X25152D01*
X25069Y52894D01*
X25006Y52831D01*
X24972Y52748D01*
Y52659D01*
X25006Y52576D01*
X25069Y52513D01*
X25152Y52479D01*
X25242D01*
X25324Y52513D01*
X25350Y52538D01*
X25413Y52531D01*
X25459Y52486D01*
X25541Y52452D01*
X25631D01*
X25714Y52486D01*
X25777Y52549D01*
X25811Y52632D01*
Y52720D01*
X26396Y53305D01*
X28496D01*
X28551Y53268D01*
X28619Y53255D01*
X28619Y53255D01*
X28893D01*
X28962Y53268D01*
X29020Y53307D01*
X29161Y53448D01*
X29179D01*
X29261Y53483D01*
X29325Y53546D01*
X29359Y53629D01*
Y53718D01*
X29325Y53801D01*
X29261Y53864D01*
X29179Y53898D01*
X29089D01*
X29006Y53864D01*
X28986Y53844D01*
X28937Y53853D01*
X28934Y53860D01*
X28871Y53924D01*
X28788Y53958D01*
D02*
G37*
G36*
X44135Y53690D02*
X43740D01*
X43345D01*
Y53688D01*
X43372Y53588D01*
X43424Y53497D01*
X43497Y53424D01*
X43551Y53393D01*
Y53335D01*
X43497Y53304D01*
X43424Y53231D01*
X43372Y53141D01*
X43345Y53040D01*
Y52936D01*
X43372Y52836D01*
X43424Y52745D01*
X43497Y52672D01*
X43588Y52620D01*
X43688Y52593D01*
X43792D01*
X43893Y52620D01*
X43983Y52672D01*
X44056Y52745D01*
X44109Y52836D01*
X44135Y52936D01*
Y53040D01*
X44109Y53141D01*
X44056Y53231D01*
X43983Y53304D01*
X43929Y53335D01*
Y53393D01*
X43983Y53424D01*
X44056Y53497D01*
X44109Y53588D01*
X44135Y53688D01*
Y53690D01*
D02*
G37*
G36*
X24434Y53165D02*
X24329D01*
X24228Y53138D01*
X24137Y53085D01*
X24062Y53011D01*
X24010Y52920D01*
X23983Y52818D01*
Y52713D01*
X24010Y52612D01*
X24062Y52521D01*
X24137Y52446D01*
X24228Y52394D01*
X24329Y52367D01*
X24434D01*
X24536Y52394D01*
X24627Y52446D01*
X24701Y52521D01*
X24754Y52612D01*
X24781Y52713D01*
Y52818D01*
X24754Y52920D01*
X24701Y53011D01*
X24627Y53085D01*
X24536Y53138D01*
X24434Y53165D01*
D02*
G37*
G36*
X40694Y52307D02*
X40605D01*
X40522Y52272D01*
X40502Y52253D01*
X40358Y52244D01*
X40069Y52195D01*
X39788Y52114D01*
X39518Y52003D01*
X39262Y51861D01*
X39023Y51692D01*
X38842Y51530D01*
X38805Y51497D01*
X38805Y51497D01*
X38771Y51461D01*
X38043Y50734D01*
X38037Y50724D01*
X37809Y50520D01*
X37550Y50337D01*
X37273Y50184D01*
X36980Y50062D01*
X36676Y49975D01*
X36363Y49922D01*
X36058Y49905D01*
X36047Y49907D01*
X36047Y49907D01*
X36046Y49907D01*
X36046Y49907D01*
X35219D01*
X35206Y49919D01*
X35124Y49953D01*
X35034D01*
X34951Y49919D01*
X34888Y49856D01*
X34854Y49773D01*
Y49684D01*
X34888Y49601D01*
X34951Y49538D01*
X35034Y49503D01*
X35124D01*
X35206Y49538D01*
X35219Y49550D01*
X35997D01*
X36047Y49550D01*
X36096Y49552D01*
X36359Y49565D01*
X36667Y49611D01*
X36970Y49686D01*
X37264Y49792D01*
X37496Y49901D01*
X37519Y49857D01*
X37443Y49812D01*
X37137Y49667D01*
X36819Y49553D01*
X36490Y49470D01*
X36155Y49421D01*
X35828Y49405D01*
X35817Y49407D01*
X35817Y49407D01*
X35817Y49407D01*
X35816Y49407D01*
X35219D01*
X35206Y49419D01*
X35124Y49453D01*
X35034D01*
X34951Y49419D01*
X34888Y49356D01*
X34854Y49273D01*
Y49184D01*
X34888Y49101D01*
X34951Y49038D01*
X35034Y49003D01*
X35124D01*
X35206Y49038D01*
X35219Y49050D01*
X35768D01*
X35817Y49049D01*
X35866Y49051D01*
X36190Y49067D01*
X36559Y49122D01*
X36922Y49213D01*
X37273Y49338D01*
X37611Y49498D01*
X37931Y49690D01*
X38231Y49913D01*
X38471Y50130D01*
X38508Y50163D01*
X38508Y50163D01*
X38508Y50164D01*
X38543Y50200D01*
X38721Y50356D01*
X38959Y50515D01*
X39217Y50642D01*
X39488Y50734D01*
X39770Y50790D01*
X40006Y50806D01*
X40056Y50806D01*
Y50806D01*
X40510D01*
X40522Y50794D01*
X40605Y50759D01*
X40694D01*
X40777Y50794D01*
X40840Y50857D01*
X40875Y50939D01*
Y51029D01*
X40840Y51112D01*
X40777Y51175D01*
X40694Y51209D01*
X40605D01*
X40522Y51175D01*
X40510Y51163D01*
X40056D01*
Y51163D01*
X39771Y51147D01*
X39489Y51099D01*
X39214Y51020D01*
X38951Y50911D01*
X38701Y50773D01*
X38553Y50668D01*
X38520Y50706D01*
X39058Y51244D01*
X39058Y51244D01*
X39058Y51244D01*
X39065Y51254D01*
X39277Y51441D01*
X39523Y51605D01*
X39787Y51735D01*
X40066Y51830D01*
X40355Y51887D01*
X40515Y51898D01*
X40522Y51891D01*
X40605Y51857D01*
X40694D01*
X40777Y51891D01*
X40840Y51954D01*
X40875Y52037D01*
Y52126D01*
X40840Y52209D01*
X40777Y52272D01*
X40694Y52307D01*
D02*
G37*
G36*
X24434Y51984D02*
X24329D01*
X24228Y51957D01*
X24137Y51904D01*
X24062Y51830D01*
X24010Y51739D01*
X23983Y51637D01*
Y51532D01*
X24010Y51431D01*
X24062Y51340D01*
X24137Y51265D01*
X24228Y51213D01*
X24329Y51185D01*
X24434D01*
X24536Y51213D01*
X24627Y51265D01*
X24701Y51340D01*
X24754Y51431D01*
X24781Y51532D01*
Y51637D01*
X24754Y51739D01*
X24701Y51830D01*
X24627Y51904D01*
X24536Y51957D01*
X24434Y51984D01*
D02*
G37*
G36*
X23253D02*
X23148D01*
X23047Y51957D01*
X22956Y51904D01*
X22881Y51830D01*
X22829Y51739D01*
X22802Y51637D01*
Y51532D01*
X22829Y51431D01*
X22881Y51340D01*
X22956Y51265D01*
X23047Y51213D01*
X23148Y51185D01*
X23253D01*
X23355Y51213D01*
X23446Y51265D01*
X23520Y51340D01*
X23573Y51431D01*
X23600Y51532D01*
Y51637D01*
X23573Y51739D01*
X23520Y51830D01*
X23446Y51904D01*
X23355Y51957D01*
X23253Y51984D01*
D02*
G37*
G36*
X23253Y50803D02*
X23251D01*
Y50454D01*
X23600D01*
Y50456D01*
X23573Y50558D01*
X23520Y50649D01*
X23446Y50723D01*
X23355Y50776D01*
X23253Y50803D01*
D02*
G37*
G36*
X23151D02*
X23148D01*
X23047Y50776D01*
X22956Y50723D01*
X22881Y50649D01*
X22829Y50558D01*
X22802Y50456D01*
Y50454D01*
X23151D01*
Y50803D01*
D02*
G37*
G36*
X24434D02*
X24432D01*
Y50454D01*
X24781D01*
Y50456D01*
X24754Y50558D01*
X24701Y50649D01*
X24627Y50723D01*
X24536Y50776D01*
X24434Y50803D01*
D02*
G37*
G36*
X24332D02*
X24329D01*
X24228Y50776D01*
X24137Y50723D01*
X24062Y50649D01*
X24010Y50558D01*
X23983Y50456D01*
Y50454D01*
X24332D01*
Y50803D01*
D02*
G37*
G36*
X23253Y54346D02*
X23148D01*
X23047Y54319D01*
X22956Y54266D01*
X22881Y54192D01*
X22829Y54101D01*
X22802Y53999D01*
Y53894D01*
X22829Y53793D01*
X22881Y53702D01*
X22923Y53660D01*
Y53053D01*
X22881Y53011D01*
X22829Y52920D01*
X22802Y52818D01*
Y52759D01*
X22245Y52202D01*
X22201Y52145D01*
X22173Y52078D01*
X22164Y52006D01*
Y50400D01*
X22115Y50390D01*
X22112Y50396D01*
X22036Y50509D01*
X21940Y50605D01*
X21827Y50681D01*
X21701Y50733D01*
X21568Y50759D01*
X21432D01*
X21299Y50733D01*
X21173Y50681D01*
X21060Y50605D01*
X20964Y50509D01*
X20888Y50396D01*
X20836Y50270D01*
X20809Y50137D01*
Y50001D01*
X20836Y49867D01*
X20888Y49742D01*
X20964Y49629D01*
X21060Y49533D01*
X21173Y49457D01*
X21299Y49405D01*
X21432Y49378D01*
X21568D01*
X21701Y49405D01*
X21827Y49457D01*
X21940Y49533D01*
X22036Y49629D01*
X22112Y49742D01*
X22150Y49835D01*
X22179Y49840D01*
X22206Y49837D01*
X22245Y49786D01*
X22802Y49229D01*
Y48823D01*
X23600D01*
Y49622D01*
X23194D01*
X22718Y50097D01*
Y51891D01*
X23194Y52367D01*
X23253D01*
X23355Y52394D01*
X23446Y52446D01*
X23520Y52521D01*
X23573Y52612D01*
X23600Y52713D01*
Y52818D01*
X23573Y52920D01*
X23520Y53011D01*
X23478Y53053D01*
Y53660D01*
X23520Y53702D01*
X23573Y53793D01*
X23600Y53894D01*
Y53999D01*
X23573Y54101D01*
X23520Y54192D01*
X23446Y54266D01*
X23355Y54319D01*
X23253Y54346D01*
D02*
G37*
G36*
X24781Y50354D02*
X24432D01*
Y50004D01*
X24434D01*
X24536Y50032D01*
X24627Y50084D01*
X24701Y50158D01*
X24754Y50249D01*
X24781Y50351D01*
Y50354D01*
D02*
G37*
G36*
X24332D02*
X23983D01*
Y50351D01*
X24010Y50249D01*
X24062Y50158D01*
X24137Y50084D01*
X24228Y50032D01*
X24329Y50004D01*
X24332D01*
Y50354D01*
D02*
G37*
G36*
X23600Y50354D02*
X23251D01*
Y50004D01*
X23253D01*
X23355Y50032D01*
X23446Y50084D01*
X23520Y50158D01*
X23573Y50249D01*
X23600Y50351D01*
Y50354D01*
D02*
G37*
G36*
X23151D02*
X22802D01*
Y50351D01*
X22829Y50249D01*
X22881Y50158D01*
X22956Y50084D01*
X23047Y50032D01*
X23148Y50004D01*
X23151D01*
Y50354D01*
D02*
G37*
G36*
X24434Y49622D02*
X24329D01*
X24228Y49594D01*
X24137Y49542D01*
X24062Y49468D01*
X24010Y49377D01*
X23983Y49275D01*
Y49170D01*
X24010Y49068D01*
X24062Y48977D01*
X24137Y48903D01*
X24228Y48850D01*
X24329Y48823D01*
X24434D01*
X24536Y48850D01*
X24627Y48903D01*
X24701Y48977D01*
X24754Y49068D01*
X24781Y49170D01*
Y49275D01*
X24754Y49377D01*
X24701Y49468D01*
X24627Y49542D01*
X24536Y49594D01*
X24434Y49622D01*
D02*
G37*
G36*
X31541Y70107D02*
X31451D01*
X31369Y70073D01*
X31305Y70009D01*
X31271Y69927D01*
Y69882D01*
X31173Y69784D01*
X31134Y69726D01*
X31121Y69658D01*
Y64605D01*
X31108Y64593D01*
X31074Y64510D01*
Y64421D01*
X31108Y64338D01*
X31121Y64326D01*
Y57874D01*
X31134Y57806D01*
X31173Y57748D01*
X31778Y57143D01*
Y55004D01*
X31765Y54992D01*
X31731Y54909D01*
Y54820D01*
X31765Y54737D01*
X31829Y54674D01*
X31911Y54639D01*
X32001D01*
X32084Y54674D01*
X32147Y54737D01*
X32181Y54820D01*
Y54909D01*
X32147Y54992D01*
X32135Y55004D01*
Y57217D01*
X32121Y57285D01*
X32110Y57302D01*
X32149Y57334D01*
X32499Y56984D01*
Y49648D01*
X32486Y49635D01*
X32452Y49553D01*
Y49463D01*
X32486Y49380D01*
X32550Y49317D01*
X32632Y49283D01*
X32722D01*
X32805Y49317D01*
X32842Y49355D01*
X32892Y49334D01*
Y48368D01*
X32880Y48356D01*
X32846Y48273D01*
Y48184D01*
X32880Y48101D01*
X32943Y48038D01*
X33026Y48003D01*
X33116D01*
X33198Y48038D01*
X33262Y48101D01*
X33296Y48184D01*
Y48273D01*
X33262Y48356D01*
X33249Y48368D01*
Y55782D01*
X33262Y55795D01*
X33296Y55877D01*
Y55967D01*
X33262Y56050D01*
X33249Y56062D01*
Y57505D01*
X33815Y58071D01*
X33851Y58106D01*
X33851Y58106D01*
X33851Y58106D01*
X33851Y58106D01*
X33856Y58114D01*
X33902Y58174D01*
X33905Y58182D01*
X33959Y58236D01*
X33993Y58318D01*
Y58355D01*
X34013Y58375D01*
X34013Y58375D01*
X34052Y58433D01*
X34065Y58501D01*
Y60592D01*
X34077Y60604D01*
X34112Y60687D01*
Y60776D01*
X34077Y60859D01*
X34014Y60922D01*
X33932Y60957D01*
X33842D01*
X33759Y60922D01*
X33696Y60859D01*
X33662Y60776D01*
Y60687D01*
X33696Y60604D01*
X33708Y60592D01*
Y58582D01*
X33641Y58554D01*
X33578Y58490D01*
X33543Y58408D01*
Y58318D01*
X33548Y58308D01*
X33071Y57831D01*
X32535Y58367D01*
X32635Y58467D01*
X32635Y58467D01*
X32674Y58525D01*
X32687Y58593D01*
X32687Y58593D01*
Y60595D01*
X32700Y60607D01*
X32734Y60690D01*
Y60779D01*
X32700Y60862D01*
X32636Y60925D01*
X32554Y60960D01*
X32464D01*
X32381Y60925D01*
X32318Y60862D01*
X32284Y60779D01*
Y60690D01*
X32318Y60607D01*
X32330Y60595D01*
Y58667D01*
X32260Y58596D01*
X32242D01*
X32160Y58562D01*
X32097Y58499D01*
X32062Y58416D01*
Y58327D01*
X32097Y58244D01*
X32160Y58181D01*
X32242Y58146D01*
X32251D01*
X32892Y57505D01*
Y57129D01*
X32842Y57124D01*
X32842Y57126D01*
X32803Y57184D01*
X32803Y57184D01*
X32255Y57732D01*
X32276Y57782D01*
Y57871D01*
X32242Y57954D01*
X32178Y58017D01*
X32096Y58052D01*
X32006D01*
X31924Y58017D01*
X31860Y57954D01*
X31826Y57871D01*
Y57782D01*
X31860Y57699D01*
X31892Y57668D01*
Y57665D01*
X31905Y57596D01*
X31916Y57580D01*
X31878Y57548D01*
X31478Y57948D01*
Y58019D01*
X31528Y58038D01*
X31603Y58007D01*
X31692D01*
X31775Y58042D01*
X31838Y58105D01*
X31873Y58188D01*
Y58277D01*
X31838Y58360D01*
X31807Y58391D01*
Y58807D01*
X31857Y58835D01*
X31919Y58809D01*
X32009D01*
X32091Y58843D01*
X32155Y58906D01*
X32189Y58989D01*
Y59079D01*
X32155Y59161D01*
X32091Y59225D01*
X32088Y59226D01*
X32076Y59244D01*
Y65428D01*
X32291Y65642D01*
X32357Y65669D01*
X32420Y65733D01*
X32454Y65815D01*
Y65905D01*
X32420Y65988D01*
X32357Y66051D01*
X32274Y66085D01*
X32185D01*
X32137Y66066D01*
X32081Y66072D01*
X32017Y66136D01*
X31935Y66170D01*
X31845D01*
X31762Y66136D01*
X31699Y66072D01*
X31665Y65990D01*
Y65972D01*
X31528Y65835D01*
X31478Y65856D01*
Y69584D01*
X31557Y69664D01*
X31624Y69691D01*
X31687Y69754D01*
X31721Y69837D01*
Y69927D01*
X31687Y70009D01*
X31624Y70073D01*
X31541Y70107D01*
D02*
G37*
%LPD*%
D91*
X33724Y58232D02*
G03*
X33768Y58338I-106J106D01*
G01*
X40056Y50984D02*
G03*
X38381Y50291I0J-2368D01*
G01*
X35817Y49228D02*
G03*
X38381Y50290I0J3626D01*
G01*
X38381Y50291D01*
X40650Y52082D02*
G03*
X38932Y51370I0J-2429D01*
G01*
X36047Y49728D02*
G03*
X38169Y50608I0J3001D01*
G01*
X44694Y56625D02*
X44707Y56638D01*
Y57309D01*
X34074Y76820D02*
Y77200D01*
Y76820D02*
X34593Y76301D01*
X29756Y77562D02*
X29856Y77462D01*
X27589Y78287D02*
X28314Y77562D01*
X29756D01*
X29856Y77462D02*
X31155D01*
X42889Y49556D02*
Y59276D01*
X42073Y60093D02*
X42889Y59276D01*
X42073Y60093D02*
Y73380D01*
X35147Y65535D02*
Y66376D01*
X34284Y67239D02*
X35147Y66376D01*
X34284Y67239D02*
Y76068D01*
X34699Y76549D02*
Y76899D01*
Y76549D02*
X34843Y76405D01*
Y67392D02*
Y76405D01*
X34593Y67288D02*
X35674Y66207D01*
Y65074D02*
Y66207D01*
X34593Y67288D02*
Y76301D01*
X34843Y67392D02*
X36335Y65899D01*
Y64756D02*
Y65899D01*
X33974Y66145D02*
X34312Y65807D01*
X33974Y66145D02*
Y76489D01*
X33670Y65991D02*
X34744Y64917D01*
X33670Y65991D02*
Y75608D01*
X34312Y65782D02*
Y65807D01*
X36818Y63546D02*
Y66162D01*
X35531Y67448D02*
Y68669D01*
Y67448D02*
X36818Y66162D01*
X35925Y67421D02*
X38681Y64665D01*
X35925Y67421D02*
Y68669D01*
X38681Y63526D02*
Y64665D01*
X52772Y67622D02*
Y68290D01*
X52182Y68880D02*
X52772Y68290D01*
X53246Y48601D02*
X53249Y48605D01*
X53246Y47920D02*
Y48601D01*
X52182Y68880D02*
Y68907D01*
X33366Y64917D02*
Y76575D01*
X36122Y70866D02*
Y75242D01*
X35531Y75833D02*
X36122Y75242D01*
X35138Y75551D02*
X35493Y75196D01*
X35433Y78236D02*
Y78329D01*
X35138Y77941D02*
X35433Y78236D01*
X35138Y75551D02*
Y77941D01*
X36404Y68362D02*
Y70584D01*
X36122Y70866D02*
X36404Y70584D01*
X40430Y76597D02*
X40433Y76601D01*
X40430Y74390D02*
Y76597D01*
X41433Y74363D02*
Y76899D01*
X40596Y73526D02*
X41433Y74363D01*
X38421Y74896D02*
X38433Y74908D01*
Y78329D01*
X38053Y76904D02*
X38080Y76932D01*
X38053Y73504D02*
Y76904D01*
X38080Y76932D02*
Y76959D01*
X38018Y77048D02*
X38080Y76986D01*
Y76959D02*
Y76986D01*
X38018Y77048D02*
Y77587D01*
X40433Y76601D02*
Y78329D01*
X41433Y76899D02*
Y78329D01*
X39433Y77282D02*
Y78329D01*
X39414Y77264D02*
X39433Y77282D01*
X31169Y78861D02*
X31693Y78337D01*
X28589Y78287D02*
X29162Y78861D01*
X31169D01*
X31093Y78287D02*
X31120D01*
X31170Y78237D01*
X31172D02*
X31496Y77913D01*
X31170Y78237D02*
X31172D01*
X31496Y71791D02*
Y77913D01*
X42874Y49541D02*
X42889Y49556D01*
X41929Y73524D02*
X42073Y73380D01*
X23589Y73632D02*
Y78287D01*
X23579Y73622D02*
X23589Y73632D01*
X42323Y69026D02*
X42628Y68720D01*
X42323Y69026D02*
Y73836D01*
X21589Y74589D02*
Y78287D01*
X21586Y74587D02*
X21589Y74589D01*
X43209Y57005D02*
Y59457D01*
X43198Y56994D02*
X43209Y57005D01*
X41713Y56996D02*
Y59547D01*
Y56996D02*
X41713Y56996D01*
X33071Y57579D02*
X33724Y58232D01*
X47758Y56496D02*
Y57309D01*
X43189Y59547D02*
X43208Y59528D01*
Y59457D02*
X43209Y59457D01*
X43208Y59457D02*
Y59528D01*
X33768Y58363D02*
Y58382D01*
Y58338D02*
Y58363D01*
X33071Y55922D02*
Y57579D01*
Y48228D02*
Y55922D01*
X31956Y54864D02*
Y57217D01*
X31299Y57874D02*
X31956Y57217D01*
X26589Y78287D02*
X26591Y78285D01*
Y75591D02*
Y78285D01*
X25591Y76772D02*
Y78285D01*
X25589Y78287D02*
X25591Y78285D01*
X26591Y69375D02*
Y70866D01*
X27591Y68669D02*
Y70866D01*
X22591Y65752D02*
Y70866D01*
Y65752D02*
X22594Y65748D01*
X28629Y58280D02*
Y65598D01*
Y58280D02*
X28976Y57932D01*
X32070Y57665D02*
X32677Y57058D01*
X32070Y57665D02*
Y57808D01*
X32677Y49508D02*
Y57058D01*
X32051Y57827D02*
X32070Y57808D01*
X31629Y58251D02*
Y65684D01*
X31890Y65945D01*
X31629Y58251D02*
X31648Y58232D01*
X31898Y59173D02*
X31945Y59126D01*
Y59053D02*
Y59126D01*
Y59053D02*
X31964Y59034D01*
X31898Y59173D02*
Y65501D01*
X31299Y57874D02*
Y64465D01*
X33768Y58382D02*
X33887Y58501D01*
Y60732D01*
X32287Y58371D02*
X32509Y58593D01*
Y60735D01*
X32287Y58362D02*
X33071Y57579D01*
X32287Y58362D02*
Y58371D01*
X40056Y50984D02*
X40650D01*
X35079Y49228D02*
X35816D01*
X35817Y49228D01*
X38169Y50608D02*
X38932Y51370D01*
X36046Y49728D02*
X36047Y49728D01*
X35079Y49728D02*
X36046D01*
X23591Y67744D02*
X23690Y67645D01*
Y67618D02*
Y67645D01*
X23591Y67744D02*
Y70866D01*
X38307Y55151D02*
Y58688D01*
Y59665D02*
X39961Y61319D01*
X38307Y58688D02*
Y59665D01*
X31496Y69855D02*
Y69882D01*
X31299Y69658D02*
X31496Y69855D01*
X35674Y59689D02*
X37303Y61319D01*
X35674Y58668D02*
Y59689D01*
X31299Y64465D02*
Y69658D01*
X35674Y55151D02*
Y58668D01*
X31898Y65501D02*
X32229Y65833D01*
X25636Y52754D02*
Y52797D01*
X25586Y52677D02*
Y52704D01*
X25636Y52754D01*
Y52797D02*
X26322Y53483D01*
X28569D01*
X28619Y53433D01*
X28893D01*
X29134Y53673D01*
X25197Y52704D02*
Y52712D01*
X26218Y53733D02*
X28743D01*
X25197Y52712D02*
X26218Y53733D01*
X32229Y65833D02*
Y65860D01*
D94*
X23201Y52766D02*
Y53947D01*
X22441Y49982D02*
Y52006D01*
X23201Y52766D01*
X22441Y49982D02*
X23201Y49222D01*
D96*
X65370Y67520D02*
D03*
X63370D02*
D03*
X65370Y48228D02*
D03*
X63370D02*
D03*
X65370Y73031D02*
D03*
X63370D02*
D03*
X65472Y53761D02*
D03*
X63472D02*
D03*
X65472Y62029D02*
D03*
X63472D02*
D03*
X65370Y78543D02*
D03*
X63370D02*
D03*
X65472Y59273D02*
D03*
X63472D02*
D03*
X65370Y64764D02*
D03*
X63370D02*
D03*
X65370Y70276D02*
D03*
X63370D02*
D03*
X65370Y50984D02*
D03*
X63370D02*
D03*
X65472Y56517D02*
D03*
X63472D02*
D03*
X65370Y75787D02*
D03*
X63370D02*
D03*
D97*
X30404Y62008D02*
D03*
Y63008D02*
D03*
Y64008D02*
D03*
Y65008D02*
D03*
Y66008D02*
D03*
D98*
Y67008D02*
D03*
D99*
X43839Y74768D02*
D03*
X43740Y54492D02*
D03*
D101*
X23201Y49222D02*
D03*
D102*
Y50404D02*
D03*
X23201Y51585D02*
D03*
X23201Y52766D02*
D03*
Y53947D02*
D03*
Y55128D02*
D03*
Y56309D02*
D03*
Y57490D02*
D03*
X24382Y49222D02*
D03*
X24382Y50404D02*
D03*
Y51585D02*
D03*
X24382Y52766D02*
D03*
Y55128D02*
D03*
Y56309D02*
D03*
Y57490D02*
D03*
Y53947D02*
D03*
D103*
X21500Y50069D02*
D03*
Y56644D02*
D03*
D104*
X51512Y50510D02*
D03*
X51916Y50217D02*
D03*
X52415D02*
D03*
X52818Y50510D02*
D03*
X52972Y50988D02*
D03*
Y51512D02*
D03*
Y52035D02*
D03*
Y52559D02*
D03*
X52818Y53033D02*
D03*
X51916Y53327D02*
D03*
X52415Y53327D02*
D03*
X51512Y53033D02*
D03*
X51358Y50988D02*
D03*
X51358Y51512D02*
D03*
X51358Y52035D02*
D03*
X51358Y52559D02*
D03*
X51512Y54447D02*
D03*
X51916Y54154D02*
D03*
X52415Y54154D02*
D03*
X52818Y54447D02*
D03*
X52972Y54925D02*
D03*
Y55449D02*
D03*
Y55972D02*
D03*
Y56496D02*
D03*
X52818Y56970D02*
D03*
X51916Y57264D02*
D03*
X52415D02*
D03*
X51512Y56970D02*
D03*
X51358Y54925D02*
D03*
X51358Y55449D02*
D03*
Y55972D02*
D03*
Y56496D02*
D03*
X51611Y70785D02*
D03*
X52014Y70492D02*
D03*
X52513D02*
D03*
X52917Y70785D02*
D03*
X53071Y71264D02*
D03*
Y71787D02*
D03*
Y72311D02*
D03*
Y72835D02*
D03*
X52917Y73309D02*
D03*
X52014Y73602D02*
D03*
X52513Y73602D02*
D03*
X51611Y73309D02*
D03*
X51457Y71264D02*
D03*
X51457Y71787D02*
D03*
X51457Y72311D02*
D03*
X51457Y72835D02*
D03*
X51611Y74722D02*
D03*
X52014Y74429D02*
D03*
X52513Y74429D02*
D03*
X52917Y74722D02*
D03*
X53071Y75201D02*
D03*
Y75724D02*
D03*
Y76248D02*
D03*
Y76772D02*
D03*
X52917Y77246D02*
D03*
X52014Y77539D02*
D03*
X52513D02*
D03*
X51611Y77246D02*
D03*
X51457Y75201D02*
D03*
X51457Y75724D02*
D03*
Y76248D02*
D03*
Y76772D02*
D03*
D105*
X52165Y51772D02*
D03*
Y55709D02*
D03*
X52264Y72047D02*
D03*
Y75984D02*
D03*
D106*
X43740Y52988D02*
D03*
X43740Y53740D02*
D03*
X43839Y73264D02*
D03*
X43839Y74016D02*
D03*
D107*
X44694Y56625D02*
D03*
X48710Y57338D02*
D03*
X48181Y57283D02*
D03*
X41417Y66929D02*
D03*
X42754Y68071D02*
D03*
X42989Y69281D02*
D03*
X41380Y72201D02*
D03*
X42138Y74374D02*
D03*
X41902Y75391D02*
D03*
X40910Y77399D02*
D03*
X38957Y77739D02*
D03*
X35435Y74768D02*
D03*
X34311Y77907D02*
D03*
X32087D02*
D03*
X27378Y75069D02*
D03*
Y77035D02*
D03*
Y76058D02*
D03*
X24589Y76241D02*
D03*
X22641Y76247D02*
D03*
X38906Y73087D02*
D03*
X35493Y72034D02*
D03*
X35620Y69882D02*
D03*
X37015Y67099D02*
D03*
X37951Y66008D02*
D03*
X36405Y64319D02*
D03*
X49429Y59798D02*
D03*
X46759Y63536D02*
D03*
X46728Y62175D02*
D03*
X43771Y62187D02*
D03*
X43740Y63546D02*
D03*
X45566Y60757D02*
D03*
X43821Y60341D02*
D03*
X40360Y63503D02*
D03*
X39456Y63495D02*
D03*
X37700Y63503D02*
D03*
X35436Y62187D02*
D03*
X37792Y60789D02*
D03*
X36730Y58140D02*
D03*
X36020Y56929D02*
D03*
X32318Y55906D02*
D03*
X31553D02*
D03*
X47314Y57338D02*
D03*
X46417Y57352D02*
D03*
X45506Y57286D02*
D03*
X45113D02*
D03*
X44241Y58042D02*
D03*
X44254Y57331D02*
D03*
X49087Y48622D02*
D03*
X34823Y62850D02*
D03*
X33445Y62850D02*
D03*
X46614Y56397D02*
D03*
X45367D02*
D03*
X30205Y74127D02*
D03*
X34074Y77200D02*
D03*
X31155Y77462D02*
D03*
X28589Y74087D02*
D03*
X35999Y61345D02*
D03*
X38650Y61326D02*
D03*
X42815Y61913D02*
D03*
X41339D02*
D03*
X49298Y68907D02*
D03*
X34699Y76899D02*
D03*
X34284Y76068D02*
D03*
X33974Y76489D02*
D03*
X33670Y75608D02*
D03*
X34312Y65782D02*
D03*
X35674Y65074D02*
D03*
X36335Y64756D02*
D03*
X35147Y65535D02*
D03*
X66242Y55018D02*
D03*
X65454D02*
D03*
X64667D02*
D03*
X64273Y55806D02*
D03*
X63880Y55018D02*
D03*
X64273Y54231D02*
D03*
X63092Y55018D02*
D03*
X62305Y56593D02*
D03*
X62698Y55806D02*
D03*
X62305Y55018D02*
D03*
X62698Y54231D02*
D03*
X62305Y53443D02*
D03*
X61911Y55806D02*
D03*
X61517Y55018D02*
D03*
X61911Y54231D02*
D03*
X61517Y53443D02*
D03*
X61911Y52656D02*
D03*
X61517Y51869D02*
D03*
X60730Y55018D02*
D03*
X61124Y54231D02*
D03*
X60730Y53443D02*
D03*
X61124Y52656D02*
D03*
X60730Y51869D02*
D03*
X60336Y54231D02*
D03*
X59943Y53443D02*
D03*
X60336Y52656D02*
D03*
X59943Y51869D02*
D03*
Y50294D02*
D03*
X59155Y53443D02*
D03*
X59549Y52656D02*
D03*
Y51081D02*
D03*
X59155Y50294D02*
D03*
X58368Y51869D02*
D03*
Y50294D02*
D03*
X57974Y52656D02*
D03*
X57580Y51869D02*
D03*
X57974Y51081D02*
D03*
X57580Y50294D02*
D03*
X66242Y72341D02*
D03*
Y70766D02*
D03*
X65848Y71554D02*
D03*
X64667Y72341D02*
D03*
X65061Y71554D02*
D03*
X64273D02*
D03*
Y69979D02*
D03*
X63486Y71554D02*
D03*
X62305Y72341D02*
D03*
X62698Y71554D02*
D03*
X62305Y70766D02*
D03*
X61911Y73128D02*
D03*
X61517Y72341D02*
D03*
X61911Y71554D02*
D03*
Y69979D02*
D03*
X61124Y73128D02*
D03*
X60730Y72341D02*
D03*
X61124Y71554D02*
D03*
X60336Y73128D02*
D03*
X59943Y72341D02*
D03*
X60336Y71554D02*
D03*
X59549Y73128D02*
D03*
Y71554D02*
D03*
X59155Y70766D02*
D03*
X59549Y69979D02*
D03*
X58761Y73128D02*
D03*
X58368Y72341D02*
D03*
Y70766D02*
D03*
X58761Y69979D02*
D03*
X57974Y73128D02*
D03*
X57580Y72341D02*
D03*
X57974Y71554D02*
D03*
X57580Y70766D02*
D03*
X57974Y69979D02*
D03*
X55612Y52656D02*
D03*
X55218Y51869D02*
D03*
X55612Y51081D02*
D03*
X55218Y50294D02*
D03*
X54824Y52656D02*
D03*
X54431Y51869D02*
D03*
X54824Y51081D02*
D03*
X54431Y50294D02*
D03*
X54037Y52656D02*
D03*
X53643Y51869D02*
D03*
X54037Y51081D02*
D03*
X53643Y50294D02*
D03*
X56006Y73128D02*
D03*
X55218D02*
D03*
X55612Y72341D02*
D03*
X55218Y71554D02*
D03*
X55612Y70766D02*
D03*
X54431Y73128D02*
D03*
X54824Y72341D02*
D03*
X54431Y71554D02*
D03*
X54824Y70766D02*
D03*
X53643Y73128D02*
D03*
X54037Y72341D02*
D03*
X53643Y71554D02*
D03*
X54037Y70766D02*
D03*
X53250D02*
D03*
X66635Y78640D02*
D03*
X66242Y77853D02*
D03*
X66635Y77065D02*
D03*
X66242Y76278D02*
D03*
X66635Y75491D02*
D03*
X66242Y74703D02*
D03*
X65848Y77065D02*
D03*
X65454Y74703D02*
D03*
X64667Y77853D02*
D03*
X65061Y77065D02*
D03*
X64667Y74703D02*
D03*
X64273Y77065D02*
D03*
Y75491D02*
D03*
X63880Y74703D02*
D03*
X63486Y77065D02*
D03*
X63092Y74703D02*
D03*
X62305Y77853D02*
D03*
X62698Y77065D02*
D03*
X62305Y76278D02*
D03*
Y74703D02*
D03*
X61911Y78640D02*
D03*
X61517Y77853D02*
D03*
X61911Y77065D02*
D03*
X61517Y76278D02*
D03*
X61911Y75491D02*
D03*
X61517Y74703D02*
D03*
X61124Y78640D02*
D03*
X60730Y77853D02*
D03*
X61124Y77065D02*
D03*
X60730Y76278D02*
D03*
X61124Y75491D02*
D03*
X60730Y74703D02*
D03*
X60336Y78640D02*
D03*
X59943Y77853D02*
D03*
X60336Y77065D02*
D03*
X59943Y76278D02*
D03*
X60336Y75491D02*
D03*
X59943Y74703D02*
D03*
X59549Y78640D02*
D03*
X59155Y77853D02*
D03*
X59549Y77065D02*
D03*
X59155Y76278D02*
D03*
X59549Y75491D02*
D03*
X59155Y74703D02*
D03*
X58761Y78640D02*
D03*
X58368Y77853D02*
D03*
X58761Y77065D02*
D03*
X58368Y76278D02*
D03*
X58761Y75491D02*
D03*
X58368Y74703D02*
D03*
X57974Y78640D02*
D03*
X57580Y77853D02*
D03*
X57974Y77065D02*
D03*
X57580Y76278D02*
D03*
X57974Y75491D02*
D03*
X57580Y74703D02*
D03*
X57187Y78640D02*
D03*
X56793Y77853D02*
D03*
X57187Y77065D02*
D03*
X56793Y76278D02*
D03*
X57187Y75491D02*
D03*
X56793Y74703D02*
D03*
X56399Y78640D02*
D03*
X56006Y77853D02*
D03*
X56399Y77065D02*
D03*
X56006Y76278D02*
D03*
X56399Y75491D02*
D03*
X56006Y74703D02*
D03*
X55612Y78640D02*
D03*
X55218Y77853D02*
D03*
X55612Y77065D02*
D03*
X55218Y76278D02*
D03*
X55612Y75491D02*
D03*
X55218Y74703D02*
D03*
X54824Y78640D02*
D03*
X54431Y77853D02*
D03*
X54824Y77065D02*
D03*
X54431Y76278D02*
D03*
X54824Y75491D02*
D03*
X54431Y74703D02*
D03*
X54037Y78640D02*
D03*
X53643Y77853D02*
D03*
X54037Y77065D02*
D03*
X53643Y76278D02*
D03*
X54037Y75491D02*
D03*
X53643Y74703D02*
D03*
X53250Y78640D02*
D03*
X52856Y77853D02*
D03*
X52462Y78640D02*
D03*
X51675D02*
D03*
X51281Y77853D02*
D03*
X66242Y60530D02*
D03*
X65454D02*
D03*
X64667D02*
D03*
X64273Y61317D02*
D03*
X63880Y60530D02*
D03*
X64273Y59743D02*
D03*
X63092Y60530D02*
D03*
X62305Y62105D02*
D03*
X62698Y61317D02*
D03*
X62305Y60530D02*
D03*
X62698Y59743D02*
D03*
X62305Y58955D02*
D03*
X61517Y62105D02*
D03*
X61911Y61317D02*
D03*
X61517Y60530D02*
D03*
X61911Y59743D02*
D03*
X61517Y58955D02*
D03*
X61911Y58168D02*
D03*
X61124Y61317D02*
D03*
Y59743D02*
D03*
X60730Y58955D02*
D03*
X61124Y58168D02*
D03*
X60730Y57380D02*
D03*
X59943Y58955D02*
D03*
X60336Y58168D02*
D03*
X59943Y57380D02*
D03*
X60336Y56593D02*
D03*
X59549Y58168D02*
D03*
X59155Y57380D02*
D03*
X59549Y56593D02*
D03*
X59155Y55806D02*
D03*
X58368Y57380D02*
D03*
X58761Y56593D02*
D03*
X58368Y55806D02*
D03*
X58761Y55018D02*
D03*
X57580Y57380D02*
D03*
X57974Y56593D02*
D03*
X57580Y55806D02*
D03*
X57974Y55018D02*
D03*
X56793Y57380D02*
D03*
X57187Y56593D02*
D03*
X56793Y55806D02*
D03*
X57187Y55018D02*
D03*
X56006Y57380D02*
D03*
X56399Y56593D02*
D03*
X56006Y55806D02*
D03*
X56399Y55018D02*
D03*
X55218Y57380D02*
D03*
X55612Y56593D02*
D03*
X55218Y55806D02*
D03*
X55612Y55018D02*
D03*
X54431Y57380D02*
D03*
X54824Y56593D02*
D03*
X54431Y55806D02*
D03*
X54824Y55018D02*
D03*
X53643Y57380D02*
D03*
X54037Y56593D02*
D03*
X53643Y55806D02*
D03*
X54037Y55018D02*
D03*
X51281Y57380D02*
D03*
X47349Y76673D02*
D03*
X48334Y74705D02*
D03*
X47349Y72736D02*
D03*
X48334Y70768D02*
D03*
Y66831D02*
D03*
Y55020D02*
D03*
X47349Y53051D02*
D03*
X48334Y51083D02*
D03*
X45381Y76673D02*
D03*
X46365Y74705D02*
D03*
X45381Y72736D02*
D03*
X46365Y70768D02*
D03*
Y66831D02*
D03*
X45381Y64862D02*
D03*
X46365Y58957D02*
D03*
Y55020D02*
D03*
X45381Y53051D02*
D03*
X46365Y51083D02*
D03*
X43412Y76673D02*
D03*
X44397Y74705D02*
D03*
Y70768D02*
D03*
Y55020D02*
D03*
Y51083D02*
D03*
X43412Y49114D02*
D03*
X41444Y68799D02*
D03*
X42428Y51083D02*
D03*
X41444Y49114D02*
D03*
X38491Y70768D02*
D03*
X37507Y56988D02*
D03*
X35538Y76673D02*
D03*
Y53051D02*
D03*
X33570D02*
D03*
X31601D02*
D03*
Y49114D02*
D03*
X29633Y64862D02*
D03*
Y60925D02*
D03*
Y53051D02*
D03*
X27664Y72736D02*
D03*
X28649Y66831D02*
D03*
X27664Y64862D02*
D03*
Y60925D02*
D03*
X25696Y72736D02*
D03*
X26680Y66831D02*
D03*
X25696Y64862D02*
D03*
X26680Y62894D02*
D03*
X25696Y60925D02*
D03*
X23727Y72736D02*
D03*
X24712Y66831D02*
D03*
X23727Y64862D02*
D03*
X24712Y62894D02*
D03*
X23727Y60925D02*
D03*
X24712Y58957D02*
D03*
Y51083D02*
D03*
X21759Y72736D02*
D03*
Y68799D02*
D03*
Y64862D02*
D03*
X22743Y62894D02*
D03*
X21759Y60925D02*
D03*
X22743Y58957D02*
D03*
X21759Y53051D02*
D03*
Y49114D02*
D03*
X52772Y67622D02*
D03*
X53249Y48605D02*
D03*
X53246Y47920D02*
D03*
X52182Y68907D02*
D03*
X35531Y75833D02*
D03*
X36122Y74896D02*
D03*
X36404Y68362D02*
D03*
X36122Y70866D02*
D03*
X40430Y74390D02*
D03*
X35493Y75196D02*
D03*
X38421Y74896D02*
D03*
X40596Y73526D02*
D03*
X38053Y73504D02*
D03*
X38080Y76959D02*
D03*
X38018Y77587D02*
D03*
X40431Y76599D02*
D03*
X41433Y76899D02*
D03*
X39414Y77264D02*
D03*
X31693Y78337D02*
D03*
X31093Y78287D02*
D03*
X42874Y49541D02*
D03*
X41929Y73524D02*
D03*
X23579Y73622D02*
D03*
X42628Y68720D02*
D03*
X42323Y73836D02*
D03*
X21586Y74587D02*
D03*
X43198Y56994D02*
D03*
X41713Y56996D02*
D03*
X47758Y56496D02*
D03*
Y57309D02*
D03*
X44707D02*
D03*
X33071Y55922D02*
D03*
X43189Y59547D02*
D03*
X41713Y59547D02*
D03*
X31956Y54864D02*
D03*
X26591Y75591D02*
D03*
X34744Y64917D02*
D03*
X25591Y76772D02*
D03*
X33366Y76575D02*
D03*
Y64917D02*
D03*
X26591Y69375D02*
D03*
X35925Y68669D02*
D03*
X35531D02*
D03*
X27591D02*
D03*
X38681Y63526D02*
D03*
X36818Y63546D02*
D03*
X22594Y65748D02*
D03*
X28629Y65598D02*
D03*
X28976Y57932D02*
D03*
X32051Y57827D02*
D03*
X32677Y49508D02*
D03*
X31964Y59034D02*
D03*
X31648Y58232D02*
D03*
X32509Y60735D02*
D03*
X33887Y60732D02*
D03*
X33768Y58363D02*
D03*
X32287Y58371D02*
D03*
X33071Y48228D02*
D03*
X40650Y50984D02*
D03*
X35079Y49228D02*
D03*
X40650Y52082D02*
D03*
X35079Y49728D02*
D03*
X23690Y67618D02*
D03*
X39961Y61319D02*
D03*
X38307Y58688D02*
D03*
X31496Y71791D02*
D03*
Y69882D02*
D03*
X37303Y61319D02*
D03*
X38307Y55151D02*
D03*
X35674D02*
D03*
Y58668D02*
D03*
X31299Y64465D02*
D03*
X25586Y52677D02*
D03*
X29134Y53673D02*
D03*
X25197Y52704D02*
D03*
X28743Y53733D02*
D03*
X32229Y65860D02*
D03*
X31890Y65945D02*
D03*
D108*
X38433Y78329D02*
D03*
X29589Y78287D02*
D03*
X28591Y70866D02*
D03*
X39083Y66929D02*
D03*
X38083Y66929D02*
D03*
X29591Y70866D02*
D03*
X27591D02*
D03*
X26591D02*
D03*
X25591D02*
D03*
X24591D02*
D03*
X23591D02*
D03*
X22591D02*
D03*
X21591D02*
D03*
X41433Y78329D02*
D03*
X40433D02*
D03*
X39433D02*
D03*
X37433D02*
D03*
X36433D02*
D03*
X35433D02*
D03*
X21589Y78287D02*
D03*
X22589D02*
D03*
X23589D02*
D03*
X24589D02*
D03*
X25589D02*
D03*
X26589D02*
D03*
X28589D02*
D03*
X27589D02*
D03*
D109*
X29484Y73087D02*
D03*
Y77087D02*
D03*
Y76087D02*
D03*
Y75087D02*
D03*
Y74087D02*
D03*
Y72087D02*
D03*
M02*
