G04*
G04 #@! TF.GenerationSoftware,Altium Limited,Altium Designer,25.8.1 (18)*
G04*
G04 Layer_Color=16711935*
%FSLAX24Y24*%
%MOIN*%
G70*
G04*
G04 #@! TF.SameCoordinates,CAC9E776-8FA5-4F56-8978-DDDC26C1521C*
G04*
G04*
G04 #@! TF.FilePolarity,Negative*
G04*
G01*
G75*
%ADD20C,0.0100*%
%ADD79O,0.1580X0.1330*%
%ADD80C,0.0080*%
%ADD81C,0.0700*%
%ADD82R,0.0700X0.0700*%
%ADD83R,0.0671X0.0671*%
%ADD85R,0.0658X0.0658*%
%ADD86C,0.0658*%
%ADD87C,0.1241*%
%ADD88C,0.0395*%
%ADD89C,0.0671*%
%ADD110O,0.0680X0.0830*%
%ADD111O,0.0830X0.0680*%
G36*
X66535Y58268D02*
X62205D01*
X58268Y54134D01*
X53094D01*
X53068Y54105D01*
X53040Y54076D01*
X53011Y54047D01*
X52982Y54019D01*
X52950Y53993D01*
X52919Y53967D01*
X52886Y53943D01*
X52853Y53920D01*
X52819Y53898D01*
X51512D01*
X51478Y53920D01*
X51444Y53943D01*
X51412Y53967D01*
X51380Y53993D01*
X51349Y54019D01*
X51319Y54047D01*
X51291Y54076D01*
X51263Y54105D01*
X51235Y54135D01*
X51209Y54167D01*
X51185Y54199D01*
X51161Y54232D01*
X51138Y54266D01*
X51117Y54300D01*
X51096Y54336D01*
X51077Y54372D01*
X51059Y54408D01*
X51043Y54445D01*
X51027Y54483D01*
X51013Y54521D01*
X51000Y54560D01*
X50989Y54599D01*
X50978Y54639D01*
X50970Y54678D01*
X50962Y54718D01*
X50956Y54758D01*
X50951Y54799D01*
X50948Y54839D01*
X50946Y54880D01*
X50945Y54921D01*
Y55709D01*
Y56496D01*
X50946Y56560D01*
X50952Y56624D01*
X50960Y56687D01*
X50972Y56750D01*
X50987Y56812D01*
X51005Y56873D01*
X51026Y56933D01*
X51050Y56993D01*
X51078Y57050D01*
X51108Y57106D01*
X51142Y57161D01*
X51178Y57213D01*
X51181Y57217D01*
Y57283D01*
X51181D01*
X51968Y58071D01*
X58661D01*
X60827Y60236D01*
Y62008D01*
X61417Y62598D01*
X66535D01*
Y58268D01*
D02*
G37*
G36*
Y52559D02*
X62205D01*
X61811Y52165D01*
Y50197D01*
X61417Y49803D01*
X57480D01*
X57087Y50197D01*
Y52953D01*
X57480Y53346D01*
X58661D01*
X62795Y57480D01*
X66514D01*
X66535Y57502D01*
Y52559D01*
D02*
G37*
G36*
X52853Y53561D02*
X52886Y53537D01*
X52919Y53513D01*
X52950Y53487D01*
X52982Y53461D01*
X53011Y53433D01*
X53040Y53405D01*
X53068Y53375D01*
X53094Y53346D01*
X55906D01*
X56299Y52953D01*
Y50000D01*
X56102Y49803D01*
X52471D01*
X52419Y49791D01*
X52356Y49779D01*
X52293Y49770D01*
X52229Y49765D01*
X52165Y49764D01*
X52102Y49765D01*
X52038Y49770D01*
X51974Y49779D01*
X51911Y49791D01*
X51859Y49803D01*
X51575D01*
X51181Y50197D01*
Y50263D01*
X51178Y50267D01*
X51142Y50320D01*
X51108Y50374D01*
X51078Y50430D01*
X51050Y50488D01*
X51026Y50547D01*
X51005Y50607D01*
X50987Y50669D01*
X50972Y50730D01*
X50960Y50793D01*
X50952Y50857D01*
X50946Y50920D01*
X50945Y50984D01*
Y51772D01*
Y52559D01*
X50946Y52600D01*
X50948Y52641D01*
X50951Y52681D01*
X50956Y52722D01*
X50962Y52762D01*
X50970Y52802D01*
X50978Y52842D01*
X50989Y52881D01*
X51000Y52920D01*
X51013Y52959D01*
X51027Y52997D01*
X51043Y53035D01*
X51059Y53072D01*
X51077Y53109D01*
X51096Y53144D01*
X51117Y53180D01*
X51138Y53215D01*
X51161Y53248D01*
X51185Y53281D01*
X51209Y53313D01*
X51235Y53345D01*
X51263Y53375D01*
X51291Y53405D01*
X51319Y53433D01*
X51349Y53461D01*
X51380Y53487D01*
X51412Y53513D01*
X51444Y53537D01*
X51478Y53561D01*
X51512Y53583D01*
X52819D01*
X52853Y53561D01*
D02*
G37*
G36*
X66535Y74409D02*
X53192D01*
X53167Y74381D01*
X53139Y74351D01*
X53110Y74322D01*
X53080Y74295D01*
X53049Y74268D01*
X53017Y74243D01*
X52985Y74219D01*
X52951Y74195D01*
X52917Y74173D01*
X51610D01*
X51576Y74195D01*
X51543Y74219D01*
X51511Y74243D01*
X51479Y74268D01*
X51448Y74295D01*
X51418Y74322D01*
X51389Y74351D01*
X51361Y74381D01*
X51334Y74411D01*
X51308Y74443D01*
X51283Y74475D01*
X51259Y74508D01*
X51237Y74541D01*
X51215Y74576D01*
X51194Y74611D01*
X51176Y74647D01*
X51157Y74684D01*
X51141Y74721D01*
X51126Y74759D01*
X51111Y74797D01*
X51098Y74835D01*
X51087Y74874D01*
X51077Y74914D01*
X51068Y74954D01*
X51061Y74994D01*
X51054Y75034D01*
X51050Y75074D01*
X51046Y75115D01*
X51044Y75156D01*
X51043Y75197D01*
Y75984D01*
Y76772D01*
X51045Y76835D01*
X51050Y76899D01*
X51058Y76963D01*
X51070Y77026D01*
X51085Y77087D01*
X51103Y77149D01*
X51124Y77209D01*
X51149Y77268D01*
X51176Y77326D01*
X51181Y77334D01*
Y78346D01*
X51968Y79134D01*
X66535D01*
Y74409D01*
D02*
G37*
G36*
X52951Y73836D02*
X52985Y73813D01*
X53017Y73789D01*
X53049Y73763D01*
X53080Y73737D01*
X53110Y73709D01*
X53139Y73680D01*
X53167Y73651D01*
X53192Y73622D01*
X55709D01*
X56299Y73032D01*
Y70669D01*
X55709Y70079D01*
X52570D01*
X52518Y70066D01*
X52455Y70054D01*
X52391Y70046D01*
X52328Y70041D01*
X52264Y70039D01*
X52200Y70041D01*
X52136Y70046D01*
X52073Y70054D01*
X52010Y70066D01*
X51958Y70079D01*
X51772D01*
X51638Y70212D01*
X51599Y70236D01*
X51546Y70272D01*
X51496Y70311D01*
X51447Y70353D01*
X51401Y70397D01*
X51357Y70443D01*
X51315Y70492D01*
X51276Y70543D01*
X51240Y70595D01*
X51216Y70634D01*
X51181Y70669D01*
Y70697D01*
X51176Y70706D01*
X51149Y70763D01*
X51124Y70822D01*
X51103Y70883D01*
X51085Y70944D01*
X51070Y71006D01*
X51058Y71069D01*
X51050Y71132D01*
X51045Y71196D01*
X51043Y71260D01*
Y72047D01*
Y72835D01*
X51044Y72876D01*
X51046Y72917D01*
X51050Y72957D01*
X51054Y72998D01*
X51061Y73038D01*
X51068Y73078D01*
X51077Y73117D01*
X51087Y73157D01*
X51098Y73196D01*
X51111Y73235D01*
X51126Y73273D01*
X51141Y73311D01*
X51157Y73348D01*
X51176Y73384D01*
X51194Y73420D01*
X51215Y73456D01*
X51237Y73490D01*
X51259Y73524D01*
X51283Y73557D01*
X51308Y73589D01*
X51334Y73620D01*
X51361Y73651D01*
X51389Y73680D01*
X51418Y73709D01*
X51448Y73737D01*
X51479Y73763D01*
X51511Y73789D01*
X51543Y73813D01*
X51576Y73836D01*
X51610Y73858D01*
X52917D01*
X52951Y73836D01*
D02*
G37*
G36*
X66535Y69094D02*
X57677D01*
X57087Y69685D01*
Y73228D01*
X57480Y73622D01*
X66535D01*
Y69094D01*
D02*
G37*
D20*
X49600Y47500D02*
Y79200D01*
X49547Y47500D02*
X49600D01*
X20000D02*
X49547D01*
X20000Y79200D02*
X20000Y47500D01*
X20000Y79200D02*
X49564D01*
D79*
X65370Y67520D02*
D03*
X63370D02*
D03*
X65370Y48228D02*
D03*
X63370D02*
D03*
X65370Y73031D02*
D03*
X63370D02*
D03*
X65472Y53761D02*
D03*
X63472D02*
D03*
X65472Y62029D02*
D03*
X63472D02*
D03*
X65370Y78543D02*
D03*
X63370D02*
D03*
X65472Y59273D02*
D03*
X63472D02*
D03*
X65370Y64764D02*
D03*
X63370D02*
D03*
X65370Y70276D02*
D03*
X63370D02*
D03*
X65370Y50984D02*
D03*
X63370D02*
D03*
X65472Y56517D02*
D03*
X63472D02*
D03*
X65370Y75787D02*
D03*
X63370D02*
D03*
D80*
X57874Y65551D02*
D03*
Y60433D02*
D03*
X25197Y59941D02*
D03*
Y69075D02*
D03*
D81*
X30404Y62008D02*
D03*
Y63008D02*
D03*
Y64008D02*
D03*
Y65008D02*
D03*
Y66008D02*
D03*
D82*
Y67008D02*
D03*
D83*
X43839Y74768D02*
D03*
X43740Y54492D02*
D03*
D85*
X23201Y49222D02*
D03*
D86*
Y50404D02*
D03*
X23201Y51585D02*
D03*
X23201Y52766D02*
D03*
Y53947D02*
D03*
Y55128D02*
D03*
Y56309D02*
D03*
Y57490D02*
D03*
X24382Y49222D02*
D03*
X24382Y50404D02*
D03*
Y51585D02*
D03*
X24382Y52766D02*
D03*
Y55128D02*
D03*
Y56309D02*
D03*
Y57490D02*
D03*
Y53947D02*
D03*
D87*
X21500Y50069D02*
D03*
Y56644D02*
D03*
D88*
X51512Y50510D02*
D03*
X51916Y50217D02*
D03*
X52415D02*
D03*
X52818Y50510D02*
D03*
X52972Y50988D02*
D03*
Y51512D02*
D03*
Y52035D02*
D03*
Y52559D02*
D03*
X52818Y53033D02*
D03*
X51916Y53327D02*
D03*
X52415Y53327D02*
D03*
X51512Y53033D02*
D03*
X51358Y50988D02*
D03*
X51358Y51512D02*
D03*
X51358Y52035D02*
D03*
X51358Y52559D02*
D03*
X51512Y54447D02*
D03*
X51916Y54154D02*
D03*
X52415Y54154D02*
D03*
X52818Y54447D02*
D03*
X52972Y54925D02*
D03*
Y55449D02*
D03*
Y55972D02*
D03*
Y56496D02*
D03*
X52818Y56970D02*
D03*
X51916Y57264D02*
D03*
X52415D02*
D03*
X51512Y56970D02*
D03*
X51358Y54925D02*
D03*
X51358Y55449D02*
D03*
Y55972D02*
D03*
Y56496D02*
D03*
X51611Y70785D02*
D03*
X52014Y70492D02*
D03*
X52513D02*
D03*
X52917Y70785D02*
D03*
X53071Y71264D02*
D03*
Y71787D02*
D03*
Y72311D02*
D03*
Y72835D02*
D03*
X52917Y73309D02*
D03*
X52014Y73602D02*
D03*
X52513Y73602D02*
D03*
X51611Y73309D02*
D03*
X51457Y71264D02*
D03*
X51457Y71787D02*
D03*
X51457Y72311D02*
D03*
X51457Y72835D02*
D03*
X51611Y74722D02*
D03*
X52014Y74429D02*
D03*
X52513Y74429D02*
D03*
X52917Y74722D02*
D03*
X53071Y75201D02*
D03*
Y75724D02*
D03*
Y76248D02*
D03*
Y76772D02*
D03*
X52917Y77246D02*
D03*
X52014Y77539D02*
D03*
X52513D02*
D03*
X51611Y77246D02*
D03*
X51457Y75201D02*
D03*
X51457Y75724D02*
D03*
Y76248D02*
D03*
Y76772D02*
D03*
D89*
X43740Y52988D02*
D03*
X43740Y53740D02*
D03*
X43839Y73264D02*
D03*
X43839Y74016D02*
D03*
D110*
X38433Y78329D02*
D03*
X29589Y78287D02*
D03*
X28591Y70866D02*
D03*
X39083Y66929D02*
D03*
X38083Y66929D02*
D03*
X29591Y70866D02*
D03*
X27591D02*
D03*
X26591D02*
D03*
X25591D02*
D03*
X24591D02*
D03*
X23591D02*
D03*
X22591D02*
D03*
X21591D02*
D03*
X41433Y78329D02*
D03*
X40433D02*
D03*
X39433D02*
D03*
X37433D02*
D03*
X36433D02*
D03*
X35433D02*
D03*
X21589Y78287D02*
D03*
X22589D02*
D03*
X23589D02*
D03*
X24589D02*
D03*
X25589D02*
D03*
X26589D02*
D03*
X28589D02*
D03*
X27589D02*
D03*
D111*
X29484Y73087D02*
D03*
Y77087D02*
D03*
Y76087D02*
D03*
Y75087D02*
D03*
Y74087D02*
D03*
Y72087D02*
D03*
M02*
