G04*
G04 #@! TF.GenerationSoftware,Altium Limited,Altium Designer,25.8.1 (18)*
G04*
G04 Layer_Physical_Order=1*
G04 Layer_Color=255*
%FSLAX24Y24*%
%MOIN*%
G70*
G04*
G04 #@! TF.SameCoordinates,CAC9E776-8FA5-4F56-8978-DDDC26C1521C*
G04*
G04*
G04 #@! TF.FilePolarity,Positive*
G04*
G01*
G75*
%ADD22C,0.0394*%
G04:AMPARAMS|DCode=23|XSize=39.4mil|YSize=35.4mil|CornerRadius=5.3mil|HoleSize=0mil|Usage=FLASHONLY|Rotation=180.000|XOffset=0mil|YOffset=0mil|HoleType=Round|Shape=RoundedRectangle|*
%AMROUNDEDRECTD23*
21,1,0.0394,0.0248,0,0,180.0*
21,1,0.0287,0.0354,0,0,180.0*
1,1,0.0106,-0.0144,0.0124*
1,1,0.0106,0.0144,0.0124*
1,1,0.0106,0.0144,-0.0124*
1,1,0.0106,-0.0144,-0.0124*
%
%ADD23ROUNDEDRECTD23*%
G04:AMPARAMS|DCode=24|XSize=57.1mil|YSize=139.8mil|CornerRadius=14.3mil|HoleSize=0mil|Usage=FLASHONLY|Rotation=90.000|XOffset=0mil|YOffset=0mil|HoleType=Round|Shape=RoundedRectangle|*
%AMROUNDEDRECTD24*
21,1,0.0571,0.1112,0,0,90.0*
21,1,0.0285,0.1398,0,0,90.0*
1,1,0.0285,0.0556,0.0143*
1,1,0.0285,0.0556,-0.0143*
1,1,0.0285,-0.0556,-0.0143*
1,1,0.0285,-0.0556,0.0143*
%
%ADD24ROUNDEDRECTD24*%
G04:AMPARAMS|DCode=25|XSize=39.4mil|YSize=35.4mil|CornerRadius=5.3mil|HoleSize=0mil|Usage=FLASHONLY|Rotation=270.000|XOffset=0mil|YOffset=0mil|HoleType=Round|Shape=RoundedRectangle|*
%AMROUNDEDRECTD25*
21,1,0.0394,0.0248,0,0,270.0*
21,1,0.0287,0.0354,0,0,270.0*
1,1,0.0106,-0.0124,-0.0144*
1,1,0.0106,-0.0124,0.0144*
1,1,0.0106,0.0124,0.0144*
1,1,0.0106,0.0124,-0.0144*
%
%ADD25ROUNDEDRECTD25*%
G04:AMPARAMS|DCode=26|XSize=23.6mil|YSize=39.4mil|CornerRadius=3.5mil|HoleSize=0mil|Usage=FLASHONLY|Rotation=90.000|XOffset=0mil|YOffset=0mil|HoleType=Round|Shape=RoundedRectangle|*
%AMROUNDEDRECTD26*
21,1,0.0236,0.0323,0,0,90.0*
21,1,0.0165,0.0394,0,0,90.0*
1,1,0.0071,0.0161,0.0083*
1,1,0.0071,0.0161,-0.0083*
1,1,0.0071,-0.0161,-0.0083*
1,1,0.0071,-0.0161,0.0083*
%
%ADD26ROUNDEDRECTD26*%
G04:AMPARAMS|DCode=27|XSize=70.9mil|YSize=55.1mil|CornerRadius=8.3mil|HoleSize=0mil|Usage=FLASHONLY|Rotation=180.000|XOffset=0mil|YOffset=0mil|HoleType=Round|Shape=RoundedRectangle|*
%AMROUNDEDRECTD27*
21,1,0.0709,0.0386,0,0,180.0*
21,1,0.0543,0.0551,0,0,180.0*
1,1,0.0165,-0.0272,0.0193*
1,1,0.0165,0.0272,0.0193*
1,1,0.0165,0.0272,-0.0193*
1,1,0.0165,-0.0272,-0.0193*
%
%ADD27ROUNDEDRECTD27*%
G04:AMPARAMS|DCode=28|XSize=75.2mil|YSize=23.6mil|CornerRadius=3mil|HoleSize=0mil|Usage=FLASHONLY|Rotation=90.000|XOffset=0mil|YOffset=0mil|HoleType=Round|Shape=RoundedRectangle|*
%AMROUNDEDRECTD28*
21,1,0.0752,0.0177,0,0,90.0*
21,1,0.0693,0.0236,0,0,90.0*
1,1,0.0059,0.0089,0.0346*
1,1,0.0059,0.0089,-0.0346*
1,1,0.0059,-0.0089,-0.0346*
1,1,0.0059,-0.0089,0.0346*
%
%ADD28ROUNDEDRECTD28*%
G04:AMPARAMS|DCode=29|XSize=68.9mil|YSize=23.2mil|CornerRadius=2.9mil|HoleSize=0mil|Usage=FLASHONLY|Rotation=0.000|XOffset=0mil|YOffset=0mil|HoleType=Round|Shape=RoundedRectangle|*
%AMROUNDEDRECTD29*
21,1,0.0689,0.0174,0,0,0.0*
21,1,0.0631,0.0232,0,0,0.0*
1,1,0.0058,0.0315,-0.0087*
1,1,0.0058,-0.0315,-0.0087*
1,1,0.0058,-0.0315,0.0087*
1,1,0.0058,0.0315,0.0087*
%
%ADD29ROUNDEDRECTD29*%
G04:AMPARAMS|DCode=30|XSize=57.1mil|YSize=139.8mil|CornerRadius=14.3mil|HoleSize=0mil|Usage=FLASHONLY|Rotation=180.000|XOffset=0mil|YOffset=0mil|HoleType=Round|Shape=RoundedRectangle|*
%AMROUNDEDRECTD30*
21,1,0.0571,0.1112,0,0,180.0*
21,1,0.0285,0.1398,0,0,180.0*
1,1,0.0285,-0.0143,0.0556*
1,1,0.0285,0.0143,0.0556*
1,1,0.0285,0.0143,-0.0556*
1,1,0.0285,-0.0143,-0.0556*
%
%ADD30ROUNDEDRECTD30*%
G04:AMPARAMS|DCode=31|XSize=23.6mil|YSize=35.4mil|CornerRadius=5.9mil|HoleSize=0mil|Usage=FLASHONLY|Rotation=0.000|XOffset=0mil|YOffset=0mil|HoleType=Round|Shape=RoundedRectangle|*
%AMROUNDEDRECTD31*
21,1,0.0236,0.0236,0,0,0.0*
21,1,0.0118,0.0354,0,0,0.0*
1,1,0.0118,0.0059,-0.0118*
1,1,0.0118,-0.0059,-0.0118*
1,1,0.0118,-0.0059,0.0118*
1,1,0.0118,0.0059,0.0118*
%
%ADD31ROUNDEDRECTD31*%
%ADD32O,0.0650X0.0256*%
G04:AMPARAMS|DCode=33|XSize=23.6mil|YSize=35.4mil|CornerRadius=5.9mil|HoleSize=0mil|Usage=FLASHONLY|Rotation=270.000|XOffset=0mil|YOffset=0mil|HoleType=Round|Shape=RoundedRectangle|*
%AMROUNDEDRECTD33*
21,1,0.0236,0.0236,0,0,270.0*
21,1,0.0118,0.0354,0,0,270.0*
1,1,0.0118,-0.0118,-0.0059*
1,1,0.0118,-0.0118,0.0059*
1,1,0.0118,0.0118,0.0059*
1,1,0.0118,0.0118,-0.0059*
%
%ADD33ROUNDEDRECTD33*%
G04:AMPARAMS|DCode=34|XSize=196.9mil|YSize=116.1mil|CornerRadius=29mil|HoleSize=0mil|Usage=FLASHONLY|Rotation=270.000|XOffset=0mil|YOffset=0mil|HoleType=Round|Shape=RoundedRectangle|*
%AMROUNDEDRECTD34*
21,1,0.1969,0.0581,0,0,270.0*
21,1,0.1388,0.1161,0,0,270.0*
1,1,0.0581,-0.0290,-0.0694*
1,1,0.0581,-0.0290,0.0694*
1,1,0.0581,0.0290,0.0694*
1,1,0.0581,0.0290,-0.0694*
%
%ADD34ROUNDEDRECTD34*%
G04:AMPARAMS|DCode=35|XSize=66.9mil|YSize=90.6mil|CornerRadius=10mil|HoleSize=0mil|Usage=FLASHONLY|Rotation=270.000|XOffset=0mil|YOffset=0mil|HoleType=Round|Shape=RoundedRectangle|*
%AMROUNDEDRECTD35*
21,1,0.0669,0.0705,0,0,270.0*
21,1,0.0469,0.0906,0,0,270.0*
1,1,0.0201,-0.0352,-0.0234*
1,1,0.0201,-0.0352,0.0234*
1,1,0.0201,0.0352,0.0234*
1,1,0.0201,0.0352,-0.0234*
%
%ADD35ROUNDEDRECTD35*%
G04:AMPARAMS|DCode=37|XSize=66.9mil|YSize=98.4mil|CornerRadius=10mil|HoleSize=0mil|Usage=FLASHONLY|Rotation=270.000|XOffset=0mil|YOffset=0mil|HoleType=Round|Shape=RoundedRectangle|*
%AMROUNDEDRECTD37*
21,1,0.0669,0.0783,0,0,270.0*
21,1,0.0469,0.0984,0,0,270.0*
1,1,0.0201,-0.0392,-0.0234*
1,1,0.0201,-0.0392,0.0234*
1,1,0.0201,0.0392,0.0234*
1,1,0.0201,0.0392,-0.0234*
%
%ADD37ROUNDEDRECTD37*%
G04:AMPARAMS|DCode=38|XSize=39.4mil|YSize=110.2mil|CornerRadius=9.8mil|HoleSize=0mil|Usage=FLASHONLY|Rotation=180.000|XOffset=0mil|YOffset=0mil|HoleType=Round|Shape=RoundedRectangle|*
%AMROUNDEDRECTD38*
21,1,0.0394,0.0906,0,0,180.0*
21,1,0.0197,0.1102,0,0,180.0*
1,1,0.0197,-0.0098,0.0453*
1,1,0.0197,0.0098,0.0453*
1,1,0.0197,0.0098,-0.0453*
1,1,0.0197,-0.0098,-0.0453*
%
%ADD38ROUNDEDRECTD38*%
G04:AMPARAMS|DCode=39|XSize=70.9mil|YSize=63mil|CornerRadius=9.4mil|HoleSize=0mil|Usage=FLASHONLY|Rotation=0.000|XOffset=0mil|YOffset=0mil|HoleType=Round|Shape=RoundedRectangle|*
%AMROUNDEDRECTD39*
21,1,0.0709,0.0441,0,0,0.0*
21,1,0.0520,0.0630,0,0,0.0*
1,1,0.0189,0.0260,-0.0220*
1,1,0.0189,-0.0260,-0.0220*
1,1,0.0189,-0.0260,0.0220*
1,1,0.0189,0.0260,0.0220*
%
%ADD39ROUNDEDRECTD39*%
G04:AMPARAMS|DCode=40|XSize=31.5mil|YSize=63mil|CornerRadius=4.7mil|HoleSize=0mil|Usage=FLASHONLY|Rotation=180.000|XOffset=0mil|YOffset=0mil|HoleType=Round|Shape=RoundedRectangle|*
%AMROUNDEDRECTD40*
21,1,0.0315,0.0535,0,0,180.0*
21,1,0.0220,0.0630,0,0,180.0*
1,1,0.0094,-0.0110,0.0268*
1,1,0.0094,0.0110,0.0268*
1,1,0.0094,0.0110,-0.0268*
1,1,0.0094,-0.0110,-0.0268*
%
%ADD40ROUNDEDRECTD40*%
G04:AMPARAMS|DCode=41|XSize=19.7mil|YSize=19.7mil|CornerRadius=4.9mil|HoleSize=0mil|Usage=FLASHONLY|Rotation=0.000|XOffset=0mil|YOffset=0mil|HoleType=Round|Shape=RoundedRectangle|*
%AMROUNDEDRECTD41*
21,1,0.0197,0.0098,0,0,0.0*
21,1,0.0098,0.0197,0,0,0.0*
1,1,0.0098,0.0049,-0.0049*
1,1,0.0098,-0.0049,-0.0049*
1,1,0.0098,-0.0049,0.0049*
1,1,0.0098,0.0049,0.0049*
%
%ADD41ROUNDEDRECTD41*%
G04:AMPARAMS|DCode=42|XSize=25.6mil|YSize=47.2mil|CornerRadius=6.4mil|HoleSize=0mil|Usage=FLASHONLY|Rotation=0.000|XOffset=0mil|YOffset=0mil|HoleType=Round|Shape=RoundedRectangle|*
%AMROUNDEDRECTD42*
21,1,0.0256,0.0344,0,0,0.0*
21,1,0.0128,0.0472,0,0,0.0*
1,1,0.0128,0.0064,-0.0172*
1,1,0.0128,-0.0064,-0.0172*
1,1,0.0128,-0.0064,0.0172*
1,1,0.0128,0.0064,0.0172*
%
%ADD42ROUNDEDRECTD42*%
G04:AMPARAMS|DCode=43|XSize=59.1mil|YSize=43.3mil|CornerRadius=6.5mil|HoleSize=0mil|Usage=FLASHONLY|Rotation=90.000|XOffset=0mil|YOffset=0mil|HoleType=Round|Shape=RoundedRectangle|*
%AMROUNDEDRECTD43*
21,1,0.0591,0.0303,0,0,90.0*
21,1,0.0461,0.0433,0,0,90.0*
1,1,0.0130,0.0152,0.0230*
1,1,0.0130,0.0152,-0.0230*
1,1,0.0130,-0.0152,-0.0230*
1,1,0.0130,-0.0152,0.0230*
%
%ADD43ROUNDEDRECTD43*%
G04:AMPARAMS|DCode=44|XSize=43.3mil|YSize=66.9mil|CornerRadius=10.8mil|HoleSize=0mil|Usage=FLASHONLY|Rotation=0.000|XOffset=0mil|YOffset=0mil|HoleType=Round|Shape=RoundedRectangle|*
%AMROUNDEDRECTD44*
21,1,0.0433,0.0453,0,0,0.0*
21,1,0.0217,0.0669,0,0,0.0*
1,1,0.0217,0.0108,-0.0226*
1,1,0.0217,-0.0108,-0.0226*
1,1,0.0217,-0.0108,0.0226*
1,1,0.0217,0.0108,0.0226*
%
%ADD44ROUNDEDRECTD44*%
%ADD45O,0.0256X0.0650*%
G04:AMPARAMS|DCode=46|XSize=150mil|YSize=109.8mil|CornerRadius=16.5mil|HoleSize=0mil|Usage=FLASHONLY|Rotation=180.000|XOffset=0mil|YOffset=0mil|HoleType=Round|Shape=RoundedRectangle|*
%AMROUNDEDRECTD46*
21,1,0.1500,0.0769,0,0,180.0*
21,1,0.1170,0.1098,0,0,180.0*
1,1,0.0330,-0.0585,0.0384*
1,1,0.0330,0.0585,0.0384*
1,1,0.0330,0.0585,-0.0384*
1,1,0.0330,-0.0585,-0.0384*
%
%ADD46ROUNDEDRECTD46*%
G04:AMPARAMS|DCode=47|XSize=19.7mil|YSize=19.7mil|CornerRadius=4.9mil|HoleSize=0mil|Usage=FLASHONLY|Rotation=270.000|XOffset=0mil|YOffset=0mil|HoleType=Round|Shape=RoundedRectangle|*
%AMROUNDEDRECTD47*
21,1,0.0197,0.0098,0,0,270.0*
21,1,0.0098,0.0197,0,0,270.0*
1,1,0.0098,-0.0049,-0.0049*
1,1,0.0098,-0.0049,0.0049*
1,1,0.0098,0.0049,0.0049*
1,1,0.0098,0.0049,-0.0049*
%
%ADD47ROUNDEDRECTD47*%
G04:AMPARAMS|DCode=48|XSize=25.6mil|YSize=47.2mil|CornerRadius=6.4mil|HoleSize=0mil|Usage=FLASHONLY|Rotation=270.000|XOffset=0mil|YOffset=0mil|HoleType=Round|Shape=RoundedRectangle|*
%AMROUNDEDRECTD48*
21,1,0.0256,0.0344,0,0,270.0*
21,1,0.0128,0.0472,0,0,270.0*
1,1,0.0128,-0.0172,-0.0064*
1,1,0.0128,-0.0172,0.0064*
1,1,0.0128,0.0172,0.0064*
1,1,0.0128,0.0172,-0.0064*
%
%ADD48ROUNDEDRECTD48*%
G04:AMPARAMS|DCode=49|XSize=23.6mil|YSize=27.6mil|CornerRadius=5.9mil|HoleSize=0mil|Usage=FLASHONLY|Rotation=0.000|XOffset=0mil|YOffset=0mil|HoleType=Round|Shape=RoundedRectangle|*
%AMROUNDEDRECTD49*
21,1,0.0236,0.0157,0,0,0.0*
21,1,0.0118,0.0276,0,0,0.0*
1,1,0.0118,0.0059,-0.0079*
1,1,0.0118,-0.0059,-0.0079*
1,1,0.0118,-0.0059,0.0079*
1,1,0.0118,0.0059,0.0079*
%
%ADD49ROUNDEDRECTD49*%
G04:AMPARAMS|DCode=90|XSize=98mil|YSize=118mil|CornerRadius=24.5mil|HoleSize=0mil|Usage=FLASHONLY|Rotation=0.000|XOffset=0mil|YOffset=0mil|HoleType=Round|Shape=RoundedRectangle|*
%AMROUNDEDRECTD90*
21,1,0.0980,0.0690,0,0,0.0*
21,1,0.0490,0.1180,0,0,0.0*
1,1,0.0490,0.0245,-0.0345*
1,1,0.0490,-0.0245,-0.0345*
1,1,0.0490,-0.0245,0.0345*
1,1,0.0490,0.0245,0.0345*
%
%ADD90ROUNDEDRECTD90*%
%ADD91C,0.0150*%
%ADD92C,0.0250*%
%ADD93C,0.0600*%
%ADD94C,0.0350*%
%ADD95C,0.0400*%
%ADD96O,0.1500X0.1250*%
%ADD97C,0.0620*%
%ADD98R,0.0620X0.0620*%
%ADD99R,0.0591X0.0591*%
%ADD100C,0.0600*%
%ADD101R,0.0598X0.0598*%
%ADD102C,0.0598*%
%ADD103C,0.1181*%
%ADD104C,0.0315*%
%ADD105O,0.1772X0.3543*%
%ADD106C,0.0591*%
%ADD107C,0.0250*%
G36*
X66769Y74213D02*
X52731D01*
X52731Y74213D01*
X51796D01*
X51796Y74213D01*
X51378D01*
X50984Y74606D01*
Y78543D01*
X51808Y79367D01*
X66769D01*
Y74213D01*
D02*
G37*
G36*
X52917Y73819D02*
X55906D01*
X56496Y73228D01*
Y71654D01*
X55906D01*
Y71432D01*
X55894Y71414D01*
X55881Y71350D01*
Y71222D01*
X55894Y71158D01*
X55906Y71141D01*
Y69882D01*
X51575D01*
X50984Y70472D01*
Y73425D01*
X51378Y73819D01*
X51610D01*
X51610Y73819D01*
X52917D01*
X52917Y73819D01*
D02*
G37*
G36*
X49695Y70356D02*
Y69643D01*
Y69460D01*
X49598D01*
Y69507D01*
X49035Y69507D01*
Y69507D01*
X49029Y69502D01*
X49026Y69503D01*
X48789D01*
X48727Y69490D01*
X48682Y69460D01*
X48537D01*
X48520Y69471D01*
X48461Y69483D01*
X48173D01*
X48113Y69471D01*
X48063Y69437D01*
X48029Y69387D01*
X48017Y69327D01*
Y69129D01*
X47968Y69081D01*
X47959Y69081D01*
X47907Y69116D01*
X47844Y69129D01*
X47630D01*
Y69507D01*
X47067Y69507D01*
Y69507D01*
X47017Y69503D01*
X46821D01*
X46759Y69490D01*
X46713Y69460D01*
X46480D01*
X46463Y69471D01*
X46404Y69483D01*
X46116D01*
X46056Y69471D01*
X46040Y69460D01*
X45880D01*
X45863Y69471D01*
X45803Y69483D01*
X45516D01*
X45456Y69471D01*
X45405Y69437D01*
X45371Y69387D01*
X45360Y69327D01*
Y69079D01*
X45371Y69019D01*
X45405Y68968D01*
X45456Y68934D01*
X45464Y68933D01*
Y68882D01*
X45456Y68880D01*
X45405Y68847D01*
X45371Y68796D01*
X45370Y68791D01*
X42842D01*
X42819Y68848D01*
X42755Y68911D01*
X42673Y68945D01*
X42583D01*
X42501Y68911D01*
X42437Y68848D01*
X42403Y68765D01*
Y68676D01*
X42437Y68593D01*
X42501Y68530D01*
X42583Y68495D01*
X42628D01*
X42637Y68486D01*
X42695Y68447D01*
X42763Y68434D01*
X45370D01*
X45371Y68428D01*
X45405Y68378D01*
X45456Y68344D01*
X45516Y68332D01*
X45803D01*
X45863Y68344D01*
X45914Y68378D01*
X45930Y68402D01*
X45989D01*
X46006Y68378D01*
X46056Y68344D01*
X46116Y68332D01*
X46210D01*
Y68612D01*
X46260D01*
Y68662D01*
X46560D01*
Y68736D01*
X46548Y68796D01*
X46514Y68847D01*
X46463Y68880D01*
X46456Y68882D01*
Y68933D01*
X46463Y68934D01*
X46514Y68968D01*
X46548Y69019D01*
X46560Y69079D01*
Y69103D01*
X46713D01*
X46759Y69073D01*
X46821Y69060D01*
X47057D01*
X47067Y69052D01*
X47067Y68801D01*
X47017Y68755D01*
X46989D01*
Y68533D01*
Y68312D01*
X47057D01*
X47060Y68313D01*
X47067Y68307D01*
Y68307D01*
X47630D01*
Y68490D01*
X47676Y68509D01*
X47699Y68486D01*
X47699Y68486D01*
X47757Y68447D01*
X47825Y68434D01*
X48028D01*
X48029Y68428D01*
X48063Y68378D01*
X48113Y68344D01*
X48173Y68332D01*
X48461D01*
X48520Y68344D01*
X48571Y68378D01*
X48590Y68406D01*
X48607Y68408D01*
X48647Y68402D01*
X48675Y68360D01*
X48727Y68325D01*
X48789Y68312D01*
X49026D01*
X49029Y68313D01*
X49035Y68307D01*
Y68307D01*
X49598Y68307D01*
Y68355D01*
X49657D01*
X49687Y68331D01*
X49695Y68312D01*
X49695Y68266D01*
Y68035D01*
Y67545D01*
Y67084D01*
Y66743D01*
Y66241D01*
Y65741D01*
Y65249D01*
Y64748D01*
Y64275D01*
Y63921D01*
Y63590D01*
X49695Y63111D01*
Y62615D01*
Y62126D01*
Y61665D01*
Y61169D01*
Y60671D01*
Y60177D01*
Y59687D01*
Y59225D01*
Y58744D01*
Y58244D01*
Y57755D01*
Y57256D01*
Y56773D01*
Y56318D01*
Y55822D01*
Y55333D01*
Y54846D01*
Y54355D01*
Y53865D01*
Y53454D01*
Y52949D01*
Y52453D01*
Y51921D01*
Y51560D01*
Y51125D01*
Y50681D01*
Y50212D01*
Y49713D01*
Y49224D01*
X49690Y49210D01*
X49664Y49182D01*
X49650Y49175D01*
X49649Y49174D01*
X49509D01*
Y49222D01*
X48947D01*
X48947Y49222D01*
Y49222D01*
X48897Y49217D01*
X48701D01*
X48639Y49205D01*
X48593Y49174D01*
X48448D01*
X48432Y49186D01*
X48372Y49197D01*
X48085D01*
X48025Y49186D01*
X47974Y49152D01*
X47940Y49101D01*
X47929Y49041D01*
Y48844D01*
X47880Y48796D01*
X47871Y48796D01*
X47818Y48831D01*
X47756Y48843D01*
X47541D01*
Y49222D01*
X46978Y49222D01*
Y49222D01*
X46972Y49217D01*
X46968Y49217D01*
X46732D01*
X46670Y49205D01*
X46625Y49174D01*
X46480D01*
X46463Y49186D01*
X46404Y49197D01*
X46116D01*
X46056Y49186D01*
X46040Y49174D01*
X45791D01*
X45774Y49186D01*
X45715Y49197D01*
X45427D01*
X45367Y49186D01*
X45317Y49152D01*
X45283Y49101D01*
X45271Y49041D01*
Y48793D01*
X45283Y48734D01*
X45317Y48683D01*
X45367Y48649D01*
X45375Y48648D01*
Y48597D01*
X45367Y48595D01*
X45317Y48561D01*
X45283Y48511D01*
X45282Y48505D01*
X43441D01*
X43052Y48894D01*
Y49402D01*
X43065Y49414D01*
X43099Y49497D01*
Y49586D01*
X43065Y49669D01*
X43001Y49732D01*
X42919Y49766D01*
X42829D01*
X42747Y49732D01*
X42683Y49669D01*
X42649Y49586D01*
Y49497D01*
X42683Y49414D01*
X42696Y49402D01*
Y48820D01*
X42709Y48752D01*
X42748Y48694D01*
X43241Y48201D01*
X43299Y48162D01*
X43368Y48148D01*
X43368Y48148D01*
X45282D01*
X45283Y48143D01*
X45317Y48092D01*
X45367Y48058D01*
X45427Y48047D01*
X45715D01*
X45774Y48058D01*
X45825Y48092D01*
X45859Y48143D01*
X45871Y48203D01*
Y48451D01*
X45859Y48511D01*
X45825Y48561D01*
X45774Y48595D01*
X45767Y48597D01*
Y48648D01*
X45774Y48649D01*
X45825Y48683D01*
X45859Y48734D01*
X45871Y48793D01*
Y48818D01*
X45960D01*
Y48793D01*
X45972Y48734D01*
X46006Y48683D01*
X46056Y48649D01*
X46064Y48648D01*
Y48597D01*
X46056Y48595D01*
X46006Y48561D01*
X45972Y48511D01*
X45960Y48451D01*
Y48377D01*
X46260D01*
Y48327D01*
X46310D01*
Y48047D01*
X46404D01*
X46463Y48058D01*
X46514Y48092D01*
X46533Y48120D01*
X46550Y48123D01*
X46590Y48116D01*
X46618Y48074D01*
X46670Y48039D01*
X46732Y48027D01*
X46800D01*
Y48248D01*
X46900D01*
Y48027D01*
X46968D01*
X46972Y48027D01*
X46978Y48022D01*
Y48022D01*
X47541Y48022D01*
Y48204D01*
X47587Y48224D01*
X47610Y48201D01*
X47610Y48201D01*
X47668Y48162D01*
X47736Y48148D01*
X47939D01*
X47940Y48143D01*
X47974Y48092D01*
X48025Y48058D01*
X48085Y48047D01*
X48372D01*
X48432Y48058D01*
X48482Y48092D01*
X48501Y48120D01*
X48518Y48123D01*
X48558Y48116D01*
X48586Y48074D01*
X48639Y48039D01*
X48701Y48027D01*
X48937D01*
X48940Y48027D01*
X48947Y48022D01*
Y48022D01*
X49509D01*
Y48070D01*
X49695D01*
Y47405D01*
X19846D01*
Y79367D01*
X49695D01*
Y70356D01*
D02*
G37*
G36*
X66769Y68898D02*
X57480D01*
X56890Y69488D01*
Y71128D01*
X56968D01*
X56968Y72978D01*
X56890D01*
Y73425D01*
X57283Y73819D01*
X66769D01*
Y68898D01*
D02*
G37*
G36*
Y63779D02*
X62795Y63779D01*
X62402Y64173D01*
Y66142D01*
X61811Y66732D01*
X59646D01*
Y68504D01*
X66769Y68504D01*
Y63779D01*
D02*
G37*
G36*
Y58071D02*
X62402D01*
X58268Y53937D01*
X51378D01*
X50984Y54331D01*
Y54886D01*
X50984Y54886D01*
X50984Y55709D01*
Y56496D01*
D01*
Y57283D01*
X51968Y58268D01*
X58661D01*
X60630Y60236D01*
Y62008D01*
X61417Y62795D01*
X66769D01*
Y58071D01*
D02*
G37*
G36*
X52819Y53543D02*
X56102D01*
X56496Y53150D01*
Y52702D01*
X56496D01*
Y51378D01*
X55906D01*
Y51156D01*
X55894Y51139D01*
X55881Y51075D01*
Y50947D01*
X55894Y50883D01*
X55906Y50865D01*
Y49606D01*
X51575D01*
X50984Y50197D01*
Y50984D01*
Y51772D01*
X50984Y52594D01*
X50984Y52594D01*
Y53150D01*
X51378Y53543D01*
X51512D01*
X51512Y53543D01*
X52819D01*
X52819Y53543D01*
D02*
G37*
G36*
X66769Y52362D02*
X62402D01*
X62008Y51968D01*
Y49803D01*
X61614Y49409D01*
X58131D01*
X58091Y49426D01*
X57976Y49449D01*
X57918Y49449D01*
X57918Y49449D01*
X57860Y49449D01*
X57746Y49426D01*
X57706Y49409D01*
X56890D01*
Y50852D01*
X56968D01*
X56968Y52702D01*
X56890D01*
Y52953D01*
Y53150D01*
X57345Y53605D01*
X58527D01*
X62598Y57677D01*
X66769D01*
Y52362D01*
D02*
G37*
G36*
Y47405D02*
X56890D01*
Y49016D01*
X57308D01*
X57340Y48977D01*
X57328Y48916D01*
Y48858D01*
X57328Y48800D01*
X57350Y48686D01*
X57395Y48579D01*
X57460Y48482D01*
X57542Y48400D01*
X57639Y48335D01*
X57746Y48290D01*
X57860Y48268D01*
X57918Y48268D01*
X57976Y48268D01*
X58091Y48290D01*
X58198Y48335D01*
X58295Y48400D01*
X58377Y48482D01*
X58442Y48579D01*
X58486Y48686D01*
X58509Y48800D01*
X58509Y48858D01*
X58509Y48858D01*
X58509Y48858D01*
X58509Y48916D01*
X58497Y48977D01*
X58528Y49016D01*
X61811D01*
X62402Y49606D01*
Y51575D01*
X62795Y51968D01*
X66769D01*
Y47405D01*
D02*
G37*
%LPC*%
G36*
X37485Y78729D02*
X37483D01*
Y78379D01*
X37833D01*
Y78382D01*
X37805Y78484D01*
X37753Y78575D01*
X37678Y78649D01*
X37587Y78702D01*
X37485Y78729D01*
D02*
G37*
G36*
X37383D02*
X37380D01*
X37278Y78702D01*
X37187Y78649D01*
X37113Y78575D01*
X37060Y78484D01*
X37033Y78382D01*
Y78379D01*
X37383D01*
Y78729D01*
D02*
G37*
G36*
X34688Y79056D02*
X23179D01*
X23110Y79042D01*
X23052Y79004D01*
X22716Y78667D01*
X22641Y78687D01*
X22536D01*
X22434Y78660D01*
X22343Y78607D01*
X22269Y78533D01*
X22216Y78442D01*
X22189Y78340D01*
Y78235D01*
X22216Y78133D01*
X22269Y78042D01*
X22343Y77967D01*
X22434Y77915D01*
X22536Y77887D01*
X22641D01*
X22743Y77915D01*
X22834Y77967D01*
X22909Y78042D01*
X22961Y78133D01*
X22989Y78235D01*
Y78340D01*
X22969Y78415D01*
X23252Y78699D01*
X23401D01*
X23415Y78649D01*
X23343Y78607D01*
X23268Y78533D01*
X23216Y78442D01*
X23189Y78340D01*
Y78235D01*
X23216Y78133D01*
X23268Y78042D01*
X23343Y77967D01*
X23434Y77915D01*
X23536Y77887D01*
X23641D01*
X23743Y77915D01*
X23834Y77967D01*
X23909Y78042D01*
X23961Y78133D01*
X23989Y78235D01*
Y78340D01*
X23961Y78442D01*
X23909Y78533D01*
X23834Y78607D01*
X23762Y78649D01*
X23776Y78699D01*
X24401D01*
X24415Y78649D01*
X24343Y78607D01*
X24269Y78533D01*
X24216Y78442D01*
X24189Y78340D01*
Y78235D01*
X24216Y78133D01*
X24269Y78042D01*
X24343Y77967D01*
X24434Y77915D01*
X24536Y77887D01*
X24641D01*
X24716Y77907D01*
X25161Y77463D01*
X25161Y77463D01*
X25219Y77424D01*
X25287Y77410D01*
X25287Y77410D01*
X29172D01*
X29192Y77360D01*
X29164Y77332D01*
X29112Y77241D01*
X29084Y77139D01*
Y77034D01*
X29112Y76932D01*
X29164Y76841D01*
X29202Y76803D01*
X29181Y76753D01*
X25861D01*
X25816Y76799D01*
Y76816D01*
X25781Y76899D01*
X25718Y76962D01*
X25635Y76997D01*
X25546D01*
X25463Y76962D01*
X25400Y76899D01*
X25366Y76816D01*
Y76727D01*
X25400Y76644D01*
X25463Y76581D01*
X25546Y76547D01*
X25563D01*
X25661Y76449D01*
X25661Y76449D01*
X25719Y76410D01*
X25787Y76396D01*
X29163D01*
X29182Y76350D01*
X29164Y76332D01*
X29112Y76241D01*
X29084Y76139D01*
Y76034D01*
X29112Y75932D01*
X29164Y75841D01*
X29191Y75814D01*
X29170Y75764D01*
X26735D01*
X26718Y75781D01*
X26635Y75816D01*
X26546D01*
X26463Y75781D01*
X26400Y75718D01*
X26366Y75635D01*
Y75546D01*
X26400Y75463D01*
X26463Y75400D01*
X26546Y75366D01*
X26635D01*
X26718Y75400D01*
X26726Y75408D01*
X29169D01*
X29190Y75358D01*
X29164Y75332D01*
X29112Y75241D01*
X29084Y75139D01*
Y75034D01*
X29112Y74932D01*
X29164Y74841D01*
X29190Y74815D01*
X29169Y74765D01*
X21726D01*
X21714Y74777D01*
X21631Y74812D01*
X21541D01*
X21459Y74777D01*
X21395Y74714D01*
X21361Y74631D01*
Y74542D01*
X21395Y74459D01*
X21459Y74396D01*
X21541Y74362D01*
X21631D01*
X21714Y74396D01*
X21726Y74408D01*
X24047D01*
X24066Y74362D01*
X23551Y73847D01*
X23534D01*
X23451Y73813D01*
X23388Y73749D01*
X23354Y73667D01*
Y73577D01*
X23388Y73495D01*
X23451Y73431D01*
X23534Y73397D01*
X23623D01*
X23706Y73431D01*
X23769Y73495D01*
X23804Y73577D01*
Y73595D01*
X24367Y74158D01*
X27058D01*
X27731Y73485D01*
X27789Y73447D01*
X27857Y73433D01*
X29194D01*
X29215Y73383D01*
X29164Y73332D01*
X29112Y73241D01*
X29084Y73139D01*
Y73034D01*
X29112Y72932D01*
X29164Y72841D01*
X29239Y72767D01*
X29330Y72714D01*
X29432Y72687D01*
X29537D01*
X29639Y72714D01*
X29730Y72767D01*
X29804Y72841D01*
X29843Y72908D01*
X29942D01*
X29979Y72878D01*
Y72706D01*
X29698Y72425D01*
X29639Y72459D01*
X29537Y72487D01*
X29432D01*
X29330Y72459D01*
X29239Y72407D01*
X29164Y72332D01*
X29112Y72241D01*
X29084Y72139D01*
Y72034D01*
X29112Y71932D01*
X29164Y71841D01*
X29239Y71767D01*
X29330Y71714D01*
X29432Y71687D01*
X29537D01*
X29639Y71714D01*
X29730Y71767D01*
X29804Y71841D01*
X29857Y71932D01*
X29884Y72034D01*
Y72107D01*
X30284Y72506D01*
X30284Y72506D01*
X30322Y72564D01*
X30336Y72633D01*
X30336Y72633D01*
Y72875D01*
X31120Y73658D01*
X32162D01*
X32743Y73078D01*
X32800Y73039D01*
X32869Y73026D01*
X38177D01*
X38245Y73039D01*
X38303Y73078D01*
X38634Y73408D01*
X40401D01*
X40405Y73399D01*
X40469Y73335D01*
X40551Y73301D01*
X40641D01*
X40723Y73335D01*
X40787Y73399D01*
X40821Y73481D01*
Y73571D01*
X40806Y73608D01*
X40839Y73658D01*
X41515D01*
X41711Y73462D01*
X41738Y73396D01*
X41802Y73333D01*
X41884Y73299D01*
X41974D01*
X42057Y73333D01*
X42120Y73396D01*
X42154Y73479D01*
Y73568D01*
X42138Y73608D01*
X42148Y73623D01*
X42195Y73645D01*
X42278Y73611D01*
X42368D01*
X42450Y73645D01*
X42514Y73709D01*
X42548Y73791D01*
Y73881D01*
X42514Y73964D01*
X42450Y74027D01*
X42368Y74061D01*
X42278D01*
X42195Y74027D01*
X42183Y74015D01*
X42017D01*
X41819Y74213D01*
X41761Y74251D01*
X41693Y74265D01*
X40667D01*
X40639Y74307D01*
X40655Y74345D01*
Y74435D01*
X40620Y74517D01*
X40557Y74581D01*
X40474Y74615D01*
X40385D01*
X40302Y74581D01*
X40239Y74517D01*
X40238Y74515D01*
X33224D01*
X32776Y74963D01*
X32719Y75001D01*
X32650Y75015D01*
X29899D01*
X29884Y75034D01*
Y75139D01*
X29857Y75241D01*
X29804Y75332D01*
X29779Y75358D01*
X29800Y75408D01*
X33566D01*
X33625Y75383D01*
X33715D01*
X33797Y75418D01*
X33861Y75481D01*
X33895Y75564D01*
Y75653D01*
X33861Y75736D01*
X33797Y75799D01*
X33715Y75833D01*
X33625D01*
X33543Y75799D01*
X33508Y75764D01*
X29799D01*
X29778Y75814D01*
X29804Y75841D01*
X29832Y75890D01*
X34144D01*
X34156Y75877D01*
X34239Y75843D01*
X34329D01*
X34411Y75877D01*
X34475Y75941D01*
X34509Y76023D01*
Y76113D01*
X34475Y76196D01*
X34411Y76259D01*
X34329Y76293D01*
X34239D01*
X34156Y76259D01*
X34156Y76258D01*
X34134Y76262D01*
X34118Y76316D01*
X34164Y76362D01*
X34199Y76444D01*
Y76534D01*
X34164Y76617D01*
X34110Y76671D01*
X34121Y76713D01*
X34125Y76721D01*
X34559D01*
X34571Y76708D01*
X34654Y76674D01*
X34744D01*
X34826Y76708D01*
X34890Y76772D01*
X34924Y76854D01*
Y76944D01*
X34890Y77027D01*
X34826Y77090D01*
X34744Y77124D01*
X34654D01*
X34571Y77090D01*
X34559Y77078D01*
X34311D01*
X34283Y77119D01*
X34299Y77156D01*
Y77245D01*
X34264Y77328D01*
X34201Y77391D01*
X34118Y77425D01*
X34029D01*
X34019Y77421D01*
X33915Y77525D01*
X33857Y77564D01*
X33789Y77578D01*
X31350D01*
X31345Y77589D01*
X31282Y77653D01*
X31199Y77687D01*
X31110D01*
X31027Y77653D01*
X30971Y77596D01*
X30938Y77603D01*
X30921Y77612D01*
Y77647D01*
X30671D01*
Y77417D01*
X30765D01*
X30824Y77429D01*
X30875Y77462D01*
X30880Y77469D01*
X30930Y77454D01*
Y77417D01*
X30946Y77378D01*
X30913Y77328D01*
X30263D01*
X29875Y77715D01*
X29818Y77754D01*
X29749Y77767D01*
X25361D01*
X24969Y78160D01*
X24989Y78235D01*
Y78340D01*
X24961Y78442D01*
X24909Y78533D01*
X24834Y78607D01*
X24762Y78649D01*
X24776Y78699D01*
X25401D01*
X25415Y78649D01*
X25343Y78607D01*
X25268Y78533D01*
X25216Y78442D01*
X25189Y78340D01*
Y78235D01*
X25216Y78133D01*
X25268Y78042D01*
X25343Y77967D01*
X25434Y77915D01*
X25536Y77887D01*
X25641D01*
X25743Y77915D01*
X25834Y77967D01*
X25909Y78042D01*
X25961Y78133D01*
X25989Y78235D01*
Y78340D01*
X25961Y78442D01*
X25909Y78533D01*
X25834Y78607D01*
X25762Y78649D01*
X25776Y78699D01*
X26401D01*
X26415Y78649D01*
X26343Y78607D01*
X26268Y78533D01*
X26216Y78442D01*
X26189Y78340D01*
Y78235D01*
X26216Y78133D01*
X26268Y78042D01*
X26343Y77967D01*
X26434Y77915D01*
X26536Y77887D01*
X26641D01*
X26743Y77915D01*
X26834Y77967D01*
X26909Y78042D01*
X26961Y78133D01*
X26989Y78235D01*
Y78340D01*
X26961Y78442D01*
X26909Y78533D01*
X26834Y78607D01*
X26762Y78649D01*
X26776Y78699D01*
X27401D01*
X27415Y78649D01*
X27343Y78607D01*
X27269Y78533D01*
X27216Y78442D01*
X27189Y78340D01*
Y78235D01*
X27216Y78133D01*
X27269Y78042D01*
X27343Y77967D01*
X27434Y77915D01*
X27536Y77887D01*
X27641D01*
X27743Y77915D01*
X27834Y77967D01*
X27909Y78042D01*
X27961Y78133D01*
X27989Y78235D01*
Y78340D01*
X27961Y78442D01*
X27909Y78533D01*
X27834Y78607D01*
X27762Y78649D01*
X27776Y78699D01*
X28401D01*
X28415Y78649D01*
X28343Y78607D01*
X28268Y78533D01*
X28216Y78442D01*
X28189Y78340D01*
Y78235D01*
X28216Y78133D01*
X28268Y78042D01*
X28343Y77967D01*
X28434Y77915D01*
X28536Y77887D01*
X28641D01*
X28743Y77915D01*
X28834Y77967D01*
X28909Y78042D01*
X28961Y78133D01*
X28989Y78235D01*
Y78340D01*
X28961Y78442D01*
X28909Y78533D01*
X28834Y78607D01*
X28762Y78649D01*
X28776Y78699D01*
X29401D01*
X29415Y78649D01*
X29343Y78607D01*
X29269Y78533D01*
X29216Y78442D01*
X29189Y78340D01*
Y78235D01*
X29216Y78133D01*
X29269Y78042D01*
X29343Y77967D01*
X29434Y77915D01*
X29536Y77887D01*
X29641D01*
X29743Y77915D01*
X29834Y77967D01*
X29909Y78042D01*
X29947Y78109D01*
X30332D01*
X30333Y78104D01*
X30367Y78053D01*
X30418Y78019D01*
X30425Y78018D01*
Y77967D01*
X30418Y77965D01*
X30367Y77931D01*
X30333Y77881D01*
X30321Y77821D01*
Y77747D01*
X30621D01*
X30921D01*
Y77821D01*
X30909Y77881D01*
X30875Y77931D01*
X30824Y77965D01*
X30817Y77967D01*
Y78018D01*
X30824Y78019D01*
X30875Y78053D01*
X30907Y78100D01*
X30940Y78104D01*
X30958Y78104D01*
X30965Y78097D01*
X31048Y78062D01*
X31137D01*
X31220Y78097D01*
X31283Y78160D01*
X31318Y78243D01*
Y78332D01*
X31283Y78415D01*
X31220Y78478D01*
X31137Y78512D01*
X31048D01*
X30965Y78478D01*
X30958Y78471D01*
X30940Y78471D01*
X30906Y78475D01*
X30875Y78522D01*
X30824Y78556D01*
X30765Y78568D01*
X30477D01*
X30418Y78556D01*
X30367Y78522D01*
X30333Y78471D01*
X30332Y78466D01*
X29947D01*
X29909Y78533D01*
X29834Y78607D01*
X29762Y78649D01*
X29776Y78699D01*
X34614D01*
X35024Y78289D01*
X35024Y78289D01*
X35033Y78283D01*
Y78276D01*
X35060Y78175D01*
X35063Y78169D01*
X35023Y78138D01*
X34699Y78463D01*
X34641Y78501D01*
X34572Y78515D01*
X31833D01*
X31820Y78527D01*
X31738Y78562D01*
X31648D01*
X31565Y78527D01*
X31502Y78464D01*
X31468Y78381D01*
Y78292D01*
X31502Y78209D01*
X31565Y78146D01*
X31648Y78112D01*
X31738D01*
X31820Y78146D01*
X31833Y78158D01*
X34499D01*
X35519Y77138D01*
X35577Y77099D01*
X35645Y77085D01*
X35645Y77085D01*
X36425D01*
X36440Y77035D01*
X36426Y77026D01*
X36392Y76975D01*
X36380Y76915D01*
Y76713D01*
X36330Y76686D01*
X36326Y76690D01*
X36266Y76701D01*
X36172D01*
Y76421D01*
X36122D01*
Y76371D01*
X35822D01*
Y76297D01*
X35834Y76237D01*
X35868Y76187D01*
X35919Y76153D01*
X35926Y76151D01*
Y76101D01*
X35919Y76099D01*
X35868Y76065D01*
X35834Y76014D01*
X35833Y76009D01*
X35673D01*
X35659Y76023D01*
X35576Y76058D01*
X35487D01*
X35404Y76023D01*
X35341Y75960D01*
X35306Y75877D01*
Y75788D01*
X35341Y75705D01*
X35404Y75642D01*
X35487Y75608D01*
X35576D01*
X35659Y75642D01*
X35669Y75652D01*
X35833D01*
X35834Y75647D01*
X35868Y75596D01*
X35919Y75562D01*
X35978Y75551D01*
X36266D01*
X36326Y75562D01*
X36376Y75596D01*
X36410Y75647D01*
X36411Y75652D01*
X36559D01*
Y75484D01*
X36565Y75454D01*
X36533Y75404D01*
X35579D01*
X35537Y75421D01*
X35448D01*
X35365Y75387D01*
X35302Y75324D01*
X35268Y75241D01*
Y75151D01*
X35302Y75069D01*
X35365Y75005D01*
X35448Y74971D01*
X35537D01*
X35620Y75005D01*
X35662Y75047D01*
X35890D01*
X35921Y74997D01*
X35897Y74940D01*
Y74851D01*
X35931Y74768D01*
X35995Y74705D01*
X36077Y74671D01*
X36167D01*
X36249Y74705D01*
X36262Y74718D01*
X38281D01*
X38293Y74705D01*
X38376Y74671D01*
X38465D01*
X38548Y74705D01*
X38560Y74717D01*
X42741D01*
X42817Y74642D01*
X42817Y74642D01*
X42875Y74603D01*
X42943Y74589D01*
X43443D01*
Y74372D01*
X43573D01*
X43586Y74322D01*
X43522Y74258D01*
X43470Y74168D01*
X43443Y74068D01*
Y74066D01*
X43839D01*
X44234D01*
Y74068D01*
X44207Y74168D01*
X44155Y74258D01*
X44091Y74322D01*
X44104Y74372D01*
X44234D01*
Y75163D01*
X44017D01*
Y75451D01*
X44042Y75456D01*
X44093Y75490D01*
X44127Y75541D01*
X44138Y75600D01*
Y75848D01*
X44127Y75908D01*
X44093Y75959D01*
X44042Y75993D01*
X44034Y75994D01*
Y76045D01*
X44042Y76047D01*
X44093Y76081D01*
X44127Y76131D01*
X44138Y76191D01*
Y76265D01*
X43839D01*
X43539D01*
Y76191D01*
X43551Y76131D01*
X43584Y76081D01*
X43635Y76047D01*
X43643Y76045D01*
Y75994D01*
X43635Y75993D01*
X43584Y75959D01*
X43551Y75908D01*
X43539Y75848D01*
Y75600D01*
X43551Y75541D01*
X43584Y75490D01*
X43635Y75456D01*
X43660Y75451D01*
Y75163D01*
X43443D01*
Y74946D01*
X43017D01*
X42941Y75022D01*
X42884Y75061D01*
X42815Y75074D01*
X39863D01*
X39842Y75124D01*
X39906Y75187D01*
X39944Y75245D01*
X39958Y75314D01*
Y75388D01*
X39961Y75391D01*
X39990Y75434D01*
X40000Y75484D01*
Y76177D01*
X39990Y76228D01*
X39961Y76271D01*
X39919Y76299D01*
X39868Y76309D01*
X39691D01*
X39640Y76299D01*
X39598Y76271D01*
X39569Y76228D01*
X39559Y76177D01*
Y75484D01*
X39530Y75458D01*
X39511Y75475D01*
X39500Y75495D01*
Y76177D01*
X39490Y76228D01*
X39461Y76271D01*
X39458Y76273D01*
Y76395D01*
X39484Y76421D01*
X40292D01*
X40304Y76408D01*
X40387Y76374D01*
X40476D01*
X40559Y76408D01*
X40622Y76472D01*
X40656Y76554D01*
Y76644D01*
X40642Y76679D01*
X40670Y76721D01*
X41293D01*
X41305Y76708D01*
X41388Y76674D01*
X41477D01*
X41560Y76708D01*
X41623Y76772D01*
X41658Y76854D01*
Y76944D01*
X41623Y77027D01*
X41560Y77090D01*
X41477Y77124D01*
X41388D01*
X41305Y77090D01*
X41293Y77078D01*
X39612D01*
X39593Y77124D01*
X39605Y77136D01*
X39639Y77219D01*
Y77309D01*
X39605Y77391D01*
X39542Y77455D01*
X39459Y77489D01*
X39370D01*
X39287Y77455D01*
X39275Y77442D01*
X38256D01*
X38222Y77492D01*
X38243Y77542D01*
Y77631D01*
X38208Y77714D01*
X38145Y77777D01*
X38062Y77812D01*
X37973D01*
X37890Y77777D01*
X37860Y77747D01*
X36823D01*
X36641Y77929D01*
X36649Y77992D01*
X36678Y78009D01*
X36753Y78084D01*
X36805Y78175D01*
X36833Y78276D01*
Y78382D01*
X36805Y78484D01*
X36753Y78575D01*
X36678Y78649D01*
X36587Y78702D01*
X36485Y78729D01*
X36380D01*
X36278Y78702D01*
X36187Y78649D01*
X36113Y78575D01*
X36060Y78484D01*
X36033Y78382D01*
Y78276D01*
X36060Y78175D01*
X36113Y78084D01*
X36187Y78009D01*
X36254Y77970D01*
Y77885D01*
X36268Y77817D01*
X36307Y77759D01*
X36573Y77492D01*
X36552Y77442D01*
X35719D01*
X35242Y77920D01*
X35272Y77960D01*
X35278Y77956D01*
X35380Y77929D01*
X35485D01*
X35587Y77956D01*
X35678Y78009D01*
X35753Y78084D01*
X35805Y78175D01*
X35833Y78276D01*
Y78382D01*
X35805Y78484D01*
X35753Y78575D01*
X35678Y78649D01*
X35587Y78702D01*
X35485Y78729D01*
X35380D01*
X35278Y78702D01*
X35187Y78649D01*
X35178Y78640D01*
X34814Y79004D01*
X34756Y79042D01*
X34688Y79056D01*
D02*
G37*
G36*
X41485Y78729D02*
X41380D01*
X41278Y78702D01*
X41187Y78649D01*
X41113Y78575D01*
X41060Y78484D01*
X41033Y78382D01*
Y78276D01*
X41060Y78175D01*
X41113Y78084D01*
X41187Y78009D01*
X41278Y77956D01*
X41380Y77929D01*
X41485D01*
X41587Y77956D01*
X41678Y78009D01*
X41753Y78084D01*
X41805Y78175D01*
X41833Y78276D01*
Y78382D01*
X41805Y78484D01*
X41753Y78575D01*
X41678Y78649D01*
X41587Y78702D01*
X41485Y78729D01*
D02*
G37*
G36*
X40485D02*
X40380D01*
X40278Y78702D01*
X40187Y78649D01*
X40113Y78575D01*
X40060Y78484D01*
X40033Y78382D01*
Y78276D01*
X40060Y78175D01*
X40113Y78084D01*
X40187Y78009D01*
X40278Y77956D01*
X40380Y77929D01*
X40485D01*
X40587Y77956D01*
X40678Y78009D01*
X40753Y78084D01*
X40805Y78175D01*
X40833Y78276D01*
Y78382D01*
X40805Y78484D01*
X40753Y78575D01*
X40678Y78649D01*
X40587Y78702D01*
X40485Y78729D01*
D02*
G37*
G36*
X39485D02*
X39380D01*
X39278Y78702D01*
X39187Y78649D01*
X39113Y78575D01*
X39060Y78484D01*
X39033Y78382D01*
Y78276D01*
X39060Y78175D01*
X39113Y78084D01*
X39187Y78009D01*
X39278Y77956D01*
X39380Y77929D01*
X39485D01*
X39587Y77956D01*
X39678Y78009D01*
X39753Y78084D01*
X39805Y78175D01*
X39833Y78276D01*
Y78382D01*
X39805Y78484D01*
X39753Y78575D01*
X39678Y78649D01*
X39587Y78702D01*
X39485Y78729D01*
D02*
G37*
G36*
X38485D02*
X38380D01*
X38278Y78702D01*
X38187Y78649D01*
X38113Y78575D01*
X38060Y78484D01*
X38033Y78382D01*
Y78276D01*
X38060Y78175D01*
X38113Y78084D01*
X38187Y78009D01*
X38278Y77956D01*
X38380Y77929D01*
X38485D01*
X38587Y77956D01*
X38678Y78009D01*
X38753Y78084D01*
X38805Y78175D01*
X38833Y78276D01*
Y78382D01*
X38805Y78484D01*
X38753Y78575D01*
X38678Y78649D01*
X38587Y78702D01*
X38485Y78729D01*
D02*
G37*
G36*
X37833Y78279D02*
X37483D01*
Y77929D01*
X37485D01*
X37587Y77956D01*
X37678Y78009D01*
X37753Y78084D01*
X37805Y78175D01*
X37833Y78276D01*
Y78279D01*
D02*
G37*
G36*
X37383D02*
X37033D01*
Y78276D01*
X37060Y78175D01*
X37113Y78084D01*
X37187Y78009D01*
X37278Y77956D01*
X37380Y77929D01*
X37383D01*
Y78279D01*
D02*
G37*
G36*
X48513Y79097D02*
X48455Y79097D01*
X48455Y79097D01*
X48397D01*
X48282Y79074D01*
X48175Y79030D01*
X48078Y78965D01*
X47996Y78883D01*
X47931Y78786D01*
X47887Y78679D01*
X47864Y78564D01*
Y78506D01*
X47864Y78448D01*
X47887Y78334D01*
X47931Y78227D01*
X47996Y78130D01*
X48078Y78048D01*
X48175Y77983D01*
X48282Y77938D01*
X48397Y77916D01*
X48455Y77916D01*
X48513Y77916D01*
X48627Y77938D01*
X48734Y77983D01*
X48831Y78048D01*
X48913Y78130D01*
X48978Y78227D01*
X49023Y78334D01*
X49045Y78448D01*
X49045Y78506D01*
X49045Y78506D01*
X49045Y78506D01*
X49045Y78564D01*
X49023Y78679D01*
X48978Y78786D01*
X48913Y78883D01*
X48831Y78965D01*
X48734Y79030D01*
X48627Y79074D01*
X48513Y79097D01*
D02*
G37*
G36*
X21641Y78687D02*
X21536D01*
X21434Y78660D01*
X21343Y78607D01*
X21268Y78533D01*
X21216Y78442D01*
X21189Y78340D01*
Y78235D01*
X21216Y78133D01*
X21268Y78042D01*
X21343Y77967D01*
X21434Y77915D01*
X21536Y77887D01*
X21641D01*
X21743Y77915D01*
X21834Y77967D01*
X21909Y78042D01*
X21961Y78133D01*
X21989Y78235D01*
Y78340D01*
X21961Y78442D01*
X21909Y78533D01*
X21834Y78607D01*
X21743Y78660D01*
X21641Y78687D01*
D02*
G37*
G36*
X30571Y77647D02*
X30321D01*
Y77573D01*
X30333Y77513D01*
X30367Y77462D01*
X30418Y77429D01*
X30477Y77417D01*
X30571D01*
Y77647D01*
D02*
G37*
G36*
X36072Y76701D02*
X35978D01*
X35919Y76690D01*
X35868Y76656D01*
X35834Y76605D01*
X35822Y76545D01*
Y76471D01*
X36072D01*
Y76701D01*
D02*
G37*
G36*
X43982Y76595D02*
X43889D01*
Y76365D01*
X44138D01*
Y76439D01*
X44127Y76499D01*
X44093Y76549D01*
X44042Y76583D01*
X43982Y76595D01*
D02*
G37*
G36*
X43789D02*
X43695D01*
X43635Y76583D01*
X43584Y76549D01*
X43551Y76499D01*
X43539Y76439D01*
Y76365D01*
X43789D01*
Y76595D01*
D02*
G37*
G36*
X40868Y76309D02*
X40691D01*
X40640Y76299D01*
X40598Y76271D01*
X40569Y76228D01*
X40559Y76177D01*
Y75484D01*
X40569Y75434D01*
X40598Y75391D01*
X40640Y75362D01*
X40691Y75352D01*
X40868D01*
X40919Y75362D01*
X40961Y75391D01*
X40990Y75434D01*
X41000Y75484D01*
Y76177D01*
X40990Y76228D01*
X40961Y76271D01*
X40919Y76299D01*
X40868Y76309D01*
D02*
G37*
G36*
X40368D02*
X40191D01*
X40140Y76299D01*
X40098Y76271D01*
X40069Y76228D01*
X40059Y76177D01*
Y75484D01*
X40069Y75434D01*
X40098Y75391D01*
X40140Y75362D01*
X40191Y75352D01*
X40368D01*
X40419Y75362D01*
X40461Y75391D01*
X40490Y75434D01*
X40500Y75484D01*
Y76177D01*
X40490Y76228D01*
X40461Y76271D01*
X40419Y76299D01*
X40368Y76309D01*
D02*
G37*
G36*
X44234Y73966D02*
X43839D01*
X43443D01*
Y73964D01*
X43470Y73863D01*
X43522Y73773D01*
X43596Y73699D01*
X43649Y73669D01*
Y73611D01*
X43596Y73580D01*
X43522Y73506D01*
X43470Y73416D01*
X43443Y73316D01*
Y73212D01*
X43470Y73111D01*
X43522Y73021D01*
X43596Y72947D01*
X43686Y72895D01*
X43787Y72868D01*
X43891D01*
X43991Y72895D01*
X44081Y72947D01*
X44155Y73021D01*
X44207Y73111D01*
X44234Y73212D01*
Y73316D01*
X44207Y73416D01*
X44155Y73506D01*
X44081Y73580D01*
X44028Y73611D01*
Y73669D01*
X44081Y73699D01*
X44155Y73773D01*
X44207Y73863D01*
X44234Y73964D01*
Y73966D01*
D02*
G37*
G36*
X31639Y73520D02*
X31546D01*
Y72767D01*
X31886D01*
Y73273D01*
X31867Y73367D01*
X31814Y73448D01*
X31733Y73501D01*
X31639Y73520D01*
D02*
G37*
G36*
X31446D02*
X31353D01*
X31259Y73501D01*
X31178Y73448D01*
X31125Y73367D01*
X31106Y73273D01*
Y72767D01*
X31446D01*
Y73520D01*
D02*
G37*
G36*
X28732Y72957D02*
X28639D01*
Y72727D01*
X28888D01*
Y72801D01*
X28877Y72861D01*
X28843Y72912D01*
X28792Y72945D01*
X28732Y72957D01*
D02*
G37*
G36*
X28539D02*
X28445D01*
X28385Y72945D01*
X28334Y72912D01*
X28301Y72861D01*
X28289Y72801D01*
Y72727D01*
X28539D01*
Y72957D01*
D02*
G37*
G36*
X40868Y72679D02*
X40830D01*
Y72251D01*
X41000D01*
Y72547D01*
X40990Y72598D01*
X40961Y72641D01*
X40919Y72669D01*
X40868Y72679D01*
D02*
G37*
G36*
X40730D02*
X40691D01*
X40640Y72669D01*
X40598Y72641D01*
X40569Y72598D01*
X40559Y72547D01*
Y72251D01*
X40730D01*
Y72679D01*
D02*
G37*
G36*
X41000Y72151D02*
X40830D01*
Y71722D01*
X40868D01*
X40919Y71732D01*
X40961Y71761D01*
X40990Y71804D01*
X41000Y71854D01*
Y72151D01*
D02*
G37*
G36*
X40730D02*
X40559D01*
Y71854D01*
X40569Y71804D01*
X40598Y71761D01*
X40640Y71732D01*
X40691Y71722D01*
X40730D01*
Y72151D01*
D02*
G37*
G36*
X39368Y72679D02*
X39191D01*
X39140Y72669D01*
X39098Y72641D01*
X39069Y72598D01*
X39059Y72547D01*
Y71854D01*
X39069Y71804D01*
X39098Y71761D01*
X39140Y71732D01*
X39191Y71722D01*
X39368D01*
X39419Y71732D01*
X39461Y71761D01*
X39490Y71804D01*
X39500Y71854D01*
Y72547D01*
X39490Y72598D01*
X39461Y72641D01*
X39419Y72669D01*
X39368Y72679D01*
D02*
G37*
G36*
X38868D02*
X38691D01*
X38640Y72669D01*
X38598Y72641D01*
X38569Y72598D01*
X38559Y72547D01*
Y71854D01*
X38569Y71804D01*
X38598Y71761D01*
X38640Y71732D01*
X38691Y71722D01*
X38868D01*
X38919Y71732D01*
X38961Y71761D01*
X38990Y71804D01*
X39000Y71854D01*
Y72547D01*
X38990Y72598D01*
X38961Y72641D01*
X38919Y72669D01*
X38868Y72679D01*
D02*
G37*
G36*
X38368D02*
X38191D01*
X38140Y72669D01*
X38098Y72641D01*
X38069Y72598D01*
X38059Y72547D01*
Y71854D01*
X38069Y71804D01*
X38098Y71761D01*
X38140Y71732D01*
X38191Y71722D01*
X38368D01*
X38419Y71732D01*
X38461Y71761D01*
X38490Y71804D01*
X38500Y71854D01*
Y72547D01*
X38490Y72598D01*
X38461Y72641D01*
X38419Y72669D01*
X38368Y72679D01*
D02*
G37*
G36*
X37868D02*
X37691D01*
X37640Y72669D01*
X37598Y72641D01*
X37569Y72598D01*
X37559Y72547D01*
Y71854D01*
X37569Y71804D01*
X37598Y71761D01*
X37640Y71732D01*
X37691Y71722D01*
X37868D01*
X37919Y71732D01*
X37961Y71761D01*
X37990Y71804D01*
X38000Y71854D01*
Y72547D01*
X37990Y72598D01*
X37961Y72641D01*
X37919Y72669D01*
X37868Y72679D01*
D02*
G37*
G36*
X37368D02*
X37191D01*
X37140Y72669D01*
X37098Y72641D01*
X37069Y72598D01*
X37059Y72547D01*
Y71854D01*
X37069Y71804D01*
X37098Y71761D01*
X37101Y71759D01*
Y70969D01*
X37055Y70949D01*
X36958Y71046D01*
Y71759D01*
X36961Y71761D01*
X36990Y71804D01*
X37000Y71854D01*
Y72547D01*
X36990Y72598D01*
X36961Y72641D01*
X36919Y72669D01*
X36868Y72679D01*
X36691D01*
X36640Y72669D01*
X36598Y72641D01*
X36569Y72598D01*
X36559Y72547D01*
Y71854D01*
X36569Y71804D01*
X36598Y71761D01*
X36601Y71759D01*
Y70972D01*
X36615Y70904D01*
X36653Y70846D01*
X37583Y69916D01*
Y69581D01*
X37446D01*
X37396Y69571D01*
X37353Y69542D01*
X37325Y69500D01*
X37315Y69449D01*
Y69275D01*
X37325Y69225D01*
X37353Y69182D01*
X37396Y69154D01*
X37446Y69144D01*
X38077D01*
X38128Y69154D01*
X38170Y69182D01*
X38199Y69225D01*
X38209Y69275D01*
Y69449D01*
X38199Y69500D01*
X38170Y69542D01*
X38128Y69571D01*
X38077Y69581D01*
X37940D01*
Y69904D01*
X37986Y69923D01*
X38306Y69603D01*
Y68086D01*
X38261Y68041D01*
X38171D01*
X38170Y68042D01*
X38128Y68071D01*
X38077Y68081D01*
X37446D01*
X37396Y68071D01*
X37353Y68042D01*
X37325Y68000D01*
X37315Y67949D01*
Y67775D01*
X37325Y67725D01*
X37353Y67682D01*
X37396Y67654D01*
X37446Y67644D01*
X38077D01*
X38128Y67654D01*
X38170Y67682D01*
X38171Y67684D01*
X38335D01*
X38403Y67697D01*
X38461Y67736D01*
X38604Y67880D01*
X38629Y67875D01*
X38654Y67861D01*
Y67753D01*
X38210Y67309D01*
X38135Y67329D01*
X38030D01*
X37928Y67302D01*
X37837Y67249D01*
X37763Y67175D01*
X37710Y67084D01*
X37683Y66982D01*
Y66876D01*
X37691Y66845D01*
X37653Y66795D01*
X32562D01*
X32562Y66795D01*
X32494Y66782D01*
X32436Y66743D01*
X32436Y66743D01*
X31862Y66170D01*
X31845D01*
X31762Y66136D01*
X31699Y66072D01*
X31665Y65990D01*
Y65900D01*
X31699Y65817D01*
X31762Y65754D01*
X31845Y65720D01*
X31935D01*
X31982Y65739D01*
X32039Y65733D01*
X32102Y65669D01*
X32185Y65635D01*
X32274D01*
X32357Y65669D01*
X32420Y65733D01*
X32454Y65815D01*
Y65904D01*
X32739Y66188D01*
X38521D01*
X38589Y66202D01*
X38647Y66241D01*
X38955Y66549D01*
X39030Y66529D01*
X39135D01*
X39237Y66556D01*
X39328Y66609D01*
X39403Y66684D01*
X39455Y66775D01*
X39483Y66876D01*
Y66982D01*
X39455Y67084D01*
X39403Y67175D01*
X39328Y67249D01*
X39261Y67288D01*
Y68035D01*
X39400Y68174D01*
X39431Y68154D01*
X39482Y68144D01*
X40113D01*
X40163Y68154D01*
X40206Y68182D01*
X40234Y68225D01*
X40244Y68275D01*
Y68449D01*
X40234Y68500D01*
X40206Y68542D01*
X40163Y68571D01*
X40113Y68581D01*
X39482D01*
X39431Y68571D01*
X39389Y68542D01*
X39387Y68540D01*
X39336D01*
X39267Y68527D01*
X39209Y68488D01*
X39057Y68336D01*
X39011Y68355D01*
Y68538D01*
X39157Y68684D01*
X39388D01*
X39389Y68682D01*
X39431Y68654D01*
X39482Y68644D01*
X40113D01*
X40163Y68654D01*
X40206Y68682D01*
X40234Y68725D01*
X40244Y68775D01*
Y68949D01*
X40234Y69000D01*
X40206Y69042D01*
X40163Y69071D01*
X40113Y69081D01*
X39482D01*
X39431Y69071D01*
X39389Y69042D01*
X39388Y69041D01*
X39083D01*
X39014Y69027D01*
X38957Y68988D01*
X38957Y68988D01*
X38713Y68745D01*
X38688Y68749D01*
X38663Y68763D01*
Y69677D01*
X38649Y69745D01*
X38610Y69803D01*
X37458Y70956D01*
Y71759D01*
X37461Y71761D01*
X37490Y71804D01*
X37500Y71854D01*
Y72547D01*
X37490Y72598D01*
X37461Y72641D01*
X37419Y72669D01*
X37368Y72679D01*
D02*
G37*
G36*
X29643Y71266D02*
X29641D01*
Y70916D01*
X29991D01*
Y70919D01*
X29963Y71021D01*
X29911Y71112D01*
X29836Y71186D01*
X29745Y71239D01*
X29643Y71266D01*
D02*
G37*
G36*
X29541D02*
X29538D01*
X29436Y71239D01*
X29345Y71186D01*
X29270Y71112D01*
X29218Y71021D01*
X29191Y70919D01*
Y70916D01*
X29541D01*
Y71266D01*
D02*
G37*
G36*
X29991Y70816D02*
X29641D01*
Y70466D01*
X29643D01*
X29745Y70493D01*
X29836Y70546D01*
X29911Y70621D01*
X29963Y70712D01*
X29991Y70813D01*
Y70816D01*
D02*
G37*
G36*
X29541D02*
X29191D01*
Y70813D01*
X29218Y70712D01*
X29270Y70621D01*
X29345Y70546D01*
X29436Y70493D01*
X29538Y70466D01*
X29541D01*
Y70816D01*
D02*
G37*
G36*
X27643Y71266D02*
X27538D01*
X27436Y71239D01*
X27345Y71186D01*
X27270Y71112D01*
X27218Y71021D01*
X27191Y70919D01*
Y70813D01*
X27218Y70712D01*
X27270Y70621D01*
X27345Y70546D01*
X27436Y70493D01*
X27538Y70466D01*
X27643D01*
X27745Y70493D01*
X27836Y70546D01*
X27911Y70621D01*
X27963Y70712D01*
X27991Y70813D01*
Y70919D01*
X27963Y71021D01*
X27911Y71112D01*
X27836Y71186D01*
X27745Y71239D01*
X27643Y71266D01*
D02*
G37*
G36*
X26643D02*
X26538D01*
X26436Y71239D01*
X26345Y71186D01*
X26270Y71112D01*
X26218Y71021D01*
X26191Y70919D01*
Y70813D01*
X26218Y70712D01*
X26270Y70621D01*
X26345Y70546D01*
X26436Y70493D01*
X26538Y70466D01*
X26643D01*
X26745Y70493D01*
X26836Y70546D01*
X26911Y70621D01*
X26963Y70712D01*
X26991Y70813D01*
Y70919D01*
X26963Y71021D01*
X26911Y71112D01*
X26836Y71186D01*
X26745Y71239D01*
X26643Y71266D01*
D02*
G37*
G36*
X25643D02*
X25538D01*
X25436Y71239D01*
X25345Y71186D01*
X25270Y71112D01*
X25218Y71021D01*
X25191Y70919D01*
Y70813D01*
X25218Y70712D01*
X25270Y70621D01*
X25345Y70546D01*
X25436Y70493D01*
X25538Y70466D01*
X25643D01*
X25745Y70493D01*
X25836Y70546D01*
X25911Y70621D01*
X25963Y70712D01*
X25991Y70813D01*
Y70919D01*
X25963Y71021D01*
X25911Y71112D01*
X25836Y71186D01*
X25745Y71239D01*
X25643Y71266D01*
D02*
G37*
G36*
X24643D02*
X24538D01*
X24436Y71239D01*
X24345Y71186D01*
X24270Y71112D01*
X24218Y71021D01*
X24191Y70919D01*
Y70813D01*
X24218Y70712D01*
X24270Y70621D01*
X24345Y70546D01*
X24436Y70493D01*
X24538Y70466D01*
X24643D01*
X24745Y70493D01*
X24836Y70546D01*
X24911Y70621D01*
X24963Y70712D01*
X24991Y70813D01*
Y70919D01*
X24963Y71021D01*
X24911Y71112D01*
X24836Y71186D01*
X24745Y71239D01*
X24643Y71266D01*
D02*
G37*
G36*
X23643D02*
X23538D01*
X23436Y71239D01*
X23345Y71186D01*
X23270Y71112D01*
X23218Y71021D01*
X23191Y70919D01*
Y70813D01*
X23218Y70712D01*
X23270Y70621D01*
X23345Y70546D01*
X23436Y70493D01*
X23538Y70466D01*
X23643D01*
X23745Y70493D01*
X23836Y70546D01*
X23911Y70621D01*
X23963Y70712D01*
X23991Y70813D01*
Y70919D01*
X23963Y71021D01*
X23911Y71112D01*
X23836Y71186D01*
X23745Y71239D01*
X23643Y71266D01*
D02*
G37*
G36*
X22643D02*
X22538D01*
X22436Y71239D01*
X22345Y71186D01*
X22270Y71112D01*
X22218Y71021D01*
X22191Y70919D01*
Y70813D01*
X22218Y70712D01*
X22270Y70621D01*
X22345Y70546D01*
X22436Y70493D01*
X22538Y70466D01*
X22643D01*
X22745Y70493D01*
X22836Y70546D01*
X22911Y70621D01*
X22963Y70712D01*
X22991Y70813D01*
Y70919D01*
X22963Y71021D01*
X22911Y71112D01*
X22836Y71186D01*
X22745Y71239D01*
X22643Y71266D01*
D02*
G37*
G36*
X39868Y72679D02*
X39691D01*
X39640Y72669D01*
X39598Y72641D01*
X39569Y72598D01*
X39559Y72547D01*
Y71854D01*
X39569Y71804D01*
X39598Y71761D01*
X39575Y71717D01*
X39405Y71547D01*
X39366Y71489D01*
X39353Y71421D01*
Y71380D01*
X39313Y71372D01*
X39244Y71326D01*
X39198Y71257D01*
X39182Y71176D01*
Y70723D01*
X39198Y70641D01*
X39244Y70573D01*
X39313Y70527D01*
X39344Y70520D01*
Y70466D01*
X39339Y70465D01*
X39288Y70431D01*
X39254Y70381D01*
X39253Y70373D01*
X39202D01*
X39200Y70381D01*
X39166Y70431D01*
X39116Y70465D01*
X39056Y70477D01*
X38982D01*
Y70177D01*
Y69877D01*
X39056D01*
X39116Y69889D01*
X39166Y69923D01*
X39200Y69974D01*
X39202Y69981D01*
X39253D01*
X39254Y69974D01*
X39288Y69923D01*
X39339Y69889D01*
X39399Y69877D01*
X39647D01*
X39706Y69889D01*
X39757Y69923D01*
X39791Y69974D01*
X39803Y70033D01*
Y70321D01*
X39791Y70381D01*
X39757Y70431D01*
X39706Y70465D01*
X39701Y70466D01*
Y70532D01*
X39761Y70573D01*
X39807Y70641D01*
X39823Y70723D01*
Y71176D01*
X39807Y71257D01*
X39761Y71326D01*
X39750Y71333D01*
X39745Y71383D01*
X39906Y71543D01*
X39944Y71601D01*
X39958Y71669D01*
X39958Y71669D01*
Y71759D01*
X39961Y71761D01*
X39990Y71804D01*
X40000Y71854D01*
Y72547D01*
X39990Y72598D01*
X39961Y72641D01*
X39919Y72669D01*
X39868Y72679D01*
D02*
G37*
G36*
X38882Y70477D02*
X38808D01*
X38748Y70465D01*
X38698Y70431D01*
X38664Y70381D01*
X38652Y70321D01*
Y70227D01*
X38882D01*
Y70477D01*
D02*
G37*
G36*
X41343Y70477D02*
X41269D01*
Y70227D01*
X41499D01*
Y70321D01*
X41487Y70381D01*
X41453Y70431D01*
X41403Y70465D01*
X41343Y70477D01*
D02*
G37*
G36*
X31886Y72667D02*
X31496D01*
X31106D01*
Y72160D01*
X31125Y72066D01*
X31178Y71985D01*
X31259Y71932D01*
X31287Y71875D01*
X31271Y71836D01*
Y71747D01*
X31287Y71708D01*
X31259Y71651D01*
X31178Y71597D01*
X31125Y71517D01*
X31106Y71422D01*
Y71045D01*
X30918D01*
X30850Y71031D01*
X30792Y70992D01*
X29938Y70138D01*
X29764D01*
X29762Y70149D01*
X29728Y70200D01*
X29677Y70233D01*
X29617Y70245D01*
X29330D01*
X29270Y70233D01*
X29220Y70200D01*
X29186Y70149D01*
X29184Y70138D01*
X28979D01*
X28769Y70348D01*
Y70507D01*
X28836Y70546D01*
X28911Y70621D01*
X28963Y70712D01*
X28991Y70813D01*
Y70919D01*
X28963Y71021D01*
X28911Y71112D01*
X28836Y71186D01*
X28767Y71226D01*
Y71813D01*
X28792Y71818D01*
X28843Y71852D01*
X28877Y71903D01*
X28888Y71963D01*
Y72211D01*
X28877Y72270D01*
X28843Y72321D01*
X28792Y72355D01*
X28784Y72356D01*
Y72407D01*
X28792Y72409D01*
X28843Y72443D01*
X28877Y72493D01*
X28888Y72553D01*
Y72627D01*
X28289D01*
Y72553D01*
X28301Y72493D01*
X28334Y72443D01*
X28385Y72409D01*
X28393Y72407D01*
Y72356D01*
X28385Y72355D01*
X28334Y72321D01*
X28301Y72270D01*
X28289Y72211D01*
Y71963D01*
X28301Y71903D01*
X28334Y71852D01*
X28385Y71818D01*
X28410Y71813D01*
Y71224D01*
X28345Y71186D01*
X28270Y71112D01*
X28218Y71021D01*
X28191Y70919D01*
Y70813D01*
X28218Y70712D01*
X28270Y70621D01*
X28345Y70546D01*
X28412Y70507D01*
Y70274D01*
X28426Y70206D01*
X28464Y70148D01*
X28778Y69834D01*
X28836Y69795D01*
X28905Y69782D01*
X28905Y69782D01*
X29186D01*
X29186Y69781D01*
X29220Y69731D01*
X29270Y69697D01*
X29278Y69695D01*
Y69644D01*
X29270Y69643D01*
X29220Y69609D01*
X29186Y69558D01*
X29185Y69553D01*
X28534D01*
X27784Y70303D01*
X27726Y70342D01*
X27657Y70356D01*
X23294D01*
X23294Y70356D01*
X23226Y70342D01*
X23168Y70303D01*
X22827Y69962D01*
X21859D01*
X21854Y69987D01*
X21821Y70038D01*
X21770Y70071D01*
X21765Y70072D01*
Y70505D01*
X21836Y70546D01*
X21911Y70621D01*
X21963Y70712D01*
X21991Y70813D01*
Y70919D01*
X21963Y71021D01*
X21911Y71112D01*
X21836Y71186D01*
X21745Y71239D01*
X21643Y71266D01*
X21538D01*
X21436Y71239D01*
X21345Y71186D01*
X21270Y71112D01*
X21218Y71021D01*
X21191Y70919D01*
Y70813D01*
X21218Y70712D01*
X21270Y70621D01*
X21345Y70546D01*
X21408Y70510D01*
Y70072D01*
X21402Y70071D01*
X21352Y70038D01*
X21318Y69987D01*
X21316Y69979D01*
X21265D01*
X21264Y69987D01*
X21230Y70038D01*
X21179Y70071D01*
X21120Y70083D01*
X21046D01*
Y69783D01*
Y69484D01*
X21120D01*
X21179Y69496D01*
X21230Y69529D01*
X21264Y69580D01*
X21265Y69588D01*
X21316D01*
X21318Y69580D01*
X21352Y69529D01*
X21402Y69496D01*
X21462Y69484D01*
X21710D01*
X21770Y69496D01*
X21821Y69529D01*
X21854Y69580D01*
X21859Y69605D01*
X22901D01*
X22969Y69619D01*
X23027Y69657D01*
X23368Y69999D01*
X25037D01*
X25042Y69949D01*
X24938Y69928D01*
X24777Y69861D01*
X24631Y69764D01*
X24508Y69640D01*
X24410Y69495D01*
X24344Y69334D01*
X24309Y69162D01*
Y68987D01*
X24344Y68816D01*
X24410Y68654D01*
X24508Y68509D01*
X24631Y68386D01*
X24777Y68288D01*
X24938Y68222D01*
X25109Y68187D01*
X25284D01*
X25456Y68222D01*
X25617Y68288D01*
X25763Y68386D01*
X25886Y68509D01*
X25983Y68654D01*
X26050Y68816D01*
X26084Y68987D01*
Y69162D01*
X26050Y69334D01*
X25983Y69495D01*
X25886Y69640D01*
X25763Y69764D01*
X25617Y69861D01*
X25456Y69928D01*
X25352Y69949D01*
X25357Y69999D01*
X27584D01*
X28334Y69248D01*
X28392Y69210D01*
X28399Y69208D01*
X28394Y69158D01*
X27831D01*
X27488Y69501D01*
X27430Y69539D01*
X27362Y69553D01*
X26730D01*
X26718Y69565D01*
X26635Y69600D01*
X26546D01*
X26463Y69565D01*
X26400Y69502D01*
X26366Y69419D01*
Y69330D01*
X26400Y69247D01*
X26463Y69184D01*
X26546Y69150D01*
X26635D01*
X26718Y69184D01*
X26730Y69196D01*
X27288D01*
X27544Y68941D01*
X27527Y68887D01*
X27463Y68860D01*
X27400Y68797D01*
X27366Y68714D01*
Y68625D01*
X27400Y68542D01*
X27463Y68479D01*
X27546Y68444D01*
X27635D01*
X27718Y68479D01*
X27730Y68491D01*
X35392D01*
X35404Y68479D01*
X35487Y68444D01*
X35576D01*
X35659Y68479D01*
X35696Y68515D01*
X35728Y68538D01*
X35761Y68515D01*
X35798Y68479D01*
X35880Y68444D01*
X35970D01*
X36053Y68479D01*
X36116Y68542D01*
X36150Y68625D01*
Y68714D01*
X36116Y68797D01*
X36053Y68860D01*
X35986Y68888D01*
X35965Y68909D01*
X35958Y68920D01*
X35772Y69106D01*
X35714Y69145D01*
X35645Y69158D01*
X29796D01*
X29765Y69208D01*
X29774Y69251D01*
Y69499D01*
X29762Y69558D01*
X29728Y69609D01*
X29677Y69643D01*
X29670Y69644D01*
Y69695D01*
X29677Y69697D01*
X29728Y69731D01*
X29762Y69781D01*
X29762Y69782D01*
X30012D01*
X30080Y69795D01*
X30138Y69834D01*
X30992Y70688D01*
X31106D01*
Y70310D01*
X31125Y70215D01*
X31178Y70135D01*
X31259Y70081D01*
X31318Y70070D01*
Y70022D01*
X31305Y70009D01*
X31271Y69927D01*
Y69837D01*
X31305Y69754D01*
X31369Y69691D01*
X31451Y69657D01*
X31541D01*
X31624Y69691D01*
X31687Y69754D01*
X31721Y69837D01*
Y69927D01*
X31687Y70009D01*
X31674Y70022D01*
Y70070D01*
X31733Y70081D01*
X31814Y70135D01*
X31867Y70215D01*
X31886Y70310D01*
Y70688D01*
X35982D01*
X35995Y70675D01*
X36077Y70641D01*
X36167D01*
X36249Y70675D01*
X36313Y70739D01*
X36347Y70821D01*
Y70911D01*
X36313Y70994D01*
X36249Y71057D01*
X36167Y71091D01*
X36077D01*
X35995Y71057D01*
X35982Y71045D01*
X31886D01*
Y71422D01*
X31867Y71517D01*
X31814Y71597D01*
X31733Y71651D01*
X31705Y71708D01*
X31721Y71747D01*
Y71836D01*
X31705Y71875D01*
X31733Y71932D01*
X31814Y71985D01*
X31867Y72066D01*
X31886Y72160D01*
Y72667D01*
D02*
G37*
G36*
X38882Y70127D02*
X38652D01*
Y70033D01*
X38664Y69974D01*
X38698Y69923D01*
X38748Y69889D01*
X38808Y69877D01*
X38882D01*
Y70127D01*
D02*
G37*
G36*
X41499Y70127D02*
X41269D01*
Y69877D01*
X41343D01*
X41403Y69889D01*
X41453Y69923D01*
X41487Y69974D01*
X41499Y70033D01*
Y70127D01*
D02*
G37*
G36*
X40368Y72679D02*
X40191D01*
X40140Y72669D01*
X40098Y72641D01*
X40069Y72598D01*
X40059Y72547D01*
Y71854D01*
X40069Y71804D01*
X40098Y71761D01*
X40122Y71745D01*
Y71726D01*
X40135Y71658D01*
X40174Y71600D01*
X40380Y71394D01*
X40375Y71344D01*
X40347Y71326D01*
X40301Y71257D01*
X40285Y71176D01*
Y70723D01*
X40301Y70641D01*
X40347Y70573D01*
X40416Y70527D01*
X40450Y70520D01*
Y70466D01*
X40444Y70465D01*
X40394Y70431D01*
X40360Y70381D01*
X40348Y70321D01*
Y70033D01*
X40360Y69974D01*
X40394Y69923D01*
X40444Y69889D01*
X40504Y69877D01*
X40752D01*
X40812Y69889D01*
X40863Y69923D01*
X40897Y69974D01*
X40898Y69981D01*
X40949D01*
X40951Y69974D01*
X40984Y69923D01*
X41035Y69889D01*
X41095Y69877D01*
X41169D01*
Y70177D01*
Y70477D01*
X41095D01*
X41035Y70465D01*
X40984Y70431D01*
X40951Y70381D01*
X40949Y70373D01*
X40898D01*
X40897Y70381D01*
X40863Y70431D01*
X40812Y70465D01*
X40807Y70466D01*
Y70535D01*
X40864Y70573D01*
X40910Y70641D01*
X40926Y70723D01*
Y71176D01*
X40910Y71257D01*
X40864Y71326D01*
X40795Y71372D01*
X40784Y71374D01*
Y71421D01*
X40770Y71489D01*
X40731Y71547D01*
X40731Y71547D01*
X40484Y71795D01*
X40490Y71804D01*
X40500Y71854D01*
Y72547D01*
X40490Y72598D01*
X40461Y72641D01*
X40419Y72669D01*
X40368Y72679D01*
D02*
G37*
G36*
X20946Y70083D02*
X20872D01*
X20812Y70071D01*
X20761Y70038D01*
X20727Y69987D01*
X20715Y69927D01*
Y69833D01*
X20946D01*
Y70083D01*
D02*
G37*
G36*
Y69733D02*
X20715D01*
Y69640D01*
X20727Y69580D01*
X20761Y69529D01*
X20812Y69496D01*
X20872Y69484D01*
X20946D01*
Y69733D01*
D02*
G37*
G36*
X40113Y69581D02*
X39847D01*
Y69412D01*
X40244D01*
Y69449D01*
X40234Y69500D01*
X40206Y69542D01*
X40163Y69571D01*
X40113Y69581D01*
D02*
G37*
G36*
X39747D02*
X39482D01*
X39431Y69571D01*
X39389Y69542D01*
X39360Y69500D01*
X39350Y69449D01*
Y69412D01*
X39747D01*
Y69581D01*
D02*
G37*
G36*
X40244Y69312D02*
X39847D01*
Y69144D01*
X40113D01*
X40163Y69154D01*
X40206Y69182D01*
X40234Y69225D01*
X40244Y69275D01*
Y69312D01*
D02*
G37*
G36*
X39747D02*
X39350D01*
Y69275D01*
X39360Y69225D01*
X39389Y69182D01*
X39431Y69154D01*
X39482Y69144D01*
X39747D01*
Y69312D01*
D02*
G37*
G36*
X36961Y69233D02*
X36868D01*
Y69003D01*
X37118D01*
Y69077D01*
X37106Y69137D01*
X37072Y69187D01*
X37021Y69221D01*
X36961Y69233D01*
D02*
G37*
G36*
X36768D02*
X36674D01*
X36614Y69221D01*
X36564Y69187D01*
X36530Y69137D01*
X36518Y69077D01*
Y69003D01*
X36768D01*
Y69233D01*
D02*
G37*
G36*
X38077Y69081D02*
X37812D01*
Y68912D01*
X38209D01*
Y68949D01*
X38199Y69000D01*
X38170Y69042D01*
X38128Y69071D01*
X38077Y69081D01*
D02*
G37*
G36*
X37712D02*
X37446D01*
X37396Y69071D01*
X37353Y69042D01*
X37325Y69000D01*
X37315Y68949D01*
Y68912D01*
X37712D01*
Y69081D01*
D02*
G37*
G36*
X38209Y68812D02*
X37812D01*
Y68644D01*
X38077D01*
X38128Y68654D01*
X38170Y68682D01*
X38199Y68725D01*
X38209Y68775D01*
Y68812D01*
D02*
G37*
G36*
X37712D02*
X37315D01*
Y68775D01*
X37325Y68725D01*
X37353Y68682D01*
X37396Y68654D01*
X37446Y68644D01*
X37712D01*
Y68812D01*
D02*
G37*
G36*
X46889Y68755D02*
X46821D01*
X46759Y68742D01*
X46706Y68707D01*
X46671Y68655D01*
X46659Y68593D01*
Y68583D01*
X46889D01*
Y68755D01*
D02*
G37*
G36*
X37118Y68903D02*
X36818D01*
X36518D01*
Y68829D01*
X36530Y68769D01*
X36564Y68718D01*
X36614Y68684D01*
X36622Y68683D01*
Y68632D01*
X36614Y68630D01*
X36564Y68597D01*
X36534Y68553D01*
X36532Y68553D01*
X36449Y68587D01*
X36360D01*
X36277Y68553D01*
X36214Y68489D01*
X36179Y68407D01*
Y68317D01*
X36214Y68235D01*
X36277Y68171D01*
X36360Y68137D01*
X36449D01*
X36532Y68171D01*
X36535Y68171D01*
X36564Y68128D01*
X36614Y68094D01*
X36674Y68082D01*
X36961D01*
X37021Y68094D01*
X37072Y68128D01*
X37106Y68178D01*
X37107Y68184D01*
X37352D01*
X37353Y68182D01*
X37396Y68154D01*
X37446Y68144D01*
X38077D01*
X38128Y68154D01*
X38170Y68182D01*
X38199Y68225D01*
X38209Y68275D01*
Y68449D01*
X38199Y68500D01*
X38170Y68542D01*
X38128Y68571D01*
X38077Y68581D01*
X37446D01*
X37396Y68571D01*
X37353Y68542D01*
X37352Y68541D01*
X37107D01*
X37106Y68546D01*
X37072Y68597D01*
X37021Y68630D01*
X37014Y68632D01*
Y68683D01*
X37021Y68684D01*
X37072Y68718D01*
X37106Y68769D01*
X37118Y68829D01*
Y68903D01*
D02*
G37*
G36*
X46560Y68562D02*
X46310D01*
Y68332D01*
X46404D01*
X46463Y68344D01*
X46514Y68378D01*
X46548Y68428D01*
X46560Y68488D01*
Y68562D01*
D02*
G37*
G36*
X46889Y68483D02*
X46659D01*
Y68474D01*
X46671Y68412D01*
X46706Y68360D01*
X46759Y68325D01*
X46821Y68312D01*
X46889D01*
Y68483D01*
D02*
G37*
G36*
X28549Y68292D02*
X28456D01*
Y68062D01*
X28705D01*
Y68136D01*
X28693Y68196D01*
X28660Y68246D01*
X28609Y68280D01*
X28549Y68292D01*
D02*
G37*
G36*
X28356D02*
X28262D01*
X28202Y68280D01*
X28151Y68246D01*
X28118Y68196D01*
X28106Y68136D01*
Y68062D01*
X28356D01*
Y68292D01*
D02*
G37*
G36*
X40113Y68081D02*
X39482D01*
X39431Y68071D01*
X39389Y68042D01*
X39360Y68000D01*
X39350Y67949D01*
Y67775D01*
X39360Y67725D01*
X39389Y67682D01*
X39431Y67654D01*
X39482Y67644D01*
X40113D01*
X40163Y67654D01*
X40206Y67682D01*
X40234Y67725D01*
X40244Y67775D01*
Y67949D01*
X40234Y68000D01*
X40206Y68042D01*
X40163Y68071D01*
X40113Y68081D01*
D02*
G37*
G36*
X28705Y67962D02*
X28406D01*
X28106D01*
Y67888D01*
X28118Y67828D01*
X28151Y67777D01*
X28202Y67744D01*
X28210Y67742D01*
Y67691D01*
X28202Y67690D01*
X28151Y67656D01*
X28118Y67605D01*
X28116Y67600D01*
X23961D01*
X23915Y67645D01*
Y67663D01*
X23881Y67746D01*
X23817Y67809D01*
X23735Y67843D01*
X23645D01*
X23562Y67809D01*
X23499Y67746D01*
X23465Y67663D01*
Y67573D01*
X23499Y67491D01*
X23562Y67427D01*
X23645Y67393D01*
X23662D01*
X23760Y67295D01*
X23760Y67295D01*
X23818Y67256D01*
X23887Y67243D01*
X28116D01*
X28118Y67237D01*
X28151Y67187D01*
X28202Y67153D01*
X28262Y67141D01*
X28549D01*
X28609Y67153D01*
X28660Y67187D01*
X28693Y67237D01*
X28695Y67243D01*
X28786D01*
X28787Y67237D01*
X28821Y67187D01*
X28871Y67153D01*
X28879Y67151D01*
Y67100D01*
X28871Y67099D01*
X28821Y67065D01*
X28787Y67014D01*
X28775Y66955D01*
Y66707D01*
X28787Y66647D01*
X28821Y66596D01*
X28871Y66562D01*
X28896Y66557D01*
Y65672D01*
X28846Y65662D01*
X28820Y65726D01*
X28757Y65789D01*
X28674Y65823D01*
X28584D01*
X28502Y65789D01*
X28489Y65777D01*
X22819D01*
Y65793D01*
X22785Y65875D01*
X22722Y65939D01*
X22639Y65973D01*
X22550D01*
X22467Y65939D01*
X22404Y65875D01*
X22369Y65793D01*
Y65703D01*
X22404Y65621D01*
X22467Y65557D01*
X22550Y65523D01*
X22567D01*
X22618Y65472D01*
X22618Y65472D01*
X22676Y65434D01*
X22744Y65420D01*
X28489D01*
X28502Y65408D01*
X28584Y65373D01*
X28674D01*
X28757Y65408D01*
X28820Y65471D01*
X28846Y65535D01*
X28896Y65525D01*
Y62494D01*
X28910Y62426D01*
X28949Y62368D01*
X29435Y61882D01*
X29435Y61882D01*
X29493Y61843D01*
X29561Y61829D01*
X29561Y61829D01*
X30033D01*
X30075Y61756D01*
X30152Y61680D01*
X30245Y61626D01*
X30350Y61598D01*
X30458D01*
X30562Y61626D01*
X30655Y61680D01*
X30732Y61756D01*
X30786Y61850D01*
X30814Y61954D01*
Y62062D01*
X30786Y62166D01*
X30732Y62260D01*
X30655Y62336D01*
X30562Y62390D01*
X30458Y62418D01*
X30350D01*
X30245Y62390D01*
X30152Y62336D01*
X30075Y62260D01*
X30033Y62186D01*
X29635D01*
X29253Y62568D01*
Y66557D01*
X29278Y66562D01*
X29329Y66596D01*
X29363Y66647D01*
X29375Y66707D01*
Y66955D01*
X29363Y67014D01*
X29329Y67065D01*
X29278Y67099D01*
X29271Y67100D01*
Y67151D01*
X29278Y67153D01*
X29329Y67187D01*
X29363Y67237D01*
X29375Y67297D01*
Y67545D01*
X29363Y67605D01*
X29329Y67656D01*
X29278Y67690D01*
X29218Y67701D01*
X28931D01*
X28871Y67690D01*
X28821Y67656D01*
X28787Y67605D01*
X28786Y67600D01*
X28695D01*
X28693Y67605D01*
X28660Y67656D01*
X28609Y67690D01*
X28601Y67691D01*
Y67742D01*
X28609Y67744D01*
X28660Y67777D01*
X28693Y67828D01*
X28705Y67888D01*
Y67962D01*
D02*
G37*
G36*
X30814Y67418D02*
X29994D01*
Y66598D01*
X30814D01*
Y67418D01*
D02*
G37*
G36*
X30458Y66418D02*
X30454D01*
Y66058D01*
X30814D01*
Y66062D01*
X30786Y66166D01*
X30732Y66260D01*
X30655Y66336D01*
X30562Y66390D01*
X30458Y66418D01*
D02*
G37*
G36*
X30354D02*
X30350D01*
X30245Y66390D01*
X30152Y66336D01*
X30075Y66260D01*
X30021Y66166D01*
X29994Y66062D01*
Y66058D01*
X30354D01*
Y66418D01*
D02*
G37*
G36*
X39729Y66580D02*
X39660Y66566D01*
X39603Y66527D01*
X39603Y66527D01*
X38878Y65802D01*
X35557D01*
X35398Y65961D01*
X35340Y66000D01*
X35272Y66013D01*
X34392D01*
X34392Y66013D01*
X34357Y66006D01*
X34357Y66007D01*
X34267D01*
X34184Y65973D01*
X34121Y65909D01*
X34087Y65827D01*
Y65737D01*
X34121Y65654D01*
X34184Y65591D01*
X34267Y65557D01*
X34357D01*
X34439Y65591D01*
X34503Y65654D01*
X34503Y65657D01*
X34909D01*
X34937Y65615D01*
X34922Y65580D01*
Y65490D01*
X34957Y65407D01*
X35020Y65344D01*
X35103Y65310D01*
X35120D01*
X35182Y65248D01*
X35182Y65248D01*
X35240Y65209D01*
X35308Y65196D01*
X35308Y65196D01*
X35435D01*
X35463Y65154D01*
X35449Y65119D01*
Y65029D01*
X35483Y64947D01*
X35546Y64883D01*
X35629Y64849D01*
X35718D01*
X35801Y64883D01*
X35863Y64946D01*
X36141D01*
X36160Y64899D01*
X36145Y64884D01*
X36110Y64801D01*
Y64711D01*
X36145Y64629D01*
X36208Y64565D01*
X36291Y64531D01*
X36380D01*
X36463Y64565D01*
X36526Y64629D01*
X36554Y64696D01*
X39262D01*
X39331Y64709D01*
X39388Y64748D01*
X40113Y65473D01*
X40763D01*
Y65309D01*
X40775Y65249D01*
X40809Y65199D01*
X40825Y65188D01*
Y65127D01*
X40809Y65116D01*
X40775Y65066D01*
X40763Y65006D01*
Y64912D01*
X41043D01*
Y64812D01*
X40763D01*
Y64718D01*
X40775Y64659D01*
X40809Y64608D01*
X40837Y64589D01*
X40839Y64572D01*
X40833Y64532D01*
X40791Y64504D01*
X40756Y64452D01*
X40743Y64390D01*
Y64322D01*
X40965D01*
Y64222D01*
X40743D01*
Y64154D01*
X40744Y64150D01*
X40739Y64144D01*
X40739D01*
X40739Y63581D01*
X40910D01*
X40929Y63535D01*
X40917Y63523D01*
X40878Y63465D01*
X40865Y63396D01*
Y63183D01*
X40860Y63182D01*
X40809Y63148D01*
X40775Y63097D01*
X40763Y63037D01*
Y62750D01*
X40775Y62690D01*
X40809Y62640D01*
X40837Y62621D01*
X40839Y62604D01*
X40833Y62564D01*
X40791Y62536D01*
X40756Y62483D01*
X40743Y62421D01*
Y62185D01*
X40744Y62182D01*
X40739Y62175D01*
X40739D01*
Y61613D01*
X40786D01*
Y60560D01*
X40756Y60515D01*
X40743Y60453D01*
Y60257D01*
X40739Y60207D01*
X40739Y60207D01*
Y59644D01*
X40786D01*
Y59177D01*
X40775Y59160D01*
X40763Y59100D01*
Y58813D01*
X40775Y58753D01*
X40809Y58703D01*
Y58696D01*
X40789Y58656D01*
X40756Y58605D01*
X40743Y58543D01*
Y58515D01*
X41186D01*
Y58543D01*
X41173Y58605D01*
X41171Y58609D01*
X41195Y58662D01*
X41227Y58669D01*
X41278Y58703D01*
X41312Y58753D01*
X41313Y58761D01*
X41364D01*
X41366Y58753D01*
X41399Y58703D01*
X41450Y58669D01*
X41482Y58662D01*
X41506Y58610D01*
X41506Y58609D01*
X41504Y58605D01*
X41491Y58543D01*
Y58386D01*
X41504Y58324D01*
X41539Y58271D01*
X41591Y58236D01*
X41654Y58224D01*
X41772D01*
X41834Y58236D01*
X41886Y58271D01*
X41921Y58324D01*
X41934Y58386D01*
Y58543D01*
X41921Y58605D01*
X41891Y58651D01*
Y58737D01*
X41902Y58753D01*
X41914Y58813D01*
Y59100D01*
X41902Y59160D01*
X41868Y59211D01*
X41818Y59245D01*
X41758Y59257D01*
X41560D01*
X41512Y59305D01*
X41512Y59314D01*
X41533Y59345D01*
X41583Y59356D01*
X41594Y59353D01*
X41668Y59322D01*
X41757D01*
X41840Y59356D01*
X41903Y59420D01*
X41938Y59502D01*
Y59592D01*
X41925Y59623D01*
X41939Y59644D01*
X41939D01*
X41939Y60207D01*
X41939D01*
X41933Y60213D01*
X41934Y60217D01*
Y60420D01*
X42009Y60625D01*
X42053D01*
X42113Y60637D01*
X42164Y60671D01*
X42197Y60722D01*
X42209Y60781D01*
Y61069D01*
X42197Y61129D01*
X42164Y61179D01*
X42113Y61213D01*
X42108Y61214D01*
Y61420D01*
X42094Y61489D01*
X42055Y61547D01*
X42055Y61547D01*
X41939Y61663D01*
X41939Y62175D01*
X41939D01*
X41934Y62225D01*
Y62421D01*
X41921Y62483D01*
X41891Y62529D01*
Y62674D01*
X41902Y62690D01*
X41914Y62750D01*
Y63037D01*
X41902Y63097D01*
X41868Y63148D01*
X41818Y63182D01*
X41758Y63194D01*
X41560D01*
X41512Y63242D01*
X41512Y63251D01*
X41547Y63304D01*
X41560Y63366D01*
Y63581D01*
X41939D01*
Y64144D01*
X41939D01*
X41933Y64150D01*
X41934Y64154D01*
Y64390D01*
X41921Y64452D01*
X41891Y64497D01*
Y64642D01*
X41902Y64659D01*
X41914Y64718D01*
Y65006D01*
X41902Y65066D01*
X41891Y65082D01*
Y65233D01*
X41902Y65249D01*
X41914Y65309D01*
Y65596D01*
X41902Y65656D01*
X41891Y65673D01*
X41918Y65723D01*
X42236D01*
X42262Y65673D01*
X42251Y65656D01*
X42240Y65596D01*
Y65309D01*
X42251Y65249D01*
X42285Y65199D01*
X42302Y65188D01*
Y65127D01*
X42285Y65116D01*
X42251Y65066D01*
X42240Y65006D01*
Y64912D01*
X42520D01*
Y64812D01*
X42240D01*
Y64718D01*
X42251Y64659D01*
X42285Y64608D01*
X42313Y64589D01*
X42316Y64572D01*
X42309Y64532D01*
X42267Y64504D01*
X42232Y64452D01*
X42220Y64390D01*
Y64322D01*
X42441D01*
Y64222D01*
X42220D01*
Y64154D01*
X42220Y64150D01*
X42215Y64144D01*
X42215D01*
X42215Y63581D01*
X42387D01*
X42406Y63535D01*
X42394Y63523D01*
X42355Y63465D01*
X42341Y63396D01*
Y63183D01*
X42336Y63182D01*
X42285Y63148D01*
X42251Y63097D01*
X42240Y63037D01*
Y62750D01*
X42251Y62690D01*
X42285Y62640D01*
X42313Y62621D01*
X42316Y62604D01*
X42309Y62564D01*
X42267Y62536D01*
X42232Y62483D01*
X42220Y62421D01*
Y62185D01*
X42220Y62182D01*
X42215Y62175D01*
X42215D01*
X42215Y61613D01*
X42263D01*
Y60560D01*
X42232Y60515D01*
X42220Y60453D01*
Y60217D01*
X42220Y60213D01*
X42215Y60207D01*
X42215D01*
X42215Y59644D01*
X42263D01*
Y59177D01*
X42251Y59160D01*
X42240Y59100D01*
Y58813D01*
X42251Y58753D01*
X42285Y58703D01*
Y58696D01*
X42266Y58656D01*
X42232Y58605D01*
X42220Y58543D01*
Y58515D01*
X42662D01*
Y58543D01*
X42650Y58605D01*
X42647Y58609D01*
X42672Y58662D01*
X42703Y58669D01*
X42754Y58703D01*
X42788Y58753D01*
X42789Y58761D01*
X42840D01*
X42842Y58753D01*
X42876Y58703D01*
X42926Y58669D01*
X42958Y58662D01*
X42982Y58610D01*
X42982Y58609D01*
X42980Y58605D01*
X42968Y58543D01*
Y58386D01*
X42980Y58324D01*
X43015Y58271D01*
X43068Y58236D01*
X43130Y58224D01*
X43248D01*
X43310Y58236D01*
X43363Y58271D01*
X43398Y58324D01*
X43410Y58386D01*
Y58543D01*
X43398Y58605D01*
X43367Y58651D01*
X43367Y58737D01*
X43379Y58753D01*
X43390Y58813D01*
Y59100D01*
X43379Y59160D01*
X43345Y59211D01*
X43294Y59245D01*
X43234Y59257D01*
X43037D01*
X42989Y59305D01*
X42989Y59314D01*
X43009Y59345D01*
X43060Y59356D01*
X43070Y59353D01*
X43144Y59322D01*
X43234D01*
X43316Y59356D01*
X43380Y59420D01*
X43414Y59502D01*
Y59592D01*
X43401Y59623D01*
X43415Y59644D01*
X43415D01*
X43415Y60207D01*
X43415Y60207D01*
X43415D01*
X43410Y60257D01*
Y60420D01*
X43486Y60625D01*
X43530D01*
X43589Y60637D01*
X43640Y60671D01*
X43674Y60722D01*
X43686Y60781D01*
Y61069D01*
X43674Y61129D01*
X43640Y61179D01*
X43589Y61213D01*
X43584Y61214D01*
Y61420D01*
X43584Y61420D01*
X43570Y61489D01*
X43532Y61547D01*
X43532Y61547D01*
X43415Y61663D01*
Y62175D01*
X43415Y62175D01*
X43415D01*
X43410Y62225D01*
Y62421D01*
X43398Y62483D01*
X43367Y62529D01*
Y62674D01*
X43379Y62690D01*
X43390Y62750D01*
Y63037D01*
X43379Y63097D01*
X43345Y63148D01*
X43294Y63182D01*
X43234Y63194D01*
X43037D01*
X42989Y63242D01*
X42989Y63251D01*
X43024Y63304D01*
X43036Y63366D01*
Y63581D01*
X43415D01*
X43415Y64144D01*
X43415Y64144D01*
X43415D01*
X43410Y64194D01*
Y64390D01*
X43398Y64452D01*
X43367Y64497D01*
Y64642D01*
X43379Y64659D01*
X43390Y64718D01*
Y65006D01*
X43379Y65066D01*
X43367Y65082D01*
Y65233D01*
X43379Y65249D01*
X43390Y65309D01*
Y65596D01*
X43379Y65656D01*
X43352Y65696D01*
X43366Y65734D01*
X43374Y65746D01*
X43941D01*
X44135Y65552D01*
Y64465D01*
X44129Y64463D01*
X44079Y64430D01*
X44045Y64379D01*
X44033Y64319D01*
Y64032D01*
X44045Y63972D01*
X44079Y63921D01*
X44124Y63891D01*
X44125Y63869D01*
X44118Y63839D01*
X44090Y63834D01*
X44039Y63800D01*
X44005Y63749D01*
X43993Y63689D01*
Y63596D01*
X44274D01*
Y63546D01*
X44324D01*
Y63246D01*
X44398D01*
X44457Y63258D01*
X44508Y63291D01*
X44542Y63342D01*
X44543Y63350D01*
X44594D01*
X44596Y63342D01*
X44630Y63291D01*
X44680Y63258D01*
X44725Y63249D01*
Y63146D01*
X44720Y63145D01*
X44669Y63111D01*
X44635Y63060D01*
X44634Y63053D01*
X44583D01*
X44581Y63060D01*
X44547Y63111D01*
X44497Y63145D01*
X44437Y63156D01*
X44363D01*
Y62857D01*
Y62557D01*
X44437D01*
X44497Y62569D01*
X44547Y62603D01*
X44581Y62653D01*
X44583Y62661D01*
X44634D01*
X44635Y62653D01*
X44669Y62603D01*
X44720Y62569D01*
X44725Y62568D01*
Y62457D01*
X44720Y62456D01*
X44669Y62422D01*
X44635Y62371D01*
X44634Y62364D01*
X44583D01*
X44581Y62371D01*
X44547Y62422D01*
X44497Y62456D01*
X44437Y62467D01*
X44363D01*
Y62168D01*
Y61868D01*
X44437D01*
X44497Y61880D01*
X44547Y61914D01*
X44581Y61964D01*
X44583Y61972D01*
X44634D01*
X44635Y61964D01*
X44669Y61914D01*
X44720Y61880D01*
X44725Y61879D01*
Y61818D01*
X44739Y61750D01*
X44777Y61692D01*
X44784Y61685D01*
X44771Y61666D01*
X44762Y61617D01*
X44711D01*
X44701Y61666D01*
X44651Y61741D01*
X44575Y61792D01*
X44536Y61800D01*
Y61380D01*
Y60961D01*
X44575Y60969D01*
X44651Y61019D01*
X44701Y61094D01*
X44711Y61144D01*
X44762D01*
X44771Y61094D01*
X44822Y61019D01*
X44897Y60969D01*
X44986Y60951D01*
X45075Y60969D01*
X45151Y61019D01*
X45201Y61094D01*
X45211Y61144D01*
X45262D01*
X45271Y61094D01*
X45322Y61019D01*
X45397Y60969D01*
X45486Y60951D01*
X45575Y60969D01*
X45651Y61019D01*
X45701Y61094D01*
X45711Y61144D01*
X45762D01*
X45771Y61094D01*
X45808Y61040D01*
Y60135D01*
X45598Y59925D01*
X44110D01*
X44109Y59930D01*
X44075Y59981D01*
X44024Y60015D01*
X43965Y60027D01*
X43677D01*
X43617Y60015D01*
X43567Y59981D01*
X43533Y59930D01*
X43521Y59870D01*
Y59622D01*
X43533Y59563D01*
X43567Y59512D01*
X43617Y59478D01*
X43625Y59477D01*
Y59426D01*
X43617Y59424D01*
X43567Y59390D01*
X43533Y59340D01*
X43521Y59280D01*
Y59032D01*
X43533Y58972D01*
X43567Y58921D01*
X43617Y58888D01*
X43642Y58883D01*
Y58602D01*
X43617Y58597D01*
X43567Y58563D01*
X43533Y58513D01*
X43521Y58453D01*
Y58205D01*
X43533Y58145D01*
X43567Y58095D01*
X43617Y58061D01*
X43625Y58059D01*
Y58008D01*
X43617Y58007D01*
X43567Y57973D01*
X43533Y57922D01*
X43521Y57863D01*
Y57789D01*
X44121D01*
Y57863D01*
X44109Y57922D01*
X44075Y57973D01*
X44024Y58007D01*
X44017Y58008D01*
Y58059D01*
X44024Y58061D01*
X44075Y58095D01*
X44109Y58145D01*
X44121Y58205D01*
Y58453D01*
X44109Y58513D01*
X44075Y58563D01*
X44024Y58597D01*
X43999Y58602D01*
Y58883D01*
X44024Y58888D01*
X44075Y58921D01*
X44109Y58972D01*
X44110Y58977D01*
X44254D01*
Y58959D01*
X44271Y58870D01*
X44322Y58795D01*
X44397Y58744D01*
X44486Y58727D01*
X44575Y58744D01*
X44651Y58795D01*
X44701Y58870D01*
X44711Y58919D01*
X44762D01*
X44771Y58870D01*
X44822Y58795D01*
X44897Y58744D01*
X44986Y58727D01*
X45075Y58744D01*
X45151Y58795D01*
X45201Y58870D01*
X45211Y58919D01*
X45262D01*
X45271Y58870D01*
X45296Y58833D01*
X45225Y58762D01*
X45186Y58704D01*
X45173Y58636D01*
Y58629D01*
X45113Y58617D01*
X45063Y58583D01*
X45029Y58533D01*
X45027Y58525D01*
X44976D01*
X44975Y58533D01*
X44941Y58583D01*
X44890Y58617D01*
X44831Y58629D01*
X44583D01*
X44523Y58617D01*
X44472Y58583D01*
X44438Y58533D01*
X44427Y58473D01*
Y58185D01*
X44438Y58126D01*
X44472Y58075D01*
X44489Y58064D01*
Y58004D01*
X44472Y57993D01*
X44438Y57942D01*
X44427Y57882D01*
Y57595D01*
X44438Y57535D01*
X44472Y57484D01*
X44485Y57476D01*
X44516Y57436D01*
X44482Y57353D01*
Y57264D01*
X44516Y57181D01*
X44521Y57177D01*
X44501Y57130D01*
X43380D01*
X43325Y57185D01*
X43243Y57219D01*
X43153D01*
X43070Y57185D01*
X43007Y57121D01*
X43007Y57121D01*
X41904D01*
X41903Y57124D01*
X41840Y57187D01*
X41765Y57218D01*
X41744Y57267D01*
X41975Y57499D01*
X42631D01*
X42641Y57484D01*
X42694Y57449D01*
X42756Y57436D01*
X42874D01*
X42936Y57449D01*
X42989Y57484D01*
X43024Y57536D01*
X43036Y57598D01*
Y57756D01*
X43024Y57818D01*
X42989Y57871D01*
X42936Y57906D01*
X42874Y57918D01*
X42756D01*
X42694Y57906D01*
X42641Y57871D01*
X42631Y57856D01*
X41901D01*
X41833Y57842D01*
X41775Y57803D01*
X41775Y57803D01*
X41610Y57638D01*
X41560Y57659D01*
Y57756D01*
X41547Y57818D01*
X41512Y57871D01*
X41460Y57906D01*
X41398Y57918D01*
X41280D01*
X41217Y57906D01*
X41165Y57871D01*
X41155Y57856D01*
X40963D01*
X40963Y57856D01*
X40895Y57842D01*
X40837Y57803D01*
X40655Y57621D01*
X39484D01*
X39484Y57621D01*
X39416Y57608D01*
X39358Y57569D01*
X39358Y57569D01*
X39302Y57514D01*
X39256Y57538D01*
X39257Y57540D01*
Y57828D01*
X39245Y57887D01*
X39211Y57938D01*
X39160Y57972D01*
X39155Y57973D01*
Y58187D01*
X39141Y58255D01*
X39103Y58313D01*
X39103Y58313D01*
X39094Y58321D01*
X39115Y58371D01*
X39281D01*
Y58934D01*
X39281D01*
X39276Y58940D01*
X39276Y58944D01*
Y59012D01*
X39055D01*
Y59062D01*
X39005D01*
Y59342D01*
X38996D01*
X38934Y59330D01*
X38910Y59313D01*
X38860Y59340D01*
Y59435D01*
X38910Y59475D01*
X38931Y59471D01*
X39025D01*
Y59751D01*
X39125D01*
Y59471D01*
X39219D01*
X39278Y59483D01*
X39329Y59516D01*
X39341Y59534D01*
X39388Y59515D01*
X39385Y59501D01*
Y59213D01*
X39397Y59154D01*
X39431Y59103D01*
X39482Y59069D01*
X39541Y59057D01*
X39789D01*
X39849Y59069D01*
X39900Y59103D01*
X39934Y59154D01*
X39935Y59161D01*
X39986D01*
X39988Y59154D01*
X40021Y59103D01*
X40072Y59069D01*
X40077Y59068D01*
Y58957D01*
X40072Y58956D01*
X40021Y58922D01*
X39988Y58872D01*
X39986Y58864D01*
X39935D01*
X39934Y58872D01*
X39900Y58922D01*
X39849Y58956D01*
X39789Y58968D01*
X39715D01*
Y58668D01*
Y58368D01*
X39789D01*
X39849Y58380D01*
X39900Y58414D01*
X39934Y58465D01*
X39935Y58472D01*
X39986D01*
X39988Y58465D01*
X40021Y58414D01*
X40072Y58380D01*
X40132Y58368D01*
X40380D01*
X40440Y58380D01*
X40490Y58414D01*
X40524Y58465D01*
X40536Y58524D01*
Y58812D01*
X40524Y58872D01*
X40490Y58922D01*
X40440Y58956D01*
X40434Y58957D01*
Y59068D01*
X40440Y59069D01*
X40490Y59103D01*
X40524Y59154D01*
X40536Y59213D01*
Y59501D01*
X40524Y59561D01*
X40490Y59611D01*
X40440Y59645D01*
X40434Y59646D01*
Y59757D01*
X40440Y59758D01*
X40490Y59792D01*
X40524Y59843D01*
X40536Y59902D01*
Y60190D01*
X40524Y60250D01*
X40490Y60300D01*
X40440Y60334D01*
X40434Y60335D01*
Y60397D01*
X40434Y60397D01*
X40421Y60465D01*
X40382Y60523D01*
X40202Y60703D01*
X40208Y60768D01*
X40213Y60771D01*
X40243Y60816D01*
X40253Y60869D01*
Y61034D01*
X40243Y61087D01*
X40213Y61132D01*
X40183Y61152D01*
X40167Y61172D01*
X40161Y61214D01*
X40186Y61274D01*
Y61364D01*
X40156Y61436D01*
X40164Y61472D01*
X40175Y61494D01*
X40213Y61519D01*
X40215Y61523D01*
X40265D01*
X40333Y61536D01*
X40391Y61575D01*
X40480Y61665D01*
X40480Y61665D01*
X40519Y61723D01*
X40533Y61791D01*
Y62056D01*
X40558Y62061D01*
X40608Y62095D01*
X40642Y62146D01*
X40654Y62206D01*
Y62454D01*
X40642Y62513D01*
X40608Y62564D01*
X40558Y62598D01*
X40550Y62599D01*
Y62650D01*
X40558Y62652D01*
X40608Y62686D01*
X40642Y62736D01*
X40654Y62796D01*
Y62870D01*
X40354D01*
X40054D01*
Y62796D01*
X40066Y62736D01*
X40100Y62686D01*
X40151Y62652D01*
X40158Y62650D01*
Y62599D01*
X40151Y62598D01*
X40100Y62564D01*
X40066Y62513D01*
X40054Y62454D01*
Y62206D01*
X40066Y62146D01*
X40100Y62095D01*
X40151Y62061D01*
X40176Y62056D01*
Y61959D01*
X40126Y61918D01*
X40115Y61920D01*
X39793D01*
X39740Y61910D01*
X39695Y61880D01*
X39665Y61835D01*
X39654Y61782D01*
Y61649D01*
X39604Y61634D01*
X39595Y61649D01*
X39420Y61824D01*
X39362Y61862D01*
X39293Y61876D01*
X39245D01*
X39242Y61880D01*
X39197Y61910D01*
X39144Y61920D01*
X38860D01*
Y62037D01*
X38885Y62042D01*
X38935Y62075D01*
X38969Y62126D01*
X38981Y62186D01*
Y62434D01*
X38969Y62494D01*
X38935Y62544D01*
X38885Y62578D01*
X38877Y62580D01*
Y62631D01*
X38885Y62632D01*
X38935Y62666D01*
X38969Y62717D01*
X38970Y62722D01*
X39179D01*
X39181Y62717D01*
X39214Y62666D01*
X39265Y62632D01*
X39273Y62631D01*
Y62580D01*
X39265Y62578D01*
X39214Y62544D01*
X39181Y62494D01*
X39169Y62434D01*
Y62360D01*
X39768D01*
Y62434D01*
X39756Y62494D01*
X39723Y62544D01*
X39672Y62578D01*
X39664Y62580D01*
Y62631D01*
X39672Y62632D01*
X39723Y62666D01*
X39756Y62717D01*
X39768Y62776D01*
Y63024D01*
X39756Y63084D01*
X39723Y63135D01*
X39672Y63169D01*
X39612Y63181D01*
X39325D01*
X39265Y63169D01*
X39214Y63135D01*
X39181Y63084D01*
X39179Y63079D01*
X38970D01*
X38969Y63084D01*
X38935Y63135D01*
X38885Y63169D01*
X38860Y63174D01*
Y63386D01*
X38872Y63398D01*
X38906Y63481D01*
Y63571D01*
X38872Y63653D01*
X38809Y63717D01*
X38726Y63751D01*
X38636D01*
X38554Y63717D01*
X38490Y63653D01*
X38456Y63571D01*
Y63481D01*
X38490Y63398D01*
X38503Y63386D01*
Y63174D01*
X38478Y63169D01*
X38427Y63135D01*
X38393Y63084D01*
X38381Y63024D01*
Y62776D01*
X38393Y62717D01*
X38427Y62666D01*
X38478Y62632D01*
X38485Y62631D01*
Y62580D01*
X38478Y62578D01*
X38427Y62544D01*
X38393Y62494D01*
X38381Y62434D01*
Y62186D01*
X38393Y62126D01*
X38427Y62075D01*
X38478Y62042D01*
X38503Y62037D01*
Y61937D01*
X38453Y61897D01*
X38431Y61901D01*
X38144D01*
X38084Y61889D01*
X38033Y61855D01*
X37999Y61805D01*
X37988Y61745D01*
Y61497D01*
X37999Y61437D01*
X38033Y61386D01*
X38084Y61353D01*
X38092Y61351D01*
Y61300D01*
X38084Y61299D01*
X38033Y61265D01*
X37999Y61214D01*
X37988Y61154D01*
Y60906D01*
X37999Y60847D01*
X38033Y60796D01*
X38084Y60762D01*
X38109Y60757D01*
Y60615D01*
X38084Y60610D01*
X38033Y60576D01*
X37999Y60525D01*
X37988Y60465D01*
Y60217D01*
X37999Y60158D01*
X38033Y60107D01*
X38084Y60073D01*
X38092Y60072D01*
Y60021D01*
X38084Y60019D01*
X38033Y59985D01*
X37999Y59935D01*
X37988Y59875D01*
Y59627D01*
X37999Y59567D01*
X38033Y59516D01*
X38084Y59483D01*
X38109Y59478D01*
Y59258D01*
X38098Y59242D01*
X38086Y59180D01*
Y58944D01*
X38087Y58940D01*
X38081Y58934D01*
X38081D01*
Y58371D01*
X38460D01*
Y58156D01*
X38472Y58094D01*
X38507Y58042D01*
X38507Y58032D01*
X38459Y57984D01*
X38262D01*
X38202Y57972D01*
X38151Y57938D01*
X38118Y57887D01*
X38113Y57862D01*
X36909D01*
X36841Y57849D01*
X36783Y57810D01*
X36783Y57810D01*
X36645Y57672D01*
X36599Y57691D01*
Y57828D01*
X36587Y57887D01*
X36553Y57938D01*
X36503Y57972D01*
X36497Y57973D01*
Y58187D01*
X36484Y58255D01*
X36445Y58313D01*
X36417Y58341D01*
X36438Y58391D01*
X36630D01*
Y58954D01*
X36630D01*
X36625Y58960D01*
X36626Y58963D01*
Y59032D01*
X36404D01*
Y59082D01*
X36354D01*
Y59362D01*
X36345D01*
X36283Y59349D01*
X36259Y59333D01*
X36209Y59360D01*
Y59455D01*
X36259Y59495D01*
X36280Y59490D01*
X36374D01*
Y59770D01*
X36474D01*
Y59490D01*
X36568D01*
X36627Y59502D01*
X36678Y59536D01*
X36690Y59554D01*
X36737Y59534D01*
X36734Y59520D01*
Y59233D01*
X36746Y59173D01*
X36780Y59123D01*
X36831Y59089D01*
X36891Y59077D01*
X37139D01*
X37198Y59089D01*
X37249Y59123D01*
X37283Y59173D01*
X37284Y59181D01*
X37335D01*
X37337Y59173D01*
X37371Y59123D01*
X37421Y59089D01*
X37427Y59088D01*
Y58977D01*
X37421Y58976D01*
X37371Y58942D01*
X37337Y58891D01*
X37335Y58884D01*
X37284D01*
X37283Y58891D01*
X37249Y58942D01*
X37198Y58976D01*
X37139Y58988D01*
X37065D01*
Y58688D01*
Y58388D01*
X37139D01*
X37198Y58400D01*
X37249Y58434D01*
X37283Y58484D01*
X37284Y58492D01*
X37335D01*
X37337Y58484D01*
X37371Y58434D01*
X37421Y58400D01*
X37481Y58388D01*
X37729D01*
X37789Y58400D01*
X37840Y58434D01*
X37873Y58484D01*
X37885Y58544D01*
Y58832D01*
X37873Y58891D01*
X37840Y58942D01*
X37789Y58976D01*
X37784Y58977D01*
Y59088D01*
X37789Y59089D01*
X37840Y59123D01*
X37873Y59173D01*
X37885Y59233D01*
Y59520D01*
X37873Y59580D01*
X37840Y59631D01*
X37789Y59665D01*
X37784Y59666D01*
Y59777D01*
X37789Y59778D01*
X37840Y59812D01*
X37873Y59862D01*
X37885Y59922D01*
Y60209D01*
X37873Y60269D01*
X37840Y60320D01*
X37789Y60354D01*
X37784Y60355D01*
Y60416D01*
X37784Y60416D01*
X37770Y60485D01*
X37731Y60543D01*
X37551Y60723D01*
X37557Y60788D01*
X37562Y60791D01*
X37592Y60836D01*
X37603Y60889D01*
Y61054D01*
X37592Y61107D01*
X37562Y61152D01*
X37517Y61182D01*
X37511Y61234D01*
X37528Y61274D01*
Y61364D01*
X37494Y61446D01*
X37486Y61454D01*
X37493Y61504D01*
X37517Y61509D01*
X37562Y61539D01*
X37572Y61554D01*
X37609D01*
X37677Y61567D01*
X37735Y61606D01*
X37823Y61694D01*
X37862Y61752D01*
X37875Y61820D01*
Y62056D01*
X37900Y62061D01*
X37951Y62095D01*
X37985Y62146D01*
X37997Y62206D01*
Y62454D01*
X37985Y62513D01*
X37951Y62564D01*
X37900Y62598D01*
X37893Y62599D01*
Y62650D01*
X37900Y62652D01*
X37951Y62686D01*
X37985Y62736D01*
X37997Y62796D01*
Y62870D01*
X37697D01*
X37397D01*
Y62796D01*
X37409Y62736D01*
X37443Y62686D01*
X37493Y62652D01*
X37501Y62650D01*
Y62599D01*
X37493Y62598D01*
X37443Y62564D01*
X37409Y62513D01*
X37397Y62454D01*
Y62206D01*
X37409Y62146D01*
X37443Y62095D01*
X37493Y62061D01*
X37518Y62056D01*
Y61980D01*
X37468Y61939D01*
X37465Y61940D01*
X37142D01*
X37089Y61930D01*
X37044Y61900D01*
X37014Y61855D01*
X37004Y61802D01*
Y61669D01*
X36954Y61654D01*
X36944Y61668D01*
X36769Y61843D01*
X36711Y61882D01*
X36643Y61896D01*
X36594D01*
X36591Y61900D01*
X36547Y61930D01*
X36494Y61940D01*
X36209D01*
Y62056D01*
X36234Y62061D01*
X36284Y62095D01*
X36318Y62146D01*
X36330Y62206D01*
Y62454D01*
X36318Y62513D01*
X36284Y62564D01*
X36234Y62598D01*
X36226Y62599D01*
Y62650D01*
X36234Y62652D01*
X36284Y62686D01*
X36318Y62736D01*
X36319Y62742D01*
X36529D01*
X36530Y62736D01*
X36564Y62686D01*
X36614Y62652D01*
X36622Y62650D01*
Y62599D01*
X36614Y62598D01*
X36564Y62564D01*
X36530Y62513D01*
X36518Y62454D01*
Y62380D01*
X37118D01*
Y62454D01*
X37106Y62513D01*
X37072Y62564D01*
X37021Y62598D01*
X37014Y62599D01*
Y62650D01*
X37021Y62652D01*
X37072Y62686D01*
X37106Y62736D01*
X37118Y62796D01*
Y63044D01*
X37106Y63104D01*
X37072Y63155D01*
X37021Y63188D01*
X36996Y63193D01*
Y63406D01*
X37008Y63418D01*
X37043Y63501D01*
Y63590D01*
X37008Y63673D01*
X36945Y63736D01*
X36862Y63771D01*
X36773D01*
X36690Y63736D01*
X36627Y63673D01*
X36593Y63590D01*
Y63501D01*
X36627Y63418D01*
X36639Y63406D01*
Y63193D01*
X36614Y63188D01*
X36564Y63155D01*
X36530Y63104D01*
X36529Y63099D01*
X36319D01*
X36318Y63104D01*
X36284Y63155D01*
X36234Y63188D01*
X36174Y63200D01*
X35887D01*
X35827Y63188D01*
X35776Y63155D01*
X35742Y63104D01*
X35730Y63044D01*
Y62796D01*
X35742Y62736D01*
X35776Y62686D01*
X35827Y62652D01*
X35834Y62650D01*
Y62599D01*
X35827Y62598D01*
X35776Y62564D01*
X35742Y62513D01*
X35730Y62454D01*
Y62206D01*
X35742Y62146D01*
X35776Y62095D01*
X35827Y62061D01*
X35852Y62056D01*
Y61956D01*
X35802Y61916D01*
X35780Y61921D01*
X35493D01*
X35433Y61909D01*
X35382Y61875D01*
X35349Y61824D01*
X35337Y61765D01*
Y61517D01*
X35349Y61457D01*
X35382Y61406D01*
X35433Y61372D01*
X35441Y61371D01*
Y61320D01*
X35433Y61318D01*
X35382Y61284D01*
X35349Y61234D01*
X35337Y61174D01*
Y60926D01*
X35349Y60866D01*
X35382Y60816D01*
X35433Y60782D01*
X35458Y60777D01*
Y60634D01*
X35433Y60629D01*
X35382Y60595D01*
X35349Y60545D01*
X35337Y60485D01*
Y60237D01*
X35349Y60177D01*
X35382Y60127D01*
X35433Y60093D01*
X35441Y60091D01*
Y60040D01*
X35433Y60039D01*
X35382Y60005D01*
X35349Y59954D01*
X35337Y59894D01*
Y59646D01*
X35349Y59587D01*
X35382Y59536D01*
X35433Y59502D01*
X35458Y59497D01*
Y59278D01*
X35447Y59262D01*
X35435Y59200D01*
Y58963D01*
X35436Y58960D01*
X35430Y58954D01*
X35430D01*
Y58391D01*
X35809D01*
Y58176D01*
X35821Y58114D01*
X35857Y58061D01*
X35909Y58026D01*
X35971Y58014D01*
X36056D01*
X36102Y57972D01*
X36104Y57966D01*
X36103Y57950D01*
X36084Y57938D01*
X36051Y57887D01*
X36049Y57880D01*
X35998D01*
X35997Y57887D01*
X35963Y57938D01*
X35912Y57972D01*
X35852Y57984D01*
X35604D01*
X35545Y57972D01*
X35494Y57938D01*
X35460Y57887D01*
X35453Y57853D01*
X35414D01*
X35346Y57839D01*
X35288Y57801D01*
X35288Y57800D01*
X35070Y57583D01*
X35024Y57602D01*
Y57818D01*
X35012Y57877D01*
X34979Y57928D01*
X34928Y57962D01*
X34923Y57963D01*
Y58074D01*
X34928Y58075D01*
X34979Y58109D01*
X35012Y58160D01*
X35024Y58219D01*
Y58507D01*
X35012Y58566D01*
X34979Y58617D01*
X34928Y58651D01*
X34923Y58652D01*
Y58763D01*
X34928Y58764D01*
X34979Y58798D01*
X35012Y58849D01*
X35024Y58908D01*
Y59196D01*
X35012Y59255D01*
X34979Y59306D01*
X34928Y59340D01*
X34904Y59345D01*
Y59388D01*
X34890Y59456D01*
X34851Y59514D01*
X34777Y59588D01*
X34797Y59638D01*
X34868D01*
X34928Y59650D01*
X34979Y59684D01*
X34990Y59700D01*
X34997Y59705D01*
X35032Y59758D01*
X35044Y59820D01*
Y60056D01*
X35043Y60059D01*
X35049Y60066D01*
X35049D01*
Y60628D01*
X35021D01*
Y61042D01*
X35046Y61047D01*
X35097Y61081D01*
X35130Y61132D01*
X35142Y61192D01*
Y61440D01*
X35130Y61500D01*
X35097Y61550D01*
X35046Y61584D01*
X35038Y61586D01*
Y61637D01*
X35046Y61638D01*
X35097Y61672D01*
X35130Y61723D01*
X35142Y61782D01*
Y61856D01*
X34543D01*
Y61782D01*
X34555Y61723D01*
X34588Y61672D01*
X34639Y61638D01*
X34647Y61637D01*
Y61586D01*
X34639Y61584D01*
X34588Y61550D01*
X34555Y61500D01*
X34553Y61494D01*
X34344D01*
X34343Y61500D01*
X34309Y61550D01*
X34259Y61584D01*
X34251Y61586D01*
Y61637D01*
X34259Y61638D01*
X34309Y61672D01*
X34343Y61723D01*
X34355Y61782D01*
Y62030D01*
X34343Y62090D01*
X34309Y62141D01*
X34259Y62175D01*
X34253Y62176D01*
Y62271D01*
X34284Y62317D01*
X34296Y62379D01*
Y62615D01*
X34304Y62625D01*
X34594D01*
X34602Y62615D01*
Y62547D01*
X34823D01*
X35044D01*
Y62615D01*
X35043Y62618D01*
X35049Y62625D01*
X35049D01*
Y63187D01*
X34882D01*
X34862Y63237D01*
X34870Y63246D01*
X34870Y63246D01*
X34909Y63304D01*
X34923Y63372D01*
X34923Y63372D01*
Y63586D01*
X34928Y63587D01*
X34979Y63621D01*
X35012Y63671D01*
X35024Y63731D01*
Y64019D01*
X35012Y64078D01*
X34979Y64129D01*
X34962Y64140D01*
Y64200D01*
X34979Y64211D01*
X35012Y64262D01*
X35024Y64322D01*
Y64609D01*
X35012Y64669D01*
X34979Y64719D01*
X34950Y64738D01*
X34936Y64786D01*
X34940Y64801D01*
X34969Y64872D01*
Y64961D01*
X34935Y65044D01*
X34872Y65107D01*
X34789Y65142D01*
X34699D01*
X34617Y65107D01*
X34553Y65044D01*
X34519Y64961D01*
Y64872D01*
X34548Y64801D01*
X34552Y64786D01*
X34538Y64738D01*
X34510Y64719D01*
X34476Y64669D01*
X34474Y64661D01*
X34423D01*
X34422Y64669D01*
X34388Y64719D01*
X34337Y64753D01*
X34332Y64754D01*
Y65077D01*
X34332Y65077D01*
X34318Y65145D01*
X34280Y65203D01*
X34140Y65343D01*
X34082Y65381D01*
X34014Y65395D01*
X32933D01*
X32933Y65395D01*
X32865Y65381D01*
X32807Y65343D01*
X32807Y65343D01*
X32649Y65185D01*
X32611Y65127D01*
X32597Y65059D01*
Y64758D01*
X32592Y64756D01*
X32541Y64723D01*
X32507Y64672D01*
X32502Y64647D01*
X31478D01*
Y64735D01*
X31503Y64740D01*
X31553Y64773D01*
X31587Y64824D01*
X31599Y64884D01*
Y65132D01*
X31587Y65192D01*
X31553Y65242D01*
X31503Y65276D01*
X31495Y65278D01*
Y65329D01*
X31503Y65330D01*
X31553Y65364D01*
X31587Y65415D01*
X31599Y65474D01*
Y65548D01*
X31299D01*
X30999D01*
Y65474D01*
X31011Y65415D01*
X31045Y65364D01*
X31096Y65330D01*
X31103Y65329D01*
Y65278D01*
X31096Y65276D01*
X31045Y65242D01*
X31011Y65192D01*
X31010Y65186D01*
X30774D01*
X30732Y65260D01*
X30655Y65336D01*
X30562Y65390D01*
X30458Y65418D01*
X30350D01*
X30245Y65390D01*
X30152Y65336D01*
X30075Y65260D01*
X30021Y65166D01*
X29994Y65062D01*
Y64954D01*
X30021Y64850D01*
X30075Y64756D01*
X30152Y64680D01*
X30245Y64626D01*
X30350Y64598D01*
X30458D01*
X30562Y64626D01*
X30655Y64680D01*
X30732Y64756D01*
X30774Y64829D01*
X31010D01*
X31011Y64824D01*
X31045Y64773D01*
X31096Y64740D01*
X31121Y64735D01*
Y64605D01*
X31108Y64593D01*
X31074Y64510D01*
Y64421D01*
X31108Y64338D01*
X31172Y64275D01*
X31254Y64240D01*
X31344D01*
X31427Y64275D01*
X31442Y64290D01*
X32502D01*
X32507Y64265D01*
X32541Y64214D01*
X32558Y64203D01*
Y64143D01*
X32541Y64132D01*
X32507Y64081D01*
X32495Y64022D01*
Y63734D01*
X32507Y63675D01*
X32518Y63658D01*
Y63191D01*
X32471D01*
Y62628D01*
X32471Y62628D01*
X32471D01*
X32476Y62578D01*
Y62382D01*
X32488Y62320D01*
X32518Y62274D01*
Y62139D01*
X32488Y62093D01*
X32476Y62033D01*
Y61785D01*
X32488Y61726D01*
X32521Y61675D01*
X32572Y61641D01*
X32580Y61640D01*
Y61589D01*
X32572Y61587D01*
X32521Y61553D01*
X32488Y61503D01*
X32476Y61443D01*
Y61195D01*
X32488Y61135D01*
X32521Y61084D01*
X32572Y61051D01*
X32632Y61039D01*
X32919D01*
X32932Y61041D01*
X32935Y61042D01*
X32950Y60996D01*
X32945Y60993D01*
X32897Y60961D01*
X32862Y60909D01*
X32862Y60907D01*
X32655D01*
X32636Y60925D01*
X32554Y60960D01*
X32464D01*
X32381Y60925D01*
X32318Y60862D01*
X32284Y60779D01*
Y60690D01*
X32318Y60607D01*
X32381Y60544D01*
X32464Y60510D01*
X32471D01*
Y60069D01*
X32471Y60069D01*
X32471D01*
X32476Y60019D01*
Y59823D01*
X32488Y59761D01*
X32523Y59708D01*
X32530Y59704D01*
X32541Y59687D01*
X32592Y59653D01*
X32597Y59652D01*
Y59567D01*
X32611Y59499D01*
X32649Y59441D01*
X32689Y59401D01*
X32670Y59355D01*
X32652D01*
X32592Y59343D01*
X32541Y59309D01*
X32507Y59259D01*
X32495Y59199D01*
Y58911D01*
X32507Y58852D01*
X32541Y58801D01*
X32592Y58767D01*
X32597Y58766D01*
Y58655D01*
X32592Y58654D01*
X32541Y58620D01*
X32507Y58570D01*
X32502Y58545D01*
X32432D01*
X32415Y58562D01*
X32332Y58596D01*
X32242D01*
X32160Y58562D01*
X32097Y58499D01*
X32062Y58416D01*
Y58327D01*
X32097Y58244D01*
X32160Y58181D01*
X32242Y58146D01*
X32332D01*
X32415Y58181D01*
X32422Y58188D01*
X32502D01*
X32507Y58163D01*
X32541Y58112D01*
X32592Y58078D01*
X32652Y58066D01*
X32900D01*
X32959Y58078D01*
X33010Y58112D01*
X33044Y58163D01*
X33045Y58170D01*
X33096D01*
X33098Y58163D01*
X33132Y58112D01*
X33182Y58078D01*
X33188Y58077D01*
Y57966D01*
X33182Y57965D01*
X33132Y57931D01*
X33098Y57881D01*
X33096Y57873D01*
X33045D01*
X33044Y57881D01*
X33010Y57931D01*
X32959Y57965D01*
X32900Y57977D01*
X32652D01*
X32592Y57965D01*
X32541Y57931D01*
X32507Y57881D01*
X32495Y57821D01*
Y57705D01*
X32289D01*
X32261Y57747D01*
X32276Y57782D01*
Y57871D01*
X32242Y57954D01*
X32178Y58017D01*
X32096Y58052D01*
X32006D01*
X31924Y58017D01*
X31911Y58005D01*
X31808D01*
X31789Y58055D01*
X31838Y58105D01*
X31873Y58188D01*
Y58277D01*
X31838Y58360D01*
X31775Y58423D01*
X31692Y58457D01*
X31603D01*
X31520Y58423D01*
X31514Y58417D01*
X31080D01*
X31075Y58442D01*
X31042Y58493D01*
X30991Y58527D01*
X30931Y58539D01*
X30683D01*
X30623Y58527D01*
X30573Y58493D01*
X30539Y58442D01*
X30537Y58435D01*
X30486D01*
X30485Y58442D01*
X30451Y58493D01*
X30400Y58527D01*
X30341Y58539D01*
X30093D01*
X30033Y58527D01*
X29982Y58493D01*
X29948Y58442D01*
X29947Y58437D01*
X29852D01*
X29806Y58467D01*
X29744Y58480D01*
X29508D01*
X29446Y58467D01*
X29400Y58437D01*
X29117D01*
X29090Y58487D01*
X29107Y58511D01*
X29119Y58573D01*
Y58582D01*
X28839D01*
X28558D01*
Y58573D01*
X28571Y58511D01*
X28606Y58459D01*
X28624Y58447D01*
X28625Y58445D01*
X28624Y58386D01*
X28621Y58385D01*
X28621Y58385D01*
X28559Y58322D01*
X28509Y58327D01*
Y58371D01*
X28496Y58435D01*
X28459Y58489D01*
X28405Y58526D01*
X28341Y58539D01*
X28037D01*
X27973Y58526D01*
X27918Y58489D01*
X27882Y58435D01*
X27880Y58424D01*
X27829D01*
X27827Y58435D01*
X27790Y58489D01*
X27736Y58526D01*
X27671Y58539D01*
X27368D01*
X27304Y58526D01*
X27249Y58489D01*
X27213Y58435D01*
X27200Y58371D01*
Y58319D01*
X26180D01*
X26160Y58365D01*
X26742Y58946D01*
X27200D01*
Y58894D01*
X27213Y58830D01*
X27249Y58775D01*
X27304Y58739D01*
X27368Y58726D01*
X27671D01*
X27736Y58739D01*
X27790Y58775D01*
X27827Y58830D01*
X27829Y58841D01*
X27880D01*
X27882Y58830D01*
X27918Y58775D01*
X27973Y58739D01*
X28037Y58726D01*
X28341D01*
X28405Y58739D01*
X28459Y58775D01*
X28496Y58830D01*
X28509Y58894D01*
Y58941D01*
X28559Y58944D01*
X28621Y58882D01*
X28621Y58882D01*
X28625Y58879D01*
X28626Y58821D01*
X28625Y58819D01*
X28606Y58806D01*
X28571Y58753D01*
X28558Y58691D01*
Y58682D01*
X28839D01*
X29119D01*
Y58691D01*
X29107Y58753D01*
X29089Y58779D01*
X29116Y58829D01*
X29398D01*
X29446Y58798D01*
X29508Y58785D01*
X29744D01*
X29806Y58798D01*
X29854Y58829D01*
X29947D01*
X29948Y58823D01*
X29982Y58772D01*
X30033Y58738D01*
X30093Y58726D01*
X30341D01*
X30400Y58738D01*
X30451Y58772D01*
X30485Y58823D01*
X30486Y58830D01*
X30537D01*
X30539Y58823D01*
X30573Y58772D01*
X30623Y58738D01*
X30683Y58726D01*
X30931D01*
X30991Y58738D01*
X31042Y58772D01*
X31075Y58823D01*
X31080Y58848D01*
X31832D01*
X31836Y58843D01*
X31919Y58809D01*
X32009D01*
X32091Y58843D01*
X32155Y58906D01*
X32189Y58989D01*
Y59079D01*
X32155Y59161D01*
X32091Y59225D01*
X32009Y59259D01*
X31919D01*
X31836Y59225D01*
X31816Y59205D01*
X31080D01*
X31075Y59230D01*
X31042Y59280D01*
X30991Y59314D01*
X30931Y59326D01*
X30683D01*
X30623Y59314D01*
X30573Y59280D01*
X30539Y59230D01*
X30537Y59222D01*
X30486D01*
X30485Y59230D01*
X30451Y59280D01*
X30400Y59314D01*
X30341Y59326D01*
X30093D01*
X30033Y59314D01*
X29982Y59280D01*
X29948Y59230D01*
X29940Y59186D01*
X29850D01*
X29806Y59215D01*
X29744Y59228D01*
X29508D01*
X29446Y59215D01*
X29402Y59186D01*
X28821D01*
X28757Y59251D01*
X28699Y59289D01*
X28631Y59303D01*
X28509D01*
Y59355D01*
X28496Y59419D01*
X28459Y59474D01*
X28405Y59510D01*
X28341Y59523D01*
X28037D01*
X27973Y59510D01*
X27918Y59474D01*
X27882Y59419D01*
X27880Y59408D01*
X27829D01*
X27827Y59419D01*
X27790Y59474D01*
X27736Y59510D01*
X27671Y59523D01*
X27368D01*
X27304Y59510D01*
X27249Y59474D01*
X27213Y59419D01*
X27200Y59355D01*
Y59303D01*
X26668D01*
X26599Y59289D01*
X26542Y59251D01*
X25860Y58569D01*
X25500D01*
X25432Y58555D01*
X25374Y58516D01*
X25015Y58158D01*
X23690D01*
X23621Y58144D01*
X23564Y58105D01*
X23564Y58105D01*
X23328Y57869D01*
X23253Y57889D01*
X23148D01*
X23047Y57862D01*
X22956Y57810D01*
X22881Y57735D01*
X22829Y57644D01*
X22802Y57543D01*
Y57438D01*
X22829Y57336D01*
X22881Y57245D01*
X22956Y57171D01*
X23047Y57118D01*
X23148Y57091D01*
X23253D01*
X23355Y57118D01*
X23446Y57171D01*
X23520Y57245D01*
X23573Y57336D01*
X23600Y57438D01*
Y57543D01*
X23580Y57617D01*
X23764Y57801D01*
X24063D01*
X24082Y57755D01*
X24062Y57735D01*
X24010Y57644D01*
X23983Y57543D01*
Y57438D01*
X24010Y57336D01*
X24062Y57245D01*
X24137Y57171D01*
X24228Y57118D01*
X24221Y57068D01*
X23781D01*
X23781Y57068D01*
X23713Y57055D01*
X23655Y57016D01*
X23655Y57016D01*
X23328Y56688D01*
X23253Y56708D01*
X23148D01*
X23047Y56681D01*
X22956Y56628D01*
X22881Y56554D01*
X22829Y56463D01*
X22802Y56362D01*
Y56256D01*
X22829Y56155D01*
X22881Y56064D01*
X22956Y55990D01*
X23047Y55937D01*
X23148Y55910D01*
X23253D01*
X23355Y55937D01*
X23446Y55990D01*
X23520Y56064D01*
X23573Y56155D01*
X23600Y56256D01*
Y56362D01*
X23580Y56436D01*
X23855Y56711D01*
X24180D01*
X24194Y56661D01*
X24137Y56628D01*
X24062Y56554D01*
X24010Y56463D01*
X23983Y56362D01*
Y56256D01*
X24010Y56155D01*
X24062Y56064D01*
X24137Y55990D01*
X24228Y55937D01*
X24221Y55887D01*
X23781D01*
X23781Y55887D01*
X23713Y55874D01*
X23655Y55835D01*
X23655Y55835D01*
X23328Y55507D01*
X23253Y55527D01*
X23148D01*
X23047Y55500D01*
X22956Y55447D01*
X22881Y55373D01*
X22829Y55282D01*
X22802Y55181D01*
Y55075D01*
X22829Y54974D01*
X22881Y54883D01*
X22956Y54809D01*
X23047Y54756D01*
X23148Y54729D01*
X23253D01*
X23355Y54756D01*
X23446Y54809D01*
X23520Y54883D01*
X23573Y54974D01*
X23600Y55075D01*
Y55181D01*
X23580Y55255D01*
X23855Y55530D01*
X24180D01*
X24194Y55480D01*
X24137Y55447D01*
X24062Y55373D01*
X24010Y55282D01*
X23983Y55181D01*
Y55075D01*
X24010Y54974D01*
X24062Y54883D01*
X24137Y54809D01*
X24228Y54756D01*
X24221Y54706D01*
X23781D01*
X23713Y54692D01*
X23655Y54654D01*
X23655Y54654D01*
X23328Y54326D01*
X23253Y54346D01*
X23148D01*
X23047Y54319D01*
X22956Y54266D01*
X22881Y54192D01*
X22829Y54101D01*
X22802Y53999D01*
Y53894D01*
X22829Y53793D01*
X22881Y53702D01*
X22956Y53627D01*
X23047Y53575D01*
X23148Y53548D01*
X23253D01*
X23355Y53575D01*
X23446Y53627D01*
X23520Y53702D01*
X23573Y53793D01*
X23600Y53894D01*
Y53999D01*
X23580Y54074D01*
X23855Y54349D01*
X24180D01*
X24194Y54299D01*
X24137Y54266D01*
X24062Y54192D01*
X24010Y54101D01*
X23983Y53999D01*
Y53894D01*
X24010Y53793D01*
X24062Y53702D01*
X24137Y53627D01*
X24228Y53575D01*
X24329Y53548D01*
X24434D01*
X24536Y53575D01*
X24627Y53627D01*
X24701Y53702D01*
X24754Y53793D01*
X24781Y53894D01*
Y53999D01*
X24761Y54074D01*
X26021Y55333D01*
X27629D01*
X27697Y55347D01*
X27755Y55386D01*
X28132Y55762D01*
X28848D01*
X28926Y55778D01*
X28993Y55822D01*
X29037Y55888D01*
X29053Y55967D01*
Y56318D01*
X29838D01*
X29857Y56271D01*
X28772Y55187D01*
X28733Y55129D01*
X28729Y55106D01*
X28113D01*
X28035Y55091D01*
X27969Y55046D01*
X27925Y54980D01*
X27909Y54902D01*
Y54433D01*
X27925Y54355D01*
X27931Y54346D01*
X27833Y54248D01*
X27488D01*
X27472Y54298D01*
X27511Y54355D01*
X27526Y54433D01*
Y54902D01*
X27511Y54980D01*
X27467Y55046D01*
X27400Y55091D01*
X27322Y55106D01*
X26539D01*
X26460Y55091D01*
X26394Y55046D01*
X26350Y54980D01*
X26334Y54902D01*
Y54846D01*
X26013D01*
X25945Y54832D01*
X25887Y54794D01*
X24586Y53493D01*
X23750D01*
X23681Y53479D01*
X23623Y53441D01*
X23328Y53145D01*
X23253Y53165D01*
X23148D01*
X23047Y53138D01*
X22956Y53085D01*
X22881Y53011D01*
X22829Y52920D01*
X22802Y52818D01*
Y52713D01*
X22829Y52612D01*
X22881Y52521D01*
X22956Y52446D01*
X23047Y52394D01*
X23148Y52367D01*
X23253D01*
X23355Y52394D01*
X23446Y52446D01*
X23520Y52521D01*
X23573Y52612D01*
X23600Y52713D01*
Y52818D01*
X23580Y52893D01*
X23824Y53136D01*
X24128D01*
X24141Y53088D01*
X24137Y53085D01*
X24062Y53011D01*
X24010Y52920D01*
X23983Y52818D01*
Y52713D01*
X24010Y52612D01*
X24062Y52521D01*
X24126Y52457D01*
X24110Y52407D01*
X23845D01*
X23777Y52394D01*
X23719Y52355D01*
X23328Y51964D01*
X23253Y51984D01*
X23148D01*
X23047Y51957D01*
X22956Y51904D01*
X22881Y51830D01*
X22829Y51739D01*
X22802Y51637D01*
Y51532D01*
X22829Y51431D01*
X22881Y51340D01*
X22956Y51265D01*
X23047Y51213D01*
X23148Y51185D01*
X23253D01*
X23355Y51213D01*
X23446Y51265D01*
X23520Y51340D01*
X23573Y51431D01*
X23600Y51532D01*
Y51637D01*
X23580Y51712D01*
X23919Y52051D01*
X24656D01*
X24677Y52001D01*
X24597Y51921D01*
X24536Y51957D01*
X24434Y51984D01*
X24329D01*
X24228Y51957D01*
X24137Y51904D01*
X24062Y51830D01*
X24010Y51739D01*
X23983Y51637D01*
Y51532D01*
X24010Y51431D01*
X24062Y51340D01*
X24137Y51265D01*
X24228Y51213D01*
X24329Y51185D01*
X24434D01*
X24536Y51213D01*
X24627Y51265D01*
X24701Y51340D01*
X24754Y51431D01*
X24781Y51532D01*
Y51605D01*
X24794Y51614D01*
X25633Y52453D01*
X25714Y52486D01*
X25777Y52549D01*
X25811Y52632D01*
Y52721D01*
X25777Y52804D01*
X25714Y52867D01*
X25631Y52902D01*
X25541D01*
X25459Y52867D01*
X25433Y52842D01*
X25370Y52849D01*
X25324Y52894D01*
X25242Y52929D01*
X25152D01*
X25069Y52894D01*
X25006Y52831D01*
X24972Y52748D01*
Y52731D01*
X24756Y52515D01*
X24716Y52545D01*
X24754Y52612D01*
X24781Y52713D01*
Y52729D01*
X25943Y53891D01*
X27907D01*
X27975Y53904D01*
X28033Y53943D01*
X28319Y54229D01*
X28863D01*
X28884Y54179D01*
X28767Y54062D01*
X28729Y54004D01*
X28720Y53962D01*
X28716Y53958D01*
X28699D01*
X28616Y53924D01*
X28553Y53860D01*
X28518Y53778D01*
Y53688D01*
X28553Y53606D01*
X28616Y53542D01*
X28699Y53508D01*
X28788D01*
X28871Y53542D01*
X28891Y53563D01*
X28940Y53553D01*
X28943Y53546D01*
X29006Y53483D01*
X29089Y53448D01*
X29179D01*
X29261Y53483D01*
X29325Y53546D01*
X29359Y53629D01*
Y53718D01*
X29336Y53773D01*
X30669Y55106D01*
X31820D01*
X31830Y55056D01*
X31829Y55055D01*
X31813Y55039D01*
X31794Y55027D01*
X31781Y55008D01*
X31765Y54992D01*
X31757Y54971D01*
X31744Y54952D01*
X31740Y54930D01*
X31731Y54909D01*
Y54887D01*
X31727Y54864D01*
X31731Y54842D01*
Y54820D01*
X31740Y54799D01*
X31744Y54777D01*
X31757Y54758D01*
X31765Y54737D01*
X31781Y54721D01*
X31794Y54702D01*
X31813Y54690D01*
X31829Y54674D01*
X31850Y54665D01*
X31868Y54652D01*
X31890Y54648D01*
X31911Y54639D01*
X31934D01*
X31956Y54635D01*
X34093D01*
X34096Y54630D01*
X34147Y54596D01*
X34155Y54595D01*
Y54544D01*
X34147Y54542D01*
X34096Y54508D01*
X34062Y54458D01*
X34051Y54398D01*
Y54324D01*
X34350D01*
Y54274D01*
X34400D01*
Y53994D01*
X34494D01*
X34554Y54006D01*
X34605Y54039D01*
X34637Y54089D01*
X34647Y54090D01*
X34680D01*
X34689Y54089D01*
X34722Y54039D01*
X34773Y54006D01*
X34832Y53994D01*
X34926D01*
Y54274D01*
X34976D01*
Y54324D01*
X35276D01*
Y54398D01*
X35264Y54458D01*
X35230Y54508D01*
X35179Y54542D01*
X35172Y54544D01*
Y54595D01*
X35179Y54596D01*
X35230Y54630D01*
X35233Y54635D01*
X35387D01*
X35475Y54652D01*
X35549Y54702D01*
X35769Y54921D01*
X36557D01*
X36572Y54871D01*
X36533Y54845D01*
X36479Y54765D01*
X36460Y54670D01*
Y54578D01*
X37264D01*
X38067D01*
Y54670D01*
X38049Y54765D01*
X37995Y54845D01*
X37956Y54871D01*
X37971Y54921D01*
X38407D01*
X38422Y54871D01*
X38383Y54845D01*
X38329Y54765D01*
X38311Y54670D01*
Y54385D01*
X38329Y54290D01*
X38383Y54210D01*
X38463Y54156D01*
X38558Y54137D01*
X39670D01*
X39765Y54156D01*
X39845Y54210D01*
X39899Y54290D01*
X39901Y54298D01*
X40381D01*
Y53737D01*
X40054D01*
X39959Y53718D01*
X39879Y53664D01*
X39825Y53584D01*
X39807Y53489D01*
Y53204D01*
X39825Y53109D01*
X39879Y53029D01*
X39959Y52975D01*
X40054Y52956D01*
X40420D01*
Y52082D01*
Y51875D01*
X40378D01*
X40307Y51861D01*
X40246Y51821D01*
X40211Y51768D01*
X40178Y51770D01*
X40161Y51776D01*
Y52559D01*
X40153Y52598D01*
X40131Y52631D01*
X39836Y52926D01*
X39803Y52949D01*
X39764Y52956D01*
X38878D01*
X38839Y52949D01*
X38806Y52926D01*
X38609Y52730D01*
X38587Y52696D01*
X38579Y52657D01*
Y50295D01*
X38587Y50256D01*
X38609Y50223D01*
X38774Y50059D01*
X38753Y50009D01*
X38636D01*
X38576Y49997D01*
X38525Y49963D01*
X38492Y49912D01*
X38491Y49907D01*
X38194D01*
X38140Y49943D01*
X38051Y49961D01*
X37657D01*
X37569Y49943D01*
X37493Y49893D01*
X37455Y49836D01*
X37405Y49851D01*
Y50351D01*
X37542Y50489D01*
X37992D01*
X38031Y50496D01*
X38064Y50518D01*
X38261Y50715D01*
X38283Y50748D01*
X38291Y50787D01*
Y52657D01*
X38283Y52696D01*
X38261Y52730D01*
X38064Y52926D01*
X38064Y52926D01*
X38031Y52949D01*
X37992Y52956D01*
X36024D01*
X35985Y52949D01*
X35952Y52926D01*
X35361Y52336D01*
X35339Y52303D01*
X35331Y52264D01*
Y50787D01*
X35339Y50748D01*
X35361Y50715D01*
X36020Y50056D01*
Y49932D01*
X35970Y49907D01*
X35916Y49943D01*
X35827Y49961D01*
X35433D01*
X35344Y49943D01*
X35290Y49907D01*
X35219D01*
X35206Y49919D01*
X35124Y49953D01*
X35034D01*
X34951Y49919D01*
X34888Y49856D01*
X34854Y49773D01*
Y49684D01*
X34888Y49601D01*
X34951Y49538D01*
X35034Y49503D01*
X35124D01*
X35206Y49538D01*
X35219Y49550D01*
X35290D01*
X35344Y49514D01*
X35393Y49504D01*
Y49453D01*
X35344Y49443D01*
X35290Y49407D01*
X35219D01*
X35206Y49419D01*
X35124Y49453D01*
X35034D01*
X34951Y49419D01*
X34888Y49356D01*
X34854Y49273D01*
Y49184D01*
X34876Y49129D01*
X34865Y49111D01*
X34839Y49089D01*
X34789Y49099D01*
X34502D01*
X34442Y49087D01*
X34392Y49053D01*
X34358Y49003D01*
X34346Y48943D01*
Y48695D01*
X34358Y48635D01*
X34392Y48584D01*
X34442Y48551D01*
X34450Y48549D01*
Y48498D01*
X34442Y48497D01*
X34392Y48463D01*
X34358Y48412D01*
X34357Y48407D01*
X34147D01*
X34146Y48412D01*
X34112Y48463D01*
X34062Y48497D01*
X34054Y48498D01*
Y48549D01*
X34062Y48551D01*
X34112Y48584D01*
X34146Y48635D01*
X34158Y48695D01*
Y48943D01*
X34146Y49003D01*
X34112Y49053D01*
X34062Y49087D01*
X34037Y49092D01*
Y49235D01*
X34062Y49240D01*
X34112Y49273D01*
X34146Y49324D01*
X34158Y49384D01*
Y49632D01*
X34146Y49692D01*
X34112Y49742D01*
X34062Y49776D01*
X34054Y49778D01*
Y49829D01*
X34062Y49830D01*
X34112Y49864D01*
X34146Y49915D01*
X34158Y49974D01*
Y50048D01*
X33558D01*
Y49974D01*
X33570Y49915D01*
X33604Y49864D01*
X33655Y49830D01*
X33662Y49829D01*
Y49778D01*
X33655Y49776D01*
X33604Y49742D01*
X33570Y49692D01*
X33569Y49686D01*
X32817D01*
X32805Y49699D01*
X32722Y49733D01*
X32632D01*
X32626Y49730D01*
X32584Y49758D01*
Y50085D01*
X32283D01*
X31983D01*
Y49682D01*
X31998Y49605D01*
X32042Y49539D01*
X32051Y49533D01*
Y49027D01*
X32042Y49021D01*
X31998Y48955D01*
X31983Y48878D01*
Y48703D01*
X31640D01*
X31568Y48693D01*
X31501Y48665D01*
X31444Y48621D01*
X31328Y48506D01*
X30928D01*
X30922Y48523D01*
X30920Y48556D01*
X30963Y48584D01*
X30997Y48635D01*
X31009Y48695D01*
Y48769D01*
X30709D01*
X30409D01*
Y48695D01*
X30421Y48635D01*
X30455Y48584D01*
X30498Y48556D01*
X30495Y48523D01*
X30489Y48506D01*
X30180D01*
X30170Y48554D01*
X30138Y48602D01*
X30089Y48635D01*
X30031Y48646D01*
X29811D01*
X29754Y48635D01*
X29705Y48602D01*
X29672Y48554D01*
X29663Y48506D01*
X29395D01*
Y48685D01*
X29380Y48761D01*
X29337Y48825D01*
X29273Y48868D01*
X29197Y48883D01*
X28677D01*
X28601Y48868D01*
X28537Y48825D01*
X28494Y48761D01*
X28490Y48742D01*
X28137D01*
X28095Y48804D01*
X28029Y48848D01*
X27951Y48864D01*
X27167D01*
X27089Y48848D01*
X27023Y48804D01*
X26979Y48738D01*
X26963Y48659D01*
Y48191D01*
X26979Y48113D01*
X27023Y48046D01*
X27089Y48002D01*
X27167Y47987D01*
X27951D01*
X28029Y48002D01*
X28095Y48046D01*
X28140Y48113D01*
X28154Y48187D01*
X28490D01*
X28494Y48168D01*
X28537Y48104D01*
X28601Y48061D01*
X28677Y48046D01*
X29003D01*
X29016Y48032D01*
X29074Y47988D01*
X29141Y47960D01*
X29213Y47951D01*
X29663D01*
X29672Y47903D01*
X29705Y47854D01*
X29754Y47822D01*
X29811Y47811D01*
X30031D01*
X30089Y47822D01*
X30138Y47854D01*
X30170Y47903D01*
X30180Y47951D01*
X30551D01*
X30565Y47948D01*
X30852D01*
X30866Y47951D01*
X31443D01*
X31515Y47960D01*
X31582Y47988D01*
X31639Y48032D01*
X31755Y48148D01*
X31983D01*
Y47972D01*
X31998Y47895D01*
X32042Y47829D01*
X32108Y47786D01*
X32185Y47770D01*
X32382D01*
X32459Y47786D01*
X32525Y47829D01*
X32569Y47895D01*
X32584Y47972D01*
Y48148D01*
X32759D01*
X32875Y48032D01*
X32932Y47988D01*
X32999Y47960D01*
X33071Y47951D01*
X33701D01*
X33715Y47948D01*
X34002D01*
X34062Y47960D01*
X34112Y47994D01*
X34146Y48045D01*
X34147Y48050D01*
X34357D01*
X34358Y48045D01*
X34392Y47994D01*
X34442Y47960D01*
X34502Y47948D01*
X34789D01*
X34849Y47960D01*
X34900Y47994D01*
X34934Y48045D01*
X34935Y48050D01*
X35290D01*
X35344Y48014D01*
X35433Y47996D01*
X35827D01*
X35916Y48014D01*
X35991Y48064D01*
X36023Y48112D01*
X36085Y48121D01*
X36247Y47959D01*
X36280Y47937D01*
X36319Y47930D01*
X38189D01*
X38228Y47937D01*
X38261Y47959D01*
X38359Y48058D01*
X38359Y48058D01*
X38382Y48091D01*
X38389Y48130D01*
Y48327D01*
X38382Y48366D01*
X38359Y48399D01*
X38261Y48497D01*
X38228Y48519D01*
X38189Y48527D01*
X37542D01*
X37405Y48664D01*
Y49606D01*
X37455Y49621D01*
X37493Y49564D01*
X37569Y49514D01*
X37657Y49496D01*
X38051D01*
X38140Y49514D01*
X38194Y49550D01*
X38491D01*
X38492Y49545D01*
X38525Y49494D01*
X38576Y49460D01*
X38584Y49459D01*
Y49408D01*
X38576Y49406D01*
X38525Y49372D01*
X38492Y49322D01*
X38480Y49262D01*
Y49188D01*
X38780D01*
Y49138D01*
X38830D01*
Y48858D01*
X38923D01*
X38983Y48870D01*
X39034Y48903D01*
X39045Y48920D01*
X39105D01*
X39116Y48903D01*
X39167Y48870D01*
X39192Y48865D01*
Y48813D01*
X39186Y48812D01*
X39136Y48778D01*
X39102Y48727D01*
X39090Y48667D01*
Y48380D01*
X39102Y48320D01*
X39136Y48270D01*
X39186Y48236D01*
X39246Y48224D01*
X39494D01*
X39554Y48236D01*
X39605Y48270D01*
X39638Y48320D01*
X39640Y48328D01*
X39691D01*
X39692Y48320D01*
X39726Y48270D01*
X39777Y48236D01*
X39837Y48224D01*
X40085D01*
X40144Y48236D01*
X40195Y48270D01*
X40229Y48320D01*
X40241Y48380D01*
Y48667D01*
X40229Y48727D01*
X40195Y48778D01*
X40157Y48803D01*
X40155Y48813D01*
Y48849D01*
X40157Y48858D01*
X40195Y48884D01*
X40229Y48934D01*
X40230Y48942D01*
X40281D01*
X40283Y48934D01*
X40317Y48884D01*
X40367Y48850D01*
X40427Y48838D01*
X40675D01*
X40735Y48850D01*
X40786Y48884D01*
X40819Y48934D01*
X40831Y48994D01*
Y49281D01*
X40819Y49341D01*
X40786Y49392D01*
X40781Y49395D01*
Y49471D01*
X40786Y49474D01*
X40802Y49499D01*
X41179D01*
X41266Y49516D01*
X41341Y49566D01*
X41698Y49923D01*
X41747Y49997D01*
X41765Y50085D01*
Y52952D01*
X41801Y52971D01*
X41815Y52974D01*
X41905Y52956D01*
X42411D01*
Y53346D01*
Y53737D01*
X41905D01*
X41810Y53718D01*
X41730Y53664D01*
X41676Y53584D01*
X41662Y53516D01*
X41608Y53499D01*
X41534Y53549D01*
X41446Y53567D01*
X41398D01*
X41395Y53584D01*
X41341Y53664D01*
X41261Y53718D01*
X41166Y53737D01*
X40840D01*
Y54572D01*
Y55281D01*
X40890Y55302D01*
X41014Y55177D01*
X41088Y55128D01*
X41176Y55110D01*
X43483D01*
X43486Y55105D01*
X43537Y55071D01*
X43562Y55066D01*
Y54887D01*
X43345D01*
Y54097D01*
X43474D01*
X43488Y54047D01*
X43424Y53983D01*
X43372Y53893D01*
X43345Y53792D01*
Y53790D01*
X43740D01*
X44135D01*
Y53792D01*
X44109Y53893D01*
X44056Y53983D01*
X43992Y54047D01*
X44006Y54097D01*
X44135D01*
Y54887D01*
X43919D01*
Y55066D01*
X43944Y55071D01*
X43994Y55105D01*
X44028Y55156D01*
X44040Y55216D01*
Y55464D01*
X44028Y55523D01*
X43994Y55574D01*
X43944Y55608D01*
X43936Y55609D01*
Y55660D01*
X43944Y55662D01*
X43994Y55696D01*
X44028Y55746D01*
X44040Y55806D01*
Y55880D01*
X43740D01*
X43440D01*
Y55806D01*
X43452Y55746D01*
X43486Y55696D01*
X43537Y55662D01*
X43544Y55660D01*
Y55609D01*
X43537Y55608D01*
X43486Y55574D01*
X43483Y55569D01*
X43239D01*
X43213Y55619D01*
X43245Y55668D01*
X43264Y55763D01*
Y55856D01*
X42461D01*
Y55956D01*
X43264D01*
Y56048D01*
X43245Y56143D01*
X43198Y56214D01*
X43213Y56264D01*
X44353D01*
X44767Y55850D01*
X44825Y55811D01*
X44894Y55798D01*
X47545D01*
X47613Y55811D01*
X47671Y55850D01*
X47884Y56063D01*
X47923Y56121D01*
X47936Y56189D01*
X47936Y56189D01*
Y56356D01*
X47949Y56369D01*
X47983Y56451D01*
Y56541D01*
X47949Y56624D01*
X47885Y56687D01*
X47851Y56701D01*
X47861Y56751D01*
X48748D01*
X48749Y56746D01*
X48783Y56695D01*
X48834Y56661D01*
X48842Y56660D01*
Y56609D01*
X48834Y56607D01*
X48783Y56573D01*
X48749Y56523D01*
X48738Y56463D01*
Y56389D01*
X49337D01*
Y56463D01*
X49325Y56523D01*
X49292Y56573D01*
X49241Y56607D01*
X49233Y56609D01*
Y56660D01*
X49241Y56661D01*
X49292Y56695D01*
X49325Y56746D01*
X49337Y56805D01*
Y57053D01*
X49325Y57113D01*
X49292Y57164D01*
X49241Y57198D01*
X49216Y57203D01*
Y58816D01*
X49252Y58870D01*
X49270Y58959D01*
Y59353D01*
X49252Y59442D01*
X49202Y59517D01*
X49126Y59567D01*
X49037Y59585D01*
X48948Y59567D01*
X48873Y59517D01*
X48823Y59442D01*
X48813Y59392D01*
X48762D01*
X48752Y59442D01*
X48702Y59517D01*
X48680Y59531D01*
X48679Y59550D01*
X48686Y59588D01*
X48734Y59620D01*
X49164Y60050D01*
X49164Y60050D01*
X49202Y60108D01*
X49216Y60176D01*
X49216Y60176D01*
Y61040D01*
X49252Y61094D01*
X49270Y61183D01*
Y61577D01*
X49252Y61666D01*
X49242Y61681D01*
X49360Y61800D01*
X49360Y61800D01*
X49399Y61858D01*
X49403Y61877D01*
X49418Y61880D01*
X49469Y61914D01*
X49503Y61964D01*
X49514Y62024D01*
Y62311D01*
X49503Y62371D01*
X49469Y62422D01*
X49418Y62456D01*
X49413Y62457D01*
Y62568D01*
X49418Y62569D01*
X49469Y62603D01*
X49503Y62653D01*
X49514Y62713D01*
Y63000D01*
X49503Y63060D01*
X49469Y63111D01*
X49418Y63145D01*
X49358Y63156D01*
X49110D01*
X49050Y63145D01*
X49000Y63111D01*
X48966Y63060D01*
X48964Y63053D01*
X48913D01*
X48912Y63060D01*
X48878Y63111D01*
X48827Y63145D01*
X48822Y63146D01*
Y63257D01*
X48827Y63258D01*
X48878Y63291D01*
X48912Y63342D01*
X48913Y63350D01*
X48964D01*
X48966Y63342D01*
X49000Y63291D01*
X49050Y63258D01*
X49110Y63246D01*
X49184D01*
Y63546D01*
Y63845D01*
X49110D01*
X49050Y63834D01*
X49000Y63800D01*
X48966Y63749D01*
X48964Y63741D01*
X48913D01*
X48912Y63749D01*
X48878Y63800D01*
X48827Y63834D01*
X48768Y63845D01*
X48520D01*
X48460Y63834D01*
X48409Y63800D01*
X48375Y63749D01*
X48364Y63689D01*
Y63402D01*
X48375Y63342D01*
X48409Y63291D01*
X48460Y63258D01*
X48465Y63257D01*
Y63146D01*
X48460Y63145D01*
X48409Y63111D01*
X48375Y63060D01*
X48364Y63000D01*
Y62713D01*
X48375Y62653D01*
X48409Y62603D01*
X48460Y62569D01*
X48465Y62568D01*
Y62457D01*
X48460Y62456D01*
X48409Y62422D01*
X48375Y62371D01*
X48364Y62311D01*
Y62024D01*
X48375Y61964D01*
X48409Y61914D01*
X48420Y61906D01*
X48422Y61845D01*
X48393Y61800D01*
X48382Y61748D01*
X48373Y61741D01*
X48323Y61666D01*
X48313Y61617D01*
X48262D01*
X48252Y61666D01*
X48202Y61741D01*
X48196Y61746D01*
Y61756D01*
X48182Y61824D01*
X48143Y61882D01*
X48181Y61908D01*
X48189Y61914D01*
X48223Y61964D01*
X48235Y62024D01*
Y62311D01*
X48223Y62371D01*
X48189Y62422D01*
X48138Y62456D01*
X48133Y62457D01*
Y62591D01*
X48150Y62603D01*
X48184Y62653D01*
X48196Y62713D01*
Y63000D01*
X48184Y63060D01*
X48150Y63111D01*
X48133Y63122D01*
Y63255D01*
X48148Y63258D01*
X48199Y63291D01*
X48233Y63342D01*
X48245Y63402D01*
Y63689D01*
X48233Y63749D01*
X48199Y63800D01*
X48148Y63834D01*
X48133Y63837D01*
Y63886D01*
X48138Y63888D01*
X48189Y63921D01*
X48223Y63972D01*
X48235Y64032D01*
Y64319D01*
X48223Y64379D01*
X48189Y64430D01*
X48138Y64463D01*
X48079Y64475D01*
X47831D01*
X47771Y64463D01*
X47720Y64430D01*
X47686Y64379D01*
X47685Y64371D01*
X47634D01*
X47632Y64379D01*
X47599Y64430D01*
X47548Y64463D01*
X47543Y64465D01*
Y65037D01*
X47529Y65106D01*
X47490Y65164D01*
X46354Y66300D01*
X46296Y66339D01*
X46227Y66353D01*
X42932D01*
X42757Y66527D01*
X42699Y66566D01*
X42631Y66580D01*
X39729D01*
X39729Y66580D01*
D02*
G37*
G36*
X31443Y65879D02*
X31349D01*
Y65648D01*
X31599D01*
Y65722D01*
X31587Y65782D01*
X31553Y65833D01*
X31503Y65867D01*
X31443Y65879D01*
D02*
G37*
G36*
X31249D02*
X31156D01*
X31096Y65867D01*
X31045Y65833D01*
X31011Y65782D01*
X30999Y65722D01*
Y65648D01*
X31249D01*
Y65879D01*
D02*
G37*
G36*
X30814Y65958D02*
X30454D01*
Y65598D01*
X30458D01*
X30562Y65626D01*
X30655Y65680D01*
X30732Y65756D01*
X30786Y65850D01*
X30814Y65954D01*
Y65958D01*
D02*
G37*
G36*
X30354D02*
X29994D01*
Y65954D01*
X30021Y65850D01*
X30075Y65756D01*
X30152Y65680D01*
X30245Y65626D01*
X30350Y65598D01*
X30354D01*
Y65958D01*
D02*
G37*
G36*
X30458Y64418D02*
X30350D01*
X30245Y64390D01*
X30152Y64336D01*
X30075Y64260D01*
X30021Y64166D01*
X29994Y64062D01*
Y63954D01*
X30021Y63850D01*
X30075Y63756D01*
X30152Y63680D01*
X30245Y63626D01*
X30350Y63598D01*
X30458D01*
X30562Y63626D01*
X30655Y63680D01*
X30732Y63756D01*
X30786Y63850D01*
X30814Y63954D01*
Y64062D01*
X30786Y64166D01*
X30732Y64260D01*
X30655Y64336D01*
X30562Y64390D01*
X30458Y64418D01*
D02*
G37*
G36*
X49358Y63845D02*
X49284D01*
Y63596D01*
X49514D01*
Y63689D01*
X49503Y63749D01*
X49469Y63800D01*
X49418Y63834D01*
X49358Y63845D01*
D02*
G37*
G36*
X49514Y63496D02*
X49284D01*
Y63246D01*
X49358D01*
X49418Y63258D01*
X49469Y63291D01*
X49503Y63342D01*
X49514Y63402D01*
Y63496D01*
D02*
G37*
G36*
X44224Y63496D02*
X43993D01*
Y63402D01*
X44005Y63342D01*
X44039Y63291D01*
X44090Y63258D01*
X44150Y63246D01*
X44224D01*
Y63496D01*
D02*
G37*
G36*
X37841Y63200D02*
X37747D01*
Y62970D01*
X37997D01*
Y63044D01*
X37985Y63104D01*
X37951Y63155D01*
X37900Y63188D01*
X37841Y63200D01*
D02*
G37*
G36*
X37647D02*
X37553D01*
X37493Y63188D01*
X37443Y63155D01*
X37409Y63104D01*
X37397Y63044D01*
Y62970D01*
X37647D01*
Y63200D01*
D02*
G37*
G36*
X40498Y63200D02*
X40404D01*
Y62970D01*
X40654D01*
Y63044D01*
X40642Y63104D01*
X40608Y63155D01*
X40558Y63188D01*
X40498Y63200D01*
D02*
G37*
G36*
X40304D02*
X40211D01*
X40151Y63188D01*
X40100Y63155D01*
X40066Y63104D01*
X40054Y63044D01*
Y62970D01*
X40304D01*
Y63200D01*
D02*
G37*
G36*
X44263Y63156D02*
X44189D01*
X44129Y63145D01*
X44079Y63111D01*
X44045Y63060D01*
X44033Y63000D01*
Y62907D01*
X44263D01*
Y63156D01*
D02*
G37*
G36*
X23111Y62598D02*
X23053Y62598D01*
X23053Y62598D01*
X22995Y62598D01*
X22881Y62576D01*
X22773Y62531D01*
X22677Y62467D01*
X22594Y62384D01*
X22530Y62288D01*
X22485Y62180D01*
X22463Y62066D01*
Y62008D01*
X22463Y61950D01*
X22485Y61836D01*
X22530Y61728D01*
X22594Y61631D01*
X22677Y61549D01*
X22773Y61485D01*
X22881Y61440D01*
X22995Y61417D01*
X23053Y61417D01*
X23111Y61417D01*
X23225Y61440D01*
X23333Y61485D01*
X23430Y61549D01*
X23512Y61631D01*
X23577Y61728D01*
X23621Y61836D01*
X23644Y61950D01*
X23644Y62008D01*
X23644Y62008D01*
X23644Y62008D01*
X23644Y62066D01*
X23621Y62180D01*
X23576Y62288D01*
X23512Y62384D01*
X23430Y62467D01*
X23333Y62531D01*
X23225Y62576D01*
X23111Y62598D01*
D02*
G37*
G36*
X30458Y63418D02*
X30350D01*
X30245Y63390D01*
X30152Y63336D01*
X30075Y63260D01*
X30021Y63166D01*
X29994Y63062D01*
Y62954D01*
X30021Y62850D01*
X30075Y62756D01*
X30152Y62680D01*
X30245Y62626D01*
X30350Y62598D01*
X30458D01*
X30562Y62626D01*
X30655Y62680D01*
X30732Y62756D01*
X30786Y62850D01*
X30814Y62954D01*
Y63062D01*
X30786Y63166D01*
X30732Y63260D01*
X30655Y63336D01*
X30562Y63390D01*
X30458Y63418D01*
D02*
G37*
G36*
X44263Y62807D02*
X44033D01*
Y62713D01*
X44045Y62653D01*
X44079Y62603D01*
X44129Y62569D01*
X44189Y62557D01*
X44263D01*
Y62807D01*
D02*
G37*
G36*
X44263Y62467D02*
X44189D01*
X44129Y62456D01*
X44079Y62422D01*
X44045Y62371D01*
X44033Y62311D01*
Y62218D01*
X44263D01*
Y62467D01*
D02*
G37*
G36*
X37118Y62280D02*
X36868D01*
Y62049D01*
X36961D01*
X37021Y62061D01*
X37072Y62095D01*
X37106Y62146D01*
X37118Y62206D01*
Y62280D01*
D02*
G37*
G36*
X36768D02*
X36518D01*
Y62206D01*
X36530Y62146D01*
X36564Y62095D01*
X36614Y62061D01*
X36674Y62049D01*
X36768D01*
Y62280D01*
D02*
G37*
G36*
X39768Y62260D02*
X39519D01*
Y62030D01*
X39612D01*
X39672Y62042D01*
X39723Y62075D01*
X39756Y62126D01*
X39768Y62186D01*
Y62260D01*
D02*
G37*
G36*
X39419D02*
X39169D01*
Y62186D01*
X39181Y62126D01*
X39214Y62075D01*
X39265Y62042D01*
X39325Y62030D01*
X39419D01*
Y62260D01*
D02*
G37*
G36*
X35044Y62447D02*
X34823D01*
X34602D01*
Y62379D01*
X34614Y62317D01*
X34649Y62264D01*
X34693Y62235D01*
X34689Y62194D01*
X34686Y62184D01*
X34639Y62175D01*
X34588Y62141D01*
X34555Y62090D01*
X34543Y62030D01*
Y61956D01*
X35142D01*
Y62030D01*
X35130Y62090D01*
X35097Y62141D01*
X35046Y62175D01*
X34986Y62186D01*
X34967D01*
X34955Y62236D01*
X34997Y62264D01*
X35032Y62317D01*
X35044Y62379D01*
Y62447D01*
D02*
G37*
G36*
X44263Y62118D02*
X44033D01*
Y62024D01*
X44045Y61964D01*
X44079Y61914D01*
X44129Y61880D01*
X44189Y61868D01*
X44263D01*
Y62118D01*
D02*
G37*
G36*
X44436Y61800D02*
X44397Y61792D01*
X44322Y61741D01*
X44271Y61666D01*
X44254Y61577D01*
Y61430D01*
X44436D01*
Y61800D01*
D02*
G37*
G36*
Y61330D02*
X44254D01*
Y61183D01*
X44271Y61094D01*
X44322Y61019D01*
X44397Y60969D01*
X44436Y60961D01*
Y61330D01*
D02*
G37*
G36*
X36463Y59362D02*
X36454D01*
Y59131D01*
X36626D01*
Y59200D01*
X36613Y59262D01*
X36578Y59314D01*
X36525Y59349D01*
X36463Y59362D01*
D02*
G37*
G36*
X39114Y59342D02*
X39105D01*
Y59112D01*
X39276D01*
Y59180D01*
X39264Y59242D01*
X39229Y59295D01*
X39176Y59330D01*
X39114Y59342D01*
D02*
G37*
G36*
X25284Y60828D02*
X25109D01*
X24938Y60794D01*
X24777Y60727D01*
X24631Y60630D01*
X24508Y60507D01*
X24410Y60361D01*
X24344Y60200D01*
X24309Y60028D01*
Y59854D01*
X24344Y59682D01*
X24410Y59521D01*
X24508Y59375D01*
X24631Y59252D01*
X24777Y59155D01*
X24938Y59088D01*
X25109Y59054D01*
X25284D01*
X25456Y59088D01*
X25617Y59155D01*
X25763Y59252D01*
X25886Y59375D01*
X25983Y59521D01*
X26050Y59682D01*
X26084Y59854D01*
Y60028D01*
X26050Y60200D01*
X25983Y60361D01*
X25886Y60507D01*
X25763Y60630D01*
X25617Y60727D01*
X25456Y60794D01*
X25284Y60828D01*
D02*
G37*
G36*
X36965Y58988D02*
X36891D01*
X36831Y58976D01*
X36780Y58942D01*
X36746Y58891D01*
X36734Y58832D01*
Y58738D01*
X36965D01*
Y58988D01*
D02*
G37*
G36*
X39615Y58968D02*
X39541D01*
X39482Y58956D01*
X39431Y58922D01*
X39397Y58872D01*
X39385Y58812D01*
Y58718D01*
X39615D01*
Y58968D01*
D02*
G37*
G36*
X36965Y58638D02*
X36734D01*
Y58544D01*
X36746Y58484D01*
X36780Y58434D01*
X36831Y58400D01*
X36891Y58388D01*
X36965D01*
Y58638D01*
D02*
G37*
G36*
X39615Y58618D02*
X39385D01*
Y58524D01*
X39397Y58465D01*
X39431Y58414D01*
X39482Y58380D01*
X39541Y58368D01*
X39615D01*
Y58618D01*
D02*
G37*
G36*
X42662Y58415D02*
X42491D01*
Y58224D01*
X42500D01*
X42562Y58236D01*
X42615Y58271D01*
X42650Y58324D01*
X42662Y58386D01*
Y58415D01*
D02*
G37*
G36*
X42391D02*
X42220D01*
Y58386D01*
X42232Y58324D01*
X42267Y58271D01*
X42320Y58236D01*
X42382Y58224D01*
X42391D01*
Y58415D01*
D02*
G37*
G36*
X41186D02*
X41015D01*
Y58224D01*
X41024D01*
X41086Y58236D01*
X41138Y58271D01*
X41173Y58324D01*
X41186Y58386D01*
Y58415D01*
D02*
G37*
G36*
X40915D02*
X40743D01*
Y58386D01*
X40756Y58324D01*
X40791Y58271D01*
X40843Y58236D01*
X40906Y58224D01*
X40915D01*
Y58415D01*
D02*
G37*
G36*
X44121Y57689D02*
X43871D01*
Y57458D01*
X43965D01*
X44024Y57470D01*
X44075Y57504D01*
X44109Y57555D01*
X44121Y57614D01*
Y57689D01*
D02*
G37*
G36*
X43771D02*
X43521D01*
Y57614D01*
X43533Y57555D01*
X43567Y57504D01*
X43617Y57470D01*
X43677Y57458D01*
X43771D01*
Y57689D01*
D02*
G37*
G36*
X49337Y56289D02*
X49087D01*
Y56059D01*
X49181D01*
X49241Y56071D01*
X49292Y56104D01*
X49325Y56155D01*
X49337Y56215D01*
Y56289D01*
D02*
G37*
G36*
X48987D02*
X48738D01*
Y56215D01*
X48749Y56155D01*
X48783Y56104D01*
X48834Y56071D01*
X48894Y56059D01*
X48987D01*
Y56289D01*
D02*
G37*
G36*
X43884Y56210D02*
X43790D01*
Y55980D01*
X44040D01*
Y56054D01*
X44028Y56114D01*
X43994Y56165D01*
X43944Y56198D01*
X43884Y56210D01*
D02*
G37*
G36*
X43690D02*
X43596D01*
X43537Y56198D01*
X43486Y56165D01*
X43452Y56114D01*
X43440Y56054D01*
Y55980D01*
X43690D01*
Y56210D01*
D02*
G37*
G36*
X21568Y57334D02*
X21432D01*
X21299Y57308D01*
X21173Y57256D01*
X21060Y57180D01*
X20964Y57084D01*
X20888Y56971D01*
X20836Y56845D01*
X20809Y56712D01*
Y56576D01*
X20836Y56442D01*
X20888Y56317D01*
X20964Y56203D01*
X21060Y56107D01*
X21173Y56032D01*
X21299Y55980D01*
X21432Y55953D01*
X21568D01*
X21701Y55980D01*
X21827Y56032D01*
X21940Y56107D01*
X22036Y56203D01*
X22112Y56317D01*
X22164Y56442D01*
X22191Y56576D01*
Y56712D01*
X22164Y56845D01*
X22112Y56971D01*
X22036Y57084D01*
X21940Y57180D01*
X21827Y57256D01*
X21701Y57308D01*
X21568Y57334D01*
D02*
G37*
G36*
X38067Y54478D02*
X37314D01*
Y54137D01*
X37820D01*
X37915Y54156D01*
X37995Y54210D01*
X38049Y54290D01*
X38067Y54385D01*
Y54478D01*
D02*
G37*
G36*
X37214D02*
X36460D01*
Y54385D01*
X36479Y54290D01*
X36533Y54210D01*
X36613Y54156D01*
X36708Y54137D01*
X37214D01*
Y54478D01*
D02*
G37*
G36*
X35276Y54224D02*
X35026D01*
Y53994D01*
X35120D01*
X35179Y54006D01*
X35230Y54039D01*
X35264Y54090D01*
X35276Y54150D01*
Y54224D01*
D02*
G37*
G36*
X34300Y54224D02*
X34051D01*
Y54150D01*
X34062Y54090D01*
X34096Y54039D01*
X34147Y54006D01*
X34207Y53994D01*
X34300D01*
Y54224D01*
D02*
G37*
G36*
X21023Y53865D02*
X20965Y53865D01*
X20965Y53865D01*
X20906Y53865D01*
X20792Y53842D01*
X20685Y53798D01*
X20588Y53733D01*
X20506Y53651D01*
X20441Y53554D01*
X20397Y53447D01*
X20374Y53332D01*
Y53274D01*
X20374Y53216D01*
X20397Y53102D01*
X20441Y52995D01*
X20506Y52898D01*
X20588Y52816D01*
X20685Y52751D01*
X20792Y52706D01*
X20906Y52684D01*
X20965Y52684D01*
X21023Y52684D01*
X21137Y52706D01*
X21244Y52751D01*
X21341Y52816D01*
X21423Y52898D01*
X21488Y52995D01*
X21532Y53102D01*
X21555Y53216D01*
X21555Y53274D01*
X21555Y53274D01*
X21555Y53274D01*
X21555Y53332D01*
X21532Y53447D01*
X21488Y53554D01*
X21423Y53651D01*
X21341Y53733D01*
X21244Y53798D01*
X21137Y53842D01*
X21023Y53865D01*
D02*
G37*
G36*
X27616Y53705D02*
Y53604D01*
X27718D01*
Y53554D01*
X27767D01*
X27756Y53611D01*
X27723Y53661D01*
X27673Y53694D01*
X27616Y53705D01*
D02*
G37*
G36*
X27516D02*
X27458Y53694D01*
X27409Y53661D01*
X27376Y53611D01*
X27365Y53554D01*
X27418D01*
Y53604D01*
X27516D01*
Y53705D01*
D02*
G37*
G36*
X27094D02*
Y53604D01*
X27168D01*
Y53554D01*
X27245D01*
X27234Y53611D01*
X27201Y53661D01*
X27152Y53694D01*
X27094Y53705D01*
D02*
G37*
G36*
X26994D02*
X26937Y53694D01*
X26887Y53661D01*
X26854Y53611D01*
X26843Y53554D01*
X26918D01*
Y53604D01*
X26994D01*
Y53705D01*
D02*
G37*
G36*
X26589Y53704D02*
Y53604D01*
X26668D01*
Y53553D01*
X26741D01*
X26729Y53610D01*
X26696Y53660D01*
X26647Y53693D01*
X26589Y53704D01*
D02*
G37*
G36*
X26489D02*
X26432Y53693D01*
X26383Y53660D01*
X26350Y53610D01*
X26338Y53553D01*
X26418D01*
Y53604D01*
X26489D01*
Y53704D01*
D02*
G37*
G36*
X26070Y53695D02*
Y53604D01*
X26168D01*
Y53544D01*
X26222D01*
X26210Y53602D01*
X26177Y53651D01*
X26128Y53684D01*
X26070Y53695D01*
D02*
G37*
G36*
X25970D02*
X25913Y53684D01*
X25864Y53651D01*
X25831Y53602D01*
X25819Y53544D01*
X25868D01*
Y53604D01*
X25970D01*
Y53695D01*
D02*
G37*
G36*
X27418Y53454D02*
X27365D01*
X27375Y53404D01*
X27418D01*
Y53454D01*
D02*
G37*
G36*
X27245D02*
X27168D01*
Y53404D01*
X27235D01*
X27245Y53454D01*
D02*
G37*
G36*
X26918D02*
X26843D01*
X26853Y53404D01*
X26918D01*
Y53454D01*
D02*
G37*
G36*
X26741Y53453D02*
X26668D01*
Y53404D01*
X26731D01*
X26741Y53453D01*
D02*
G37*
G36*
X26418D02*
X26338D01*
X26348Y53404D01*
X26418D01*
Y53453D01*
D02*
G37*
G36*
X26222Y53444D02*
X26168D01*
Y53404D01*
X26214D01*
X26222Y53444D01*
D02*
G37*
G36*
X43017Y53737D02*
X42511D01*
Y53396D01*
X43264D01*
Y53489D01*
X43245Y53584D01*
X43192Y53664D01*
X43111Y53718D01*
X43017Y53737D01*
D02*
G37*
G36*
X27767Y53454D02*
X27718D01*
Y53344D01*
X27723Y53347D01*
X27756Y53397D01*
X27767Y53454D01*
D02*
G37*
G36*
X25868Y53444D02*
X25819D01*
X25831Y53387D01*
X25864Y53337D01*
X25868Y53335D01*
Y53444D01*
D02*
G37*
G36*
X43264Y53296D02*
X42511D01*
Y52956D01*
X43017D01*
X43111Y52975D01*
X43192Y53029D01*
X43245Y53109D01*
X43264Y53204D01*
Y53296D01*
D02*
G37*
G36*
X44135Y53690D02*
X43740D01*
X43345D01*
Y53688D01*
X43372Y53588D01*
X43424Y53497D01*
X43497Y53424D01*
X43551Y53393D01*
Y53335D01*
X43497Y53304D01*
X43424Y53231D01*
X43372Y53141D01*
X43345Y53040D01*
Y52936D01*
X43372Y52836D01*
X43424Y52745D01*
X43497Y52672D01*
X43588Y52620D01*
X43688Y52593D01*
X43792D01*
X43893Y52620D01*
X43983Y52672D01*
X44056Y52745D01*
X44109Y52836D01*
X44135Y52936D01*
Y53040D01*
X44109Y53141D01*
X44056Y53231D01*
X43983Y53304D01*
X43929Y53335D01*
Y53393D01*
X43983Y53424D01*
X44056Y53497D01*
X44109Y53588D01*
X44135Y53688D01*
Y53690D01*
D02*
G37*
G36*
X34880Y51620D02*
X34578D01*
Y51231D01*
X35084D01*
Y51415D01*
X35069Y51494D01*
X35024Y51560D01*
X34958Y51604D01*
X34880Y51620D01*
D02*
G37*
G36*
X34478D02*
X34175D01*
X34097Y51604D01*
X34031Y51560D01*
X33986Y51494D01*
X33971Y51415D01*
Y51231D01*
X34478D01*
Y51620D01*
D02*
G37*
G36*
X35084Y51131D02*
X34578D01*
Y50743D01*
X34880D01*
X34958Y50758D01*
X35024Y50802D01*
X35069Y50869D01*
X35084Y50947D01*
Y51131D01*
D02*
G37*
G36*
X34478D02*
X33971D01*
Y50947D01*
X33986Y50869D01*
X34031Y50802D01*
X34097Y50758D01*
X34175Y50743D01*
X34478D01*
Y51131D01*
D02*
G37*
G36*
X23253Y50803D02*
X23251D01*
Y50454D01*
X23600D01*
Y50456D01*
X23573Y50558D01*
X23520Y50649D01*
X23446Y50723D01*
X23355Y50776D01*
X23253Y50803D01*
D02*
G37*
G36*
X23151D02*
X23148D01*
X23047Y50776D01*
X22956Y50723D01*
X22881Y50649D01*
X22829Y50558D01*
X22802Y50456D01*
Y50454D01*
X23151D01*
Y50803D01*
D02*
G37*
G36*
X24434D02*
X24432D01*
Y50454D01*
X24781D01*
Y50456D01*
X24754Y50558D01*
X24701Y50649D01*
X24627Y50723D01*
X24536Y50776D01*
X24434Y50803D01*
D02*
G37*
G36*
X24332D02*
X24329D01*
X24228Y50776D01*
X24137Y50723D01*
X24062Y50649D01*
X24010Y50558D01*
X23983Y50456D01*
Y50454D01*
X24332D01*
Y50803D01*
D02*
G37*
G36*
X27718Y51535D02*
X25868D01*
Y51079D01*
X25866Y51078D01*
X25829Y51024D01*
X25822Y50986D01*
X25786Y50939D01*
X25756Y50866D01*
X25745Y50787D01*
Y50045D01*
X25593D01*
X25514Y50029D01*
X25500Y50020D01*
X24776D01*
X24776Y50020D01*
X24671Y50006D01*
X24574Y49966D01*
X24490Y49901D01*
X24490Y49901D01*
X24097Y49508D01*
X24077Y49482D01*
X24062Y49468D01*
X24052Y49450D01*
X24032Y49424D01*
X24020Y49394D01*
X24010Y49377D01*
X24005Y49357D01*
X23992Y49327D01*
X23988Y49295D01*
X23983Y49275D01*
Y49255D01*
X23978Y49222D01*
X23983Y49190D01*
Y49170D01*
X23988Y49150D01*
X23992Y49118D01*
X24005Y49088D01*
X24010Y49068D01*
X24020Y49051D01*
X24032Y49021D01*
X24052Y48995D01*
X24062Y48977D01*
X24077Y48963D01*
X24097Y48937D01*
X24122Y48917D01*
X24137Y48903D01*
X24154Y48893D01*
X24173Y48879D01*
X24170Y48851D01*
X24159Y48829D01*
X23719D01*
X23604Y48944D01*
Y49222D01*
X23600Y49255D01*
Y49622D01*
X23233D01*
X23201Y49626D01*
X23169Y49622D01*
X22802D01*
Y49255D01*
X22797Y49222D01*
Y48777D01*
X22797Y48777D01*
X22811Y48672D01*
X22851Y48575D01*
X22915Y48491D01*
X23267Y48140D01*
X23267Y48140D01*
X23351Y48076D01*
X23448Y48035D01*
X23552Y48022D01*
X25485D01*
X25514Y48002D01*
X25593Y47987D01*
X26376D01*
X26454Y48002D01*
X26520Y48046D01*
X26565Y48113D01*
X26580Y48191D01*
Y48659D01*
X26565Y48738D01*
X26520Y48804D01*
X26454Y48848D01*
X26376Y48864D01*
X25593D01*
X25514Y48848D01*
X25485Y48829D01*
X24605D01*
X24594Y48851D01*
X24591Y48879D01*
X24609Y48893D01*
X24627Y48903D01*
X24641Y48917D01*
X24667Y48937D01*
X24943Y49213D01*
X25470D01*
X25514Y49183D01*
X25593Y49168D01*
X26376D01*
X26454Y49183D01*
X26520Y49228D01*
X26565Y49294D01*
X26580Y49372D01*
Y49841D01*
X26565Y49919D01*
X26520Y49985D01*
X26454Y50029D01*
X26376Y50045D01*
X26350D01*
Y50447D01*
X26400Y50474D01*
X26420Y50461D01*
X26484Y50448D01*
X26612D01*
X26676Y50461D01*
X26730Y50497D01*
X26766Y50551D01*
X26772Y50582D01*
X26823D01*
X26829Y50551D01*
X26866Y50497D01*
X26920Y50461D01*
X26984Y50448D01*
X27112D01*
X27176Y50461D01*
X27230Y50497D01*
X27266Y50551D01*
X27279Y50615D01*
X27328D01*
X27341Y50551D01*
X27377Y50497D01*
X27381Y50494D01*
Y50045D01*
X27167D01*
X27089Y50029D01*
X27023Y49985D01*
X26979Y49919D01*
X26963Y49841D01*
Y49372D01*
X26979Y49294D01*
X27023Y49228D01*
X27089Y49183D01*
X27167Y49168D01*
X27951D01*
X28029Y49183D01*
X28095Y49228D01*
X28140Y49294D01*
X28147Y49329D01*
X28482D01*
X28494Y49271D01*
X28537Y49206D01*
X28601Y49163D01*
X28677Y49148D01*
X29197D01*
X29273Y49163D01*
X29337Y49206D01*
X29380Y49271D01*
X29395Y49346D01*
Y49787D01*
X29380Y49863D01*
X29337Y49928D01*
X29273Y49971D01*
X29197Y49986D01*
X29076D01*
Y50082D01*
X29076Y50082D01*
X29065Y50137D01*
X29086Y50175D01*
X29098Y50187D01*
X29203D01*
Y50187D01*
X29209Y50193D01*
X29213Y50192D01*
X29449D01*
X29511Y50205D01*
X29556Y50235D01*
X29701D01*
X29718Y50224D01*
X29778Y50212D01*
X30065D01*
X30125Y50224D01*
X30175Y50258D01*
X30209Y50308D01*
X30210Y50314D01*
X30300D01*
X30305Y50305D01*
X30366Y50265D01*
X30437Y50251D01*
X30980D01*
X31052Y50265D01*
X31112Y50305D01*
X31152Y50366D01*
X31167Y50437D01*
Y50823D01*
X31152Y50894D01*
X31112Y50955D01*
X31052Y50995D01*
X30980Y51009D01*
X30437D01*
X30366Y50995D01*
X30305Y50955D01*
X30265Y50894D01*
X30251Y50823D01*
Y50704D01*
X30201Y50689D01*
X30175Y50727D01*
X30125Y50760D01*
X30117Y50762D01*
Y50813D01*
X30125Y50814D01*
X30175Y50848D01*
X30209Y50899D01*
X30221Y50959D01*
Y51207D01*
X30209Y51266D01*
X30175Y51317D01*
X30125Y51351D01*
X30065Y51363D01*
X29778D01*
X29718Y51351D01*
X29701Y51340D01*
X29556D01*
X29511Y51370D01*
X29449Y51383D01*
X29213D01*
X29209Y51382D01*
X29203Y51387D01*
Y51387D01*
X29003D01*
X28965Y51425D01*
X28907Y51464D01*
X28839Y51478D01*
X27718D01*
Y51535D01*
D02*
G37*
G36*
X32382Y50790D02*
X32333D01*
Y50185D01*
X32584D01*
Y50588D01*
X32569Y50665D01*
X32525Y50731D01*
X32459Y50775D01*
X32382Y50790D01*
D02*
G37*
G36*
X32233D02*
X32185D01*
X32108Y50775D01*
X32042Y50731D01*
X31998Y50665D01*
X31983Y50588D01*
Y50185D01*
X32233D01*
Y50790D01*
D02*
G37*
G36*
X34002Y50379D02*
X33908D01*
Y50148D01*
X34158D01*
Y50222D01*
X34146Y50282D01*
X34112Y50333D01*
X34062Y50367D01*
X34002Y50379D01*
D02*
G37*
G36*
X33808D02*
X33715D01*
X33655Y50367D01*
X33604Y50333D01*
X33570Y50282D01*
X33558Y50222D01*
Y50148D01*
X33808D01*
Y50379D01*
D02*
G37*
G36*
X24781Y50354D02*
X24432D01*
Y50004D01*
X24434D01*
X24536Y50032D01*
X24627Y50084D01*
X24701Y50158D01*
X24754Y50249D01*
X24781Y50351D01*
Y50354D01*
D02*
G37*
G36*
X24332D02*
X23983D01*
Y50351D01*
X24010Y50249D01*
X24062Y50158D01*
X24137Y50084D01*
X24228Y50032D01*
X24329Y50004D01*
X24332D01*
Y50354D01*
D02*
G37*
G36*
X23600Y50354D02*
X23251D01*
Y50004D01*
X23253D01*
X23355Y50032D01*
X23446Y50084D01*
X23520Y50158D01*
X23573Y50249D01*
X23600Y50351D01*
Y50354D01*
D02*
G37*
G36*
X23151D02*
X22802D01*
Y50351D01*
X22829Y50249D01*
X22881Y50158D01*
X22956Y50084D01*
X23047Y50032D01*
X23148Y50004D01*
X23151D01*
Y50354D01*
D02*
G37*
G36*
X30980Y49985D02*
X30437D01*
X30366Y49971D01*
X30305Y49931D01*
X30265Y49870D01*
X30264Y49864D01*
X30176D01*
X30170Y49892D01*
X30138Y49941D01*
X30089Y49973D01*
X30031Y49985D01*
X29811D01*
X29754Y49973D01*
X29705Y49941D01*
X29672Y49892D01*
X29661Y49835D01*
Y49659D01*
X29653Y49641D01*
X29644Y49569D01*
Y49567D01*
X29653Y49495D01*
X29661Y49477D01*
Y49299D01*
X29672Y49242D01*
X29705Y49193D01*
X29754Y49161D01*
X29811Y49149D01*
X30031D01*
X30089Y49161D01*
X30138Y49193D01*
X30170Y49242D01*
X30182Y49299D01*
Y49309D01*
X30287D01*
X30305Y49282D01*
X30366Y49241D01*
X30437Y49227D01*
X30980D01*
X31052Y49241D01*
X31112Y49282D01*
X31152Y49342D01*
X31167Y49413D01*
Y49799D01*
X31152Y49870D01*
X31112Y49931D01*
X31052Y49971D01*
X30980Y49985D01*
D02*
G37*
G36*
X21568Y50759D02*
X21432D01*
X21299Y50733D01*
X21173Y50681D01*
X21060Y50605D01*
X20964Y50509D01*
X20888Y50396D01*
X20836Y50270D01*
X20809Y50137D01*
Y50001D01*
X20836Y49867D01*
X20888Y49742D01*
X20964Y49629D01*
X21060Y49533D01*
X21173Y49457D01*
X21299Y49405D01*
X21432Y49378D01*
X21568D01*
X21701Y49405D01*
X21827Y49457D01*
X21940Y49533D01*
X22036Y49629D01*
X22112Y49742D01*
X22164Y49867D01*
X22191Y50001D01*
Y50137D01*
X22164Y50270D01*
X22112Y50396D01*
X22036Y50509D01*
X21940Y50605D01*
X21827Y50681D01*
X21701Y50733D01*
X21568Y50759D01*
D02*
G37*
G36*
X30852Y49099D02*
X30759D01*
Y48869D01*
X31009D01*
Y48943D01*
X30997Y49003D01*
X30963Y49053D01*
X30912Y49087D01*
X30852Y49099D01*
D02*
G37*
G36*
X30659D02*
X30565D01*
X30505Y49087D01*
X30455Y49053D01*
X30421Y49003D01*
X30409Y48943D01*
Y48869D01*
X30659D01*
Y49099D01*
D02*
G37*
G36*
X38730Y49088D02*
X38480D01*
Y49014D01*
X38492Y48954D01*
X38525Y48903D01*
X38576Y48870D01*
X38636Y48858D01*
X38730D01*
Y49088D01*
D02*
G37*
G36*
X46210Y48277D02*
X45960D01*
Y48203D01*
X45972Y48143D01*
X46006Y48092D01*
X46056Y48058D01*
X46116Y48047D01*
X46210D01*
Y48277D01*
D02*
G37*
%LPD*%
G36*
X30612Y74362D02*
X30040Y73790D01*
X29819D01*
X29800Y73836D01*
X29804Y73841D01*
X29857Y73932D01*
X29884Y74034D01*
Y74037D01*
X29084D01*
Y74034D01*
X29112Y73932D01*
X29164Y73841D01*
X29169Y73836D01*
X29150Y73790D01*
X27931D01*
X27359Y74362D01*
X27378Y74408D01*
X29169D01*
X29190Y74358D01*
X29164Y74332D01*
X29112Y74241D01*
X29084Y74139D01*
Y74137D01*
X29884D01*
Y74139D01*
X29857Y74241D01*
X29804Y74332D01*
X29778Y74358D01*
X29799Y74408D01*
X30592D01*
X30612Y74362D01*
D02*
G37*
G36*
X47186Y64963D02*
Y64465D01*
X47180Y64463D01*
X47130Y64430D01*
X47096Y64379D01*
X47084Y64319D01*
Y64032D01*
X47096Y63972D01*
X47130Y63921D01*
X47180Y63888D01*
X47193Y63885D01*
Y63834D01*
X47190Y63834D01*
X47140Y63800D01*
X47106Y63749D01*
X47094Y63689D01*
Y63596D01*
X47374D01*
Y63546D01*
X47424D01*
Y63246D01*
X47498D01*
X47558Y63258D01*
X47608Y63291D01*
X47642Y63342D01*
X47644Y63350D01*
X47695D01*
X47696Y63342D01*
X47730Y63291D01*
X47776Y63261D01*
Y63153D01*
X47732Y63145D01*
X47681Y63111D01*
X47647Y63060D01*
X47646Y63053D01*
X47595D01*
X47593Y63060D01*
X47559Y63111D01*
X47509Y63145D01*
X47449Y63156D01*
X47375D01*
Y62857D01*
Y62557D01*
X47449D01*
X47509Y62569D01*
X47559Y62603D01*
X47593Y62653D01*
X47595Y62661D01*
X47646D01*
X47647Y62653D01*
X47681Y62603D01*
X47732Y62569D01*
X47776Y62560D01*
Y62457D01*
X47771Y62456D01*
X47720Y62422D01*
X47686Y62371D01*
X47685Y62364D01*
X47634D01*
X47632Y62371D01*
X47599Y62422D01*
X47548Y62456D01*
X47488Y62467D01*
X47414D01*
Y62168D01*
Y61868D01*
X47488D01*
X47548Y61880D01*
X47599Y61914D01*
X47632Y61964D01*
X47634Y61972D01*
X47685D01*
X47686Y61964D01*
X47720Y61914D01*
X47771Y61880D01*
X47776Y61879D01*
Y61818D01*
X47790Y61750D01*
X47829Y61692D01*
X47835Y61685D01*
X47823Y61666D01*
X47813Y61617D01*
X47762D01*
X47752Y61666D01*
X47702Y61741D01*
X47626Y61792D01*
X47587Y61800D01*
Y61380D01*
Y60961D01*
X47626Y60969D01*
X47702Y61019D01*
X47752Y61094D01*
X47762Y61144D01*
X47813D01*
X47823Y61094D01*
X47873Y61019D01*
X47948Y60969D01*
X48037Y60951D01*
X48126Y60969D01*
X48202Y61019D01*
X48252Y61094D01*
X48262Y61144D01*
X48313D01*
X48323Y61094D01*
X48373Y61019D01*
X48448Y60969D01*
X48537Y60951D01*
X48626Y60969D01*
X48702Y61019D01*
X48752Y61094D01*
X48762Y61144D01*
X48813D01*
X48823Y61094D01*
X48859Y61040D01*
Y60250D01*
X48534Y59925D01*
X47161D01*
X47160Y59930D01*
X47126Y59981D01*
X47076Y60015D01*
X47016Y60027D01*
X46728D01*
X46669Y60015D01*
X46618Y59981D01*
X46584Y59930D01*
X46572Y59870D01*
Y59622D01*
X46584Y59563D01*
X46618Y59512D01*
X46669Y59478D01*
X46676Y59477D01*
Y59426D01*
X46669Y59424D01*
X46618Y59390D01*
X46584Y59340D01*
X46572Y59280D01*
Y59032D01*
X46584Y58972D01*
X46618Y58921D01*
X46669Y58888D01*
X46694Y58883D01*
Y58602D01*
X46669Y58597D01*
X46618Y58563D01*
X46584Y58513D01*
X46572Y58453D01*
Y58205D01*
X46584Y58145D01*
X46618Y58095D01*
X46669Y58061D01*
X46676Y58059D01*
Y58008D01*
X46669Y58007D01*
X46618Y57973D01*
X46584Y57922D01*
X46572Y57863D01*
Y57789D01*
X47172D01*
Y57863D01*
X47160Y57922D01*
X47126Y57973D01*
X47076Y58007D01*
X47068Y58008D01*
Y58059D01*
X47076Y58061D01*
X47126Y58095D01*
X47160Y58145D01*
X47172Y58205D01*
Y58453D01*
X47160Y58513D01*
X47126Y58563D01*
X47076Y58597D01*
X47050Y58602D01*
Y58883D01*
X47076Y58888D01*
X47126Y58921D01*
X47160Y58972D01*
X47161Y58977D01*
X47305D01*
Y58959D01*
X47323Y58870D01*
X47373Y58795D01*
X47448Y58744D01*
X47537Y58727D01*
X47626Y58744D01*
X47702Y58795D01*
X47752Y58870D01*
X47762Y58919D01*
X47813D01*
X47823Y58870D01*
X47873Y58795D01*
X47948Y58744D01*
X48037Y58727D01*
X48126Y58744D01*
X48202Y58795D01*
X48252Y58870D01*
X48262Y58919D01*
X48313D01*
X48323Y58870D01*
X48347Y58833D01*
X48276Y58762D01*
X48238Y58704D01*
X48224Y58636D01*
Y58629D01*
X48165Y58617D01*
X48114Y58583D01*
X48080Y58533D01*
X48079Y58525D01*
X48028D01*
X48026Y58533D01*
X47992Y58583D01*
X47942Y58617D01*
X47882Y58629D01*
X47634D01*
X47574Y58617D01*
X47523Y58583D01*
X47490Y58533D01*
X47478Y58473D01*
Y58185D01*
X47490Y58126D01*
X47523Y58075D01*
X47540Y58064D01*
Y58004D01*
X47523Y57993D01*
X47490Y57942D01*
X47478Y57882D01*
Y57595D01*
X47490Y57535D01*
X47523Y57484D01*
X47536Y57476D01*
X47567Y57436D01*
X47533Y57353D01*
Y57264D01*
X47567Y57181D01*
X47591Y57158D01*
X47570Y57108D01*
X46275D01*
X46274Y57113D01*
X46240Y57164D01*
X46190Y57198D01*
X46165Y57203D01*
Y58816D01*
X46201Y58870D01*
X46219Y58959D01*
Y59353D01*
X46201Y59442D01*
X46151Y59517D01*
X46075Y59567D01*
X45986Y59585D01*
X45897Y59567D01*
X45822Y59517D01*
X45771Y59442D01*
X45762Y59392D01*
X45711D01*
X45701Y59442D01*
X45651Y59517D01*
X45649Y59518D01*
X45664Y59568D01*
X45672D01*
X45740Y59582D01*
X45798Y59620D01*
X46112Y59935D01*
X46112Y59935D01*
X46151Y59993D01*
X46165Y60061D01*
X46165Y60061D01*
Y61040D01*
X46201Y61094D01*
X46219Y61183D01*
Y61577D01*
X46201Y61666D01*
X46191Y61681D01*
X46309Y61800D01*
X46309Y61800D01*
X46348Y61858D01*
X46352Y61877D01*
X46367Y61880D01*
X46417Y61914D01*
X46451Y61964D01*
X46463Y62024D01*
Y62311D01*
X46451Y62371D01*
X46417Y62422D01*
X46367Y62456D01*
X46361Y62457D01*
Y62568D01*
X46367Y62569D01*
X46417Y62603D01*
X46451Y62653D01*
X46463Y62713D01*
Y63000D01*
X46451Y63060D01*
X46417Y63111D01*
X46367Y63145D01*
X46307Y63156D01*
X46059D01*
X45999Y63145D01*
X45949Y63111D01*
X45915Y63060D01*
X45913Y63053D01*
X45862D01*
X45861Y63060D01*
X45827Y63111D01*
X45776Y63145D01*
X45771Y63146D01*
Y63257D01*
X45776Y63258D01*
X45827Y63291D01*
X45861Y63342D01*
X45862Y63350D01*
X45913D01*
X45915Y63342D01*
X45949Y63291D01*
X45999Y63258D01*
X46059Y63246D01*
X46133D01*
Y63546D01*
Y63845D01*
X46059D01*
X45999Y63834D01*
X45949Y63800D01*
X45915Y63749D01*
X45913Y63741D01*
X45862D01*
X45861Y63749D01*
X45827Y63800D01*
X45776Y63834D01*
X45717Y63845D01*
X45469D01*
X45409Y63834D01*
X45358Y63800D01*
X45324Y63749D01*
X45312Y63689D01*
Y63402D01*
X45324Y63342D01*
X45358Y63291D01*
X45409Y63258D01*
X45414Y63257D01*
Y63146D01*
X45409Y63145D01*
X45358Y63111D01*
X45324Y63060D01*
X45312Y63000D01*
Y62713D01*
X45324Y62653D01*
X45358Y62603D01*
X45409Y62569D01*
X45414Y62568D01*
Y62457D01*
X45409Y62456D01*
X45358Y62422D01*
X45324Y62371D01*
X45312Y62311D01*
Y62024D01*
X45324Y61964D01*
X45358Y61914D01*
X45369Y61906D01*
X45371Y61845D01*
X45342Y61800D01*
X45331Y61748D01*
X45322Y61741D01*
X45271Y61666D01*
X45262Y61617D01*
X45211D01*
X45201Y61666D01*
X45151Y61741D01*
X45144Y61746D01*
Y61756D01*
X45131Y61824D01*
X45092Y61882D01*
X45130Y61908D01*
X45138Y61914D01*
X45172Y61964D01*
X45184Y62024D01*
Y62311D01*
X45172Y62371D01*
X45138Y62422D01*
X45087Y62456D01*
X45082Y62457D01*
Y62568D01*
X45087Y62569D01*
X45138Y62603D01*
X45172Y62653D01*
X45184Y62713D01*
Y63000D01*
X45172Y63060D01*
X45138Y63111D01*
X45087Y63145D01*
X45082Y63146D01*
Y63280D01*
X45099Y63291D01*
X45132Y63342D01*
X45144Y63402D01*
Y63689D01*
X45132Y63749D01*
X45099Y63800D01*
X45082Y63811D01*
Y63886D01*
X45087Y63888D01*
X45138Y63921D01*
X45172Y63972D01*
X45184Y64032D01*
Y64319D01*
X45172Y64379D01*
X45138Y64430D01*
X45087Y64463D01*
X45028Y64475D01*
X44780D01*
X44720Y64463D01*
X44669Y64430D01*
X44635Y64379D01*
X44634Y64371D01*
X44583D01*
X44581Y64379D01*
X44547Y64430D01*
X44497Y64463D01*
X44491Y64465D01*
Y65626D01*
X44478Y65694D01*
X44439Y65752D01*
X44241Y65950D01*
X44261Y65996D01*
X46153D01*
X47186Y64963D01*
D02*
G37*
G36*
X33975Y65003D02*
Y64754D01*
X33970Y64753D01*
X33919Y64719D01*
X33885Y64669D01*
X33873Y64609D01*
Y64322D01*
X33885Y64262D01*
X33919Y64211D01*
X33936Y64200D01*
Y64140D01*
X33919Y64129D01*
X33885Y64078D01*
X33873Y64019D01*
Y63731D01*
X33885Y63671D01*
X33896Y63655D01*
Y63187D01*
X33849D01*
X33849Y62625D01*
X33849D01*
X33854Y62618D01*
X33854Y62615D01*
Y62379D01*
X33866Y62317D01*
X33896Y62271D01*
Y62183D01*
X33852Y62175D01*
X33801Y62141D01*
X33790Y62124D01*
X33730D01*
X33719Y62141D01*
X33668Y62175D01*
X33608Y62186D01*
X33581D01*
X33573Y62210D01*
X33573Y62236D01*
X33619Y62267D01*
X33654Y62320D01*
X33666Y62382D01*
Y62450D01*
X33445D01*
Y62550D01*
X33666D01*
Y62618D01*
X33665Y62621D01*
X33671Y62628D01*
X33671D01*
X33671Y63191D01*
X33504D01*
X33484Y63241D01*
X33492Y63249D01*
X33492Y63249D01*
X33531Y63307D01*
X33545Y63375D01*
X33545Y63375D01*
Y63589D01*
X33550Y63590D01*
X33601Y63624D01*
X33634Y63675D01*
X33646Y63734D01*
Y64022D01*
X33634Y64081D01*
X33601Y64132D01*
X33584Y64143D01*
Y64203D01*
X33601Y64214D01*
X33634Y64265D01*
X33646Y64325D01*
Y64612D01*
X33634Y64672D01*
X33601Y64723D01*
X33575Y64739D01*
X33558Y64786D01*
X33563Y64803D01*
X33591Y64872D01*
Y64961D01*
X33577Y64997D01*
X33604Y65038D01*
X33940D01*
X33975Y65003D01*
D02*
G37*
G36*
X48823Y58870D02*
X48859Y58816D01*
Y57203D01*
X48834Y57198D01*
X48783Y57164D01*
X48749Y57113D01*
X48748Y57108D01*
X47946D01*
X47925Y57158D01*
X47949Y57181D01*
X47983Y57264D01*
Y57353D01*
X47949Y57436D01*
X47980Y57476D01*
X47992Y57484D01*
X48026Y57535D01*
X48028Y57543D01*
X48079D01*
X48080Y57535D01*
X48114Y57484D01*
X48165Y57451D01*
X48224Y57439D01*
X48298D01*
Y57739D01*
X48348D01*
Y57789D01*
X48629D01*
Y57882D01*
X48617Y57942D01*
X48583Y57993D01*
X48566Y58004D01*
Y58064D01*
X48583Y58075D01*
X48617Y58126D01*
X48629Y58185D01*
Y58473D01*
X48617Y58533D01*
X48590Y58572D01*
X48658Y58639D01*
X48658Y58639D01*
X48697Y58697D01*
X48710Y58766D01*
Y58807D01*
X48752Y58870D01*
X48762Y58919D01*
X48813D01*
X48823Y58870D01*
D02*
G37*
G36*
X45771D02*
X45808Y58816D01*
Y57203D01*
X45783Y57198D01*
X45732Y57164D01*
X45710Y57130D01*
X44912D01*
X44893Y57177D01*
X44897Y57181D01*
X44932Y57264D01*
Y57353D01*
X44897Y57436D01*
X44928Y57476D01*
X44941Y57484D01*
X44975Y57535D01*
X44976Y57543D01*
X45027D01*
X45029Y57535D01*
X45063Y57484D01*
X45113Y57451D01*
X45173Y57439D01*
X45247D01*
Y57739D01*
X45297D01*
Y57789D01*
X45577D01*
Y57882D01*
X45566Y57942D01*
X45532Y57993D01*
X45515Y58004D01*
Y58064D01*
X45532Y58075D01*
X45566Y58126D01*
X45577Y58185D01*
Y58473D01*
X45566Y58533D01*
X45539Y58572D01*
X45607Y58639D01*
X45607Y58639D01*
X45645Y58697D01*
X45659Y58766D01*
Y58807D01*
X45701Y58870D01*
X45711Y58919D01*
X45762D01*
X45771Y58870D01*
D02*
G37*
G36*
X38118Y57480D02*
X38151Y57430D01*
X38202Y57396D01*
X38262Y57384D01*
X38510D01*
X38570Y57396D01*
X38620Y57430D01*
X38654Y57480D01*
X38656Y57488D01*
X38707D01*
X38708Y57480D01*
X38742Y57430D01*
X38793Y57396D01*
X38852Y57384D01*
X39100D01*
X39102Y57384D01*
X39127Y57338D01*
X38463Y56674D01*
X35192D01*
X35172Y56721D01*
X35557Y57105D01*
X36509D01*
X36577Y57119D01*
X36635Y57157D01*
X36983Y57505D01*
X38113D01*
X38118Y57480D01*
D02*
G37*
G36*
X45698Y56746D02*
X45732Y56695D01*
X45783Y56661D01*
X45790Y56660D01*
Y56609D01*
X45783Y56607D01*
X45732Y56573D01*
X45698Y56523D01*
X45686Y56463D01*
Y56389D01*
X46286D01*
Y56463D01*
X46274Y56523D01*
X46240Y56573D01*
X46190Y56607D01*
X46182Y56609D01*
Y56660D01*
X46190Y56661D01*
X46240Y56695D01*
X46274Y56746D01*
X46275Y56751D01*
X47655D01*
X47665Y56701D01*
X47630Y56687D01*
X47567Y56624D01*
X47533Y56541D01*
Y56451D01*
X47567Y56369D01*
X47579Y56356D01*
Y56263D01*
X47471Y56155D01*
X46325D01*
X46284Y56205D01*
X46286Y56215D01*
Y56289D01*
X45686D01*
Y56215D01*
X45688Y56205D01*
X45647Y56155D01*
X44968D01*
X44765Y56357D01*
X44777Y56416D01*
X44821Y56434D01*
X44884Y56497D01*
X44919Y56580D01*
Y56670D01*
X44896Y56723D01*
X44929Y56773D01*
X45693D01*
X45698Y56746D01*
D02*
G37*
G36*
X32867Y56018D02*
X32846Y55967D01*
Y55877D01*
X32880Y55795D01*
X32905Y55770D01*
X32884Y55720D01*
X30499D01*
X30430Y55706D01*
X30373Y55667D01*
X30373Y55667D01*
X29151Y54446D01*
X29101Y54467D01*
Y54902D01*
X29086Y54980D01*
X29079Y54989D01*
X30158Y56068D01*
X32833D01*
X32867Y56018D01*
D02*
G37*
G36*
X40059Y52559D02*
Y51083D01*
X40256Y50886D01*
X40945D01*
Y50886D01*
X41142Y50689D01*
Y50295D01*
X40945Y50098D01*
X38878D01*
X38681Y50295D01*
Y52657D01*
X38878Y52854D01*
X39764D01*
X40059Y52559D01*
D02*
G37*
G36*
X37992Y52854D02*
X38189Y52657D01*
Y50787D01*
X37992Y50591D01*
X37500D01*
X37303Y50394D01*
Y48622D01*
X37500Y48425D01*
X38189D01*
X38287Y48327D01*
Y48130D01*
X38287D01*
X38189Y48032D01*
X36319D01*
X36122Y48228D01*
Y50098D01*
X35433Y50787D01*
Y52264D01*
X36024Y52854D01*
X37992D01*
Y52854D01*
D02*
G37*
%LPC*%
G36*
X46307Y63845D02*
X46233D01*
Y63596D01*
X46463D01*
Y63689D01*
X46451Y63749D01*
X46417Y63800D01*
X46367Y63834D01*
X46307Y63845D01*
D02*
G37*
G36*
X47324Y63496D02*
X47094D01*
Y63402D01*
X47106Y63342D01*
X47140Y63291D01*
X47190Y63258D01*
X47250Y63246D01*
X47324D01*
Y63496D01*
D02*
G37*
G36*
X46463D02*
X46233D01*
Y63246D01*
X46307D01*
X46367Y63258D01*
X46417Y63291D01*
X46451Y63342D01*
X46463Y63402D01*
Y63496D01*
D02*
G37*
G36*
X47275Y63156D02*
X47201D01*
X47141Y63145D01*
X47090Y63111D01*
X47057Y63060D01*
X47045Y63000D01*
Y62907D01*
X47275D01*
Y63156D01*
D02*
G37*
G36*
Y62807D02*
X47045D01*
Y62713D01*
X47057Y62653D01*
X47090Y62603D01*
X47141Y62569D01*
X47201Y62557D01*
X47275D01*
Y62807D01*
D02*
G37*
G36*
X47314Y62467D02*
X47240D01*
X47180Y62456D01*
X47130Y62422D01*
X47096Y62371D01*
X47084Y62311D01*
Y62218D01*
X47314D01*
Y62467D01*
D02*
G37*
G36*
Y62118D02*
X47084D01*
Y62024D01*
X47096Y61964D01*
X47130Y61914D01*
X47180Y61880D01*
X47240Y61868D01*
X47314D01*
Y62118D01*
D02*
G37*
G36*
X47487Y61800D02*
X47448Y61792D01*
X47373Y61741D01*
X47323Y61666D01*
X47305Y61577D01*
Y61430D01*
X47487D01*
Y61800D01*
D02*
G37*
G36*
Y61330D02*
X47305D01*
Y61183D01*
X47323Y61094D01*
X47373Y61019D01*
X47448Y60969D01*
X47487Y60961D01*
Y61330D01*
D02*
G37*
G36*
X47172Y57689D02*
X46922D01*
Y57458D01*
X47016D01*
X47076Y57470D01*
X47126Y57504D01*
X47160Y57555D01*
X47172Y57614D01*
Y57689D01*
D02*
G37*
G36*
X46822D02*
X46572D01*
Y57614D01*
X46584Y57555D01*
X46618Y57504D01*
X46669Y57470D01*
X46728Y57458D01*
X46822D01*
Y57689D01*
D02*
G37*
G36*
X48629D02*
X48398D01*
Y57439D01*
X48472D01*
X48532Y57451D01*
X48583Y57484D01*
X48617Y57535D01*
X48629Y57595D01*
Y57689D01*
D02*
G37*
G36*
X45577Y57689D02*
X45347D01*
Y57439D01*
X45421D01*
X45481Y57451D01*
X45532Y57484D01*
X45566Y57535D01*
X45577Y57595D01*
Y57689D01*
D02*
G37*
G36*
X58877Y73026D02*
X58820Y73015D01*
X58770Y72982D01*
X58768Y72978D01*
X58877D01*
Y73026D01*
D02*
G37*
G36*
X58977Y73026D02*
Y72978D01*
X59037D01*
Y72875D01*
X59128D01*
X59117Y72932D01*
X59084Y72982D01*
X59035Y73015D01*
X58977Y73026D01*
D02*
G37*
G36*
X59128Y72775D02*
X59037D01*
Y72678D01*
X58977D01*
Y72624D01*
X59035Y72635D01*
X59084Y72668D01*
X59117Y72717D01*
X59128Y72775D01*
D02*
G37*
G36*
X58877Y72678D02*
X58837D01*
Y72632D01*
X58877Y72624D01*
Y72678D01*
D02*
G37*
G36*
X58886Y72507D02*
X58837Y72497D01*
Y72428D01*
X58886D01*
Y72507D01*
D02*
G37*
G36*
X58986Y72507D02*
Y72428D01*
X59037D01*
Y72356D01*
X59137D01*
X59126Y72413D01*
X59093Y72463D01*
X59043Y72496D01*
X58986Y72507D01*
D02*
G37*
G36*
X58886Y72178D02*
X58837D01*
Y72115D01*
X58886Y72105D01*
Y72178D01*
D02*
G37*
G36*
X59137Y72256D02*
X59037D01*
Y72178D01*
X58986D01*
Y72105D01*
X59043Y72116D01*
X59093Y72149D01*
X59126Y72198D01*
X59137Y72256D01*
D02*
G37*
G36*
X58887Y72002D02*
X58837Y71992D01*
Y71928D01*
X58887D01*
Y72002D01*
D02*
G37*
G36*
X58987Y72002D02*
Y71928D01*
X59037D01*
Y71851D01*
X59138D01*
X59127Y71909D01*
X59094Y71958D01*
X59044Y71991D01*
X58987Y72002D01*
D02*
G37*
G36*
X58887Y71678D02*
X58837D01*
Y71610D01*
X58887Y71600D01*
Y71678D01*
D02*
G37*
G36*
X59138Y71751D02*
X59037D01*
Y71678D01*
X58987D01*
Y71600D01*
X59044Y71611D01*
X59094Y71644D01*
X59127Y71694D01*
X59138Y71751D01*
D02*
G37*
G36*
X58887Y71481D02*
X58837Y71471D01*
Y71428D01*
X58887D01*
Y71481D01*
D02*
G37*
G36*
X58987D02*
Y71428D01*
X59037D01*
Y71330D01*
X59138D01*
X59127Y71387D01*
X59094Y71436D01*
X59044Y71469D01*
X58987Y71481D01*
D02*
G37*
G36*
X59138Y71230D02*
X59037D01*
Y71128D01*
X58987D01*
Y71078D01*
X59044Y71090D01*
X59094Y71123D01*
X59127Y71172D01*
X59138Y71230D01*
D02*
G37*
G36*
X58887Y71128D02*
X58777D01*
X58780Y71123D01*
X58830Y71090D01*
X58887Y71078D01*
Y71128D01*
D02*
G37*
G36*
X61412Y70982D02*
X60877D01*
Y70381D01*
X61679D01*
Y70715D01*
X61670Y70784D01*
X61643Y70849D01*
X61601Y70904D01*
X61546Y70946D01*
X61481Y70973D01*
X61412Y70982D01*
D02*
G37*
G36*
X60777D02*
X60242D01*
X60172Y70973D01*
X60108Y70946D01*
X60053Y70904D01*
X60010Y70849D01*
X59984Y70784D01*
X59974Y70715D01*
Y70381D01*
X60777D01*
Y70982D01*
D02*
G37*
G36*
X61679Y70281D02*
X60877D01*
Y69679D01*
X61412D01*
X61481Y69688D01*
X61546Y69715D01*
X61601Y69757D01*
X61643Y69813D01*
X61670Y69877D01*
X61679Y69946D01*
Y70281D01*
D02*
G37*
G36*
X60777D02*
X59974D01*
Y69946D01*
X59984Y69877D01*
X60010Y69813D01*
X60053Y69757D01*
X60108Y69715D01*
X60172Y69688D01*
X60242Y69679D01*
X60777D01*
Y70281D01*
D02*
G37*
G36*
X61412Y68171D02*
X60877D01*
Y67570D01*
X61679D01*
Y67904D01*
X61670Y67973D01*
X61643Y68038D01*
X61601Y68093D01*
X61546Y68135D01*
X61481Y68162D01*
X61412Y68171D01*
D02*
G37*
G36*
X60777D02*
X60242D01*
X60172Y68162D01*
X60108Y68135D01*
X60053Y68093D01*
X60010Y68038D01*
X59984Y67973D01*
X59974Y67904D01*
Y67570D01*
X60777D01*
Y68171D01*
D02*
G37*
G36*
X61679Y67470D02*
X60877D01*
Y66868D01*
X61412D01*
X61481Y66877D01*
X61546Y66904D01*
X61601Y66946D01*
X61643Y67002D01*
X61670Y67066D01*
X61679Y67135D01*
Y67470D01*
D02*
G37*
G36*
X60777D02*
X59974D01*
Y67135D01*
X59984Y67066D01*
X60010Y67002D01*
X60053Y66946D01*
X60108Y66904D01*
X60172Y66877D01*
X60242Y66868D01*
X60777D01*
Y67470D01*
D02*
G37*
G36*
X58877Y52750D02*
X58820Y52739D01*
X58770Y52706D01*
X58768Y52702D01*
X58877D01*
Y52750D01*
D02*
G37*
G36*
X58977Y52750D02*
Y52702D01*
X59037D01*
Y52599D01*
X59128D01*
X59117Y52657D01*
X59084Y52706D01*
X59035Y52739D01*
X58977Y52750D01*
D02*
G37*
G36*
X59128Y52499D02*
X59037D01*
Y52402D01*
X58977D01*
Y52348D01*
X59035Y52359D01*
X59084Y52392D01*
X59117Y52442D01*
X59128Y52499D01*
D02*
G37*
G36*
X58837Y52402D02*
Y52356D01*
X58877Y52348D01*
Y52402D01*
X58837D01*
D02*
G37*
G36*
X58886Y52232D02*
X58837Y52222D01*
Y52152D01*
X58886D01*
Y52232D01*
D02*
G37*
G36*
X58986D02*
Y52152D01*
X59037D01*
Y52080D01*
X59137D01*
X59126Y52138D01*
X59093Y52187D01*
X59043Y52220D01*
X58986Y52232D01*
D02*
G37*
G36*
X59137Y51980D02*
X59037D01*
Y51902D01*
X58986D01*
Y51829D01*
X59043Y51841D01*
X59093Y51874D01*
X59126Y51923D01*
X59137Y51980D01*
D02*
G37*
G36*
X58886Y51902D02*
X58837D01*
Y51839D01*
X58886Y51829D01*
Y51902D01*
D02*
G37*
G36*
X58887Y51727D02*
X58837Y51717D01*
Y51652D01*
X58887D01*
Y51727D01*
D02*
G37*
G36*
X58987Y51727D02*
Y51652D01*
X59037D01*
X59037Y51576D01*
X59138D01*
X59127Y51633D01*
X59094Y51682D01*
X59044Y51715D01*
X58987Y51727D01*
D02*
G37*
G36*
X58887Y51402D02*
X58837D01*
Y51334D01*
X58887Y51324D01*
Y51402D01*
D02*
G37*
G36*
X59138Y51476D02*
X59037D01*
X59037Y51402D01*
X58987D01*
Y51324D01*
X59044Y51336D01*
X59094Y51369D01*
X59127Y51418D01*
X59138Y51476D01*
D02*
G37*
G36*
X58887Y51205D02*
X58837Y51195D01*
Y51152D01*
X58887D01*
Y51205D01*
D02*
G37*
G36*
X61412Y51663D02*
X60877D01*
Y51062D01*
X61679D01*
Y51396D01*
X61670Y51465D01*
X61643Y51530D01*
X61601Y51585D01*
X61546Y51628D01*
X61481Y51654D01*
X61412Y51663D01*
D02*
G37*
G36*
X60777D02*
X60242D01*
X60172Y51654D01*
X60108Y51628D01*
X60053Y51585D01*
X60010Y51530D01*
X59984Y51465D01*
X59974Y51396D01*
Y51062D01*
X60777D01*
Y51663D01*
D02*
G37*
G36*
X58987Y51205D02*
Y51152D01*
X59037D01*
Y51054D01*
X59138D01*
X59127Y51111D01*
X59094Y51161D01*
X59044Y51194D01*
X58987Y51205D01*
D02*
G37*
G36*
X59138Y50954D02*
X59037D01*
Y50852D01*
X58987D01*
Y50803D01*
X59044Y50814D01*
X59094Y50847D01*
X59127Y50897D01*
X59138Y50954D01*
D02*
G37*
G36*
X58887Y50852D02*
X58777D01*
X58780Y50847D01*
X58830Y50814D01*
X58887Y50803D01*
Y50852D01*
D02*
G37*
G36*
X61679Y50962D02*
X60877D01*
Y50360D01*
X61412D01*
X61481Y50369D01*
X61546Y50396D01*
X61601Y50439D01*
X61643Y50494D01*
X61670Y50558D01*
X61679Y50627D01*
Y50962D01*
D02*
G37*
G36*
X60777D02*
X59974D01*
Y50627D01*
X59984Y50558D01*
X60010Y50494D01*
X60053Y50439D01*
X60108Y50396D01*
X60172Y50369D01*
X60242Y50360D01*
X60777D01*
Y50962D01*
D02*
G37*
G36*
X61412Y48852D02*
X60877D01*
Y48251D01*
X61679D01*
Y48585D01*
X61670Y48654D01*
X61643Y48719D01*
X61601Y48774D01*
X61546Y48817D01*
X61481Y48843D01*
X61412Y48852D01*
D02*
G37*
G36*
X60777D02*
X60242D01*
X60172Y48843D01*
X60108Y48817D01*
X60053Y48774D01*
X60010Y48719D01*
X59984Y48654D01*
X59974Y48585D01*
Y48251D01*
X60777D01*
Y48852D01*
D02*
G37*
G36*
X61679Y48151D02*
X60877D01*
Y47549D01*
X61412D01*
X61481Y47558D01*
X61546Y47585D01*
X61601Y47628D01*
X61643Y47683D01*
X61670Y47747D01*
X61679Y47816D01*
Y48151D01*
D02*
G37*
G36*
X60777D02*
X59974D01*
Y47816D01*
X59984Y47747D01*
X60010Y47683D01*
X60053Y47628D01*
X60108Y47585D01*
X60172Y47558D01*
X60242Y47549D01*
X60777D01*
Y48151D01*
D02*
G37*
%LPD*%
D22*
X23053Y62008D02*
D03*
X48455Y78506D02*
D03*
X57918Y48858D02*
D03*
X20965Y53274D02*
D03*
D23*
X43839Y75724D02*
D03*
X31299Y65008D02*
D03*
X40354Y62330D02*
D03*
X36122Y75831D02*
D03*
X29474Y69965D02*
D03*
X36818Y68362D02*
D03*
X43740Y55340D02*
D03*
X30621Y78287D02*
D03*
X28589Y72087D02*
D03*
X37697Y62330D02*
D03*
X38287Y59751D02*
D03*
X35637Y59770D02*
D03*
X34976Y54864D02*
D03*
X34350D02*
D03*
X40354Y62920D02*
D03*
X37697Y62920D02*
D03*
X46872Y57739D02*
D03*
Y58329D02*
D03*
X43821Y57739D02*
D03*
X43821Y58329D02*
D03*
X43821Y59156D02*
D03*
Y59746D02*
D03*
X49037Y56339D02*
D03*
X49037Y56929D02*
D03*
X45986Y56339D02*
D03*
Y56929D02*
D03*
X34843Y61906D02*
D03*
Y61316D02*
D03*
X34055Y61316D02*
D03*
Y61906D02*
D03*
X33465Y61906D02*
D03*
Y61316D02*
D03*
X32776Y61319D02*
D03*
Y61909D02*
D03*
X38780Y49728D02*
D03*
X39370D02*
D03*
X34976Y54274D02*
D03*
X30709Y48819D02*
D03*
Y48228D02*
D03*
X29921Y50492D02*
D03*
Y51083D02*
D03*
X30621Y77697D02*
D03*
X28589Y72677D02*
D03*
X31299Y65598D02*
D03*
X34350Y54274D02*
D03*
X34646Y48819D02*
D03*
Y48228D02*
D03*
X33858Y48228D02*
D03*
Y48819D02*
D03*
X39370Y49138D02*
D03*
X33858Y49508D02*
D03*
Y50098D02*
D03*
X29075Y66831D02*
D03*
Y67421D02*
D03*
X38780Y49138D02*
D03*
X28406Y68012D02*
D03*
Y67421D02*
D03*
X36818Y68953D02*
D03*
X36122Y76421D02*
D03*
X29474Y69375D02*
D03*
X38287Y61621D02*
D03*
Y61030D02*
D03*
Y60341D02*
D03*
X38681Y62900D02*
D03*
Y62310D02*
D03*
X39075Y59751D02*
D03*
Y60341D02*
D03*
X39469Y62310D02*
D03*
Y62900D02*
D03*
X35637Y61641D02*
D03*
Y61050D02*
D03*
Y60361D02*
D03*
X36030Y62920D02*
D03*
Y62330D02*
D03*
X46872Y59156D02*
D03*
Y59746D02*
D03*
X36424Y59770D02*
D03*
Y60361D02*
D03*
X36818Y62330D02*
D03*
Y62920D02*
D03*
X51672Y68907D02*
D03*
Y69498D02*
D03*
X43839Y76315D02*
D03*
X43740Y55930D02*
D03*
X48317Y69203D02*
D03*
Y68612D02*
D03*
X45659Y69203D02*
D03*
Y68612D02*
D03*
X46260Y69203D02*
D03*
Y68612D02*
D03*
X51583Y48622D02*
D03*
Y49213D02*
D03*
X48228Y48917D02*
D03*
Y48327D02*
D03*
X45571Y48917D02*
D03*
Y48327D02*
D03*
X46260Y48917D02*
D03*
Y48327D02*
D03*
D24*
X40610Y55906D02*
D03*
X39114Y54528D02*
D03*
X40610Y53346D02*
D03*
X42461Y55906D02*
D03*
X37264Y54528D02*
D03*
X42461Y53346D02*
D03*
D25*
X36660Y76772D02*
D03*
X40551Y49138D02*
D03*
X40551Y49728D02*
D03*
X34154Y64465D02*
D03*
X32776Y64468D02*
D03*
X47325Y62857D02*
D03*
X47915D02*
D03*
X44274Y63546D02*
D03*
X44864D02*
D03*
X48348Y57739D02*
D03*
X47758Y57739D02*
D03*
X45297Y57739D02*
D03*
X44707Y57739D02*
D03*
X45593Y62857D02*
D03*
X46183D02*
D03*
X44313Y64176D02*
D03*
X44904D02*
D03*
X46183Y62168D02*
D03*
X45593D02*
D03*
Y63546D02*
D03*
X46183D02*
D03*
X44904Y62168D02*
D03*
X44313D02*
D03*
X44313Y62857D02*
D03*
X44904D02*
D03*
X34744Y59052D02*
D03*
X34154D02*
D03*
X34744Y57674D02*
D03*
X34154D02*
D03*
X34154Y58363D02*
D03*
X34744D02*
D03*
X33366Y57677D02*
D03*
X32776D02*
D03*
X33366Y59055D02*
D03*
X32776D02*
D03*
X32776Y59941D02*
D03*
X33366D02*
D03*
X34154Y59938D02*
D03*
X34744D02*
D03*
X32776Y58366D02*
D03*
X33366D02*
D03*
X34744Y64465D02*
D03*
X33366Y64468D02*
D03*
X32776Y63878D02*
D03*
X33366D02*
D03*
X34154Y63875D02*
D03*
X34744D02*
D03*
X39961Y49728D02*
D03*
Y49138D02*
D03*
X39961Y48524D02*
D03*
X39370D02*
D03*
X30807Y58239D02*
D03*
X30217D02*
D03*
X37251Y76772D02*
D03*
X38932Y70177D02*
D03*
X39523D02*
D03*
X41219Y70177D02*
D03*
X40628Y70177D02*
D03*
X30807Y59026D02*
D03*
X30217D02*
D03*
X20996Y69783D02*
D03*
X21586D02*
D03*
X38976Y57684D02*
D03*
X38386D02*
D03*
X45297Y58329D02*
D03*
X44707D02*
D03*
X39665Y60046D02*
D03*
X40256D02*
D03*
Y59357D02*
D03*
X39665D02*
D03*
X40256Y58668D02*
D03*
X39665D02*
D03*
X47364Y64176D02*
D03*
X47955Y64176D02*
D03*
X36319Y57684D02*
D03*
X35728D02*
D03*
X47364Y62168D02*
D03*
X47955D02*
D03*
X48348Y58329D02*
D03*
X47758D02*
D03*
X47965Y63546D02*
D03*
X47374D02*
D03*
X37015Y60066D02*
D03*
X37605D02*
D03*
Y59377D02*
D03*
X37015D02*
D03*
X49234Y62857D02*
D03*
X48644D02*
D03*
Y63546D02*
D03*
X49234D02*
D03*
X37605Y58688D02*
D03*
X37015D02*
D03*
X48644Y62168D02*
D03*
X49234D02*
D03*
X41339Y60925D02*
D03*
X41929Y60925D02*
D03*
X52262Y67963D02*
D03*
X51672D02*
D03*
X41634Y58957D02*
D03*
X41043D02*
D03*
X41634Y62894D02*
D03*
X41043D02*
D03*
X41634Y65453D02*
D03*
X41043Y65453D02*
D03*
X41634Y64862D02*
D03*
X41043D02*
D03*
X42815Y60925D02*
D03*
X43406D02*
D03*
X52807Y48248D02*
D03*
X52217D02*
D03*
X43110Y58957D02*
D03*
X42520Y58957D02*
D03*
X43110Y62894D02*
D03*
X42520D02*
D03*
X43110Y65453D02*
D03*
X42520Y65453D02*
D03*
X43110Y64862D02*
D03*
X42520D02*
D03*
D26*
X39954Y61700D02*
D03*
X37303Y61719D02*
D03*
X38983Y61700D02*
D03*
Y61326D02*
D03*
Y60952D02*
D03*
X39954D02*
D03*
X36332Y61719D02*
D03*
Y61345D02*
D03*
Y60971D02*
D03*
X37303D02*
D03*
D27*
X40650Y51496D02*
D03*
Y50472D02*
D03*
X30709Y50630D02*
D03*
Y49606D02*
D03*
D28*
X36780Y75831D02*
D03*
X37280D02*
D03*
X37780D02*
D03*
X38280D02*
D03*
X38780D02*
D03*
X39280D02*
D03*
X39780D02*
D03*
X40280D02*
D03*
X40780D02*
D03*
Y72201D02*
D03*
X40280D02*
D03*
X39780D02*
D03*
X39280D02*
D03*
X38780D02*
D03*
X38280D02*
D03*
X37780D02*
D03*
X37280D02*
D03*
X36780D02*
D03*
D29*
X37762Y68362D02*
D03*
X39797Y69362D02*
D03*
X39797Y68862D02*
D03*
Y68362D02*
D03*
X39797Y67862D02*
D03*
X37762D02*
D03*
X37762Y68862D02*
D03*
X37762Y69362D02*
D03*
D30*
X31496Y70866D02*
D03*
Y72717D02*
D03*
D31*
X38307Y59062D02*
D03*
X35656Y59082D02*
D03*
X34075Y59938D02*
D03*
X34823D02*
D03*
X34449Y60725D02*
D03*
X32697Y59941D02*
D03*
X33445D02*
D03*
X33071Y60728D02*
D03*
X34075Y62497D02*
D03*
X34823D02*
D03*
X34449Y63284D02*
D03*
X32697Y62500D02*
D03*
X33445D02*
D03*
X33071Y63287D02*
D03*
X38681Y58274D02*
D03*
X39055Y59062D02*
D03*
X36030Y58294D02*
D03*
X36404Y59082D02*
D03*
X41339Y59547D02*
D03*
X40965Y60335D02*
D03*
X41713D02*
D03*
X41339Y61516D02*
D03*
X40965Y62303D02*
D03*
X41713D02*
D03*
X41339Y63484D02*
D03*
X40965Y64272D02*
D03*
X41713Y64272D02*
D03*
X42815Y59547D02*
D03*
X42441Y60335D02*
D03*
X43189D02*
D03*
X42815Y61516D02*
D03*
X42441Y62303D02*
D03*
X43189Y62303D02*
D03*
X42815Y63484D02*
D03*
X42441Y64272D02*
D03*
X43189D02*
D03*
D32*
X35630Y49728D02*
D03*
X37854D02*
D03*
Y48228D02*
D03*
X35630Y49228D02*
D03*
Y48728D02*
D03*
Y48228D02*
D03*
X37854Y49228D02*
D03*
Y48728D02*
D03*
D33*
X29626Y58258D02*
D03*
Y59006D02*
D03*
X28839Y58632D02*
D03*
X28543Y50787D02*
D03*
X29331Y51161D02*
D03*
Y50413D02*
D03*
X51073Y68907D02*
D03*
X50285Y68533D02*
D03*
Y69282D02*
D03*
X49695Y68907D02*
D03*
X48907Y68533D02*
D03*
Y69281D02*
D03*
X47726Y68907D02*
D03*
X46939Y68533D02*
D03*
Y69282D02*
D03*
X50984Y48622D02*
D03*
X50197Y48248D02*
D03*
Y48996D02*
D03*
X49606Y48622D02*
D03*
X48819Y48248D02*
D03*
Y48996D02*
D03*
X47638Y48622D02*
D03*
X46850Y48248D02*
D03*
Y48996D02*
D03*
D34*
X39336Y51772D02*
D03*
X37436D02*
D03*
D35*
X36024Y51181D02*
D03*
X34528D02*
D03*
D37*
X25984Y48425D02*
D03*
X27559D02*
D03*
X25984Y49606D02*
D03*
X27559D02*
D03*
X28457Y56201D02*
D03*
X26882D02*
D03*
X28505Y54668D02*
D03*
X26930Y54668D02*
D03*
D38*
X32283Y50135D02*
D03*
Y48425D02*
D03*
D39*
X28937Y49567D02*
D03*
Y48465D02*
D03*
D40*
X29921Y48228D02*
D03*
Y49567D02*
D03*
D41*
X27566Y53504D02*
D03*
X27044D02*
D03*
X26539Y53503D02*
D03*
X26021Y53494D02*
D03*
D42*
X27048Y50787D02*
D03*
X26548D02*
D03*
X27559D02*
D03*
X26048D02*
D03*
D43*
X27520Y58140D02*
D03*
X28189D02*
D03*
X27520Y59124D02*
D03*
X28189D02*
D03*
D44*
X40605Y70949D02*
D03*
X39503D02*
D03*
D45*
X45986Y61380D02*
D03*
X45486Y61380D02*
D03*
X44986Y61380D02*
D03*
X44486Y61380D02*
D03*
X45986Y59156D02*
D03*
X45486Y59156D02*
D03*
X44986Y59156D02*
D03*
X44486D02*
D03*
X49037Y61380D02*
D03*
X48537D02*
D03*
X48037D02*
D03*
X47537D02*
D03*
X49037Y59156D02*
D03*
X48537Y59156D02*
D03*
X48037Y59156D02*
D03*
X47537D02*
D03*
D46*
X60827Y70331D02*
D03*
Y67520D02*
D03*
Y51012D02*
D03*
Y48201D02*
D03*
D47*
X58927Y72825D02*
D03*
X58936Y72306D02*
D03*
X58937Y71801D02*
D03*
X58937Y71280D02*
D03*
X58927Y52549D02*
D03*
X58936Y52030D02*
D03*
X58937Y51526D02*
D03*
X58937Y51004D02*
D03*
D48*
X56220Y72797D02*
D03*
Y71286D02*
D03*
Y72297D02*
D03*
Y71797D02*
D03*
Y52522D02*
D03*
Y51011D02*
D03*
Y52022D02*
D03*
Y51522D02*
D03*
D49*
X41339Y57677D02*
D03*
X40965Y58465D02*
D03*
X41713Y58465D02*
D03*
X42815Y57677D02*
D03*
X42441Y58465D02*
D03*
X43189Y58465D02*
D03*
D90*
X36742Y48978D02*
D03*
D91*
X44894Y55976D02*
X47545D01*
X39898Y56443D02*
X44427D01*
X44894Y55976D01*
X39795Y56693D02*
X44598D01*
X44667Y56625D02*
X44694D01*
X44598Y56693D02*
X44667Y56625D01*
X43267Y56952D02*
X45964D01*
X43230Y56961D02*
X43244Y56975D01*
X43198Y56994D02*
X43240Y56952D01*
X45964D02*
X45986Y56929D01*
X43244Y56975D02*
X43267Y56952D01*
X49087Y48622D02*
X49087Y48622D01*
X49606D01*
X34823Y62497D02*
Y62850D01*
X33445Y62500D02*
Y62850D01*
X33445Y62850D02*
X33445Y62850D01*
X44097Y55930D02*
X44397Y55630D01*
Y55020D02*
Y55630D01*
X42461Y55906D02*
X42485Y55930D01*
X29484Y74087D02*
X30137D01*
X30178Y74127D01*
X30205D01*
X27857Y73612D02*
X30114D01*
X30839Y74337D01*
X32443D01*
X29484Y73087D02*
X29942D01*
X30942Y74087D01*
X32340D01*
X30157Y72633D02*
Y72948D01*
X31046Y73837D02*
X32236D01*
X30157Y72948D02*
X31046Y73837D01*
X34054Y77219D02*
X34074Y77200D01*
X33789Y77399D02*
X33969Y77219D01*
X34054D01*
X31244Y77399D02*
X33789D01*
X31182Y77462D02*
X31244Y77399D01*
X31155Y77462D02*
X31182D01*
X30189Y77149D02*
X33685D01*
X33935Y76899D02*
X34699D01*
X33685Y77149D02*
X33935Y76899D01*
X29749Y77589D02*
X30189Y77149D01*
X28589Y74087D02*
X29484D01*
X27132Y74337D02*
X27857Y73612D01*
X24293Y74337D02*
X27132D01*
X36332Y61345D02*
X36332Y61345D01*
X35999Y61345D02*
X36332D01*
X35999Y61345D02*
X35999Y61345D01*
X38650Y61326D02*
X38983D01*
X42815Y61913D02*
X42815Y61913D01*
Y61516D02*
Y61913D01*
X41339Y61516D02*
Y61913D01*
X49298Y68907D02*
X49695D01*
X38521Y66367D02*
X39083Y66929D01*
X32665Y66367D02*
X38521D01*
X32279Y65981D02*
X32665Y66367D01*
X31890Y65945D02*
X32562Y66617D01*
X37771D02*
X38833Y67679D01*
X32562Y66617D02*
X37771D01*
X35483Y65624D02*
X38952D01*
X35272Y65835D02*
X35483Y65624D01*
X34392Y65835D02*
X35272D01*
X36335Y64756D02*
X36355D01*
X36473Y64874D01*
X39262D01*
X40039Y65651D01*
X40845D01*
X40941Y65575D02*
X41043Y65472D01*
X40921Y65575D02*
X40941D01*
X40845Y65651D02*
X40921Y65575D01*
X41043Y65453D02*
Y65472D01*
X42858Y66174D02*
X46227D01*
X47364Y65037D01*
X42631Y66401D02*
X42858Y66174D01*
X38952Y65624D02*
X39729Y66401D01*
X42631D01*
X44015Y65924D02*
X44313Y65626D01*
X42527Y66151D02*
X42754Y65924D01*
X39055Y65374D02*
X39832Y66151D01*
X42754Y65924D02*
X44015D01*
X39832Y66151D02*
X42527D01*
X39936Y65901D02*
X42424D01*
X39159Y65124D02*
X39936Y65901D01*
X42424D02*
X42520Y65805D01*
Y65453D02*
Y65805D01*
X36433Y77885D02*
X36749Y77569D01*
X38000D01*
X38018Y77587D01*
X35493Y75196D02*
X35520D01*
X35549Y75226D02*
X39692D01*
X35520Y75196D02*
X35549Y75226D01*
X39780Y75314D02*
Y75831D01*
X39692Y75226D02*
X39780Y75314D01*
X38421Y74896D02*
X42815D01*
X42943Y74768D01*
X41693Y74087D02*
X41943Y73836D01*
X33047Y74087D02*
X41693D01*
X41943Y73836D02*
X42323D01*
X33150Y74337D02*
X40349D01*
X29484Y75087D02*
X29547D01*
X29797Y74837D02*
X32650D01*
X40349Y74337D02*
X40403Y74390D01*
X32650Y74837D02*
X33150Y74337D01*
X29547Y75087D02*
X29797Y74837D01*
X32547Y74587D02*
X33047Y74087D01*
X21586Y74587D02*
X32547D01*
X32443Y74337D02*
X32943Y73837D01*
X41589D01*
X32340Y74087D02*
X32922Y73504D01*
X38053D01*
X32869Y73204D02*
X38177D01*
X32236Y73837D02*
X32869Y73204D01*
X33621Y75586D02*
X33643Y75608D01*
X33670D01*
X26595Y75586D02*
X33621D01*
X35645Y77264D02*
X37614D01*
X34572Y78337D02*
X35645Y77264D01*
X31693Y78337D02*
X34572D01*
X35150Y78415D02*
X35347D01*
X34688Y78877D02*
X35150Y78415D01*
X23179Y78877D02*
X34688D01*
X35347Y78415D02*
X35433Y78329D01*
X29843Y77003D02*
X29947Y76899D01*
X33563D01*
X25287Y77589D02*
X29749D01*
X24589Y78287D02*
X25287Y77589D01*
X29503Y76068D02*
X34284D01*
X29484Y76087D02*
X29503Y76068D01*
X33563Y76899D02*
X33974Y76489D01*
X34339Y65782D02*
X34392Y65835D01*
X34312Y65782D02*
X34339D01*
X35751Y65124D02*
X39159D01*
X35674Y65074D02*
X35701D01*
X35751Y65124D01*
X47364Y64176D02*
Y65037D01*
X29568Y77003D02*
X29843D01*
X29484Y77087D02*
X29568Y77003D01*
X35147Y65535D02*
X35308Y65374D01*
X39055D01*
X44313Y64176D02*
Y65626D01*
X30621Y78287D02*
X31092D01*
X51073Y68907D02*
X52182D01*
X59724Y67520D02*
X60827D01*
X59143Y68101D02*
X59724Y67520D01*
X53323Y47870D02*
X62630D01*
X55554Y67622D02*
X56033Y68101D01*
X52772Y67622D02*
X55554D01*
X52262Y67963D02*
X55272D01*
X56220Y68912D01*
X53232Y48622D02*
X53249Y48605D01*
X50984Y48622D02*
X53232D01*
X53246Y47920D02*
X53273D01*
X53323Y47870D01*
X52807Y48248D02*
X55610D01*
X56220Y48858D01*
Y51011D01*
X56033Y68101D02*
X59143D01*
X56220Y68912D02*
Y71286D01*
X48907Y68533D02*
X50285D01*
X50686D01*
X51256Y67963D02*
X51672D01*
X50686Y68533D02*
X51256Y67963D01*
X35531Y75833D02*
X35533Y75831D01*
X36780D01*
X36123Y74896D02*
X38421D01*
X36122Y74896D02*
X36123Y74896D01*
X36405Y68362D02*
X37762D01*
X36404Y68362D02*
X36405Y68362D01*
X31496Y70866D02*
X36122D01*
X38421Y74896D02*
X38421Y74896D01*
X47955Y62168D02*
Y63536D01*
Y64176D01*
X40403Y74390D02*
X40430D01*
X42943Y74768D02*
X43839D01*
Y75724D01*
X40508Y73587D02*
X40569Y73526D01*
X38560Y73587D02*
X40508D01*
X40569Y73526D02*
X40596D01*
X38177Y73204D02*
X38560Y73587D01*
X29612Y72087D02*
X30157Y72633D01*
X41589Y73837D02*
X41902Y73524D01*
X23579Y73622D02*
X24293Y74337D01*
X38080Y76959D02*
X38280Y76759D01*
Y75831D02*
Y76759D01*
X36433Y77885D02*
Y78329D01*
X37933Y77264D02*
X39414D01*
X37614D02*
X37933D01*
X37780Y77098D02*
Y77111D01*
X37933Y77264D01*
X37614D02*
X37780Y77098D01*
Y75831D02*
Y77098D01*
X37280Y75831D02*
Y76743D01*
X37251Y76772D02*
X37280Y76743D01*
X36680Y76468D02*
X36780Y76369D01*
Y75831D02*
Y76369D01*
X36680Y76468D02*
Y76752D01*
X36660Y76772D02*
X36680Y76752D01*
X39280Y75831D02*
Y76468D01*
X39410Y76599D01*
X40431D01*
X39210Y76899D02*
X41433D01*
X38780Y76468D02*
X39210Y76899D01*
X38780Y75831D02*
Y76468D01*
X31092Y78287D02*
X31093Y78287D01*
X29589Y78287D02*
X30621D01*
X42874Y48820D02*
X43368Y48327D01*
X44980D01*
X42874Y48820D02*
Y49541D01*
X41902Y73524D02*
X41929D01*
X22589Y78287D02*
X23179Y78877D01*
X42763Y68612D02*
X45069D01*
X42628Y68720D02*
X42655D01*
X42763Y68612D01*
X41793Y56943D02*
X43120D01*
X43171Y56994D01*
X43225D01*
X41740Y56996D02*
X41793Y56943D01*
X41713Y56996D02*
X41740D01*
X41686D02*
X41740D01*
X41632Y56943D02*
X41686Y56996D01*
X39691Y56943D02*
X41632D01*
X38906Y55451D02*
X39898Y56443D01*
X47545Y55976D02*
X47758Y56189D01*
X33858Y48228D02*
X35630D01*
X45986Y56929D02*
X49037D01*
X47758Y57309D02*
Y58329D01*
Y56189D02*
Y56496D01*
X44707Y57309D02*
Y57739D01*
X45986Y56929D02*
Y59156D01*
X38744Y55996D02*
X39691Y56943D01*
X40963Y57677D02*
X41339D01*
X38537Y56496D02*
X39484Y57443D01*
X40729D02*
X40963Y57677D01*
X28923Y56496D02*
X38537D01*
X39484Y57443D02*
X40729D01*
X38641Y56246D02*
X39587Y57193D01*
X30084Y56246D02*
X38641D01*
X39587Y57193D02*
X41417D01*
X33172Y55996D02*
X38744D01*
X35446Y55701D02*
X38802D01*
X39795Y56693D01*
X35549Y55451D02*
X38906D01*
X33071Y55922D02*
X33098D01*
X33172Y55996D01*
X41417Y57193D02*
X41901Y57677D01*
X42815D01*
X28898Y55061D02*
X30084Y56246D01*
X28457Y56201D02*
X28628D01*
X28923Y56496D01*
X49037Y60176D02*
Y61380D01*
X46872Y59746D02*
X48608D01*
X49037Y60176D01*
X43821Y59746D02*
X45672D01*
X45986Y60061D02*
Y61380D01*
X45672Y59746D02*
X45986Y60061D01*
X43226Y60437D02*
X43361Y60803D01*
X43406Y60925D01*
X43189Y60335D02*
X43226Y60437D01*
X41929Y60925D02*
Y61420D01*
Y60906D02*
Y60925D01*
X41884Y60803D02*
X41929Y60925D01*
X41750Y60437D02*
X41884Y60803D01*
X41713Y60335D02*
X41750Y60437D01*
X42815Y59547D02*
X43189D01*
X43189Y59547D01*
X41339D02*
X41339Y59547D01*
X41713D01*
X28893Y53936D02*
X30499Y55541D01*
X35286D01*
X35446Y55701D01*
X30595Y55284D02*
X35383D01*
X35549Y55451D01*
X29143Y53833D02*
X30595Y55284D01*
X28747Y59008D02*
X30198D01*
X30217Y59026D01*
X28631Y59124D02*
X28747Y59008D01*
X28189Y59124D02*
X28631D01*
X28189Y58140D02*
X28629D01*
X28747Y58258D01*
X29626D01*
X30197D02*
X30217Y58239D01*
X29626Y58258D02*
X30197D01*
X25933Y58390D02*
X26668Y59124D01*
X25089Y57979D02*
X25500Y58390D01*
X25933D01*
X24954Y57490D02*
X25604Y58140D01*
X27520D01*
X26668Y59124D02*
X27520D01*
X34744Y63372D02*
Y64465D01*
Y64917D01*
X33366Y63375D02*
Y64468D01*
X25591Y76772D02*
X25787Y76575D01*
X33366D01*
Y64468D02*
Y64917D01*
X26591Y69375D02*
X27362D01*
X27757Y68980D01*
X35645D01*
X35831Y68794D01*
Y68790D02*
Y68794D01*
Y68790D02*
X35925Y68697D01*
Y68669D02*
Y68697D01*
X27591Y68669D02*
X35531D01*
X38681Y62900D02*
Y63526D01*
X38681Y63526D02*
X38681Y63526D01*
X36818Y63546D02*
X36818Y63546D01*
Y62920D02*
Y63546D01*
X22744Y65598D02*
X28629D01*
X22594Y65748D02*
X22744Y65598D01*
X28976Y57932D02*
X29003D01*
X29109Y57827D02*
X32051D01*
X29003Y57932D02*
X29109Y57827D01*
X32677Y49508D02*
X33858D01*
X32677Y49508D02*
X32677Y49508D01*
X27048Y50787D02*
Y51181D01*
X27166Y51299D01*
X28839D01*
X28976Y51161D01*
X29331D01*
X28898Y49606D02*
Y50082D01*
X28543Y50436D02*
X28898Y50082D01*
X28543Y50436D02*
Y50787D01*
X27559Y49606D02*
Y50787D01*
X27559Y50787D02*
X27559Y50787D01*
X31956Y59026D02*
X31964Y59034D01*
X30807Y59026D02*
X31956D01*
X30807Y58239D02*
X31641D01*
X31648Y58232D01*
X32515Y60728D02*
X33071D01*
X33887Y60732D02*
X33893Y60725D01*
X34449D01*
X33768Y58363D02*
X34154D01*
X32757Y59074D02*
X32776Y59055D01*
X32287Y58371D02*
X32292Y58366D01*
X32776D01*
X40650Y50472D02*
Y50984D01*
X35079Y49228D02*
X35630D01*
X35079Y49728D02*
X35630D01*
X43740Y54492D02*
Y55340D01*
X28905Y69960D02*
X30012D01*
X30404Y65008D02*
X31299D01*
Y64465D02*
Y65008D01*
X28589Y70868D02*
Y72087D01*
Y70868D02*
X28591Y70866D01*
X23887Y67421D02*
X28406D01*
X23690Y67618D02*
X23887Y67421D01*
X28406D02*
X29075D01*
Y62494D02*
Y66831D01*
Y62494D02*
X29561Y62008D01*
X30404D01*
X27657Y70177D02*
X28460Y69375D01*
X29474D01*
X23294Y70177D02*
X27657D01*
X22901Y69783D02*
X23294Y70177D01*
X21586Y69783D02*
X22901D01*
X21586D02*
Y70862D01*
X21591Y70866D01*
X30012Y69960D02*
X30918Y70866D01*
X28591Y70274D02*
X28905Y69960D01*
X28591Y70274D02*
Y70866D01*
X40354Y61791D02*
Y62330D01*
X40265Y61701D02*
X40354Y61791D01*
X39956Y61701D02*
X40265D01*
X39954Y61700D02*
X39956Y61701D01*
X39961Y61319D02*
Y61693D01*
X39954Y61700D02*
X39961Y61693D01*
X38307Y58688D02*
Y59062D01*
X38287Y59082D02*
X38307Y59062D01*
X38287Y59082D02*
Y59751D01*
X34014Y65217D02*
X34154Y65077D01*
X32933Y65217D02*
X34014D01*
X32776Y65059D02*
X32933Y65217D01*
X32776Y64468D02*
Y65059D01*
X31496Y70866D02*
Y71791D01*
Y69882D02*
Y70866D01*
X31302Y64468D02*
X32776D01*
X30918Y70866D02*
X31496D01*
X37697Y61820D02*
Y62330D01*
X37316Y61732D02*
X37609D01*
X37697Y61820D01*
X37303Y61319D02*
Y61719D01*
X37316Y61732D01*
X35674Y58668D02*
Y59064D01*
X34154Y64465D02*
Y65077D01*
X35637Y59101D02*
Y59770D01*
Y59101D02*
X35656Y59082D01*
X31299Y64465D02*
X31302Y64468D01*
X35656Y59082D02*
X35674Y59064D01*
X40605Y70949D02*
X40628Y70926D01*
X40605Y70949D02*
Y71421D01*
X40300Y71726D02*
Y72180D01*
Y71726D02*
X40605Y71421D01*
X40280Y72201D02*
X40300Y72180D01*
X39531Y71421D02*
X39780Y71669D01*
X39503Y70949D02*
X39531Y70977D01*
Y71421D01*
X39780Y71669D02*
Y72201D01*
X40628Y70177D02*
Y70926D01*
X39503Y70949D02*
X39523Y70929D01*
Y70177D02*
Y70929D01*
X37762Y69362D02*
Y69990D01*
X36780Y70972D02*
X37762Y69990D01*
X36780Y70972D02*
Y71906D01*
X37280Y70882D02*
X38484Y69677D01*
X37280Y70882D02*
Y71906D01*
X38484Y68012D02*
Y69677D01*
X38335Y67862D02*
X38484Y68012D01*
X37762Y67862D02*
X38335D01*
X39083Y68862D02*
X39797D01*
X38833Y68612D02*
X39083Y68862D01*
X38833Y67679D02*
Y68612D01*
X39083Y68109D02*
X39336Y68362D01*
X39797D02*
X39797Y68362D01*
X39336Y68362D02*
X39797D01*
X39083Y66929D02*
Y68109D01*
X28743Y53733D02*
X28893Y53883D01*
Y53936D01*
X25824Y57277D02*
X34014D01*
X34102Y57365D02*
Y57622D01*
X34014Y57277D02*
X34102Y57365D01*
Y57622D02*
X34154Y57674D01*
X35414Y57674D02*
X35719D01*
X35728Y57684D01*
X34766Y57027D02*
X35414Y57674D01*
X25927Y57027D02*
X34766D01*
X35483Y57283D02*
X36509D01*
X34976Y56777D02*
X35483Y57283D01*
X26031Y56777D02*
X34976D01*
X25031Y56890D02*
X25668Y57527D01*
X23781Y56890D02*
X25031D01*
X24392Y56319D02*
X24866D01*
X25824Y57277D01*
X23781Y55709D02*
X24609D01*
X25927Y57027D01*
X32673Y57555D02*
X32776Y57657D01*
X32586Y57527D02*
X32614Y57555D01*
X32776Y57657D02*
Y57677D01*
X25668Y57527D02*
X32586D01*
X32614Y57555D02*
X32673D01*
X24382Y55128D02*
X26031Y56777D01*
X24503Y51585D02*
X24658Y51740D01*
X25586Y52658D02*
Y52677D01*
X24668Y51740D02*
X25586Y52658D01*
X24382Y51585D02*
X24503D01*
X24658Y51740D02*
X24668D01*
X29143Y53683D02*
Y53833D01*
X29134Y53673D02*
X29143Y53683D01*
X23845Y52229D02*
X24722D01*
X23201Y51585D02*
X23845Y52229D01*
X24722D02*
X25197Y52704D01*
X28641Y54668D02*
X28898Y54925D01*
X28505Y54668D02*
X28641D01*
X28898Y54925D02*
Y55061D01*
X25947Y55512D02*
X27629D01*
X28039Y55927D02*
X28313Y56201D01*
X27629Y55512D02*
X28039Y55922D01*
Y55927D01*
X27907Y54069D02*
X28505Y54668D01*
X25869Y54069D02*
X27907D01*
X24468Y52852D02*
X24652D01*
X25869Y54069D01*
X24382Y52766D02*
X24468Y52852D01*
X24382Y53947D02*
X25947Y55512D01*
X24660Y53315D02*
X26013Y54668D01*
X23750Y53315D02*
X24660D01*
X23201Y52766D02*
X23750Y53315D01*
X26013Y54668D02*
X26930D01*
X23781Y54528D02*
X24487D01*
X23201Y53947D02*
X23781Y54528D01*
X24487D02*
X26160Y56201D01*
X26882D01*
X36909Y57684D02*
X38386D01*
X36509Y57283D02*
X36909Y57684D01*
X23201Y55128D02*
X23781Y55709D01*
X24382Y56309D02*
X24392Y56319D01*
X23201Y56309D02*
X23781Y56890D01*
X23690Y57979D02*
X25089D01*
X23201Y57490D02*
X23690Y57979D01*
X24382Y57490D02*
X24954D01*
X32229Y65887D02*
X32279Y65937D01*
Y65981D01*
X32229Y65860D02*
Y65887D01*
X44904Y63546D02*
Y64176D01*
Y62857D02*
Y63546D01*
X47955Y63536D02*
X47965Y63546D01*
X49037Y56929D02*
Y59156D01*
X48537D02*
X48537Y59156D01*
X48037Y59156D02*
X48537D01*
X48348Y58329D02*
X48402Y58383D01*
Y58636D01*
X48532Y58766D01*
Y59150D01*
X48537Y59156D01*
X46872D02*
X47537D01*
X46872Y58329D02*
X46872Y58329D01*
Y59156D01*
X49058Y61750D02*
X49234Y61926D01*
X49058Y61400D02*
Y61750D01*
X49037Y61380D02*
X49058Y61400D01*
X49234Y61926D02*
Y62857D01*
X48644Y62168D02*
Y62857D01*
Y63546D01*
X48558Y61732D02*
X48644Y61818D01*
X48537Y61380D02*
X48558Y61400D01*
Y61732D01*
X48644Y61818D02*
Y62168D01*
X47955Y61818D02*
Y62168D01*
Y61818D02*
X48017Y61756D01*
Y61400D02*
X48037Y61380D01*
X48017Y61400D02*
Y61756D01*
X44707Y57739D02*
Y58329D01*
X44966Y61400D02*
Y61756D01*
Y61400D02*
X44986Y61380D01*
X44904Y61818D02*
X44966Y61756D01*
X44904Y61818D02*
Y62168D01*
Y62857D01*
X45593Y61818D02*
Y62168D01*
X45506Y61400D02*
Y61732D01*
X45486Y61380D02*
X45506Y61400D01*
Y61732D02*
X45593Y61818D01*
Y62857D02*
Y63546D01*
Y62168D02*
Y62857D01*
X46183Y61926D02*
Y62857D01*
X45986Y61380D02*
X46006Y61400D01*
Y61750D01*
X46183Y61926D01*
X43821Y58329D02*
Y59156D01*
X43821Y58329D02*
X43821Y58329D01*
Y59156D02*
X44486D01*
X45481Y59150D02*
X45486Y59156D01*
X45481Y58766D02*
Y59150D01*
X45351Y58636D02*
X45481Y58766D01*
X45351Y58383D02*
Y58636D01*
X45297Y58329D02*
X45351Y58383D01*
X44986Y59156D02*
X45486D01*
X45486Y59156D01*
X36030Y58288D02*
Y58294D01*
X36073Y58245D02*
X36260D01*
X36319Y58187D01*
Y57684D02*
Y58187D01*
X36030Y58288D02*
X36073Y58245D01*
X38681Y58274D02*
X38717Y58239D01*
X38924D02*
X38976Y58187D01*
Y57684D02*
Y58187D01*
X38717Y58239D02*
X38924D01*
X34823Y59938D02*
X34843Y59957D01*
X34744Y59052D02*
X34744Y59052D01*
X34154Y58363D02*
Y59052D01*
X33366Y57677D02*
Y58366D01*
X34744Y57674D02*
X34744Y57674D01*
X33445Y59941D02*
X33465Y59961D01*
X34241Y59476D02*
X34637D01*
X34154Y59564D02*
X34241Y59476D01*
X32863Y59479D02*
X33259D01*
X32779Y61316D02*
X33465D01*
X34744Y58363D02*
Y59052D01*
Y57674D02*
Y58363D01*
X34637Y59476D02*
X34725Y59388D01*
Y59071D02*
Y59388D01*
X34154Y59052D02*
X34154Y59052D01*
X33347Y59074D02*
X33366Y59055D01*
X34725Y59071D02*
X34744Y59052D01*
X33366Y58366D02*
Y59055D01*
X34843Y59957D02*
Y61316D01*
X34154Y59564D02*
Y59938D01*
X33465Y59961D02*
Y61316D01*
X34055D02*
X34843D01*
X34055Y61316D02*
X34055Y61316D01*
X34692Y63320D02*
X34744Y63372D01*
X34485Y63320D02*
X34692D01*
X34075Y63796D02*
X34154Y63875D01*
X32697Y62500D02*
Y63799D01*
X34823Y61926D02*
Y62497D01*
Y61926D02*
X34843Y61906D01*
X34075Y61926D02*
Y62497D01*
X34449Y63284D02*
X34485Y63320D01*
X34075Y62497D02*
Y63796D01*
X33071Y63287D02*
X33107Y63323D01*
X33314D01*
X33366Y63375D01*
X32697Y63799D02*
X32776Y63878D01*
X33445Y61926D02*
Y62500D01*
Y61926D02*
X33465Y61906D01*
X34055Y61906D02*
X34075Y61926D01*
X33347Y59074D02*
Y59391D01*
X33259Y59479D02*
X33347Y59391D01*
X32776Y59567D02*
X32863Y59479D01*
X32776Y58366D02*
X32776Y58366D01*
X32776Y59567D02*
Y59941D01*
X32776Y58366D02*
Y59055D01*
X32776Y61319D02*
X32779Y61316D01*
X32697Y61988D02*
Y62500D01*
Y61988D02*
X32776Y61909D01*
X36326Y60965D02*
X36332Y60971D01*
X35715D02*
X36332D01*
X35637Y61050D02*
X35715Y60971D01*
X35637Y60361D02*
X36030D01*
Y58294D02*
Y60361D01*
X36424D01*
X36404Y59082D02*
Y59751D01*
X36424Y59770D01*
X35637Y60361D02*
Y61050D01*
X36332Y60453D02*
Y60971D01*
Y60453D02*
X36424Y60361D01*
X37605Y58688D02*
Y59377D01*
Y60066D01*
X37303Y60971D02*
X37306Y60969D01*
Y60716D02*
X37605Y60416D01*
X37306Y60716D02*
Y60969D01*
X37605Y60066D02*
Y60416D01*
X36818Y60637D02*
X37015Y60440D01*
X36818Y60637D02*
Y61542D01*
X36643Y61717D02*
X36818Y61542D01*
X36334Y61717D02*
X36643D01*
X36332Y61719D02*
X36334Y61717D01*
X37015Y59377D02*
Y60440D01*
X35637Y61641D02*
X35715Y61719D01*
X36030Y61759D02*
Y62330D01*
X35991Y61719D02*
X36030Y61759D01*
X35991Y61719D02*
X36332D01*
X35715D02*
X35991D01*
X36818Y62920D02*
X36818Y62920D01*
X36030Y62920D02*
X36818D01*
X38681Y62900D02*
X39469D01*
X39469Y62900D01*
X38366Y61700D02*
X38642D01*
X38983D01*
X38642D02*
X38681Y61739D01*
Y62310D01*
X38287Y61621D02*
X38366Y61700D01*
X39665Y59357D02*
Y60420D01*
X38983Y61700D02*
X38985Y61698D01*
X39293D01*
X39469Y61522D01*
Y60617D02*
Y61522D01*
Y60617D02*
X39665Y60420D01*
X40256Y60046D02*
Y60397D01*
X39956Y60696D02*
Y60949D01*
Y60696D02*
X40256Y60397D01*
X39954Y60952D02*
X39956Y60949D01*
X40256Y59357D02*
Y60046D01*
Y58668D02*
Y59357D01*
X38983Y60433D02*
X39075Y60341D01*
X38983Y60433D02*
Y60952D01*
X38287Y60341D02*
Y61030D01*
X39055Y59731D02*
X39075Y59751D01*
X39055Y59062D02*
Y59731D01*
X38681Y60341D02*
X39075D01*
X38681Y58274D02*
Y60341D01*
X38287D02*
X38681D01*
X38287Y61030D02*
X38366Y60952D01*
X38983D01*
X38976Y60945D02*
X38983Y60952D01*
X41713Y58465D02*
Y58878D01*
X41634Y58957D02*
X41713Y58878D01*
Y64272D02*
Y65374D01*
X41634Y65453D02*
X41713Y65374D01*
X41043Y63396D02*
X41043Y62894D01*
X41131Y63484D02*
X41339Y63484D01*
X41043Y63396D02*
X41131Y63484D01*
X43110Y62894D02*
X43189Y62815D01*
Y62303D02*
Y62815D01*
X41634Y62894D02*
X41713Y62815D01*
X43406Y60925D02*
Y61420D01*
X43189Y61637D02*
Y62303D01*
Y61637D02*
X43406Y61420D01*
X41713Y61637D02*
X41929Y61420D01*
X41713Y61637D02*
Y62815D01*
X40965Y60335D02*
X40965Y59035D01*
X40965Y60335D02*
Y62303D01*
X40965Y59035D02*
X41043Y58957D01*
X41339Y59547D02*
Y60925D01*
X42815Y59547D02*
Y60925D01*
X43189Y58465D02*
X43189Y58878D01*
X43110Y58957D02*
X43189Y58878D01*
X42441Y59035D02*
X42441Y60335D01*
Y62303D01*
X42441Y59035D02*
X42520Y58957D01*
X42608Y63484D02*
X42815D01*
X42520Y63396D02*
X42520Y62894D01*
X42520Y63396D02*
X42608Y63484D01*
X43189Y64272D02*
Y65374D01*
X43110Y65453D02*
X43189Y65374D01*
X45659Y69203D02*
X45738Y69281D01*
X46939D01*
X48317Y69203D02*
X48396Y69281D01*
X47726Y68711D02*
X47825Y68612D01*
X48317D01*
X47726Y68711D02*
Y68907D01*
X45069Y68612D02*
X45659D01*
X50873Y69281D02*
X51089Y69498D01*
X51672D01*
X50285Y69281D02*
X50873D01*
X48396D02*
X50285D01*
X48307Y48996D02*
X50197D01*
X50784D01*
X51001Y49213D02*
X51583D01*
X50784Y48996D02*
X51001Y49213D01*
X44980Y48327D02*
X45571D01*
X47638Y48425D02*
Y48622D01*
X47736Y48327D02*
X48228D01*
X47638Y48425D02*
X47736Y48327D01*
X50197Y48248D02*
X52217D01*
X48819D02*
X50197D01*
X48228Y48917D02*
X48307Y48996D01*
X45650D02*
X46850D01*
X45571Y48917D02*
X45650Y48996D01*
X38692Y48140D02*
X42293D01*
X38692D02*
Y48728D01*
X39370Y49728D02*
X39961D01*
X38780D02*
X39370D01*
X37854D02*
X38780D01*
X39961Y48524D02*
Y49138D01*
Y48524D02*
X39961Y48524D01*
X39370D02*
Y49138D01*
X38780Y48816D02*
Y49138D01*
X37854Y48728D02*
X38692D01*
X38780Y48816D01*
X38386Y49138D02*
X38780D01*
X37854Y49228D02*
X38295D01*
X38386Y49138D01*
X37854Y48728D02*
Y49228D01*
X37434Y51770D02*
X37436Y51772D01*
X37434Y50650D02*
Y51770D01*
X36742Y49959D02*
X37434Y50650D01*
X36134Y51772D02*
X37436D01*
X36024Y51661D02*
X36134Y51772D01*
X36024Y51181D02*
Y51661D01*
Y50677D02*
X36742Y49959D01*
X36024Y50677D02*
Y51181D01*
X36742Y48978D02*
Y49959D01*
Y48228D02*
Y48978D01*
Y48228D02*
X37854D01*
X34646Y48819D02*
X35079D01*
X35169Y48728D01*
X35630D01*
X33858Y48819D02*
Y49508D01*
X29331Y51161D02*
X29843D01*
X29921Y51083D01*
Y50492D02*
X30571D01*
X30709Y50630D01*
X29331Y50413D02*
X29843D01*
X29921Y50492D01*
X27559Y50787D02*
X28543D01*
X26548D02*
X27048D01*
X26048D02*
X26548D01*
D92*
X43740Y55930D02*
X44097D01*
X42485D02*
X43740D01*
X31956Y54864D02*
X34976D01*
X40650Y52082D02*
Y53307D01*
Y51496D02*
Y52082D01*
X40828Y55906D02*
X41033Y55700D01*
X40610Y55906D02*
X40828D01*
X40610Y54572D02*
Y55906D01*
X41033Y55483D02*
X41176Y55340D01*
X43740D01*
X41033Y55483D02*
Y55700D01*
X40566Y54528D02*
X40610Y54572D01*
X39114Y54528D02*
X40566D01*
X38924Y55151D02*
X39114Y54961D01*
Y54528D02*
Y54961D01*
X41446Y53337D02*
X41535Y53248D01*
Y50085D02*
Y53248D01*
X40610Y53346D02*
X40619Y53337D01*
X41446D01*
X40610Y53346D02*
Y54572D01*
X40619Y53337D02*
X40650Y53307D01*
X41179Y49728D02*
X41535Y50085D01*
X40551Y49138D02*
Y49728D01*
X40551Y49728D02*
X41179D01*
X40551D02*
X40551Y49728D01*
X38307Y55151D02*
X38924D01*
X35674D02*
X38307D01*
X35387Y54864D02*
X35674Y55151D01*
X34976Y54864D02*
X35387D01*
D93*
X52461Y75787D02*
X63370D01*
X52264Y75984D02*
X52461Y75787D01*
X63370Y78543D02*
X65370D01*
Y75787D02*
Y78543D01*
X63370Y75787D02*
X65370D01*
X63370D02*
Y78543D01*
Y70276D02*
Y73031D01*
X65370Y70276D02*
Y73031D01*
X60871Y70287D02*
X60882Y70276D01*
X60827Y70331D02*
X60871Y70287D01*
X59449D02*
X60871D01*
X58927Y70808D02*
Y72825D01*
Y70808D02*
X59449Y70287D01*
X63370Y73031D02*
X65370D01*
X59134D02*
X63370D01*
X58927Y72825D02*
X59134Y73031D01*
X63370Y70276D02*
X65370D01*
X60882D02*
X63370D01*
X63370Y67520D02*
X63370Y67520D01*
X60827Y67520D02*
X63370D01*
X63370Y64764D02*
Y67520D01*
Y64764D02*
X63370Y64764D01*
X63370Y67520D02*
X65370D01*
X65370Y67520D01*
Y64764D02*
Y67520D01*
X63370Y64764D02*
X65370D01*
X60827Y48201D02*
X60854Y48228D01*
X63370D01*
Y50984D01*
X63370Y50984D01*
X63370Y48228D02*
X65370D01*
X65370Y48228D02*
Y50984D01*
Y48228D02*
X65370Y48228D01*
X63370Y50984D02*
X65370D01*
X58937Y51004D02*
Y53092D01*
X58945Y51012D02*
X60827D01*
X58937Y51004D02*
X58945Y51012D01*
X63472Y56517D02*
X65472D01*
X62362D02*
X63472D01*
X58937Y53092D02*
X62362Y56517D01*
X60827Y52942D02*
X61647Y53761D01*
X60827Y51012D02*
Y52942D01*
X61647Y53761D02*
X63472D01*
X65472D02*
Y56517D01*
X65472Y56517D02*
X65472Y56517D01*
X63472Y53761D02*
X65472D01*
X63472D02*
Y56517D01*
X52165Y55709D02*
X57731D01*
X61296Y59273D01*
X63472D01*
X65472D02*
Y62029D01*
X65472Y62029D01*
X63472Y59273D02*
X65472D01*
X63472D02*
Y62029D01*
X65472D01*
X24382Y49222D02*
X24776Y49616D01*
X25974D01*
X25984Y49606D01*
X23201Y48777D02*
Y49222D01*
X23552Y48425D02*
X25984D01*
X23201Y48777D02*
X23552Y48425D01*
D94*
X32275Y50135D02*
Y50484D01*
X30680Y51730D02*
X31913Y50497D01*
X32262D01*
X27566Y51730D02*
X30680D01*
X32262Y50497D02*
X32275Y50484D01*
X32283Y50098D02*
X33858D01*
X26021Y53494D02*
X27566D01*
Y53504D01*
Y51730D02*
Y53494D01*
X34528Y50098D02*
Y51181D01*
X33858Y50098D02*
X34528D01*
X32283Y48425D02*
X32874D01*
X33071Y48228D01*
X33858D01*
X28976Y48465D02*
X29213Y48228D01*
X28937Y48465D02*
X28976D01*
X29213Y48228D02*
X29921D01*
X30709D01*
X31443D02*
X31640Y48425D01*
X32283D01*
X30709Y48228D02*
X31443D01*
X29921Y49569D02*
X29939Y49587D01*
X30689D02*
X30709Y49606D01*
X29921Y49567D02*
Y49569D01*
X29939Y49587D02*
X30689D01*
X27559Y49606D02*
X28898D01*
X28937Y49567D01*
X27559Y48425D02*
X27598Y48465D01*
X28937D01*
D95*
X25984Y49606D02*
X26048Y49670D01*
Y50787D01*
D96*
X65370Y67520D02*
D03*
X63370D02*
D03*
X65370Y48228D02*
D03*
X63370D02*
D03*
X65370Y73031D02*
D03*
X63370D02*
D03*
X65472Y53761D02*
D03*
X63472D02*
D03*
X65472Y62029D02*
D03*
X63472D02*
D03*
X65370Y78543D02*
D03*
X63370D02*
D03*
X65472Y59273D02*
D03*
X63472D02*
D03*
X65370Y64764D02*
D03*
X63370D02*
D03*
X65370Y70276D02*
D03*
X63370D02*
D03*
X65370Y50984D02*
D03*
X63370D02*
D03*
X65472Y56517D02*
D03*
X63472D02*
D03*
X65370Y75787D02*
D03*
X63370D02*
D03*
D97*
X30404Y62008D02*
D03*
Y63008D02*
D03*
Y64008D02*
D03*
Y65008D02*
D03*
Y66008D02*
D03*
D98*
Y67008D02*
D03*
D99*
X43839Y74768D02*
D03*
X43740Y54492D02*
D03*
D100*
X38433Y78329D02*
D03*
X29589Y78287D02*
D03*
X28591Y70866D02*
D03*
X39083Y66929D02*
D03*
X38083Y66929D02*
D03*
X29591Y70866D02*
D03*
X27591D02*
D03*
X26591D02*
D03*
X25591D02*
D03*
X24591D02*
D03*
X23591D02*
D03*
X22591D02*
D03*
X21591D02*
D03*
X29484Y73087D02*
D03*
Y77087D02*
D03*
Y76087D02*
D03*
Y75087D02*
D03*
Y74087D02*
D03*
Y72087D02*
D03*
X41433Y78329D02*
D03*
X40433D02*
D03*
X39433D02*
D03*
X37433D02*
D03*
X36433D02*
D03*
X35433D02*
D03*
X21589Y78287D02*
D03*
X22589D02*
D03*
X23589D02*
D03*
X24589D02*
D03*
X25589D02*
D03*
X26589D02*
D03*
X28589D02*
D03*
X27589D02*
D03*
D101*
X23201Y49222D02*
D03*
D102*
Y50404D02*
D03*
X23201Y51585D02*
D03*
X23201Y52766D02*
D03*
Y53947D02*
D03*
Y55128D02*
D03*
Y56309D02*
D03*
Y57490D02*
D03*
X24382Y49222D02*
D03*
X24382Y50404D02*
D03*
Y51585D02*
D03*
X24382Y52766D02*
D03*
Y55128D02*
D03*
Y56309D02*
D03*
Y57490D02*
D03*
Y53947D02*
D03*
D103*
X21500Y50069D02*
D03*
Y56644D02*
D03*
D104*
X51512Y50510D02*
D03*
X51916Y50217D02*
D03*
X52415D02*
D03*
X52818Y50510D02*
D03*
X52972Y50988D02*
D03*
Y51512D02*
D03*
Y52035D02*
D03*
Y52559D02*
D03*
X52818Y53033D02*
D03*
X51916Y53327D02*
D03*
X52415Y53327D02*
D03*
X51512Y53033D02*
D03*
X51358Y50988D02*
D03*
X51358Y51512D02*
D03*
X51358Y52035D02*
D03*
X51358Y52559D02*
D03*
X51512Y54447D02*
D03*
X51916Y54154D02*
D03*
X52415Y54154D02*
D03*
X52818Y54447D02*
D03*
X52972Y54925D02*
D03*
Y55449D02*
D03*
Y55972D02*
D03*
Y56496D02*
D03*
X52818Y56970D02*
D03*
X51916Y57264D02*
D03*
X52415D02*
D03*
X51512Y56970D02*
D03*
X51358Y54925D02*
D03*
X51358Y55449D02*
D03*
Y55972D02*
D03*
Y56496D02*
D03*
X51611Y70785D02*
D03*
X52014Y70492D02*
D03*
X52513D02*
D03*
X52917Y70785D02*
D03*
X53071Y71264D02*
D03*
Y71787D02*
D03*
Y72311D02*
D03*
Y72835D02*
D03*
X52917Y73309D02*
D03*
X52014Y73602D02*
D03*
X52513Y73602D02*
D03*
X51611Y73309D02*
D03*
X51457Y71264D02*
D03*
X51457Y71787D02*
D03*
X51457Y72311D02*
D03*
X51457Y72835D02*
D03*
X51611Y74722D02*
D03*
X52014Y74429D02*
D03*
X52513Y74429D02*
D03*
X52917Y74722D02*
D03*
X53071Y75201D02*
D03*
Y75724D02*
D03*
Y76248D02*
D03*
Y76772D02*
D03*
X52917Y77246D02*
D03*
X52014Y77539D02*
D03*
X52513D02*
D03*
X51611Y77246D02*
D03*
X51457Y75201D02*
D03*
X51457Y75724D02*
D03*
Y76248D02*
D03*
Y76772D02*
D03*
D105*
X52165Y51772D02*
D03*
Y55709D02*
D03*
X52264Y72047D02*
D03*
Y75984D02*
D03*
D106*
X43740Y52988D02*
D03*
X43740Y53740D02*
D03*
X43839Y73264D02*
D03*
X43839Y74016D02*
D03*
D107*
X44694Y56625D02*
D03*
X48710Y57338D02*
D03*
X48181Y57283D02*
D03*
X41417Y66929D02*
D03*
X42754Y68071D02*
D03*
X42989Y69281D02*
D03*
X41380Y72201D02*
D03*
X42138Y74374D02*
D03*
X41902Y75391D02*
D03*
X40910Y77399D02*
D03*
X38957Y77739D02*
D03*
X35435Y74768D02*
D03*
X34311Y77907D02*
D03*
X32087D02*
D03*
X27378Y75069D02*
D03*
Y77035D02*
D03*
Y76058D02*
D03*
X24589Y76241D02*
D03*
X22641Y76247D02*
D03*
X38906Y73087D02*
D03*
X35493Y72034D02*
D03*
X35620Y69882D02*
D03*
X37015Y67099D02*
D03*
X37951Y66008D02*
D03*
X36405Y64319D02*
D03*
X49429Y59798D02*
D03*
X46759Y63536D02*
D03*
X46728Y62175D02*
D03*
X43771Y62187D02*
D03*
X43740Y63546D02*
D03*
X45566Y60757D02*
D03*
X43821Y60341D02*
D03*
X40360Y63503D02*
D03*
X39456Y63495D02*
D03*
X37700Y63503D02*
D03*
X35436Y62187D02*
D03*
X37792Y60789D02*
D03*
X36730Y58140D02*
D03*
X36020Y56929D02*
D03*
X32318Y55906D02*
D03*
X31553D02*
D03*
X47314Y57338D02*
D03*
X46417Y57352D02*
D03*
X45506Y57286D02*
D03*
X45113D02*
D03*
X44241Y58042D02*
D03*
X44254Y57331D02*
D03*
X49087Y48622D02*
D03*
X34823Y62850D02*
D03*
X33445Y62850D02*
D03*
X46614Y56397D02*
D03*
X45367D02*
D03*
X30205Y74127D02*
D03*
X34074Y77200D02*
D03*
X31155Y77462D02*
D03*
X28589Y74087D02*
D03*
X35999Y61345D02*
D03*
X38650Y61326D02*
D03*
X42815Y61913D02*
D03*
X41339D02*
D03*
X49298Y68907D02*
D03*
X34699Y76899D02*
D03*
X34284Y76068D02*
D03*
X33974Y76489D02*
D03*
X33670Y75608D02*
D03*
X34312Y65782D02*
D03*
X35674Y65074D02*
D03*
X36335Y64756D02*
D03*
X35147Y65535D02*
D03*
X66242Y55018D02*
D03*
X65454D02*
D03*
X64667D02*
D03*
X64273Y55806D02*
D03*
X63880Y55018D02*
D03*
X64273Y54231D02*
D03*
X63092Y55018D02*
D03*
X62305Y56593D02*
D03*
X62698Y55806D02*
D03*
X62305Y55018D02*
D03*
X62698Y54231D02*
D03*
X62305Y53443D02*
D03*
X61911Y55806D02*
D03*
X61517Y55018D02*
D03*
X61911Y54231D02*
D03*
X61517Y53443D02*
D03*
X61911Y52656D02*
D03*
X61517Y51869D02*
D03*
X60730Y55018D02*
D03*
X61124Y54231D02*
D03*
X60730Y53443D02*
D03*
X61124Y52656D02*
D03*
X60730Y51869D02*
D03*
X60336Y54231D02*
D03*
X59943Y53443D02*
D03*
X60336Y52656D02*
D03*
X59943Y51869D02*
D03*
Y50294D02*
D03*
X59155Y53443D02*
D03*
X59549Y52656D02*
D03*
Y51081D02*
D03*
X59155Y50294D02*
D03*
X58368Y51869D02*
D03*
Y50294D02*
D03*
X57974Y52656D02*
D03*
X57580Y51869D02*
D03*
X57974Y51081D02*
D03*
X57580Y50294D02*
D03*
X66242Y72341D02*
D03*
Y70766D02*
D03*
X65848Y71554D02*
D03*
X64667Y72341D02*
D03*
X65061Y71554D02*
D03*
X64273D02*
D03*
Y69979D02*
D03*
X63486Y71554D02*
D03*
X62305Y72341D02*
D03*
X62698Y71554D02*
D03*
X62305Y70766D02*
D03*
X61911Y73128D02*
D03*
X61517Y72341D02*
D03*
X61911Y71554D02*
D03*
Y69979D02*
D03*
X61124Y73128D02*
D03*
X60730Y72341D02*
D03*
X61124Y71554D02*
D03*
X60336Y73128D02*
D03*
X59943Y72341D02*
D03*
X60336Y71554D02*
D03*
X59549Y73128D02*
D03*
Y71554D02*
D03*
X59155Y70766D02*
D03*
X59549Y69979D02*
D03*
X58761Y73128D02*
D03*
X58368Y72341D02*
D03*
Y70766D02*
D03*
X58761Y69979D02*
D03*
X57974Y73128D02*
D03*
X57580Y72341D02*
D03*
X57974Y71554D02*
D03*
X57580Y70766D02*
D03*
X57974Y69979D02*
D03*
X55612Y52656D02*
D03*
X55218Y51869D02*
D03*
X55612Y51081D02*
D03*
X55218Y50294D02*
D03*
X54824Y52656D02*
D03*
X54431Y51869D02*
D03*
X54824Y51081D02*
D03*
X54431Y50294D02*
D03*
X54037Y52656D02*
D03*
X53643Y51869D02*
D03*
X54037Y51081D02*
D03*
X53643Y50294D02*
D03*
X56006Y73128D02*
D03*
X55218D02*
D03*
X55612Y72341D02*
D03*
X55218Y71554D02*
D03*
X55612Y70766D02*
D03*
X54431Y73128D02*
D03*
X54824Y72341D02*
D03*
X54431Y71554D02*
D03*
X54824Y70766D02*
D03*
X53643Y73128D02*
D03*
X54037Y72341D02*
D03*
X53643Y71554D02*
D03*
X54037Y70766D02*
D03*
X53250D02*
D03*
X66635Y78640D02*
D03*
X66242Y77853D02*
D03*
X66635Y77065D02*
D03*
X66242Y76278D02*
D03*
X66635Y75491D02*
D03*
X66242Y74703D02*
D03*
X65848Y77065D02*
D03*
X65454Y74703D02*
D03*
X64667Y77853D02*
D03*
X65061Y77065D02*
D03*
X64667Y74703D02*
D03*
X64273Y77065D02*
D03*
Y75491D02*
D03*
X63880Y74703D02*
D03*
X63486Y77065D02*
D03*
X63092Y74703D02*
D03*
X62305Y77853D02*
D03*
X62698Y77065D02*
D03*
X62305Y76278D02*
D03*
Y74703D02*
D03*
X61911Y78640D02*
D03*
X61517Y77853D02*
D03*
X61911Y77065D02*
D03*
X61517Y76278D02*
D03*
X61911Y75491D02*
D03*
X61517Y74703D02*
D03*
X61124Y78640D02*
D03*
X60730Y77853D02*
D03*
X61124Y77065D02*
D03*
X60730Y76278D02*
D03*
X61124Y75491D02*
D03*
X60730Y74703D02*
D03*
X60336Y78640D02*
D03*
X59943Y77853D02*
D03*
X60336Y77065D02*
D03*
X59943Y76278D02*
D03*
X60336Y75491D02*
D03*
X59943Y74703D02*
D03*
X59549Y78640D02*
D03*
X59155Y77853D02*
D03*
X59549Y77065D02*
D03*
X59155Y76278D02*
D03*
X59549Y75491D02*
D03*
X59155Y74703D02*
D03*
X58761Y78640D02*
D03*
X58368Y77853D02*
D03*
X58761Y77065D02*
D03*
X58368Y76278D02*
D03*
X58761Y75491D02*
D03*
X58368Y74703D02*
D03*
X57974Y78640D02*
D03*
X57580Y77853D02*
D03*
X57974Y77065D02*
D03*
X57580Y76278D02*
D03*
X57974Y75491D02*
D03*
X57580Y74703D02*
D03*
X57187Y78640D02*
D03*
X56793Y77853D02*
D03*
X57187Y77065D02*
D03*
X56793Y76278D02*
D03*
X57187Y75491D02*
D03*
X56793Y74703D02*
D03*
X56399Y78640D02*
D03*
X56006Y77853D02*
D03*
X56399Y77065D02*
D03*
X56006Y76278D02*
D03*
X56399Y75491D02*
D03*
X56006Y74703D02*
D03*
X55612Y78640D02*
D03*
X55218Y77853D02*
D03*
X55612Y77065D02*
D03*
X55218Y76278D02*
D03*
X55612Y75491D02*
D03*
X55218Y74703D02*
D03*
X54824Y78640D02*
D03*
X54431Y77853D02*
D03*
X54824Y77065D02*
D03*
X54431Y76278D02*
D03*
X54824Y75491D02*
D03*
X54431Y74703D02*
D03*
X54037Y78640D02*
D03*
X53643Y77853D02*
D03*
X54037Y77065D02*
D03*
X53643Y76278D02*
D03*
X54037Y75491D02*
D03*
X53643Y74703D02*
D03*
X53250Y78640D02*
D03*
X52856Y77853D02*
D03*
X52462Y78640D02*
D03*
X51675D02*
D03*
X51281Y77853D02*
D03*
X66242Y60530D02*
D03*
X65454D02*
D03*
X64667D02*
D03*
X64273Y61317D02*
D03*
X63880Y60530D02*
D03*
X64273Y59743D02*
D03*
X63092Y60530D02*
D03*
X62305Y62105D02*
D03*
X62698Y61317D02*
D03*
X62305Y60530D02*
D03*
X62698Y59743D02*
D03*
X62305Y58955D02*
D03*
X61517Y62105D02*
D03*
X61911Y61317D02*
D03*
X61517Y60530D02*
D03*
X61911Y59743D02*
D03*
X61517Y58955D02*
D03*
X61911Y58168D02*
D03*
X61124Y61317D02*
D03*
Y59743D02*
D03*
X60730Y58955D02*
D03*
X61124Y58168D02*
D03*
X60730Y57380D02*
D03*
X59943Y58955D02*
D03*
X60336Y58168D02*
D03*
X59943Y57380D02*
D03*
X60336Y56593D02*
D03*
X59549Y58168D02*
D03*
X59155Y57380D02*
D03*
X59549Y56593D02*
D03*
X59155Y55806D02*
D03*
X58368Y57380D02*
D03*
X58761Y56593D02*
D03*
X58368Y55806D02*
D03*
X58761Y55018D02*
D03*
X57580Y57380D02*
D03*
X57974Y56593D02*
D03*
X57580Y55806D02*
D03*
X57974Y55018D02*
D03*
X56793Y57380D02*
D03*
X57187Y56593D02*
D03*
X56793Y55806D02*
D03*
X57187Y55018D02*
D03*
X56006Y57380D02*
D03*
X56399Y56593D02*
D03*
X56006Y55806D02*
D03*
X56399Y55018D02*
D03*
X55218Y57380D02*
D03*
X55612Y56593D02*
D03*
X55218Y55806D02*
D03*
X55612Y55018D02*
D03*
X54431Y57380D02*
D03*
X54824Y56593D02*
D03*
X54431Y55806D02*
D03*
X54824Y55018D02*
D03*
X53643Y57380D02*
D03*
X54037Y56593D02*
D03*
X53643Y55806D02*
D03*
X54037Y55018D02*
D03*
X51281Y57380D02*
D03*
X47349Y76673D02*
D03*
X48334Y74705D02*
D03*
X47349Y72736D02*
D03*
X48334Y70768D02*
D03*
Y66831D02*
D03*
Y55020D02*
D03*
X47349Y53051D02*
D03*
X48334Y51083D02*
D03*
X45381Y76673D02*
D03*
X46365Y74705D02*
D03*
X45381Y72736D02*
D03*
X46365Y70768D02*
D03*
Y66831D02*
D03*
X45381Y64862D02*
D03*
X46365Y58957D02*
D03*
Y55020D02*
D03*
X45381Y53051D02*
D03*
X46365Y51083D02*
D03*
X43412Y76673D02*
D03*
X44397Y74705D02*
D03*
Y70768D02*
D03*
Y55020D02*
D03*
Y51083D02*
D03*
X43412Y49114D02*
D03*
X41444Y68799D02*
D03*
X42428Y51083D02*
D03*
X41444Y49114D02*
D03*
X38491Y70768D02*
D03*
X37507Y56988D02*
D03*
X35538Y76673D02*
D03*
Y53051D02*
D03*
X33570D02*
D03*
X31601D02*
D03*
Y49114D02*
D03*
X29633Y64862D02*
D03*
Y60925D02*
D03*
Y53051D02*
D03*
X27664Y72736D02*
D03*
X28649Y66831D02*
D03*
X27664Y64862D02*
D03*
Y60925D02*
D03*
X25696Y72736D02*
D03*
X26680Y66831D02*
D03*
X25696Y64862D02*
D03*
X26680Y62894D02*
D03*
X25696Y60925D02*
D03*
X23727Y72736D02*
D03*
X24712Y66831D02*
D03*
X23727Y64862D02*
D03*
X24712Y62894D02*
D03*
X23727Y60925D02*
D03*
X24712Y58957D02*
D03*
Y51083D02*
D03*
X21759Y72736D02*
D03*
Y68799D02*
D03*
Y64862D02*
D03*
X22743Y62894D02*
D03*
X21759Y60925D02*
D03*
X22743Y58957D02*
D03*
X21759Y53051D02*
D03*
Y49114D02*
D03*
X52772Y67622D02*
D03*
X53249Y48605D02*
D03*
X53246Y47920D02*
D03*
X52182Y68907D02*
D03*
X35531Y75833D02*
D03*
X36122Y74896D02*
D03*
X36404Y68362D02*
D03*
X36122Y70866D02*
D03*
X40430Y74390D02*
D03*
X35493Y75196D02*
D03*
X38421Y74896D02*
D03*
X40596Y73526D02*
D03*
X38053Y73504D02*
D03*
X38080Y76959D02*
D03*
X38018Y77587D02*
D03*
X40431Y76599D02*
D03*
X41433Y76899D02*
D03*
X39414Y77264D02*
D03*
X31693Y78337D02*
D03*
X31093Y78287D02*
D03*
X42874Y49541D02*
D03*
X41929Y73524D02*
D03*
X23579Y73622D02*
D03*
X42628Y68720D02*
D03*
X42323Y73836D02*
D03*
X21586Y74587D02*
D03*
X43198Y56994D02*
D03*
X41713Y56996D02*
D03*
X47758Y56496D02*
D03*
Y57309D02*
D03*
X44707D02*
D03*
X33071Y55922D02*
D03*
X43189Y59547D02*
D03*
X41713Y59547D02*
D03*
X31956Y54864D02*
D03*
X26591Y75591D02*
D03*
X34744Y64917D02*
D03*
X25591Y76772D02*
D03*
X33366Y76575D02*
D03*
Y64917D02*
D03*
X26591Y69375D02*
D03*
X35925Y68669D02*
D03*
X35531D02*
D03*
X27591D02*
D03*
X38681Y63526D02*
D03*
X36818Y63546D02*
D03*
X22594Y65748D02*
D03*
X28629Y65598D02*
D03*
X28976Y57932D02*
D03*
X32051Y57827D02*
D03*
X32677Y49508D02*
D03*
X31964Y59034D02*
D03*
X31648Y58232D02*
D03*
X32509Y60735D02*
D03*
X33887Y60732D02*
D03*
X33768Y58363D02*
D03*
X32287Y58371D02*
D03*
X33071Y48228D02*
D03*
X40650Y50984D02*
D03*
X35079Y49228D02*
D03*
X40650Y52082D02*
D03*
X35079Y49728D02*
D03*
X23690Y67618D02*
D03*
X39961Y61319D02*
D03*
X38307Y58688D02*
D03*
X31496Y71791D02*
D03*
Y69882D02*
D03*
X37303Y61319D02*
D03*
X38307Y55151D02*
D03*
X35674D02*
D03*
Y58668D02*
D03*
X31299Y64465D02*
D03*
X25586Y52677D02*
D03*
X29134Y53673D02*
D03*
X25197Y52704D02*
D03*
X28743Y53733D02*
D03*
X32229Y65860D02*
D03*
X31890Y65945D02*
D03*
M02*
