G04*
G04 #@! TF.GenerationSoftware,Altium Limited,Altium Designer,25.8.1 (18)*
G04*
G04 Layer_Color=65535*
%FSLAX24Y24*%
%MOIN*%
G70*
G04*
G04 #@! TF.SameCoordinates,CAC9E776-8FA5-4F56-8978-DDDC26C1521C*
G04*
G04*
G04 #@! TF.FilePolarity,Positive*
G04*
G01*
G75*
%ADD10C,0.0080*%
%ADD11C,0.0098*%
%ADD12C,0.0039*%
%ADD13C,0.0236*%
%ADD14C,0.0079*%
%ADD15C,0.0200*%
%ADD16C,0.0025*%
%ADD17C,0.0094*%
%ADD18C,0.0080*%
%ADD19C,0.0050*%
%ADD20C,0.0100*%
%ADD21C,0.0060*%
D10*
X37105Y54043D02*
G03*
X39271Y54070I1077J485D01*
G01*
X40451Y55460D02*
G03*
X42607Y55465I1077J485D01*
G01*
X39273Y54973D02*
G03*
X37117Y54968I-1077J-485D01*
G01*
X42620Y53831D02*
G03*
X40454Y53804I-1077J-485D01*
G01*
X31011Y72876D02*
G03*
X31039Y70710I485J-1077D01*
G01*
X42620Y56390D02*
G03*
X40454Y56363I-1077J-485D01*
G01*
X31942Y70707D02*
G03*
X31936Y72863I-485J1077D01*
G01*
X40451Y52901D02*
G03*
X42607Y52906I1077J485D01*
G01*
X66302Y56267D02*
X66412D01*
X64472Y56409D02*
X64472Y56517D01*
X64472Y56626D02*
X64472Y56517D01*
X66302Y56767D02*
X66412Y56767D01*
X64282Y56767D02*
X64472Y56767D01*
X62522Y56267D02*
Y56767D01*
X62420Y51234D02*
X62560D01*
X64370Y50984D02*
X64478Y50984D01*
X62522Y56267D02*
X62662D01*
X66412Y56267D02*
Y56767D01*
X64262Y50984D02*
X64370Y50984D01*
X62522Y56767D02*
X62662D01*
X62420Y75537D02*
Y76037D01*
X64370Y75679D02*
X64370Y75787D01*
X64180Y76037D02*
X64370Y76037D01*
X64370Y75787D02*
X64478Y75787D01*
X64262D02*
X64370Y75787D01*
X62420Y76037D02*
X62560D01*
X62420Y75537D02*
X62560D01*
X64472Y56517D02*
X64581Y56517D01*
X64364D02*
X64472Y56517D01*
X66200Y76037D02*
X66310Y76037D01*
X66200Y75537D02*
X66310D01*
Y76037D01*
X64370Y75896D02*
X64370Y75787D01*
X30187Y77089D02*
X30374Y77027D01*
X30187Y77089D02*
X30374Y77152D01*
X30187Y77089D02*
X30621D01*
X21588Y71569D02*
Y72003D01*
X21526Y71756D02*
X21588Y71569D01*
X21651Y71756D01*
X66412Y53511D02*
Y54011D01*
X64472Y53870D02*
X64472Y53761D01*
X62522Y53511D02*
X62662D01*
X64472Y53653D02*
X64472Y53761D01*
X64282Y54011D02*
X64472D01*
X66302D02*
X66412Y54011D01*
X66302Y53511D02*
X66412D01*
X62420Y72781D02*
Y73281D01*
X64370Y72923D02*
X64370Y73031D01*
X64180Y73281D02*
X64370Y73281D01*
X64370Y73031D02*
X64478Y73031D01*
X64262D02*
X64370Y73031D01*
X62420Y73281D02*
X62560D01*
X62522Y53511D02*
X62522Y54011D01*
X66302Y61779D02*
X66412D01*
X64472Y61921D02*
X64472Y62029D01*
X64472Y62137D02*
X64472Y62029D01*
X66302Y62279D02*
X66412Y62279D01*
X64282Y62279D02*
X64472D01*
X62522Y61779D02*
X62522Y62279D01*
Y54011D02*
X62662Y54011D01*
X64472Y53761D02*
X64581Y53761D01*
X62522Y61779D02*
X62662D01*
X66412Y61779D02*
Y62279D01*
X64364Y53761D02*
X64472Y53761D01*
X66200Y72781D02*
X66310D01*
X62420Y67770D02*
X62560D01*
X62420Y67270D02*
X62420Y67770D01*
Y47978D02*
X62560D01*
X64370Y67520D02*
X64478Y67520D01*
X64262D02*
X64370Y67520D01*
X66310Y67270D02*
Y67770D01*
X64370Y67628D02*
X64370Y67520D01*
X62420Y67270D02*
X62560D01*
X64370Y67411D02*
X64370Y67520D01*
X64180Y67770D02*
X64370Y67770D01*
X66200D02*
X66310Y67770D01*
X66200Y67270D02*
X66310D01*
X66310Y47978D02*
Y48478D01*
X64262Y48228D02*
X64370Y48228D01*
X62420Y48478D02*
X62560Y48478D01*
X64370Y48228D02*
X64478Y48228D01*
X64370Y73140D02*
X64370Y73032D01*
X66200Y73281D02*
X66310Y73281D01*
X62420Y72781D02*
X62560D01*
X66310Y72781D02*
Y73281D01*
X66200Y47978D02*
X66310D01*
X64370Y48120D02*
X64370Y48228D01*
X64370Y48337D02*
X64370Y48228D01*
X66200Y48478D02*
X66310Y48478D01*
X64180Y48478D02*
X64370D01*
X62420Y47978D02*
X62420Y48478D01*
X62522Y62279D02*
X62662Y62279D01*
X62420Y70026D02*
X62560D01*
X64370Y64764D02*
X64478Y64764D01*
X64262D02*
X64370Y64764D01*
X66200Y70526D02*
X66310Y70526D01*
X66200Y70026D02*
X66310D01*
Y70526D01*
X64370Y70384D02*
X64370Y70276D01*
X64370Y64655D02*
X64370Y64764D01*
X64180Y65014D02*
X64370Y65014D01*
X66200D02*
X66310Y65014D01*
X66200Y64514D02*
X66310D01*
X62420Y65014D02*
X62560D01*
X62420Y64514D02*
Y65014D01*
X64370Y70167D02*
X64370Y70276D01*
X64370Y51093D02*
X64370Y50984D01*
X66200Y51234D02*
X66310Y51234D01*
X62420Y50734D02*
X62560D01*
X66310Y50734D02*
Y51234D01*
X64180Y51234D02*
X64370Y51234D01*
X62420Y50734D02*
Y51234D01*
X66200Y50734D02*
X66310D01*
X64370Y50876D02*
X64370Y50984D01*
X64180Y70526D02*
X64370Y70526D01*
X62420Y70026D02*
Y70526D01*
X64262Y70276D02*
X64370Y70276D01*
X62420Y70526D02*
X62560D01*
X64370Y70276D02*
X64478Y70276D01*
X64370Y64872D02*
X64370Y64764D01*
X62420Y78293D02*
Y78793D01*
X64370Y78435D02*
X64370Y78543D01*
X64180Y78793D02*
X64370Y78793D01*
X64370Y78543D02*
X64478Y78543D01*
X64262D02*
X64370Y78543D01*
X62420Y78793D02*
X62560D01*
X62420Y78293D02*
X62560D01*
X64472Y62029D02*
X64581Y62029D01*
X64364D02*
X64472Y62029D01*
X66200Y78793D02*
X66310Y78793D01*
X66200Y78293D02*
X66310D01*
Y78793D01*
X64370Y78652D02*
X64370Y78543D01*
X62522Y59523D02*
X62662D01*
X64472Y59273D02*
X64581Y59273D01*
X62420Y64514D02*
X62560D01*
X66310Y64514D02*
Y65014D01*
X64364Y59273D02*
X64472Y59273D01*
X64472Y59381D02*
X64472Y59273D01*
X66302Y59523D02*
X66412Y59523D01*
X62522Y59023D02*
X62662D01*
X66412Y59023D02*
Y59523D01*
X64282Y59523D02*
X64472Y59523D01*
X62522Y59023D02*
Y59523D01*
X66302Y59023D02*
X66412D01*
X64472Y59165D02*
X64472Y59273D01*
X21524Y79177D02*
X21586Y78990D01*
Y79330D01*
Y78990D02*
X21649Y79177D01*
X38368Y79219D02*
X38430Y79032D01*
X35430Y79032D02*
X35493Y79219D01*
X35368D02*
X35430Y79032D01*
X38430Y79032D02*
X38493Y79219D01*
X38430Y79032D02*
Y79330D01*
X35430Y79032D02*
Y79330D01*
D11*
X35679Y50073D02*
G03*
X35679Y50073I-49J0D01*
G01*
X46380Y61380D02*
G03*
X46380Y61380I-49J0D01*
G01*
X37408Y60637D02*
G03*
X37408Y60637I-49J0D01*
G01*
X49431Y61380D02*
G03*
X49431Y61380I-49J0D01*
G01*
X40059Y60617D02*
G03*
X40059Y60617I-49J0D01*
G01*
D12*
X32215Y67008D02*
G03*
X32254Y67008I20J0D01*
G01*
D02*
G03*
X32215Y67008I-20J0D01*
G01*
D13*
X45945Y60504D02*
G03*
X45945Y60504I-118J0D01*
G01*
X48996D02*
G03*
X48996Y60504I-118J0D01*
G01*
D14*
X37205Y69478D02*
G03*
X37205Y69478I-39J0D01*
G01*
X36583Y71449D02*
G03*
X36583Y71449I-39J0D01*
G01*
X42756Y54685D02*
Y55502D01*
Y56309D02*
Y57126D01*
X30709Y70610D02*
X31093D01*
X40787Y54685D02*
X42756D01*
X40354Y55118D02*
X40787Y54685D01*
X40354Y56693D02*
X40787Y57126D01*
X42756D01*
X40354Y55118D02*
Y55502D01*
X31900Y73012D02*
X32717D01*
X30276D02*
X31093D01*
X37559Y62625D02*
X37835D01*
X32717Y71043D02*
Y73012D01*
X32283Y70610D02*
X32717Y71043D01*
X30276D02*
X30709Y70610D01*
X30276Y71043D02*
Y73012D01*
X31900Y70610D02*
X32283D01*
X40354Y56309D02*
Y56693D01*
X28960Y59223D02*
X29196D01*
X28960Y58908D02*
Y59223D01*
Y58042D02*
X29196D01*
X28960D02*
Y58357D01*
X48053Y57601D02*
Y57876D01*
X46734Y58034D02*
X47010D01*
X47620Y62719D02*
Y62994D01*
X44569Y63408D02*
Y63683D01*
X36969Y53307D02*
Y54124D01*
Y53307D02*
X38937Y53307D01*
X36969Y55748D02*
X38937Y55748D01*
X36969Y54931D02*
Y55748D01*
X38937Y53307D02*
X39370Y53740D01*
Y54124D01*
Y54931D02*
Y55315D01*
X38937Y55748D02*
X39370Y55315D01*
X40217Y62625D02*
X40492D01*
X45002Y57601D02*
Y57876D01*
X33071Y59803D02*
Y60079D01*
X34449Y59800D02*
Y60076D01*
X33346Y60607D02*
X33661D01*
X33071Y58917D02*
Y59193D01*
Y64331D02*
Y64606D01*
Y63740D02*
Y64016D01*
X33071Y58228D02*
Y58504D01*
X34449Y64328D02*
Y64603D01*
Y57536D02*
Y57812D01*
Y58225D02*
Y58501D01*
X34724Y60604D02*
X35039D01*
X34449Y58914D02*
Y59190D01*
X32480Y60607D02*
X32795D01*
X33661D02*
X33661Y60371D01*
X33071Y57539D02*
Y57815D01*
X32480Y60371D02*
Y60607D01*
X34705Y61611D02*
X34980D01*
X33661Y63166D02*
X33661Y62930D01*
X33346Y63166D02*
X33661D01*
X32480Y62930D02*
Y63166D01*
X32795D01*
X34838Y54569D02*
X35114D01*
X30571Y48524D02*
X30846D01*
X40256Y49591D02*
Y49866D01*
X40380Y50984D02*
X40920D01*
X33858Y63163D02*
X34173D01*
X35039Y62927D02*
Y63163D01*
X33917Y61611D02*
X34193D01*
X33858Y62927D02*
Y63163D01*
X33327Y61611D02*
X33602D01*
X32638Y61614D02*
X32913D01*
X34724Y63163D02*
X35039D01*
X34449Y63737D02*
Y64013D01*
X35039Y60368D02*
Y60604D01*
X37583Y66399D02*
Y67461D01*
X39583Y66398D02*
Y67459D01*
X44608Y62719D02*
X44608Y62994D01*
X45848Y56634D02*
X46124D01*
X37583Y66399D02*
X39583Y66399D01*
X44608Y64038D02*
Y64313D01*
X45888Y62030D02*
Y62305D01*
X43683Y58034D02*
X43959D01*
X45888Y62719D02*
Y62994D01*
X43683Y59451D02*
X43959D01*
X48900Y56634D02*
X49175D01*
X45888Y63408D02*
Y63683D01*
X44608Y62030D02*
Y62305D01*
X37583Y67461D02*
X39583Y67461D01*
X30016Y71587D02*
Y77587D01*
X33858Y60368D02*
Y60604D01*
X34173D01*
X28954Y77587D02*
X30016D01*
X28954Y71587D02*
Y77587D01*
X30091Y70336D02*
Y71398D01*
X21091Y70336D02*
X30091D01*
X21091D02*
Y71398D01*
X30091D01*
X28954Y71587D02*
X30016D01*
X40748Y58035D02*
X40748Y57798D01*
X41614Y57798D02*
X41929Y57798D01*
X56187Y73178D02*
X56887D01*
X40748Y57798D02*
X41063D01*
X50715Y68317D02*
X50952D01*
Y69183D02*
Y69498D01*
X41929Y57798D02*
Y58035D01*
X50952Y68317D02*
Y68632D01*
X59587Y67311D02*
X59919D01*
X62067Y70031D02*
Y70539D01*
Y67311D02*
Y69927D01*
X61734Y67311D02*
X62067D01*
X59587Y70539D02*
X59919D01*
X58399Y70928D02*
X59037D01*
X57612Y70928D02*
X58337Y70928D01*
X57387Y70928D02*
X57549D01*
X56187Y70928D02*
X56887D01*
X59587Y70139D02*
Y70539D01*
Y67311D02*
Y69819D01*
X58918Y73178D02*
X59037D01*
X58131D02*
X58605D01*
X57387D02*
X57817D01*
X50715Y69498D02*
X50952D01*
X45522Y68907D02*
X45797D01*
X41339Y65315D02*
Y65591D01*
X48179Y68907D02*
X48455D01*
X41339Y62756D02*
Y63032D01*
X49574Y69183D02*
Y69498D01*
X49337Y69498D02*
X49574Y69498D01*
Y68317D02*
Y68632D01*
X49337Y68317D02*
X49574Y68317D01*
X41614Y59668D02*
X41929D01*
X41929Y59905D02*
X41929Y59668D01*
X40748D02*
X41063D01*
X40748Y59905D02*
X40748Y59668D01*
X51967Y67826D02*
Y68101D01*
X41339Y58819D02*
Y59094D01*
X43701Y76020D02*
X43976D01*
X43602Y55635D02*
X43878D01*
X61734Y70539D02*
X62067D01*
X47303Y59638D02*
X49272D01*
Y60898D01*
X35893Y62625D02*
X36168D01*
X47303Y60898D02*
X49272D01*
X36286Y60066D02*
X36562D01*
X47659Y62030D02*
Y62305D01*
X47303Y59638D02*
Y60898D01*
X46734Y59451D02*
X47010D01*
X36621Y58415D02*
Y58652D01*
Y60735D02*
X37015D01*
X35440Y58415D02*
Y58652D01*
X36306Y58415D02*
X36621D01*
Y60735D02*
Y61956D01*
X36024Y57546D02*
Y57822D01*
X36621Y61956D02*
X37015D01*
Y60735D02*
Y61956D01*
X48053Y58191D02*
Y58467D01*
X28732Y56693D02*
Y56752D01*
X26606Y56752D02*
X26606Y56693D01*
X26606Y55650D02*
Y55709D01*
X51534Y69203D02*
X51810D01*
X41634Y60787D02*
Y61063D01*
X26606Y55650D02*
X28732Y55650D01*
X26606Y56752D02*
X28732Y56752D01*
X37310Y59928D02*
Y60204D01*
X37310Y59239D02*
Y59515D01*
X47669Y63408D02*
Y63683D01*
X36680Y62625D02*
X36956D01*
X37310Y58550D02*
Y58826D01*
X48939Y62030D02*
Y62305D01*
Y62719D02*
Y62994D01*
X48939Y63408D02*
Y63683D01*
X40748Y61637D02*
X41063D01*
X42815Y58819D02*
Y59094D01*
X48091Y48622D02*
X48366D01*
X43406Y59668D02*
X43406Y59905D01*
X52512Y48110D02*
Y48386D01*
X42815Y65315D02*
Y65591D01*
X49485Y48032D02*
Y48346D01*
X42815Y62756D02*
Y63032D01*
X45433Y48622D02*
X45709D01*
X50627Y48032D02*
X50863Y48032D01*
Y48898D02*
Y49213D01*
X43406Y57798D02*
X43406Y58035D01*
X50863Y48032D02*
Y48346D01*
X42224Y59905D02*
X42224Y59668D01*
X43091D02*
X43406D01*
X50627Y49213D02*
X50863Y49213D01*
X42224Y59668D02*
X42539D01*
X49249Y48032D02*
X49485D01*
X42224Y63606D02*
X42539Y63606D01*
X42224Y63842D02*
X42224Y63606D01*
X47517Y48898D02*
Y49213D01*
X47280Y49213D02*
X47517Y49213D01*
X46122Y48622D02*
X46398D01*
X42815Y64724D02*
Y65000D01*
X43091Y63606D02*
X43406Y63606D01*
X43406Y63842D01*
X42224Y61637D02*
X42539D01*
X42224Y61873D02*
X42224Y61637D01*
X49485Y49213D02*
X49485Y48898D01*
X49249Y49213D02*
X49485Y49213D01*
X47517Y48032D02*
Y48346D01*
X47280Y48032D02*
X47517Y48032D01*
X43091Y61637D02*
X43406Y61637D01*
X43406Y61873D01*
X43091Y57798D02*
X43406Y57798D01*
X41929Y63606D02*
X41929Y63842D01*
X46122Y68907D02*
X46398D01*
X40748Y63842D02*
X40748Y63606D01*
X41614D02*
X41929D01*
X28781Y55160D02*
Y55219D01*
X41339Y64724D02*
Y65000D01*
X41929Y61637D02*
X41929Y61873D01*
X47605Y68317D02*
Y68632D01*
X40748Y61637D02*
Y61873D01*
X41614Y61637D02*
X41929Y61637D01*
X47369Y69498D02*
X47605Y69498D01*
X40748Y63606D02*
X41063D01*
X47369Y68317D02*
X47605D01*
Y69498D02*
X47605Y69183D01*
X26655Y55160D02*
X26655Y55219D01*
X57387Y52902D02*
X59037D01*
X57387Y50652D02*
X59037Y50652D01*
X62067Y47992D02*
Y51220D01*
X59587Y47992D02*
Y50921D01*
X42224Y57798D02*
X42539D01*
X42224Y58035D02*
X42224Y57798D01*
X56187Y50652D02*
X56887D01*
X56187Y52902D02*
X56887D01*
X51445Y48917D02*
X51721D01*
X43110Y60787D02*
Y61063D01*
X26655Y54116D02*
X28781D01*
X26655Y55219D02*
X28781Y55219D01*
X59636Y51220D02*
X59919D01*
X59587Y47992D02*
X59919D01*
X61734Y51220D02*
X62067D01*
X61734Y47992D02*
X62067D01*
X33720Y48524D02*
X33996D01*
X34213Y51673D02*
Y51732D01*
X29587Y48130D02*
Y49665D01*
X30256Y48130D02*
Y49665D01*
X34213Y51732D02*
X36339D01*
X34213Y50630D02*
Y50689D01*
X31152Y50388D02*
X31834D01*
X32734D02*
X33415D01*
X31152Y48478D02*
X31457Y48173D01*
X31152Y48478D02*
Y50368D01*
X32734Y48173D02*
X33091D01*
X28667Y49016D02*
X29207D01*
X33415Y48498D02*
Y50368D01*
X33091Y48173D02*
X33415Y48498D01*
X34213Y50630D02*
X36339D01*
X25709Y50098D02*
Y50157D01*
X27835Y50098D02*
Y50157D01*
X28937Y67126D02*
X29213D01*
X38642Y49433D02*
X38917D01*
X25709Y50157D02*
X27835D01*
X25709Y49055D02*
X27835D01*
X25709D02*
Y49114D01*
X27835Y49055D02*
Y49114D01*
X39232Y49433D02*
X39508D01*
X33720Y49803D02*
X33996D01*
X39665Y48386D02*
Y48661D01*
X30439Y50118D02*
X30979D01*
X28665Y50197D02*
Y50512D01*
Y50197D02*
X28901D01*
X28665Y51063D02*
Y51378D01*
X28901D01*
X31457Y48173D02*
X31834Y48173D01*
X28451Y72382D02*
X28726D01*
X36112Y47994D02*
Y49963D01*
X30483Y77992D02*
X30759D01*
X36112Y47994D02*
X37372D01*
X25709Y48917D02*
Y48976D01*
X37372Y47994D02*
Y49963D01*
X36112D02*
X37372D01*
X29783Y50787D02*
X30059D01*
X27835Y48976D02*
X27835Y48917D01*
X40354Y52559D02*
Y52943D01*
Y52559D02*
X40787Y52126D01*
X42756Y53750D02*
Y54567D01*
X40787Y54567D02*
X42756Y54567D01*
X34213Y54569D02*
X34488D01*
X34508Y48524D02*
X34783D01*
X40354Y54134D02*
X40787Y54567D01*
X40354Y53750D02*
Y54134D01*
X25709Y48976D02*
X27835D01*
X25709Y47874D02*
X27835D01*
X25709D02*
Y47933D01*
X27835Y47874D02*
X27835Y47933D01*
X40787Y52126D02*
X42756Y52126D01*
Y52943D01*
X31161Y65303D02*
X31437D01*
X40256Y49000D02*
Y49276D01*
X28268Y67717D02*
X28543D01*
X38091Y58396D02*
Y58632D01*
X38957Y58396D02*
X39272D01*
X38150Y60046D02*
X38425D01*
X38091Y58396D02*
X38406D01*
X39272Y61936D02*
X39665D01*
Y60715D02*
Y61936D01*
X39272Y58396D02*
Y58632D01*
Y60715D02*
X39665D01*
X21089Y77757D02*
X30089D01*
X21089D02*
Y78819D01*
X38150Y61326D02*
X38425D01*
X30089Y77757D02*
Y78819D01*
X21089D02*
X30089D01*
X39272Y60715D02*
Y61936D01*
X39961Y59219D02*
Y59495D01*
Y58530D02*
Y58806D01*
X39331Y62605D02*
X39606D01*
X39961Y59908D02*
Y60184D01*
X47659Y64038D02*
Y64313D01*
X35440Y58415D02*
X35755D01*
X35499Y61345D02*
X35774D01*
X35499Y60066D02*
X35774D01*
X44252Y60898D02*
X46220D01*
X44252Y59638D02*
X46220D01*
X38681Y57546D02*
Y57822D01*
X38543Y62605D02*
X38819D01*
X38937Y60046D02*
X39213D01*
X45002Y58467D02*
X45002Y58191D01*
X46220Y59638D02*
Y60898D01*
X44252Y59638D02*
Y60898D01*
X21291Y69646D02*
Y69921D01*
X42000Y77799D02*
Y78861D01*
X37933Y77799D02*
X42000D01*
X37933D02*
Y78861D01*
X42000D01*
X27918Y50754D02*
Y51454D01*
Y51954D02*
Y53604D01*
X25668Y50754D02*
Y51454D01*
X30512Y58101D02*
Y58376D01*
X36956Y76634D02*
Y76909D01*
X25668Y51954D02*
Y53604D01*
X27854Y57947D02*
Y58340D01*
X39227Y70039D02*
Y70315D01*
X40924Y70039D02*
Y70315D01*
X27854Y58931D02*
Y59324D01*
X29336Y69670D02*
X29612D01*
X35984Y76126D02*
X36260D01*
X30512Y58888D02*
Y59164D01*
X36680Y68657D02*
X36956D01*
X34933Y77799D02*
Y78861D01*
Y77799D02*
X37983D01*
X34933Y78861D02*
X37983D01*
Y77799D02*
Y78861D01*
X39626Y52913D02*
Y53012D01*
X37146Y52913D02*
Y53012D01*
X39626Y50630D02*
X39626Y50532D01*
X37146Y50532D02*
X37146Y50630D01*
Y53012D02*
X39626Y53012D01*
X37146Y50532D02*
X39626Y50532D01*
X42884Y51194D02*
X42648D01*
Y50840D01*
X42884D01*
X42648Y51017D02*
X42766D01*
X43002Y51076D02*
X43120Y50840D01*
X43238Y51076D01*
X43415Y50840D02*
X43533D01*
X43592Y50899D01*
Y51017D01*
X43533Y51076D01*
X43415D01*
X43356Y51017D01*
Y50899D01*
X43415Y50840D01*
X43710D02*
Y51194D01*
X43887D01*
X43946Y51135D01*
Y51017D01*
X43887Y50958D01*
X43710D01*
X44064Y51076D02*
Y50840D01*
Y50958D01*
X44123Y51017D01*
X44182Y51076D01*
X44241D01*
X44478Y50840D02*
X44596D01*
X44655Y50899D01*
Y51017D01*
X44596Y51076D01*
X44478D01*
X44419Y51017D01*
Y50899D01*
X44478Y50840D01*
X44773Y50722D02*
X44832D01*
X44891Y50781D01*
Y51076D01*
X45304Y50840D02*
X45186D01*
X45127Y50899D01*
Y51017D01*
X45186Y51076D01*
X45304D01*
X45363Y51017D01*
Y50958D01*
X45127D01*
X45717Y51076D02*
X45540D01*
X45481Y51017D01*
Y50899D01*
X45540Y50840D01*
X45717D01*
X45894Y51135D02*
Y51076D01*
X45835D01*
X45954D01*
X45894D01*
Y50899D01*
X45954Y50840D01*
X46485D02*
X46603D01*
X46544D01*
Y51194D01*
X46485Y51135D01*
X46780Y50840D02*
Y50899D01*
X46839D01*
Y50840D01*
X46780D01*
X47075Y51135D02*
X47134Y51194D01*
X47252D01*
X47311Y51135D01*
Y50899D01*
X47252Y50840D01*
X47134D01*
X47075Y50899D01*
Y51135D01*
X47429Y50840D02*
Y50899D01*
X47488D01*
Y50840D01*
X47429D01*
X47725D02*
Y51194D01*
X47902D01*
X47961Y51135D01*
Y51017D01*
X47902Y50958D01*
X47725D01*
X48315Y51076D02*
X48138D01*
X48079Y51017D01*
Y50899D01*
X48138Y50840D01*
X48315D01*
X48433Y51194D02*
Y50840D01*
X48610D01*
X48669Y50899D01*
Y50958D01*
Y51017D01*
X48610Y51076D01*
X48433D01*
X48787Y51194D02*
Y50840D01*
X48964D01*
X49023Y50899D01*
Y51135D01*
X48964Y51194D01*
X48787D01*
X49201Y50840D02*
X49319D01*
X49378Y50899D01*
Y51017D01*
X49319Y51076D01*
X49201D01*
X49141Y51017D01*
Y50899D01*
X49201Y50840D01*
X49732Y51076D02*
X49555D01*
X49496Y51017D01*
Y50899D01*
X49555Y50840D01*
X49732D01*
D15*
X61517Y62669D02*
G03*
X61517Y62669I-100J0D01*
G01*
D16*
X61811Y62669D02*
G03*
X61811Y62669I-394J0D01*
G01*
D17*
X43197Y54567D02*
G03*
X43197Y54567I-47J0D01*
G01*
X43295Y74843D02*
G03*
X43295Y74843I-47J0D01*
G01*
D18*
X64472Y56267D02*
X64630D01*
X64709Y57232D02*
X64866D01*
X64370Y50734D02*
X64528D01*
X64606Y51699D02*
X64764D01*
X64431Y75537D02*
X64528D01*
X64606Y76502D02*
X64764D01*
X63976Y75073D02*
X64134D01*
X64079Y53047D02*
X64236D01*
X64370Y72781D02*
X64528D01*
X64606Y73746D02*
X64764D01*
X64472Y61779D02*
X64630D01*
X64709Y62744D02*
X64866D01*
X64472Y53511D02*
X64630D01*
X64709Y54476D02*
X64866D01*
X64606Y68234D02*
X64764D01*
X64370Y67270D02*
X64528D01*
X63976Y47514D02*
X64134D01*
X63976Y66805D02*
X64134D01*
X63976Y72317D02*
X64134D01*
X64370Y47978D02*
X64528D01*
X64606Y48943D02*
X64764D01*
X63976Y69561D02*
X64134D01*
X64606Y65478D02*
X64764D01*
X64370Y64514D02*
X64528D01*
X64431Y70026D02*
X64528D01*
X64606Y70990D02*
X64764D01*
X63976Y50270D02*
X64134D01*
X64370Y78293D02*
X64528D01*
X64606Y79258D02*
X64764D01*
X63976Y77829D02*
X64134D01*
X64079Y58559D02*
X64236D01*
X64472Y59023D02*
X64630D01*
X64709Y59988D02*
X64866D01*
X63976Y64049D02*
X64134D01*
D19*
X23060Y47427D02*
X23205Y47679D01*
X22881Y58898D02*
X24508D01*
X19868Y58898D02*
X22605Y58898D01*
X24508Y58081D02*
Y58898D01*
X23205Y47679D02*
X23349Y47427D01*
X19868Y47815D02*
X24508Y47815D01*
Y48632D01*
X38012Y67620D02*
X39547D01*
X38012Y69604D02*
X39547D01*
X44980Y51772D02*
X50098D01*
Y55709D01*
X44980D02*
X50098D01*
X44980Y51772D02*
Y55709D01*
X41073Y72520D02*
Y75512D01*
X36486Y72520D02*
Y75512D01*
X45079Y72047D02*
X50197D01*
Y75984D01*
X45079D02*
X50197D01*
X45079Y72047D02*
Y75984D01*
X28389Y48325D02*
Y48575D01*
Y48492D01*
X28222Y48325D01*
X28347Y48450D01*
X28222Y48575D01*
X29334Y48022D02*
X29511Y47845D01*
X29452Y47904D01*
Y48140D01*
X29452Y47963D01*
X29628D01*
X36562Y52022D02*
Y51772D01*
Y51855D01*
X36728Y52022D01*
X36603Y51897D01*
X36728Y51772D01*
X28389Y49506D02*
Y49756D01*
Y49673D01*
X28222Y49506D01*
X28347Y49631D01*
X28222Y49756D01*
X26052Y56301D02*
Y56051D01*
Y56134D01*
X26218Y56301D01*
X26093Y56176D01*
X26218Y56051D01*
X59701Y66937D02*
X59951D01*
X59867D01*
X59701Y67104D01*
X59826Y66979D01*
X59951Y67104D01*
X26100Y54768D02*
Y54518D01*
Y54601D01*
X26267Y54768D01*
X26142Y54643D01*
X26267Y54518D01*
X59701Y47618D02*
X59951D01*
X59867D01*
X59701Y47785D01*
X59826Y47660D01*
X59951Y47785D01*
X63912Y49436D02*
X64079D01*
X63995D01*
Y49186D01*
X64162D02*
Y49436D01*
X64287D01*
X64328Y49394D01*
Y49311D01*
X64287Y49269D01*
X64162D01*
X64245D02*
X64328Y49186D01*
X64412D02*
Y49436D01*
X64495Y49353D01*
X64578Y49436D01*
Y49186D01*
X64828Y49436D02*
X64662D01*
Y49311D01*
X64745Y49353D01*
X64787D01*
X64828Y49311D01*
Y49228D01*
X64787Y49186D01*
X64703D01*
X64662Y49228D01*
X63954Y68629D02*
X64120D01*
X64037D01*
Y68379D01*
X64203D02*
Y68629D01*
X64328D01*
X64370Y68587D01*
Y68504D01*
X64328Y68462D01*
X64203D01*
X64287D02*
X64370Y68379D01*
X64453D02*
Y68629D01*
X64537Y68546D01*
X64620Y68629D01*
Y68379D01*
X64703D02*
X64787D01*
X64745D01*
Y68629D01*
X64703Y68587D01*
X63808Y63117D02*
X63974D01*
X63891D01*
Y62867D01*
X64058D02*
Y63117D01*
X64183D01*
X64224Y63075D01*
Y62992D01*
X64183Y62950D01*
X64058D01*
X64141D02*
X64224Y62867D01*
X64308D02*
Y63117D01*
X64391Y63034D01*
X64474Y63117D01*
Y62867D01*
X64558D02*
X64641D01*
X64599D01*
Y63117D01*
X64558Y63075D01*
X64766D02*
X64807Y63117D01*
X64891D01*
X64932Y63075D01*
Y62909D01*
X64891Y62867D01*
X64807D01*
X64766Y62909D01*
Y63075D01*
X63912Y77684D02*
X64079D01*
X63995D01*
Y77434D01*
X64162D02*
Y77684D01*
X64287D01*
X64328Y77642D01*
Y77559D01*
X64287Y77517D01*
X64162D01*
X64245D02*
X64328Y77434D01*
X64412D02*
Y77684D01*
X64495Y77601D01*
X64578Y77684D01*
Y77434D01*
X64662Y77476D02*
X64703Y77434D01*
X64787D01*
X64828Y77476D01*
Y77642D01*
X64787Y77684D01*
X64703D01*
X64662Y77642D01*
Y77601D01*
X64703Y77559D01*
X64828D01*
X64014Y55046D02*
X64181D01*
X64097D01*
Y54796D01*
X64264D02*
Y55046D01*
X64389D01*
X64431Y55005D01*
Y54921D01*
X64389Y54880D01*
X64264D01*
X64347D02*
X64431Y54796D01*
X64514D02*
Y55046D01*
X64597Y54963D01*
X64681Y55046D01*
Y54796D01*
X64764Y55005D02*
X64806Y55046D01*
X64889D01*
X64930Y55005D01*
Y54963D01*
X64889Y54921D01*
X64930Y54880D01*
Y54838D01*
X64889Y54796D01*
X64806D01*
X64764Y54838D01*
Y54880D01*
X64806Y54921D01*
X64764Y54963D01*
Y55005D01*
X64806Y54921D02*
X64889D01*
X63912Y74141D02*
X64079D01*
X63995D01*
Y73891D01*
X64162D02*
Y74141D01*
X64287D01*
X64328Y74099D01*
Y74016D01*
X64287Y73974D01*
X64162D01*
X64245D02*
X64328Y73891D01*
X64412D02*
Y74141D01*
X64495Y74057D01*
X64578Y74141D01*
Y73891D01*
X64787D02*
Y74141D01*
X64662Y74016D01*
X64828D01*
X63695Y60583D02*
X63895D01*
X63795D01*
Y60283D01*
X63995D02*
Y60583D01*
X64145D01*
X64195Y60533D01*
Y60433D01*
X64145Y60383D01*
X63995D01*
X64095D02*
X64195Y60283D01*
X64295D02*
Y60583D01*
X64395Y60483D01*
X64495Y60583D01*
Y60283D01*
X64595D02*
X64695D01*
X64645D01*
Y60583D01*
X64595Y60533D01*
X65045Y60283D02*
X64845D01*
X65045Y60483D01*
Y60533D01*
X64995Y60583D01*
X64895D01*
X64845Y60533D01*
X63732Y71428D02*
X63932D01*
X63832D01*
Y71128D01*
X64032D02*
Y71428D01*
X64182D01*
X64232Y71378D01*
Y71278D01*
X64182Y71228D01*
X64032D01*
X64132D02*
X64232Y71128D01*
X64332D02*
Y71428D01*
X64432Y71328D01*
X64532Y71428D01*
Y71128D01*
X64632Y71378D02*
X64682Y71428D01*
X64782D01*
X64832Y71378D01*
Y71328D01*
X64782Y71278D01*
X64732D01*
X64782D01*
X64832Y71228D01*
Y71178D01*
X64782Y71128D01*
X64682D01*
X64632Y71178D01*
X63745Y77020D02*
X63945D01*
X63845D01*
Y76720D01*
X64045D02*
Y77020D01*
X64195D01*
X64245Y76970D01*
Y76870D01*
X64195Y76820D01*
X64045D01*
X64145D02*
X64245Y76720D01*
X64345D02*
Y77020D01*
X64445Y76920D01*
X64545Y77020D01*
Y76720D01*
X64645D02*
X64745D01*
X64695D01*
Y77020D01*
X64645Y76970D01*
X64895Y76720D02*
X64995D01*
X64945D01*
Y77020D01*
X64895Y76970D01*
X63814Y65898D02*
X64014D01*
X63914D01*
Y65598D01*
X64114D02*
Y65898D01*
X64264D01*
X64314Y65848D01*
Y65748D01*
X64264Y65698D01*
X64114D01*
X64214D02*
X64314Y65598D01*
X64414D02*
Y65898D01*
X64514Y65798D01*
X64614Y65898D01*
Y65598D01*
X64914D02*
X64714D01*
X64914Y65798D01*
Y65848D01*
X64864Y65898D01*
X64764D01*
X64714Y65848D01*
X63732Y52181D02*
X63932D01*
X63832D01*
Y51881D01*
X64032D02*
Y52181D01*
X64182D01*
X64232Y52131D01*
Y52031D01*
X64182Y51981D01*
X64032D01*
X64132D02*
X64232Y51881D01*
X64332D02*
Y52181D01*
X64432Y52081D01*
X64532Y52181D01*
Y51881D01*
X64832Y52181D02*
X64732Y52131D01*
X64632Y52031D01*
Y51931D01*
X64682Y51881D01*
X64782D01*
X64832Y51931D01*
Y51981D01*
X64782Y52031D01*
X64632D01*
X63928Y57827D02*
X64128D01*
X64028D01*
Y57527D01*
X64228D02*
Y57827D01*
X64378D01*
X64428Y57777D01*
Y57677D01*
X64378Y57627D01*
X64228D01*
X64328D02*
X64428Y57527D01*
X64528D02*
Y57827D01*
X64628Y57727D01*
X64728Y57827D01*
Y57527D01*
X64828Y57827D02*
X65028D01*
Y57777D01*
X64828Y57577D01*
Y57527D01*
X37597Y63506D02*
X37547Y63456D01*
Y63356D01*
X37597Y63306D01*
X37797D01*
X37847Y63356D01*
Y63456D01*
X37797Y63506D01*
X37847Y63606D02*
Y63706D01*
Y63656D01*
X37547D01*
X37597Y63606D01*
X37847Y64056D02*
Y63856D01*
X37647Y64056D01*
X37597D01*
X37547Y64006D01*
Y63906D01*
X37597Y63856D01*
X40248Y63580D02*
X40198Y63530D01*
Y63430D01*
X40248Y63380D01*
X40448D01*
X40498Y63430D01*
Y63530D01*
X40448Y63580D01*
X40498Y63680D02*
Y63780D01*
Y63730D01*
X40198D01*
X40248Y63680D01*
X32182Y73525D02*
X32132Y73575D01*
X32032D01*
X31982Y73525D01*
Y73325D01*
X32032Y73275D01*
X32132D01*
X32182Y73325D01*
X32282Y73525D02*
X32332Y73575D01*
X32432D01*
X32482Y73525D01*
Y73475D01*
X32432Y73425D01*
X32382D01*
X32432D01*
X32482Y73375D01*
Y73325D01*
X32432Y73275D01*
X32332D01*
X32282Y73325D01*
X32582Y73525D02*
X32632Y73575D01*
X32732D01*
X32782Y73525D01*
Y73475D01*
X32732Y73425D01*
X32682D01*
X32732D01*
X32782Y73375D01*
Y73325D01*
X32732Y73275D01*
X32632D01*
X32582Y73325D01*
X39589Y56623D02*
X39539Y56673D01*
X39439D01*
X39390Y56623D01*
Y56423D01*
X39439Y56373D01*
X39539D01*
X39589Y56423D01*
X39689Y56623D02*
X39739Y56673D01*
X39839D01*
X39889Y56623D01*
Y56573D01*
X39839Y56523D01*
X39789D01*
X39839D01*
X39889Y56473D01*
Y56423D01*
X39839Y56373D01*
X39739D01*
X39689Y56423D01*
X40189Y56373D02*
X39989D01*
X40189Y56573D01*
Y56623D01*
X40139Y56673D01*
X40039D01*
X39989Y56623D01*
X36590Y53568D02*
X36540Y53518D01*
Y53418D01*
X36590Y53368D01*
X36790D01*
X36840Y53418D01*
Y53518D01*
X36790Y53568D01*
X36590Y53668D02*
X36540Y53718D01*
Y53818D01*
X36590Y53868D01*
X36640D01*
X36690Y53818D01*
Y53768D01*
Y53818D01*
X36740Y53868D01*
X36790D01*
X36840Y53818D01*
Y53718D01*
X36790Y53668D01*
X36840Y53968D02*
Y54068D01*
Y54018D01*
X36540D01*
X36590Y53968D01*
X44337Y66090D02*
Y66390D01*
X44487D01*
X44537Y66340D01*
Y66240D01*
X44487Y66190D01*
X44337D01*
X44437D02*
X44537Y66090D01*
X44837Y66390D02*
X44637D01*
Y66240D01*
X44737Y66290D01*
X44787D01*
X44837Y66240D01*
Y66140D01*
X44787Y66090D01*
X44687D01*
X44637Y66140D01*
X47463Y65356D02*
X47413Y65406D01*
X47313D01*
X47263Y65356D01*
Y65156D01*
X47313Y65106D01*
X47413D01*
X47463Y65156D01*
X47563Y65106D02*
X47663D01*
X47613D01*
Y65406D01*
X47563Y65356D01*
X47813Y65156D02*
X47863Y65106D01*
X47963D01*
X48013Y65156D01*
Y65356D01*
X47963Y65406D01*
X47863D01*
X47813Y65356D01*
Y65306D01*
X47863Y65256D01*
X48013D01*
X44537Y65848D02*
X44487Y65898D01*
X44387D01*
X44337Y65848D01*
Y65648D01*
X44387Y65598D01*
X44487D01*
X44537Y65648D01*
X44637Y65848D02*
X44687Y65898D01*
X44787D01*
X44837Y65848D01*
Y65798D01*
X44787Y65748D01*
X44837Y65698D01*
Y65648D01*
X44787Y65598D01*
X44687D01*
X44637Y65648D01*
Y65698D01*
X44687Y65748D01*
X44637Y65798D01*
Y65848D01*
X44687Y65748D02*
X44787D01*
X36796Y66976D02*
X36746Y67026D01*
X36646D01*
X36596Y66976D01*
Y66776D01*
X36646Y66726D01*
X36746D01*
X36796Y66776D01*
X36896Y66726D02*
Y67026D01*
X37096Y66726D01*
Y67026D01*
X37396Y66726D02*
X37196D01*
X37396Y66926D01*
Y66976D01*
X37346Y67026D01*
X37246D01*
X37196Y66976D01*
X20276Y59401D02*
X20176D01*
X20226D01*
Y59151D01*
X20176Y59101D01*
X20126D01*
X20076Y59151D01*
X20376Y59101D02*
X20476D01*
X20426D01*
Y59401D01*
X20376Y59351D01*
X27951Y72143D02*
X27901Y72093D01*
Y71993D01*
X27951Y71943D01*
X28151D01*
X28201Y71993D01*
Y72093D01*
X28151Y72143D01*
X28201Y72393D02*
X27901D01*
X28051Y72243D01*
Y72442D01*
X27951Y72542D02*
X27901Y72592D01*
Y72692D01*
X27951Y72742D01*
X28001D01*
X28051Y72692D01*
Y72642D01*
Y72692D01*
X28101Y72742D01*
X28151D01*
X28201Y72692D01*
Y72592D01*
X28151Y72542D01*
X31101Y77851D02*
X31051Y77801D01*
Y77701D01*
X31101Y77651D01*
X31301D01*
X31351Y77701D01*
Y77801D01*
X31301Y77851D01*
X31351Y78101D02*
X31051D01*
X31201Y77951D01*
Y78151D01*
X31351Y78451D02*
Y78251D01*
X31151Y78451D01*
X31101D01*
X31051Y78401D01*
Y78301D01*
X31101Y78251D01*
X20794Y54342D02*
X20594D01*
Y54192D01*
X20694D01*
X20594D01*
Y54042D01*
X20894Y54342D02*
Y54042D01*
X21044D01*
X21094Y54092D01*
Y54292D01*
X21044Y54342D01*
X20894D01*
X21344Y54042D02*
Y54342D01*
X21194Y54192D01*
X21394D01*
X57700Y50057D02*
X57501D01*
Y49907D01*
X57600D01*
X57501D01*
Y49758D01*
X57800Y50057D02*
Y49758D01*
X57950D01*
X58000Y49808D01*
Y50007D01*
X57950Y50057D01*
X57800D01*
X58100Y50007D02*
X58150Y50057D01*
X58250D01*
X58300Y50007D01*
Y49957D01*
X58250Y49907D01*
X58200D01*
X58250D01*
X58300Y49858D01*
Y49808D01*
X58250Y49758D01*
X58150D01*
X58100Y49808D01*
X46817Y78685D02*
X46617D01*
Y78535D01*
X46717D01*
X46617D01*
Y78385D01*
X46917Y78685D02*
Y78385D01*
X47067D01*
X47117Y78435D01*
Y78635D01*
X47067Y78685D01*
X46917D01*
X47417Y78385D02*
X47217D01*
X47417Y78585D01*
Y78635D01*
X47367Y78685D01*
X47267D01*
X47217Y78635D01*
X21799Y62158D02*
X21599D01*
Y62008D01*
X21699D01*
X21599D01*
Y61858D01*
X21899Y62158D02*
Y61858D01*
X22049D01*
X22099Y61908D01*
Y62108D01*
X22049Y62158D01*
X21899D01*
X22199Y61858D02*
X22299D01*
X22249D01*
Y62158D01*
X22199Y62108D01*
X41132Y71134D02*
X41332Y70834D01*
Y71134D02*
X41132Y70834D01*
X41432Y71134D02*
X41632D01*
X41532D01*
Y70834D01*
X41732D02*
Y71034D01*
X41832Y71134D01*
X41932Y71034D01*
Y70834D01*
Y70984D01*
X41732D01*
X42032Y71134D02*
Y70834D01*
X42232D01*
X42332D02*
X42432D01*
X42382D01*
Y71134D01*
X42332Y71084D01*
X40385Y68782D02*
Y68532D01*
X40434Y68482D01*
X40534D01*
X40584Y68532D01*
Y68782D01*
X40684Y68732D02*
X40734Y68782D01*
X40834D01*
X40884Y68732D01*
Y68682D01*
X40834Y68632D01*
X40784D01*
X40834D01*
X40884Y68582D01*
Y68532D01*
X40834Y68482D01*
X40734D01*
X40684Y68532D01*
X49445Y56178D02*
Y55928D01*
X49495Y55879D01*
X49595D01*
X49645Y55928D01*
Y56178D01*
X49945Y55879D02*
X49745D01*
X49945Y56078D01*
Y56128D01*
X49895Y56178D01*
X49795D01*
X49745Y56128D01*
X49702Y76497D02*
Y76247D01*
X49752Y76197D01*
X49852D01*
X49902Y76247D01*
Y76497D01*
X50002Y76197D02*
X50102D01*
X50052D01*
Y76497D01*
X50002Y76447D01*
X25145Y51765D02*
Y51965D01*
Y51865D01*
X25445D01*
Y52265D02*
Y52065D01*
X25245Y52265D01*
X25195D01*
X25145Y52215D01*
Y52115D01*
X25195Y52065D01*
X25445Y52565D02*
Y52365D01*
X25245Y52565D01*
X25195D01*
X25145Y52515D01*
Y52415D01*
X25195Y52365D01*
X28489Y52414D02*
X28689D01*
X28589D01*
Y52114D01*
X28989D02*
X28789D01*
X28989Y52314D01*
Y52364D01*
X28939Y52414D01*
X28839D01*
X28789Y52364D01*
X29088Y52114D02*
X29188D01*
X29138D01*
Y52414D01*
X29088Y52364D01*
X46746Y49658D02*
X46946D01*
X46846D01*
Y49358D01*
X47246D02*
X47046D01*
X47246Y49558D01*
Y49608D01*
X47196Y49658D01*
X47096D01*
X47046Y49608D01*
X47346D02*
X47396Y49658D01*
X47496D01*
X47546Y49608D01*
Y49408D01*
X47496Y49358D01*
X47396D01*
X47346Y49408D01*
Y49608D01*
X42342Y66587D02*
X42542D01*
X42442D01*
Y66287D01*
X42642D02*
X42742D01*
X42692D01*
Y66587D01*
X42642Y66537D01*
X42891Y66337D02*
X42941Y66287D01*
X43041D01*
X43091Y66337D01*
Y66537D01*
X43041Y66587D01*
X42941D01*
X42891Y66537D01*
Y66487D01*
X42941Y66437D01*
X43091D01*
X48641Y49658D02*
X48841D01*
X48741D01*
Y49358D01*
X48941D02*
X49041D01*
X48991D01*
Y49658D01*
X48941Y49608D01*
X49191D02*
X49241Y49658D01*
X49341D01*
X49391Y49608D01*
Y49558D01*
X49341Y49508D01*
X49391Y49458D01*
Y49408D01*
X49341Y49358D01*
X49241D01*
X49191Y49408D01*
Y49458D01*
X49241Y49508D01*
X49191Y49558D01*
Y49608D01*
X49241Y49508D02*
X49341D01*
X43642Y61812D02*
Y62012D01*
Y61912D01*
X43942D01*
Y62111D02*
Y62211D01*
Y62161D01*
X43642D01*
X43692Y62111D01*
X43642Y62361D02*
Y62561D01*
X43692D01*
X43892Y62361D01*
X43942D01*
X50019Y49658D02*
X50219D01*
X50119D01*
Y49358D01*
X50319D02*
X50419D01*
X50369D01*
Y49658D01*
X50319Y49608D01*
X50769Y49658D02*
X50669Y49608D01*
X50569Y49508D01*
Y49408D01*
X50619Y49358D01*
X50719D01*
X50769Y49408D01*
Y49458D01*
X50719Y49508D01*
X50569D01*
X56024Y50417D02*
X56224D01*
X56124D01*
Y50117D01*
X56324D02*
X56424D01*
X56374D01*
Y50417D01*
X56324Y50367D01*
X56724Y50117D02*
Y50417D01*
X56574Y50267D01*
X56774D01*
X43093Y56844D02*
Y57044D01*
Y56944D01*
X43392D01*
Y57144D02*
Y57244D01*
Y57194D01*
X43093D01*
X43143Y57144D01*
Y57394D02*
X43093Y57444D01*
Y57544D01*
X43143Y57594D01*
X43193D01*
X43243Y57544D01*
Y57494D01*
Y57544D01*
X43292Y57594D01*
X43342D01*
X43392Y57544D01*
Y57444D01*
X43342Y57394D01*
X46950Y68150D02*
X47150D01*
X47050D01*
Y67850D01*
X47250D02*
X47350D01*
X47300D01*
Y68150D01*
X47250Y68100D01*
X47700Y67850D02*
X47500D01*
X47700Y68050D01*
Y68100D01*
X47650Y68150D01*
X47550D01*
X47500Y68100D01*
X41014Y66587D02*
X41214D01*
X41114D01*
Y66287D01*
X41314D02*
X41414D01*
X41364D01*
Y66587D01*
X41314Y66537D01*
X41564Y66287D02*
X41663D01*
X41613D01*
Y66587D01*
X41564Y66537D01*
X48895Y68113D02*
X49095D01*
X48995D01*
Y67813D01*
X49195D02*
X49295D01*
X49245D01*
Y68113D01*
X49195Y68063D01*
X49445D02*
X49495Y68113D01*
X49595D01*
X49645Y68063D01*
Y67863D01*
X49595Y67813D01*
X49495D01*
X49445Y67863D01*
Y68063D01*
X40291Y61468D02*
Y61668D01*
Y61568D01*
X40591D01*
X40541Y61768D02*
X40591Y61818D01*
Y61918D01*
X40541Y61968D01*
X40341D01*
X40291Y61918D01*
Y61818D01*
X40341Y61768D01*
X40391D01*
X40441Y61818D01*
Y61968D01*
X49947Y69985D02*
X50147D01*
X50047D01*
Y69685D01*
X50247Y69935D02*
X50297Y69985D01*
X50397D01*
X50447Y69935D01*
Y69885D01*
X50397Y69835D01*
X50447Y69785D01*
Y69735D01*
X50397Y69685D01*
X50297D01*
X50247Y69735D01*
Y69785D01*
X50297Y69835D01*
X50247Y69885D01*
Y69935D01*
X50297Y69835D02*
X50397D01*
X56096Y70666D02*
X56296D01*
X56196D01*
Y70367D01*
X56596Y70666D02*
X56496Y70616D01*
X56396Y70517D01*
Y70417D01*
X56446Y70367D01*
X56546D01*
X56596Y70417D01*
Y70467D01*
X56546Y70517D01*
X56396D01*
X41618Y57602D02*
X41818D01*
X41718D01*
Y57302D01*
X42118Y57602D02*
X41918D01*
Y57452D01*
X42018Y57502D01*
X42068D01*
X42118Y57452D01*
Y57352D01*
X42068Y57302D01*
X41968D01*
X41918Y57352D01*
X31498Y62546D02*
Y62746D01*
Y62646D01*
X31798D01*
Y62996D02*
X31498D01*
X31648Y62846D01*
Y63046D01*
X31479Y60257D02*
Y60457D01*
Y60357D01*
X31778D01*
X31529Y60557D02*
X31479Y60607D01*
Y60707D01*
X31529Y60756D01*
X31579D01*
X31628Y60707D01*
Y60657D01*
Y60707D01*
X31678Y60756D01*
X31728D01*
X31778Y60707D01*
Y60607D01*
X31728Y60557D01*
X32035Y62545D02*
Y62745D01*
Y62645D01*
X32335D01*
Y63045D02*
Y62845D01*
X32135Y63045D01*
X32085D01*
X32035Y62995D01*
Y62895D01*
X32085Y62845D01*
X31999Y60307D02*
Y60507D01*
Y60407D01*
X32299D01*
Y60607D02*
Y60707D01*
Y60657D01*
X31999D01*
X32049Y60607D01*
X30170Y69285D02*
X29870D01*
Y69435D01*
X29920Y69485D01*
X30020D01*
X30070Y69435D01*
Y69285D01*
Y69385D02*
X30170Y69485D01*
X29870Y69585D02*
Y69785D01*
X29920D01*
X30120Y69585D01*
X30170D01*
X29920Y69885D02*
X29870Y69935D01*
Y70035D01*
X29920Y70085D01*
X29970D01*
X30020Y70035D01*
Y69985D01*
Y70035D01*
X30070Y70085D01*
X30120D01*
X30170Y70035D01*
Y69935D01*
X30120Y69885D01*
X30112Y59397D02*
Y59697D01*
X30262D01*
X30312Y59647D01*
Y59547D01*
X30262Y59497D01*
X30112D01*
X30212D02*
X30312Y59397D01*
X30412Y59697D02*
X30612D01*
Y59647D01*
X30412Y59447D01*
Y59397D01*
X30912D02*
X30712D01*
X30912Y59597D01*
Y59647D01*
X30862Y59697D01*
X30762D01*
X30712Y59647D01*
X35491Y77186D02*
Y77486D01*
X35641D01*
X35691Y77436D01*
Y77336D01*
X35641Y77286D01*
X35491D01*
X35591D02*
X35691Y77186D01*
X35791Y77486D02*
X35991D01*
Y77436D01*
X35791Y77236D01*
Y77186D01*
X36091D02*
X36191D01*
X36141D01*
Y77486D01*
X36091Y77436D01*
X30112Y57527D02*
Y57827D01*
X30262D01*
X30312Y57777D01*
Y57677D01*
X30262Y57627D01*
X30112D01*
X30212D02*
X30312Y57527D01*
X30412Y57827D02*
X30612D01*
Y57777D01*
X30412Y57577D01*
Y57527D01*
X30712Y57777D02*
X30762Y57827D01*
X30862D01*
X30912Y57777D01*
Y57577D01*
X30862Y57527D01*
X30762D01*
X30712Y57577D01*
Y57777D01*
X30071Y52454D02*
X29771D01*
Y52604D01*
X29821Y52654D01*
X29921D01*
X29971Y52604D01*
Y52454D01*
Y52554D02*
X30071Y52654D01*
X29771Y52954D02*
X29821Y52854D01*
X29921Y52754D01*
X30021D01*
X30071Y52804D01*
Y52904D01*
X30021Y52954D01*
X29971D01*
X29921Y52904D01*
Y52754D01*
X30021Y53054D02*
X30071Y53104D01*
Y53204D01*
X30021Y53254D01*
X29821D01*
X29771Y53204D01*
Y53104D01*
X29821Y53054D01*
X29871D01*
X29921Y53104D01*
Y53254D01*
X28010Y65861D02*
Y66161D01*
X28160D01*
X28210Y66111D01*
Y66011D01*
X28160Y65961D01*
X28010D01*
X28110D02*
X28210Y65861D01*
X28510Y66161D02*
X28410Y66111D01*
X28310Y66011D01*
Y65911D01*
X28360Y65861D01*
X28460D01*
X28510Y65911D01*
Y65961D01*
X28460Y66011D01*
X28310D01*
X28610Y66111D02*
X28660Y66161D01*
X28760D01*
X28810Y66111D01*
Y66061D01*
X28760Y66011D01*
X28810Y65961D01*
Y65911D01*
X28760Y65861D01*
X28660D01*
X28610Y65911D01*
Y65961D01*
X28660Y66011D01*
X28610Y66061D01*
Y66111D01*
X28660Y66011D02*
X28760D01*
X41292Y49010D02*
X40992D01*
Y49160D01*
X41042Y49210D01*
X41142D01*
X41192Y49160D01*
Y49010D01*
Y49110D02*
X41292Y49210D01*
X40992Y49509D02*
X41042Y49409D01*
X41142Y49309D01*
X41242D01*
X41292Y49359D01*
Y49459D01*
X41242Y49509D01*
X41192D01*
X41142Y49459D01*
Y49309D01*
X40992Y49609D02*
Y49809D01*
X41042D01*
X41242Y49609D01*
X41292D01*
X41784Y49010D02*
X41484D01*
Y49160D01*
X41534Y49210D01*
X41634D01*
X41684Y49160D01*
Y49010D01*
Y49110D02*
X41784Y49210D01*
X41484Y49509D02*
X41534Y49409D01*
X41634Y49309D01*
X41734D01*
X41784Y49359D01*
Y49459D01*
X41734Y49509D01*
X41684D01*
X41634Y49459D01*
Y49309D01*
X41484Y49809D02*
X41534Y49709D01*
X41634Y49609D01*
X41734D01*
X41784Y49659D01*
Y49759D01*
X41734Y49809D01*
X41684D01*
X41634Y49759D01*
Y49609D01*
X33910Y51667D02*
X33610D01*
Y51817D01*
X33660Y51867D01*
X33760D01*
X33810Y51817D01*
Y51667D01*
Y51767D02*
X33910Y51867D01*
X33610Y52167D02*
X33660Y52067D01*
X33760Y51967D01*
X33860D01*
X33910Y52017D01*
Y52117D01*
X33860Y52167D01*
X33810D01*
X33760Y52117D01*
Y51967D01*
X33610Y52467D02*
Y52267D01*
X33760D01*
X33710Y52367D01*
Y52417D01*
X33760Y52467D01*
X33860D01*
X33910Y52417D01*
Y52317D01*
X33860Y52267D01*
X30309Y51622D02*
Y51922D01*
X30459D01*
X30509Y51872D01*
Y51772D01*
X30459Y51722D01*
X30309D01*
X30409D02*
X30509Y51622D01*
X30809Y51922D02*
X30709Y51872D01*
X30609Y51772D01*
Y51672D01*
X30659Y51622D01*
X30759D01*
X30809Y51672D01*
Y51722D01*
X30759Y51772D01*
X30609D01*
X31059Y51622D02*
Y51922D01*
X30909Y51772D01*
X31109D01*
X40447Y48374D02*
Y48674D01*
X40597D01*
X40647Y48624D01*
Y48524D01*
X40597Y48474D01*
X40447D01*
X40547D02*
X40647Y48374D01*
X40946Y48674D02*
X40846Y48624D01*
X40746Y48524D01*
Y48424D01*
X40796Y48374D01*
X40896D01*
X40946Y48424D01*
Y48474D01*
X40896Y48524D01*
X40746D01*
X41046Y48624D02*
X41096Y48674D01*
X41196D01*
X41246Y48624D01*
Y48574D01*
X41196Y48524D01*
X41146D01*
X41196D01*
X41246Y48474D01*
Y48424D01*
X41196Y48374D01*
X41096D01*
X41046Y48424D01*
X33910Y50486D02*
X33610D01*
Y50636D01*
X33660Y50686D01*
X33760D01*
X33810Y50636D01*
Y50486D01*
Y50586D02*
X33910Y50686D01*
X33610Y50986D02*
X33660Y50886D01*
X33760Y50786D01*
X33860D01*
X33910Y50836D01*
Y50936D01*
X33860Y50986D01*
X33810D01*
X33760Y50936D01*
Y50786D01*
X33910Y51286D02*
Y51086D01*
X33710Y51286D01*
X33660D01*
X33610Y51236D01*
Y51136D01*
X33660Y51086D01*
X41973Y48964D02*
Y49264D01*
X42123D01*
X42173Y49214D01*
Y49114D01*
X42123Y49064D01*
X41973D01*
X42073D02*
X42173Y48964D01*
X42473Y49264D02*
X42373Y49214D01*
X42273Y49114D01*
Y49014D01*
X42323Y48964D01*
X42423D01*
X42473Y49014D01*
Y49064D01*
X42423Y49114D01*
X42273D01*
X42573Y48964D02*
X42673D01*
X42623D01*
Y49264D01*
X42573Y49214D01*
X28537Y51622D02*
Y51922D01*
X28687D01*
X28737Y51872D01*
Y51772D01*
X28687Y51722D01*
X28537D01*
X28637D02*
X28737Y51622D01*
X29037Y51922D02*
X28937Y51872D01*
X28837Y51772D01*
Y51672D01*
X28887Y51622D01*
X28987D01*
X29037Y51672D01*
Y51722D01*
X28987Y51772D01*
X28837D01*
X29137Y51872D02*
X29187Y51922D01*
X29287D01*
X29337Y51872D01*
Y51672D01*
X29287Y51622D01*
X29187D01*
X29137Y51672D01*
Y51872D01*
X41489Y50584D02*
X41189D01*
Y50734D01*
X41239Y50784D01*
X41339D01*
X41389Y50734D01*
Y50584D01*
Y50684D02*
X41489Y50784D01*
X41189Y51084D02*
Y50884D01*
X41339D01*
X41289Y50984D01*
Y51034D01*
X41339Y51084D01*
X41439D01*
X41489Y51034D01*
Y50934D01*
X41439Y50884D01*
Y51184D02*
X41489Y51234D01*
Y51334D01*
X41439Y51384D01*
X41239D01*
X41189Y51334D01*
Y51234D01*
X41239Y51184D01*
X41289D01*
X41339Y51234D01*
Y51384D01*
X46410Y49403D02*
X46110D01*
Y49553D01*
X46160Y49603D01*
X46260D01*
X46310Y49553D01*
Y49403D01*
Y49503D02*
X46410Y49603D01*
X46110Y49903D02*
Y49703D01*
X46260D01*
X46210Y49803D01*
Y49853D01*
X46260Y49903D01*
X46360D01*
X46410Y49853D01*
Y49753D01*
X46360Y49703D01*
X46160Y50003D02*
X46110Y50053D01*
Y50153D01*
X46160Y50203D01*
X46210D01*
X46260Y50153D01*
X46310Y50203D01*
X46360D01*
X46410Y50153D01*
Y50053D01*
X46360Y50003D01*
X46310D01*
X46260Y50053D01*
X46210Y50003D01*
X46160D01*
X46260Y50053D02*
Y50153D01*
X42317Y66779D02*
Y67079D01*
X42467D01*
X42517Y67029D01*
Y66929D01*
X42467Y66879D01*
X42317D01*
X42417D02*
X42517Y66779D01*
X42817Y67079D02*
X42617D01*
Y66929D01*
X42717Y66979D01*
X42767D01*
X42817Y66929D01*
Y66829D01*
X42767Y66779D01*
X42667D01*
X42617Y66829D01*
X42916Y67079D02*
X43116D01*
Y67029D01*
X42916Y66829D01*
Y66779D01*
X45721Y49403D02*
X45421D01*
Y49553D01*
X45471Y49603D01*
X45571D01*
X45621Y49553D01*
Y49403D01*
Y49503D02*
X45721Y49603D01*
X45421Y49903D02*
Y49703D01*
X45571D01*
X45521Y49803D01*
Y49853D01*
X45571Y49903D01*
X45671D01*
X45721Y49853D01*
Y49753D01*
X45671Y49703D01*
X45421Y50203D02*
X45471Y50103D01*
X45571Y50003D01*
X45671D01*
X45721Y50053D01*
Y50153D01*
X45671Y50203D01*
X45621D01*
X45571Y50153D01*
Y50003D01*
X42317Y67271D02*
Y67571D01*
X42467D01*
X42517Y67521D01*
Y67421D01*
X42467Y67371D01*
X42317D01*
X42417D02*
X42517Y67271D01*
X42817Y67571D02*
X42617D01*
Y67421D01*
X42717Y67471D01*
X42767D01*
X42817Y67421D01*
Y67321D01*
X42767Y67271D01*
X42667D01*
X42617Y67321D01*
X43116Y67571D02*
X42916D01*
Y67421D01*
X43016Y67471D01*
X43066D01*
X43116Y67421D01*
Y67321D01*
X43066Y67271D01*
X42966D01*
X42916Y67321D01*
X48378Y49403D02*
X48078D01*
Y49553D01*
X48128Y49603D01*
X48228D01*
X48278Y49553D01*
Y49403D01*
Y49503D02*
X48378Y49603D01*
X48078Y49903D02*
Y49703D01*
X48228D01*
X48178Y49803D01*
Y49853D01*
X48228Y49903D01*
X48328D01*
X48378Y49853D01*
Y49753D01*
X48328Y49703D01*
X48378Y50153D02*
X48078D01*
X48228Y50003D01*
Y50203D01*
X42415Y65795D02*
Y66095D01*
X42565D01*
X42615Y66045D01*
Y65945D01*
X42565Y65895D01*
X42415D01*
X42515D02*
X42615Y65795D01*
X42915Y66095D02*
X42715D01*
Y65945D01*
X42815Y65995D01*
X42865D01*
X42915Y65945D01*
Y65845D01*
X42865Y65795D01*
X42765D01*
X42715Y65845D01*
X43015Y66045D02*
X43065Y66095D01*
X43165D01*
X43215Y66045D01*
Y65995D01*
X43165Y65945D01*
X43115D01*
X43165D01*
X43215Y65895D01*
Y65845D01*
X43165Y65795D01*
X43065D01*
X43015Y65845D01*
X53242Y48078D02*
Y48378D01*
X53392D01*
X53442Y48328D01*
Y48228D01*
X53392Y48178D01*
X53242D01*
X53342D02*
X53442Y48078D01*
X53742Y48378D02*
X53542D01*
Y48228D01*
X53642Y48278D01*
X53692D01*
X53742Y48228D01*
Y48128D01*
X53692Y48078D01*
X53592D01*
X53542Y48128D01*
X54042Y48078D02*
X53842D01*
X54042Y48278D01*
Y48328D01*
X53992Y48378D01*
X53892D01*
X53842Y48328D01*
X52061Y48767D02*
Y49067D01*
X52211D01*
X52261Y49017D01*
Y48917D01*
X52211Y48867D01*
X52061D01*
X52161D02*
X52261Y48767D01*
X52561Y49067D02*
X52361D01*
Y48917D01*
X52461Y48967D01*
X52511D01*
X52561Y48917D01*
Y48817D01*
X52511Y48767D01*
X52411D01*
X52361Y48817D01*
X52661Y49017D02*
X52711Y49067D01*
X52811D01*
X52860Y49017D01*
Y48817D01*
X52811Y48767D01*
X52711D01*
X52661Y48817D01*
Y49017D01*
X44094Y60874D02*
X43794D01*
Y61024D01*
X43844Y61074D01*
X43944D01*
X43994Y61024D01*
Y60874D01*
Y60974D02*
X44094Y61074D01*
Y61324D02*
X43794D01*
X43944Y61174D01*
Y61374D01*
X44044Y61474D02*
X44094Y61524D01*
Y61624D01*
X44044Y61674D01*
X43844D01*
X43794Y61624D01*
Y61524D01*
X43844Y61474D01*
X43894D01*
X43944Y61524D01*
Y61674D01*
X46410Y67325D02*
X46110D01*
Y67475D01*
X46160Y67525D01*
X46260D01*
X46310Y67475D01*
Y67325D01*
Y67425D02*
X46410Y67525D01*
Y67775D02*
X46110D01*
X46260Y67625D01*
Y67825D01*
X46160Y67925D02*
X46110Y67975D01*
Y68075D01*
X46160Y68125D01*
X46210D01*
X46260Y68075D01*
X46310Y68125D01*
X46360D01*
X46410Y68075D01*
Y67975D01*
X46360Y67925D01*
X46310D01*
X46260Y67975D01*
X46210Y67925D01*
X46160D01*
X46260Y67975D02*
Y68075D01*
X40939Y66779D02*
Y67079D01*
X41089D01*
X41139Y67029D01*
Y66929D01*
X41089Y66879D01*
X40939D01*
X41039D02*
X41139Y66779D01*
X41389D02*
Y67079D01*
X41239Y66929D01*
X41439D01*
X41539Y67079D02*
X41738D01*
Y67029D01*
X41539Y66829D01*
Y66779D01*
X45888Y67349D02*
X45588D01*
Y67499D01*
X45638Y67549D01*
X45738D01*
X45788Y67499D01*
Y67349D01*
Y67449D02*
X45888Y67549D01*
Y67799D02*
X45588D01*
X45738Y67649D01*
Y67849D01*
X45588Y68149D02*
X45638Y68049D01*
X45738Y67949D01*
X45838D01*
X45888Y67999D01*
Y68099D01*
X45838Y68149D01*
X45788D01*
X45738Y68099D01*
Y67949D01*
X40939Y67271D02*
Y67571D01*
X41089D01*
X41139Y67521D01*
Y67421D01*
X41089Y67371D01*
X40939D01*
X41039D02*
X41139Y67271D01*
X41389D02*
Y67571D01*
X41239Y67421D01*
X41439D01*
X41738Y67571D02*
X41539D01*
Y67421D01*
X41638Y67471D01*
X41688D01*
X41738Y67421D01*
Y67321D01*
X41688Y67271D01*
X41589D01*
X41539Y67321D01*
X48497Y67424D02*
X48197D01*
Y67574D01*
X48247Y67624D01*
X48347D01*
X48397Y67574D01*
Y67424D01*
Y67524D02*
X48497Y67624D01*
Y67874D02*
X48197D01*
X48347Y67724D01*
Y67924D01*
X48497Y68174D02*
X48197D01*
X48347Y68024D01*
Y68224D01*
X40939Y65795D02*
Y66095D01*
X41089D01*
X41139Y66045D01*
Y65945D01*
X41089Y65895D01*
X40939D01*
X41039D02*
X41139Y65795D01*
X41389D02*
Y66095D01*
X41239Y65945D01*
X41439D01*
X41539Y66045D02*
X41589Y66095D01*
X41688D01*
X41738Y66045D01*
Y65995D01*
X41688Y65945D01*
X41638D01*
X41688D01*
X41738Y65895D01*
Y65845D01*
X41688Y65795D01*
X41589D01*
X41539Y65845D01*
X51588Y67247D02*
Y67547D01*
X51738D01*
X51788Y67497D01*
Y67397D01*
X51738Y67347D01*
X51588D01*
X51688D02*
X51788Y67247D01*
X52038D02*
Y67547D01*
X51888Y67397D01*
X52088D01*
X52388Y67247D02*
X52188D01*
X52388Y67447D01*
Y67497D01*
X52338Y67547D01*
X52238D01*
X52188Y67497D01*
X52377Y68882D02*
X52077D01*
Y69032D01*
X52127Y69082D01*
X52227D01*
X52277Y69032D01*
Y68882D01*
Y68982D02*
X52377Y69082D01*
Y69331D02*
X52077D01*
X52227Y69182D01*
Y69381D01*
X52127Y69481D02*
X52077Y69531D01*
Y69631D01*
X52127Y69681D01*
X52327D01*
X52377Y69631D01*
Y69531D01*
X52327Y69481D01*
X52127D01*
X41004Y60669D02*
X40704D01*
Y60819D01*
X40754Y60869D01*
X40854D01*
X40904Y60819D01*
Y60669D01*
Y60769D02*
X41004Y60869D01*
X40754Y60969D02*
X40704Y61019D01*
Y61119D01*
X40754Y61169D01*
X40804D01*
X40854Y61119D01*
Y61069D01*
Y61119D01*
X40904Y61169D01*
X40954D01*
X41004Y61119D01*
Y61019D01*
X40954Y60969D01*
Y61269D02*
X41004Y61319D01*
Y61419D01*
X40954Y61469D01*
X40754D01*
X40704Y61419D01*
Y61319D01*
X40754Y61269D01*
X40804D01*
X40854Y61319D01*
Y61469D01*
X36903Y56937D02*
Y57237D01*
X37053D01*
X37103Y57187D01*
Y57087D01*
X37053Y57037D01*
X36903D01*
X37003D02*
X37103Y56937D01*
X37203Y57187D02*
X37253Y57237D01*
X37353D01*
X37403Y57187D01*
Y57137D01*
X37353Y57087D01*
X37303D01*
X37353D01*
X37403Y57037D01*
Y56987D01*
X37353Y56937D01*
X37253D01*
X37203Y56987D01*
X37503Y57187D02*
X37553Y57237D01*
X37653D01*
X37703Y57187D01*
Y57137D01*
X37653Y57087D01*
X37703Y57037D01*
Y56987D01*
X37653Y56937D01*
X37553D01*
X37503Y56987D01*
Y57037D01*
X37553Y57087D01*
X37503Y57137D01*
Y57187D01*
X37553Y57087D02*
X37653D01*
X49600Y62716D02*
Y63016D01*
X49750D01*
X49800Y62966D01*
Y62866D01*
X49750Y62816D01*
X49600D01*
X49700D02*
X49800Y62716D01*
X49900Y62966D02*
X49950Y63016D01*
X50050D01*
X50100Y62966D01*
Y62916D01*
X50050Y62866D01*
X50000D01*
X50050D01*
X50100Y62816D01*
Y62766D01*
X50050Y62716D01*
X49950D01*
X49900Y62766D01*
X50200Y63016D02*
X50400D01*
Y62966D01*
X50200Y62766D01*
Y62716D01*
X49600Y63373D02*
Y63672D01*
X49750D01*
X49800Y63623D01*
Y63523D01*
X49750Y63473D01*
X49600D01*
X49700D02*
X49800Y63373D01*
X49900Y63623D02*
X49950Y63672D01*
X50050D01*
X50100Y63623D01*
Y63573D01*
X50050Y63523D01*
X50000D01*
X50050D01*
X50100Y63473D01*
Y63423D01*
X50050Y63373D01*
X49950D01*
X49900Y63423D01*
X50400Y63672D02*
X50300Y63623D01*
X50200Y63523D01*
Y63423D01*
X50250Y63373D01*
X50350D01*
X50400Y63423D01*
Y63473D01*
X50350Y63523D01*
X50200D01*
X31449Y61214D02*
X31149D01*
Y61364D01*
X31199Y61414D01*
X31299D01*
X31349Y61364D01*
Y61214D01*
Y61314D02*
X31449Y61414D01*
X31199Y61514D02*
X31149Y61564D01*
Y61664D01*
X31199Y61714D01*
X31249D01*
X31299Y61664D01*
Y61614D01*
Y61664D01*
X31349Y61714D01*
X31399D01*
X31449Y61664D01*
Y61564D01*
X31399Y61514D01*
X31149Y62014D02*
Y61814D01*
X31299D01*
X31249Y61914D01*
Y61964D01*
X31299Y62014D01*
X31399D01*
X31449Y61964D01*
Y61864D01*
X31399Y61814D01*
X47238Y65598D02*
Y65898D01*
X47388D01*
X47438Y65848D01*
Y65748D01*
X47388Y65698D01*
X47238D01*
X47338D02*
X47438Y65598D01*
X47538Y65848D02*
X47588Y65898D01*
X47688D01*
X47738Y65848D01*
Y65798D01*
X47688Y65748D01*
X47638D01*
X47688D01*
X47738Y65698D01*
Y65648D01*
X47688Y65598D01*
X47588D01*
X47538Y65648D01*
X47988Y65598D02*
Y65898D01*
X47838Y65748D01*
X48038D01*
X36903Y57921D02*
Y58221D01*
X37053D01*
X37103Y58171D01*
Y58071D01*
X37053Y58021D01*
X36903D01*
X37003D02*
X37103Y57921D01*
X37203Y58171D02*
X37253Y58221D01*
X37353D01*
X37403Y58171D01*
Y58121D01*
X37353Y58071D01*
X37303D01*
X37353D01*
X37403Y58021D01*
Y57971D01*
X37353Y57921D01*
X37253D01*
X37203Y57971D01*
X37503Y58171D02*
X37553Y58221D01*
X37653D01*
X37703Y58171D01*
Y58121D01*
X37653Y58071D01*
X37603D01*
X37653D01*
X37703Y58021D01*
Y57971D01*
X37653Y57921D01*
X37553D01*
X37503Y57971D01*
X48784Y58186D02*
Y58486D01*
X48934D01*
X48984Y58436D01*
Y58336D01*
X48934Y58286D01*
X48784D01*
X48884D02*
X48984Y58186D01*
X49084Y58436D02*
X49134Y58486D01*
X49234D01*
X49284Y58436D01*
Y58386D01*
X49234Y58336D01*
X49184D01*
X49234D01*
X49284Y58286D01*
Y58236D01*
X49234Y58186D01*
X49134D01*
X49084Y58236D01*
X49584Y58186D02*
X49384D01*
X49584Y58386D01*
Y58436D01*
X49534Y58486D01*
X49434D01*
X49384Y58436D01*
X30957Y60871D02*
X30657D01*
Y61021D01*
X30707Y61071D01*
X30807D01*
X30857Y61021D01*
Y60871D01*
Y60971D02*
X30957Y61071D01*
X30707Y61170D02*
X30657Y61220D01*
Y61320D01*
X30707Y61370D01*
X30757D01*
X30807Y61320D01*
Y61270D01*
Y61320D01*
X30857Y61370D01*
X30907D01*
X30957Y61320D01*
Y61220D01*
X30907Y61170D01*
X30957Y61470D02*
Y61570D01*
Y61520D01*
X30657D01*
X30707Y61470D01*
X31778Y59245D02*
X31479D01*
Y59395D01*
X31529Y59445D01*
X31628D01*
X31678Y59395D01*
Y59245D01*
Y59345D02*
X31778Y59445D01*
X31529Y59545D02*
X31479Y59595D01*
Y59695D01*
X31529Y59745D01*
X31579D01*
X31628Y59695D01*
Y59645D01*
Y59695D01*
X31678Y59745D01*
X31728D01*
X31778Y59695D01*
Y59595D01*
X31728Y59545D01*
X31529Y59845D02*
X31479Y59895D01*
Y59995D01*
X31529Y60045D01*
X31728D01*
X31778Y59995D01*
Y59895D01*
X31728Y59845D01*
X31529D01*
X47050Y60143D02*
X46750D01*
Y60293D01*
X46800Y60343D01*
X46900D01*
X46950Y60293D01*
Y60143D01*
Y60243D02*
X47050Y60343D01*
Y60643D02*
Y60443D01*
X46850Y60643D01*
X46800D01*
X46750Y60593D01*
Y60493D01*
X46800Y60443D01*
X47000Y60743D02*
X47050Y60793D01*
Y60893D01*
X47000Y60943D01*
X46800D01*
X46750Y60893D01*
Y60793D01*
X46800Y60743D01*
X46850D01*
X46900Y60793D01*
Y60943D01*
X36272Y65348D02*
X35972D01*
Y65498D01*
X36022Y65548D01*
X36122D01*
X36172Y65498D01*
Y65348D01*
Y65448D02*
X36272Y65548D01*
Y65848D02*
Y65648D01*
X36072Y65848D01*
X36022D01*
X35972Y65798D01*
Y65698D01*
X36022Y65648D01*
Y65948D02*
X35972Y65998D01*
Y66098D01*
X36022Y66148D01*
X36072D01*
X36122Y66098D01*
X36172Y66148D01*
X36222D01*
X36272Y66098D01*
Y65998D01*
X36222Y65948D01*
X36172D01*
X36122Y65998D01*
X36072Y65948D01*
X36022D01*
X36122Y65998D02*
Y66098D01*
X32671Y56051D02*
Y56351D01*
X32821D01*
X32871Y56301D01*
Y56201D01*
X32821Y56151D01*
X32671D01*
X32771D02*
X32871Y56051D01*
X33171D02*
X32971D01*
X33171Y56251D01*
Y56301D01*
X33121Y56351D01*
X33021D01*
X32971Y56301D01*
X33271Y56351D02*
X33471D01*
Y56301D01*
X33271Y56101D01*
Y56051D01*
X35624Y56445D02*
Y56744D01*
X35774D01*
X35824Y56694D01*
Y56594D01*
X35774Y56544D01*
X35624D01*
X35724D02*
X35824Y56445D01*
X36124D02*
X35924D01*
X36124Y56644D01*
Y56694D01*
X36074Y56744D01*
X35974D01*
X35924Y56694D01*
X36423Y56744D02*
X36324Y56694D01*
X36224Y56594D01*
Y56495D01*
X36274Y56445D01*
X36374D01*
X36423Y56495D01*
Y56544D01*
X36374Y56594D01*
X36224D01*
X32671Y64811D02*
Y65111D01*
X32821D01*
X32871Y65061D01*
Y64961D01*
X32821Y64911D01*
X32671D01*
X32771D02*
X32871Y64811D01*
X33171D02*
X32971D01*
X33171Y65011D01*
Y65061D01*
X33121Y65111D01*
X33021D01*
X32971Y65061D01*
X33471Y65111D02*
X33271D01*
Y64961D01*
X33371Y65011D01*
X33421D01*
X33471Y64961D01*
Y64861D01*
X33421Y64811D01*
X33321D01*
X33271Y64861D01*
X47238Y66090D02*
Y66390D01*
X47388D01*
X47438Y66340D01*
Y66240D01*
X47388Y66190D01*
X47238D01*
X47338D02*
X47438Y66090D01*
X47738D02*
X47538D01*
X47738Y66290D01*
Y66340D01*
X47688Y66390D01*
X47588D01*
X47538Y66340D01*
X47988Y66090D02*
Y66390D01*
X47838Y66240D01*
X48038D01*
X35780Y63281D02*
X35480D01*
Y63431D01*
X35530Y63481D01*
X35630D01*
X35680Y63431D01*
Y63281D01*
Y63381D02*
X35780Y63481D01*
Y63781D02*
Y63581D01*
X35580Y63781D01*
X35530D01*
X35480Y63731D01*
Y63631D01*
X35530Y63581D01*
Y63881D02*
X35480Y63931D01*
Y64031D01*
X35530Y64081D01*
X35580D01*
X35630Y64031D01*
Y63981D01*
Y64031D01*
X35680Y64081D01*
X35730D01*
X35780Y64031D01*
Y63931D01*
X35730Y63881D01*
X32671Y65303D02*
Y65603D01*
X32821D01*
X32871Y65553D01*
Y65453D01*
X32821Y65403D01*
X32671D01*
X32771D02*
X32871Y65303D01*
X33171D02*
X32971D01*
X33171Y65503D01*
Y65553D01*
X33121Y65603D01*
X33021D01*
X32971Y65553D01*
X33471Y65303D02*
X33271D01*
X33471Y65503D01*
Y65553D01*
X33421Y65603D01*
X33321D01*
X33271Y65553D01*
X32721Y57035D02*
Y57335D01*
X32871D01*
X32921Y57285D01*
Y57185D01*
X32871Y57135D01*
X32721D01*
X32821D02*
X32921Y57035D01*
X33221D02*
X33021D01*
X33221Y57235D01*
Y57285D01*
X33171Y57335D01*
X33071D01*
X33021Y57285D01*
X33321Y57035D02*
X33421D01*
X33371D01*
Y57335D01*
X33321Y57285D01*
X35780Y64364D02*
X35480D01*
Y64514D01*
X35530Y64564D01*
X35630D01*
X35680Y64514D01*
Y64364D01*
Y64464D02*
X35780Y64564D01*
Y64864D02*
Y64664D01*
X35580Y64864D01*
X35530D01*
X35480Y64814D01*
Y64714D01*
X35530Y64664D01*
Y64964D02*
X35480Y65014D01*
Y65114D01*
X35530Y65164D01*
X35730D01*
X35780Y65114D01*
Y65014D01*
X35730Y64964D01*
X35530D01*
X39586Y57035D02*
Y57335D01*
X39736D01*
X39786Y57285D01*
Y57185D01*
X39736Y57135D01*
X39586D01*
X39686D02*
X39786Y57035D01*
X39886D02*
X39986D01*
X39936D01*
Y57335D01*
X39886Y57285D01*
X40136Y57085D02*
X40186Y57035D01*
X40286D01*
X40336Y57085D01*
Y57285D01*
X40286Y57335D01*
X40186D01*
X40136Y57285D01*
Y57235D01*
X40186Y57185D01*
X40336D01*
X32433Y61239D02*
X32134D01*
Y61389D01*
X32183Y61439D01*
X32283D01*
X32333Y61389D01*
Y61239D01*
Y61339D02*
X32433Y61439D01*
Y61539D02*
Y61639D01*
Y61589D01*
X32134D01*
X32183Y61539D01*
Y61789D02*
X32134Y61839D01*
Y61939D01*
X32183Y61989D01*
X32233D01*
X32283Y61939D01*
X32333Y61989D01*
X32383D01*
X32433Y61939D01*
Y61839D01*
X32383Y61789D01*
X32333D01*
X32283Y61839D01*
X32233Y61789D01*
X32183D01*
X32283Y61839D02*
Y61939D01*
X45491Y64023D02*
Y64323D01*
X45641D01*
X45691Y64273D01*
Y64173D01*
X45641Y64123D01*
X45491D01*
X45591D02*
X45691Y64023D01*
X45791D02*
X45891D01*
X45841D01*
Y64323D01*
X45791Y64273D01*
X46041Y64323D02*
X46241D01*
Y64273D01*
X46041Y64073D01*
Y64023D01*
X45491Y65008D02*
Y65307D01*
X45641D01*
X45691Y65257D01*
Y65157D01*
X45641Y65107D01*
X45491D01*
X45591D02*
X45691Y65008D01*
X45791D02*
X45891D01*
X45841D01*
Y65307D01*
X45791Y65257D01*
X46241Y65307D02*
X46141Y65257D01*
X46041Y65157D01*
Y65058D01*
X46091Y65008D01*
X46191D01*
X46241Y65058D01*
Y65107D01*
X46191Y65157D01*
X46041D01*
X44212Y64614D02*
Y64914D01*
X44362D01*
X44412Y64864D01*
Y64764D01*
X44362Y64714D01*
X44212D01*
X44312D02*
X44412Y64614D01*
X44512D02*
X44612D01*
X44562D01*
Y64914D01*
X44512Y64864D01*
X44961Y64914D02*
X44762D01*
Y64764D01*
X44862Y64814D01*
X44912D01*
X44961Y64764D01*
Y64664D01*
X44912Y64614D01*
X44812D01*
X44762Y64664D01*
X39586Y58019D02*
Y58319D01*
X39736D01*
X39786Y58269D01*
Y58169D01*
X39736Y58119D01*
X39586D01*
X39686D02*
X39786Y58019D01*
X39886D02*
X39986D01*
X39936D01*
Y58319D01*
X39886Y58269D01*
X40286Y58019D02*
Y58319D01*
X40136Y58169D01*
X40336D01*
X45747Y58163D02*
Y58463D01*
X45897D01*
X45947Y58413D01*
Y58313D01*
X45897Y58263D01*
X45747D01*
X45847D02*
X45947Y58163D01*
X46047D02*
X46147D01*
X46097D01*
Y58463D01*
X46047Y58413D01*
X46297D02*
X46347Y58463D01*
X46447D01*
X46497Y58413D01*
Y58363D01*
X46447Y58313D01*
X46397D01*
X46447D01*
X46497Y58263D01*
Y58213D01*
X46447Y58163D01*
X46347D01*
X46297Y58213D01*
X31941Y61239D02*
X31641D01*
Y61389D01*
X31691Y61439D01*
X31791D01*
X31841Y61389D01*
Y61239D01*
Y61339D02*
X31941Y61439D01*
Y61539D02*
Y61639D01*
Y61589D01*
X31641D01*
X31691Y61539D01*
X31941Y61989D02*
Y61789D01*
X31741Y61989D01*
X31691D01*
X31641Y61939D01*
Y61839D01*
X31691Y61789D01*
X32258Y59380D02*
X31958D01*
Y59530D01*
X32008Y59580D01*
X32108D01*
X32158Y59530D01*
Y59380D01*
Y59480D02*
X32258Y59580D01*
Y59680D02*
Y59780D01*
Y59730D01*
X31958D01*
X32008Y59680D01*
X32258Y59930D02*
Y60030D01*
Y59980D01*
X31958D01*
X32008Y59930D01*
X34074Y56051D02*
Y56351D01*
X34224D01*
X34274Y56301D01*
Y56201D01*
X34224Y56151D01*
X34074D01*
X34174D02*
X34274Y56051D01*
X34374D02*
X34474D01*
X34424D01*
Y56351D01*
X34374Y56301D01*
X34624D02*
X34674Y56351D01*
X34774D01*
X34824Y56301D01*
Y56101D01*
X34774Y56051D01*
X34674D01*
X34624Y56101D01*
Y56301D01*
X43942Y60118D02*
X43642D01*
Y60268D01*
X43692Y60318D01*
X43792D01*
X43842Y60268D01*
Y60118D01*
Y60218D02*
X43942Y60318D01*
X43892Y60418D02*
X43942Y60468D01*
Y60568D01*
X43892Y60618D01*
X43692D01*
X43642Y60568D01*
Y60468D01*
X43692Y60418D01*
X43742D01*
X43792Y60468D01*
Y60618D01*
X38831Y65597D02*
X38531D01*
Y65746D01*
X38581Y65796D01*
X38681D01*
X38731Y65746D01*
Y65597D01*
Y65697D02*
X38831Y65796D01*
X38581Y65896D02*
X38531Y65946D01*
Y66046D01*
X38581Y66096D01*
X38631D01*
X38681Y66046D01*
X38731Y66096D01*
X38781D01*
X38831Y66046D01*
Y65946D01*
X38781Y65896D01*
X38731D01*
X38681Y65946D01*
X38631Y65896D01*
X38581D01*
X38681Y65946D02*
Y66046D01*
X34199Y64811D02*
Y65111D01*
X34349D01*
X34399Y65061D01*
Y64961D01*
X34349Y64911D01*
X34199D01*
X34299D02*
X34399Y64811D01*
X34499Y65111D02*
X34699D01*
Y65061D01*
X34499Y64861D01*
Y64811D01*
X38431Y56445D02*
Y56744D01*
X38581D01*
X38631Y56694D01*
Y56594D01*
X38581Y56544D01*
X38431D01*
X38531D02*
X38631Y56445D01*
X38931Y56744D02*
X38831Y56694D01*
X38731Y56594D01*
Y56495D01*
X38781Y56445D01*
X38881D01*
X38931Y56495D01*
Y56544D01*
X38881Y56594D01*
X38731D01*
X34199Y65303D02*
Y65603D01*
X34349D01*
X34399Y65553D01*
Y65453D01*
X34349Y65403D01*
X34199D01*
X34299D02*
X34399Y65303D01*
X34649D02*
Y65603D01*
X34499Y65453D01*
X34699D01*
X34199Y57035D02*
Y57335D01*
X34349D01*
X34399Y57285D01*
Y57185D01*
X34349Y57135D01*
X34199D01*
X34299D02*
X34399Y57035D01*
X34499Y57285D02*
X34549Y57335D01*
X34649D01*
X34699Y57285D01*
Y57235D01*
X34649Y57185D01*
X34599D01*
X34649D01*
X34699Y57135D01*
Y57085D01*
X34649Y57035D01*
X34549D01*
X34499Y57085D01*
X38536Y63431D02*
X38236D01*
Y63581D01*
X38286Y63631D01*
X38386D01*
X38436Y63581D01*
Y63431D01*
Y63531D02*
X38536Y63631D01*
Y63931D02*
Y63731D01*
X38336Y63931D01*
X38286D01*
X38236Y63881D01*
Y63781D01*
X38286Y63731D01*
X38437Y64564D02*
X38137D01*
Y64714D01*
X38187Y64764D01*
X38287D01*
X38337Y64714D01*
Y64564D01*
Y64664D02*
X38437Y64764D01*
Y64864D02*
Y64964D01*
Y64914D01*
X38137D01*
X38187Y64864D01*
X27206Y59594D02*
Y59894D01*
X27356D01*
X27406Y59844D01*
Y59744D01*
X27356Y59694D01*
X27206D01*
X27506Y59894D02*
X27706D01*
X27606D01*
Y59594D01*
X28006Y59844D02*
X27956Y59894D01*
X27856D01*
X27806Y59844D01*
Y59644D01*
X27856Y59594D01*
X27956D01*
X28006Y59644D01*
X28306Y59594D02*
X28106D01*
X28306Y59794D01*
Y59844D01*
X28256Y59894D01*
X28156D01*
X28106Y59844D01*
X27354Y57330D02*
Y57630D01*
X27504D01*
X27554Y57580D01*
Y57480D01*
X27504Y57430D01*
X27354D01*
X27654Y57630D02*
X27854D01*
X27754D01*
Y57330D01*
X28154Y57580D02*
X28104Y57630D01*
X28004D01*
X27954Y57580D01*
Y57380D01*
X28004Y57330D01*
X28104D01*
X28154Y57380D01*
X28254Y57330D02*
X28354D01*
X28304D01*
Y57630D01*
X28254Y57580D01*
X35725Y72021D02*
X35625D01*
X35675D01*
Y71771D01*
X35625Y71721D01*
X35575D01*
X35525Y71771D01*
X36025Y71721D02*
X35825D01*
X36025Y71921D01*
Y71971D01*
X35975Y72021D01*
X35875D01*
X35825Y71971D01*
X35746Y53004D02*
X35846D01*
X35796D01*
Y52704D01*
X35746D01*
X35846D01*
X35996D02*
Y53004D01*
X36195Y52704D01*
Y53004D01*
X36295D02*
Y52704D01*
X36445D01*
X36495Y52754D01*
Y52954D01*
X36445Y53004D01*
X36295D01*
X36595Y52704D02*
X36695D01*
X36645D01*
Y53004D01*
X36595Y52954D01*
X25047Y49206D02*
X25347D01*
Y49356D01*
X25297Y49406D01*
X25097D01*
X25047Y49356D01*
Y49206D01*
Y49506D02*
Y49706D01*
X25097D01*
X25297Y49506D01*
X25347D01*
Y49706D01*
Y50006D02*
Y49806D01*
X25147Y50006D01*
X25097D01*
X25047Y49956D01*
Y49856D01*
X25097Y49806D01*
X29771Y51422D02*
X30071D01*
Y51572D01*
X30021Y51622D01*
X29821D01*
X29771Y51572D01*
Y51422D01*
Y51722D02*
Y51922D01*
X29821D01*
X30021Y51722D01*
X30071D01*
Y51922D01*
Y52022D02*
Y52122D01*
Y52072D01*
X29771D01*
X29821Y52022D01*
X29081Y57827D02*
Y57527D01*
X29231D01*
X29281Y57577D01*
Y57777D01*
X29231Y57827D01*
X29081D01*
X29381Y57577D02*
X29431Y57527D01*
X29531D01*
X29581Y57577D01*
Y57777D01*
X29531Y57827D01*
X29431D01*
X29381Y57777D01*
Y57727D01*
X29431Y57677D01*
X29581D01*
X35085Y52217D02*
Y51917D01*
X35235D01*
X35285Y51967D01*
Y52167D01*
X35235Y52217D01*
X35085D01*
X35385Y52167D02*
X35435Y52217D01*
X35535D01*
X35585Y52167D01*
Y52117D01*
X35535Y52067D01*
X35585Y52017D01*
Y51967D01*
X35535Y51917D01*
X35435D01*
X35385Y51967D01*
Y52017D01*
X35435Y52067D01*
X35385Y52117D01*
Y52167D01*
X35435Y52067D02*
X35535D01*
X24838Y48548D02*
Y48248D01*
X24988D01*
X25038Y48298D01*
Y48498D01*
X24988Y48548D01*
X24838D01*
X25138D02*
X25338D01*
Y48498D01*
X25138Y48298D01*
Y48248D01*
X60613Y52118D02*
Y51819D01*
X60763D01*
X60813Y51869D01*
Y52068D01*
X60763Y52118D01*
X60613D01*
X61113D02*
X61013Y52068D01*
X60913Y51968D01*
Y51869D01*
X60963Y51819D01*
X61063D01*
X61113Y51869D01*
Y51919D01*
X61063Y51968D01*
X60913D01*
X29403Y54823D02*
Y54523D01*
X29553D01*
X29603Y54573D01*
Y54773D01*
X29553Y54823D01*
X29403D01*
X29903D02*
X29703D01*
Y54673D01*
X29803Y54723D01*
X29853D01*
X29903Y54673D01*
Y54573D01*
X29853Y54523D01*
X29753D01*
X29703Y54573D01*
X60292Y71790D02*
X59992D01*
Y71640D01*
X60042Y71590D01*
X60242D01*
X60292Y71640D01*
Y71790D01*
X59992Y71340D02*
X60292D01*
X60142Y71490D01*
Y71290D01*
X29354Y56356D02*
Y56056D01*
X29504D01*
X29554Y56106D01*
Y56306D01*
X29504Y56356D01*
X29354D01*
X29654Y56306D02*
X29704Y56356D01*
X29804D01*
X29854Y56306D01*
Y56256D01*
X29804Y56206D01*
X29754D01*
X29804D01*
X29854Y56156D01*
Y56106D01*
X29804Y56056D01*
X29704D01*
X29654Y56106D01*
X35774Y57237D02*
Y56937D01*
X35924D01*
X35974Y56987D01*
Y57187D01*
X35924Y57237D01*
X35774D01*
X36274Y56937D02*
X36074D01*
X36274Y57137D01*
Y57187D01*
X36224Y57237D01*
X36124D01*
X36074Y57187D01*
X38481Y57237D02*
Y56937D01*
X38631D01*
X38681Y56987D01*
Y57187D01*
X38631Y57237D01*
X38481D01*
X38781Y56937D02*
X38881D01*
X38831D01*
Y57237D01*
X38781Y57187D01*
X28449Y76857D02*
X28399Y76807D01*
Y76708D01*
X28449Y76658D01*
X28649D01*
X28699Y76708D01*
Y76807D01*
X28649Y76857D01*
X28699Y76957D02*
X28399D01*
X28699Y77157D01*
X28399D01*
Y77457D02*
X28449Y77357D01*
X28549Y77257D01*
X28649D01*
X28699Y77307D01*
Y77407D01*
X28649Y77457D01*
X28599D01*
X28549Y77407D01*
Y77257D01*
X22143Y71852D02*
X22093Y71902D01*
X21993D01*
X21943Y71852D01*
Y71652D01*
X21993Y71602D01*
X22093D01*
X22143Y71652D01*
X22243Y71602D02*
Y71902D01*
X22442Y71602D01*
Y71902D01*
X22742D02*
X22542D01*
Y71752D01*
X22642Y71802D01*
X22692D01*
X22742Y71752D01*
Y71652D01*
X22692Y71602D01*
X22592D01*
X22542Y71652D01*
X21847Y77462D02*
X21797Y77512D01*
X21697D01*
X21647Y77462D01*
Y77262D01*
X21697Y77212D01*
X21797D01*
X21847Y77262D01*
X21947Y77212D02*
Y77512D01*
X22147Y77212D01*
Y77512D01*
X22397Y77212D02*
Y77512D01*
X22247Y77362D01*
X22447D01*
X34446Y78129D02*
X34396Y78079D01*
Y77979D01*
X34446Y77929D01*
X34646D01*
X34696Y77979D01*
Y78079D01*
X34646Y78129D01*
X34696Y78229D02*
X34396D01*
X34696Y78429D01*
X34396D01*
X34446Y78529D02*
X34396Y78579D01*
Y78679D01*
X34446Y78729D01*
X34496D01*
X34546Y78679D01*
Y78629D01*
Y78679D01*
X34596Y78729D01*
X34646D01*
X34696Y78679D01*
Y78579D01*
X34646Y78529D01*
X42303Y78241D02*
X42253Y78191D01*
Y78091D01*
X42303Y78041D01*
X42503D01*
X42553Y78091D01*
Y78191D01*
X42503Y78241D01*
X42553Y78341D02*
X42253D01*
X42553Y78541D01*
X42253D01*
X42553Y78641D02*
Y78741D01*
Y78691D01*
X42253D01*
X42303Y78641D01*
X38655Y48094D02*
X38605Y48144D01*
X38505D01*
X38455Y48094D01*
Y47894D01*
X38505Y47844D01*
X38605D01*
X38655Y47894D01*
X38755Y48144D02*
X38855D01*
X38805D01*
Y47844D01*
X38755D01*
X38855D01*
X39204Y48144D02*
X39004D01*
Y47994D01*
X39104Y48044D01*
X39154D01*
X39204Y47994D01*
Y47894D01*
X39154Y47844D01*
X39054D01*
X39004Y47894D01*
X47842Y60337D02*
X47792Y60387D01*
X47692D01*
X47642Y60337D01*
Y60137D01*
X47692Y60087D01*
X47792D01*
X47842Y60137D01*
X47942Y60387D02*
X48042D01*
X47992D01*
Y60087D01*
X47942D01*
X48042D01*
X48342D02*
Y60387D01*
X48192Y60237D01*
X48392D01*
X36711Y64589D02*
X36661Y64539D01*
Y64439D01*
X36711Y64389D01*
X36911D01*
X36961Y64439D01*
Y64539D01*
X36911Y64589D01*
X36661Y64689D02*
Y64789D01*
Y64739D01*
X36961D01*
Y64689D01*
Y64789D01*
X36711Y64939D02*
X36661Y64989D01*
Y65089D01*
X36711Y65139D01*
X36761D01*
X36811Y65089D01*
Y65039D01*
Y65089D01*
X36861Y65139D01*
X36911D01*
X36961Y65089D01*
Y64989D01*
X36911Y64939D01*
X44827Y60337D02*
X44777Y60387D01*
X44677D01*
X44627Y60337D01*
Y60137D01*
X44677Y60087D01*
X44777D01*
X44827Y60137D01*
X44927Y60387D02*
X45027D01*
X44977D01*
Y60087D01*
X44927D01*
X45027D01*
X45377D02*
X45177D01*
X45377Y60287D01*
Y60337D01*
X45327Y60387D01*
X45227D01*
X45177Y60337D01*
X39270Y64639D02*
X39220Y64589D01*
Y64489D01*
X39270Y64439D01*
X39470D01*
X39520Y64489D01*
Y64589D01*
X39470Y64639D01*
X39220Y64739D02*
Y64839D01*
Y64789D01*
X39520D01*
Y64739D01*
Y64839D01*
Y64989D02*
Y65089D01*
Y65039D01*
X39220D01*
X39270Y64989D01*
X21155Y69258D02*
X21105Y69308D01*
X21005D01*
X20955Y69258D01*
Y69058D01*
X21005Y69008D01*
X21105D01*
X21155Y69058D01*
X21405Y69008D02*
Y69308D01*
X21255Y69158D01*
X21455D01*
X21555Y69008D02*
X21655D01*
X21605D01*
Y69308D01*
X21555Y69258D01*
X35257Y75111D02*
X35207Y75161D01*
X35107D01*
X35057Y75111D01*
Y74911D01*
X35107Y74861D01*
X35207D01*
X35257Y74911D01*
X35507Y74861D02*
Y75161D01*
X35357Y75011D01*
X35557D01*
X35657Y75111D02*
X35707Y75161D01*
X35807D01*
X35857Y75111D01*
Y74911D01*
X35807Y74861D01*
X35707D01*
X35657Y74911D01*
Y75111D01*
X37892Y70277D02*
X37842Y70327D01*
X37742D01*
X37692Y70277D01*
Y70077D01*
X37742Y70027D01*
X37842D01*
X37892Y70077D01*
X37992Y70277D02*
X38042Y70327D01*
X38142D01*
X38191Y70277D01*
Y70227D01*
X38142Y70177D01*
X38092D01*
X38142D01*
X38191Y70127D01*
Y70077D01*
X38142Y70027D01*
X38042D01*
X37992Y70077D01*
X38291D02*
X38341Y70027D01*
X38441D01*
X38491Y70077D01*
Y70277D01*
X38441Y70327D01*
X38341D01*
X38291Y70277D01*
Y70227D01*
X38341Y70177D01*
X38491D01*
X41873Y70319D02*
X41823Y70369D01*
X41723D01*
X41673Y70319D01*
Y70120D01*
X41723Y70070D01*
X41823D01*
X41873Y70120D01*
X41973Y70319D02*
X42023Y70369D01*
X42123D01*
X42173Y70319D01*
Y70269D01*
X42123Y70219D01*
X42073D01*
X42123D01*
X42173Y70170D01*
Y70120D01*
X42123Y70070D01*
X42023D01*
X41973Y70120D01*
X42273Y70319D02*
X42323Y70369D01*
X42423D01*
X42473Y70319D01*
Y70269D01*
X42423Y70219D01*
X42473Y70170D01*
Y70120D01*
X42423Y70070D01*
X42323D01*
X42273Y70120D01*
Y70170D01*
X42323Y70219D01*
X42273Y70269D01*
Y70319D01*
X42323Y70219D02*
X42423D01*
X36050Y68425D02*
X36000Y68375D01*
Y68275D01*
X36050Y68225D01*
X36250D01*
X36300Y68275D01*
Y68375D01*
X36250Y68425D01*
X36050Y68525D02*
X36000Y68575D01*
Y68675D01*
X36050Y68725D01*
X36100D01*
X36150Y68675D01*
Y68625D01*
Y68675D01*
X36200Y68725D01*
X36250D01*
X36300Y68675D01*
Y68575D01*
X36250Y68525D01*
X36000Y68825D02*
Y69025D01*
X36050D01*
X36250Y68825D01*
X36300D01*
X27736Y67544D02*
X27686Y67494D01*
Y67394D01*
X27736Y67345D01*
X27936D01*
X27986Y67394D01*
Y67494D01*
X27936Y67544D01*
X27736Y67644D02*
X27686Y67694D01*
Y67794D01*
X27736Y67844D01*
X27786D01*
X27836Y67794D01*
Y67744D01*
Y67794D01*
X27886Y67844D01*
X27936D01*
X27986Y67794D01*
Y67694D01*
X27936Y67644D01*
X27686Y68144D02*
X27736Y68044D01*
X27836Y67944D01*
X27936D01*
X27986Y67994D01*
Y68094D01*
X27936Y68144D01*
X27886D01*
X27836Y68094D01*
Y67944D01*
X42123Y49706D02*
X42073Y49756D01*
X41973D01*
X41923Y49706D01*
Y49506D01*
X41973Y49456D01*
X42073D01*
X42123Y49506D01*
X42223Y49706D02*
X42273Y49756D01*
X42373D01*
X42423Y49706D01*
Y49656D01*
X42373Y49606D01*
X42323D01*
X42373D01*
X42423Y49556D01*
Y49506D01*
X42373Y49456D01*
X42273D01*
X42223Y49506D01*
X42723Y49756D02*
X42523D01*
Y49606D01*
X42623Y49656D01*
X42673D01*
X42723Y49606D01*
Y49506D01*
X42673Y49456D01*
X42573D01*
X42523Y49506D01*
X35464Y54367D02*
X35414Y54317D01*
Y54217D01*
X35464Y54167D01*
X35664D01*
X35714Y54217D01*
Y54317D01*
X35664Y54367D01*
X35464Y54467D02*
X35414Y54517D01*
Y54617D01*
X35464Y54667D01*
X35514D01*
X35564Y54617D01*
Y54567D01*
Y54617D01*
X35614Y54667D01*
X35664D01*
X35714Y54617D01*
Y54517D01*
X35664Y54467D01*
X35714Y54917D02*
X35414D01*
X35564Y54767D01*
Y54967D01*
X42123Y51872D02*
X42073Y51922D01*
X41973D01*
X41923Y51872D01*
Y51672D01*
X41973Y51622D01*
X42073D01*
X42123Y51672D01*
X42223Y51872D02*
X42273Y51922D01*
X42373D01*
X42423Y51872D01*
Y51822D01*
X42373Y51772D01*
X42323D01*
X42373D01*
X42423Y51722D01*
Y51672D01*
X42373Y51622D01*
X42273D01*
X42223Y51672D01*
X42523Y51872D02*
X42573Y51922D01*
X42673D01*
X42723Y51872D01*
Y51672D01*
X42673Y51622D01*
X42573D01*
X42523Y51672D01*
Y51872D01*
X33630Y54396D02*
X33580Y54346D01*
Y54246D01*
X33630Y54196D01*
X33830D01*
X33880Y54246D01*
Y54346D01*
X33830Y54396D01*
X33880Y54696D02*
Y54496D01*
X33680Y54696D01*
X33630D01*
X33580Y54646D01*
Y54546D01*
X33630Y54496D01*
X33830Y54796D02*
X33880Y54846D01*
Y54946D01*
X33830Y54996D01*
X33630D01*
X33580Y54946D01*
Y54846D01*
X33630Y54796D01*
X33680D01*
X33730Y54846D01*
Y54996D01*
X34546Y49505D02*
X34496Y49455D01*
Y49355D01*
X34546Y49305D01*
X34746D01*
X34796Y49355D01*
Y49455D01*
X34746Y49505D01*
X34796Y49805D02*
Y49605D01*
X34596Y49805D01*
X34546D01*
X34496Y49755D01*
Y49655D01*
X34546Y49605D01*
Y49905D02*
X34496Y49955D01*
Y50055D01*
X34546Y50105D01*
X34596D01*
X34646Y50055D01*
X34696Y50105D01*
X34746D01*
X34796Y50055D01*
Y49955D01*
X34746Y49905D01*
X34696D01*
X34646Y49955D01*
X34596Y49905D01*
X34546D01*
X34646Y49955D02*
Y50055D01*
X30509Y51379D02*
X30459Y51429D01*
X30359D01*
X30309Y51379D01*
Y51180D01*
X30359Y51130D01*
X30459D01*
X30509Y51180D01*
X30809Y51130D02*
X30609D01*
X30809Y51330D01*
Y51379D01*
X30759Y51429D01*
X30659D01*
X30609Y51379D01*
X30909Y51429D02*
X31109D01*
Y51379D01*
X30909Y51180D01*
Y51130D01*
X32774Y50784D02*
X32724Y50734D01*
Y50634D01*
X32774Y50584D01*
X32974D01*
X33024Y50634D01*
Y50734D01*
X32974Y50784D01*
X33024Y51084D02*
Y50884D01*
X32824Y51084D01*
X32774D01*
X32724Y51034D01*
Y50934D01*
X32774Y50884D01*
X32724Y51384D02*
X32774Y51284D01*
X32874Y51184D01*
X32974D01*
X33024Y51234D01*
Y51334D01*
X32974Y51384D01*
X32924D01*
X32874Y51334D01*
Y51184D01*
X31790Y65056D02*
X31740Y65006D01*
Y64906D01*
X31790Y64856D01*
X31990D01*
X32040Y64906D01*
Y65006D01*
X31990Y65056D01*
X32040Y65356D02*
Y65156D01*
X31840Y65356D01*
X31790D01*
X31740Y65306D01*
Y65206D01*
X31790Y65156D01*
X31740Y65656D02*
Y65456D01*
X31890D01*
X31840Y65556D01*
Y65606D01*
X31890Y65656D01*
X31990D01*
X32040Y65606D01*
Y65506D01*
X31990Y65456D01*
X43026Y75731D02*
X42976Y75681D01*
Y75581D01*
X43026Y75531D01*
X43226D01*
X43276Y75581D01*
Y75681D01*
X43226Y75731D01*
X43276Y76030D02*
Y75830D01*
X43076Y76030D01*
X43026D01*
X42976Y75980D01*
Y75880D01*
X43026Y75830D01*
X43276Y76280D02*
X42976D01*
X43126Y76130D01*
Y76330D01*
X44105Y56850D02*
X44055Y56900D01*
X43955D01*
X43905Y56850D01*
Y56650D01*
X43955Y56600D01*
X44055D01*
X44105Y56650D01*
X44405Y56600D02*
X44205D01*
X44405Y56800D01*
Y56850D01*
X44355Y56900D01*
X44255D01*
X44205Y56850D01*
X44505D02*
X44555Y56900D01*
X44655D01*
X44705Y56850D01*
Y56800D01*
X44655Y56750D01*
X44605D01*
X44655D01*
X44705Y56700D01*
Y56650D01*
X44655Y56600D01*
X44555D01*
X44505Y56650D01*
X49800Y62246D02*
X49750Y62296D01*
X49650D01*
X49600Y62246D01*
Y62046D01*
X49650Y61996D01*
X49750D01*
X49800Y62046D01*
X50100Y61996D02*
X49900D01*
X50100Y62196D01*
Y62246D01*
X50050Y62296D01*
X49950D01*
X49900Y62246D01*
X50400Y61996D02*
X50200D01*
X50400Y62196D01*
Y62246D01*
X50350Y62296D01*
X50250D01*
X50200Y62246D01*
X49016Y57877D02*
X48966Y57927D01*
X48867D01*
X48817Y57877D01*
Y57677D01*
X48867Y57627D01*
X48966D01*
X49016Y57677D01*
X49316Y57627D02*
X49116D01*
X49316Y57827D01*
Y57877D01*
X49266Y57927D01*
X49166D01*
X49116Y57877D01*
X49416Y57627D02*
X49516D01*
X49466D01*
Y57927D01*
X49416Y57877D01*
X46800Y56729D02*
X46750Y56679D01*
Y56580D01*
X46800Y56530D01*
X47000D01*
X47050Y56580D01*
Y56679D01*
X47000Y56729D01*
X47050Y57029D02*
Y56829D01*
X46850Y57029D01*
X46800D01*
X46750Y56979D01*
Y56879D01*
X46800Y56829D01*
Y57129D02*
X46750Y57179D01*
Y57279D01*
X46800Y57329D01*
X47000D01*
X47050Y57279D01*
Y57179D01*
X47000Y57129D01*
X46800D01*
X36711Y65573D02*
X36661Y65523D01*
Y65423D01*
X36711Y65373D01*
X36911D01*
X36961Y65423D01*
Y65523D01*
X36911Y65573D01*
X36961Y65673D02*
Y65773D01*
Y65723D01*
X36661D01*
X36711Y65673D01*
Y65923D02*
X36661Y65973D01*
Y66073D01*
X36711Y66123D01*
X36761D01*
X36811Y66073D01*
X36861Y66123D01*
X36911D01*
X36961Y66073D01*
Y65973D01*
X36911Y65923D01*
X36861D01*
X36811Y65973D01*
X36761Y65923D01*
X36711D01*
X36811Y65973D02*
Y66073D01*
X37128Y57679D02*
X37078Y57729D01*
X36978D01*
X36928Y57679D01*
Y57479D01*
X36978Y57429D01*
X37078D01*
X37128Y57479D01*
X37228Y57429D02*
X37328D01*
X37278D01*
Y57729D01*
X37228Y57679D01*
X37478Y57729D02*
X37678D01*
Y57679D01*
X37478Y57479D01*
Y57429D01*
X47463Y64864D02*
X47413Y64914D01*
X47313D01*
X47263Y64864D01*
Y64664D01*
X47313Y64614D01*
X47413D01*
X47463Y64664D01*
X47563Y64614D02*
X47663D01*
X47613D01*
Y64914D01*
X47563Y64864D01*
X48013Y64914D02*
X47913Y64864D01*
X47813Y64764D01*
Y64664D01*
X47863Y64614D01*
X47963D01*
X48013Y64664D01*
Y64714D01*
X47963Y64764D01*
X47813D01*
X36416Y63605D02*
X36366Y63555D01*
Y63455D01*
X36416Y63405D01*
X36616D01*
X36666Y63455D01*
Y63555D01*
X36616Y63605D01*
X36666Y63705D02*
Y63805D01*
Y63755D01*
X36366D01*
X36416Y63705D01*
X36366Y64154D02*
Y63954D01*
X36516D01*
X36466Y64054D01*
Y64104D01*
X36516Y64154D01*
X36616D01*
X36666Y64104D01*
Y64004D01*
X36616Y63954D01*
X48365Y56472D02*
X48315Y56422D01*
Y56322D01*
X48365Y56272D01*
X48565D01*
X48615Y56322D01*
Y56422D01*
X48565Y56472D01*
X48615Y56572D02*
Y56672D01*
Y56622D01*
X48315D01*
X48365Y56572D01*
X48615Y56972D02*
X48315D01*
X48465Y56822D01*
Y57022D01*
X32896Y56793D02*
X32846Y56843D01*
X32746D01*
X32696Y56793D01*
Y56593D01*
X32746Y56543D01*
X32846D01*
X32896Y56593D01*
X32996Y56543D02*
X33096D01*
X33046D01*
Y56843D01*
X32996Y56793D01*
X33246D02*
X33296Y56843D01*
X33396D01*
X33446Y56793D01*
Y56743D01*
X33396Y56693D01*
X33346D01*
X33396D01*
X33446Y56643D01*
Y56593D01*
X33396Y56543D01*
X33296D01*
X33246Y56593D01*
X45741Y64765D02*
X45691Y64815D01*
X45591D01*
X45541Y64765D01*
Y64565D01*
X45591Y64515D01*
X45691D01*
X45741Y64565D01*
X45841Y64515D02*
X45941D01*
X45891D01*
Y64815D01*
X45841Y64765D01*
X46091Y64515D02*
X46191D01*
X46141D01*
Y64815D01*
X46091Y64765D01*
X44757Y57364D02*
X44707Y57414D01*
X44607D01*
X44557Y57364D01*
Y57164D01*
X44607Y57114D01*
X44707D01*
X44757Y57164D01*
X44857Y57114D02*
X44957D01*
X44907D01*
Y57414D01*
X44857Y57364D01*
X45107D02*
X45157Y57414D01*
X45257D01*
X45307Y57364D01*
Y57164D01*
X45257Y57114D01*
X45157D01*
X45107Y57164D01*
Y57364D01*
X43721Y57324D02*
X43671Y57374D01*
X43571D01*
X43521Y57324D01*
Y57124D01*
X43571Y57074D01*
X43671D01*
X43721Y57124D01*
X43821D02*
X43871Y57074D01*
X43971D01*
X44021Y57124D01*
Y57324D01*
X43971Y57374D01*
X43871D01*
X43821Y57324D01*
Y57274D01*
X43871Y57224D01*
X44021D01*
X39623Y63635D02*
X39573Y63585D01*
Y63485D01*
X39623Y63435D01*
X39823D01*
X39873Y63485D01*
Y63585D01*
X39823Y63635D01*
X39573Y63735D02*
Y63935D01*
X39623D01*
X39823Y63735D01*
X39873D01*
X39911Y57777D02*
X39861Y57827D01*
X39761D01*
X39711Y57777D01*
Y57577D01*
X39761Y57527D01*
X39861D01*
X39911Y57577D01*
X40211Y57827D02*
X40111Y57777D01*
X40011Y57677D01*
Y57577D01*
X40061Y57527D01*
X40161D01*
X40211Y57577D01*
Y57627D01*
X40161Y57677D01*
X40011D01*
X44537Y65356D02*
X44487Y65406D01*
X44387D01*
X44337Y65356D01*
Y65156D01*
X44387Y65106D01*
X44487D01*
X44537Y65156D01*
X44837Y65406D02*
X44637D01*
Y65256D01*
X44737Y65306D01*
X44787D01*
X44837Y65256D01*
Y65156D01*
X44787Y65106D01*
X44687D01*
X44637Y65156D01*
X38975Y63631D02*
X38925Y63581D01*
Y63481D01*
X38975Y63431D01*
X39175D01*
X39225Y63481D01*
Y63581D01*
X39175Y63631D01*
X39225Y63881D02*
X38925D01*
X39075Y63731D01*
Y63931D01*
X34399Y56793D02*
X34349Y56843D01*
X34249D01*
X34199Y56793D01*
Y56593D01*
X34249Y56543D01*
X34349D01*
X34399Y56593D01*
X34499Y56793D02*
X34549Y56843D01*
X34649D01*
X34699Y56793D01*
Y56743D01*
X34649Y56693D01*
X34599D01*
X34649D01*
X34699Y56643D01*
Y56593D01*
X34649Y56543D01*
X34549D01*
X34499Y56593D01*
X45369Y56583D02*
X45319Y56533D01*
Y56433D01*
X45369Y56383D01*
X45568D01*
X45618Y56433D01*
Y56533D01*
X45568Y56583D01*
X45618Y56883D02*
Y56683D01*
X45419Y56883D01*
X45369D01*
X45319Y56833D01*
Y56733D01*
X45369Y56683D01*
X20076Y69010D02*
Y68710D01*
X20226D01*
X20276Y68760D01*
Y68810D01*
X20226Y68860D01*
X20076D01*
X20226D01*
X20276Y68910D01*
Y68960D01*
X20226Y69010D01*
X20076D01*
X20376Y68710D02*
X20476D01*
X20426D01*
Y69010D01*
X20376Y68960D01*
D20*
X39824Y71239D02*
X40284D01*
X39824Y70659D02*
X40284D01*
D21*
X31805Y47868D02*
X31636D01*
X31721Y47952D02*
Y47784D01*
X30792Y70268D02*
X31066D01*
X30929Y70131D02*
Y70406D01*
X40098Y55294D02*
Y55020D01*
X39961Y55157D02*
X40235D01*
X39704Y55294D02*
Y55020D01*
X39567Y55157D02*
X39841D01*
X40393Y54703D02*
Y54429D01*
X40256Y54566D02*
X40530D01*
M02*
