G04*
G04 #@! TF.GenerationSoftware,Altium Limited,Altium Designer,25.8.1 (18)*
G04*
G04 Layer_Color=128*
%FSLAX24Y24*%
%MOIN*%
G70*
G04*
G04 #@! TF.SameCoordinates,CAC9E776-8FA5-4F56-8978-DDDC26C1521C*
G04*
G04*
G04 #@! TF.FilePolarity,Positive*
G04*
G01*
G75*
%ADD116C,0.0020*%
D116*
X65170Y67520D02*
X65570D01*
X65370Y67320D02*
Y67720D01*
X63170Y67520D02*
X63570D01*
X63370Y67320D02*
Y67720D01*
X65170Y48228D02*
X65570D01*
X65370Y48028D02*
Y48428D01*
X63170Y48228D02*
X63570D01*
X63370Y48028D02*
Y48428D01*
X65170Y73031D02*
X65570D01*
X65370Y72831D02*
Y73231D01*
X63170Y73031D02*
X63570D01*
X63370Y72831D02*
Y73231D01*
X65272Y53761D02*
X65672D01*
X65472Y53561D02*
Y53961D01*
X63272Y53761D02*
X63672D01*
X63472Y53561D02*
Y53961D01*
X65272Y62029D02*
X65672D01*
X65472Y61829D02*
Y62229D01*
X63272Y62029D02*
X63672D01*
X63472Y61829D02*
Y62229D01*
X65170Y78543D02*
X65570D01*
X65370Y78343D02*
Y78743D01*
X63170Y78543D02*
X63570D01*
X63370Y78343D02*
Y78743D01*
X56988Y65551D02*
X58760D01*
X57874Y64665D02*
Y66437D01*
X56988Y60433D02*
X58760D01*
X57874Y59547D02*
Y61319D01*
X65272Y59273D02*
X65672D01*
X65472Y59073D02*
Y59473D01*
X63272Y59273D02*
X63672D01*
X63472Y59073D02*
Y59473D01*
X65170Y64764D02*
X65570D01*
X65370Y64564D02*
Y64964D01*
X63170Y64764D02*
X63570D01*
X63370Y64564D02*
Y64964D01*
X65170Y70276D02*
X65570D01*
X65370Y70076D02*
Y70476D01*
X63170Y70276D02*
X63570D01*
X63370Y70076D02*
Y70476D01*
X65170Y50984D02*
X65570D01*
X65370Y50784D02*
Y51184D01*
X63170Y50984D02*
X63570D01*
X63370Y50784D02*
Y51184D01*
X65272Y56517D02*
X65672D01*
X65472Y56317D02*
Y56717D01*
X63272Y56517D02*
X63672D01*
X63472Y56317D02*
Y56717D01*
X65170Y75787D02*
X65570D01*
X65370Y75587D02*
Y75987D01*
X63170Y75787D02*
X63570D01*
X63370Y75587D02*
Y75987D01*
X30197Y62008D02*
X30610D01*
X30404Y61801D02*
Y62215D01*
X30197Y63008D02*
X30610D01*
X30404Y62801D02*
Y63215D01*
X30197Y64008D02*
X30610D01*
X30404Y63801D02*
Y64215D01*
X30197Y65008D02*
X30610D01*
X30404Y64801D02*
Y65215D01*
X30197Y66008D02*
X30610D01*
X30404Y65801D02*
Y66215D01*
X30197Y67008D02*
X30610D01*
X30404Y66801D02*
Y67215D01*
X24409Y59941D02*
X25984D01*
X25197Y59154D02*
Y60728D01*
X24409Y69075D02*
X25984D01*
X25197Y68287D02*
Y69862D01*
X43681Y74768D02*
X43996D01*
X43839Y74610D02*
Y74925D01*
X43583Y54492D02*
X43898D01*
X43740Y54335D02*
Y54650D01*
X38233Y78329D02*
X38633D01*
X38433Y78129D02*
Y78529D01*
X29389Y78287D02*
X29789D01*
X29589Y78087D02*
Y78487D01*
X28391Y70866D02*
X28791D01*
X28591Y70666D02*
Y71066D01*
X38883Y66929D02*
X39283D01*
X39083Y66729D02*
Y67129D01*
X37883Y66929D02*
X38283D01*
X38083Y66729D02*
Y67129D01*
X29391Y70866D02*
X29791D01*
X29591Y70666D02*
Y71066D01*
X27391Y70866D02*
X27791D01*
X27591Y70666D02*
Y71066D01*
X26391Y70866D02*
X26791D01*
X26591Y70666D02*
Y71066D01*
X25391Y70866D02*
X25791D01*
X25591Y70666D02*
Y71066D01*
X24391Y70866D02*
X24791D01*
X24591Y70666D02*
Y71066D01*
X23391Y70866D02*
X23791D01*
X23591Y70666D02*
Y71066D01*
X22391Y70866D02*
X22791D01*
X22591Y70666D02*
Y71066D01*
X21391Y70866D02*
X21791D01*
X21591Y70666D02*
Y71066D01*
X29284Y73087D02*
X29684D01*
X29484Y72887D02*
Y73287D01*
X29284Y77087D02*
X29684D01*
X29484Y76887D02*
Y77287D01*
X29284Y76087D02*
X29684D01*
X29484Y75887D02*
Y76287D01*
X29284Y75087D02*
X29684D01*
X29484Y74887D02*
Y75287D01*
X29284Y74087D02*
X29684D01*
X29484Y73887D02*
Y74287D01*
X29284Y72087D02*
X29684D01*
X29484Y71887D02*
Y72287D01*
X23000Y49222D02*
X23402D01*
X23201Y49022D02*
Y49423D01*
X23000Y50404D02*
X23402D01*
X23201Y50203D02*
Y50604D01*
X20909Y50069D02*
X22091D01*
X21500Y49478D02*
Y50659D01*
X23000Y51585D02*
X23402D01*
X23201Y51384D02*
Y51785D01*
X23000Y52766D02*
X23402D01*
X23201Y52565D02*
Y52967D01*
X23000Y53947D02*
X23402D01*
X23201Y53746D02*
Y54148D01*
X23000Y55128D02*
X23402D01*
X23201Y54927D02*
Y55329D01*
X23000Y56309D02*
X23402D01*
X23201Y56108D02*
Y56510D01*
X23000Y57490D02*
X23402D01*
X23201Y57289D02*
Y57691D01*
X24181Y49222D02*
X24583D01*
X24382Y49022D02*
Y49423D01*
X24181Y50404D02*
X24583D01*
X24382Y50203D02*
Y50604D01*
X24181Y51585D02*
X24583D01*
X24382Y51384D02*
Y51785D01*
X24181Y52766D02*
X24583D01*
X24382Y52565D02*
Y52967D01*
X24181Y55128D02*
X24583D01*
X24382Y54927D02*
Y55329D01*
X24181Y56309D02*
X24583D01*
X24382Y56108D02*
Y56510D01*
X24181Y57490D02*
X24583D01*
X24382Y57289D02*
Y57691D01*
X24181Y53947D02*
X24583D01*
X24382Y53746D02*
Y54148D01*
X20909Y56644D02*
X22091D01*
X21500Y56053D02*
Y57234D01*
X51414Y50510D02*
X51611D01*
X51512Y50411D02*
Y50608D01*
X51818Y50217D02*
X52014D01*
X51916Y50118D02*
Y50315D01*
X52316Y50217D02*
X52513D01*
X52415Y50118D02*
Y50315D01*
X52720Y50510D02*
X52917D01*
X52818Y50411D02*
Y50608D01*
X52874Y50988D02*
X53071D01*
X52972Y50890D02*
Y51087D01*
X52874Y51512D02*
X53071D01*
X52972Y51413D02*
Y51610D01*
X52874Y52035D02*
X53071D01*
X52972Y51937D02*
Y52134D01*
X52874Y52559D02*
X53071D01*
X52972Y52461D02*
Y52657D01*
X52720Y53033D02*
X52917D01*
X52818Y52935D02*
Y53132D01*
X51818Y53327D02*
X52014D01*
X51916Y53228D02*
Y53425D01*
X52316Y53327D02*
X52513D01*
X52415Y53228D02*
Y53425D01*
X51414Y53033D02*
X51611D01*
X51512Y52935D02*
Y53132D01*
X51260Y50988D02*
X51457D01*
X51358Y50890D02*
Y51087D01*
X51260Y51512D02*
X51457D01*
X51358Y51413D02*
Y51610D01*
X51260Y52035D02*
X51457D01*
X51358Y51937D02*
Y52134D01*
X51260Y52559D02*
X51457D01*
X51358Y52461D02*
Y52657D01*
X51772Y51772D02*
X52559D01*
X52165Y51378D02*
Y52165D01*
X51414Y54447D02*
X51611D01*
X51512Y54348D02*
Y54545D01*
X51818Y54154D02*
X52014D01*
X51916Y54055D02*
Y54252D01*
X52316Y54154D02*
X52513D01*
X52415Y54055D02*
Y54252D01*
X52720Y54447D02*
X52917D01*
X52818Y54348D02*
Y54545D01*
X52874Y54925D02*
X53071D01*
X52972Y54827D02*
Y55024D01*
X52874Y55449D02*
X53071D01*
X52972Y55350D02*
Y55547D01*
X52874Y55972D02*
X53071D01*
X52972Y55874D02*
Y56071D01*
X52874Y56496D02*
X53071D01*
X52972Y56398D02*
Y56594D01*
X52720Y56970D02*
X52917D01*
X52818Y56872D02*
Y57069D01*
X51818Y57264D02*
X52014D01*
X51916Y57165D02*
Y57362D01*
X52316Y57264D02*
X52513D01*
X52415Y57165D02*
Y57362D01*
X51414Y56970D02*
X51611D01*
X51512Y56872D02*
Y57069D01*
X51260Y54925D02*
X51457D01*
X51358Y54827D02*
Y55024D01*
X51260Y55449D02*
X51457D01*
X51358Y55350D02*
Y55547D01*
X51260Y55972D02*
X51457D01*
X51358Y55874D02*
Y56071D01*
X51260Y56496D02*
X51457D01*
X51358Y56398D02*
Y56594D01*
X51772Y55709D02*
X52559D01*
X52165Y55315D02*
Y56102D01*
X43583Y52988D02*
X43898D01*
X43740Y52831D02*
Y53146D01*
X43583Y53740D02*
X43898D01*
X43740Y53583D02*
Y53898D01*
X41233Y78329D02*
X41633D01*
X41433Y78129D02*
Y78529D01*
X40233Y78329D02*
X40633D01*
X40433Y78129D02*
Y78529D01*
X39233Y78329D02*
X39633D01*
X39433Y78129D02*
Y78529D01*
X37233Y78329D02*
X37633D01*
X37433Y78129D02*
Y78529D01*
X36233Y78329D02*
X36633D01*
X36433Y78129D02*
Y78529D01*
X35233Y78329D02*
X35633D01*
X35433Y78129D02*
Y78529D01*
X21389Y78287D02*
X21789D01*
X21589Y78087D02*
Y78487D01*
X22389Y78287D02*
X22789D01*
X22589Y78087D02*
Y78487D01*
X23389Y78287D02*
X23789D01*
X23589Y78087D02*
Y78487D01*
X24389Y78287D02*
X24789D01*
X24589Y78087D02*
Y78487D01*
X25389Y78287D02*
X25789D01*
X25589Y78087D02*
Y78487D01*
X26389Y78287D02*
X26789D01*
X26589Y78087D02*
Y78487D01*
X28389Y78287D02*
X28789D01*
X28589Y78087D02*
Y78487D01*
X27389Y78287D02*
X27789D01*
X27589Y78087D02*
Y78487D01*
X51512Y70785D02*
X51709D01*
X51611Y70687D02*
Y70884D01*
X51916Y70492D02*
X52113D01*
X52014Y70394D02*
Y70591D01*
X52415Y70492D02*
X52612D01*
X52513Y70394D02*
Y70591D01*
X52818Y70785D02*
X53015D01*
X52917Y70687D02*
Y70884D01*
X52972Y71264D02*
X53169D01*
X53071Y71165D02*
Y71362D01*
X52972Y71787D02*
X53169D01*
X53071Y71689D02*
Y71886D01*
X52972Y72311D02*
X53169D01*
X53071Y72213D02*
Y72409D01*
X52972Y72835D02*
X53169D01*
X53071Y72736D02*
Y72933D01*
X52818Y73309D02*
X53015D01*
X52917Y73211D02*
Y73407D01*
X51916Y73602D02*
X52113D01*
X52014Y73504D02*
Y73701D01*
X52415Y73602D02*
X52612D01*
X52513Y73504D02*
Y73701D01*
X51512Y73309D02*
X51709D01*
X51611Y73211D02*
Y73407D01*
X51358Y71264D02*
X51555D01*
X51457Y71165D02*
Y71362D01*
X51358Y71787D02*
X51555D01*
X51457Y71689D02*
Y71886D01*
X51358Y72311D02*
X51555D01*
X51457Y72213D02*
Y72409D01*
X51358Y72835D02*
X51555D01*
X51457Y72736D02*
Y72933D01*
X51870Y72047D02*
X52657D01*
X52264Y71654D02*
Y72441D01*
X51512Y74722D02*
X51709D01*
X51611Y74624D02*
Y74821D01*
X51916Y74429D02*
X52113D01*
X52014Y74331D02*
Y74528D01*
X52415Y74429D02*
X52612D01*
X52513Y74331D02*
Y74528D01*
X52818Y74722D02*
X53015D01*
X52917Y74624D02*
Y74821D01*
X52972Y75201D02*
X53169D01*
X53071Y75102D02*
Y75299D01*
X52972Y75724D02*
X53169D01*
X53071Y75626D02*
Y75823D01*
X52972Y76248D02*
X53169D01*
X53071Y76150D02*
Y76346D01*
X52972Y76772D02*
X53169D01*
X53071Y76673D02*
Y76870D01*
X52818Y77246D02*
X53015D01*
X52917Y77148D02*
Y77344D01*
X51916Y77539D02*
X52113D01*
X52014Y77441D02*
Y77638D01*
X52415Y77539D02*
X52612D01*
X52513Y77441D02*
Y77638D01*
X51512Y77246D02*
X51709D01*
X51611Y77148D02*
Y77344D01*
X51358Y75201D02*
X51555D01*
X51457Y75102D02*
Y75299D01*
X51358Y75724D02*
X51555D01*
X51457Y75626D02*
Y75823D01*
X51358Y76248D02*
X51555D01*
X51457Y76150D02*
Y76346D01*
X51358Y76772D02*
X51555D01*
X51457Y76673D02*
Y76870D01*
X51870Y75984D02*
X52657D01*
X52264Y75591D02*
Y76378D01*
X43681Y73264D02*
X43996D01*
X43839Y73106D02*
Y73421D01*
X43681Y74016D02*
X43996D01*
X43839Y73858D02*
Y74173D01*
X44614Y56625D02*
X44774D01*
X44694Y56545D02*
Y56705D01*
X48630Y57338D02*
X48790D01*
X48710Y57258D02*
Y57418D01*
X48101Y57283D02*
X48261D01*
X48181Y57203D02*
Y57363D01*
X41337Y66929D02*
X41497D01*
X41417Y66849D02*
Y67009D01*
X42674Y68071D02*
X42834D01*
X42754Y67991D02*
Y68151D01*
X42909Y69281D02*
X43069D01*
X42989Y69201D02*
Y69361D01*
X41300Y72201D02*
X41460D01*
X41380Y72121D02*
Y72281D01*
X42058Y74374D02*
X42218D01*
X42138Y74294D02*
Y74454D01*
X41822Y75391D02*
X41982D01*
X41902Y75311D02*
Y75471D01*
X40830Y77399D02*
X40990D01*
X40910Y77319D02*
Y77479D01*
X38877Y77739D02*
X39037D01*
X38957Y77659D02*
Y77819D01*
X35355Y74768D02*
X35515D01*
X35435Y74688D02*
Y74848D01*
X34231Y77907D02*
X34391D01*
X34311Y77827D02*
Y77987D01*
X32007Y77907D02*
X32167D01*
X32087Y77827D02*
Y77987D01*
X27298Y75069D02*
X27458D01*
X27378Y74989D02*
Y75149D01*
X27298Y77035D02*
X27458D01*
X27378Y76955D02*
Y77115D01*
X27298Y76058D02*
X27458D01*
X27378Y75978D02*
Y76138D01*
X24509Y76241D02*
X24669D01*
X24589Y76161D02*
Y76321D01*
X22561Y76247D02*
X22721D01*
X22641Y76167D02*
Y76327D01*
X38826Y73087D02*
X38986D01*
X38906Y73007D02*
Y73167D01*
X35413Y72034D02*
X35573D01*
X35493Y71954D02*
Y72114D01*
X35540Y69882D02*
X35700D01*
X35620Y69802D02*
Y69962D01*
X36935Y67099D02*
X37095D01*
X37015Y67019D02*
Y67179D01*
X37871Y66008D02*
X38031D01*
X37951Y65928D02*
Y66088D01*
X36325Y64319D02*
X36485D01*
X36405Y64239D02*
Y64399D01*
X49349Y59798D02*
X49509D01*
X49429Y59718D02*
Y59878D01*
X46679Y63536D02*
X46839D01*
X46759Y63456D02*
Y63616D01*
X46648Y62175D02*
X46808D01*
X46728Y62095D02*
Y62255D01*
X43691Y62187D02*
X43851D01*
X43771Y62107D02*
Y62267D01*
X43660Y63546D02*
X43820D01*
X43740Y63466D02*
Y63626D01*
X45486Y60757D02*
X45646D01*
X45566Y60677D02*
Y60837D01*
X43741Y60341D02*
X43901D01*
X43821Y60261D02*
Y60421D01*
X40280Y63503D02*
X40440D01*
X40360Y63423D02*
Y63583D01*
X39376Y63495D02*
X39536D01*
X39456Y63415D02*
Y63575D01*
X37620Y63503D02*
X37780D01*
X37700Y63423D02*
Y63583D01*
X35356Y62187D02*
X35516D01*
X35436Y62107D02*
Y62267D01*
X37712Y60789D02*
X37872D01*
X37792Y60709D02*
Y60869D01*
X36650Y58140D02*
X36810D01*
X36730Y58060D02*
Y58220D01*
X35940Y56929D02*
X36100D01*
X36020Y56849D02*
Y57009D01*
X32238Y55906D02*
X32398D01*
X32318Y55826D02*
Y55986D01*
X31473Y55906D02*
X31633D01*
X31553Y55826D02*
Y55986D01*
X47234Y57338D02*
X47394D01*
X47314Y57258D02*
Y57418D01*
X46337Y57352D02*
X46498D01*
X46417Y57272D02*
Y57432D01*
X45426Y57286D02*
X45586D01*
X45506Y57206D02*
Y57366D01*
X45033Y57286D02*
X45193D01*
X45113Y57206D02*
Y57366D01*
X44161Y58042D02*
X44321D01*
X44241Y57962D02*
Y58122D01*
X44174Y57331D02*
X44334D01*
X44254Y57251D02*
Y57411D01*
X49007Y48622D02*
X49167D01*
X49087Y48542D02*
Y48702D01*
X34743Y62850D02*
X34903D01*
X34823Y62770D02*
Y62930D01*
X33365Y62850D02*
X33525D01*
X33445Y62770D02*
Y62930D01*
X46534Y56397D02*
X46694D01*
X46614Y56317D02*
Y56477D01*
X45287Y56397D02*
X45447D01*
X45367Y56317D02*
Y56477D01*
X30125Y74127D02*
X30285D01*
X30205Y74047D02*
Y74207D01*
X33994Y77200D02*
X34154D01*
X34074Y77120D02*
Y77280D01*
X31075Y77462D02*
X31235D01*
X31155Y77382D02*
Y77542D01*
X28509Y74087D02*
X28669D01*
X28589Y74007D02*
Y74167D01*
X35919Y61345D02*
X36079D01*
X35999Y61265D02*
Y61425D01*
X38570Y61326D02*
X38730D01*
X38650Y61246D02*
Y61406D01*
X42735Y61913D02*
X42895D01*
X42815Y61833D02*
Y61993D01*
X41259Y61913D02*
X41419D01*
X41339Y61833D02*
Y61993D01*
X49218Y68907D02*
X49378D01*
X49298Y68827D02*
Y68987D01*
X34619Y76899D02*
X34779D01*
X34699Y76819D02*
Y76979D01*
X34204Y76068D02*
X34364D01*
X34284Y75988D02*
Y76148D01*
X33894Y76489D02*
X34054D01*
X33974Y76409D02*
Y76569D01*
X33590Y75608D02*
X33750D01*
X33670Y75528D02*
Y75688D01*
X34232Y65782D02*
X34392D01*
X34312Y65702D02*
Y65862D01*
X35594Y65074D02*
X35754D01*
X35674Y64994D02*
Y65154D01*
X36255Y64756D02*
X36415D01*
X36335Y64676D02*
Y64836D01*
X35067Y65535D02*
X35227D01*
X35147Y65455D02*
Y65615D01*
X66162Y55018D02*
X66322D01*
X66242Y54938D02*
Y55098D01*
X65374Y55018D02*
X65534D01*
X65454Y54938D02*
Y55098D01*
X64587Y55018D02*
X64747D01*
X64667Y54938D02*
Y55098D01*
X64193Y55806D02*
X64353D01*
X64273Y55726D02*
Y55886D01*
X63800Y55018D02*
X63960D01*
X63880Y54938D02*
Y55098D01*
X64193Y54231D02*
X64353D01*
X64273Y54151D02*
Y54311D01*
X63012Y55018D02*
X63172D01*
X63092Y54938D02*
Y55098D01*
X62225Y56593D02*
X62385D01*
X62305Y56513D02*
Y56673D01*
X62618Y55806D02*
X62778D01*
X62698Y55726D02*
Y55886D01*
X62225Y55018D02*
X62385D01*
X62305Y54938D02*
Y55098D01*
X62618Y54231D02*
X62778D01*
X62698Y54151D02*
Y54311D01*
X62225Y53443D02*
X62385D01*
X62305Y53363D02*
Y53523D01*
X61831Y55806D02*
X61991D01*
X61911Y55726D02*
Y55886D01*
X61437Y55018D02*
X61597D01*
X61517Y54938D02*
Y55098D01*
X61831Y54231D02*
X61991D01*
X61911Y54151D02*
Y54311D01*
X61437Y53443D02*
X61597D01*
X61517Y53363D02*
Y53523D01*
X61831Y52656D02*
X61991D01*
X61911Y52576D02*
Y52736D01*
X61437Y51869D02*
X61597D01*
X61517Y51789D02*
Y51949D01*
X60650Y55018D02*
X60810D01*
X60730Y54938D02*
Y55098D01*
X61044Y54231D02*
X61204D01*
X61124Y54151D02*
Y54311D01*
X60650Y53443D02*
X60810D01*
X60730Y53363D02*
Y53523D01*
X61044Y52656D02*
X61204D01*
X61124Y52576D02*
Y52736D01*
X60650Y51869D02*
X60810D01*
X60730Y51789D02*
Y51949D01*
X60256Y54231D02*
X60416D01*
X60336Y54151D02*
Y54311D01*
X59863Y53443D02*
X60023D01*
X59943Y53363D02*
Y53523D01*
X60256Y52656D02*
X60416D01*
X60336Y52576D02*
Y52736D01*
X59863Y51869D02*
X60023D01*
X59943Y51789D02*
Y51949D01*
X59863Y50294D02*
X60023D01*
X59943Y50214D02*
Y50374D01*
X59075Y53443D02*
X59235D01*
X59155Y53363D02*
Y53523D01*
X59469Y52656D02*
X59629D01*
X59549Y52576D02*
Y52736D01*
X59469Y51081D02*
X59629D01*
X59549Y51001D02*
Y51161D01*
X59075Y50294D02*
X59235D01*
X59155Y50214D02*
Y50374D01*
X58288Y51869D02*
X58448D01*
X58368Y51789D02*
Y51949D01*
X58288Y50294D02*
X58448D01*
X58368Y50214D02*
Y50374D01*
X57894Y52656D02*
X58054D01*
X57974Y52576D02*
Y52736D01*
X57500Y51869D02*
X57660D01*
X57580Y51789D02*
Y51949D01*
X57894Y51081D02*
X58054D01*
X57974Y51001D02*
Y51161D01*
X57500Y50294D02*
X57660D01*
X57580Y50214D02*
Y50374D01*
X66162Y72341D02*
X66322D01*
X66242Y72261D02*
Y72421D01*
X66162Y70766D02*
X66322D01*
X66242Y70686D02*
Y70846D01*
X65768Y71554D02*
X65928D01*
X65848Y71474D02*
Y71634D01*
X64587Y72341D02*
X64747D01*
X64667Y72261D02*
Y72421D01*
X64981Y71554D02*
X65141D01*
X65061Y71474D02*
Y71634D01*
X64193Y71554D02*
X64353D01*
X64273Y71474D02*
Y71634D01*
X64193Y69979D02*
X64353D01*
X64273Y69899D02*
Y70059D01*
X63406Y71554D02*
X63566D01*
X63486Y71474D02*
Y71634D01*
X62225Y72341D02*
X62385D01*
X62305Y72261D02*
Y72421D01*
X62618Y71554D02*
X62778D01*
X62698Y71474D02*
Y71634D01*
X62225Y70766D02*
X62385D01*
X62305Y70686D02*
Y70846D01*
X61831Y73128D02*
X61991D01*
X61911Y73048D02*
Y73208D01*
X61437Y72341D02*
X61597D01*
X61517Y72261D02*
Y72421D01*
X61831Y71554D02*
X61991D01*
X61911Y71474D02*
Y71634D01*
X61831Y69979D02*
X61991D01*
X61911Y69899D02*
Y70059D01*
X61044Y73128D02*
X61204D01*
X61124Y73048D02*
Y73208D01*
X60650Y72341D02*
X60810D01*
X60730Y72261D02*
Y72421D01*
X61044Y71554D02*
X61204D01*
X61124Y71474D02*
Y71634D01*
X60256Y73128D02*
X60416D01*
X60336Y73048D02*
Y73208D01*
X59863Y72341D02*
X60023D01*
X59943Y72261D02*
Y72421D01*
X60256Y71554D02*
X60416D01*
X60336Y71474D02*
Y71634D01*
X59469Y73128D02*
X59629D01*
X59549Y73048D02*
Y73208D01*
X59469Y71554D02*
X59629D01*
X59549Y71474D02*
Y71634D01*
X59075Y70766D02*
X59235D01*
X59155Y70686D02*
Y70846D01*
X59469Y69979D02*
X59629D01*
X59549Y69899D02*
Y70059D01*
X58681Y73128D02*
X58841D01*
X58761Y73048D02*
Y73208D01*
X58288Y72341D02*
X58448D01*
X58368Y72261D02*
Y72421D01*
X58288Y70766D02*
X58448D01*
X58368Y70686D02*
Y70846D01*
X58681Y69979D02*
X58841D01*
X58761Y69899D02*
Y70059D01*
X57894Y73128D02*
X58054D01*
X57974Y73048D02*
Y73208D01*
X57500Y72341D02*
X57660D01*
X57580Y72261D02*
Y72421D01*
X57894Y71554D02*
X58054D01*
X57974Y71474D02*
Y71634D01*
X57500Y70766D02*
X57660D01*
X57580Y70686D02*
Y70846D01*
X57894Y69979D02*
X58054D01*
X57974Y69899D02*
Y70059D01*
X55532Y52656D02*
X55692D01*
X55612Y52576D02*
Y52736D01*
X55138Y51869D02*
X55298D01*
X55218Y51789D02*
Y51949D01*
X55532Y51081D02*
X55692D01*
X55612Y51001D02*
Y51161D01*
X55138Y50294D02*
X55298D01*
X55218Y50214D02*
Y50374D01*
X54744Y52656D02*
X54904D01*
X54824Y52576D02*
Y52736D01*
X54351Y51869D02*
X54511D01*
X54431Y51789D02*
Y51949D01*
X54744Y51081D02*
X54904D01*
X54824Y51001D02*
Y51161D01*
X54351Y50294D02*
X54511D01*
X54431Y50214D02*
Y50374D01*
X53957Y52656D02*
X54117D01*
X54037Y52576D02*
Y52736D01*
X53563Y51869D02*
X53723D01*
X53643Y51789D02*
Y51949D01*
X53957Y51081D02*
X54117D01*
X54037Y51001D02*
Y51161D01*
X53563Y50294D02*
X53723D01*
X53643Y50214D02*
Y50374D01*
X55926Y73128D02*
X56086D01*
X56006Y73048D02*
Y73208D01*
X55138Y73128D02*
X55298D01*
X55218Y73048D02*
Y73208D01*
X55532Y72341D02*
X55692D01*
X55612Y72261D02*
Y72421D01*
X55138Y71554D02*
X55298D01*
X55218Y71474D02*
Y71634D01*
X55532Y70766D02*
X55692D01*
X55612Y70686D02*
Y70846D01*
X54351Y73128D02*
X54511D01*
X54431Y73048D02*
Y73208D01*
X54744Y72341D02*
X54904D01*
X54824Y72261D02*
Y72421D01*
X54351Y71554D02*
X54511D01*
X54431Y71474D02*
Y71634D01*
X54744Y70766D02*
X54904D01*
X54824Y70686D02*
Y70846D01*
X53563Y73128D02*
X53723D01*
X53643Y73048D02*
Y73208D01*
X53957Y72341D02*
X54117D01*
X54037Y72261D02*
Y72421D01*
X53563Y71554D02*
X53723D01*
X53643Y71474D02*
Y71634D01*
X53957Y70766D02*
X54117D01*
X54037Y70686D02*
Y70846D01*
X53170Y70766D02*
X53330D01*
X53250Y70686D02*
Y70846D01*
X66555Y78640D02*
X66715D01*
X66635Y78560D02*
Y78720D01*
X66162Y77853D02*
X66322D01*
X66242Y77773D02*
Y77933D01*
X66555Y77065D02*
X66715D01*
X66635Y76985D02*
Y77145D01*
X66162Y76278D02*
X66322D01*
X66242Y76198D02*
Y76358D01*
X66555Y75491D02*
X66715D01*
X66635Y75411D02*
Y75571D01*
X66162Y74703D02*
X66322D01*
X66242Y74623D02*
Y74783D01*
X65768Y77065D02*
X65928D01*
X65848Y76985D02*
Y77145D01*
X65374Y74703D02*
X65534D01*
X65454Y74623D02*
Y74783D01*
X64587Y77853D02*
X64747D01*
X64667Y77773D02*
Y77933D01*
X64981Y77065D02*
X65141D01*
X65061Y76985D02*
Y77145D01*
X64587Y74703D02*
X64747D01*
X64667Y74623D02*
Y74783D01*
X64193Y77065D02*
X64353D01*
X64273Y76985D02*
Y77145D01*
X64193Y75491D02*
X64353D01*
X64273Y75411D02*
Y75571D01*
X63800Y74703D02*
X63960D01*
X63880Y74623D02*
Y74783D01*
X63406Y77065D02*
X63566D01*
X63486Y76985D02*
Y77145D01*
X63012Y74703D02*
X63172D01*
X63092Y74623D02*
Y74783D01*
X62225Y77853D02*
X62385D01*
X62305Y77773D02*
Y77933D01*
X62618Y77065D02*
X62778D01*
X62698Y76985D02*
Y77145D01*
X62225Y76278D02*
X62385D01*
X62305Y76198D02*
Y76358D01*
X62225Y74703D02*
X62385D01*
X62305Y74623D02*
Y74783D01*
X61831Y78640D02*
X61991D01*
X61911Y78560D02*
Y78720D01*
X61437Y77853D02*
X61597D01*
X61517Y77773D02*
Y77933D01*
X61831Y77065D02*
X61991D01*
X61911Y76985D02*
Y77145D01*
X61437Y76278D02*
X61597D01*
X61517Y76198D02*
Y76358D01*
X61831Y75491D02*
X61991D01*
X61911Y75411D02*
Y75571D01*
X61437Y74703D02*
X61597D01*
X61517Y74623D02*
Y74783D01*
X61044Y78640D02*
X61204D01*
X61124Y78560D02*
Y78720D01*
X60650Y77853D02*
X60810D01*
X60730Y77773D02*
Y77933D01*
X61044Y77065D02*
X61204D01*
X61124Y76985D02*
Y77145D01*
X60650Y76278D02*
X60810D01*
X60730Y76198D02*
Y76358D01*
X61044Y75491D02*
X61204D01*
X61124Y75411D02*
Y75571D01*
X60650Y74703D02*
X60810D01*
X60730Y74623D02*
Y74783D01*
X60256Y78640D02*
X60416D01*
X60336Y78560D02*
Y78720D01*
X59863Y77853D02*
X60023D01*
X59943Y77773D02*
Y77933D01*
X60256Y77065D02*
X60416D01*
X60336Y76985D02*
Y77145D01*
X59863Y76278D02*
X60023D01*
X59943Y76198D02*
Y76358D01*
X60256Y75491D02*
X60416D01*
X60336Y75411D02*
Y75571D01*
X59863Y74703D02*
X60023D01*
X59943Y74623D02*
Y74783D01*
X59469Y78640D02*
X59629D01*
X59549Y78560D02*
Y78720D01*
X59075Y77853D02*
X59235D01*
X59155Y77773D02*
Y77933D01*
X59469Y77065D02*
X59629D01*
X59549Y76985D02*
Y77145D01*
X59075Y76278D02*
X59235D01*
X59155Y76198D02*
Y76358D01*
X59469Y75491D02*
X59629D01*
X59549Y75411D02*
Y75571D01*
X59075Y74703D02*
X59235D01*
X59155Y74623D02*
Y74783D01*
X58681Y78640D02*
X58841D01*
X58761Y78560D02*
Y78720D01*
X58288Y77853D02*
X58448D01*
X58368Y77773D02*
Y77933D01*
X58681Y77065D02*
X58841D01*
X58761Y76985D02*
Y77145D01*
X58288Y76278D02*
X58448D01*
X58368Y76198D02*
Y76358D01*
X58681Y75491D02*
X58841D01*
X58761Y75411D02*
Y75571D01*
X58288Y74703D02*
X58448D01*
X58368Y74623D02*
Y74783D01*
X57894Y78640D02*
X58054D01*
X57974Y78560D02*
Y78720D01*
X57500Y77853D02*
X57660D01*
X57580Y77773D02*
Y77933D01*
X57894Y77065D02*
X58054D01*
X57974Y76985D02*
Y77145D01*
X57500Y76278D02*
X57660D01*
X57580Y76198D02*
Y76358D01*
X57894Y75491D02*
X58054D01*
X57974Y75411D02*
Y75571D01*
X57500Y74703D02*
X57660D01*
X57580Y74623D02*
Y74783D01*
X57107Y78640D02*
X57267D01*
X57187Y78560D02*
Y78720D01*
X56713Y77853D02*
X56873D01*
X56793Y77773D02*
Y77933D01*
X57107Y77065D02*
X57267D01*
X57187Y76985D02*
Y77145D01*
X56713Y76278D02*
X56873D01*
X56793Y76198D02*
Y76358D01*
X57107Y75491D02*
X57267D01*
X57187Y75411D02*
Y75571D01*
X56713Y74703D02*
X56873D01*
X56793Y74623D02*
Y74783D01*
X56319Y78640D02*
X56479D01*
X56399Y78560D02*
Y78720D01*
X55926Y77853D02*
X56086D01*
X56006Y77773D02*
Y77933D01*
X56319Y77065D02*
X56479D01*
X56399Y76985D02*
Y77145D01*
X55926Y76278D02*
X56086D01*
X56006Y76198D02*
Y76358D01*
X56319Y75491D02*
X56479D01*
X56399Y75411D02*
Y75571D01*
X55926Y74703D02*
X56086D01*
X56006Y74623D02*
Y74783D01*
X55532Y78640D02*
X55692D01*
X55612Y78560D02*
Y78720D01*
X55138Y77853D02*
X55298D01*
X55218Y77773D02*
Y77933D01*
X55532Y77065D02*
X55692D01*
X55612Y76985D02*
Y77145D01*
X55138Y76278D02*
X55298D01*
X55218Y76198D02*
Y76358D01*
X55532Y75491D02*
X55692D01*
X55612Y75411D02*
Y75571D01*
X55138Y74703D02*
X55298D01*
X55218Y74623D02*
Y74783D01*
X54744Y78640D02*
X54904D01*
X54824Y78560D02*
Y78720D01*
X54351Y77853D02*
X54511D01*
X54431Y77773D02*
Y77933D01*
X54744Y77065D02*
X54904D01*
X54824Y76985D02*
Y77145D01*
X54351Y76278D02*
X54511D01*
X54431Y76198D02*
Y76358D01*
X54744Y75491D02*
X54904D01*
X54824Y75411D02*
Y75571D01*
X54351Y74703D02*
X54511D01*
X54431Y74623D02*
Y74783D01*
X53957Y78640D02*
X54117D01*
X54037Y78560D02*
Y78720D01*
X53563Y77853D02*
X53723D01*
X53643Y77773D02*
Y77933D01*
X53957Y77065D02*
X54117D01*
X54037Y76985D02*
Y77145D01*
X53563Y76278D02*
X53723D01*
X53643Y76198D02*
Y76358D01*
X53957Y75491D02*
X54117D01*
X54037Y75411D02*
Y75571D01*
X53563Y74703D02*
X53723D01*
X53643Y74623D02*
Y74783D01*
X53170Y78640D02*
X53330D01*
X53250Y78560D02*
Y78720D01*
X52776Y77853D02*
X52936D01*
X52856Y77773D02*
Y77933D01*
X52382Y78640D02*
X52542D01*
X52462Y78560D02*
Y78720D01*
X51595Y78640D02*
X51755D01*
X51675Y78560D02*
Y78720D01*
X51201Y77853D02*
X51361D01*
X51281Y77773D02*
Y77933D01*
X66162Y60530D02*
X66322D01*
X66242Y60450D02*
Y60610D01*
X65374Y60530D02*
X65534D01*
X65454Y60450D02*
Y60610D01*
X64587Y60530D02*
X64747D01*
X64667Y60450D02*
Y60610D01*
X64193Y61317D02*
X64353D01*
X64273Y61237D02*
Y61397D01*
X63800Y60530D02*
X63960D01*
X63880Y60450D02*
Y60610D01*
X64193Y59743D02*
X64353D01*
X64273Y59663D02*
Y59823D01*
X63012Y60530D02*
X63172D01*
X63092Y60450D02*
Y60610D01*
X62225Y62105D02*
X62385D01*
X62305Y62025D02*
Y62185D01*
X62618Y61317D02*
X62778D01*
X62698Y61237D02*
Y61397D01*
X62225Y60530D02*
X62385D01*
X62305Y60450D02*
Y60610D01*
X62618Y59743D02*
X62778D01*
X62698Y59663D02*
Y59823D01*
X62225Y58955D02*
X62385D01*
X62305Y58875D02*
Y59035D01*
X61437Y62105D02*
X61597D01*
X61517Y62025D02*
Y62185D01*
X61831Y61317D02*
X61991D01*
X61911Y61237D02*
Y61397D01*
X61437Y60530D02*
X61597D01*
X61517Y60450D02*
Y60610D01*
X61831Y59743D02*
X61991D01*
X61911Y59663D02*
Y59823D01*
X61437Y58955D02*
X61597D01*
X61517Y58875D02*
Y59035D01*
X61831Y58168D02*
X61991D01*
X61911Y58088D02*
Y58248D01*
X61044Y61317D02*
X61204D01*
X61124Y61237D02*
Y61397D01*
X61044Y59743D02*
X61204D01*
X61124Y59663D02*
Y59823D01*
X60650Y58955D02*
X60810D01*
X60730Y58875D02*
Y59035D01*
X61044Y58168D02*
X61204D01*
X61124Y58088D02*
Y58248D01*
X60650Y57380D02*
X60810D01*
X60730Y57300D02*
Y57460D01*
X59863Y58955D02*
X60023D01*
X59943Y58875D02*
Y59035D01*
X60256Y58168D02*
X60416D01*
X60336Y58088D02*
Y58248D01*
X59863Y57380D02*
X60023D01*
X59943Y57300D02*
Y57460D01*
X60256Y56593D02*
X60416D01*
X60336Y56513D02*
Y56673D01*
X59469Y58168D02*
X59629D01*
X59549Y58088D02*
Y58248D01*
X59075Y57380D02*
X59235D01*
X59155Y57300D02*
Y57460D01*
X59469Y56593D02*
X59629D01*
X59549Y56513D02*
Y56673D01*
X59075Y55806D02*
X59235D01*
X59155Y55726D02*
Y55886D01*
X58288Y57380D02*
X58448D01*
X58368Y57300D02*
Y57460D01*
X58681Y56593D02*
X58841D01*
X58761Y56513D02*
Y56673D01*
X58288Y55806D02*
X58448D01*
X58368Y55726D02*
Y55886D01*
X58681Y55018D02*
X58841D01*
X58761Y54938D02*
Y55098D01*
X57500Y57380D02*
X57660D01*
X57580Y57300D02*
Y57460D01*
X57894Y56593D02*
X58054D01*
X57974Y56513D02*
Y56673D01*
X57500Y55806D02*
X57660D01*
X57580Y55726D02*
Y55886D01*
X57894Y55018D02*
X58054D01*
X57974Y54938D02*
Y55098D01*
X56713Y57380D02*
X56873D01*
X56793Y57300D02*
Y57460D01*
X57107Y56593D02*
X57267D01*
X57187Y56513D02*
Y56673D01*
X56713Y55806D02*
X56873D01*
X56793Y55726D02*
Y55886D01*
X57107Y55018D02*
X57267D01*
X57187Y54938D02*
Y55098D01*
X55926Y57380D02*
X56086D01*
X56006Y57300D02*
Y57460D01*
X56319Y56593D02*
X56479D01*
X56399Y56513D02*
Y56673D01*
X55926Y55806D02*
X56086D01*
X56006Y55726D02*
Y55886D01*
X56319Y55018D02*
X56479D01*
X56399Y54938D02*
Y55098D01*
X55138Y57380D02*
X55298D01*
X55218Y57300D02*
Y57460D01*
X55532Y56593D02*
X55692D01*
X55612Y56513D02*
Y56673D01*
X55138Y55806D02*
X55298D01*
X55218Y55726D02*
Y55886D01*
X55532Y55018D02*
X55692D01*
X55612Y54938D02*
Y55098D01*
X54351Y57380D02*
X54511D01*
X54431Y57300D02*
Y57460D01*
X54744Y56593D02*
X54904D01*
X54824Y56513D02*
Y56673D01*
X54351Y55806D02*
X54511D01*
X54431Y55726D02*
Y55886D01*
X54744Y55018D02*
X54904D01*
X54824Y54938D02*
Y55098D01*
X53563Y57380D02*
X53723D01*
X53643Y57300D02*
Y57460D01*
X53957Y56593D02*
X54117D01*
X54037Y56513D02*
Y56673D01*
X53563Y55806D02*
X53723D01*
X53643Y55726D02*
Y55886D01*
X53957Y55018D02*
X54117D01*
X54037Y54938D02*
Y55098D01*
X51201Y57380D02*
X51361D01*
X51281Y57300D02*
Y57460D01*
X47269Y76673D02*
X47429D01*
X47349Y76593D02*
Y76753D01*
X48254Y74705D02*
X48414D01*
X48334Y74625D02*
Y74785D01*
X47269Y72736D02*
X47429D01*
X47349Y72656D02*
Y72816D01*
X48254Y70768D02*
X48414D01*
X48334Y70688D02*
Y70848D01*
X48254Y66831D02*
X48414D01*
X48334Y66751D02*
Y66911D01*
X48254Y55020D02*
X48414D01*
X48334Y54940D02*
Y55100D01*
X47269Y53051D02*
X47429D01*
X47349Y52971D02*
Y53131D01*
X48254Y51083D02*
X48414D01*
X48334Y51003D02*
Y51163D01*
X45301Y76673D02*
X45461D01*
X45381Y76593D02*
Y76753D01*
X46285Y74705D02*
X46445D01*
X46365Y74625D02*
Y74785D01*
X45301Y72736D02*
X45461D01*
X45381Y72656D02*
Y72816D01*
X46285Y70768D02*
X46445D01*
X46365Y70688D02*
Y70848D01*
X46285Y66831D02*
X46445D01*
X46365Y66751D02*
Y66911D01*
X45301Y64862D02*
X45461D01*
X45381Y64782D02*
Y64942D01*
X46285Y58957D02*
X46445D01*
X46365Y58877D02*
Y59037D01*
X46285Y55020D02*
X46445D01*
X46365Y54940D02*
Y55100D01*
X45301Y53051D02*
X45461D01*
X45381Y52971D02*
Y53131D01*
X46285Y51083D02*
X46445D01*
X46365Y51003D02*
Y51163D01*
X43332Y76673D02*
X43492D01*
X43412Y76593D02*
Y76753D01*
X44317Y74705D02*
X44477D01*
X44397Y74625D02*
Y74785D01*
X44317Y70768D02*
X44477D01*
X44397Y70688D02*
Y70848D01*
X44317Y55020D02*
X44477D01*
X44397Y54940D02*
Y55100D01*
X44317Y51083D02*
X44477D01*
X44397Y51003D02*
Y51163D01*
X43332Y49114D02*
X43492D01*
X43412Y49034D02*
Y49194D01*
X41364Y68799D02*
X41524D01*
X41444Y68719D02*
Y68879D01*
X42348Y51083D02*
X42508D01*
X42428Y51003D02*
Y51163D01*
X41364Y49114D02*
X41524D01*
X41444Y49034D02*
Y49194D01*
X38411Y70768D02*
X38571D01*
X38491Y70688D02*
Y70848D01*
X37427Y56988D02*
X37587D01*
X37507Y56908D02*
Y57068D01*
X35458Y76673D02*
X35618D01*
X35538Y76593D02*
Y76753D01*
X35458Y53051D02*
X35618D01*
X35538Y52971D02*
Y53131D01*
X33490Y53051D02*
X33650D01*
X33570Y52971D02*
Y53131D01*
X31521Y53051D02*
X31681D01*
X31601Y52971D02*
Y53131D01*
X31521Y49114D02*
X31681D01*
X31601Y49034D02*
Y49194D01*
X29553Y64862D02*
X29713D01*
X29633Y64782D02*
Y64942D01*
X29553Y60925D02*
X29713D01*
X29633Y60845D02*
Y61005D01*
X29553Y53051D02*
X29713D01*
X29633Y52971D02*
Y53131D01*
X27584Y72736D02*
X27744D01*
X27664Y72656D02*
Y72816D01*
X28569Y66831D02*
X28729D01*
X28649Y66751D02*
Y66911D01*
X27584Y64862D02*
X27744D01*
X27664Y64782D02*
Y64942D01*
X27584Y60925D02*
X27744D01*
X27664Y60845D02*
Y61005D01*
X25616Y72736D02*
X25776D01*
X25696Y72656D02*
Y72816D01*
X26600Y66831D02*
X26760D01*
X26680Y66751D02*
Y66911D01*
X25616Y64862D02*
X25776D01*
X25696Y64782D02*
Y64942D01*
X26600Y62894D02*
X26760D01*
X26680Y62814D02*
Y62974D01*
X25616Y60925D02*
X25776D01*
X25696Y60845D02*
Y61005D01*
X23647Y72736D02*
X23807D01*
X23727Y72656D02*
Y72816D01*
X24632Y66831D02*
X24792D01*
X24712Y66751D02*
Y66911D01*
X23647Y64862D02*
X23807D01*
X23727Y64782D02*
Y64942D01*
X24632Y62894D02*
X24792D01*
X24712Y62814D02*
Y62974D01*
X23647Y60925D02*
X23807D01*
X23727Y60845D02*
Y61005D01*
X24632Y58957D02*
X24792D01*
X24712Y58877D02*
Y59037D01*
X24632Y51083D02*
X24792D01*
X24712Y51003D02*
Y51163D01*
X21679Y72736D02*
X21839D01*
X21759Y72656D02*
Y72816D01*
X21679Y68799D02*
X21839D01*
X21759Y68719D02*
Y68879D01*
X21679Y64862D02*
X21839D01*
X21759Y64782D02*
Y64942D01*
X22663Y62894D02*
X22823D01*
X22743Y62814D02*
Y62974D01*
X21679Y60925D02*
X21839D01*
X21759Y60845D02*
Y61005D01*
X22663Y58957D02*
X22823D01*
X22743Y58877D02*
Y59037D01*
X21679Y53051D02*
X21839D01*
X21759Y52971D02*
Y53131D01*
X21679Y49114D02*
X21839D01*
X21759Y49034D02*
Y49194D01*
X52692Y67622D02*
X52852D01*
X52772Y67542D02*
Y67702D01*
X53169Y48605D02*
X53329D01*
X53249Y48525D02*
Y48685D01*
X53166Y47920D02*
X53326D01*
X53246Y47840D02*
Y48000D01*
X52102Y68907D02*
X52262D01*
X52182Y68827D02*
Y68987D01*
X35452Y75833D02*
X35612D01*
X35531Y75753D02*
Y75913D01*
X36042Y74896D02*
X36202D01*
X36122Y74816D02*
Y74976D01*
X36324Y68362D02*
X36484D01*
X36404Y68282D02*
Y68442D01*
X36042Y70866D02*
X36202D01*
X36122Y70786D02*
Y70946D01*
X40350Y74390D02*
X40510D01*
X40430Y74310D02*
Y74470D01*
X35413Y75196D02*
X35573D01*
X35493Y75116D02*
Y75276D01*
X38341Y74896D02*
X38501D01*
X38421Y74816D02*
Y74976D01*
X40516Y73526D02*
X40676D01*
X40596Y73446D02*
Y73606D01*
X37973Y73504D02*
X38133D01*
X38053Y73424D02*
Y73584D01*
X38000Y76959D02*
X38160D01*
X38080Y76879D02*
Y77039D01*
X37938Y77587D02*
X38098D01*
X38018Y77507D02*
Y77667D01*
X40351Y76599D02*
X40511D01*
X40431Y76519D02*
Y76679D01*
X41353Y76899D02*
X41513D01*
X41433Y76819D02*
Y76979D01*
X39334Y77264D02*
X39494D01*
X39414Y77184D02*
Y77344D01*
X31613Y78337D02*
X31773D01*
X31693Y78257D02*
Y78417D01*
X31013Y78287D02*
X31173D01*
X31093Y78207D02*
Y78367D01*
X42794Y49541D02*
X42954D01*
X42874Y49461D02*
Y49621D01*
X41849Y73524D02*
X42009D01*
X41929Y73444D02*
Y73604D01*
X23499Y73622D02*
X23659D01*
X23579Y73542D02*
Y73702D01*
X42548Y68720D02*
X42708D01*
X42628Y68640D02*
Y68800D01*
X42243Y73836D02*
X42403D01*
X42323Y73756D02*
Y73916D01*
X21506Y74587D02*
X21666D01*
X21586Y74507D02*
Y74667D01*
X43118Y56994D02*
X43278D01*
X43198Y56914D02*
Y57074D01*
X41633Y56996D02*
X41793D01*
X41713Y56916D02*
Y57076D01*
X47678Y56496D02*
X47838D01*
X47758Y56416D02*
Y56576D01*
X47678Y57309D02*
X47838D01*
X47758Y57229D02*
Y57389D01*
X44627Y57309D02*
X44787D01*
X44707Y57229D02*
Y57389D01*
X32991Y55922D02*
X33151D01*
X33071Y55842D02*
Y56002D01*
X43109Y59547D02*
X43269D01*
X43189Y59467D02*
Y59627D01*
X41633Y59547D02*
X41793D01*
X41713Y59467D02*
Y59627D01*
X31876Y54864D02*
X32036D01*
X31956Y54784D02*
Y54944D01*
X26511Y75591D02*
X26671D01*
X26591Y75511D02*
Y75671D01*
X34664Y64917D02*
X34824D01*
X34744Y64837D02*
Y64997D01*
X25511Y76772D02*
X25671D01*
X25591Y76692D02*
Y76852D01*
X33286Y76575D02*
X33446D01*
X33366Y76495D02*
Y76655D01*
X33286Y64917D02*
X33446D01*
X33366Y64837D02*
Y64997D01*
X26511Y69375D02*
X26671D01*
X26591Y69295D02*
Y69455D01*
X35845Y68669D02*
X36005D01*
X35925Y68589D02*
Y68749D01*
X35452Y68669D02*
X35612D01*
X35531Y68589D02*
Y68749D01*
X27511Y68669D02*
X27671D01*
X27591Y68589D02*
Y68749D01*
X38601Y63526D02*
X38761D01*
X38681Y63446D02*
Y63606D01*
X36738Y63546D02*
X36898D01*
X36818Y63466D02*
Y63626D01*
X22514Y65748D02*
X22674D01*
X22594Y65668D02*
Y65828D01*
X28549Y65598D02*
X28709D01*
X28629Y65518D02*
Y65678D01*
X28896Y57932D02*
X29056D01*
X28976Y57852D02*
Y58012D01*
X31971Y57827D02*
X32131D01*
X32051Y57747D02*
Y57907D01*
X32597Y49508D02*
X32757D01*
X32677Y49428D02*
Y49588D01*
X31884Y59034D02*
X32044D01*
X31964Y58954D02*
Y59114D01*
X31568Y58232D02*
X31728D01*
X31648Y58152D02*
Y58312D01*
X32429Y60735D02*
X32589D01*
X32509Y60655D02*
Y60815D01*
X33807Y60732D02*
X33967D01*
X33887Y60652D02*
Y60812D01*
X33688Y58363D02*
X33848D01*
X33768Y58283D02*
Y58443D01*
X32207Y58371D02*
X32367D01*
X32287Y58291D02*
Y58451D01*
X32991Y48228D02*
X33151D01*
X33071Y48148D02*
Y48308D01*
X40570Y50984D02*
X40730D01*
X40650Y50904D02*
Y51064D01*
X34999Y49228D02*
X35159D01*
X35079Y49148D02*
Y49308D01*
X40570Y52082D02*
X40730D01*
X40650Y52002D02*
Y52162D01*
X34999Y49728D02*
X35159D01*
X35079Y49648D02*
Y49808D01*
X23610Y67618D02*
X23770D01*
X23690Y67538D02*
Y67698D01*
X39881Y61319D02*
X40041D01*
X39961Y61239D02*
Y61399D01*
X38227Y58688D02*
X38387D01*
X38307Y58608D02*
Y58768D01*
X31416Y71791D02*
X31576D01*
X31496Y71711D02*
Y71871D01*
X31416Y69882D02*
X31576D01*
X31496Y69802D02*
Y69962D01*
X37223Y61319D02*
X37383D01*
X37303Y61239D02*
Y61399D01*
X38227Y55151D02*
X38387D01*
X38307Y55071D02*
Y55231D01*
X35594Y55151D02*
X35754D01*
X35674Y55071D02*
Y55231D01*
X35594Y58668D02*
X35754D01*
X35674Y58588D02*
Y58748D01*
X31219Y64465D02*
X31379D01*
X31299Y64385D02*
Y64545D01*
X25506Y52677D02*
X25666D01*
X25586Y52597D02*
Y52757D01*
X29054Y53673D02*
X29214D01*
X29134Y53593D02*
Y53753D01*
X25117Y52704D02*
X25277D01*
X25197Y52624D02*
Y52784D01*
X28663Y53733D02*
X28823D01*
X28743Y53653D02*
Y53813D01*
X32149Y65860D02*
X32309D01*
X32229Y65780D02*
Y65940D01*
X31810Y65945D02*
X31970D01*
X31890Y65865D02*
Y66025D01*
M02*
