G04*
G04 #@! TF.GenerationSoftware,Altium Limited,Altium Designer,25.8.1 (18)*
G04*
G04 Layer_Color=8388736*
%FSLAX24Y24*%
%MOIN*%
G70*
G04*
G04 #@! TF.SameCoordinates,CAC9E776-8FA5-4F56-8978-DDDC26C1521C*
G04*
G04*
G04 #@! TF.FilePolarity,Negative*
G04*
G01*
G75*
%ADD50C,0.0295*%
%ADD51C,0.1194*%
G04:AMPARAMS|DCode=52|XSize=47.4mil|YSize=43.4mil|CornerRadius=9.3mil|HoleSize=0mil|Usage=FLASHONLY|Rotation=180.000|XOffset=0mil|YOffset=0mil|HoleType=Round|Shape=RoundedRectangle|*
%AMROUNDEDRECTD52*
21,1,0.0474,0.0248,0,0,180.0*
21,1,0.0287,0.0434,0,0,180.0*
1,1,0.0186,-0.0144,0.0124*
1,1,0.0186,0.0144,0.0124*
1,1,0.0186,0.0144,-0.0124*
1,1,0.0186,-0.0144,-0.0124*
%
%ADD52ROUNDEDRECTD52*%
G04:AMPARAMS|DCode=53|XSize=65.1mil|YSize=147.8mil|CornerRadius=18.3mil|HoleSize=0mil|Usage=FLASHONLY|Rotation=90.000|XOffset=0mil|YOffset=0mil|HoleType=Round|Shape=RoundedRectangle|*
%AMROUNDEDRECTD53*
21,1,0.0651,0.1112,0,0,90.0*
21,1,0.0285,0.1478,0,0,90.0*
1,1,0.0365,0.0556,0.0143*
1,1,0.0365,0.0556,-0.0143*
1,1,0.0365,-0.0556,-0.0143*
1,1,0.0365,-0.0556,0.0143*
%
%ADD53ROUNDEDRECTD53*%
G04:AMPARAMS|DCode=54|XSize=47.4mil|YSize=43.4mil|CornerRadius=9.3mil|HoleSize=0mil|Usage=FLASHONLY|Rotation=270.000|XOffset=0mil|YOffset=0mil|HoleType=Round|Shape=RoundedRectangle|*
%AMROUNDEDRECTD54*
21,1,0.0474,0.0248,0,0,270.0*
21,1,0.0287,0.0434,0,0,270.0*
1,1,0.0186,-0.0124,-0.0144*
1,1,0.0186,-0.0124,0.0144*
1,1,0.0186,0.0124,0.0144*
1,1,0.0186,0.0124,-0.0144*
%
%ADD54ROUNDEDRECTD54*%
G04:AMPARAMS|DCode=55|XSize=31.6mil|YSize=47.4mil|CornerRadius=7.5mil|HoleSize=0mil|Usage=FLASHONLY|Rotation=90.000|XOffset=0mil|YOffset=0mil|HoleType=Round|Shape=RoundedRectangle|*
%AMROUNDEDRECTD55*
21,1,0.0316,0.0323,0,0,90.0*
21,1,0.0165,0.0474,0,0,90.0*
1,1,0.0151,0.0161,0.0083*
1,1,0.0151,0.0161,-0.0083*
1,1,0.0151,-0.0161,-0.0083*
1,1,0.0151,-0.0161,0.0083*
%
%ADD55ROUNDEDRECTD55*%
G04:AMPARAMS|DCode=56|XSize=78.9mil|YSize=63.1mil|CornerRadius=12.3mil|HoleSize=0mil|Usage=FLASHONLY|Rotation=180.000|XOffset=0mil|YOffset=0mil|HoleType=Round|Shape=RoundedRectangle|*
%AMROUNDEDRECTD56*
21,1,0.0789,0.0386,0,0,180.0*
21,1,0.0543,0.0631,0,0,180.0*
1,1,0.0245,-0.0272,0.0193*
1,1,0.0245,0.0272,0.0193*
1,1,0.0245,0.0272,-0.0193*
1,1,0.0245,-0.0272,-0.0193*
%
%ADD56ROUNDEDRECTD56*%
G04:AMPARAMS|DCode=57|XSize=83.2mil|YSize=31.6mil|CornerRadius=7mil|HoleSize=0mil|Usage=FLASHONLY|Rotation=90.000|XOffset=0mil|YOffset=0mil|HoleType=Round|Shape=RoundedRectangle|*
%AMROUNDEDRECTD57*
21,1,0.0832,0.0177,0,0,90.0*
21,1,0.0693,0.0316,0,0,90.0*
1,1,0.0139,0.0089,0.0346*
1,1,0.0139,0.0089,-0.0346*
1,1,0.0139,-0.0089,-0.0346*
1,1,0.0139,-0.0089,0.0346*
%
%ADD57ROUNDEDRECTD57*%
G04:AMPARAMS|DCode=58|XSize=76.9mil|YSize=31.2mil|CornerRadius=6.9mil|HoleSize=0mil|Usage=FLASHONLY|Rotation=0.000|XOffset=0mil|YOffset=0mil|HoleType=Round|Shape=RoundedRectangle|*
%AMROUNDEDRECTD58*
21,1,0.0769,0.0174,0,0,0.0*
21,1,0.0631,0.0312,0,0,0.0*
1,1,0.0138,0.0315,-0.0087*
1,1,0.0138,-0.0315,-0.0087*
1,1,0.0138,-0.0315,0.0087*
1,1,0.0138,0.0315,0.0087*
%
%ADD58ROUNDEDRECTD58*%
G04:AMPARAMS|DCode=59|XSize=65.1mil|YSize=147.8mil|CornerRadius=18.3mil|HoleSize=0mil|Usage=FLASHONLY|Rotation=180.000|XOffset=0mil|YOffset=0mil|HoleType=Round|Shape=RoundedRectangle|*
%AMROUNDEDRECTD59*
21,1,0.0651,0.1112,0,0,180.0*
21,1,0.0285,0.1478,0,0,180.0*
1,1,0.0365,-0.0143,0.0556*
1,1,0.0365,0.0143,0.0556*
1,1,0.0365,0.0143,-0.0556*
1,1,0.0365,-0.0143,-0.0556*
%
%ADD59ROUNDEDRECTD59*%
G04:AMPARAMS|DCode=60|XSize=31.6mil|YSize=43.4mil|CornerRadius=9.9mil|HoleSize=0mil|Usage=FLASHONLY|Rotation=0.000|XOffset=0mil|YOffset=0mil|HoleType=Round|Shape=RoundedRectangle|*
%AMROUNDEDRECTD60*
21,1,0.0316,0.0236,0,0,0.0*
21,1,0.0118,0.0434,0,0,0.0*
1,1,0.0198,0.0059,-0.0118*
1,1,0.0198,-0.0059,-0.0118*
1,1,0.0198,-0.0059,0.0118*
1,1,0.0198,0.0059,0.0118*
%
%ADD60ROUNDEDRECTD60*%
%ADD61O,0.0730X0.0336*%
G04:AMPARAMS|DCode=62|XSize=31.6mil|YSize=43.4mil|CornerRadius=9.9mil|HoleSize=0mil|Usage=FLASHONLY|Rotation=270.000|XOffset=0mil|YOffset=0mil|HoleType=Round|Shape=RoundedRectangle|*
%AMROUNDEDRECTD62*
21,1,0.0316,0.0236,0,0,270.0*
21,1,0.0118,0.0434,0,0,270.0*
1,1,0.0198,-0.0118,-0.0059*
1,1,0.0198,-0.0118,0.0059*
1,1,0.0198,0.0118,0.0059*
1,1,0.0198,0.0118,-0.0059*
%
%ADD62ROUNDEDRECTD62*%
G04:AMPARAMS|DCode=63|XSize=204.9mil|YSize=124.1mil|CornerRadius=33mil|HoleSize=0mil|Usage=FLASHONLY|Rotation=270.000|XOffset=0mil|YOffset=0mil|HoleType=Round|Shape=RoundedRectangle|*
%AMROUNDEDRECTD63*
21,1,0.2049,0.0581,0,0,270.0*
21,1,0.1388,0.1241,0,0,270.0*
1,1,0.0661,-0.0290,-0.0694*
1,1,0.0661,-0.0290,0.0694*
1,1,0.0661,0.0290,0.0694*
1,1,0.0661,0.0290,-0.0694*
%
%ADD63ROUNDEDRECTD63*%
G04:AMPARAMS|DCode=64|XSize=74.9mil|YSize=98.6mil|CornerRadius=14mil|HoleSize=0mil|Usage=FLASHONLY|Rotation=270.000|XOffset=0mil|YOffset=0mil|HoleType=Round|Shape=RoundedRectangle|*
%AMROUNDEDRECTD64*
21,1,0.0749,0.0705,0,0,270.0*
21,1,0.0469,0.0986,0,0,270.0*
1,1,0.0281,-0.0352,-0.0234*
1,1,0.0281,-0.0352,0.0234*
1,1,0.0281,0.0352,0.0234*
1,1,0.0281,0.0352,-0.0234*
%
%ADD64ROUNDEDRECTD64*%
G04:AMPARAMS|DCode=65|XSize=106mil|YSize=126mil|CornerRadius=28.5mil|HoleSize=0mil|Usage=FLASHONLY|Rotation=0.000|XOffset=0mil|YOffset=0mil|HoleType=Round|Shape=RoundedRectangle|*
%AMROUNDEDRECTD65*
21,1,0.1060,0.0690,0,0,0.0*
21,1,0.0490,0.1260,0,0,0.0*
1,1,0.0570,0.0245,-0.0345*
1,1,0.0570,-0.0245,-0.0345*
1,1,0.0570,-0.0245,0.0345*
1,1,0.0570,0.0245,0.0345*
%
%ADD65ROUNDEDRECTD65*%
G04:AMPARAMS|DCode=66|XSize=74.9mil|YSize=106.4mil|CornerRadius=14mil|HoleSize=0mil|Usage=FLASHONLY|Rotation=270.000|XOffset=0mil|YOffset=0mil|HoleType=Round|Shape=RoundedRectangle|*
%AMROUNDEDRECTD66*
21,1,0.0749,0.0783,0,0,270.0*
21,1,0.0469,0.1064,0,0,270.0*
1,1,0.0281,-0.0392,-0.0234*
1,1,0.0281,-0.0392,0.0234*
1,1,0.0281,0.0392,0.0234*
1,1,0.0281,0.0392,-0.0234*
%
%ADD66ROUNDEDRECTD66*%
G04:AMPARAMS|DCode=67|XSize=47.4mil|YSize=118.2mil|CornerRadius=13.8mil|HoleSize=0mil|Usage=FLASHONLY|Rotation=180.000|XOffset=0mil|YOffset=0mil|HoleType=Round|Shape=RoundedRectangle|*
%AMROUNDEDRECTD67*
21,1,0.0474,0.0906,0,0,180.0*
21,1,0.0197,0.1182,0,0,180.0*
1,1,0.0277,-0.0098,0.0453*
1,1,0.0277,0.0098,0.0453*
1,1,0.0277,0.0098,-0.0453*
1,1,0.0277,-0.0098,-0.0453*
%
%ADD67ROUNDEDRECTD67*%
G04:AMPARAMS|DCode=68|XSize=78.9mil|YSize=71mil|CornerRadius=13.4mil|HoleSize=0mil|Usage=FLASHONLY|Rotation=0.000|XOffset=0mil|YOffset=0mil|HoleType=Round|Shape=RoundedRectangle|*
%AMROUNDEDRECTD68*
21,1,0.0789,0.0441,0,0,0.0*
21,1,0.0520,0.0710,0,0,0.0*
1,1,0.0269,0.0260,-0.0220*
1,1,0.0269,-0.0260,-0.0220*
1,1,0.0269,-0.0260,0.0220*
1,1,0.0269,0.0260,0.0220*
%
%ADD68ROUNDEDRECTD68*%
G04:AMPARAMS|DCode=69|XSize=39.5mil|YSize=71mil|CornerRadius=8.7mil|HoleSize=0mil|Usage=FLASHONLY|Rotation=180.000|XOffset=0mil|YOffset=0mil|HoleType=Round|Shape=RoundedRectangle|*
%AMROUNDEDRECTD69*
21,1,0.0395,0.0535,0,0,180.0*
21,1,0.0220,0.0710,0,0,180.0*
1,1,0.0174,-0.0110,0.0268*
1,1,0.0174,0.0110,0.0268*
1,1,0.0174,0.0110,-0.0268*
1,1,0.0174,-0.0110,-0.0268*
%
%ADD69ROUNDEDRECTD69*%
G04:AMPARAMS|DCode=70|XSize=27.7mil|YSize=27.7mil|CornerRadius=8.9mil|HoleSize=0mil|Usage=FLASHONLY|Rotation=0.000|XOffset=0mil|YOffset=0mil|HoleType=Round|Shape=RoundedRectangle|*
%AMROUNDEDRECTD70*
21,1,0.0277,0.0098,0,0,0.0*
21,1,0.0098,0.0277,0,0,0.0*
1,1,0.0178,0.0049,-0.0049*
1,1,0.0178,-0.0049,-0.0049*
1,1,0.0178,-0.0049,0.0049*
1,1,0.0178,0.0049,0.0049*
%
%ADD70ROUNDEDRECTD70*%
G04:AMPARAMS|DCode=71|XSize=33.6mil|YSize=55.2mil|CornerRadius=10.4mil|HoleSize=0mil|Usage=FLASHONLY|Rotation=0.000|XOffset=0mil|YOffset=0mil|HoleType=Round|Shape=RoundedRectangle|*
%AMROUNDEDRECTD71*
21,1,0.0336,0.0344,0,0,0.0*
21,1,0.0128,0.0552,0,0,0.0*
1,1,0.0208,0.0064,-0.0172*
1,1,0.0208,-0.0064,-0.0172*
1,1,0.0208,-0.0064,0.0172*
1,1,0.0208,0.0064,0.0172*
%
%ADD71ROUNDEDRECTD71*%
G04:AMPARAMS|DCode=72|XSize=67.1mil|YSize=51.3mil|CornerRadius=10.5mil|HoleSize=0mil|Usage=FLASHONLY|Rotation=90.000|XOffset=0mil|YOffset=0mil|HoleType=Round|Shape=RoundedRectangle|*
%AMROUNDEDRECTD72*
21,1,0.0671,0.0303,0,0,90.0*
21,1,0.0461,0.0513,0,0,90.0*
1,1,0.0210,0.0152,0.0230*
1,1,0.0210,0.0152,-0.0230*
1,1,0.0210,-0.0152,-0.0230*
1,1,0.0210,-0.0152,0.0230*
%
%ADD72ROUNDEDRECTD72*%
G04:AMPARAMS|DCode=73|XSize=51.3mil|YSize=74.9mil|CornerRadius=14.8mil|HoleSize=0mil|Usage=FLASHONLY|Rotation=0.000|XOffset=0mil|YOffset=0mil|HoleType=Round|Shape=RoundedRectangle|*
%AMROUNDEDRECTD73*
21,1,0.0513,0.0453,0,0,0.0*
21,1,0.0217,0.0749,0,0,0.0*
1,1,0.0297,0.0108,-0.0226*
1,1,0.0297,-0.0108,-0.0226*
1,1,0.0297,-0.0108,0.0226*
1,1,0.0297,0.0108,0.0226*
%
%ADD73ROUNDEDRECTD73*%
%ADD74O,0.0336X0.0730*%
G04:AMPARAMS|DCode=75|XSize=158mil|YSize=117.8mil|CornerRadius=20.5mil|HoleSize=0mil|Usage=FLASHONLY|Rotation=180.000|XOffset=0mil|YOffset=0mil|HoleType=Round|Shape=RoundedRectangle|*
%AMROUNDEDRECTD75*
21,1,0.1580,0.0769,0,0,180.0*
21,1,0.1170,0.1178,0,0,180.0*
1,1,0.0410,-0.0585,0.0384*
1,1,0.0410,0.0585,0.0384*
1,1,0.0410,0.0585,-0.0384*
1,1,0.0410,-0.0585,-0.0384*
%
%ADD75ROUNDEDRECTD75*%
G04:AMPARAMS|DCode=76|XSize=27.7mil|YSize=27.7mil|CornerRadius=8.9mil|HoleSize=0mil|Usage=FLASHONLY|Rotation=270.000|XOffset=0mil|YOffset=0mil|HoleType=Round|Shape=RoundedRectangle|*
%AMROUNDEDRECTD76*
21,1,0.0277,0.0098,0,0,270.0*
21,1,0.0098,0.0277,0,0,270.0*
1,1,0.0178,-0.0049,-0.0049*
1,1,0.0178,-0.0049,0.0049*
1,1,0.0178,0.0049,0.0049*
1,1,0.0178,0.0049,-0.0049*
%
%ADD76ROUNDEDRECTD76*%
G04:AMPARAMS|DCode=77|XSize=33.6mil|YSize=55.2mil|CornerRadius=10.4mil|HoleSize=0mil|Usage=FLASHONLY|Rotation=270.000|XOffset=0mil|YOffset=0mil|HoleType=Round|Shape=RoundedRectangle|*
%AMROUNDEDRECTD77*
21,1,0.0336,0.0344,0,0,270.0*
21,1,0.0128,0.0552,0,0,270.0*
1,1,0.0208,-0.0172,-0.0064*
1,1,0.0208,-0.0172,0.0064*
1,1,0.0208,0.0172,0.0064*
1,1,0.0208,0.0172,-0.0064*
%
%ADD77ROUNDEDRECTD77*%
G04:AMPARAMS|DCode=78|XSize=31.6mil|YSize=35.6mil|CornerRadius=9.9mil|HoleSize=0mil|Usage=FLASHONLY|Rotation=0.000|XOffset=0mil|YOffset=0mil|HoleType=Round|Shape=RoundedRectangle|*
%AMROUNDEDRECTD78*
21,1,0.0316,0.0157,0,0,0.0*
21,1,0.0118,0.0356,0,0,0.0*
1,1,0.0198,0.0059,-0.0079*
1,1,0.0198,-0.0059,-0.0079*
1,1,0.0198,-0.0059,0.0079*
1,1,0.0198,0.0059,0.0079*
%
%ADD78ROUNDEDRECTD78*%
%ADD79O,0.1580X0.1330*%
%ADD80C,0.0080*%
%ADD81C,0.0700*%
%ADD82R,0.0700X0.0700*%
%ADD83R,0.0671X0.0671*%
%ADD84C,0.0680*%
%ADD85R,0.0658X0.0658*%
%ADD86C,0.0658*%
%ADD87C,0.1241*%
%ADD88C,0.0395*%
%ADD89C,0.0671*%
G36*
X52328Y77991D02*
X52391Y77985D01*
X52455Y77977D01*
X52518Y77965D01*
X52580Y77950D01*
X52641Y77932D01*
X52701Y77911D01*
X52760Y77887D01*
X52818Y77859D01*
X52874Y77829D01*
X52928Y77795D01*
X52981Y77759D01*
X53032Y77720D01*
X53080Y77679D01*
X53127Y77635D01*
X53171Y77588D01*
X53212Y77540D01*
X53251Y77489D01*
X53287Y77436D01*
X53321Y77382D01*
X53351Y77326D01*
X53379Y77268D01*
X53403Y77209D01*
X53424Y77149D01*
X53443Y77087D01*
X53457Y77026D01*
X53469Y76963D01*
X53478Y76899D01*
X53483Y76835D01*
X53484Y76772D01*
Y75984D01*
Y75197D01*
X53483Y75156D01*
X53481Y75115D01*
X53478Y75074D01*
X53473Y75034D01*
X53467Y74994D01*
X53459Y74954D01*
X53451Y74914D01*
X53441Y74874D01*
X53429Y74835D01*
X53416Y74797D01*
X53402Y74759D01*
X53387Y74721D01*
X53370Y74684D01*
X53352Y74647D01*
X53333Y74611D01*
X53313Y74576D01*
X53291Y74541D01*
X53268Y74508D01*
X53244Y74475D01*
X53220Y74443D01*
X53194Y74411D01*
X53167Y74381D01*
X53139Y74351D01*
X53110Y74322D01*
X53080Y74295D01*
X53049Y74268D01*
X53017Y74243D01*
X52985Y74219D01*
X52951Y74195D01*
X52917Y74173D01*
X51610D01*
X51576Y74195D01*
X51543Y74219D01*
X51511Y74243D01*
X51479Y74268D01*
X51448Y74295D01*
X51418Y74322D01*
X51389Y74351D01*
X51361Y74381D01*
X51334Y74411D01*
X51308Y74443D01*
X51283Y74475D01*
X51259Y74508D01*
X51237Y74541D01*
X51215Y74576D01*
X51194Y74611D01*
X51176Y74647D01*
X51157Y74684D01*
X51141Y74721D01*
X51126Y74759D01*
X51111Y74797D01*
X51098Y74835D01*
X51087Y74874D01*
X51077Y74914D01*
X51068Y74954D01*
X51061Y74994D01*
X51054Y75034D01*
X51050Y75074D01*
X51046Y75115D01*
X51044Y75156D01*
X51043Y75197D01*
Y75984D01*
Y76772D01*
X51045Y76835D01*
X51050Y76899D01*
X51058Y76963D01*
X51070Y77026D01*
X51085Y77087D01*
X51103Y77149D01*
X51124Y77209D01*
X51149Y77268D01*
X51176Y77326D01*
X51207Y77382D01*
X51240Y77436D01*
X51276Y77489D01*
X51315Y77540D01*
X51357Y77588D01*
X51401Y77635D01*
X51447Y77679D01*
X51496Y77720D01*
X51546Y77759D01*
X51599Y77795D01*
X51654Y77829D01*
X51710Y77859D01*
X51767Y77887D01*
X51826Y77911D01*
X51887Y77932D01*
X51948Y77950D01*
X52010Y77965D01*
X52073Y77977D01*
X52136Y77985D01*
X52200Y77991D01*
X52264Y77992D01*
X52328Y77991D01*
D02*
G37*
G36*
X57242Y73217D02*
X57247Y73216D01*
X57252Y73215D01*
X57257Y73212D01*
X57261Y73209D01*
X57265Y73206D01*
X57268Y73202D01*
X57271Y73198D01*
X57274Y73193D01*
X57275Y73188D01*
X57276Y73183D01*
X57277Y73178D01*
Y73018D01*
X59037Y73018D01*
X59042Y73017D01*
X59047Y73016D01*
X59052Y73015D01*
X59057Y73012D01*
X59061Y73009D01*
X59065Y73006D01*
X59068Y73002D01*
X59071Y72998D01*
X59074Y72993D01*
X59075Y72988D01*
X59076Y72983D01*
X59077Y72978D01*
Y72678D01*
X59076Y72672D01*
X59075Y72667D01*
X59074Y72662D01*
X59071Y72658D01*
X59068Y72653D01*
X59065Y72649D01*
X59061Y72646D01*
X59057Y72643D01*
X59052Y72641D01*
X59047Y72639D01*
X59042Y72638D01*
X59037Y72637D01*
X58877D01*
X58877Y72468D01*
X59037D01*
X59042Y72467D01*
X59047Y72466D01*
X59052Y72465D01*
X59057Y72462D01*
X59061Y72459D01*
X59065Y72456D01*
X59068Y72452D01*
X59071Y72448D01*
X59074Y72443D01*
X59075Y72438D01*
X59076Y72433D01*
X59077Y72428D01*
Y72178D01*
X59076Y72172D01*
X59075Y72167D01*
X59074Y72162D01*
X59071Y72158D01*
X59068Y72153D01*
X59065Y72149D01*
X59061Y72146D01*
X59057Y72143D01*
X59052Y72141D01*
X59047Y72139D01*
X59042Y72138D01*
X59037Y72137D01*
X58877D01*
Y71968D01*
X59037D01*
X59042Y71967D01*
X59047Y71966D01*
X59052Y71965D01*
X59057Y71962D01*
X59061Y71959D01*
X59065Y71956D01*
X59068Y71952D01*
X59071Y71948D01*
X59074Y71943D01*
X59075Y71938D01*
X59076Y71933D01*
X59077Y71928D01*
Y71678D01*
X59076Y71672D01*
X59075Y71667D01*
X59074Y71662D01*
X59071Y71658D01*
X59068Y71653D01*
X59065Y71649D01*
X59061Y71646D01*
X59057Y71643D01*
X59052Y71641D01*
X59047Y71639D01*
X59042Y71638D01*
X59037Y71637D01*
X58877D01*
X58877Y71468D01*
X59037D01*
X59042Y71467D01*
X59047Y71466D01*
X59052Y71465D01*
X59057Y71462D01*
X59061Y71459D01*
X59065Y71456D01*
X59068Y71452D01*
X59071Y71448D01*
X59074Y71443D01*
X59075Y71438D01*
X59076Y71433D01*
X59077Y71428D01*
Y71128D01*
X59076Y71122D01*
X59075Y71117D01*
X59074Y71112D01*
X59071Y71108D01*
X59068Y71103D01*
X59065Y71099D01*
X59061Y71096D01*
X59057Y71093D01*
X59052Y71091D01*
X59047Y71089D01*
X59042Y71088D01*
X59037Y71087D01*
X57277D01*
Y70878D01*
X57276Y70872D01*
X57275Y70867D01*
X57274Y70862D01*
X57271Y70858D01*
X57268Y70853D01*
X57265Y70849D01*
X57261Y70846D01*
X57257Y70843D01*
X57252Y70841D01*
X57247Y70839D01*
X57242Y70838D01*
X57237Y70837D01*
X57037D01*
X57031Y70838D01*
X57026Y70839D01*
X57021Y70841D01*
X57017Y70843D01*
X57012Y70846D01*
X57008Y70849D01*
X57005Y70853D01*
X57002Y70858D01*
X57000Y70862D01*
X56998Y70867D01*
X56997Y70872D01*
X56997Y70878D01*
Y73178D01*
X56997Y73183D01*
X56998Y73188D01*
X57000Y73193D01*
X57002Y73198D01*
X57005Y73202D01*
X57008Y73206D01*
X57012Y73209D01*
X57017Y73212D01*
X57021Y73215D01*
X57026Y73216D01*
X57031Y73217D01*
X57037Y73218D01*
X57237D01*
X57242Y73217D01*
D02*
G37*
G36*
X52951Y73836D02*
X52985Y73813D01*
X53017Y73789D01*
X53049Y73763D01*
X53080Y73737D01*
X53110Y73709D01*
X53139Y73680D01*
X53167Y73651D01*
X53194Y73620D01*
X53220Y73589D01*
X53244Y73557D01*
X53268Y73524D01*
X53291Y73490D01*
X53313Y73456D01*
X53333Y73420D01*
X53352Y73384D01*
X53370Y73348D01*
X53387Y73311D01*
X53402Y73273D01*
X53416Y73235D01*
X53429Y73196D01*
X53441Y73157D01*
X53451Y73117D01*
X53459Y73078D01*
X53467Y73038D01*
X53473Y72998D01*
X53478Y72957D01*
X53481Y72917D01*
X53483Y72876D01*
X53484Y72835D01*
Y72047D01*
Y71260D01*
X53483Y71196D01*
X53478Y71132D01*
X53469Y71069D01*
X53457Y71006D01*
X53443Y70944D01*
X53424Y70883D01*
X53403Y70822D01*
X53379Y70763D01*
X53351Y70706D01*
X53321Y70650D01*
X53287Y70595D01*
X53251Y70543D01*
X53212Y70492D01*
X53171Y70443D01*
X53127Y70397D01*
X53080Y70353D01*
X53032Y70311D01*
X52981Y70272D01*
X52928Y70236D01*
X52874Y70203D01*
X52818Y70172D01*
X52760Y70145D01*
X52701Y70120D01*
X52641Y70099D01*
X52580Y70081D01*
X52518Y70066D01*
X52455Y70054D01*
X52391Y70046D01*
X52328Y70041D01*
X52264Y70039D01*
X52200Y70041D01*
X52136Y70046D01*
X52073Y70054D01*
X52010Y70066D01*
X51948Y70081D01*
X51887Y70099D01*
X51826Y70120D01*
X51767Y70145D01*
X51710Y70172D01*
X51654Y70203D01*
X51599Y70236D01*
X51546Y70272D01*
X51496Y70311D01*
X51447Y70353D01*
X51401Y70397D01*
X51357Y70443D01*
X51315Y70492D01*
X51276Y70543D01*
X51240Y70595D01*
X51207Y70650D01*
X51176Y70706D01*
X51149Y70763D01*
X51124Y70822D01*
X51103Y70883D01*
X51085Y70944D01*
X51070Y71006D01*
X51058Y71069D01*
X51050Y71132D01*
X51045Y71196D01*
X51043Y71260D01*
Y72047D01*
Y72835D01*
X51044Y72876D01*
X51046Y72917D01*
X51050Y72957D01*
X51054Y72998D01*
X51061Y73038D01*
X51068Y73078D01*
X51077Y73117D01*
X51087Y73157D01*
X51098Y73196D01*
X51111Y73235D01*
X51126Y73273D01*
X51141Y73311D01*
X51157Y73348D01*
X51176Y73384D01*
X51194Y73420D01*
X51215Y73456D01*
X51237Y73490D01*
X51259Y73524D01*
X51283Y73557D01*
X51308Y73589D01*
X51334Y73620D01*
X51361Y73651D01*
X51389Y73680D01*
X51418Y73709D01*
X51448Y73737D01*
X51479Y73763D01*
X51511Y73789D01*
X51543Y73813D01*
X51576Y73836D01*
X51610Y73858D01*
X52917D01*
X52951Y73836D01*
D02*
G37*
G36*
X52229Y57715D02*
X52293Y57710D01*
X52356Y57702D01*
X52419Y57690D01*
X52481Y57675D01*
X52543Y57657D01*
X52603Y57635D01*
X52662Y57611D01*
X52719Y57583D01*
X52776Y57553D01*
X52830Y57520D01*
X52883Y57483D01*
X52933Y57444D01*
X52982Y57403D01*
X53028Y57359D01*
X53072Y57313D01*
X53114Y57264D01*
X53153Y57213D01*
X53189Y57161D01*
X53222Y57106D01*
X53253Y57050D01*
X53280Y56993D01*
X53305Y56933D01*
X53326Y56873D01*
X53344Y56812D01*
X53359Y56750D01*
X53371Y56687D01*
X53379Y56624D01*
X53384Y56560D01*
X53386Y56496D01*
Y55709D01*
Y54921D01*
X53385Y54880D01*
X53383Y54839D01*
X53380Y54799D01*
X53375Y54758D01*
X53369Y54718D01*
X53361Y54678D01*
X53352Y54639D01*
X53342Y54599D01*
X53331Y54560D01*
X53318Y54521D01*
X53304Y54483D01*
X53288Y54445D01*
X53272Y54408D01*
X53254Y54372D01*
X53235Y54336D01*
X53214Y54300D01*
X53193Y54266D01*
X53170Y54232D01*
X53146Y54199D01*
X53121Y54167D01*
X53095Y54135D01*
X53068Y54105D01*
X53040Y54076D01*
X53011Y54047D01*
X52982Y54019D01*
X52950Y53993D01*
X52919Y53967D01*
X52886Y53943D01*
X52853Y53920D01*
X52819Y53898D01*
X51512D01*
X51478Y53920D01*
X51444Y53943D01*
X51412Y53967D01*
X51380Y53993D01*
X51349Y54019D01*
X51319Y54047D01*
X51291Y54076D01*
X51263Y54105D01*
X51235Y54135D01*
X51209Y54167D01*
X51185Y54199D01*
X51161Y54232D01*
X51138Y54266D01*
X51117Y54300D01*
X51096Y54336D01*
X51077Y54372D01*
X51059Y54408D01*
X51043Y54445D01*
X51027Y54483D01*
X51013Y54521D01*
X51000Y54560D01*
X50989Y54599D01*
X50978Y54639D01*
X50970Y54678D01*
X50962Y54718D01*
X50956Y54758D01*
X50951Y54799D01*
X50948Y54839D01*
X50946Y54880D01*
X50945Y54921D01*
Y55709D01*
Y56496D01*
X50946Y56560D01*
X50952Y56624D01*
X50960Y56687D01*
X50972Y56750D01*
X50987Y56812D01*
X51005Y56873D01*
X51026Y56933D01*
X51050Y56993D01*
X51078Y57050D01*
X51108Y57106D01*
X51142Y57161D01*
X51178Y57213D01*
X51217Y57264D01*
X51258Y57313D01*
X51302Y57359D01*
X51349Y57403D01*
X51397Y57444D01*
X51448Y57483D01*
X51501Y57520D01*
X51555Y57553D01*
X51611Y57583D01*
X51669Y57611D01*
X51728Y57635D01*
X51788Y57657D01*
X51850Y57675D01*
X51911Y57690D01*
X51974Y57702D01*
X52038Y57710D01*
X52102Y57715D01*
X52165Y57717D01*
X52229Y57715D01*
D02*
G37*
G36*
X27723Y53643D02*
X27728Y53642D01*
X27733Y53641D01*
X27738Y53638D01*
X27742Y53635D01*
X27746Y53632D01*
X27750Y53628D01*
X27752Y53624D01*
X27755Y53619D01*
X27756Y53614D01*
X27757Y53609D01*
X27758Y53604D01*
Y51844D01*
X27968D01*
X27973Y51843D01*
X27978Y51842D01*
X27983Y51841D01*
X27988Y51838D01*
X27992Y51835D01*
X27996Y51832D01*
X28000Y51828D01*
X28002Y51824D01*
X28005Y51819D01*
X28006Y51814D01*
X28007Y51809D01*
X28008Y51804D01*
Y51604D01*
X28007Y51598D01*
X28006Y51593D01*
X28005Y51588D01*
X28002Y51583D01*
X28000Y51579D01*
X27996Y51575D01*
X27992Y51572D01*
X27988Y51569D01*
X27983Y51567D01*
X27978Y51565D01*
X27973Y51564D01*
X27968Y51563D01*
X25668D01*
X25663Y51564D01*
X25657Y51565D01*
X25652Y51567D01*
X25648Y51569D01*
X25643Y51572D01*
X25639Y51575D01*
X25636Y51579D01*
X25633Y51583D01*
X25631Y51588D01*
X25629Y51593D01*
X25628Y51598D01*
X25628Y51604D01*
Y51804D01*
X25628Y51809D01*
X25629Y51814D01*
X25631Y51819D01*
X25633Y51824D01*
X25636Y51828D01*
X25639Y51832D01*
X25643Y51835D01*
X25648Y51838D01*
X25652Y51841D01*
X25657Y51842D01*
X25663Y51843D01*
X25668Y51844D01*
X25828D01*
Y53604D01*
X25828Y53609D01*
X25829Y53614D01*
X25831Y53619D01*
X25833Y53624D01*
X25836Y53628D01*
X25839Y53632D01*
X25843Y53635D01*
X25848Y53638D01*
X25852Y53641D01*
X25857Y53642D01*
X25863Y53643D01*
X25868Y53644D01*
X26168D01*
X26173Y53643D01*
X26178Y53642D01*
X26183Y53641D01*
X26188Y53638D01*
X26192Y53635D01*
X26196Y53632D01*
X26200Y53628D01*
X26202Y53624D01*
X26205Y53619D01*
X26206Y53614D01*
X26207Y53609D01*
X26208Y53604D01*
Y53444D01*
X26378D01*
Y53604D01*
X26378Y53609D01*
X26379Y53614D01*
X26381Y53619D01*
X26383Y53624D01*
X26386Y53628D01*
X26389Y53632D01*
X26393Y53635D01*
X26398Y53638D01*
X26402Y53641D01*
X26407Y53642D01*
X26413Y53643D01*
X26418Y53644D01*
X26668D01*
X26673Y53643D01*
X26678Y53642D01*
X26683Y53641D01*
X26688Y53638D01*
X26692Y53635D01*
X26696Y53632D01*
X26700Y53628D01*
X26702Y53624D01*
X26705Y53619D01*
X26706Y53614D01*
X26707Y53609D01*
X26708Y53604D01*
Y53444D01*
X26878D01*
Y53604D01*
X26878Y53609D01*
X26879Y53614D01*
X26881Y53619D01*
X26883Y53624D01*
X26886Y53628D01*
X26889Y53632D01*
X26893Y53635D01*
X26898Y53638D01*
X26902Y53641D01*
X26907Y53642D01*
X26913Y53643D01*
X26918Y53644D01*
X27168D01*
X27173Y53643D01*
X27178Y53642D01*
X27183Y53641D01*
X27188Y53638D01*
X27192Y53635D01*
X27196Y53632D01*
X27200Y53628D01*
X27202Y53624D01*
X27205Y53619D01*
X27206Y53614D01*
X27207Y53609D01*
X27208Y53604D01*
Y53444D01*
X27378D01*
Y53604D01*
X27378Y53609D01*
X27379Y53614D01*
X27381Y53619D01*
X27383Y53624D01*
X27386Y53628D01*
X27389Y53632D01*
X27393Y53635D01*
X27398Y53638D01*
X27402Y53641D01*
X27407Y53642D01*
X27413Y53643D01*
X27418Y53644D01*
X27718D01*
X27723Y53643D01*
D02*
G37*
G36*
X57242Y52942D02*
X57247Y52941D01*
X57252Y52939D01*
X57257Y52937D01*
X57261Y52934D01*
X57265Y52930D01*
X57268Y52926D01*
X57271Y52922D01*
X57274Y52917D01*
X57275Y52912D01*
X57276Y52907D01*
X57277Y52902D01*
Y52742D01*
X59037D01*
X59042Y52742D01*
X59047Y52741D01*
X59052Y52739D01*
X59057Y52737D01*
X59061Y52734D01*
X59065Y52730D01*
X59068Y52726D01*
X59071Y52722D01*
X59074Y52717D01*
X59075Y52712D01*
X59076Y52707D01*
X59077Y52702D01*
X59077Y52402D01*
X59076Y52397D01*
X59075Y52392D01*
X59074Y52387D01*
X59071Y52382D01*
X59068Y52378D01*
X59065Y52374D01*
X59061Y52370D01*
X59057Y52367D01*
X59052Y52365D01*
X59047Y52363D01*
X59042Y52362D01*
X59037Y52362D01*
X58877Y52362D01*
Y52192D01*
X59037Y52192D01*
X59042Y52192D01*
X59047Y52191D01*
X59052Y52189D01*
X59057Y52187D01*
X59061Y52184D01*
X59065Y52180D01*
X59068Y52176D01*
X59071Y52172D01*
X59074Y52167D01*
X59075Y52162D01*
X59076Y52157D01*
X59077Y52152D01*
X59077Y51902D01*
X59076Y51897D01*
X59075Y51892D01*
X59074Y51887D01*
X59071Y51882D01*
X59068Y51878D01*
X59065Y51874D01*
X59061Y51870D01*
X59057Y51867D01*
X59052Y51865D01*
X59047Y51863D01*
X59042Y51862D01*
X59037Y51862D01*
X58877Y51862D01*
Y51692D01*
X59037D01*
X59042Y51692D01*
X59047Y51691D01*
X59052Y51689D01*
X59057Y51687D01*
X59061Y51684D01*
X59065Y51680D01*
X59068Y51676D01*
X59071Y51672D01*
X59074Y51667D01*
X59075Y51662D01*
X59076Y51657D01*
X59077Y51652D01*
X59077Y51402D01*
X59076Y51397D01*
X59075Y51392D01*
X59074Y51387D01*
X59071Y51382D01*
X59068Y51378D01*
X59065Y51374D01*
X59061Y51370D01*
X59057Y51367D01*
X59052Y51365D01*
X59047Y51363D01*
X59042Y51362D01*
X59037Y51362D01*
X58877D01*
Y51192D01*
X59037Y51192D01*
X59042Y51192D01*
X59047Y51191D01*
X59052Y51189D01*
X59057Y51187D01*
X59061Y51184D01*
X59065Y51180D01*
X59068Y51176D01*
X59071Y51172D01*
X59074Y51167D01*
X59075Y51162D01*
X59076Y51157D01*
X59077Y51152D01*
Y50852D01*
X59076Y50847D01*
X59075Y50842D01*
X59074Y50837D01*
X59071Y50832D01*
X59068Y50828D01*
X59065Y50824D01*
X59061Y50820D01*
X59057Y50817D01*
X59052Y50815D01*
X59047Y50813D01*
X59042Y50812D01*
X59037Y50812D01*
X57277Y50812D01*
X57277Y50602D01*
X57276Y50597D01*
X57275Y50592D01*
X57274Y50587D01*
X57271Y50582D01*
X57268Y50578D01*
X57265Y50574D01*
X57261Y50570D01*
X57257Y50567D01*
X57252Y50565D01*
X57247Y50563D01*
X57242Y50562D01*
X57237Y50562D01*
X57037D01*
X57031Y50562D01*
X57026Y50563D01*
X57021Y50565D01*
X57017Y50567D01*
X57012Y50570D01*
X57008Y50574D01*
X57005Y50578D01*
X57002Y50582D01*
X57000Y50587D01*
X56998Y50592D01*
X56997Y50597D01*
X56997Y50602D01*
Y52902D01*
X56997Y52907D01*
X56998Y52912D01*
X57000Y52917D01*
X57002Y52922D01*
X57005Y52926D01*
X57008Y52930D01*
X57012Y52934D01*
X57017Y52937D01*
X57021Y52939D01*
X57026Y52941D01*
X57031Y52942D01*
X57037Y52942D01*
X57237D01*
X57242Y52942D01*
D02*
G37*
G36*
X52853Y53561D02*
X52886Y53537D01*
X52919Y53513D01*
X52950Y53487D01*
X52982Y53461D01*
X53011Y53433D01*
X53040Y53405D01*
X53068Y53375D01*
X53095Y53345D01*
X53121Y53313D01*
X53146Y53281D01*
X53170Y53248D01*
X53193Y53215D01*
X53214Y53180D01*
X53235Y53144D01*
X53254Y53109D01*
X53272Y53072D01*
X53288Y53035D01*
X53304Y52997D01*
X53318Y52959D01*
X53331Y52920D01*
X53342Y52881D01*
X53352Y52842D01*
X53361Y52802D01*
X53369Y52762D01*
X53375Y52722D01*
X53380Y52681D01*
X53383Y52641D01*
X53385Y52600D01*
X53386Y52559D01*
Y51772D01*
Y50984D01*
X53384Y50920D01*
X53379Y50857D01*
X53371Y50793D01*
X53359Y50730D01*
X53344Y50669D01*
X53326Y50607D01*
X53305Y50547D01*
X53280Y50488D01*
X53253Y50430D01*
X53222Y50374D01*
X53189Y50320D01*
X53153Y50267D01*
X53114Y50216D01*
X53072Y50168D01*
X53028Y50121D01*
X52982Y50077D01*
X52933Y50036D01*
X52883Y49997D01*
X52830Y49961D01*
X52776Y49927D01*
X52719Y49897D01*
X52662Y49869D01*
X52603Y49845D01*
X52543Y49824D01*
X52481Y49806D01*
X52419Y49791D01*
X52356Y49779D01*
X52293Y49770D01*
X52229Y49765D01*
X52165Y49764D01*
X52102Y49765D01*
X52038Y49770D01*
X51974Y49779D01*
X51911Y49791D01*
X51850Y49806D01*
X51788Y49824D01*
X51728Y49845D01*
X51669Y49869D01*
X51611Y49897D01*
X51555Y49927D01*
X51501Y49961D01*
X51448Y49997D01*
X51397Y50036D01*
X51349Y50077D01*
X51302Y50121D01*
X51258Y50168D01*
X51217Y50216D01*
X51178Y50267D01*
X51142Y50320D01*
X51108Y50374D01*
X51078Y50430D01*
X51050Y50488D01*
X51026Y50547D01*
X51005Y50607D01*
X50987Y50669D01*
X50972Y50730D01*
X50960Y50793D01*
X50952Y50857D01*
X50946Y50920D01*
X50945Y50984D01*
Y51772D01*
Y52559D01*
X50946Y52600D01*
X50948Y52641D01*
X50951Y52681D01*
X50956Y52722D01*
X50962Y52762D01*
X50970Y52802D01*
X50978Y52842D01*
X50989Y52881D01*
X51000Y52920D01*
X51013Y52959D01*
X51027Y52997D01*
X51043Y53035D01*
X51059Y53072D01*
X51077Y53109D01*
X51096Y53144D01*
X51117Y53180D01*
X51138Y53215D01*
X51161Y53248D01*
X51185Y53281D01*
X51209Y53313D01*
X51235Y53345D01*
X51263Y53375D01*
X51291Y53405D01*
X51319Y53433D01*
X51349Y53461D01*
X51380Y53487D01*
X51412Y53513D01*
X51444Y53537D01*
X51478Y53561D01*
X51512Y53583D01*
X52819D01*
X52853Y53561D01*
D02*
G37*
D50*
X64684Y67992D02*
X64685Y67799D01*
X64047Y67227D02*
X64048Y67034D01*
X64684Y48701D02*
X64685Y48508D01*
X64047Y47936D02*
X64048Y47743D01*
X64684Y73504D02*
X64685Y73311D01*
X64047Y72739D02*
X64048Y72546D01*
X64786Y54234D02*
X64787Y54041D01*
X64149Y53469D02*
X64150Y53276D01*
X64786Y62502D02*
X64787Y62309D01*
X64149Y61737D02*
X64150Y61544D01*
X64684Y79016D02*
X64685Y78823D01*
X64047Y78251D02*
X64048Y78058D01*
X64786Y59746D02*
X64787Y59553D01*
X64149Y58981D02*
X64150Y58788D01*
X64684Y65236D02*
X64685Y65043D01*
X64047Y64471D02*
X64048Y64279D01*
X64684Y70748D02*
X64685Y70555D01*
X64047Y69983D02*
X64048Y69790D01*
X64684Y51457D02*
X64685Y51264D01*
X64047Y50692D02*
X64048Y50499D01*
X64786Y56990D02*
X64787Y56797D01*
X64149Y56225D02*
X64150Y56032D01*
X64684Y76260D02*
X64685Y76067D01*
X64047Y75495D02*
X64048Y75302D01*
D51*
X23053Y62008D02*
D03*
X48455Y78506D02*
D03*
X57918Y48858D02*
D03*
X20965Y53274D02*
D03*
D52*
X43839Y75724D02*
D03*
X31299Y65008D02*
D03*
X40354Y62330D02*
D03*
X36122Y75831D02*
D03*
X29474Y69965D02*
D03*
X36818Y68362D02*
D03*
X43740Y55340D02*
D03*
X30621Y78287D02*
D03*
X28589Y72087D02*
D03*
X37697Y62330D02*
D03*
X38287Y59751D02*
D03*
X35637Y59770D02*
D03*
X34976Y54864D02*
D03*
X34350D02*
D03*
X40354Y62920D02*
D03*
X37697Y62920D02*
D03*
X46872Y57739D02*
D03*
Y58329D02*
D03*
X43821Y57739D02*
D03*
X43821Y58329D02*
D03*
X43821Y59156D02*
D03*
Y59746D02*
D03*
X49037Y56339D02*
D03*
X49037Y56929D02*
D03*
X45986Y56339D02*
D03*
Y56929D02*
D03*
X34843Y61906D02*
D03*
Y61316D02*
D03*
X34055Y61316D02*
D03*
Y61906D02*
D03*
X33465Y61906D02*
D03*
Y61316D02*
D03*
X32776Y61319D02*
D03*
Y61909D02*
D03*
X38780Y49728D02*
D03*
X39370D02*
D03*
X34976Y54274D02*
D03*
X30709Y48819D02*
D03*
Y48228D02*
D03*
X29921Y50492D02*
D03*
Y51083D02*
D03*
X30621Y77697D02*
D03*
X28589Y72677D02*
D03*
X31299Y65598D02*
D03*
X34350Y54274D02*
D03*
X34646Y48819D02*
D03*
Y48228D02*
D03*
X33858Y48228D02*
D03*
Y48819D02*
D03*
X39370Y49138D02*
D03*
X33858Y49508D02*
D03*
Y50098D02*
D03*
X29075Y66831D02*
D03*
Y67421D02*
D03*
X38780Y49138D02*
D03*
X28406Y68012D02*
D03*
Y67421D02*
D03*
X36818Y68953D02*
D03*
X36122Y76421D02*
D03*
X29474Y69375D02*
D03*
X38287Y61621D02*
D03*
Y61030D02*
D03*
Y60341D02*
D03*
X38681Y62900D02*
D03*
Y62310D02*
D03*
X39075Y59751D02*
D03*
Y60341D02*
D03*
X39469Y62310D02*
D03*
Y62900D02*
D03*
X35637Y61641D02*
D03*
Y61050D02*
D03*
Y60361D02*
D03*
X36030Y62920D02*
D03*
Y62330D02*
D03*
X46872Y59156D02*
D03*
Y59746D02*
D03*
X36424Y59770D02*
D03*
Y60361D02*
D03*
X36818Y62330D02*
D03*
Y62920D02*
D03*
X51672Y68907D02*
D03*
Y69498D02*
D03*
X43839Y76315D02*
D03*
X43740Y55930D02*
D03*
X48317Y69203D02*
D03*
Y68612D02*
D03*
X45659Y69203D02*
D03*
Y68612D02*
D03*
X46260Y69203D02*
D03*
Y68612D02*
D03*
X51583Y48622D02*
D03*
Y49213D02*
D03*
X48228Y48917D02*
D03*
Y48327D02*
D03*
X45571Y48917D02*
D03*
Y48327D02*
D03*
X46260Y48917D02*
D03*
Y48327D02*
D03*
D53*
X40610Y55906D02*
D03*
X39114Y54528D02*
D03*
X40610Y53346D02*
D03*
X42461Y55906D02*
D03*
X37264Y54528D02*
D03*
X42461Y53346D02*
D03*
D54*
X36660Y76772D02*
D03*
X40551Y49138D02*
D03*
X40551Y49728D02*
D03*
X34154Y64465D02*
D03*
X32776Y64468D02*
D03*
X47325Y62857D02*
D03*
X47915D02*
D03*
X44274Y63546D02*
D03*
X44864D02*
D03*
X48348Y57739D02*
D03*
X47758Y57739D02*
D03*
X45297Y57739D02*
D03*
X44707Y57739D02*
D03*
X45593Y62857D02*
D03*
X46183D02*
D03*
X44313Y64176D02*
D03*
X44904D02*
D03*
X46183Y62168D02*
D03*
X45593D02*
D03*
Y63546D02*
D03*
X46183D02*
D03*
X44904Y62168D02*
D03*
X44313D02*
D03*
X44313Y62857D02*
D03*
X44904D02*
D03*
X34744Y59052D02*
D03*
X34154D02*
D03*
X34744Y57674D02*
D03*
X34154D02*
D03*
X34154Y58363D02*
D03*
X34744D02*
D03*
X33366Y57677D02*
D03*
X32776D02*
D03*
X33366Y59055D02*
D03*
X32776D02*
D03*
X32776Y59941D02*
D03*
X33366D02*
D03*
X34154Y59938D02*
D03*
X34744D02*
D03*
X32776Y58366D02*
D03*
X33366D02*
D03*
X34744Y64465D02*
D03*
X33366Y64468D02*
D03*
X32776Y63878D02*
D03*
X33366D02*
D03*
X34154Y63875D02*
D03*
X34744D02*
D03*
X39961Y49728D02*
D03*
Y49138D02*
D03*
X39961Y48524D02*
D03*
X39370D02*
D03*
X30807Y58239D02*
D03*
X30217D02*
D03*
X37251Y76772D02*
D03*
X38932Y70177D02*
D03*
X39523D02*
D03*
X41219Y70177D02*
D03*
X40628Y70177D02*
D03*
X30807Y59026D02*
D03*
X30217D02*
D03*
X20996Y69783D02*
D03*
X21586D02*
D03*
X38976Y57684D02*
D03*
X38386D02*
D03*
X45297Y58329D02*
D03*
X44707D02*
D03*
X39665Y60046D02*
D03*
X40256D02*
D03*
Y59357D02*
D03*
X39665D02*
D03*
X40256Y58668D02*
D03*
X39665D02*
D03*
X47364Y64176D02*
D03*
X47955Y64176D02*
D03*
X36319Y57684D02*
D03*
X35728D02*
D03*
X47364Y62168D02*
D03*
X47955D02*
D03*
X48348Y58329D02*
D03*
X47758D02*
D03*
X47965Y63546D02*
D03*
X47374D02*
D03*
X37015Y60066D02*
D03*
X37605D02*
D03*
Y59377D02*
D03*
X37015D02*
D03*
X49234Y62857D02*
D03*
X48644D02*
D03*
Y63546D02*
D03*
X49234D02*
D03*
X37605Y58688D02*
D03*
X37015D02*
D03*
X48644Y62168D02*
D03*
X49234D02*
D03*
X41339Y60925D02*
D03*
X41929Y60925D02*
D03*
X52262Y67963D02*
D03*
X51672D02*
D03*
X41634Y58957D02*
D03*
X41043D02*
D03*
X41634Y62894D02*
D03*
X41043D02*
D03*
X41634Y65453D02*
D03*
X41043Y65453D02*
D03*
X41634Y64862D02*
D03*
X41043D02*
D03*
X42815Y60925D02*
D03*
X43406D02*
D03*
X52807Y48248D02*
D03*
X52217D02*
D03*
X43110Y58957D02*
D03*
X42520Y58957D02*
D03*
X43110Y62894D02*
D03*
X42520D02*
D03*
X43110Y65453D02*
D03*
X42520Y65453D02*
D03*
X43110Y64862D02*
D03*
X42520D02*
D03*
D55*
X39954Y61700D02*
D03*
X37303Y61719D02*
D03*
X38983Y61700D02*
D03*
Y61326D02*
D03*
Y60952D02*
D03*
X39954D02*
D03*
X36332Y61719D02*
D03*
Y61345D02*
D03*
Y60971D02*
D03*
X37303D02*
D03*
D56*
X40650Y51496D02*
D03*
Y50472D02*
D03*
X30709Y50630D02*
D03*
Y49606D02*
D03*
D57*
X36780Y75831D02*
D03*
X37280D02*
D03*
X37780D02*
D03*
X38280D02*
D03*
X38780D02*
D03*
X39280D02*
D03*
X39780D02*
D03*
X40280D02*
D03*
X40780D02*
D03*
Y72201D02*
D03*
X40280D02*
D03*
X39780D02*
D03*
X39280D02*
D03*
X38780D02*
D03*
X38280D02*
D03*
X37780D02*
D03*
X37280D02*
D03*
X36780D02*
D03*
D58*
X37762Y68362D02*
D03*
X39797Y69362D02*
D03*
X39797Y68862D02*
D03*
Y68362D02*
D03*
X39797Y67862D02*
D03*
X37762D02*
D03*
X37762Y68862D02*
D03*
X37762Y69362D02*
D03*
D59*
X31496Y70866D02*
D03*
Y72717D02*
D03*
D60*
X38307Y59062D02*
D03*
X35656Y59082D02*
D03*
X34075Y59938D02*
D03*
X34823D02*
D03*
X34449Y60725D02*
D03*
X32697Y59941D02*
D03*
X33445D02*
D03*
X33071Y60728D02*
D03*
X34075Y62497D02*
D03*
X34823D02*
D03*
X34449Y63284D02*
D03*
X32697Y62500D02*
D03*
X33445D02*
D03*
X33071Y63287D02*
D03*
X38681Y58274D02*
D03*
X39055Y59062D02*
D03*
X36030Y58294D02*
D03*
X36404Y59082D02*
D03*
X41339Y59547D02*
D03*
X40965Y60335D02*
D03*
X41713D02*
D03*
X41339Y61516D02*
D03*
X40965Y62303D02*
D03*
X41713D02*
D03*
X41339Y63484D02*
D03*
X40965Y64272D02*
D03*
X41713Y64272D02*
D03*
X42815Y59547D02*
D03*
X42441Y60335D02*
D03*
X43189D02*
D03*
X42815Y61516D02*
D03*
X42441Y62303D02*
D03*
X43189Y62303D02*
D03*
X42815Y63484D02*
D03*
X42441Y64272D02*
D03*
X43189D02*
D03*
D61*
X35630Y49728D02*
D03*
X37854D02*
D03*
Y48228D02*
D03*
X35630Y49228D02*
D03*
Y48728D02*
D03*
Y48228D02*
D03*
X37854Y49228D02*
D03*
Y48728D02*
D03*
D62*
X29626Y58258D02*
D03*
Y59006D02*
D03*
X28839Y58632D02*
D03*
X28543Y50787D02*
D03*
X29331Y51161D02*
D03*
Y50413D02*
D03*
X51073Y68907D02*
D03*
X50285Y68533D02*
D03*
Y69282D02*
D03*
X49695Y68907D02*
D03*
X48907Y68533D02*
D03*
Y69281D02*
D03*
X47726Y68907D02*
D03*
X46939Y68533D02*
D03*
Y69282D02*
D03*
X50984Y48622D02*
D03*
X50197Y48248D02*
D03*
Y48996D02*
D03*
X49606Y48622D02*
D03*
X48819Y48248D02*
D03*
Y48996D02*
D03*
X47638Y48622D02*
D03*
X46850Y48248D02*
D03*
Y48996D02*
D03*
D63*
X39336Y51772D02*
D03*
X37436D02*
D03*
D64*
X36024Y51181D02*
D03*
X34528D02*
D03*
D65*
X36742Y48978D02*
D03*
D66*
X25984Y48425D02*
D03*
X27559D02*
D03*
X25984Y49606D02*
D03*
X27559D02*
D03*
X28457Y56201D02*
D03*
X26882D02*
D03*
X28505Y54668D02*
D03*
X26930Y54668D02*
D03*
D67*
X32283Y50135D02*
D03*
Y48425D02*
D03*
D68*
X28937Y49567D02*
D03*
Y48465D02*
D03*
D69*
X29921Y48228D02*
D03*
Y49567D02*
D03*
D70*
X27566Y53504D02*
D03*
X27044D02*
D03*
X26539Y53503D02*
D03*
X26021Y53494D02*
D03*
D71*
X27048Y50787D02*
D03*
X26548D02*
D03*
X27559D02*
D03*
X26048D02*
D03*
D72*
X27520Y58140D02*
D03*
X28189D02*
D03*
X27520Y59124D02*
D03*
X28189D02*
D03*
D73*
X40605Y70949D02*
D03*
X39503D02*
D03*
D74*
X45986Y61380D02*
D03*
X45486Y61380D02*
D03*
X44986Y61380D02*
D03*
X44486Y61380D02*
D03*
X45986Y59156D02*
D03*
X45486Y59156D02*
D03*
X44986Y59156D02*
D03*
X44486D02*
D03*
X49037Y61380D02*
D03*
X48537D02*
D03*
X48037D02*
D03*
X47537D02*
D03*
X49037Y59156D02*
D03*
X48537Y59156D02*
D03*
X48037Y59156D02*
D03*
X47537D02*
D03*
D75*
X60827Y70331D02*
D03*
Y67520D02*
D03*
Y51012D02*
D03*
Y48201D02*
D03*
D76*
X58927Y72825D02*
D03*
X58936Y72306D02*
D03*
X58937Y71801D02*
D03*
X58937Y71280D02*
D03*
X58927Y52549D02*
D03*
X58936Y52030D02*
D03*
X58937Y51526D02*
D03*
X58937Y51004D02*
D03*
D77*
X56220Y72797D02*
D03*
Y71286D02*
D03*
Y72297D02*
D03*
Y71797D02*
D03*
Y52522D02*
D03*
Y51011D02*
D03*
Y52022D02*
D03*
Y51522D02*
D03*
D78*
X41339Y57677D02*
D03*
X40965Y58465D02*
D03*
X41713Y58465D02*
D03*
X42815Y57677D02*
D03*
X42441Y58465D02*
D03*
X43189Y58465D02*
D03*
D79*
X65370Y67520D02*
D03*
X63370D02*
D03*
X65370Y48228D02*
D03*
X63370D02*
D03*
X65370Y73031D02*
D03*
X63370D02*
D03*
X65472Y53761D02*
D03*
X63472D02*
D03*
X65472Y62029D02*
D03*
X63472D02*
D03*
X65370Y78543D02*
D03*
X63370D02*
D03*
X65472Y59273D02*
D03*
X63472D02*
D03*
X65370Y64764D02*
D03*
X63370D02*
D03*
X65370Y70276D02*
D03*
X63370D02*
D03*
X65370Y50984D02*
D03*
X63370D02*
D03*
X65472Y56517D02*
D03*
X63472D02*
D03*
X65370Y75787D02*
D03*
X63370D02*
D03*
D80*
X57874Y65551D02*
D03*
Y60433D02*
D03*
X25197Y59941D02*
D03*
Y69075D02*
D03*
D81*
X30404Y62008D02*
D03*
Y63008D02*
D03*
Y64008D02*
D03*
Y65008D02*
D03*
Y66008D02*
D03*
D82*
Y67008D02*
D03*
D83*
X43839Y74768D02*
D03*
X43740Y54492D02*
D03*
D84*
X38433Y78329D02*
D03*
X29589Y78287D02*
D03*
X28591Y70866D02*
D03*
X39083Y66929D02*
D03*
X38083Y66929D02*
D03*
X29591Y70866D02*
D03*
X27591D02*
D03*
X26591D02*
D03*
X25591D02*
D03*
X24591D02*
D03*
X23591D02*
D03*
X22591D02*
D03*
X21591D02*
D03*
X29484Y73087D02*
D03*
Y77087D02*
D03*
Y76087D02*
D03*
Y75087D02*
D03*
Y74087D02*
D03*
Y72087D02*
D03*
X41433Y78329D02*
D03*
X40433D02*
D03*
X39433D02*
D03*
X37433D02*
D03*
X36433D02*
D03*
X35433D02*
D03*
X21589Y78287D02*
D03*
X22589D02*
D03*
X23589D02*
D03*
X24589D02*
D03*
X25589D02*
D03*
X26589D02*
D03*
X28589D02*
D03*
X27589D02*
D03*
D85*
X23201Y49222D02*
D03*
D86*
Y50404D02*
D03*
X23201Y51585D02*
D03*
X23201Y52766D02*
D03*
Y53947D02*
D03*
Y55128D02*
D03*
Y56309D02*
D03*
Y57490D02*
D03*
X24382Y49222D02*
D03*
X24382Y50404D02*
D03*
Y51585D02*
D03*
X24382Y52766D02*
D03*
Y55128D02*
D03*
Y56309D02*
D03*
Y57490D02*
D03*
Y53947D02*
D03*
D87*
X21500Y50069D02*
D03*
Y56644D02*
D03*
D88*
X51512Y50510D02*
D03*
X51916Y50217D02*
D03*
X52415D02*
D03*
X52818Y50510D02*
D03*
X52972Y50988D02*
D03*
Y51512D02*
D03*
Y52035D02*
D03*
Y52559D02*
D03*
X52818Y53033D02*
D03*
X51916Y53327D02*
D03*
X52415Y53327D02*
D03*
X51512Y53033D02*
D03*
X51358Y50988D02*
D03*
X51358Y51512D02*
D03*
X51358Y52035D02*
D03*
X51358Y52559D02*
D03*
X51512Y54447D02*
D03*
X51916Y54154D02*
D03*
X52415Y54154D02*
D03*
X52818Y54447D02*
D03*
X52972Y54925D02*
D03*
Y55449D02*
D03*
Y55972D02*
D03*
Y56496D02*
D03*
X52818Y56970D02*
D03*
X51916Y57264D02*
D03*
X52415D02*
D03*
X51512Y56970D02*
D03*
X51358Y54925D02*
D03*
X51358Y55449D02*
D03*
Y55972D02*
D03*
Y56496D02*
D03*
X51611Y70785D02*
D03*
X52014Y70492D02*
D03*
X52513D02*
D03*
X52917Y70785D02*
D03*
X53071Y71264D02*
D03*
Y71787D02*
D03*
Y72311D02*
D03*
Y72835D02*
D03*
X52917Y73309D02*
D03*
X52014Y73602D02*
D03*
X52513Y73602D02*
D03*
X51611Y73309D02*
D03*
X51457Y71264D02*
D03*
X51457Y71787D02*
D03*
X51457Y72311D02*
D03*
X51457Y72835D02*
D03*
X51611Y74722D02*
D03*
X52014Y74429D02*
D03*
X52513Y74429D02*
D03*
X52917Y74722D02*
D03*
X53071Y75201D02*
D03*
Y75724D02*
D03*
Y76248D02*
D03*
Y76772D02*
D03*
X52917Y77246D02*
D03*
X52014Y77539D02*
D03*
X52513D02*
D03*
X51611Y77246D02*
D03*
X51457Y75201D02*
D03*
X51457Y75724D02*
D03*
Y76248D02*
D03*
Y76772D02*
D03*
D89*
X43740Y52988D02*
D03*
X43740Y53740D02*
D03*
X43839Y73264D02*
D03*
X43839Y74016D02*
D03*
M02*
