M48
;Layer_Color=0
;FILE_FORMAT=2:4
INCH,LZ
;TYPE=PLATED
T05F00S00C0.0400
T08F00S00C0.0787
%
G90
G05
T05
X06357Y048228G85X06317
X06557Y048228G85X06517
X06557Y050984G85X06517
X06357Y050984G85X06317
X063672Y053761G85X063272
X065672Y053761G85X065272
X065672Y056517G85X065272
X063672Y056517G85X063272
X063672Y059273G85X063272
X065672Y059273G85X065272
X065672Y062029G85X065272
X063672Y062029G85X063272
X06357Y064764G85X06317
X06557Y064764G85X06517
X06557Y06752G85X06517
X06357Y06752G85X06317
X06357Y070276G85X06317
X06557Y070276G85X06517
X06557Y073031G85X06517
X06357Y073031G85X06317
X06357Y075787G85X06317
X06557Y075787G85X06517
X06557Y078543G85X06517
X06357Y078543G85X06317
T08
X052165Y052559G85Y050984
X052165Y056496G85Y054921
X052264Y072835G85Y07126
X052264Y076772G85Y075197
M30
