M48
;Layer_Color=0
;FILE_FORMAT=2:4
INCH,LZ
;TYPE=PLATED
T01F00S00C0.0160
T02F00S00C0.0197
T03F00S00C0.0315
T04F00S00C0.0400
T06F00S00C0.0402
T07F00S00C0.0413
%
T01
X062698Y054231
X063092Y055018
X06388
X064667
X065454
X066242
X064273Y055806
Y054231
X062698Y055806
Y059743
X063092Y06053
X06388
X064667
X065454
X066242
X064273Y061317
Y059743
X062698Y061317
X061911
X061124
X061517Y062105
X062305
Y06053
X061517
X061911Y059743
X061124
X061517Y058955
X062305
X061911Y058168
X061124
X060336
X059549
X059943Y058955
X06073
Y05738
X059943
X059155
X058368
X05758
X056793
X056006
X055218
X054431
X053643
X054037Y056593
X054824
X055612
X056399
X057187
X057974
X058761
X059549
X060336
X062305
X061911Y055806
X062305Y055018
X061517
X06073
X061124Y054231
X061911
X062305Y053443
X061517
X06073
X059943
X059155
X059549Y052656
X060336
X061124
X061911
X061517Y051869
X06073
X059943
X059549Y051081
X059943Y050294
X059155
X058368
X05758
X057974Y051081
X058368Y051869
X05758
X057974Y052656
X055612
X054824
X054037
X054431Y051869
X055218
X055612Y051081
X054824
X054037
X054431Y050294
X055218
X053643
Y051869
X054037Y055018
X054824
X055612
X056399
X057187
X057974
X058761
X059155Y055806
X058368
X05758
X056793
X056006
X055218
X054431
X053643
X051281Y05738
X04871Y057338
X048181Y057283
X047758Y057309
X047314Y057338
X047758Y056496
X048334Y05502
X047349Y053051
X048334Y051083
X049087Y048622
X053249Y048605
X053246Y04792
X060336Y054231
X049429Y059798
X046365Y058957
X046417Y057352
X045506Y057286
X045113
X044707Y057309
X044254Y057331
X044241Y058042
X044694Y056625
X045367Y056397
X046614
X046365Y05502
X044397
X045381Y053051
X046365Y051083
X044397
X042428
X04065Y050984
Y052082
X041444Y049114
X042874Y049541
X043412Y049114
X043198Y056994
X041713Y056996
X041713Y059547
X043189Y059547
X043821Y060341
X043771Y062187
X042815Y061913
X041339
X039961Y061319
X03865Y061326
X037303Y061319
X037792Y060789
X035999Y061345
X035436Y062187
X033887Y060732
X032509Y060735
X031964Y059034
X032287Y058371
X031648Y058232
X032051Y057827
X032318Y055906
X031553
X031956Y054864
X031601Y053051
X03357
X035538
X035674Y055151
X03602Y056929
X037507Y056988
X03673Y05814
X035674Y058668
X033768Y058363
X033071Y055922
X038307Y055151
Y058688
X045566Y060757
X046728Y062175
X035079Y049728
Y049228
X032677Y049508
X031601Y049114
X033071Y048228
X029633Y053051
X029134Y053673
X028743Y053733
X025586Y052677
X025197Y052704
X024712Y051083
X021759Y053051
Y049114
X022743Y058957
X024712
X025696Y060925
X027664
X029633
X028976Y057932
X023727Y060925
X021759
X022743Y062894
X024712
X02668
X027664Y064862
X028629Y065598
X028649Y066831
X02668
X024712
X02369Y067618
X023727Y064862
X025696
X029633
X027591Y068669
X026591Y069375
X025696Y072736
X027664
X028589Y074087
X030205Y074127
X027378Y075069
Y076058
Y077035
X025591Y076772
X024589Y076241
X022641Y076247
X021586Y074587
X021759Y072736
X023727
X023579Y073622
X026591Y075591
X031155Y077462
X021759Y068799
X022594Y065748
X021759Y064862
X031299Y064465
X03189Y065945
X032229Y06586
X033366Y064917
X034744
X035147Y065535
X035674Y065074
X036335Y064756
X036405Y064319
X036818Y063546
X0377Y063503
X038681Y063526
X039456Y063495
X04036Y063503
X04374Y063546
X045381Y064862
X046759Y063536
X046365Y066831
Y070768
X044397
X042989Y069281
X042628Y06872
X042754Y068071
X041444Y068799
X041417Y066929
X037951Y066008
X037015Y067099
X036404Y068362
X035925Y068669
X035531
X03562Y069882
X036122Y070866
X035493Y072034
X035435Y074768
X035493Y075196
X035531Y075833
X035538Y076673
X034699Y076899
X034074Y0772
X033974Y076489
X033366Y076575
X03367Y075608
X034284Y076068
X034311Y077907
X032087
X038018Y077587
X03808Y076959
X039414Y077264
X038957Y077739
X04091Y077399
X041433Y076899
X040431Y076599
X04043Y07439
X040596Y073526
X041929Y073524
X042323Y073836
X042138Y074374
X041902Y075391
X043412Y076673
X045381
X046365Y074705
X044397
X045381Y072736
X04138Y072201
X038906Y073087
X038053Y073504
X038421Y074896
X036122Y074896
X038491Y070768
X031496Y069882
Y071791
X034312Y065782
X034823Y06285
X033445Y06285
X048334Y066831
X049298Y068907
X048334Y070768
X047349Y072736
X048334Y074705
X047349Y076673
X051281Y077853
X052856
X053643
X054431
X055218
X056006
X056793
X05758
X058368
X059155
X059943
X06073
X061517
X062305
X061911Y077065
X061124
X060336
X059549
X058761
X057974
X057187
X056399
X055612
X054824
X054037
X054431Y076278
X055218
X056006
X056793
X05758
X058368
X059155
X059943
X06073
X061517
X062305
X061911Y075491
X061124
X060336
X059549
X058761
X057974
X057187
X056399
X055612
X054824
X054037
X054431Y074703
X055218
X056006
X056793
X05758
X058368
X059155
X059943
X06073
X061517
X062305
X061911Y073128
X061124
X060336
X059549
X058761
X057974
X058368Y072341
X05758
X057974Y071554
X058368Y070766
X059155
X059549Y071554
X060336
X061124
X061911
X062305Y072341
X061517
X06073
X059943
X059549Y069979
X058761
X057974
X05758Y070766
X055612
X054824
X054037
X05325
X053643Y071554
X054431
X055218
X055612Y072341
X054824
X054037
X054431Y073128
X055218
X056006
X053643
Y074703
Y076278
X052182Y068907
X052772Y067622
X061911Y069979
X062305Y070766
X062698Y071554
X063486
X064273
X065061
X065848
X066242Y072341
Y070766
X064273Y069979
X064667Y072341
Y074703
X065454
X066242
X066635Y075491
X066242Y076278
X066635Y077065
X065848
X065061
X064273
X063486
X062698
X064667Y077853
X066242
X064273Y075491
X06388Y074703
X063092
X066635Y07864
X061911
X061124
X060336
X059549
X058761
X057974
X057187
X056399
X055612
X054824
X054037
X05325
X052462
X051675
X031693Y078337
X031093Y078287
T02
X051512Y05051
X051358Y050988
X051358Y051512
X051358Y052035
X051358Y052559
X051512Y053033
X051916Y053327
X052415Y053327
X052818Y053033
X052972Y052559
Y052035
Y051512
Y050988
X052818Y05051
X052415Y050217
X051916
Y054154
X052415Y054154
X052818Y054447
X052972Y054925
Y055449
Y055972
Y056496
X052818Y05697
X052415Y057264
X051916
X051512Y05697
X051358Y056496
Y055972
Y055449
X051358Y054925
X051512Y054447
X051611Y070785
X051457Y071264
X051457Y071787
X051457Y072311
X051457Y072835
X051611Y073309
X052014Y073602
X052513Y073602
X052917Y073309
X053071Y072835
Y072311
Y071787
Y071264
X052917Y070785
X052513Y070492
X052014
Y074429
X052513Y074429
X052917Y074722
X053071Y075201
Y075724
Y076248
Y076772
X052917Y077246
X052513Y077539
X052014
X051611Y077246
X051457Y076772
Y076248
Y075724
X051457Y075201
X051611Y074722
T03
X04374Y052988
X04374Y05374
X04374Y054492
X043839Y073264
X043839Y074016
X043839Y074768
T04
X021591Y070866
X022591
X023591
X024591
X025591
X026591
X027591
X028591
X029591
X029484Y072087
Y073087
Y074087
Y075087
Y076087
Y077087
X038083Y066929
X039083Y066929
X039433Y078329
X040433
X041433
X038433
X037433
X036433
X035433
X029589Y078287
X028589
X027589
X026589
X025589
X024589
X023589
X022589
X021589
T06
X023201Y049222
Y050404
X024382
X024382Y049222
X024382Y051585
X023201
X023201Y052766
Y053947
X024382Y053947
Y052766
Y055128
X023201
Y056309
Y05749
X024382Y05749
Y056309
T07
X030404Y062008
Y063008
Y064008
Y065008
Y066008
Y067008
M30
